<?xml version="1.0" encoding="utf-8" standalone="no"?>
<!DOCTYPE svg PUBLIC "-//W3C//DTD SVG 1.1//EN"
  "http://www.w3.org/Graphics/SVG/1.1/DTD/svg11.dtd">
<svg xmlns:xlink="http://www.w3.org/1999/xlink" width="216pt" height="144pt" viewBox="0 0 216 144" xmlns="http://www.w3.org/2000/svg" version="1.1">
 <metadata>
  <rdf:RDF xmlns:dc="http://purl.org/dc/elements/1.1/" xmlns:cc="http://creativecommons.org/ns#" xmlns:rdf="http://www.w3.org/1999/02/22-rdf-syntax-ns#">
   <cc:Work>
    <dc:type rdf:resource="http://purl.org/dc/dcmitype/StillImage"/>
    <dc:date>2025-07-04T15:49:11.196043</dc:date>
    <dc:format>image/svg+xml</dc:format>
    <dc:creator>
     <cc:Agent>
      <dc:title>Matplotlib v3.10.1, https://matplotlib.org/</dc:title>
     </cc:Agent>
    </dc:creator>
   </cc:Work>
  </rdf:RDF>
 </metadata>
 <defs>
  <style type="text/css">*{stroke-linejoin: round; stroke-linecap: butt}</style>
 </defs>
 <g id="figure_1">
  <g id="patch_1">
   <path d="M 0 144 
L 216 144 
L 216 0 
L 0 0 
z
" style="fill: #ffffff"/>
  </g>
  <g id="axes_1">
   <g id="patch_2">
    <path d="M 27 128.16 
L 194.4 128.16 
L 194.4 17.28 
L 27 17.28 
z
" style="fill: #ffffff"/>
   </g>
   <g id="FillBetweenPolyCollection_1">
    <defs>
     <path id="m8b41a19bc3" d="M 52.11 -33.605685 
L 44.138134 -33.605685 
L 44.599476 -33.69435 
L 45.828527 -33.783014 
L 47.441072 -33.871678 
L 49.008354 -33.960343 
L 50.216267 -34.049007 
L 50.911411 -34.137671 
L 51.04245 -34.226336 
L 50.573103 -34.315 
L 49.443315 -34.403664 
L 47.606349 -34.492329 
L 45.110958 -34.580993 
L 42.163884 -34.669657 
L 39.120811 -34.758322 
L 36.407107 -34.846986 
L 34.419031 -34.93565 
L 33.454798 -35.024315 
L 33.678975 -35.112979 
L 35.091278 -35.201643 
L 37.491611 -35.290308 
L 40.476875 -35.378972 
L 43.5091 -35.467636 
L 46.045384 -35.556301 
L 47.671138 -35.644965 
L 48.182344 -35.733629 
L 47.607015 -35.822294 
L 46.1838 -35.910958 
L 44.303811 -35.999622 
L 42.410673 -36.088287 
L 40.882203 -36.176951 
L 39.953883 -36.265615 
L 39.723449 -36.35428 
L 40.19987 -36.442944 
L 41.318035 -36.531608 
L 42.89432 -36.620273 
L 44.589372 -36.708937 
L 45.963862 -36.797601 
L 46.637298 -36.886266 
L 46.469234 -36.97493 
L 45.653396 -37.063595 
L 44.655846 -37.152259 
L 44.006396 -37.240923 
L 44.034467 -37.329588 
L 44.683749 -37.418252 
L 45.505102 -37.506916 
L 45.829271 -37.595581 
L 45.035298 -37.684245 
L 42.812341 -37.772909 
L 39.337627 -37.861574 
L 35.308244 -37.950238 
L 31.775261 -38.038902 
L 29.79 -38.127567 
L 29.988517 -38.216231 
L 32.320227 -38.304895 
L 36.071685 -38.39356 
L 40.163228 -38.482224 
L 43.539785 -38.570888 
L 45.463061 -38.659553 
L 45.631177 -38.748217 
L 44.175517 -38.836881 
L 41.602336 -38.925546 
L 38.677944 -39.01421 
L 36.219237 -39.102874 
L 34.820677 -39.191539 
L 34.656852 -39.280203 
L 35.502425 -39.368867 
L 36.961804 -39.457532 
L 38.730009 -39.546196 
L 40.691304 -39.63486 
L 42.823476 -39.723525 
L 45.046765 -39.812189 
L 47.172335 -39.900853 
L 48.978369 -39.989518 
L 50.322316 -40.078182 
L 51.191324 -40.166846 
L 51.668965 -40.255511 
L 51.861163 -40.344175 
L 51.831575 -40.432839 
L 51.57055 -40.521504 
L 51.0022 -40.610168 
L 50.030459 -40.698832 
L 48.617329 -40.787497 
L 46.860031 -40.876161 
L 45.007678 -40.964825 
L 43.376714 -41.05349 
L 42.201584 -41.142154 
L 41.532458 -41.230818 
L 41.273012 -41.319483 
L 41.327688 -41.408147 
L 41.715204 -41.496811 
L 42.530719 -41.585476 
L 43.787382 -41.67414 
L 45.286348 -41.762804 
L 46.637003 -41.851469 
L 47.420676 -41.940133 
L 47.392906 -42.028798 
L 46.614837 -42.117462 
L 45.454108 -42.206126 
L 44.449046 -42.294791 
L 44.084531 -42.383455 
L 52.11 -42.383455 
L 52.11 -42.383455 
L 52.11 -42.294791 
L 52.11 -42.206126 
L 52.11 -42.117462 
L 52.11 -42.028798 
L 52.11 -41.940133 
L 52.11 -41.851469 
L 52.11 -41.762804 
L 52.11 -41.67414 
L 52.11 -41.585476 
L 52.11 -41.496811 
L 52.11 -41.408147 
L 52.11 -41.319483 
L 52.11 -41.230818 
L 52.11 -41.142154 
L 52.11 -41.05349 
L 52.11 -40.964825 
L 52.11 -40.876161 
L 52.11 -40.787497 
L 52.11 -40.698832 
L 52.11 -40.610168 
L 52.11 -40.521504 
L 52.11 -40.432839 
L 52.11 -40.344175 
L 52.11 -40.255511 
L 52.11 -40.166846 
L 52.11 -40.078182 
L 52.11 -39.989518 
L 52.11 -39.900853 
L 52.11 -39.812189 
L 52.11 -39.723525 
L 52.11 -39.63486 
L 52.11 -39.546196 
L 52.11 -39.457532 
L 52.11 -39.368867 
L 52.11 -39.280203 
L 52.11 -39.191539 
L 52.11 -39.102874 
L 52.11 -39.01421 
L 52.11 -38.925546 
L 52.11 -38.836881 
L 52.11 -38.748217 
L 52.11 -38.659553 
L 52.11 -38.570888 
L 52.11 -38.482224 
L 52.11 -38.39356 
L 52.11 -38.304895 
L 52.11 -38.216231 
L 52.11 -38.127567 
L 52.11 -38.038902 
L 52.11 -37.950238 
L 52.11 -37.861574 
L 52.11 -37.772909 
L 52.11 -37.684245 
L 52.11 -37.595581 
L 52.11 -37.506916 
L 52.11 -37.418252 
L 52.11 -37.329588 
L 52.11 -37.240923 
L 52.11 -37.152259 
L 52.11 -37.063595 
L 52.11 -36.97493 
L 52.11 -36.886266 
L 52.11 -36.797601 
L 52.11 -36.708937 
L 52.11 -36.620273 
L 52.11 -36.531608 
L 52.11 -36.442944 
L 52.11 -36.35428 
L 52.11 -36.265615 
L 52.11 -36.176951 
L 52.11 -36.088287 
L 52.11 -35.999622 
L 52.11 -35.910958 
L 52.11 -35.822294 
L 52.11 -35.733629 
L 52.11 -35.644965 
L 52.11 -35.556301 
L 52.11 -35.467636 
L 52.11 -35.378972 
L 52.11 -35.290308 
L 52.11 -35.201643 
L 52.11 -35.112979 
L 52.11 -35.024315 
L 52.11 -34.93565 
L 52.11 -34.846986 
L 52.11 -34.758322 
L 52.11 -34.669657 
L 52.11 -34.580993 
L 52.11 -34.492329 
L 52.11 -34.403664 
L 52.11 -34.315 
L 52.11 -34.226336 
L 52.11 -34.137671 
L 52.11 -34.049007 
L 52.11 -33.960343 
L 52.11 -33.871678 
L 52.11 -33.783014 
L 52.11 -33.69435 
L 52.11 -33.605685 
z
" style="stroke: #434343; stroke-width: 0.5"/>
    </defs>
    <g clip-path="url(#pa3444cdd06)">
     <use xlink:href="#m8b41a19bc3" x="0" y="144" style="fill: #885757; stroke: #434343; stroke-width: 0.5"/>
    </g>
   </g>
   <g id="FillBetweenPolyCollection_2">
    <defs>
     <path id="m87de60a9fb" d="M 62.74957 -31.476823 
L 57.69 -31.476823 
L 57.69 -31.618628 
L 57.69 -31.760433 
L 57.69 -31.902238 
L 57.69 -32.044043 
L 57.69 -32.185848 
L 57.69 -32.327653 
L 57.69 -32.469457 
L 57.69 -32.611262 
L 57.69 -32.753067 
L 57.69 -32.894872 
L 57.69 -33.036677 
L 57.69 -33.178482 
L 57.69 -33.320287 
L 57.69 -33.462092 
L 57.69 -33.603897 
L 57.69 -33.745702 
L 57.69 -33.887507 
L 57.69 -34.029312 
L 57.69 -34.171117 
L 57.69 -34.312922 
L 57.69 -34.454727 
L 57.69 -34.596532 
L 57.69 -34.738337 
L 57.69 -34.880141 
L 57.69 -35.021946 
L 57.69 -35.163751 
L 57.69 -35.305556 
L 57.69 -35.447361 
L 57.69 -35.589166 
L 57.69 -35.730971 
L 57.69 -35.872776 
L 57.69 -36.014581 
L 57.69 -36.156386 
L 57.69 -36.298191 
L 57.69 -36.439996 
L 57.69 -36.581801 
L 57.69 -36.723606 
L 57.69 -36.865411 
L 57.69 -37.007216 
L 57.69 -37.149021 
L 57.69 -37.290825 
L 57.69 -37.43263 
L 57.69 -37.574435 
L 57.69 -37.71624 
L 57.69 -37.858045 
L 57.69 -37.99985 
L 57.69 -38.141655 
L 57.69 -38.28346 
L 57.69 -38.425265 
L 57.69 -38.56707 
L 57.69 -38.708875 
L 57.69 -38.85068 
L 57.69 -38.992485 
L 57.69 -39.13429 
L 57.69 -39.276095 
L 57.69 -39.4179 
L 57.69 -39.559704 
L 57.69 -39.701509 
L 57.69 -39.843314 
L 57.69 -39.985119 
L 57.69 -40.126924 
L 57.69 -40.268729 
L 57.69 -40.410534 
L 57.69 -40.552339 
L 57.69 -40.694144 
L 57.69 -40.835949 
L 57.69 -40.977754 
L 57.69 -41.119559 
L 57.69 -41.261364 
L 57.69 -41.403169 
L 57.69 -41.544974 
L 57.69 -41.686779 
L 57.69 -41.828584 
L 57.69 -41.970388 
L 57.69 -42.112193 
L 57.69 -42.253998 
L 57.69 -42.395803 
L 57.69 -42.537608 
L 57.69 -42.679413 
L 57.69 -42.821218 
L 57.69 -42.963023 
L 57.69 -43.104828 
L 57.69 -43.246633 
L 57.69 -43.388438 
L 57.69 -43.530243 
L 57.69 -43.672048 
L 57.69 -43.813853 
L 57.69 -43.955658 
L 57.69 -44.097463 
L 57.69 -44.239268 
L 57.69 -44.381072 
L 57.69 -44.522877 
L 57.69 -44.664682 
L 57.69 -44.806487 
L 57.69 -44.948292 
L 57.69 -45.090097 
L 57.69 -45.231902 
L 57.69 -45.373707 
L 57.69 -45.515512 
L 62.749554 -45.515512 
L 62.749554 -45.515512 
L 62.350842 -45.373707 
L 61.333517 -45.231902 
L 60.107027 -45.090097 
L 59.050651 -44.948292 
L 58.340004 -44.806487 
L 57.953506 -44.664682 
L 57.78065 -44.522877 
L 57.716464 -44.381072 
L 57.696556 -44.239268 
L 57.691378 -44.097463 
L 57.690246 -43.955658 
L 57.690037 -43.813853 
L 57.690005 -43.672048 
L 57.690006 -43.530243 
L 57.690041 -43.388438 
L 57.690271 -43.246633 
L 57.691506 -43.104828 
L 57.697101 -42.963023 
L 57.718409 -42.821218 
L 57.786451 -42.679413 
L 57.967885 -42.537608 
L 58.369404 -42.395803 
L 59.099599 -42.253998 
L 60.171802 -42.112193 
L 61.398027 -41.970388 
L 62.391355 -41.828584 
L 62.748335 -41.686779 
L 62.308459 -41.544974 
L 61.268469 -41.403169 
L 60.043216 -41.261364 
L 59.004948 -41.119559 
L 58.321467 -40.977754 
L 57.977864 -40.835949 
L 57.899794 -40.694144 
L 58.060506 -40.552339 
L 58.510516 -40.410534 
L 59.318839 -40.268729 
L 60.450263 -40.126924 
L 61.661886 -39.985119 
L 62.540378 -39.843314 
L 62.716455 -39.701509 
L 62.11033 -39.559704 
L 60.988906 -39.4179 
L 59.780042 -39.276095 
L 58.817592 -39.13429 
L 58.222535 -38.992485 
L 57.960925 -38.85068 
L 57.974235 -38.708875 
L 58.27008 -38.56707 
L 58.925213 -38.425265 
L 60.008837 -38.28346 
L 61.487605 -38.141655 
L 63.218715 -37.99985 
L 65.088052 -37.858045 
L 67.177216 -37.71624 
L 69.729786 -37.574435 
L 72.847505 -37.43263 
L 76.165053 -37.290825 
L 78.849673 -37.149021 
L 80.01 -37.007216 
L 79.249247 -36.865411 
L 76.967728 -36.723606 
L 74.168407 -36.581801 
L 71.850574 -36.439996 
L 70.404405 -36.298191 
L 69.465843 -36.156386 
L 68.332294 -36.014581 
L 66.564585 -35.872776 
L 64.277965 -35.730971 
L 61.962026 -35.589166 
L 60.087056 -35.447361 
L 58.847978 -35.305556 
L 58.170156 -35.163751 
L 57.86054 -35.021946 
L 57.741869 -34.880141 
L 57.703934 -34.738337 
L 57.695612 -34.596532 
L 57.702319 -34.454727 
L 57.734507 -34.312922 
L 57.832386 -34.171117 
L 58.077267 -34.029312 
L 58.583908 -33.887507 
L 59.440981 -33.745702 
L 60.600544 -33.603897 
L 61.795549 -33.462092 
L 62.604428 -33.320287 
L 62.68208 -33.178482 
L 61.993413 -33.036677 
L 60.839145 -32.894872 
L 59.650541 -32.753067 
L 58.745769 -32.611262 
L 58.24077 -32.469457 
L 58.128049 -32.327653 
L 58.396191 -32.185848 
L 59.066 -32.044043 
L 60.110586 -31.902238 
L 61.334217 -31.760433 
L 62.350959 -31.618628 
L 62.74957 -31.476823 
z
" style="stroke: #434343; stroke-width: 0.5"/>
    </defs>
    <g clip-path="url(#pa3444cdd06)">
     <use xlink:href="#m87de60a9fb" x="0" y="144" style="fill: #b07878; stroke: #434343; stroke-width: 0.5"/>
    </g>
   </g>
   <g id="FillBetweenPolyCollection_3">
    <defs>
     <path id="me32e2818eb" d="M 107.91 -40.178915 
L 104.644907 -40.178915 
L 104.85607 -40.755455 
L 105.342036 -41.331995 
L 105.578909 -41.908536 
L 105.002744 -42.485076 
L 103.232012 -43.061616 
L 100.20644 -43.638156 
L 96.24022 -44.214696 
L 91.985994 -44.791236 
L 88.308293 -45.367776 
L 86.039928 -45.944317 
L 85.59 -46.520857 
L 86.586369 -47.097397 
L 87.982657 -47.673937 
L 88.779827 -48.250477 
L 88.809324 -48.827017 
L 88.82122 -49.403557 
L 89.781731 -49.980098 
L 92.039614 -50.556638 
L 95.078312 -51.133178 
L 97.97899 -51.709718 
L 100.094786 -52.286258 
L 101.358065 -52.862798 
L 102.114164 -53.439338 
L 102.788688 -54.015879 
L 103.64956 -54.592419 
L 104.71075 -55.168959 
L 105.766163 -55.745499 
L 106.524504 -56.322039 
L 106.742724 -56.898579 
L 106.276652 -57.475119 
L 105.092546 -58.05166 
L 103.313914 -58.6282 
L 101.26925 -59.20474 
L 99.434484 -59.78128 
L 98.241617 -60.35782 
L 97.867795 -60.93436 
L 98.176603 -61.5109 
L 98.875046 -62.087441 
L 99.743412 -62.663981 
L 100.706722 -63.240521 
L 101.685696 -63.817061 
L 102.432578 -64.393601 
L 102.614599 -64.970141 
L 102.146134 -65.546681 
L 101.430942 -66.123222 
L 101.170051 -66.699762 
L 101.831209 -67.276302 
L 103.288842 -67.852842 
L 104.980626 -68.429382 
L 106.367712 -69.005922 
L 107.236569 -69.582462 
L 107.66626 -70.159003 
L 107.836889 -70.735543 
L 107.891827 -71.312083 
L 107.906257 -71.888623 
L 107.909361 -72.465163 
L 107.90991 -73.041703 
L 107.909989 -73.618243 
L 107.909999 -74.194784 
L 107.91 -74.771324 
L 107.91 -75.347864 
L 107.91 -75.924404 
L 107.91 -76.500944 
L 107.91 -77.077484 
L 107.91 -77.654024 
L 107.91 -78.230565 
L 107.91 -78.807105 
L 107.91 -79.383645 
L 107.91 -79.960185 
L 107.909999 -80.536725 
L 107.909989 -81.113265 
L 107.909911 -81.689805 
L 107.909407 -82.266346 
L 107.906732 -82.842886 
L 107.895085 -83.419426 
L 107.853625 -83.995966 
L 107.73351 -84.572506 
L 107.452365 -85.149046 
L 106.927145 -85.725586 
L 106.161649 -86.302127 
L 105.33405 -86.878667 
L 104.766483 -87.455207 
L 104.732661 -88.031747 
L 105.250005 -88.608287 
L 106.065547 -89.184827 
L 106.850688 -89.761367 
L 107.40609 -90.337908 
L 107.711425 -90.914448 
L 107.844948 -91.490988 
L 107.890917 -92.067528 
L 107.89829 -92.644068 
L 107.877265 -93.220608 
L 107.800957 -93.797148 
L 107.602929 -94.373689 
L 107.193102 -94.950229 
L 106.523681 -95.526769 
L 105.689558 -96.103309 
L 104.964322 -96.679849 
L 104.673315 -97.256389 
L 107.91 -97.256389 
L 107.91 -97.256389 
L 107.91 -96.679849 
L 107.91 -96.103309 
L 107.91 -95.526769 
L 107.91 -94.950229 
L 107.91 -94.373689 
L 107.91 -93.797148 
L 107.91 -93.220608 
L 107.91 -92.644068 
L 107.91 -92.067528 
L 107.91 -91.490988 
L 107.91 -90.914448 
L 107.91 -90.337908 
L 107.91 -89.761367 
L 107.91 -89.184827 
L 107.91 -88.608287 
L 107.91 -88.031747 
L 107.91 -87.455207 
L 107.91 -86.878667 
L 107.91 -86.302127 
L 107.91 -85.725586 
L 107.91 -85.149046 
L 107.91 -84.572506 
L 107.91 -83.995966 
L 107.91 -83.419426 
L 107.91 -82.842886 
L 107.91 -82.266346 
L 107.91 -81.689805 
L 107.91 -81.113265 
L 107.91 -80.536725 
L 107.91 -79.960185 
L 107.91 -79.383645 
L 107.91 -78.807105 
L 107.91 -78.230565 
L 107.91 -77.654024 
L 107.91 -77.077484 
L 107.91 -76.500944 
L 107.91 -75.924404 
L 107.91 -75.347864 
L 107.91 -74.771324 
L 107.91 -74.194784 
L 107.91 -73.618243 
L 107.91 -73.041703 
L 107.91 -72.465163 
L 107.91 -71.888623 
L 107.91 -71.312083 
L 107.91 -70.735543 
L 107.91 -70.159003 
L 107.91 -69.582462 
L 107.91 -69.005922 
L 107.91 -68.429382 
L 107.91 -67.852842 
L 107.91 -67.276302 
L 107.91 -66.699762 
L 107.91 -66.123222 
L 107.91 -65.546681 
L 107.91 -64.970141 
L 107.91 -64.393601 
L 107.91 -63.817061 
L 107.91 -63.240521 
L 107.91 -62.663981 
L 107.91 -62.087441 
L 107.91 -61.5109 
L 107.91 -60.93436 
L 107.91 -60.35782 
L 107.91 -59.78128 
L 107.91 -59.20474 
L 107.91 -58.6282 
L 107.91 -58.05166 
L 107.91 -57.475119 
L 107.91 -56.898579 
L 107.91 -56.322039 
L 107.91 -55.745499 
L 107.91 -55.168959 
L 107.91 -54.592419 
L 107.91 -54.015879 
L 107.91 -53.439338 
L 107.91 -52.862798 
L 107.91 -52.286258 
L 107.91 -51.709718 
L 107.91 -51.133178 
L 107.91 -50.556638 
L 107.91 -49.980098 
L 107.91 -49.403557 
L 107.91 -48.827017 
L 107.91 -48.250477 
L 107.91 -47.673937 
L 107.91 -47.097397 
L 107.91 -46.520857 
L 107.91 -45.944317 
L 107.91 -45.367776 
L 107.91 -44.791236 
L 107.91 -44.214696 
L 107.91 -43.638156 
L 107.91 -43.061616 
L 107.91 -42.485076 
L 107.91 -41.908536 
L 107.91 -41.331995 
L 107.91 -40.755455 
L 107.91 -40.178915 
z
" style="stroke: #434343; stroke-width: 0.5"/>
    </defs>
    <g clip-path="url(#pa3444cdd06)">
     <use xlink:href="#me32e2818eb" x="0" y="144" style="fill: #c1a390; stroke: #434343; stroke-width: 0.5"/>
    </g>
   </g>
   <g id="FillBetweenPolyCollection_4">
    <defs>
     <path id="m02b778731e" d="M 116.661715 -31.018333 
L 113.49 -31.018333 
L 113.49 -31.649405 
L 113.49 -32.280476 
L 113.49 -32.911548 
L 113.49 -33.542619 
L 113.49 -34.173691 
L 113.49 -34.804762 
L 113.49 -35.435834 
L 113.49 -36.066905 
L 113.49 -36.697977 
L 113.49 -37.329048 
L 113.49 -37.96012 
L 113.49 -38.591191 
L 113.49 -39.222263 
L 113.49 -39.853334 
L 113.49 -40.484406 
L 113.49 -41.115477 
L 113.49 -41.746549 
L 113.49 -42.37762 
L 113.49 -43.008692 
L 113.49 -43.639764 
L 113.49 -44.270835 
L 113.49 -44.901907 
L 113.49 -45.532978 
L 113.49 -46.16405 
L 113.49 -46.795121 
L 113.49 -47.426193 
L 113.49 -48.057264 
L 113.49 -48.688336 
L 113.49 -49.319407 
L 113.49 -49.950479 
L 113.49 -50.58155 
L 113.49 -51.212622 
L 113.49 -51.843693 
L 113.49 -52.474765 
L 113.49 -53.105836 
L 113.49 -53.736908 
L 113.49 -54.367979 
L 113.49 -54.999051 
L 113.49 -55.630122 
L 113.49 -56.261194 
L 113.49 -56.892265 
L 113.49 -57.523337 
L 113.49 -58.154409 
L 113.49 -58.78548 
L 113.49 -59.416552 
L 113.49 -60.047623 
L 113.49 -60.678695 
L 113.49 -61.309766 
L 113.49 -61.940838 
L 113.49 -62.571909 
L 113.49 -63.202981 
L 113.49 -63.834052 
L 113.49 -64.465124 
L 113.49 -65.096195 
L 113.49 -65.727267 
L 113.49 -66.358338 
L 113.49 -66.98941 
L 113.49 -67.620481 
L 113.49 -68.251553 
L 113.49 -68.882624 
L 113.49 -69.513696 
L 113.49 -70.144767 
L 113.49 -70.775839 
L 113.49 -71.406911 
L 113.49 -72.037982 
L 113.49 -72.669054 
L 113.49 -73.300125 
L 113.49 -73.931197 
L 113.49 -74.562268 
L 113.49 -75.19334 
L 113.49 -75.824411 
L 113.49 -76.455483 
L 113.49 -77.086554 
L 113.49 -77.717626 
L 113.49 -78.348697 
L 113.49 -78.979769 
L 113.49 -79.61084 
L 113.49 -80.241912 
L 113.49 -80.872983 
L 113.49 -81.504055 
L 113.49 -82.135126 
L 113.49 -82.766198 
L 113.49 -83.397269 
L 113.49 -84.028341 
L 113.49 -84.659412 
L 113.49 -85.290484 
L 113.49 -85.921556 
L 113.49 -86.552627 
L 113.49 -87.183699 
L 113.49 -87.81477 
L 113.49 -88.445842 
L 113.49 -89.076913 
L 113.49 -89.707985 
L 113.49 -90.339056 
L 113.49 -90.970128 
L 113.49 -91.601199 
L 113.49 -92.232271 
L 113.49 -92.863342 
L 113.49 -93.494414 
L 116.657575 -93.494414 
L 116.657575 -93.494414 
L 116.40434 -92.863342 
L 115.759813 -92.232271 
L 114.986852 -91.601199 
L 114.327602 -90.970128 
L 113.895413 -90.339056 
L 113.687517 -89.707985 
L 113.665854 -89.076913 
L 113.824463 -88.445842 
L 114.197857 -87.81477 
L 114.805794 -87.183699 
L 115.569032 -86.552627 
L 116.272003 -85.921556 
L 116.641371 -85.290484 
L 116.511813 -84.659412 
L 115.942786 -84.028341 
L 115.175293 -83.397269 
L 114.4702 -82.766198 
L 113.97259 -82.135126 
L 113.691124 -81.504055 
L 113.560954 -80.872983 
L 113.511189 -80.241912 
L 113.495357 -79.61084 
L 113.491151 -78.979769 
L 113.490247 -78.348697 
L 113.490286 -77.717626 
L 113.491381 -77.086554 
L 113.496314 -76.455483 
L 113.514507 -75.824411 
L 113.570527 -75.19334 
L 113.713986 -74.562268 
L 114.017381 -73.931197 
L 114.541117 -73.300125 
L 115.263381 -72.669054 
L 116.022658 -72.037982 
L 116.551786 -71.406911 
L 116.623262 -70.775839 
L 116.204203 -70.144767 
L 115.480269 -69.513696 
L 114.725392 -68.882624 
L 114.139115 -68.251553 
L 113.77871 -67.620481 
L 113.598699 -66.98941 
L 113.524643 -66.358338 
L 113.499346 -65.727267 
L 113.492134 -65.096195 
L 113.490413 -64.465124 
L 113.490068 -63.834052 
L 113.490009 -63.202981 
L 113.490001 -62.571909 
L 113.49 -61.940838 
L 113.49 -61.309766 
L 113.49 -60.678695 
L 113.49 -60.047623 
L 113.490003 -59.416552 
L 113.490023 -58.78548 
L 113.490162 -58.154409 
L 113.490966 -57.523337 
L 113.494898 -56.892265 
L 113.511047 -56.261194 
L 113.566718 -55.630122 
L 113.727379 -54.999051 
L 114.114224 -54.367979 
L 114.887959 -53.736908 
L 116.16603 -53.105836 
L 117.896794 -52.474765 
L 119.802967 -51.843693 
L 121.504635 -51.212622 
L 122.76502 -50.58155 
L 123.631026 -49.950479 
L 124.315382 -49.319407 
L 124.945831 -48.688336 
L 125.457202 -48.057264 
L 125.749466 -47.426193 
L 125.958722 -46.795121 
L 126.550735 -46.16405 
L 128.059267 -45.532978 
L 130.595019 -44.901907 
L 133.5185 -44.270835 
L 135.625929 -43.639764 
L 135.81 -43.008692 
L 133.744819 -42.37762 
L 130.091649 -41.746549 
L 126.096117 -41.115477 
L 122.909406 -40.484406 
L 121.105359 -39.853334 
L 120.613313 -39.222263 
L 120.940733 -38.591191 
L 121.441979 -37.96012 
L 121.528466 -37.329048 
L 120.854224 -36.697977 
L 119.455551 -36.066905 
L 117.722512 -35.435834 
L 116.172349 -34.804762 
L 115.188052 -34.173691 
L 114.898163 -33.542619 
L 115.200382 -32.911548 
L 115.827534 -32.280476 
L 116.422535 -31.649405 
L 116.661715 -31.018333 
z
" style="stroke: #434343; stroke-width: 0.5"/>
    </defs>
    <g clip-path="url(#pa3444cdd06)">
     <use xlink:href="#m02b778731e" x="0" y="144" style="fill: #d1c3a4; stroke: #434343; stroke-width: 0.5"/>
    </g>
   </g>
   <g id="FillBetweenPolyCollection_5">
    <defs>
     <path id="m32e01ced7e" d="M 163.71 -42.656346 
L 154.739439 -42.656346 
L 151.787946 -43.454565 
L 148.691777 -44.252784 
L 145.782121 -45.051002 
L 143.442296 -45.849221 
L 141.960695 -46.64744 
L 141.39 -47.445659 
L 141.527141 -48.243877 
L 142.046067 -49.042096 
L 142.698906 -49.840315 
L 143.451274 -50.638533 
L 144.46241 -51.436752 
L 145.922356 -52.234971 
L 147.858079 -53.03319 
L 150.05355 -53.831408 
L 152.154343 -54.629627 
L 153.884698 -55.427846 
L 155.210112 -56.226065 
L 156.321108 -57.024283 
L 157.46153 -57.822502 
L 158.746071 -58.620721 
L 160.101725 -59.418939 
L 161.349219 -60.217158 
L 162.332665 -61.015377 
L 162.997075 -61.813596 
L 163.383501 -62.611814 
L 163.577896 -63.410033 
L 163.662816 -64.208252 
L 163.695129 -65.00647 
L 163.705866 -65.804689 
L 163.708986 -66.602908 
L 163.709781 -67.401127 
L 163.709958 -68.199345 
L 163.709993 -68.997564 
L 163.709999 -69.795783 
L 163.71 -70.594002 
L 163.71 -71.39222 
L 163.71 -72.190439 
L 163.71 -72.988658 
L 163.71 -73.786876 
L 163.71 -74.585095 
L 163.71 -75.383314 
L 163.71 -76.181533 
L 163.71 -76.979751 
L 163.71 -77.77797 
L 163.71 -78.576189 
L 163.71 -79.374408 
L 163.71 -80.172626 
L 163.71 -80.970845 
L 163.71 -81.769064 
L 163.71 -82.567282 
L 163.71 -83.365501 
L 163.71 -84.16372 
L 163.71 -84.961939 
L 163.71 -85.760157 
L 163.71 -86.558376 
L 163.71 -87.356595 
L 163.71 -88.154814 
L 163.71 -88.953032 
L 163.71 -89.751251 
L 163.71 -90.54947 
L 163.71 -91.347688 
L 163.71 -92.145907 
L 163.71 -92.944126 
L 163.71 -93.742345 
L 163.71 -94.540563 
L 163.71 -95.338782 
L 163.71 -96.137001 
L 163.71 -96.93522 
L 163.71 -97.733438 
L 163.71 -98.531657 
L 163.71 -99.329876 
L 163.71 -100.128094 
L 163.71 -100.926313 
L 163.71 -101.724532 
L 163.71 -102.522751 
L 163.71 -103.320969 
L 163.71 -104.119188 
L 163.71 -104.917407 
L 163.71 -105.715625 
L 163.71 -106.513844 
L 163.71 -107.312063 
L 163.71 -108.110282 
L 163.709997 -108.9085 
L 163.709981 -109.706719 
L 163.709899 -110.504938 
L 163.709514 -111.303157 
L 163.707933 -112.101375 
L 163.702231 -112.899594 
L 163.68419 -113.697813 
L 163.634176 -114.496031 
L 163.512958 -115.29425 
L 163.256877 -116.092469 
L 162.787566 -116.890688 
L 162.047095 -117.688906 
L 161.054492 -118.487125 
L 159.952566 -119.285344 
L 158.998177 -120.083563 
L 158.47277 -120.881781 
L 158.549893 -121.68 
L 163.71 -121.68 
L 163.71 -121.68 
L 163.71 -120.881781 
L 163.71 -120.083563 
L 163.71 -119.285344 
L 163.71 -118.487125 
L 163.71 -117.688906 
L 163.71 -116.890688 
L 163.71 -116.092469 
L 163.71 -115.29425 
L 163.71 -114.496031 
L 163.71 -113.697813 
L 163.71 -112.899594 
L 163.71 -112.101375 
L 163.71 -111.303157 
L 163.71 -110.504938 
L 163.71 -109.706719 
L 163.71 -108.9085 
L 163.71 -108.110282 
L 163.71 -107.312063 
L 163.71 -106.513844 
L 163.71 -105.715625 
L 163.71 -104.917407 
L 163.71 -104.119188 
L 163.71 -103.320969 
L 163.71 -102.522751 
L 163.71 -101.724532 
L 163.71 -100.926313 
L 163.71 -100.128094 
L 163.71 -99.329876 
L 163.71 -98.531657 
L 163.71 -97.733438 
L 163.71 -96.93522 
L 163.71 -96.137001 
L 163.71 -95.338782 
L 163.71 -94.540563 
L 163.71 -93.742345 
L 163.71 -92.944126 
L 163.71 -92.145907 
L 163.71 -91.347688 
L 163.71 -90.54947 
L 163.71 -89.751251 
L 163.71 -88.953032 
L 163.71 -88.154814 
L 163.71 -87.356595 
L 163.71 -86.558376 
L 163.71 -85.760157 
L 163.71 -84.961939 
L 163.71 -84.16372 
L 163.71 -83.365501 
L 163.71 -82.567282 
L 163.71 -81.769064 
L 163.71 -80.970845 
L 163.71 -80.172626 
L 163.71 -79.374408 
L 163.71 -78.576189 
L 163.71 -77.77797 
L 163.71 -76.979751 
L 163.71 -76.181533 
L 163.71 -75.383314 
L 163.71 -74.585095 
L 163.71 -73.786876 
L 163.71 -72.988658 
L 163.71 -72.190439 
L 163.71 -71.39222 
L 163.71 -70.594002 
L 163.71 -69.795783 
L 163.71 -68.997564 
L 163.71 -68.199345 
L 163.71 -67.401127 
L 163.71 -66.602908 
L 163.71 -65.804689 
L 163.71 -65.00647 
L 163.71 -64.208252 
L 163.71 -63.410033 
L 163.71 -62.611814 
L 163.71 -61.813596 
L 163.71 -61.015377 
L 163.71 -60.217158 
L 163.71 -59.418939 
L 163.71 -58.620721 
L 163.71 -57.822502 
L 163.71 -57.024283 
L 163.71 -56.226065 
L 163.71 -55.427846 
L 163.71 -54.629627 
L 163.71 -53.831408 
L 163.71 -53.03319 
L 163.71 -52.234971 
L 163.71 -51.436752 
L 163.71 -50.638533 
L 163.71 -49.840315 
L 163.71 -49.042096 
L 163.71 -48.243877 
L 163.71 -47.445659 
L 163.71 -46.64744 
L 163.71 -45.849221 
L 163.71 -45.051002 
L 163.71 -44.252784 
L 163.71 -43.454565 
L 163.71 -42.656346 
z
" style="stroke: #434343; stroke-width: 0.5"/>
    </defs>
    <g clip-path="url(#pa3444cdd06)">
     <use xlink:href="#m32e01ced7e" x="0" y="144" style="fill: #dedeb7; stroke: #434343; stroke-width: 0.5"/>
    </g>
   </g>
   <g id="FillBetweenPolyCollection_6">
    <defs>
     <path id="mf6dcd77391" d="M 175.153183 -20.88 
L 169.29 -20.88 
L 169.29 -21.097615 
L 169.29 -21.31523 
L 169.29 -21.532845 
L 169.29 -21.75046 
L 169.29 -21.968075 
L 169.29 -22.18569 
L 169.29 -22.403306 
L 169.29 -22.620921 
L 169.29 -22.838536 
L 169.29 -23.056151 
L 169.29 -23.273766 
L 169.29 -23.491381 
L 169.29 -23.708996 
L 169.29 -23.926611 
L 169.29 -24.144226 
L 169.29 -24.361841 
L 169.29 -24.579456 
L 169.29 -24.797071 
L 169.29 -25.014686 
L 169.29 -25.232302 
L 169.29 -25.449917 
L 169.29 -25.667532 
L 169.29 -25.885147 
L 169.29 -26.102762 
L 169.29 -26.320377 
L 169.29 -26.537992 
L 169.29 -26.755607 
L 169.29 -26.973222 
L 169.29 -27.190837 
L 169.29 -27.408452 
L 169.29 -27.626067 
L 169.29 -27.843682 
L 169.29 -28.061298 
L 169.29 -28.278913 
L 169.29 -28.496528 
L 169.29 -28.714143 
L 169.29 -28.931758 
L 169.29 -29.149373 
L 169.29 -29.366988 
L 169.29 -29.584603 
L 169.29 -29.802218 
L 169.29 -30.019833 
L 169.29 -30.237448 
L 169.29 -30.455063 
L 169.29 -30.672678 
L 169.29 -30.890294 
L 169.29 -31.107909 
L 169.29 -31.325524 
L 169.29 -31.543139 
L 169.29 -31.760754 
L 169.29 -31.978369 
L 169.29 -32.195984 
L 169.29 -32.413599 
L 169.29 -32.631214 
L 169.29 -32.848829 
L 169.29 -33.066444 
L 169.29 -33.284059 
L 169.29 -33.501674 
L 169.29 -33.71929 
L 169.29 -33.936905 
L 169.29 -34.15452 
L 169.29 -34.372135 
L 169.29 -34.58975 
L 169.29 -34.807365 
L 169.29 -35.02498 
L 169.29 -35.242595 
L 169.29 -35.46021 
L 169.29 -35.677825 
L 169.29 -35.89544 
L 169.29 -36.113055 
L 169.29 -36.33067 
L 169.29 -36.548286 
L 169.29 -36.765901 
L 169.29 -36.983516 
L 169.29 -37.201131 
L 169.29 -37.418746 
L 169.29 -37.636361 
L 169.29 -37.853976 
L 169.29 -38.071591 
L 169.29 -38.289206 
L 169.29 -38.506821 
L 169.29 -38.724436 
L 169.29 -38.942051 
L 169.29 -39.159666 
L 169.29 -39.377282 
L 169.29 -39.594897 
L 169.29 -39.812512 
L 169.29 -40.030127 
L 169.29 -40.247742 
L 169.29 -40.465357 
L 169.29 -40.682972 
L 169.29 -40.900587 
L 169.29 -41.118202 
L 169.29 -41.335817 
L 169.29 -41.553432 
L 169.29 -41.771047 
L 169.29 -41.988662 
L 169.29 -42.206278 
L 169.29 -42.423893 
L 183.152348 -42.423893 
L 183.152348 -42.423893 
L 186.12509 -42.206278 
L 187.438271 -41.988662 
L 186.868725 -41.771047 
L 184.771781 -41.553432 
L 182.002844 -41.335817 
L 179.663276 -41.118202 
L 178.63228 -40.900587 
L 179.20012 -40.682972 
L 181.149734 -40.465357 
L 184.0602 -40.247742 
L 187.345585 -40.030127 
L 190.147312 -39.812512 
L 191.61 -39.594897 
L 191.469629 -39.377282 
L 190.288665 -39.159666 
L 189.067325 -38.942051 
L 188.614477 -38.724436 
L 189.10815 -38.506821 
L 190.032746 -38.289206 
L 190.529539 -38.071591 
L 189.960558 -37.853976 
L 188.303007 -37.636361 
L 186.164393 -37.418746 
L 184.422114 -37.201131 
L 183.583541 -36.983516 
L 183.31075 -36.765901 
L 182.754826 -36.548286 
L 181.558501 -36.33067 
L 180.375076 -36.113055 
L 180.145586 -35.89544 
L 180.901563 -35.677825 
L 181.5197 -35.46021 
L 180.765836 -35.242595 
L 178.485552 -35.02498 
L 175.71653 -34.807365 
L 173.776425 -34.58975 
L 173.317957 -34.372135 
L 174.029864 -34.15452 
L 174.964705 -33.936905 
L 175.206201 -33.71929 
L 174.492373 -33.501674 
L 173.352775 -33.284059 
L 172.647292 -33.066444 
L 172.901023 -32.848829 
L 173.927005 -32.631214 
L 174.960124 -32.413599 
L 175.22729 -32.195984 
L 174.566804 -31.978369 
L 173.568357 -31.760754 
L 173.080008 -31.543139 
L 173.509757 -31.325524 
L 174.495076 -31.107909 
L 175.185559 -30.890294 
L 174.914068 -30.672678 
L 173.691263 -30.455063 
L 172.095785 -30.237448 
L 170.744442 -30.019833 
L 169.902778 -29.802218 
L 169.499809 -29.584603 
L 169.348377 -29.366988 
L 169.3032 -29.149373 
L 169.292425 -28.931758 
L 169.290362 -28.714143 
L 169.290044 -28.496528 
L 169.290004 -28.278913 
L 169.29 -28.061298 
L 169.29 -27.843682 
L 169.29 -27.626067 
L 169.29 -27.408452 
L 169.29 -27.190837 
L 169.29 -26.973222 
L 169.29 -26.755607 
L 169.29 -26.537992 
L 169.29 -26.320377 
L 169.29 -26.102762 
L 169.29 -25.885147 
L 169.29 -25.667532 
L 169.29 -25.449917 
L 169.29 -25.232302 
L 169.29 -25.014686 
L 169.29 -24.797071 
L 169.29 -24.579456 
L 169.29 -24.361841 
L 169.29 -24.144226 
L 169.29 -23.926611 
L 169.29 -23.708996 
L 169.290002 -23.491381 
L 169.290021 -23.273766 
L 169.290183 -23.056151 
L 169.291315 -22.838536 
L 169.29767 -22.620921 
L 169.326357 -22.403306 
L 169.430044 -22.18569 
L 169.728364 -21.968075 
L 170.405071 -21.75046 
L 171.594974 -21.532845 
L 173.161914 -21.31523 
L 174.575444 -21.097615 
L 175.153183 -20.88 
z
" style="stroke: #434343; stroke-width: 0.5"/>
    </defs>
    <g clip-path="url(#pa3444cdd06)">
     <use xlink:href="#mf6dcd77391" x="0" y="144" style="fill: #f0f0db; stroke: #434343; stroke-width: 0.5"/>
    </g>
   </g>
   <g id="matplotlib.axis_1">
    <g id="xtick_1">
     <g id="line2d_1">
      <defs>
       <path id="m312ce7d406" d="M 0 0 
L 0 -3 
" style="stroke: #000000; stroke-width: 0.5"/>
      </defs>
      <g>
       <use xlink:href="#m312ce7d406" x="40.95" y="128.16" style="stroke: #000000; stroke-width: 0.5"/>
      </g>
     </g>
     <g id="text_1">
      <text style="font-size: 7px; font-family: 'DejaVu Sans', 'Bitstream Vera Sans', 'Computer Modern Sans Serif', 'Lucida Grande', 'Verdana', 'Geneva', 'Lucid', 'Arial', 'Helvetica', 'Avant Garde', sans-serif" transform="translate(27.240938 136.978906)">AcGum,</text>
      <text style="font-size: 7px; font-family: 'DejaVu Sans', 'Bitstream Vera Sans', 'Computer Modern Sans Serif', 'Lucida Grande', 'Verdana', 'Geneva', 'Lucid', 'Arial', 'Helvetica', 'Avant Garde', sans-serif" transform="translate(28.006016 144.817375)"> n=252</text>
     </g>
    </g>
    <g id="xtick_2">
     <g id="line2d_2">
      <g>
       <use xlink:href="#m312ce7d406" x="68.85" y="128.16" style="stroke: #000000; stroke-width: 0.5"/>
      </g>
     </g>
     <g id="text_2">
      <text style="font-size: 7px; font-family: 'DejaVu Sans', 'Bitstream Vera Sans', 'Computer Modern Sans Serif', 'Lucida Grande', 'Verdana', 'Geneva', 'Lucid', 'Arial', 'Helvetica', 'Avant Garde', sans-serif" transform="translate(58.075469 136.978906)">ArGal,</text>
      <text style="font-size: 7px; font-family: 'DejaVu Sans', 'Bitstream Vera Sans', 'Computer Modern Sans Serif', 'Lucida Grande', 'Verdana', 'Geneva', 'Lucid', 'Arial', 'Helvetica', 'Avant Garde', sans-serif" transform="translate(55.906016 144.817375)"> n=271</text>
     </g>
    </g>
    <g id="xtick_3">
     <g id="line2d_3">
      <g>
       <use xlink:href="#m312ce7d406" x="96.75" y="128.16" style="stroke: #000000; stroke-width: 0.5"/>
      </g>
     </g>
     <g id="text_3">
      <text style="font-size: 7px; font-family: 'DejaVu Sans', 'Bitstream Vera Sans', 'Computer Modern Sans Serif', 'Lucida Grande', 'Verdana', 'Geneva', 'Lucid', 'Arial', 'Helvetica', 'Avant Garde', sans-serif" transform="translate(86.006094 136.978906)">Inulin,</text>
      <text style="font-size: 7px; font-family: 'DejaVu Sans', 'Bitstream Vera Sans', 'Computer Modern Sans Serif', 'Lucida Grande', 'Verdana', 'Geneva', 'Lucid', 'Arial', 'Helvetica', 'Avant Garde', sans-serif" transform="translate(83.806016 144.817375)"> n=673</text>
     </g>
    </g>
    <g id="xtick_4">
     <g id="line2d_4">
      <g>
       <use xlink:href="#m312ce7d406" x="124.65" y="128.16" style="stroke: #000000; stroke-width: 0.5"/>
      </g>
     </g>
     <g id="text_4">
      <text style="font-size: 7px; font-family: 'DejaVu Sans', 'Bitstream Vera Sans', 'Computer Modern Sans Serif', 'Lucida Grande', 'Verdana', 'Geneva', 'Lucid', 'Arial', 'Helvetica', 'Avant Garde', sans-serif" transform="translate(112.913516 136.978906)">Pectin,</text>
      <text style="font-size: 7px; font-family: 'DejaVu Sans', 'Bitstream Vera Sans', 'Computer Modern Sans Serif', 'Lucida Grande', 'Verdana', 'Geneva', 'Lucid', 'Arial', 'Helvetica', 'Avant Garde', sans-serif" transform="translate(111.706016 144.817375)"> n=539</text>
     </g>
    </g>
    <g id="xtick_5">
     <g id="line2d_5">
      <g>
       <use xlink:href="#m312ce7d406" x="152.55" y="128.16" style="stroke: #000000; stroke-width: 0.5"/>
      </g>
     </g>
     <g id="text_5">
      <text style="font-size: 7px; font-family: 'DejaVu Sans', 'Bitstream Vera Sans', 'Computer Modern Sans Serif', 'Lucida Grande', 'Verdana', 'Geneva', 'Lucid', 'Arial', 'Helvetica', 'Avant Garde', sans-serif" transform="translate(140.196094 136.978906)">Starch,</text>
      <text style="font-size: 7px; font-family: 'DejaVu Sans', 'Bitstream Vera Sans', 'Computer Modern Sans Serif', 'Lucida Grande', 'Verdana', 'Geneva', 'Lucid', 'Arial', 'Helvetica', 'Avant Garde', sans-serif" transform="translate(139.606016 144.817375)"> n=392</text>
     </g>
    </g>
    <g id="xtick_6">
     <g id="line2d_6">
      <g>
       <use xlink:href="#m312ce7d406" x="180.45" y="128.16" style="stroke: #000000; stroke-width: 0.5"/>
      </g>
     </g>
     <g id="text_6">
      <text style="font-size: 7px; font-family: 'DejaVu Sans', 'Bitstream Vera Sans', 'Computer Modern Sans Serif', 'Lucida Grande', 'Verdana', 'Geneva', 'Lucid', 'Arial', 'Helvetica', 'Avant Garde', sans-serif" transform="translate(169.533281 136.978906)">Xylan,</text>
      <text style="font-size: 7px; font-family: 'DejaVu Sans', 'Bitstream Vera Sans', 'Computer Modern Sans Serif', 'Lucida Grande', 'Verdana', 'Geneva', 'Lucid', 'Arial', 'Helvetica', 'Avant Garde', sans-serif" transform="translate(167.506016 144.817375)"> n=335</text>
     </g>
    </g>
   </g>
   <g id="matplotlib.axis_2">
    <g id="ytick_1">
     <g id="line2d_7">
      <defs>
       <path id="maefbc4cd7f" d="M 0 0 
L 3 0 
" style="stroke: #000000; stroke-width: 0.5"/>
      </defs>
      <g>
       <use xlink:href="#maefbc4cd7f" x="27" y="121.254099" style="stroke: #000000; stroke-width: 0.5"/>
      </g>
     </g>
     <g id="text_7">
      <text style="font-size: 7px; font-family: 'DejaVu Sans', 'Bitstream Vera Sans', 'Computer Modern Sans Serif', 'Lucida Grande', 'Verdana', 'Geneva', 'Lucid', 'Arial', 'Helvetica', 'Avant Garde', sans-serif; text-anchor: end" x="23.5" y="123.913552" transform="rotate(-0 23.5 123.913552)">−0.005</text>
     </g>
    </g>
    <g id="ytick_2">
     <g id="line2d_8">
      <g>
       <use xlink:href="#maefbc4cd7f" x="27" y="103.98206" style="stroke: #000000; stroke-width: 0.5"/>
      </g>
     </g>
     <g id="text_8">
      <text style="font-size: 7px; font-family: 'DejaVu Sans', 'Bitstream Vera Sans', 'Computer Modern Sans Serif', 'Lucida Grande', 'Verdana', 'Geneva', 'Lucid', 'Arial', 'Helvetica', 'Avant Garde', sans-serif; text-anchor: end" x="23.5" y="106.641513" transform="rotate(-0 23.5 106.641513)">0.000</text>
     </g>
    </g>
    <g id="ytick_3">
     <g id="line2d_9">
      <g>
       <use xlink:href="#maefbc4cd7f" x="27" y="86.710021" style="stroke: #000000; stroke-width: 0.5"/>
      </g>
     </g>
     <g id="text_9">
      <text style="font-size: 7px; font-family: 'DejaVu Sans', 'Bitstream Vera Sans', 'Computer Modern Sans Serif', 'Lucida Grande', 'Verdana', 'Geneva', 'Lucid', 'Arial', 'Helvetica', 'Avant Garde', sans-serif; text-anchor: end" x="23.5" y="89.369474" transform="rotate(-0 23.5 89.369474)">0.005</text>
     </g>
    </g>
    <g id="ytick_4">
     <g id="line2d_10">
      <g>
       <use xlink:href="#maefbc4cd7f" x="27" y="69.437982" style="stroke: #000000; stroke-width: 0.5"/>
      </g>
     </g>
     <g id="text_10">
      <text style="font-size: 7px; font-family: 'DejaVu Sans', 'Bitstream Vera Sans', 'Computer Modern Sans Serif', 'Lucida Grande', 'Verdana', 'Geneva', 'Lucid', 'Arial', 'Helvetica', 'Avant Garde', sans-serif; text-anchor: end" x="23.5" y="72.097435" transform="rotate(-0 23.5 72.097435)">0.010</text>
     </g>
    </g>
    <g id="ytick_5">
     <g id="line2d_11">
      <g>
       <use xlink:href="#maefbc4cd7f" x="27" y="52.165943" style="stroke: #000000; stroke-width: 0.5"/>
      </g>
     </g>
     <g id="text_11">
      <text style="font-size: 7px; font-family: 'DejaVu Sans', 'Bitstream Vera Sans', 'Computer Modern Sans Serif', 'Lucida Grande', 'Verdana', 'Geneva', 'Lucid', 'Arial', 'Helvetica', 'Avant Garde', sans-serif; text-anchor: end" x="23.5" y="54.825396" transform="rotate(-0 23.5 54.825396)">0.015</text>
     </g>
    </g>
    <g id="ytick_6">
     <g id="line2d_12">
      <g>
       <use xlink:href="#maefbc4cd7f" x="27" y="34.893904" style="stroke: #000000; stroke-width: 0.5"/>
      </g>
     </g>
     <g id="text_12">
      <text style="font-size: 7px; font-family: 'DejaVu Sans', 'Bitstream Vera Sans', 'Computer Modern Sans Serif', 'Lucida Grande', 'Verdana', 'Geneva', 'Lucid', 'Arial', 'Helvetica', 'Avant Garde', sans-serif; text-anchor: end" x="23.5" y="37.553357" transform="rotate(-0 23.5 37.553357)">0.020</text>
     </g>
    </g>
    <g id="ytick_7">
     <g id="line2d_13">
      <g>
       <use xlink:href="#maefbc4cd7f" x="27" y="17.621865" style="stroke: #000000; stroke-width: 0.5"/>
      </g>
     </g>
     <g id="text_13">
      <text style="font-size: 7px; font-family: 'DejaVu Sans', 'Bitstream Vera Sans', 'Computer Modern Sans Serif', 'Lucida Grande', 'Verdana', 'Geneva', 'Lucid', 'Arial', 'Helvetica', 'Avant Garde', sans-serif; text-anchor: end" x="23.5" y="20.281318" transform="rotate(-0 23.5 20.281318)">0.025</text>
     </g>
    </g>
    <g id="text_14">
     <text style="font-size: 7px; font-family: 'DejaVu Sans', 'Bitstream Vera Sans', 'Computer Modern Sans Serif', 'Lucida Grande', 'Verdana', 'Geneva', 'Lucid', 'Arial', 'Helvetica', 'Avant Garde', sans-serif; text-anchor: middle" x="-7.86125" y="72.72" transform="rotate(-90 -7.86125 72.72)">SHAP value</text>
    </g>
   </g>
   <g id="line2d_14">
    <path d="M 27 103.98206 
L 194.4 103.98206 
" clip-path="url(#pa3444cdd06)" style="fill: none; stroke: #000000; stroke-opacity: 0.5; stroke-linecap: square"/>
   </g>
   <g id="patch_3">
    <path d="M 27 128.16 
L 27 17.28 
" style="fill: none; stroke: #000000; stroke-width: 0.5; stroke-linejoin: miter; stroke-linecap: square"/>
   </g>
   <g id="patch_4">
    <path d="M 194.4 128.16 
L 194.4 17.28 
" style="fill: none; stroke: #000000; stroke-width: 0.5; stroke-linejoin: miter; stroke-linecap: square"/>
   </g>
   <g id="patch_5">
    <path d="M 27 128.16 
L 194.4 128.16 
" style="fill: none; stroke: #000000; stroke-width: 0.5; stroke-linejoin: miter; stroke-linecap: square"/>
   </g>
   <g id="patch_6">
    <path d="M 27 17.28 
L 194.4 17.28 
" style="fill: none; stroke: #000000; stroke-width: 0.5; stroke-linejoin: miter; stroke-linecap: square"/>
   </g>
  </g>
 </g>
 <defs>
  <clipPath id="pa3444cdd06">
   <rect x="27" y="17.28" width="167.4" height="110.88"/>
  </clipPath>
 </defs>
</svg>
