<?xml version="1.0" encoding="utf-8" standalone="no"?>
<!DOCTYPE svg PUBLIC "-//W3C//DTD SVG 1.1//EN"
  "http://www.w3.org/Graphics/SVG/1.1/DTD/svg11.dtd">
<svg xmlns:xlink="http://www.w3.org/1999/xlink" width="216pt" height="144pt" viewBox="0 0 216 144" xmlns="http://www.w3.org/2000/svg" version="1.1">
 <metadata>
  <rdf:RDF xmlns:dc="http://purl.org/dc/elements/1.1/" xmlns:cc="http://creativecommons.org/ns#" xmlns:rdf="http://www.w3.org/1999/02/22-rdf-syntax-ns#">
   <cc:Work>
    <dc:type rdf:resource="http://purl.org/dc/dcmitype/StillImage"/>
    <dc:date>2025-01-29T21:00:03.120372</dc:date>
    <dc:format>image/svg+xml</dc:format>
    <dc:creator>
     <cc:Agent>
      <dc:title>Matplotlib v3.5.2, https://matplotlib.org/</dc:title>
     </cc:Agent>
    </dc:creator>
   </cc:Work>
  </rdf:RDF>
 </metadata>
 <defs>
  <style type="text/css">*{stroke-linejoin: round; stroke-linecap: butt}</style>
 </defs>
 <g id="figure_1">
  <g id="patch_1">
   <path d="M 0 144 
L 216 144 
L 216 0 
L 0 0 
z
" style="fill: #ffffff"/>
  </g>
  <g id="axes_1">
   <g id="patch_2">
    <path d="M 27 128.16 
L 194.4 128.16 
L 194.4 17.28 
L 27 17.28 
z
" style="fill: #ffffff"/>
   </g>
   <g id="PolyCollection_1">
    <defs>
     <path id="m451b82d94e" d="M 52.11 -28.998633 
L 51.867268 -28.998633 
L 51.861394 -29.934808 
L 51.852788 -30.870983 
L 51.80039 -31.807159 
L 51.685961 -32.743334 
L 51.534438 -33.67951 
L 51.400467 -34.615685 
L 51.333243 -35.551861 
L 51.347412 -36.488036 
L 51.414393 -37.424211 
L 51.471902 -38.360387 
L 51.445088 -39.296562 
L 51.256867 -40.232738 
L 50.77958 -41.168913 
L 49.710878 -42.105089 
L 47.499555 -43.041264 
L 43.603659 -43.977439 
L 38.20061 -44.913615 
L 32.803567 -45.84979 
L 29.79 -46.785966 
L 30.737336 -47.722141 
L 35.069236 -48.658317 
L 40.513606 -49.594492 
L 44.869486 -50.530667 
L 47.256315 -51.466843 
L 47.980068 -52.403018 
L 47.706461 -53.339194 
L 46.902553 -54.275369 
L 45.796002 -55.211545 
L 44.545044 -56.14772 
L 43.309586 -57.083895 
L 42.19163 -58.020071 
L 41.195711 -58.956246 
L 40.299163 -59.892422 
L 39.558366 -60.828597 
L 39.118222 -61.764773 
L 39.090829 -62.700948 
L 39.423429 -63.637123 
L 39.919184 -64.573299 
L 40.420574 -65.509474 
L 40.96124 -66.44565 
L 41.70052 -67.381825 
L 42.700209 -68.318001 
L 43.790327 -69.254176 
L 44.66425 -70.190351 
L 45.090378 -71.126527 
L 45.042877 -72.062702 
L 44.6816 -72.998878 
L 44.231461 -73.935053 
L 43.828387 -74.871229 
L 43.414014 -75.807404 
L 42.779708 -76.743579 
L 41.765119 -77.679755 
L 40.454627 -78.61593 
L 39.19261 -79.552106 
L 38.395232 -80.488281 
L 38.300434 -81.424457 
L 38.839462 -82.360632 
L 39.713512 -83.296807 
L 40.570788 -84.232983 
L 41.099687 -85.169158 
L 41.026213 -86.105334 
L 40.179085 -87.041509 
L 38.650909 -87.977685 
L 36.847609 -88.91386 
L 35.292367 -89.850035 
L 34.34058 -90.786211 
L 34.054642 -91.722386 
L 34.297517 -92.658562 
L 34.899262 -93.594737 
L 35.7321 -94.530913 
L 36.669098 -95.467088 
L 37.545579 -96.403263 
L 38.235057 -97.339439 
L 38.778626 -98.275614 
L 39.383386 -99.21179 
L 40.238757 -100.147965 
L 41.339904 -101.084141 
L 42.507431 -102.020316 
L 43.543695 -102.956491 
L 44.333555 -103.892667 
L 44.84015 -104.828842 
L 45.09277 -105.765018 
L 45.203545 -106.701193 
L 45.347713 -107.637369 
L 45.679148 -108.573544 
L 46.23889 -109.509719 
L 46.926963 -110.445895 
L 47.566274 -111.38207 
L 48.021921 -112.318246 
L 48.278597 -113.254421 
L 48.410512 -114.190597 
L 48.499628 -115.126772 
L 48.605397 -116.062947 
L 48.788988 -116.999123 
L 49.109644 -117.935298 
L 49.575145 -118.871474 
L 50.120781 -119.807649 
L 50.65498 -120.743825 
L 51.115852 -121.68 
L 52.11 -121.68 
L 52.11 -121.68 
L 52.11 -120.743825 
L 52.11 -119.807649 
L 52.11 -118.871474 
L 52.11 -117.935298 
L 52.11 -116.999123 
L 52.11 -116.062947 
L 52.11 -115.126772 
L 52.11 -114.190597 
L 52.11 -113.254421 
L 52.11 -112.318246 
L 52.11 -111.38207 
L 52.11 -110.445895 
L 52.11 -109.509719 
L 52.11 -108.573544 
L 52.11 -107.637369 
L 52.11 -106.701193 
L 52.11 -105.765018 
L 52.11 -104.828842 
L 52.11 -103.892667 
L 52.11 -102.956491 
L 52.11 -102.020316 
L 52.11 -101.084141 
L 52.11 -100.147965 
L 52.11 -99.21179 
L 52.11 -98.275614 
L 52.11 -97.339439 
L 52.11 -96.403263 
L 52.11 -95.467088 
L 52.11 -94.530913 
L 52.11 -93.594737 
L 52.11 -92.658562 
L 52.11 -91.722386 
L 52.11 -90.786211 
L 52.11 -89.850035 
L 52.11 -88.91386 
L 52.11 -87.977685 
L 52.11 -87.041509 
L 52.11 -86.105334 
L 52.11 -85.169158 
L 52.11 -84.232983 
L 52.11 -83.296807 
L 52.11 -82.360632 
L 52.11 -81.424457 
L 52.11 -80.488281 
L 52.11 -79.552106 
L 52.11 -78.61593 
L 52.11 -77.679755 
L 52.11 -76.743579 
L 52.11 -75.807404 
L 52.11 -74.871229 
L 52.11 -73.935053 
L 52.11 -72.998878 
L 52.11 -72.062702 
L 52.11 -71.126527 
L 52.11 -70.190351 
L 52.11 -69.254176 
L 52.11 -68.318001 
L 52.11 -67.381825 
L 52.11 -66.44565 
L 52.11 -65.509474 
L 52.11 -64.573299 
L 52.11 -63.637123 
L 52.11 -62.700948 
L 52.11 -61.764773 
L 52.11 -60.828597 
L 52.11 -59.892422 
L 52.11 -58.956246 
L 52.11 -58.020071 
L 52.11 -57.083895 
L 52.11 -56.14772 
L 52.11 -55.211545 
L 52.11 -54.275369 
L 52.11 -53.339194 
L 52.11 -52.403018 
L 52.11 -51.466843 
L 52.11 -50.530667 
L 52.11 -49.594492 
L 52.11 -48.658317 
L 52.11 -47.722141 
L 52.11 -46.785966 
L 52.11 -45.84979 
L 52.11 -44.913615 
L 52.11 -43.977439 
L 52.11 -43.041264 
L 52.11 -42.105089 
L 52.11 -41.168913 
L 52.11 -40.232738 
L 52.11 -39.296562 
L 52.11 -38.360387 
L 52.11 -37.424211 
L 52.11 -36.488036 
L 52.11 -35.551861 
L 52.11 -34.615685 
L 52.11 -33.67951 
L 52.11 -32.743334 
L 52.11 -31.807159 
L 52.11 -30.870983 
L 52.11 -29.934808 
L 52.11 -28.998633 
z
" style="stroke: #434343; stroke-width: 0.5"/>
    </defs>
    <g clip-path="url(#pf6aec197dd)">
     <use xlink:href="#m451b82d94e" x="0" y="144" style="fill: #c1a390; stroke: #434343; stroke-width: 0.5"/>
    </g>
   </g>
   <g id="PolyCollection_2">
    <defs>
     <path id="m8abea7d250" d="M 58.115921 -41.316902 
L 57.69 -41.316902 
L 57.69 -42.126234 
L 57.69 -42.935566 
L 57.69 -43.744898 
L 57.69 -44.55423 
L 57.69 -45.363562 
L 57.69 -46.172894 
L 57.69 -46.982226 
L 57.69 -47.791558 
L 57.69 -48.600889 
L 57.69 -49.410221 
L 57.69 -50.219553 
L 57.69 -51.028885 
L 57.69 -51.838217 
L 57.69 -52.647549 
L 57.69 -53.456881 
L 57.69 -54.266213 
L 57.69 -55.075545 
L 57.69 -55.884877 
L 57.69 -56.694209 
L 57.69 -57.50354 
L 57.69 -58.312872 
L 57.69 -59.122204 
L 57.69 -59.931536 
L 57.69 -60.740868 
L 57.69 -61.5502 
L 57.69 -62.359532 
L 57.69 -63.168864 
L 57.69 -63.978196 
L 57.69 -64.787528 
L 57.69 -65.59686 
L 57.69 -66.406191 
L 57.69 -67.215523 
L 57.69 -68.024855 
L 57.69 -68.834187 
L 57.69 -69.643519 
L 57.69 -70.452851 
L 57.69 -71.262183 
L 57.69 -72.071515 
L 57.69 -72.880847 
L 57.69 -73.690179 
L 57.69 -74.49951 
L 57.69 -75.308842 
L 57.69 -76.118174 
L 57.69 -76.927506 
L 57.69 -77.736838 
L 57.69 -78.54617 
L 57.69 -79.355502 
L 57.69 -80.164834 
L 57.69 -80.974166 
L 57.69 -81.783498 
L 57.69 -82.59283 
L 57.69 -83.402161 
L 57.69 -84.211493 
L 57.69 -85.020825 
L 57.69 -85.830157 
L 57.69 -86.639489 
L 57.69 -87.448821 
L 57.69 -88.258153 
L 57.69 -89.067485 
L 57.69 -89.876817 
L 57.69 -90.686149 
L 57.69 -91.495481 
L 57.69 -92.304812 
L 57.69 -93.114144 
L 57.69 -93.923476 
L 57.69 -94.732808 
L 57.69 -95.54214 
L 57.69 -96.351472 
L 57.69 -97.160804 
L 57.69 -97.970136 
L 57.69 -98.779468 
L 57.69 -99.5888 
L 57.69 -100.398132 
L 57.69 -101.207463 
L 57.69 -102.016795 
L 57.69 -102.826127 
L 57.69 -103.635459 
L 57.69 -104.444791 
L 57.69 -105.254123 
L 57.69 -106.063455 
L 57.69 -106.872787 
L 57.69 -107.682119 
L 57.69 -108.491451 
L 57.69 -109.300782 
L 57.69 -110.110114 
L 57.69 -110.919446 
L 57.69 -111.728778 
L 57.69 -112.53811 
L 57.69 -113.347442 
L 57.69 -114.156774 
L 57.69 -114.966106 
L 57.69 -115.775438 
L 57.69 -116.58477 
L 57.69 -117.394102 
L 57.69 -118.203433 
L 57.69 -119.012765 
L 57.69 -119.822097 
L 57.69 -120.631429 
L 57.69 -121.440761 
L 57.994633 -121.440761 
L 57.994633 -121.440761 
L 58.036438 -120.631429 
L 58.038005 -119.822097 
L 58.01735 -119.012765 
L 58.012389 -118.203433 
L 58.063367 -117.394102 
L 58.18842 -116.58477 
L 58.371364 -115.775438 
L 58.566278 -114.966106 
L 58.71374 -114.156774 
L 58.771466 -113.347442 
L 58.746959 -112.53811 
L 58.700497 -111.728778 
L 58.709049 -110.919446 
L 58.819257 -110.110114 
L 59.028164 -109.300782 
L 59.303277 -108.491451 
L 59.606285 -107.682119 
L 59.88759 -106.872787 
L 60.085655 -106.063455 
L 60.16679 -105.254123 
L 60.152902 -104.444791 
L 60.087034 -103.635459 
L 59.992367 -102.826127 
L 59.882974 -102.016795 
L 59.785637 -101.207463 
L 59.723942 -100.398132 
L 59.692079 -99.5888 
L 59.660351 -98.779468 
L 59.605679 -97.970136 
L 59.534923 -97.160804 
L 59.483826 -96.351472 
L 59.496503 -95.54214 
L 59.597968 -94.732808 
L 59.770178 -93.923476 
L 59.948096 -93.114144 
L 60.053465 -92.304812 
L 60.05008 -91.495481 
L 59.970018 -90.686149 
L 59.886071 -89.876817 
L 59.860643 -89.067485 
L 59.918316 -88.258153 
L 60.064446 -87.448821 
L 60.32144 -86.639489 
L 60.721474 -85.830157 
L 61.248329 -85.020825 
L 61.797015 -84.211493 
L 62.199907 -83.402161 
L 62.311927 -82.59283 
L 62.118579 -81.783498 
L 61.774271 -80.974166 
L 61.494613 -80.164834 
L 61.407743 -79.355502 
L 61.530979 -78.54617 
L 61.831319 -77.736838 
L 62.233379 -76.927506 
L 62.608119 -76.118174 
L 62.845481 -75.308842 
L 62.97056 -74.49951 
L 63.170487 -73.690179 
L 63.665635 -72.880847 
L 64.506718 -72.071515 
L 65.503842 -71.262183 
L 66.420941 -70.452851 
L 67.260391 -69.643519 
L 68.281172 -68.834187 
L 69.695277 -68.024855 
L 71.424986 -67.215523 
L 73.214236 -66.406191 
L 74.898795 -65.59686 
L 76.485538 -64.787528 
L 77.99503 -63.978196 
L 79.279951 -63.168864 
L 80.01 -62.359532 
L 79.850352 -61.5502 
L 78.689114 -60.740868 
L 76.701379 -59.931536 
L 74.192027 -59.122204 
L 71.415246 -58.312872 
L 68.570719 -57.50354 
L 65.892863 -56.694209 
L 63.619857 -55.884877 
L 61.858482 -55.075545 
L 60.554134 -54.266213 
L 59.611309 -53.456881 
L 58.996428 -52.647549 
L 58.767599 -51.838217 
L 59.177624 -51.028885 
L 60.826042 -50.219553 
L 64.404234 -49.410221 
L 69.696158 -48.600889 
L 74.696565 -47.791558 
L 76.526408 -46.982226 
L 73.955581 -46.172894 
L 68.649384 -45.363562 
L 63.497895 -44.55423 
L 60.207745 -43.744898 
L 58.734442 -42.935566 
L 58.261686 -42.126234 
L 58.115921 -41.316902 
z
" style="stroke: #434343; stroke-width: 0.5"/>
    </defs>
    <g clip-path="url(#pf6aec197dd)">
     <use xlink:href="#m8abea7d250" x="0" y="144" style="fill: #d1c3a4; stroke: #434343; stroke-width: 0.5"/>
    </g>
   </g>
   <g id="PolyCollection_3">
    <defs>
     <path id="m707b9f5aa3" d="M 107.91 -29.517555 
L 107.486404 -29.517555 
L 107.455269 -30.371246 
L 107.541666 -31.224937 
L 107.685834 -32.078627 
L 107.805577 -32.932318 
L 107.858779 -33.786009 
L 107.842068 -34.6397 
L 107.766449 -35.49339 
L 107.661359 -36.347081 
L 107.564885 -37.200772 
L 107.471033 -38.054462 
L 107.325863 -38.908153 
L 107.116702 -39.761844 
L 106.934056 -40.615534 
L 106.897813 -41.469225 
L 106.97334 -42.322916 
L 106.724992 -43.176607 
L 105.017301 -44.030297 
L 100.281427 -44.883988 
L 92.592617 -45.737679 
L 85.953257 -46.591369 
L 85.59 -47.44506 
L 91.647536 -48.298751 
L 98.991055 -49.152442 
L 103.534454 -50.006132 
L 105.176495 -50.859823 
L 105.306457 -51.713514 
L 104.630187 -52.567204 
L 103.361627 -53.420895 
L 101.796517 -54.274586 
L 100.232946 -55.128276 
L 98.832822 -55.981967 
L 97.641887 -56.835658 
L 96.519341 -57.689349 
L 95.228511 -58.543039 
L 93.791692 -59.39673 
L 92.606186 -60.250421 
L 92.034056 -61.104111 
L 92.008819 -61.957802 
L 92.35042 -62.811493 
L 93.203856 -63.665184 
L 94.725822 -64.518874 
L 96.643723 -65.372565 
L 98.429152 -66.226256 
L 99.721483 -67.079946 
L 100.570751 -67.933637 
L 101.358875 -68.787328 
L 102.387996 -69.641018 
L 103.525676 -70.494709 
L 104.326557 -71.3484 
L 104.537047 -72.202091 
L 104.409862 -73.055781 
L 104.377237 -73.909472 
L 104.527065 -74.763163 
L 104.648939 -75.616853 
L 104.663067 -76.470544 
L 104.737162 -77.324235 
L 105.039322 -78.177925 
L 105.537641 -79.031616 
L 106.037215 -79.885307 
L 106.336629 -80.738998 
L 106.365598 -81.592688 
L 106.230371 -82.446379 
L 106.087847 -83.30007 
L 105.945349 -84.15376 
L 105.656018 -85.007451 
L 105.162698 -85.861142 
L 104.691818 -86.714833 
L 104.57945 -87.568523 
L 104.885356 -88.422214 
L 105.329772 -89.275905 
L 105.655079 -90.129595 
L 105.870955 -90.983286 
L 106.083146 -91.836977 
L 106.281762 -92.690667 
L 106.419165 -93.544358 
L 106.553676 -94.398049 
L 106.769248 -95.25174 
L 107.032744 -96.10543 
L 107.247237 -96.959121 
L 107.382142 -97.812812 
L 107.470781 -98.666502 
L 107.529286 -99.520193 
L 107.542939 -100.373884 
L 107.51269 -101.227574 
L 107.457588 -102.081265 
L 107.394785 -102.934956 
L 107.356438 -103.788647 
L 107.364816 -104.642337 
L 107.375417 -105.496028 
L 107.330561 -106.349719 
L 107.257079 -107.203409 
L 107.219745 -108.0571 
L 107.220987 -108.910791 
L 107.23068 -109.764482 
L 107.254478 -110.618172 
L 107.312136 -111.471863 
L 107.393444 -112.325554 
L 107.474603 -113.179244 
L 107.559895 -114.032935 
L 107.91 -114.032935 
L 107.91 -114.032935 
L 107.91 -113.179244 
L 107.91 -112.325554 
L 107.91 -111.471863 
L 107.91 -110.618172 
L 107.91 -109.764482 
L 107.91 -108.910791 
L 107.91 -108.0571 
L 107.91 -107.203409 
L 107.91 -106.349719 
L 107.91 -105.496028 
L 107.91 -104.642337 
L 107.91 -103.788647 
L 107.91 -102.934956 
L 107.91 -102.081265 
L 107.91 -101.227574 
L 107.91 -100.373884 
L 107.91 -99.520193 
L 107.91 -98.666502 
L 107.91 -97.812812 
L 107.91 -96.959121 
L 107.91 -96.10543 
L 107.91 -95.25174 
L 107.91 -94.398049 
L 107.91 -93.544358 
L 107.91 -92.690667 
L 107.91 -91.836977 
L 107.91 -90.983286 
L 107.91 -90.129595 
L 107.91 -89.275905 
L 107.91 -88.422214 
L 107.91 -87.568523 
L 107.91 -86.714833 
L 107.91 -85.861142 
L 107.91 -85.007451 
L 107.91 -84.15376 
L 107.91 -83.30007 
L 107.91 -82.446379 
L 107.91 -81.592688 
L 107.91 -80.738998 
L 107.91 -79.885307 
L 107.91 -79.031616 
L 107.91 -78.177925 
L 107.91 -77.324235 
L 107.91 -76.470544 
L 107.91 -75.616853 
L 107.91 -74.763163 
L 107.91 -73.909472 
L 107.91 -73.055781 
L 107.91 -72.202091 
L 107.91 -71.3484 
L 107.91 -70.494709 
L 107.91 -69.641018 
L 107.91 -68.787328 
L 107.91 -67.933637 
L 107.91 -67.079946 
L 107.91 -66.226256 
L 107.91 -65.372565 
L 107.91 -64.518874 
L 107.91 -63.665184 
L 107.91 -62.811493 
L 107.91 -61.957802 
L 107.91 -61.104111 
L 107.91 -60.250421 
L 107.91 -59.39673 
L 107.91 -58.543039 
L 107.91 -57.689349 
L 107.91 -56.835658 
L 107.91 -55.981967 
L 107.91 -55.128276 
L 107.91 -54.274586 
L 107.91 -53.420895 
L 107.91 -52.567204 
L 107.91 -51.713514 
L 107.91 -50.859823 
L 107.91 -50.006132 
L 107.91 -49.152442 
L 107.91 -48.298751 
L 107.91 -47.44506 
L 107.91 -46.591369 
L 107.91 -45.737679 
L 107.91 -44.883988 
L 107.91 -44.030297 
L 107.91 -43.176607 
L 107.91 -42.322916 
L 107.91 -41.469225 
L 107.91 -40.615534 
L 107.91 -39.761844 
L 107.91 -38.908153 
L 107.91 -38.054462 
L 107.91 -37.200772 
L 107.91 -36.347081 
L 107.91 -35.49339 
L 107.91 -34.6397 
L 107.91 -33.786009 
L 107.91 -32.932318 
L 107.91 -32.078627 
L 107.91 -31.224937 
L 107.91 -30.371246 
L 107.91 -29.517555 
z
" style="stroke: #434343; stroke-width: 0.5"/>
    </defs>
    <g clip-path="url(#pf6aec197dd)">
     <use xlink:href="#m707b9f5aa3" x="0" y="144" style="fill: #dedeb7; stroke: #434343; stroke-width: 0.5"/>
    </g>
   </g>
   <g id="PolyCollection_4">
    <defs>
     <path id="mcb71b23782" d="M 113.731129 -20.88 
L 113.49 -20.88 
L 113.49 -21.71434 
L 113.49 -22.548681 
L 113.49 -23.383021 
L 113.49 -24.217361 
L 113.49 -25.051701 
L 113.49 -25.886042 
L 113.49 -26.720382 
L 113.49 -27.554722 
L 113.49 -28.389063 
L 113.49 -29.223403 
L 113.49 -30.057743 
L 113.49 -30.892083 
L 113.49 -31.726424 
L 113.49 -32.560764 
L 113.49 -33.395104 
L 113.49 -34.229445 
L 113.49 -35.063785 
L 113.49 -35.898125 
L 113.49 -36.732466 
L 113.49 -37.566806 
L 113.49 -38.401146 
L 113.49 -39.235486 
L 113.49 -40.069827 
L 113.49 -40.904167 
L 113.49 -41.738507 
L 113.49 -42.572848 
L 113.49 -43.407188 
L 113.49 -44.241528 
L 113.49 -45.075868 
L 113.49 -45.910209 
L 113.49 -46.744549 
L 113.49 -47.578889 
L 113.49 -48.41323 
L 113.49 -49.24757 
L 113.49 -50.08191 
L 113.49 -50.91625 
L 113.49 -51.750591 
L 113.49 -52.584931 
L 113.49 -53.419271 
L 113.49 -54.253612 
L 113.49 -55.087952 
L 113.49 -55.922292 
L 113.49 -56.756633 
L 113.49 -57.590973 
L 113.49 -58.425313 
L 113.49 -59.259653 
L 113.49 -60.093994 
L 113.49 -60.928334 
L 113.49 -61.762674 
L 113.49 -62.597015 
L 113.49 -63.431355 
L 113.49 -64.265695 
L 113.49 -65.100035 
L 113.49 -65.934376 
L 113.49 -66.768716 
L 113.49 -67.603056 
L 113.49 -68.437397 
L 113.49 -69.271737 
L 113.49 -70.106077 
L 113.49 -70.940417 
L 113.49 -71.774758 
L 113.49 -72.609098 
L 113.49 -73.443438 
L 113.49 -74.277779 
L 113.49 -75.112119 
L 113.49 -75.946459 
L 113.49 -76.7808 
L 113.49 -77.61514 
L 113.49 -78.44948 
L 113.49 -79.28382 
L 113.49 -80.118161 
L 113.49 -80.952501 
L 113.49 -81.786841 
L 113.49 -82.621182 
L 113.49 -83.455522 
L 113.49 -84.289862 
L 113.49 -85.124202 
L 113.49 -85.958543 
L 113.49 -86.792883 
L 113.49 -87.627223 
L 113.49 -88.461564 
L 113.49 -89.295904 
L 113.49 -90.130244 
L 113.49 -90.964584 
L 113.49 -91.798925 
L 113.49 -92.633265 
L 113.49 -93.467605 
L 113.49 -94.301946 
L 113.49 -95.136286 
L 113.49 -95.970626 
L 113.49 -96.804967 
L 113.49 -97.639307 
L 113.49 -98.473647 
L 113.49 -99.307987 
L 113.49 -100.142328 
L 113.49 -100.976668 
L 113.49 -101.811008 
L 113.49 -102.645349 
L 113.49 -103.479689 
L 113.944598 -103.479689 
L 113.944598 -103.479689 
L 113.981035 -102.645349 
L 113.901994 -101.811008 
L 113.807009 -100.976668 
L 113.684193 -100.142328 
L 113.565729 -99.307987 
L 113.506992 -98.473647 
L 113.492129 -97.639307 
L 113.49015 -96.804967 
L 113.490072 -95.970626 
L 113.491116 -95.136286 
L 113.500396 -94.301946 
L 113.543875 -93.467605 
L 113.648774 -92.633265 
L 113.779171 -91.798925 
L 113.892214 -90.964584 
L 114.001982 -90.130244 
L 114.019086 -89.295904 
L 113.91764 -88.461564 
L 113.880867 -87.627223 
L 113.937372 -86.792883 
L 113.962665 -85.958543 
L 113.926607 -85.124202 
L 113.858111 -84.289862 
L 113.800571 -83.455522 
L 113.787565 -82.621182 
L 113.780958 -81.786841 
L 113.852971 -80.952501 
L 114.137615 -80.118161 
L 114.512872 -79.28382 
L 114.829121 -78.44948 
L 115.182943 -77.61514 
L 115.559301 -76.7808 
L 115.676547 -75.946459 
L 115.382393 -75.112119 
L 114.981959 -74.277779 
L 114.977006 -73.443438 
L 115.469596 -72.609098 
L 116.033458 -71.774758 
L 116.209549 -70.940417 
L 116.062057 -70.106077 
L 115.906056 -69.271737 
L 115.758137 -68.437397 
L 115.60769 -67.603056 
L 115.665359 -66.768716 
L 116.085571 -65.934376 
L 116.695787 -65.100035 
L 117.166816 -64.265695 
L 117.521498 -63.431355 
L 118.154281 -62.597015 
L 119.477975 -61.762674 
L 121.311342 -60.928334 
L 122.67035 -60.093994 
L 122.772373 -59.259653 
L 122.331858 -58.425313 
L 122.822942 -57.590973 
L 124.084817 -56.756633 
L 124.816555 -55.922292 
L 124.697179 -55.087952 
L 123.758162 -54.253612 
L 121.962839 -53.419271 
L 119.881217 -52.584931 
L 118.324813 -51.750591 
L 117.300979 -50.91625 
L 116.569026 -50.08191 
L 117.888429 -49.24757 
L 124.52643 -48.41323 
L 134.083236 -47.578889 
L 135.81 -46.744549 
L 127.297926 -45.910209 
L 118.696193 -45.075868 
L 115.014235 -44.241528 
L 114.021285 -43.407188 
L 113.816479 -42.572848 
L 113.877509 -41.738507 
L 113.925131 -40.904167 
L 113.816664 -40.069827 
L 113.642325 -39.235486 
L 113.532413 -38.401146 
L 113.496839 -37.566806 
L 113.490783 -36.732466 
L 113.492359 -35.898125 
L 113.509094 -35.063785 
L 113.579671 -34.229445 
L 113.736763 -33.395104 
L 113.898993 -32.560764 
L 113.906747 -31.726424 
L 113.751298 -30.892083 
L 113.588876 -30.057743 
L 113.511969 -29.223403 
L 113.492798 -28.389063 
L 113.490201 -27.554722 
L 113.490008 -26.720382 
L 113.490006 -25.886042 
L 113.490144 -25.051701 
L 113.492088 -24.217361 
L 113.506674 -23.383021 
L 113.563553 -22.548681 
L 113.669199 -21.71434 
L 113.731129 -20.88 
z
" style="stroke: #434343; stroke-width: 0.5"/>
    </defs>
    <g clip-path="url(#pf6aec197dd)">
     <use xlink:href="#mcb71b23782" x="0" y="144" style="fill: #f0f0db; stroke: #434343; stroke-width: 0.5"/>
    </g>
   </g>
   <g id="PolyCollection_5">
    <defs>
     <path id="m6c56804587" d="M 163.71 -33.023116 
L 163.456223 -33.023116 
L 163.493783 -33.57317 
L 163.576278 -34.123223 
L 163.649967 -34.673277 
L 163.690436 -35.223331 
L 163.705372 -35.773385 
L 163.709205 -36.323439 
L 163.709901 -36.873493 
L 163.709991 -37.423547 
L 163.709999 -37.973601 
L 163.71 -38.523655 
L 163.71 -39.073709 
L 163.71 -39.623763 
L 163.71 -40.173817 
L 163.71 -40.723871 
L 163.71 -41.273925 
L 163.709988 -41.823979 
L 163.709787 -42.374033 
L 163.707238 -42.924087 
L 163.683954 -43.47414 
L 163.531655 -44.024194 
L 162.823406 -44.574248 
L 160.509749 -45.124302 
L 155.320776 -45.674356 
L 147.732831 -46.22441 
L 141.585808 -46.774464 
L 141.39 -47.324518 
L 147.206545 -47.874572 
L 154.572485 -48.424626 
L 159.583331 -48.97468 
L 161.694238 -49.524734 
L 162.162903 -50.074788 
L 162.03081 -50.624842 
L 161.692433 -51.174896 
L 161.227665 -51.72495 
L 160.624256 -52.275004 
L 159.849998 -52.825057 
L 158.928631 -53.375111 
L 157.943687 -53.925165 
L 156.940618 -54.475219 
L 155.930363 -55.025273 
L 155.058927 -55.575327 
L 154.649201 -56.125381 
L 154.92104 -56.675435 
L 155.718775 -57.225489 
L 156.627304 -57.775543 
L 157.312937 -58.325597 
L 157.736241 -58.875651 
L 158.118317 -59.425705 
L 158.670101 -59.975759 
L 159.352144 -60.525813 
L 160.002466 -61.075867 
L 160.587304 -61.625921 
L 161.141383 -62.175975 
L 161.579944 -62.726028 
L 161.75468 -63.276082 
L 161.642744 -63.826136 
L 161.385712 -64.37619 
L 161.166781 -64.926244 
L 161.068481 -65.476298 
L 161.040356 -66.026352 
L 161.024662 -66.576406 
L 161.086913 -67.12646 
L 161.348227 -67.676514 
L 161.808411 -68.226568 
L 162.313606 -68.776622 
L 162.68122 -69.326676 
L 162.811426 -69.87673 
L 162.715471 -70.426784 
L 162.482419 -70.976838 
L 162.227058 -71.526892 
L 162.070293 -72.076945 
L 162.120422 -72.626999 
L 162.391207 -73.177053 
L 162.730723 -73.727107 
L 162.907513 -74.277161 
L 162.817005 -74.827215 
L 162.570287 -75.377269 
L 162.356386 -75.927323 
L 162.263529 -76.477377 
L 162.257222 -77.027431 
L 162.282147 -77.577485 
L 162.337285 -78.127539 
L 162.44761 -78.677593 
L 162.603928 -79.227647 
L 162.754148 -79.777701 
L 162.830363 -80.327755 
L 162.816297 -80.877809 
L 162.802668 -81.427863 
L 162.89236 -81.977916 
L 163.068082 -82.52797 
L 163.242775 -83.078024 
L 163.371463 -83.628078 
L 163.44271 -84.178132 
L 163.450016 -84.728186 
L 163.419664 -85.27824 
L 163.398128 -85.828294 
L 163.395986 -86.378348 
L 163.398598 -86.928402 
L 163.419595 -87.478456 
L 163.71 -87.478456 
L 163.71 -87.478456 
L 163.71 -86.928402 
L 163.71 -86.378348 
L 163.71 -85.828294 
L 163.71 -85.27824 
L 163.71 -84.728186 
L 163.71 -84.178132 
L 163.71 -83.628078 
L 163.71 -83.078024 
L 163.71 -82.52797 
L 163.71 -81.977916 
L 163.71 -81.427863 
L 163.71 -80.877809 
L 163.71 -80.327755 
L 163.71 -79.777701 
L 163.71 -79.227647 
L 163.71 -78.677593 
L 163.71 -78.127539 
L 163.71 -77.577485 
L 163.71 -77.027431 
L 163.71 -76.477377 
L 163.71 -75.927323 
L 163.71 -75.377269 
L 163.71 -74.827215 
L 163.71 -74.277161 
L 163.71 -73.727107 
L 163.71 -73.177053 
L 163.71 -72.626999 
L 163.71 -72.076945 
L 163.71 -71.526892 
L 163.71 -70.976838 
L 163.71 -70.426784 
L 163.71 -69.87673 
L 163.71 -69.326676 
L 163.71 -68.776622 
L 163.71 -68.226568 
L 163.71 -67.676514 
L 163.71 -67.12646 
L 163.71 -66.576406 
L 163.71 -66.026352 
L 163.71 -65.476298 
L 163.71 -64.926244 
L 163.71 -64.37619 
L 163.71 -63.826136 
L 163.71 -63.276082 
L 163.71 -62.726028 
L 163.71 -62.175975 
L 163.71 -61.625921 
L 163.71 -61.075867 
L 163.71 -60.525813 
L 163.71 -59.975759 
L 163.71 -59.425705 
L 163.71 -58.875651 
L 163.71 -58.325597 
L 163.71 -57.775543 
L 163.71 -57.225489 
L 163.71 -56.675435 
L 163.71 -56.125381 
L 163.71 -55.575327 
L 163.71 -55.025273 
L 163.71 -54.475219 
L 163.71 -53.925165 
L 163.71 -53.375111 
L 163.71 -52.825057 
L 163.71 -52.275004 
L 163.71 -51.72495 
L 163.71 -51.174896 
L 163.71 -50.624842 
L 163.71 -50.074788 
L 163.71 -49.524734 
L 163.71 -48.97468 
L 163.71 -48.424626 
L 163.71 -47.874572 
L 163.71 -47.324518 
L 163.71 -46.774464 
L 163.71 -46.22441 
L 163.71 -45.674356 
L 163.71 -45.124302 
L 163.71 -44.574248 
L 163.71 -44.024194 
L 163.71 -43.47414 
L 163.71 -42.924087 
L 163.71 -42.374033 
L 163.71 -41.823979 
L 163.71 -41.273925 
L 163.71 -40.723871 
L 163.71 -40.173817 
L 163.71 -39.623763 
L 163.71 -39.073709 
L 163.71 -38.523655 
L 163.71 -37.973601 
L 163.71 -37.423547 
L 163.71 -36.873493 
L 163.71 -36.323439 
L 163.71 -35.773385 
L 163.71 -35.223331 
L 163.71 -34.673277 
L 163.71 -34.123223 
L 163.71 -33.57317 
L 163.71 -33.023116 
z
" style="stroke: #434343; stroke-width: 0.5"/>
    </defs>
    <g clip-path="url(#pf6aec197dd)">
     <use xlink:href="#m6c56804587" x="0" y="144" style="fill: #885757; stroke: #434343; stroke-width: 0.5"/>
    </g>
   </g>
   <g id="PolyCollection_6">
    <defs>
     <path id="ma203a10c18" d="M 169.53305 -21.625753 
L 169.29 -21.625753 
L 169.29 -22.3199 
L 169.29 -23.014048 
L 169.29 -23.708196 
L 169.29 -24.402343 
L 169.29 -25.096491 
L 169.29 -25.790639 
L 169.29 -26.484787 
L 169.29 -27.178934 
L 169.29 -27.873082 
L 169.29 -28.56723 
L 169.29 -29.261377 
L 169.29 -29.955525 
L 169.29 -30.649673 
L 169.29 -31.343821 
L 169.29 -32.037968 
L 169.29 -32.732116 
L 169.29 -33.426264 
L 169.29 -34.120411 
L 169.29 -34.814559 
L 169.29 -35.508707 
L 169.29 -36.202855 
L 169.29 -36.897002 
L 169.29 -37.59115 
L 169.29 -38.285298 
L 169.29 -38.979445 
L 169.29 -39.673593 
L 169.29 -40.367741 
L 169.29 -41.061889 
L 169.29 -41.756036 
L 169.29 -42.450184 
L 169.29 -43.144332 
L 169.29 -43.838479 
L 169.29 -44.532627 
L 169.29 -45.226775 
L 169.29 -45.920923 
L 169.29 -46.61507 
L 169.29 -47.309218 
L 169.29 -48.003366 
L 169.29 -48.697513 
L 169.29 -49.391661 
L 169.29 -50.085809 
L 169.29 -50.779957 
L 169.29 -51.474104 
L 169.29 -52.168252 
L 169.29 -52.8624 
L 169.29 -53.556548 
L 169.29 -54.250695 
L 169.29 -54.944843 
L 169.29 -55.638991 
L 169.29 -56.333138 
L 169.29 -57.027286 
L 169.29 -57.721434 
L 169.29 -58.415582 
L 169.29 -59.109729 
L 169.29 -59.803877 
L 169.29 -60.498025 
L 169.29 -61.192172 
L 169.29 -61.88632 
L 169.29 -62.580468 
L 169.29 -63.274616 
L 169.29 -63.968763 
L 169.29 -64.662911 
L 169.29 -65.357059 
L 169.29 -66.051206 
L 169.29 -66.745354 
L 169.29 -67.439502 
L 169.29 -68.13365 
L 169.29 -68.827797 
L 169.29 -69.521945 
L 169.29 -70.216093 
L 169.29 -70.91024 
L 169.29 -71.604388 
L 169.29 -72.298536 
L 169.29 -72.992684 
L 169.29 -73.686831 
L 169.29 -74.380979 
L 169.29 -75.075127 
L 169.29 -75.769274 
L 169.29 -76.463422 
L 169.29 -77.15757 
L 169.29 -77.851718 
L 169.29 -78.545865 
L 169.29 -79.240013 
L 169.29 -79.934161 
L 169.29 -80.628308 
L 169.29 -81.322456 
L 169.29 -82.016604 
L 169.29 -82.710752 
L 169.29 -83.404899 
L 169.29 -84.099047 
L 169.29 -84.793195 
L 169.29 -85.487342 
L 169.29 -86.18149 
L 169.29 -86.875638 
L 169.29 -87.569786 
L 169.29 -88.263933 
L 169.29 -88.958081 
L 169.29 -89.652229 
L 169.29 -90.346376 
L 169.677708 -90.346376 
L 169.677708 -90.346376 
L 169.706072 -89.652229 
L 169.574917 -88.958081 
L 169.410701 -88.263933 
L 169.320283 -87.569786 
L 169.294349 -86.875638 
L 169.29035 -86.18149 
L 169.290016 -85.487342 
L 169.290005 -84.793195 
L 169.290117 -84.099047 
L 169.291797 -83.404899 
L 169.305271 -82.710752 
L 169.362968 -82.016604 
L 169.492415 -81.322456 
L 169.637472 -80.628308 
L 169.696265 -79.934161 
L 169.66296 -79.240013 
L 169.674366 -78.545865 
L 169.845768 -77.851718 
L 170.025535 -77.15757 
L 170.039964 -76.463422 
L 170.015814 -75.769274 
L 170.064762 -75.075127 
L 170.138922 -74.380979 
L 170.185467 -73.686831 
L 170.110154 -72.992684 
L 169.955605 -72.298536 
L 170.034735 -71.604388 
L 170.436634 -70.91024 
L 170.658227 -70.216093 
L 170.386214 -69.521945 
L 170.102548 -68.827797 
L 170.253303 -68.13365 
L 170.562318 -67.439502 
L 170.696548 -66.745354 
L 170.905839 -66.051206 
L 171.404702 -65.357059 
L 171.796456 -64.662911 
L 171.738016 -63.968763 
L 171.548567 -63.274616 
L 171.681461 -62.580468 
L 172.240853 -61.88632 
L 172.985533 -61.192172 
L 173.520601 -60.498025 
L 174.012566 -59.803877 
L 174.740872 -59.109729 
L 175.083944 -58.415582 
L 174.711802 -57.721434 
L 174.377639 -57.027286 
L 174.579141 -56.333138 
L 175.618741 -55.638991 
L 177.176499 -54.944843 
L 177.638991 -54.250695 
L 176.582958 -53.556548 
L 175.319693 -52.8624 
L 174.512778 -52.168252 
L 173.779863 -51.474104 
L 172.880576 -50.779957 
L 172.083078 -50.085809 
L 172.080864 -49.391661 
L 174.959753 -48.697513 
L 183.106024 -48.003366 
L 191.61 -47.309218 
L 189.975564 -46.61507 
L 180.084901 -45.920923 
L 172.584745 -45.226775 
L 169.999973 -44.532627 
L 169.473706 -43.838479 
L 169.433758 -43.144332 
L 169.512014 -42.450184 
L 169.525685 -41.756036 
L 169.448431 -41.061889 
L 169.425769 -40.367741 
L 169.523527 -39.673593 
L 169.641956 -38.979445 
L 169.678896 -38.285298 
L 169.645288 -37.59115 
L 169.660889 -36.897002 
L 169.811151 -36.202855 
L 169.937387 -35.508707 
L 169.865177 -34.814559 
L 169.701068 -34.120411 
L 169.6108 -33.426264 
L 169.542996 -32.732116 
L 169.427924 -32.037968 
L 169.333655 -31.343821 
L 169.297686 -30.649673 
L 169.290746 -29.955525 
L 169.29004 -29.261377 
L 169.290001 -28.56723 
L 169.29 -27.873082 
L 169.29 -27.178934 
L 169.29 -26.484787 
L 169.290005 -25.790639 
L 169.290138 -25.096491 
L 169.292031 -24.402343 
L 169.306477 -23.708196 
L 169.363489 -23.014048 
L 169.47023 -22.3199 
L 169.53305 -21.625753 
z
" style="stroke: #434343; stroke-width: 0.5"/>
    </defs>
    <g clip-path="url(#pf6aec197dd)">
     <use xlink:href="#ma203a10c18" x="0" y="144" style="fill: #b07878; stroke: #434343; stroke-width: 0.5"/>
    </g>
   </g>
   <g id="matplotlib.axis_1">
    <g id="xtick_1">
     <g id="line2d_1">
      <defs>
       <path id="m2587290dd9" d="M 0 0 
L 0 -3 
" style="stroke: #000000; stroke-width: 0.5"/>
      </defs>
      <g>
       <use xlink:href="#m2587290dd9" x="40.95" y="128.16" style="stroke: #000000; stroke-width: 0.5"/>
      </g>
     </g>
     <g id="text_1">
      <text style="font: 7px 'sans-serif'" transform="translate(30.206094 136.978906)">Inulin,</text>
      <text style="font: 7px 'sans-serif'" transform="translate(28.006016 144.817375)"> n=673</text>
     </g>
    </g>
    <g id="xtick_2">
     <g id="line2d_2">
      <g>
       <use xlink:href="#m2587290dd9" x="68.85" y="128.16" style="stroke: #000000; stroke-width: 0.5"/>
      </g>
     </g>
     <g id="text_2">
      <text style="font: 7px 'sans-serif'" transform="translate(57.113516 136.978906)">Pectin,</text>
      <text style="font: 7px 'sans-serif'" transform="translate(55.906016 144.817375)"> n=539</text>
     </g>
    </g>
    <g id="xtick_3">
     <g id="line2d_3">
      <g>
       <use xlink:href="#m2587290dd9" x="96.75" y="128.16" style="stroke: #000000; stroke-width: 0.5"/>
      </g>
     </g>
     <g id="text_3">
      <text style="font: 7px 'sans-serif'" transform="translate(84.396094 136.978906)">Starch,</text>
      <text style="font: 7px 'sans-serif'" transform="translate(83.806016 144.817375)"> n=392</text>
     </g>
    </g>
    <g id="xtick_4">
     <g id="line2d_4">
      <g>
       <use xlink:href="#m2587290dd9" x="124.65" y="128.16" style="stroke: #000000; stroke-width: 0.5"/>
      </g>
     </g>
     <g id="text_4">
      <text style="font: 7px 'sans-serif'" transform="translate(113.733281 136.978906)">Xylan,</text>
      <text style="font: 7px 'sans-serif'" transform="translate(111.706016 144.817375)"> n=335</text>
     </g>
    </g>
    <g id="xtick_5">
     <g id="line2d_5">
      <g>
       <use xlink:href="#m2587290dd9" x="152.55" y="128.16" style="stroke: #000000; stroke-width: 0.5"/>
      </g>
     </g>
     <g id="text_5">
      <text style="font: 7px 'sans-serif'" transform="translate(138.840937 136.978906)">AcGum,</text>
      <text style="font: 7px 'sans-serif'" transform="translate(139.606016 144.817375)"> n=252</text>
     </g>
    </g>
    <g id="xtick_6">
     <g id="line2d_6">
      <g>
       <use xlink:href="#m2587290dd9" x="180.45" y="128.16" style="stroke: #000000; stroke-width: 0.5"/>
      </g>
     </g>
     <g id="text_6">
      <text style="font: 7px 'sans-serif'" transform="translate(169.675469 136.978906)">ArGal,</text>
      <text style="font: 7px 'sans-serif'" transform="translate(167.506016 144.817375)"> n=271</text>
     </g>
    </g>
   </g>
   <g id="matplotlib.axis_2">
    <g id="ytick_1">
     <g id="line2d_7">
      <defs>
       <path id="m3319d5c2ad" d="M 0 0 
L 3 0 
" style="stroke: #000000; stroke-width: 0.5"/>
      </defs>
      <g>
       <use xlink:href="#m3319d5c2ad" x="27" y="113.263759" style="stroke: #000000; stroke-width: 0.5"/>
      </g>
     </g>
     <g id="text_7">
      <text style="font: 7px 'sans-serif'; text-anchor: end" x="23.5" y="115.923212" transform="rotate(-0, 23.5, 115.923212)">−0.2</text>
     </g>
    </g>
    <g id="ytick_2">
     <g id="line2d_8">
      <g>
       <use xlink:href="#m3319d5c2ad" x="27" y="96.947964" style="stroke: #000000; stroke-width: 0.5"/>
      </g>
     </g>
     <g id="text_8">
      <text style="font: 7px 'sans-serif'; text-anchor: end" x="23.5" y="99.607417" transform="rotate(-0, 23.5, 99.607417)">0.0</text>
     </g>
    </g>
    <g id="ytick_3">
     <g id="line2d_9">
      <g>
       <use xlink:href="#m3319d5c2ad" x="27" y="80.632169" style="stroke: #000000; stroke-width: 0.5"/>
      </g>
     </g>
     <g id="text_9">
      <text style="font: 7px 'sans-serif'; text-anchor: end" x="23.5" y="83.291622" transform="rotate(-0, 23.5, 83.291622)">0.2</text>
     </g>
    </g>
    <g id="ytick_4">
     <g id="line2d_10">
      <g>
       <use xlink:href="#m3319d5c2ad" x="27" y="64.316374" style="stroke: #000000; stroke-width: 0.5"/>
      </g>
     </g>
     <g id="text_10">
      <text style="font: 7px 'sans-serif'; text-anchor: end" x="23.5" y="66.975827" transform="rotate(-0, 23.5, 66.975827)">0.4</text>
     </g>
    </g>
    <g id="ytick_5">
     <g id="line2d_11">
      <g>
       <use xlink:href="#m3319d5c2ad" x="27" y="48.000579" style="stroke: #000000; stroke-width: 0.5"/>
      </g>
     </g>
     <g id="text_11">
      <text style="font: 7px 'sans-serif'; text-anchor: end" x="23.5" y="50.660032" transform="rotate(-0, 23.5, 50.660032)">0.6</text>
     </g>
    </g>
    <g id="ytick_6">
     <g id="line2d_12">
      <g>
       <use xlink:href="#m3319d5c2ad" x="27" y="31.684784" style="stroke: #000000; stroke-width: 0.5"/>
      </g>
     </g>
     <g id="text_12">
      <text style="font: 7px 'sans-serif'; text-anchor: end" x="23.5" y="34.344237" transform="rotate(-0, 23.5, 34.344237)">0.8</text>
     </g>
    </g>
    <g id="text_13">
     <text style="font: 7px 'sans-serif'; text-anchor: middle" x="1.04625" y="72.72" transform="rotate(-90, 1.04625, 72.72)">SHAP value</text>
    </g>
   </g>
   <g id="line2d_13">
    <path d="M 27 96.947964 
L 194.4 96.947964 
" clip-path="url(#pf6aec197dd)" style="fill: none; stroke: #000000; stroke-opacity: 0.5; stroke-linecap: square"/>
   </g>
   <g id="patch_3">
    <path d="M 27 128.16 
L 27 17.28 
" style="fill: none; stroke: #000000; stroke-width: 0.5; stroke-linejoin: miter; stroke-linecap: square"/>
   </g>
   <g id="patch_4">
    <path d="M 194.4 128.16 
L 194.4 17.28 
" style="fill: none; stroke: #000000; stroke-width: 0.5; stroke-linejoin: miter; stroke-linecap: square"/>
   </g>
   <g id="patch_5">
    <path d="M 27 128.16 
L 194.4 128.16 
" style="fill: none; stroke: #000000; stroke-width: 0.5; stroke-linejoin: miter; stroke-linecap: square"/>
   </g>
   <g id="patch_6">
    <path d="M 27 17.28 
L 194.4 17.28 
" style="fill: none; stroke: #000000; stroke-width: 0.5; stroke-linejoin: miter; stroke-linecap: square"/>
   </g>
  </g>
 </g>
 <defs>
  <clipPath id="pf6aec197dd">
   <rect x="27" y="17.28" width="167.4" height="110.88"/>
  </clipPath>
 </defs>
</svg>
