<?xml version="1.0" encoding="utf-8" standalone="no"?>
<!DOCTYPE svg PUBLIC "-//W3C//DTD SVG 1.1//EN"
  "http://www.w3.org/Graphics/SVG/1.1/DTD/svg11.dtd">
<svg xmlns:xlink="http://www.w3.org/1999/xlink" width="216pt" height="144pt" viewBox="0 0 216 144" xmlns="http://www.w3.org/2000/svg" version="1.1">
 <metadata>
  <rdf:RDF xmlns:dc="http://purl.org/dc/elements/1.1/" xmlns:cc="http://creativecommons.org/ns#" xmlns:rdf="http://www.w3.org/1999/02/22-rdf-syntax-ns#">
   <cc:Work>
    <dc:type rdf:resource="http://purl.org/dc/dcmitype/StillImage"/>
    <dc:date>2024-10-23T18:49:41.743592</dc:date>
    <dc:format>image/svg+xml</dc:format>
    <dc:creator>
     <cc:Agent>
      <dc:title>Matplotlib v3.7.1, https://matplotlib.org/</dc:title>
     </cc:Agent>
    </dc:creator>
   </cc:Work>
  </rdf:RDF>
 </metadata>
 <defs>
  <style type="text/css">*{stroke-linejoin: round; stroke-linecap: butt}</style>
 </defs>
 <g id="figure_1">
  <g id="patch_1">
   <path d="M 0 144 
L 216 144 
L 216 0 
L 0 0 
z
" style="fill: #ffffff"/>
  </g>
  <g id="axes_1">
   <g id="patch_2">
    <path d="M 27 128.16 
L 194.4 128.16 
L 194.4 17.28 
L 27 17.28 
z
" style="fill: #ffffff"/>
   </g>
   <g id="PolyCollection_1">
    <defs>
     <path id="m3658b94d5f" d="M 52.11 -37.033527 
L 44.105221 -37.033527 
L 40.91664 -37.789049 
L 38.435486 -38.544571 
L 37.454752 -39.300093 
L 38.203897 -40.055615 
L 40.199785 -40.811138 
L 42.550219 -41.56666 
L 44.461407 -42.322182 
L 45.573434 -43.077704 
L 45.948013 -43.833226 
L 45.811763 -44.588749 
L 45.288245 -45.344271 
L 44.305382 -46.099793 
L 42.719548 -46.855315 
L 40.535895 -47.610837 
L 38.023279 -48.366359 
L 35.612153 -49.121882 
L 33.678174 -49.877404 
L 32.429683 -50.632926 
L 31.976936 -51.388448 
L 32.426105 -52.14397 
L 33.821031 -52.899493 
L 35.98304 -53.655015 
L 38.468144 -54.410537 
L 40.745021 -55.166059 
L 42.449858 -55.921581 
L 43.502494 -56.677104 
L 44.028303 -57.432626 
L 44.204029 -58.188148 
L 44.159751 -58.94367 
L 43.971344 -59.699192 
L 43.699388 -60.454714 
L 43.417791 -61.210237 
L 43.200638 -61.965759 
L 43.075219 -62.721281 
L 42.986727 -63.476803 
L 42.821353 -64.232325 
L 42.481595 -64.987848 
L 41.950981 -65.74337 
L 41.293511 -66.498892 
L 40.595042 -67.254414 
L 39.897524 -68.009936 
L 39.173883 -68.765459 
L 38.364972 -69.520981 
L 37.459044 -70.276503 
L 36.547662 -71.032025 
L 35.793377 -71.787547 
L 35.322026 -72.543069 
L 35.13015 -73.298592 
L 35.085486 -74.054114 
L 35.015524 -74.809636 
L 34.813463 -75.565158 
L 34.486898 -76.32068 
L 34.12133 -77.076203 
L 33.792326 -77.831725 
L 33.490265 -78.587247 
L 33.105469 -79.342769 
L 32.492723 -80.098291 
L 31.602169 -80.853814 
L 30.60184 -81.609336 
L 29.868281 -82.364858 
L 29.79 -83.12038 
L 30.501901 -83.875902 
L 31.768901 -84.631424 
L 33.130812 -85.386947 
L 34.200796 -86.142469 
L 34.888749 -86.897991 
L 35.396821 -87.653513 
L 36.016773 -88.409035 
L 36.89499 -89.164558 
L 37.937639 -89.92008 
L 38.913824 -90.675602 
L 39.656646 -91.431124 
L 40.184857 -92.186646 
L 40.652861 -92.942169 
L 41.209822 -93.697691 
L 41.920714 -94.453213 
L 42.792736 -95.208735 
L 43.812572 -95.964257 
L 44.921509 -96.719779 
L 45.985457 -97.475302 
L 46.846003 -98.230824 
L 47.423396 -98.986346 
L 47.760556 -99.741868 
L 47.965976 -100.49739 
L 48.128905 -101.252913 
L 48.291691 -102.008435 
L 48.479425 -102.763957 
L 48.725002 -103.519479 
L 49.04907 -104.275001 
L 49.417557 -105.030523 
L 49.734078 -105.786046 
L 49.894675 -106.541568 
L 49.865557 -107.29709 
L 49.715165 -108.052612 
L 49.575949 -108.808134 
L 49.573535 -109.563657 
L 49.772303 -110.319179 
L 50.156545 -111.074701 
L 50.645209 -111.830223 
L 52.11 -111.830223 
L 52.11 -111.830223 
L 52.11 -111.074701 
L 52.11 -110.319179 
L 52.11 -109.563657 
L 52.11 -108.808134 
L 52.11 -108.052612 
L 52.11 -107.29709 
L 52.11 -106.541568 
L 52.11 -105.786046 
L 52.11 -105.030523 
L 52.11 -104.275001 
L 52.11 -103.519479 
L 52.11 -102.763957 
L 52.11 -102.008435 
L 52.11 -101.252913 
L 52.11 -100.49739 
L 52.11 -99.741868 
L 52.11 -98.986346 
L 52.11 -98.230824 
L 52.11 -97.475302 
L 52.11 -96.719779 
L 52.11 -95.964257 
L 52.11 -95.208735 
L 52.11 -94.453213 
L 52.11 -93.697691 
L 52.11 -92.942169 
L 52.11 -92.186646 
L 52.11 -91.431124 
L 52.11 -90.675602 
L 52.11 -89.92008 
L 52.11 -89.164558 
L 52.11 -88.409035 
L 52.11 -87.653513 
L 52.11 -86.897991 
L 52.11 -86.142469 
L 52.11 -85.386947 
L 52.11 -84.631424 
L 52.11 -83.875902 
L 52.11 -83.12038 
L 52.11 -82.364858 
L 52.11 -81.609336 
L 52.11 -80.853814 
L 52.11 -80.098291 
L 52.11 -79.342769 
L 52.11 -78.587247 
L 52.11 -77.831725 
L 52.11 -77.076203 
L 52.11 -76.32068 
L 52.11 -75.565158 
L 52.11 -74.809636 
L 52.11 -74.054114 
L 52.11 -73.298592 
L 52.11 -72.543069 
L 52.11 -71.787547 
L 52.11 -71.032025 
L 52.11 -70.276503 
L 52.11 -69.520981 
L 52.11 -68.765459 
L 52.11 -68.009936 
L 52.11 -67.254414 
L 52.11 -66.498892 
L 52.11 -65.74337 
L 52.11 -64.987848 
L 52.11 -64.232325 
L 52.11 -63.476803 
L 52.11 -62.721281 
L 52.11 -61.965759 
L 52.11 -61.210237 
L 52.11 -60.454714 
L 52.11 -59.699192 
L 52.11 -58.94367 
L 52.11 -58.188148 
L 52.11 -57.432626 
L 52.11 -56.677104 
L 52.11 -55.921581 
L 52.11 -55.166059 
L 52.11 -54.410537 
L 52.11 -53.655015 
L 52.11 -52.899493 
L 52.11 -52.14397 
L 52.11 -51.388448 
L 52.11 -50.632926 
L 52.11 -49.877404 
L 52.11 -49.121882 
L 52.11 -48.366359 
L 52.11 -47.610837 
L 52.11 -46.855315 
L 52.11 -46.099793 
L 52.11 -45.344271 
L 52.11 -44.588749 
L 52.11 -43.833226 
L 52.11 -43.077704 
L 52.11 -42.322182 
L 52.11 -41.56666 
L 52.11 -40.811138 
L 52.11 -40.055615 
L 52.11 -39.300093 
L 52.11 -38.544571 
L 52.11 -37.789049 
L 52.11 -37.033527 
z
" style="stroke: #252525; stroke-width: 0.5"/>
    </defs>
    <g clip-path="url(#pb62545ff6a)">
     <use xlink:href="#m3658b94d5f" x="0" y="144" style="fill: #2020df; stroke: #252525; stroke-width: 0.5"/>
    </g>
   </g>
   <g id="PolyCollection_2">
    <defs>
     <path id="m89cf81270b" d="M 57.959108 -26.627551 
L 57.69 -26.627551 
L 57.69 -27.373336 
L 57.69 -28.119121 
L 57.69 -28.864907 
L 57.69 -29.610692 
L 57.69 -30.356478 
L 57.69 -31.102263 
L 57.69 -31.848049 
L 57.69 -32.593834 
L 57.69 -33.339619 
L 57.69 -34.085405 
L 57.69 -34.83119 
L 57.69 -35.576976 
L 57.69 -36.322761 
L 57.69 -37.068547 
L 57.69 -37.814332 
L 57.69 -38.560117 
L 57.69 -39.305903 
L 57.69 -40.051688 
L 57.69 -40.797474 
L 57.69 -41.543259 
L 57.69 -42.289045 
L 57.69 -43.03483 
L 57.69 -43.780616 
L 57.69 -44.526401 
L 57.69 -45.272186 
L 57.69 -46.017972 
L 57.69 -46.763757 
L 57.69 -47.509543 
L 57.69 -48.255328 
L 57.69 -49.001114 
L 57.69 -49.746899 
L 57.69 -50.492684 
L 57.69 -51.23847 
L 57.69 -51.984255 
L 57.69 -52.730041 
L 57.69 -53.475826 
L 57.69 -54.221612 
L 57.69 -54.967397 
L 57.69 -55.713182 
L 57.69 -56.458968 
L 57.69 -57.204753 
L 57.69 -57.950539 
L 57.69 -58.696324 
L 57.69 -59.44211 
L 57.69 -60.187895 
L 57.69 -60.93368 
L 57.69 -61.679466 
L 57.69 -62.425251 
L 57.69 -63.171037 
L 57.69 -63.916822 
L 57.69 -64.662608 
L 57.69 -65.408393 
L 57.69 -66.154178 
L 57.69 -66.899964 
L 57.69 -67.645749 
L 57.69 -68.391535 
L 57.69 -69.13732 
L 57.69 -69.883106 
L 57.69 -70.628891 
L 57.69 -71.374676 
L 57.69 -72.120462 
L 57.69 -72.866247 
L 57.69 -73.612033 
L 57.69 -74.357818 
L 57.69 -75.103604 
L 57.69 -75.849389 
L 57.69 -76.595175 
L 57.69 -77.34096 
L 57.69 -78.086745 
L 57.69 -78.832531 
L 57.69 -79.578316 
L 57.69 -80.324102 
L 57.69 -81.069887 
L 57.69 -81.815673 
L 57.69 -82.561458 
L 57.69 -83.307243 
L 57.69 -84.053029 
L 57.69 -84.798814 
L 57.69 -85.5446 
L 57.69 -86.290385 
L 57.69 -87.036171 
L 57.69 -87.781956 
L 57.69 -88.527741 
L 57.69 -89.273527 
L 57.69 -90.019312 
L 57.69 -90.765098 
L 57.69 -91.510883 
L 57.69 -92.256669 
L 57.69 -93.002454 
L 57.69 -93.748239 
L 57.69 -94.494025 
L 57.69 -95.23981 
L 57.69 -95.985596 
L 57.69 -96.731381 
L 57.69 -97.477167 
L 57.69 -98.222952 
L 57.69 -98.968737 
L 57.69 -99.714523 
L 57.69 -100.460308 
L 58.232666 -100.460308 
L 58.232666 -100.460308 
L 58.307294 -99.714523 
L 58.366012 -98.968737 
L 58.488098 -98.222952 
L 58.685094 -97.477167 
L 58.861378 -96.731381 
L 58.904575 -95.985596 
L 58.800239 -95.23981 
L 58.644691 -94.494025 
L 58.566482 -93.748239 
L 58.645951 -93.002454 
L 58.878057 -92.256669 
L 59.176221 -91.510883 
L 59.422741 -90.765098 
L 59.556702 -90.019312 
L 59.62088 -89.273527 
L 59.699002 -88.527741 
L 59.819992 -87.781956 
L 59.963201 -87.036171 
L 60.132271 -86.290385 
L 60.344169 -85.5446 
L 60.534393 -84.798814 
L 60.550398 -84.053029 
L 60.288893 -83.307243 
L 59.815703 -82.561458 
L 59.323004 -81.815673 
L 58.978386 -81.069887 
L 58.821768 -80.324102 
L 58.785669 -79.578316 
L 58.792709 -78.832531 
L 58.828683 -78.086745 
L 58.92088 -77.34096 
L 59.065072 -76.595175 
L 59.217563 -75.849389 
L 59.36391 -75.103604 
L 59.539707 -74.357818 
L 59.75503 -73.612033 
L 59.950379 -72.866247 
L 60.073053 -72.120462 
L 60.156501 -71.374676 
L 60.271859 -70.628891 
L 60.42576 -69.883106 
L 60.550907 -69.13732 
L 60.59177 -68.391535 
L 60.574371 -67.645749 
L 60.578981 -66.899964 
L 60.645632 -66.154178 
L 60.725374 -65.408393 
L 60.727502 -64.662608 
L 60.596486 -63.916822 
L 60.364059 -63.171037 
L 60.157679 -62.425251 
L 60.117612 -61.679466 
L 60.266113 -60.93368 
L 60.494905 -60.187895 
L 60.69313 -59.44211 
L 60.843709 -58.696324 
L 61.009877 -57.950539 
L 61.284629 -57.204753 
L 61.742407 -56.458968 
L 62.411292 -55.713182 
L 63.313217 -54.967397 
L 64.507108 -54.221612 
L 66.010953 -53.475826 
L 67.69945 -52.730041 
L 69.392803 -51.984255 
L 71.072321 -51.23847 
L 72.923802 -50.492684 
L 75.092965 -49.746899 
L 77.371195 -49.001114 
L 79.185044 -48.255328 
L 80.01 -47.509543 
L 79.749326 -46.763757 
L 78.590282 -46.017972 
L 76.654572 -45.272186 
L 74.054198 -44.526401 
L 71.184787 -43.780616 
L 68.679202 -43.03483 
L 67.048238 -42.289045 
L 66.471286 -41.543259 
L 66.907773 -40.797474 
L 68.289621 -40.051688 
L 70.450837 -39.305903 
L 72.795843 -38.560117 
L 74.244541 -37.814332 
L 73.83858 -37.068547 
L 71.495716 -36.322761 
L 68.08117 -35.576976 
L 64.743446 -34.83119 
L 62.19929 -34.085405 
L 60.528435 -33.339619 
L 59.456502 -32.593834 
L 58.724404 -31.848049 
L 58.225297 -31.102263 
L 57.930971 -30.356478 
L 57.806057 -29.610692 
L 57.798792 -28.864907 
L 57.857246 -28.119121 
L 57.927924 -27.373336 
L 57.959108 -26.627551 
z
" style="stroke: #252525; stroke-width: 0.5"/>
    </defs>
    <g clip-path="url(#pb62545ff6a)">
     <use xlink:href="#m89cf81270b" x="0" y="144" style="fill: #6f2662; stroke: #252525; stroke-width: 0.5"/>
    </g>
   </g>
   <g id="PolyCollection_3">
    <defs>
     <path id="m5fef883688" d="M 107.91 -29.776956 
L 107.278509 -29.776956 
L 106.983185 -30.705269 
L 106.317898 -31.633583 
L 104.891206 -32.561897 
L 102.415811 -33.49021 
L 99.037927 -34.418524 
L 95.507832 -35.346837 
L 92.929924 -36.275151 
L 92.139794 -37.203465 
L 93.150104 -38.131778 
L 95.119214 -39.060092 
L 96.85406 -39.988405 
L 97.430389 -40.916719 
L 96.529014 -41.845032 
L 94.409703 -42.773346 
L 91.661566 -43.70166 
L 88.917566 -44.629973 
L 86.723048 -45.558287 
L 85.59 -46.4866 
L 85.994982 -47.414914 
L 88.116881 -48.343227 
L 91.534816 -49.271541 
L 95.3183 -50.199855 
L 98.54951 -51.128168 
L 100.810992 -52.056482 
L 102.227421 -52.984795 
L 103.147824 -53.913109 
L 103.843262 -54.841422 
L 104.430046 -55.769736 
L 104.942771 -56.69805 
L 105.399251 -57.626363 
L 105.798369 -58.554677 
L 106.1014 -59.48299 
L 106.261032 -60.411304 
L 106.279584 -61.339618 
L 106.220293 -62.267931 
L 106.159467 -63.196245 
L 106.147582 -64.124558 
L 106.211795 -65.052872 
L 106.359905 -65.981185 
L 106.568077 -66.909499 
L 106.787995 -67.837813 
L 106.979399 -68.766126 
L 107.126438 -69.69444 
L 107.226393 -70.622753 
L 107.283419 -71.551067 
L 107.317393 -72.47938 
L 107.358684 -73.407694 
L 107.419202 -74.336008 
L 107.477003 -75.264321 
L 107.501283 -76.192635 
L 107.486471 -77.120948 
L 107.451857 -78.049262 
L 107.413059 -78.977575 
L 107.36073 -79.905889 
L 107.260569 -80.834203 
L 107.069966 -81.762516 
L 106.768358 -82.69083 
L 106.387424 -83.619143 
L 106.005406 -84.547457 
L 105.692595 -85.475771 
L 105.465957 -86.404084 
L 105.315857 -87.332398 
L 105.261926 -88.260711 
L 105.340239 -89.189025 
L 105.528384 -90.117338 
L 105.723779 -91.045652 
L 105.829496 -91.973966 
L 105.850921 -92.902279 
L 105.880726 -93.830593 
L 105.986761 -94.758906 
L 106.130785 -95.68722 
L 106.205927 -96.615533 
L 106.156287 -97.543847 
L 106.049958 -98.472161 
L 106.009269 -99.400474 
L 106.073875 -100.328788 
L 106.177212 -101.257101 
L 106.26319 -102.185415 
L 106.367971 -103.113728 
L 106.558062 -104.042042 
L 106.830843 -104.970356 
L 107.112247 -105.898669 
L 107.328721 -106.826983 
L 107.448086 -107.755296 
L 107.465387 -108.68361 
L 107.394587 -109.611924 
L 107.287452 -110.540237 
L 107.227467 -111.468551 
L 107.275065 -112.396864 
L 107.420767 -113.325178 
L 107.600178 -114.253491 
L 107.748889 -115.181805 
L 107.839061 -116.110119 
L 107.874795 -117.038432 
L 107.868316 -117.966746 
L 107.827151 -118.895059 
L 107.761792 -119.823373 
L 107.698261 -120.751686 
L 107.671439 -121.68 
L 107.91 -121.68 
L 107.91 -121.68 
L 107.91 -120.751686 
L 107.91 -119.823373 
L 107.91 -118.895059 
L 107.91 -117.966746 
L 107.91 -117.038432 
L 107.91 -116.110119 
L 107.91 -115.181805 
L 107.91 -114.253491 
L 107.91 -113.325178 
L 107.91 -112.396864 
L 107.91 -111.468551 
L 107.91 -110.540237 
L 107.91 -109.611924 
L 107.91 -108.68361 
L 107.91 -107.755296 
L 107.91 -106.826983 
L 107.91 -105.898669 
L 107.91 -104.970356 
L 107.91 -104.042042 
L 107.91 -103.113728 
L 107.91 -102.185415 
L 107.91 -101.257101 
L 107.91 -100.328788 
L 107.91 -99.400474 
L 107.91 -98.472161 
L 107.91 -97.543847 
L 107.91 -96.615533 
L 107.91 -95.68722 
L 107.91 -94.758906 
L 107.91 -93.830593 
L 107.91 -92.902279 
L 107.91 -91.973966 
L 107.91 -91.045652 
L 107.91 -90.117338 
L 107.91 -89.189025 
L 107.91 -88.260711 
L 107.91 -87.332398 
L 107.91 -86.404084 
L 107.91 -85.475771 
L 107.91 -84.547457 
L 107.91 -83.619143 
L 107.91 -82.69083 
L 107.91 -81.762516 
L 107.91 -80.834203 
L 107.91 -79.905889 
L 107.91 -78.977575 
L 107.91 -78.049262 
L 107.91 -77.120948 
L 107.91 -76.192635 
L 107.91 -75.264321 
L 107.91 -74.336008 
L 107.91 -73.407694 
L 107.91 -72.47938 
L 107.91 -71.551067 
L 107.91 -70.622753 
L 107.91 -69.69444 
L 107.91 -68.766126 
L 107.91 -67.837813 
L 107.91 -66.909499 
L 107.91 -65.981185 
L 107.91 -65.052872 
L 107.91 -64.124558 
L 107.91 -63.196245 
L 107.91 -62.267931 
L 107.91 -61.339618 
L 107.91 -60.411304 
L 107.91 -59.48299 
L 107.91 -58.554677 
L 107.91 -57.626363 
L 107.91 -56.69805 
L 107.91 -55.769736 
L 107.91 -54.841422 
L 107.91 -53.913109 
L 107.91 -52.984795 
L 107.91 -52.056482 
L 107.91 -51.128168 
L 107.91 -50.199855 
L 107.91 -49.271541 
L 107.91 -48.343227 
L 107.91 -47.414914 
L 107.91 -46.4866 
L 107.91 -45.558287 
L 107.91 -44.629973 
L 107.91 -43.70166 
L 107.91 -42.773346 
L 107.91 -41.845032 
L 107.91 -40.916719 
L 107.91 -39.988405 
L 107.91 -39.060092 
L 107.91 -38.131778 
L 107.91 -37.203465 
L 107.91 -36.275151 
L 107.91 -35.346837 
L 107.91 -34.418524 
L 107.91 -33.49021 
L 107.91 -32.561897 
L 107.91 -31.633583 
L 107.91 -30.705269 
L 107.91 -29.776956 
z
" style="stroke: #252525; stroke-width: 0.5"/>
    </defs>
    <g clip-path="url(#pb62545ff6a)">
     <use xlink:href="#m5fef883688" x="0" y="144" style="fill: #dfbe20; stroke: #252525; stroke-width: 0.5"/>
    </g>
   </g>
   <g id="PolyCollection_4">
    <defs>
     <path id="m9bb005df94" d="M 115.160763 -37.43673 
L 113.49 -37.43673 
L 113.49 -37.953596 
L 113.49 -38.470462 
L 113.49 -38.987328 
L 113.49 -39.504194 
L 113.49 -40.021059 
L 113.49 -40.537925 
L 113.49 -41.054791 
L 113.49 -41.571657 
L 113.49 -42.088523 
L 113.49 -42.605389 
L 113.49 -43.122255 
L 113.49 -43.639121 
L 113.49 -44.155986 
L 113.49 -44.672852 
L 113.49 -45.189718 
L 113.49 -45.706584 
L 113.49 -46.22345 
L 113.49 -46.740316 
L 113.49 -47.257182 
L 113.49 -47.774048 
L 113.49 -48.290914 
L 113.49 -48.807779 
L 113.49 -49.324645 
L 113.49 -49.841511 
L 113.49 -50.358377 
L 113.49 -50.875243 
L 113.49 -51.392109 
L 113.49 -51.908975 
L 113.49 -52.425841 
L 113.49 -52.942707 
L 113.49 -53.459572 
L 113.49 -53.976438 
L 113.49 -54.493304 
L 113.49 -55.01017 
L 113.49 -55.527036 
L 113.49 -56.043902 
L 113.49 -56.560768 
L 113.49 -57.077634 
L 113.49 -57.594499 
L 113.49 -58.111365 
L 113.49 -58.628231 
L 113.49 -59.145097 
L 113.49 -59.661963 
L 113.49 -60.178829 
L 113.49 -60.695695 
L 113.49 -61.212561 
L 113.49 -61.729427 
L 113.49 -62.246292 
L 113.49 -62.763158 
L 113.49 -63.280024 
L 113.49 -63.79689 
L 113.49 -64.313756 
L 113.49 -64.830622 
L 113.49 -65.347488 
L 113.49 -65.864354 
L 113.49 -66.38122 
L 113.49 -66.898085 
L 113.49 -67.414951 
L 113.49 -67.931817 
L 113.49 -68.448683 
L 113.49 -68.965549 
L 113.49 -69.482415 
L 113.49 -69.999281 
L 113.49 -70.516147 
L 113.49 -71.033012 
L 113.49 -71.549878 
L 113.49 -72.066744 
L 113.49 -72.58361 
L 113.49 -73.100476 
L 113.49 -73.617342 
L 113.49 -74.134208 
L 113.49 -74.651074 
L 113.49 -75.16794 
L 113.49 -75.684805 
L 113.49 -76.201671 
L 113.49 -76.718537 
L 113.49 -77.235403 
L 113.49 -77.752269 
L 113.49 -78.269135 
L 113.49 -78.786001 
L 113.49 -79.302867 
L 113.49 -79.819733 
L 113.49 -80.336598 
L 113.49 -80.853464 
L 113.49 -81.37033 
L 113.49 -81.887196 
L 113.49 -82.404062 
L 113.49 -82.920928 
L 113.49 -83.437794 
L 113.49 -83.95466 
L 113.49 -84.471525 
L 113.49 -84.988391 
L 113.49 -85.505257 
L 113.49 -86.022123 
L 113.49 -86.538989 
L 113.49 -87.055855 
L 113.49 -87.572721 
L 113.49 -88.089587 
L 113.49 -88.606453 
L 113.64667 -88.606453 
L 113.64667 -88.606453 
L 113.626627 -88.089587 
L 113.581188 -87.572721 
L 113.539809 -87.055855 
L 113.523938 -86.538989 
L 113.543031 -86.022123 
L 113.600939 -85.505257 
L 113.69573 -84.988391 
L 113.818611 -84.471525 
L 113.960443 -83.95466 
L 114.113125 -83.437794 
L 114.257784 -82.920928 
L 114.364301 -82.404062 
L 114.424035 -81.887196 
L 114.480026 -81.37033 
L 114.590994 -80.853464 
L 114.749886 -80.336598 
L 114.868236 -79.819733 
L 114.860962 -79.302867 
L 114.724685 -78.786001 
L 114.522175 -78.269135 
L 114.319652 -77.752269 
L 114.164371 -77.235403 
L 114.102045 -76.718537 
L 114.168482 -76.201671 
L 114.339721 -75.684805 
L 114.511932 -75.16794 
L 114.573077 -74.651074 
L 114.504285 -74.134208 
L 114.384418 -73.617342 
L 114.291776 -73.100476 
L 114.234246 -72.58361 
L 114.191092 -72.066744 
L 114.18672 -71.549878 
L 114.272868 -71.033012 
L 114.444843 -70.516147 
L 114.62305 -69.999281 
L 114.719989 -69.482415 
L 114.696592 -68.965549 
L 114.568299 -68.448683 
L 114.388304 -67.931817 
L 114.219659 -67.414951 
L 114.110291 -66.898085 
L 114.083676 -66.38122 
L 114.130918 -65.864354 
L 114.214213 -65.347488 
L 114.298657 -64.830622 
L 114.369359 -64.313756 
L 114.407546 -63.79689 
L 114.388101 -63.280024 
L 114.329581 -62.763158 
L 114.312088 -62.246292 
L 114.405384 -61.729427 
L 114.590583 -61.212561 
L 114.772556 -60.695695 
L 114.854578 -60.178829 
L 114.795175 -59.661963 
L 114.62545 -59.145097 
L 114.433443 -58.628231 
L 114.316844 -58.111365 
L 114.325473 -57.594499 
L 114.432036 -57.077634 
L 114.56283 -56.560768 
L 114.669353 -56.043902 
L 114.756647 -55.527036 
L 114.837398 -55.01017 
L 114.90389 -54.493304 
L 114.965468 -53.976438 
L 115.064565 -53.459572 
L 115.231964 -52.942707 
L 115.456927 -52.425841 
L 115.711092 -51.908975 
L 115.997349 -51.392109 
L 116.388461 -50.875243 
L 116.996904 -50.358377 
L 117.861136 -49.841511 
L 118.884067 -49.324645 
L 119.954437 -48.807779 
L 121.1219 -48.290914 
L 122.55332 -47.774048 
L 124.285183 -47.257182 
L 126.134 -46.740316 
L 127.915555 -46.22345 
L 129.634831 -45.706584 
L 131.372821 -45.189718 
L 133.076815 -44.672852 
L 134.53706 -44.155986 
L 135.503423 -43.639121 
L 135.81 -43.122255 
L 135.501605 -42.605389 
L 134.815227 -42.088523 
L 133.863127 -41.571657 
L 132.376427 -41.054791 
L 129.971193 -40.537925 
L 126.681067 -40.021059 
L 123.096867 -39.504194 
L 119.958762 -38.987328 
L 117.666552 -38.470462 
L 116.159933 -37.953596 
L 115.160763 -37.43673 
z
" style="stroke: #252525; stroke-width: 0.5"/>
    </defs>
    <g clip-path="url(#pb62545ff6a)">
     <use xlink:href="#m9bb005df94" x="0" y="144" style="fill: #9393f0; stroke: #252525; stroke-width: 0.5"/>
    </g>
   </g>
   <g id="PolyCollection_5">
    <defs>
     <path id="m60be09fedd" d="M 163.71 -29.209749 
L 163.125567 -29.209749 
L 163.066361 -29.405972 
L 163.099952 -29.602194 
L 163.286143 -29.798417 
L 163.524619 -29.99464 
L 163.557386 -30.190862 
L 163.360076 -30.387085 
L 163.211298 -30.583307 
L 163.334884 -30.77953 
L 163.442793 -30.975753 
L 163.205495 -31.171975 
L 162.753384 -31.368198 
L 162.284612 -31.564421 
L 161.522942 -31.760643 
L 160.661818 -31.956866 
L 160.591585 -32.153089 
L 161.01321 -32.349311 
L 160.981419 -32.545534 
L 160.784136 -32.741756 
L 161.305397 -32.937979 
L 162.423212 -33.134202 
L 162.936465 -33.330424 
L 162.14143 -33.526647 
L 160.566627 -33.72287 
L 159.375394 -33.919092 
L 159.080979 -34.115315 
L 159.274747 -34.311538 
L 159.415041 -34.50776 
L 159.542312 -34.703983 
L 159.141442 -34.900205 
L 157.379212 -35.096428 
L 155.021502 -35.292651 
L 152.862322 -35.488873 
L 150.859652 -35.685096 
L 149.802566 -35.881319 
L 149.074463 -36.077541 
L 147.461388 -36.273764 
L 146.131728 -36.469987 
L 145.365244 -36.666209 
L 144.292481 -36.862432 
L 142.656146 -37.058654 
L 141.39 -37.254877 
L 141.75911 -37.4511 
L 143.461541 -37.647322 
L 145.238371 -37.843545 
L 147.759208 -38.039768 
L 152.353447 -38.23599 
L 156.648575 -38.432213 
L 158.834661 -38.628436 
L 160.043145 -38.824658 
L 160.573845 -39.020881 
L 160.621994 -39.217103 
L 161.066338 -39.413326 
L 161.936569 -39.609549 
L 162.665639 -39.805771 
L 163.034371 -40.001994 
L 163.117217 -40.198217 
L 163.205937 -40.394439 
L 163.317703 -40.590662 
L 163.23234 -40.786885 
L 163.134373 -40.983107 
L 163.136352 -41.17933 
L 163.115307 -41.375552 
L 163.148717 -41.571775 
L 163.141559 -41.767998 
L 163.05548 -41.96422 
L 163.030523 -42.160443 
L 163.093904 -42.356666 
L 163.240303 -42.552888 
L 163.247038 -42.749111 
L 163.112299 -42.945334 
L 163.036605 -43.141556 
L 162.941802 -43.337779 
L 162.863677 -43.534002 
L 162.921873 -43.730224 
L 163.020438 -43.926447 
L 163.1133 -44.122669 
L 163.339042 -44.318892 
L 163.582582 -44.515115 
L 163.68778 -44.711337 
L 163.708071 -44.90756 
L 163.709917 -45.103783 
L 163.709998 -45.300005 
L 163.71 -45.496228 
L 163.71 -45.692451 
L 163.71 -45.888673 
L 163.71 -46.084896 
L 163.71 -46.281118 
L 163.71 -46.477341 
L 163.709998 -46.673564 
L 163.709924 -46.869786 
L 163.708204 -47.066009 
L 163.688972 -47.262232 
L 163.588106 -47.458454 
L 163.360186 -47.654677 
L 163.211509 -47.8509 
L 163.339858 -48.047122 
L 163.466813 -48.243345 
L 163.339623 -48.439567 
L 163.211515 -48.63579 
L 163.71 -48.63579 
L 163.71 -48.63579 
L 163.71 -48.439567 
L 163.71 -48.243345 
L 163.71 -48.047122 
L 163.71 -47.8509 
L 163.71 -47.654677 
L 163.71 -47.458454 
L 163.71 -47.262232 
L 163.71 -47.066009 
L 163.71 -46.869786 
L 163.71 -46.673564 
L 163.71 -46.477341 
L 163.71 -46.281118 
L 163.71 -46.084896 
L 163.71 -45.888673 
L 163.71 -45.692451 
L 163.71 -45.496228 
L 163.71 -45.300005 
L 163.71 -45.103783 
L 163.71 -44.90756 
L 163.71 -44.711337 
L 163.71 -44.515115 
L 163.71 -44.318892 
L 163.71 -44.122669 
L 163.71 -43.926447 
L 163.71 -43.730224 
L 163.71 -43.534002 
L 163.71 -43.337779 
L 163.71 -43.141556 
L 163.71 -42.945334 
L 163.71 -42.749111 
L 163.71 -42.552888 
L 163.71 -42.356666 
L 163.71 -42.160443 
L 163.71 -41.96422 
L 163.71 -41.767998 
L 163.71 -41.571775 
L 163.71 -41.375552 
L 163.71 -41.17933 
L 163.71 -40.983107 
L 163.71 -40.786885 
L 163.71 -40.590662 
L 163.71 -40.394439 
L 163.71 -40.198217 
L 163.71 -40.001994 
L 163.71 -39.805771 
L 163.71 -39.609549 
L 163.71 -39.413326 
L 163.71 -39.217103 
L 163.71 -39.020881 
L 163.71 -38.824658 
L 163.71 -38.628436 
L 163.71 -38.432213 
L 163.71 -38.23599 
L 163.71 -38.039768 
L 163.71 -37.843545 
L 163.71 -37.647322 
L 163.71 -37.4511 
L 163.71 -37.254877 
L 163.71 -37.058654 
L 163.71 -36.862432 
L 163.71 -36.666209 
L 163.71 -36.469987 
L 163.71 -36.273764 
L 163.71 -36.077541 
L 163.71 -35.881319 
L 163.71 -35.685096 
L 163.71 -35.488873 
L 163.71 -35.292651 
L 163.71 -35.096428 
L 163.71 -34.900205 
L 163.71 -34.703983 
L 163.71 -34.50776 
L 163.71 -34.311538 
L 163.71 -34.115315 
L 163.71 -33.919092 
L 163.71 -33.72287 
L 163.71 -33.526647 
L 163.71 -33.330424 
L 163.71 -33.134202 
L 163.71 -32.937979 
L 163.71 -32.741756 
L 163.71 -32.545534 
L 163.71 -32.349311 
L 163.71 -32.153089 
L 163.71 -31.956866 
L 163.71 -31.760643 
L 163.71 -31.564421 
L 163.71 -31.368198 
L 163.71 -31.171975 
L 163.71 -30.975753 
L 163.71 -30.77953 
L 163.71 -30.583307 
L 163.71 -30.387085 
L 163.71 -30.190862 
L 163.71 -29.99464 
L 163.71 -29.798417 
L 163.71 -29.602194 
L 163.71 -29.405972 
L 163.71 -29.209749 
z
" style="stroke: #252525; stroke-width: 0.5"/>
    </defs>
    <g clip-path="url(#pb62545ff6a)">
     <use xlink:href="#m60be09fedd" x="0" y="144" style="fill: #0f0f6c; stroke: #252525; stroke-width: 0.5"/>
    </g>
   </g>
   <g id="PolyCollection_6">
    <defs>
     <path id="mf1f63072d5" d="M 169.679041 -20.88 
L 169.29 -20.88 
L 169.29 -21.194109 
L 169.29 -21.508218 
L 169.29 -21.822327 
L 169.29 -22.136435 
L 169.29 -22.450544 
L 169.29 -22.764653 
L 169.29 -23.078762 
L 169.29 -23.392871 
L 169.29 -23.70698 
L 169.29 -24.021089 
L 169.29 -24.335198 
L 169.29 -24.649306 
L 169.29 -24.963415 
L 169.29 -25.277524 
L 169.29 -25.591633 
L 169.29 -25.905742 
L 169.29 -26.219851 
L 169.29 -26.53396 
L 169.29 -26.848069 
L 169.29 -27.162177 
L 169.29 -27.476286 
L 169.29 -27.790395 
L 169.29 -28.104504 
L 169.29 -28.418613 
L 169.29 -28.732722 
L 169.29 -29.046831 
L 169.29 -29.360939 
L 169.29 -29.675048 
L 169.29 -29.989157 
L 169.29 -30.303266 
L 169.29 -30.617375 
L 169.29 -30.931484 
L 169.29 -31.245593 
L 169.29 -31.559702 
L 169.29 -31.87381 
L 169.29 -32.187919 
L 169.29 -32.502028 
L 169.29 -32.816137 
L 169.29 -33.130246 
L 169.29 -33.444355 
L 169.29 -33.758464 
L 169.29 -34.072572 
L 169.29 -34.386681 
L 169.29 -34.70079 
L 169.29 -35.014899 
L 169.29 -35.329008 
L 169.29 -35.643117 
L 169.29 -35.957226 
L 169.29 -36.271335 
L 169.29 -36.585443 
L 169.29 -36.899552 
L 169.29 -37.213661 
L 169.29 -37.52777 
L 169.29 -37.841879 
L 169.29 -38.155988 
L 169.29 -38.470097 
L 169.29 -38.784206 
L 169.29 -39.098314 
L 169.29 -39.412423 
L 169.29 -39.726532 
L 169.29 -40.040641 
L 169.29 -40.35475 
L 169.29 -40.668859 
L 169.29 -40.982968 
L 169.29 -41.297076 
L 169.29 -41.611185 
L 169.29 -41.925294 
L 169.29 -42.239403 
L 169.29 -42.553512 
L 169.29 -42.867621 
L 169.29 -43.18173 
L 169.29 -43.495839 
L 169.29 -43.809947 
L 169.29 -44.124056 
L 169.29 -44.438165 
L 169.29 -44.752274 
L 169.29 -45.066383 
L 169.29 -45.380492 
L 169.29 -45.694601 
L 169.29 -46.008709 
L 169.29 -46.322818 
L 169.29 -46.636927 
L 169.29 -46.951036 
L 169.29 -47.265145 
L 169.29 -47.579254 
L 169.29 -47.893363 
L 169.29 -48.207472 
L 169.29 -48.52158 
L 169.29 -48.835689 
L 169.29 -49.149798 
L 169.29 -49.463907 
L 169.29 -49.778016 
L 169.29 -50.092125 
L 169.29 -50.406234 
L 169.29 -50.720343 
L 169.29 -51.034451 
L 169.29 -51.34856 
L 169.29 -51.662669 
L 169.29 -51.976778 
L 169.679033 -51.976778 
L 169.679033 -51.976778 
L 169.608236 -51.662669 
L 169.464196 -51.34856 
L 169.353805 -51.034451 
L 169.305639 -50.720343 
L 169.292574 -50.406234 
L 169.290416 -50.092125 
L 169.291405 -49.778016 
L 169.29952 -49.463907 
L 169.333834 -49.149798 
L 169.42553 -48.835689 
L 169.574116 -48.52158 
L 169.708723 -48.207472 
L 169.777505 -47.893363 
L 169.853624 -47.579254 
L 170.006073 -47.265145 
L 170.142758 -46.951036 
L 170.144834 -46.636927 
L 170.02276 -46.322818 
L 169.843235 -46.008709 
L 169.686211 -45.694601 
L 169.689286 -45.380492 
L 169.948417 -45.066383 
L 170.349342 -44.752274 
L 170.604561 -44.438165 
L 170.519908 -44.124056 
L 170.171002 -43.809947 
L 169.805328 -43.495839 
L 169.659634 -43.18173 
L 169.857866 -42.867621 
L 170.365459 -42.553512 
L 171.013866 -42.239403 
L 171.649179 -41.925294 
L 172.239518 -41.611185 
L 172.812603 -41.297076 
L 173.370649 -40.982968 
L 173.8141 -40.668859 
L 173.950002 -40.35475 
L 173.881592 -40.040641 
L 174.254839 -39.726532 
L 175.661559 -39.412423 
L 178.267963 -39.098314 
L 182.345136 -38.784206 
L 187.648879 -38.470097 
L 191.61 -38.155988 
L 190.961483 -37.841879 
L 186.219946 -37.52777 
L 181.302726 -37.213661 
L 178.674009 -36.899552 
L 177.699576 -36.585443 
L 176.935067 -36.271335 
L 175.919939 -35.957226 
L 174.988954 -35.643117 
L 174.482394 -35.329008 
L 174.392125 -35.014899 
L 174.546914 -34.70079 
L 174.827962 -34.386681 
L 174.96722 -34.072572 
L 174.586232 -33.758464 
L 173.72946 -33.444355 
L 173.007753 -33.130246 
L 173.193857 -32.816137 
L 174.703428 -32.502028 
L 177.092948 -32.187919 
L 179.20619 -31.87381 
L 180.124992 -31.559702 
L 179.860963 -31.245593 
L 179.213323 -30.931484 
L 178.924523 -30.617375 
L 178.896773 -30.303266 
L 178.621128 -29.989157 
L 178.229647 -29.675048 
L 178.245536 -29.360939 
L 178.419423 -29.046831 
L 177.938323 -28.732722 
L 176.723112 -28.418613 
L 175.503934 -28.104504 
L 174.678698 -27.790395 
L 174.003295 -27.476286 
L 173.328412 -27.162177 
L 172.780336 -26.848069 
L 172.276509 -26.53396 
L 171.60303 -26.219851 
L 170.861343 -25.905742 
L 170.319825 -25.591633 
L 170.04476 -25.277524 
L 169.929486 -24.963415 
L 169.886647 -24.649306 
L 169.939853 -24.335198 
L 170.123938 -24.021089 
L 170.308671 -23.70698 
L 170.289965 -23.392871 
L 170.037089 -23.078762 
L 169.707292 -22.764653 
L 169.462929 -22.450544 
L 169.355319 -22.136435 
L 169.363916 -21.822327 
L 169.465608 -21.508218 
L 169.60837 -21.194109 
L 169.679041 -20.88 
z
" style="stroke: #252525; stroke-width: 0.5"/>
    </defs>
    <g clip-path="url(#pb62545ff6a)">
     <use xlink:href="#mf1f63072d5" x="0" y="144" style="fill: #eba9d7; stroke: #252525; stroke-width: 0.5"/>
    </g>
   </g>
   <g id="matplotlib.axis_1">
    <g id="xtick_1">
     <g id="line2d_1">
      <defs>
       <path id="mee53b9310c" d="M 0 0 
L 0 -3 
" style="stroke: #000000"/>
      </defs>
      <g>
       <use xlink:href="#mee53b9310c" x="40.95" y="128.16" style="stroke: #000000"/>
      </g>
     </g>
     <g id="text_1">
      <text style="font: 7px 'DejaVu Sans', 'Bitstream Vera Sans', 'Computer Modern Sans Serif', 'Lucida Grande', 'Verdana', 'Geneva', 'Lucid', 'Arial', 'Helvetica', 'Avant Garde', sans-serif" transform="translate(30.206094 136.978906)">Inulin,</text>
      <text style="font: 7px 'DejaVu Sans', 'Bitstream Vera Sans', 'Computer Modern Sans Serif', 'Lucida Grande', 'Verdana', 'Geneva', 'Lucid', 'Arial', 'Helvetica', 'Avant Garde', sans-serif" transform="translate(28.006016 144.817375)"> n=673</text>
     </g>
    </g>
    <g id="xtick_2">
     <g id="line2d_2">
      <g>
       <use xlink:href="#mee53b9310c" x="68.85" y="128.16" style="stroke: #000000"/>
      </g>
     </g>
     <g id="text_2">
      <text style="font: 7px 'DejaVu Sans', 'Bitstream Vera Sans', 'Computer Modern Sans Serif', 'Lucida Grande', 'Verdana', 'Geneva', 'Lucid', 'Arial', 'Helvetica', 'Avant Garde', sans-serif" transform="translate(56.496094 136.978906)">Starch,</text>
      <text style="font: 7px 'DejaVu Sans', 'Bitstream Vera Sans', 'Computer Modern Sans Serif', 'Lucida Grande', 'Verdana', 'Geneva', 'Lucid', 'Arial', 'Helvetica', 'Avant Garde', sans-serif" transform="translate(55.906016 144.817375)"> n=392</text>
     </g>
    </g>
    <g id="xtick_3">
     <g id="line2d_3">
      <g>
       <use xlink:href="#mee53b9310c" x="96.75" y="128.16" style="stroke: #000000"/>
      </g>
     </g>
     <g id="text_3">
      <text style="font: 7px 'DejaVu Sans', 'Bitstream Vera Sans', 'Computer Modern Sans Serif', 'Lucida Grande', 'Verdana', 'Geneva', 'Lucid', 'Arial', 'Helvetica', 'Avant Garde', sans-serif" transform="translate(85.833281 136.978906)">Xylan,</text>
      <text style="font: 7px 'DejaVu Sans', 'Bitstream Vera Sans', 'Computer Modern Sans Serif', 'Lucida Grande', 'Verdana', 'Geneva', 'Lucid', 'Arial', 'Helvetica', 'Avant Garde', sans-serif" transform="translate(83.806016 144.817375)"> n=335</text>
     </g>
    </g>
    <g id="xtick_4">
     <g id="line2d_4">
      <g>
       <use xlink:href="#mee53b9310c" x="124.65" y="128.16" style="stroke: #000000"/>
      </g>
     </g>
     <g id="text_4">
      <text style="font: 7px 'DejaVu Sans', 'Bitstream Vera Sans', 'Computer Modern Sans Serif', 'Lucida Grande', 'Verdana', 'Geneva', 'Lucid', 'Arial', 'Helvetica', 'Avant Garde', sans-serif" transform="translate(112.913516 136.978906)">Pectin,</text>
      <text style="font: 7px 'DejaVu Sans', 'Bitstream Vera Sans', 'Computer Modern Sans Serif', 'Lucida Grande', 'Verdana', 'Geneva', 'Lucid', 'Arial', 'Helvetica', 'Avant Garde', sans-serif" transform="translate(111.706016 144.817375)"> n=539</text>
     </g>
    </g>
    <g id="xtick_5">
     <g id="line2d_5">
      <g>
       <use xlink:href="#mee53b9310c" x="152.55" y="128.16" style="stroke: #000000"/>
      </g>
     </g>
     <g id="text_5">
      <text style="font: 7px 'DejaVu Sans', 'Bitstream Vera Sans', 'Computer Modern Sans Serif', 'Lucida Grande', 'Verdana', 'Geneva', 'Lucid', 'Arial', 'Helvetica', 'Avant Garde', sans-serif" transform="translate(138.840937 136.978906)">AcGum,</text>
      <text style="font: 7px 'DejaVu Sans', 'Bitstream Vera Sans', 'Computer Modern Sans Serif', 'Lucida Grande', 'Verdana', 'Geneva', 'Lucid', 'Arial', 'Helvetica', 'Avant Garde', sans-serif" transform="translate(139.606016 144.817375)"> n=252</text>
     </g>
    </g>
    <g id="xtick_6">
     <g id="line2d_6">
      <g>
       <use xlink:href="#mee53b9310c" x="180.45" y="128.16" style="stroke: #000000"/>
      </g>
     </g>
     <g id="text_6">
      <text style="font: 7px 'DejaVu Sans', 'Bitstream Vera Sans', 'Computer Modern Sans Serif', 'Lucida Grande', 'Verdana', 'Geneva', 'Lucid', 'Arial', 'Helvetica', 'Avant Garde', sans-serif" transform="translate(169.675469 136.978906)">ArGal,</text>
      <text style="font: 7px 'DejaVu Sans', 'Bitstream Vera Sans', 'Computer Modern Sans Serif', 'Lucida Grande', 'Verdana', 'Geneva', 'Lucid', 'Arial', 'Helvetica', 'Avant Garde', sans-serif" transform="translate(167.506016 144.817375)"> n=271</text>
     </g>
    </g>
   </g>
   <g id="matplotlib.axis_2">
    <g id="ytick_1">
     <g id="line2d_7">
      <defs>
       <path id="m9cbaec605c" d="M 0 0 
L 3 0 
" style="stroke: #000000"/>
      </defs>
      <g>
       <use xlink:href="#m9cbaec605c" x="27" y="124.484253" style="stroke: #000000"/>
      </g>
     </g>
     <g id="text_7">
      <text style="font: 7px 'DejaVu Sans', 'Bitstream Vera Sans', 'Computer Modern Sans Serif', 'Lucida Grande', 'Verdana', 'Geneva', 'Lucid', 'Arial', 'Helvetica', 'Avant Garde', sans-serif; text-anchor: end" x="23.5" y="127.143706" transform="rotate(-0 23.5 127.143706)">−2</text>
     </g>
    </g>
    <g id="ytick_2">
     <g id="line2d_8">
      <g>
       <use xlink:href="#m9cbaec605c" x="27" y="105.934816" style="stroke: #000000"/>
      </g>
     </g>
     <g id="text_8">
      <text style="font: 7px 'DejaVu Sans', 'Bitstream Vera Sans', 'Computer Modern Sans Serif', 'Lucida Grande', 'Verdana', 'Geneva', 'Lucid', 'Arial', 'Helvetica', 'Avant Garde', sans-serif; text-anchor: end" x="23.5" y="108.594269" transform="rotate(-0 23.5 108.594269)">0</text>
     </g>
    </g>
    <g id="ytick_3">
     <g id="line2d_9">
      <g>
       <use xlink:href="#m9cbaec605c" x="27" y="87.385379" style="stroke: #000000"/>
      </g>
     </g>
     <g id="text_9">
      <text style="font: 7px 'DejaVu Sans', 'Bitstream Vera Sans', 'Computer Modern Sans Serif', 'Lucida Grande', 'Verdana', 'Geneva', 'Lucid', 'Arial', 'Helvetica', 'Avant Garde', sans-serif; text-anchor: end" x="23.5" y="90.044832" transform="rotate(-0 23.5 90.044832)">2</text>
     </g>
    </g>
    <g id="ytick_4">
     <g id="line2d_10">
      <g>
       <use xlink:href="#m9cbaec605c" x="27" y="68.835942" style="stroke: #000000"/>
      </g>
     </g>
     <g id="text_10">
      <text style="font: 7px 'DejaVu Sans', 'Bitstream Vera Sans', 'Computer Modern Sans Serif', 'Lucida Grande', 'Verdana', 'Geneva', 'Lucid', 'Arial', 'Helvetica', 'Avant Garde', sans-serif; text-anchor: end" x="23.5" y="71.495395" transform="rotate(-0 23.5 71.495395)">4</text>
     </g>
    </g>
    <g id="ytick_5">
     <g id="line2d_11">
      <g>
       <use xlink:href="#m9cbaec605c" x="27" y="50.286505" style="stroke: #000000"/>
      </g>
     </g>
     <g id="text_11">
      <text style="font: 7px 'DejaVu Sans', 'Bitstream Vera Sans', 'Computer Modern Sans Serif', 'Lucida Grande', 'Verdana', 'Geneva', 'Lucid', 'Arial', 'Helvetica', 'Avant Garde', sans-serif; text-anchor: end" x="23.5" y="52.945958" transform="rotate(-0 23.5 52.945958)">6</text>
     </g>
    </g>
    <g id="ytick_6">
     <g id="line2d_12">
      <g>
       <use xlink:href="#m9cbaec605c" x="27" y="31.737068" style="stroke: #000000"/>
      </g>
     </g>
     <g id="text_12">
      <text style="font: 7px 'DejaVu Sans', 'Bitstream Vera Sans', 'Computer Modern Sans Serif', 'Lucida Grande', 'Verdana', 'Geneva', 'Lucid', 'Arial', 'Helvetica', 'Avant Garde', sans-serif; text-anchor: end" x="23.5" y="34.396521" transform="rotate(-0 23.5 34.396521)">8</text>
     </g>
    </g>
    <g id="text_13">
     <text style="font: 7px 'DejaVu Sans', 'Bitstream Vera Sans', 'Computer Modern Sans Serif', 'Lucida Grande', 'Verdana', 'Geneva', 'Lucid', 'Arial', 'Helvetica', 'Avant Garde', sans-serif; text-anchor: middle" x="7.724687" y="72.72" transform="rotate(-90 7.724687 72.72)">SHAP value</text>
    </g>
   </g>
   <g id="line2d_13">
    <path d="M 27 105.934816 
L 194.4 105.934816 
" clip-path="url(#pb62545ff6a)" style="fill: none; stroke: #000000; stroke-opacity: 0.5; stroke-linecap: square"/>
   </g>
   <g id="patch_3">
    <path d="M 27 128.16 
L 27 17.28 
" style="fill: none; stroke: #000000; stroke-linejoin: miter; stroke-linecap: square"/>
   </g>
   <g id="patch_4">
    <path d="M 194.4 128.16 
L 194.4 17.28 
" style="fill: none; stroke: #000000; stroke-linejoin: miter; stroke-linecap: square"/>
   </g>
   <g id="patch_5">
    <path d="M 27 128.16 
L 194.4 128.16 
" style="fill: none; stroke: #000000; stroke-linejoin: miter; stroke-linecap: square"/>
   </g>
   <g id="patch_6">
    <path d="M 27 17.28 
L 194.4 17.28 
" style="fill: none; stroke: #000000; stroke-linejoin: miter; stroke-linecap: square"/>
   </g>
  </g>
 </g>
 <defs>
  <clipPath id="pb62545ff6a">
   <rect x="27" y="17.28" width="167.4" height="110.88"/>
  </clipPath>
 </defs>
</svg>
