<?xml version="1.0" encoding="utf-8" standalone="no"?>
<!DOCTYPE svg PUBLIC "-//W3C//DTD SVG 1.1//EN"
  "http://www.w3.org/Graphics/SVG/1.1/DTD/svg11.dtd">
<svg xmlns:xlink="http://www.w3.org/1999/xlink" width="252pt" height="144pt" viewBox="0 0 252 144" xmlns="http://www.w3.org/2000/svg" version="1.1">
 <metadata>
  <rdf:RDF xmlns:dc="http://purl.org/dc/elements/1.1/" xmlns:cc="http://creativecommons.org/ns#" xmlns:rdf="http://www.w3.org/1999/02/22-rdf-syntax-ns#">
   <cc:Work>
    <dc:type rdf:resource="http://purl.org/dc/dcmitype/StillImage"/>
    <dc:date>2024-10-24T12:27:03.703035</dc:date>
    <dc:format>image/svg+xml</dc:format>
    <dc:creator>
     <cc:Agent>
      <dc:title>Matplotlib v3.7.1, https://matplotlib.org/</dc:title>
     </cc:Agent>
    </dc:creator>
   </cc:Work>
  </rdf:RDF>
 </metadata>
 <defs>
  <style type="text/css">*{stroke-linejoin: round; stroke-linecap: butt}</style>
 </defs>
 <g id="figure_1">
  <g id="patch_1">
   <path d="M 0 144 
L 252 144 
L 252 0 
L 0 0 
z
" style="fill: #ffffff"/>
  </g>
  <g id="axes_1">
   <g id="patch_2">
    <path d="M 31.5 128.16 
L 226.8 128.16 
L 226.8 17.28 
L 31.5 17.28 
z
" style="fill: #ffffff"/>
   </g>
   <g id="PolyCollection_1">
    <defs>
     <path id="mbdc0424139" d="M 60.795 -37.145729 
L 52.018514 -37.145729 
L 47.871864 -37.948238 
L 44.208516 -38.750746 
L 42.208631 -39.553255 
L 42.495635 -40.355763 
L 44.737515 -41.158271 
L 47.871877 -41.96078 
L 50.738672 -42.763288 
L 52.600996 -43.565796 
L 53.262229 -44.368305 
L 52.886862 -45.170813 
L 51.771639 -45.973321 
L 50.18682 -46.77583 
L 48.282499 -47.578338 
L 46.067062 -48.380847 
L 43.497863 -49.183355 
L 40.653583 -49.985863 
L 37.863426 -50.788372 
L 35.689419 -51.59088 
L 34.755 -52.393388 
L 35.475231 -53.195897 
L 37.800017 -53.998405 
L 41.154569 -54.800914 
L 44.693655 -55.603422 
L 47.718517 -56.40593 
L 49.928267 -57.208439 
L 51.353338 -58.010947 
L 52.136599 -58.813455 
L 52.39715 -59.615964 
L 52.226087 -60.418472 
L 51.7232 -61.220981 
L 51.010108 -62.023489 
L 50.218308 -62.825997 
L 49.461591 -63.628506 
L 48.799885 -64.431014 
L 48.211984 -65.233522 
L 47.600253 -66.036031 
L 46.844478 -66.838539 
L 45.896882 -67.641048 
L 44.859517 -68.443556 
L 43.957694 -69.246064 
L 43.387968 -70.048573 
L 43.143657 -70.851081 
L 42.970186 -71.653589 
L 42.506338 -72.456098 
L 41.51667 -73.258606 
L 40.05309 -74.061114 
L 38.440867 -74.863623 
L 37.106969 -75.666131 
L 36.367709 -76.46864 
L 36.304893 -77.271148 
L 36.786048 -78.073656 
L 37.5815 -78.876165 
L 38.468433 -79.678673 
L 39.245195 -80.481181 
L 39.697741 -81.28369 
L 39.633909 -82.086198 
L 39.010395 -82.888707 
L 38.025431 -83.691215 
L 37.055118 -84.493723 
L 36.46801 -85.296232 
L 36.450644 -86.09874 
L 36.937992 -86.901248 
L 37.671119 -87.703757 
L 38.352071 -88.506265 
L 38.813365 -89.308774 
L 39.102761 -90.111282 
L 39.439538 -90.91379 
L 40.076015 -91.716299 
L 41.144356 -92.518807 
L 42.577408 -93.321315 
L 44.149687 -94.123824 
L 45.598824 -94.926332 
L 46.736531 -95.72884 
L 47.49406 -96.531349 
L 47.917407 -97.333857 
L 48.151237 -98.136366 
L 48.415489 -98.938874 
L 48.942526 -99.741382 
L 49.869713 -100.543891 
L 51.155739 -101.346399 
L 52.601906 -102.148907 
L 53.964314 -102.951416 
L 55.056084 -103.753924 
L 55.780418 -104.556433 
L 56.131981 -105.358941 
L 56.206413 -106.161449 
L 56.184273 -106.963958 
L 56.250616 -107.766466 
L 56.496622 -108.568974 
L 56.89049 -109.371483 
L 57.332456 -110.173991 
L 57.726492 -110.9765 
L 58.015019 -111.779008 
L 58.186517 -112.581516 
L 58.278916 -113.384025 
L 58.369554 -114.186533 
L 58.538871 -114.989041 
L 58.827414 -115.79155 
L 59.217909 -116.594058 
L 60.795 -116.594058 
L 60.795 -116.594058 
L 60.795 -115.79155 
L 60.795 -114.989041 
L 60.795 -114.186533 
L 60.795 -113.384025 
L 60.795 -112.581516 
L 60.795 -111.779008 
L 60.795 -110.9765 
L 60.795 -110.173991 
L 60.795 -109.371483 
L 60.795 -108.568974 
L 60.795 -107.766466 
L 60.795 -106.963958 
L 60.795 -106.161449 
L 60.795 -105.358941 
L 60.795 -104.556433 
L 60.795 -103.753924 
L 60.795 -102.951416 
L 60.795 -102.148907 
L 60.795 -101.346399 
L 60.795 -100.543891 
L 60.795 -99.741382 
L 60.795 -98.938874 
L 60.795 -98.136366 
L 60.795 -97.333857 
L 60.795 -96.531349 
L 60.795 -95.72884 
L 60.795 -94.926332 
L 60.795 -94.123824 
L 60.795 -93.321315 
L 60.795 -92.518807 
L 60.795 -91.716299 
L 60.795 -90.91379 
L 60.795 -90.111282 
L 60.795 -89.308774 
L 60.795 -88.506265 
L 60.795 -87.703757 
L 60.795 -86.901248 
L 60.795 -86.09874 
L 60.795 -85.296232 
L 60.795 -84.493723 
L 60.795 -83.691215 
L 60.795 -82.888707 
L 60.795 -82.086198 
L 60.795 -81.28369 
L 60.795 -80.481181 
L 60.795 -79.678673 
L 60.795 -78.876165 
L 60.795 -78.073656 
L 60.795 -77.271148 
L 60.795 -76.46864 
L 60.795 -75.666131 
L 60.795 -74.863623 
L 60.795 -74.061114 
L 60.795 -73.258606 
L 60.795 -72.456098 
L 60.795 -71.653589 
L 60.795 -70.851081 
L 60.795 -70.048573 
L 60.795 -69.246064 
L 60.795 -68.443556 
L 60.795 -67.641048 
L 60.795 -66.838539 
L 60.795 -66.036031 
L 60.795 -65.233522 
L 60.795 -64.431014 
L 60.795 -63.628506 
L 60.795 -62.825997 
L 60.795 -62.023489 
L 60.795 -61.220981 
L 60.795 -60.418472 
L 60.795 -59.615964 
L 60.795 -58.813455 
L 60.795 -58.010947 
L 60.795 -57.208439 
L 60.795 -56.40593 
L 60.795 -55.603422 
L 60.795 -54.800914 
L 60.795 -53.998405 
L 60.795 -53.195897 
L 60.795 -52.393388 
L 60.795 -51.59088 
L 60.795 -50.788372 
L 60.795 -49.985863 
L 60.795 -49.183355 
L 60.795 -48.380847 
L 60.795 -47.578338 
L 60.795 -46.77583 
L 60.795 -45.973321 
L 60.795 -45.170813 
L 60.795 -44.368305 
L 60.795 -43.565796 
L 60.795 -42.763288 
L 60.795 -41.96078 
L 60.795 -41.158271 
L 60.795 -40.355763 
L 60.795 -39.553255 
L 60.795 -38.750746 
L 60.795 -37.948238 
L 60.795 -37.145729 
z
" style="stroke: #434343; stroke-width: 0.5"/>
    </defs>
    <g clip-path="url(#p450cf464fc)">
     <use xlink:href="#mbdc0424139" x="0" y="144" style="fill: #c1a390; stroke: #434343; stroke-width: 0.5"/>
    </g>
   </g>
   <g id="PolyCollection_2">
    <defs>
     <path id="m3528a9b441" d="M 67.632373 -25.911572 
L 67.305 -25.911572 
L 67.305 -26.705645 
L 67.305 -27.499717 
L 67.305 -28.29379 
L 67.305 -29.087863 
L 67.305 -29.881936 
L 67.305 -30.676009 
L 67.305 -31.470081 
L 67.305 -32.264154 
L 67.305 -33.058227 
L 67.305 -33.8523 
L 67.305 -34.646373 
L 67.305 -35.440445 
L 67.305 -36.234518 
L 67.305 -37.028591 
L 67.305 -37.822664 
L 67.305 -38.616737 
L 67.305 -39.410809 
L 67.305 -40.204882 
L 67.305 -40.998955 
L 67.305 -41.793028 
L 67.305 -42.587101 
L 67.305 -43.381173 
L 67.305 -44.175246 
L 67.305 -44.969319 
L 67.305 -45.763392 
L 67.305 -46.557465 
L 67.305 -47.351537 
L 67.305 -48.14561 
L 67.305 -48.939683 
L 67.305 -49.733756 
L 67.305 -50.527829 
L 67.305 -51.321901 
L 67.305 -52.115974 
L 67.305 -52.910047 
L 67.305 -53.70412 
L 67.305 -54.498193 
L 67.305 -55.292265 
L 67.305 -56.086338 
L 67.305 -56.880411 
L 67.305 -57.674484 
L 67.305 -58.468556 
L 67.305 -59.262629 
L 67.305 -60.056702 
L 67.305 -60.850775 
L 67.305 -61.644848 
L 67.305 -62.43892 
L 67.305 -63.232993 
L 67.305 -64.027066 
L 67.305 -64.821139 
L 67.305 -65.615212 
L 67.305 -66.409284 
L 67.305 -67.203357 
L 67.305 -67.99743 
L 67.305 -68.791503 
L 67.305 -69.585576 
L 67.305 -70.379648 
L 67.305 -71.173721 
L 67.305 -71.967794 
L 67.305 -72.761867 
L 67.305 -73.55594 
L 67.305 -74.350012 
L 67.305 -75.144085 
L 67.305 -75.938158 
L 67.305 -76.732231 
L 67.305 -77.526304 
L 67.305 -78.320376 
L 67.305 -79.114449 
L 67.305 -79.908522 
L 67.305 -80.702595 
L 67.305 -81.496668 
L 67.305 -82.29074 
L 67.305 -83.084813 
L 67.305 -83.878886 
L 67.305 -84.672959 
L 67.305 -85.467031 
L 67.305 -86.261104 
L 67.305 -87.055177 
L 67.305 -87.84925 
L 67.305 -88.643323 
L 67.305 -89.437395 
L 67.305 -90.231468 
L 67.305 -91.025541 
L 67.305 -91.819614 
L 67.305 -92.613687 
L 67.305 -93.407759 
L 67.305 -94.201832 
L 67.305 -94.995905 
L 67.305 -95.789978 
L 67.305 -96.584051 
L 67.305 -97.378123 
L 67.305 -98.172196 
L 67.305 -98.966269 
L 67.305 -99.760342 
L 67.305 -100.554415 
L 67.305 -101.348487 
L 67.305 -102.14256 
L 67.305 -102.936633 
L 67.305 -103.730706 
L 67.305 -104.524779 
L 67.971269 -104.524779 
L 67.971269 -104.524779 
L 67.967327 -103.730706 
L 67.895093 -102.936633 
L 67.864307 -102.14256 
L 67.919143 -101.348487 
L 68.005801 -100.554415 
L 68.073577 -99.760342 
L 68.183849 -98.966269 
L 68.477414 -98.172196 
L 69.009534 -97.378123 
L 69.635245 -96.584051 
L 70.103796 -95.789978 
L 70.279174 -94.995905 
L 70.234894 -94.201832 
L 70.140637 -93.407759 
L 70.112506 -92.613687 
L 70.166271 -91.819614 
L 70.246682 -91.025541 
L 70.266182 -90.231468 
L 70.132806 -89.437395 
L 69.797735 -88.643323 
L 69.326149 -87.84925 
L 68.897272 -87.055177 
L 68.682711 -86.261104 
L 68.718738 -85.467031 
L 68.895639 -84.672959 
L 69.048718 -83.878886 
L 69.069166 -83.084813 
L 68.965619 -82.29074 
L 68.840576 -81.496668 
L 68.809414 -80.702595 
L 68.923443 -79.908522 
L 69.137947 -79.114449 
L 69.347626 -78.320376 
L 69.462777 -77.526304 
L 69.454565 -76.732231 
L 69.363423 -75.938158 
L 69.300848 -75.144085 
L 69.404536 -74.350012 
L 69.741695 -73.55594 
L 70.261094 -72.761867 
L 70.842254 -71.967794 
L 71.370561 -71.173721 
L 71.770543 -70.379648 
L 72.001559 -69.585576 
L 72.039539 -68.791503 
L 71.866376 -67.99743 
L 71.503044 -67.203357 
L 71.063788 -66.409284 
L 70.732006 -65.615212 
L 70.649015 -64.821139 
L 70.836336 -64.027066 
L 71.208084 -63.232993 
L 71.610791 -62.43892 
L 71.869133 -61.644848 
L 71.887005 -60.850775 
L 71.741193 -60.056702 
L 71.612973 -59.262629 
L 71.618842 -58.468556 
L 71.775589 -57.674484 
L 72.098953 -56.880411 
L 72.661157 -56.086338 
L 73.617467 -55.292265 
L 75.226455 -54.498193 
L 77.70891 -53.70412 
L 80.986645 -52.910047 
L 84.612571 -52.115974 
L 87.965465 -51.321901 
L 90.521746 -50.527829 
L 92.106247 -49.733756 
L 92.949657 -48.939683 
L 93.345 -48.14561 
L 93.225713 -47.351537 
L 92.218752 -46.557465 
L 90.090726 -45.763392 
L 87.051216 -44.969319 
L 83.67252 -44.175246 
L 80.610509 -43.381173 
L 78.401796 -42.587101 
L 77.447473 -41.793028 
L 78.077366 -40.998955 
L 80.428208 -40.204882 
L 84.003999 -39.410809 
L 87.375112 -38.616737 
L 88.744894 -37.822664 
L 87.188689 -37.028591 
L 83.317941 -36.234518 
L 78.685961 -35.440445 
L 74.661189 -34.646373 
L 71.798133 -33.8523 
L 69.963539 -33.058227 
L 68.805248 -32.264154 
L 68.072932 -31.470081 
L 67.645096 -30.676009 
L 67.44032 -29.881936 
L 67.382797 -29.087863 
L 67.416679 -28.29379 
L 67.502678 -27.499717 
L 67.593233 -26.705645 
L 67.632373 -25.911572 
z
" style="stroke: #434343; stroke-width: 0.5"/>
    </defs>
    <g clip-path="url(#p450cf464fc)">
     <use xlink:href="#m3528a9b441" x="0" y="144" style="fill: #dedeb7; stroke: #434343; stroke-width: 0.5"/>
    </g>
   </g>
   <g id="PolyCollection_3">
    <defs>
     <path id="me542d60eee" d="M 125.895 -29.158261 
L 125.249862 -29.158261 
L 125.063228 -30.092824 
L 124.648547 -31.027387 
L 123.648573 -31.96195 
L 121.660548 -32.896513 
L 118.487744 -33.831076 
L 114.442443 -34.765639 
L 110.463413 -35.700202 
L 107.799896 -36.634765 
L 107.325053 -37.569328 
L 108.952534 -38.503891 
L 111.645845 -39.438454 
L 114.009798 -40.373017 
L 114.966688 -41.30758 
L 114.081 -42.242143 
L 111.525725 -43.176706 
L 107.918933 -44.111269 
L 104.156463 -45.045832 
L 101.209995 -45.980395 
L 99.855 -46.914958 
L 100.413871 -47.849521 
L 102.683415 -48.784084 
L 106.094606 -49.718647 
L 109.940436 -50.65321 
L 113.530495 -51.587773 
L 116.331111 -52.522336 
L 118.140345 -53.456899 
L 119.15783 -54.391462 
L 119.824706 -55.326025 
L 120.539463 -56.260588 
L 121.463264 -57.195151 
L 122.508749 -58.129714 
L 123.457577 -59.064277 
L 124.110196 -59.99884 
L 124.39224 -60.933403 
L 124.371714 -61.867967 
L 124.192329 -62.80253 
L 123.988862 -63.737093 
L 123.849262 -64.671656 
L 123.815266 -65.606219 
L 123.877592 -66.540782 
L 123.978868 -67.475345 
L 124.066372 -68.409908 
L 124.154169 -69.344471 
L 124.30456 -70.279034 
L 124.542035 -71.213597 
L 124.813021 -72.14816 
L 125.036421 -73.082723 
L 125.172132 -74.017286 
L 125.238742 -74.951849 
L 125.286589 -75.886412 
L 125.360727 -76.820975 
L 125.474893 -77.755538 
L 125.607444 -78.690101 
L 125.719039 -79.624664 
L 125.774726 -80.559227 
L 125.752885 -81.49379 
L 125.64408 -82.428353 
L 125.45269 -83.362916 
L 125.1985 -84.297479 
L 124.906301 -85.232042 
L 124.59142 -86.166605 
L 124.260278 -87.101168 
L 123.919518 -88.035731 
L 123.575872 -88.970294 
L 123.2397 -89.904857 
L 122.944174 -90.83942 
L 122.742612 -91.773983 
L 122.658909 -92.708546 
L 122.653849 -93.643109 
L 122.676855 -94.577672 
L 122.746766 -95.512235 
L 122.931489 -96.446798 
L 123.223354 -97.381361 
L 123.478492 -98.315924 
L 123.534649 -99.250487 
L 123.384896 -100.18505 
L 123.197686 -101.119613 
L 123.164188 -102.054177 
L 123.351384 -102.98874 
L 123.694214 -103.923303 
L 124.084514 -104.857866 
L 124.446135 -105.792429 
L 124.750441 -106.726992 
L 124.998157 -107.661555 
L 125.201194 -108.596118 
L 125.369552 -109.530681 
L 125.499046 -110.465244 
L 125.570387 -111.399807 
L 125.567505 -112.33437 
L 125.497143 -113.268933 
L 125.387621 -114.203496 
L 125.27337 -115.138059 
L 125.184999 -116.072622 
L 125.143499 -117.007185 
L 125.150215 -117.941748 
L 125.186909 -118.876311 
L 125.2372 -119.810874 
L 125.305072 -120.745437 
L 125.404181 -121.68 
L 125.895 -121.68 
L 125.895 -121.68 
L 125.895 -120.745437 
L 125.895 -119.810874 
L 125.895 -118.876311 
L 125.895 -117.941748 
L 125.895 -117.007185 
L 125.895 -116.072622 
L 125.895 -115.138059 
L 125.895 -114.203496 
L 125.895 -113.268933 
L 125.895 -112.33437 
L 125.895 -111.399807 
L 125.895 -110.465244 
L 125.895 -109.530681 
L 125.895 -108.596118 
L 125.895 -107.661555 
L 125.895 -106.726992 
L 125.895 -105.792429 
L 125.895 -104.857866 
L 125.895 -103.923303 
L 125.895 -102.98874 
L 125.895 -102.054177 
L 125.895 -101.119613 
L 125.895 -100.18505 
L 125.895 -99.250487 
L 125.895 -98.315924 
L 125.895 -97.381361 
L 125.895 -96.446798 
L 125.895 -95.512235 
L 125.895 -94.577672 
L 125.895 -93.643109 
L 125.895 -92.708546 
L 125.895 -91.773983 
L 125.895 -90.83942 
L 125.895 -89.904857 
L 125.895 -88.970294 
L 125.895 -88.035731 
L 125.895 -87.101168 
L 125.895 -86.166605 
L 125.895 -85.232042 
L 125.895 -84.297479 
L 125.895 -83.362916 
L 125.895 -82.428353 
L 125.895 -81.49379 
L 125.895 -80.559227 
L 125.895 -79.624664 
L 125.895 -78.690101 
L 125.895 -77.755538 
L 125.895 -76.820975 
L 125.895 -75.886412 
L 125.895 -74.951849 
L 125.895 -74.017286 
L 125.895 -73.082723 
L 125.895 -72.14816 
L 125.895 -71.213597 
L 125.895 -70.279034 
L 125.895 -69.344471 
L 125.895 -68.409908 
L 125.895 -67.475345 
L 125.895 -66.540782 
L 125.895 -65.606219 
L 125.895 -64.671656 
L 125.895 -63.737093 
L 125.895 -62.80253 
L 125.895 -61.867967 
L 125.895 -60.933403 
L 125.895 -59.99884 
L 125.895 -59.064277 
L 125.895 -58.129714 
L 125.895 -57.195151 
L 125.895 -56.260588 
L 125.895 -55.326025 
L 125.895 -54.391462 
L 125.895 -53.456899 
L 125.895 -52.522336 
L 125.895 -51.587773 
L 125.895 -50.65321 
L 125.895 -49.718647 
L 125.895 -48.784084 
L 125.895 -47.849521 
L 125.895 -46.914958 
L 125.895 -45.980395 
L 125.895 -45.045832 
L 125.895 -44.111269 
L 125.895 -43.176706 
L 125.895 -42.242143 
L 125.895 -41.30758 
L 125.895 -40.373017 
L 125.895 -39.438454 
L 125.895 -38.503891 
L 125.895 -37.569328 
L 125.895 -36.634765 
L 125.895 -35.700202 
L 125.895 -34.765639 
L 125.895 -33.831076 
L 125.895 -32.896513 
L 125.895 -31.96195 
L 125.895 -31.027387 
L 125.895 -30.092824 
L 125.895 -29.158261 
z
" style="stroke: #434343; stroke-width: 0.5"/>
    </defs>
    <g clip-path="url(#p450cf464fc)">
     <use xlink:href="#me542d60eee" x="0" y="144" style="fill: #f0f0db; stroke: #434343; stroke-width: 0.5"/>
    </g>
   </g>
   <g id="PolyCollection_4">
    <defs>
     <path id="maef45db98b" d="M 133.574535 -37.230054 
L 132.405 -37.230054 
L 132.405 -37.776471 
L 132.405 -38.322888 
L 132.405 -38.869305 
L 132.405 -39.415723 
L 132.405 -39.96214 
L 132.405 -40.508557 
L 132.405 -41.054974 
L 132.405 -41.601392 
L 132.405 -42.147809 
L 132.405 -42.694226 
L 132.405 -43.240643 
L 132.405 -43.787061 
L 132.405 -44.333478 
L 132.405 -44.879895 
L 132.405 -45.426312 
L 132.405 -45.97273 
L 132.405 -46.519147 
L 132.405 -47.065564 
L 132.405 -47.611982 
L 132.405 -48.158399 
L 132.405 -48.704816 
L 132.405 -49.251233 
L 132.405 -49.797651 
L 132.405 -50.344068 
L 132.405 -50.890485 
L 132.405 -51.436902 
L 132.405 -51.98332 
L 132.405 -52.529737 
L 132.405 -53.076154 
L 132.405 -53.622571 
L 132.405 -54.168989 
L 132.405 -54.715406 
L 132.405 -55.261823 
L 132.405 -55.80824 
L 132.405 -56.354658 
L 132.405 -56.901075 
L 132.405 -57.447492 
L 132.405 -57.993909 
L 132.405 -58.540327 
L 132.405 -59.086744 
L 132.405 -59.633161 
L 132.405 -60.179578 
L 132.405 -60.725996 
L 132.405 -61.272413 
L 132.405 -61.81883 
L 132.405 -62.365247 
L 132.405 -62.911665 
L 132.405 -63.458082 
L 132.405 -64.004499 
L 132.405 -64.550916 
L 132.405 -65.097334 
L 132.405 -65.643751 
L 132.405 -66.190168 
L 132.405 -66.736585 
L 132.405 -67.283003 
L 132.405 -67.82942 
L 132.405 -68.375837 
L 132.405 -68.922254 
L 132.405 -69.468672 
L 132.405 -70.015089 
L 132.405 -70.561506 
L 132.405 -71.107923 
L 132.405 -71.654341 
L 132.405 -72.200758 
L 132.405 -72.747175 
L 132.405 -73.293593 
L 132.405 -73.84001 
L 132.405 -74.386427 
L 132.405 -74.932844 
L 132.405 -75.479262 
L 132.405 -76.025679 
L 132.405 -76.572096 
L 132.405 -77.118513 
L 132.405 -77.664931 
L 132.405 -78.211348 
L 132.405 -78.757765 
L 132.405 -79.304182 
L 132.405 -79.8506 
L 132.405 -80.397017 
L 132.405 -80.943434 
L 132.405 -81.489851 
L 132.405 -82.036269 
L 132.405 -82.582686 
L 132.405 -83.129103 
L 132.405 -83.67552 
L 132.405 -84.221938 
L 132.405 -84.768355 
L 132.405 -85.314772 
L 132.405 -85.861189 
L 132.405 -86.407607 
L 132.405 -86.954024 
L 132.405 -87.500441 
L 132.405 -88.046858 
L 132.405 -88.593276 
L 132.405 -89.139693 
L 132.405 -89.68611 
L 132.405 -90.232527 
L 132.405 -90.778945 
L 132.405 -91.325362 
L 132.622651 -91.325362 
L 132.622651 -91.325362 
L 132.64155 -90.778945 
L 132.644901 -90.232527 
L 132.639408 -89.68611 
L 132.618666 -89.139693 
L 132.586184 -88.593276 
L 132.56803 -88.046858 
L 132.589027 -87.500441 
L 132.652205 -86.954024 
L 132.757584 -86.407607 
L 132.926969 -85.861189 
L 133.182875 -85.314772 
L 133.504419 -84.768355 
L 133.827568 -84.221938 
L 134.088728 -83.67552 
L 134.251857 -83.129103 
L 134.301332 -82.582686 
L 134.235643 -82.036269 
L 134.079374 -81.489851 
L 133.880536 -80.943434 
L 133.672018 -80.397017 
L 133.451763 -79.8506 
L 133.230288 -79.304182 
L 133.078044 -78.757765 
L 133.083868 -78.211348 
L 133.269931 -77.664931 
L 133.57342 -77.118513 
L 133.902981 -76.572096 
L 134.186264 -76.025679 
L 134.366772 -75.479262 
L 134.395201 -74.932844 
L 134.260217 -74.386427 
L 134.020606 -73.84001 
L 133.771555 -73.293593 
L 133.565662 -72.747175 
L 133.383269 -72.200758 
L 133.185438 -71.654341 
L 132.976048 -71.107923 
L 132.803895 -70.561506 
L 132.721688 -70.015089 
L 132.750219 -69.468672 
L 132.868154 -68.922254 
L 133.026107 -68.375837 
L 133.172915 -67.82942 
L 133.274901 -67.283003 
L 133.315638 -66.736585 
L 133.291375 -66.190168 
L 133.228593 -65.643751 
L 133.200107 -65.097334 
L 133.284457 -64.550916 
L 133.486317 -64.004499 
L 133.708416 -63.458082 
L 133.819065 -62.911665 
L 133.753131 -62.365247 
L 133.552856 -61.81883 
L 133.326828 -61.272413 
L 133.177201 -60.725996 
L 133.149291 -60.179578 
L 133.225868 -59.633161 
L 133.358121 -59.086744 
L 133.507315 -58.540327 
L 133.663809 -57.993909 
L 133.825529 -57.447492 
L 133.967077 -56.901075 
L 134.051756 -56.354658 
L 134.081996 -55.80824 
L 134.124948 -55.261823 
L 134.271346 -54.715406 
L 134.558734 -54.168989 
L 134.936872 -53.622571 
L 135.316691 -53.076154 
L 135.65522 -52.529737 
L 136.000217 -51.98332 
L 136.473139 -51.436902 
L 137.202122 -50.890485 
L 138.227778 -50.344068 
L 139.476897 -49.797651 
L 140.874011 -49.251233 
L 142.453357 -48.704816 
L 144.324771 -48.158399 
L 146.587805 -47.611982 
L 149.270379 -47.065564 
L 152.20653 -46.519147 
L 154.956593 -45.97273 
L 157.004417 -45.426312 
L 158.112447 -44.879895 
L 158.445 -44.333478 
L 158.316971 -43.787061 
L 157.881066 -43.240643 
L 157.139143 -42.694226 
L 156.124623 -42.147809 
L 154.812316 -41.601392 
L 152.907428 -41.054974 
L 150.044124 -40.508557 
L 146.277928 -39.96214 
L 142.230433 -39.415723 
L 138.693871 -38.869305 
L 136.130618 -38.322888 
L 134.51995 -37.776471 
L 133.574535 -37.230054 
z
" style="stroke: #434343; stroke-width: 0.5"/>
    </defs>
    <g clip-path="url(#p450cf464fc)">
     <use xlink:href="#maef45db98b" x="0" y="144" style="fill: #d1c3a4; stroke: #434343; stroke-width: 0.5"/>
    </g>
   </g>
   <g id="PolyCollection_5">
    <defs>
     <path id="mb9267896c2" d="M 190.995 -27.331073 
L 190.403518 -27.331073 
L 190.589521 -27.552265 
L 190.85246 -27.773456 
L 190.875713 -27.994648 
L 190.618818 -28.21584 
L 190.256684 -28.437031 
L 190.097906 -28.658223 
L 190.238963 -28.879415 
L 190.597555 -29.100606 
L 190.884486 -29.321798 
L 190.978455 -29.54299 
L 190.971935 -29.764181 
L 190.850277 -29.985373 
L 190.526628 -30.206565 
L 190.146302 -30.427756 
L 189.868707 -30.648948 
L 189.598464 -30.87014 
L 189.304916 -31.091331 
L 188.955108 -31.312523 
L 188.653599 -31.533715 
L 188.780139 -31.754906 
L 189.110609 -31.976098 
L 188.857317 -32.19729 
L 188.288574 -32.418482 
L 187.932504 -32.639673 
L 187.502711 -32.860865 
L 187.294149 -33.082057 
L 187.914766 -33.303248 
L 188.268666 -33.52444 
L 187.50801 -33.745632 
L 186.769918 -33.966823 
L 186.526377 -34.188015 
L 186.11666 -34.409207 
L 185.797629 -34.630398 
L 185.602298 -34.85159 
L 184.639279 -35.072782 
L 182.87373 -35.293973 
L 180.671047 -35.515165 
L 178.144821 -35.736357 
L 175.148798 -35.957548 
L 171.438493 -36.17874 
L 168.154132 -36.399932 
L 166.65536 -36.621123 
L 166.391202 -36.842315 
L 165.827942 -37.063507 
L 166.018377 -37.284698 
L 167.790645 -37.50589 
L 167.257487 -37.727082 
L 164.955 -37.948274 
L 166.633008 -38.169465 
L 173.584772 -38.390657 
L 181.416894 -38.611849 
L 185.960111 -38.83304 
L 187.70675 -39.054232 
L 188.033125 -39.275424 
L 187.581312 -39.496615 
L 187.335387 -39.717807 
L 187.88823 -39.938999 
L 188.563373 -40.16019 
L 188.68427 -40.381382 
L 188.931443 -40.602574 
L 189.853411 -40.823765 
L 190.667412 -41.044957 
L 190.941032 -41.266149 
L 190.920533 -41.48734 
L 190.701888 -41.708532 
L 190.431998 -41.929724 
L 190.488564 -42.150915 
L 190.781727 -42.372107 
L 190.952926 -42.593299 
L 190.990223 -42.814491 
L 190.980656 -43.035682 
L 190.889526 -43.256874 
L 190.619543 -43.478066 
L 190.30745 -43.699257 
L 190.178848 -43.920449 
L 190.101928 -44.141641 
L 189.929993 -44.362832 
L 189.727841 -44.584024 
L 189.963376 -44.805216 
L 190.549333 -45.026407 
L 190.900247 -45.247599 
L 190.985274 -45.468791 
L 190.994522 -45.689982 
L 190.994989 -45.911174 
L 190.995 -46.132366 
L 190.995 -46.353557 
L 190.995 -46.574749 
L 190.995 -46.795941 
L 190.995 -47.017132 
L 190.995 -47.238324 
L 190.994985 -47.459516 
L 190.994429 -47.680707 
L 190.984961 -47.901899 
L 190.912328 -48.123091 
L 190.675228 -48.344283 
L 190.401129 -48.565474 
L 190.380204 -48.786666 
L 190.398473 -49.007858 
L 190.368029 -49.229049 
L 190.995 -49.229049 
L 190.995 -49.229049 
L 190.995 -49.007858 
L 190.995 -48.786666 
L 190.995 -48.565474 
L 190.995 -48.344283 
L 190.995 -48.123091 
L 190.995 -47.901899 
L 190.995 -47.680707 
L 190.995 -47.459516 
L 190.995 -47.238324 
L 190.995 -47.017132 
L 190.995 -46.795941 
L 190.995 -46.574749 
L 190.995 -46.353557 
L 190.995 -46.132366 
L 190.995 -45.911174 
L 190.995 -45.689982 
L 190.995 -45.468791 
L 190.995 -45.247599 
L 190.995 -45.026407 
L 190.995 -44.805216 
L 190.995 -44.584024 
L 190.995 -44.362832 
L 190.995 -44.141641 
L 190.995 -43.920449 
L 190.995 -43.699257 
L 190.995 -43.478066 
L 190.995 -43.256874 
L 190.995 -43.035682 
L 190.995 -42.814491 
L 190.995 -42.593299 
L 190.995 -42.372107 
L 190.995 -42.150915 
L 190.995 -41.929724 
L 190.995 -41.708532 
L 190.995 -41.48734 
L 190.995 -41.266149 
L 190.995 -41.044957 
L 190.995 -40.823765 
L 190.995 -40.602574 
L 190.995 -40.381382 
L 190.995 -40.16019 
L 190.995 -39.938999 
L 190.995 -39.717807 
L 190.995 -39.496615 
L 190.995 -39.275424 
L 190.995 -39.054232 
L 190.995 -38.83304 
L 190.995 -38.611849 
L 190.995 -38.390657 
L 190.995 -38.169465 
L 190.995 -37.948274 
L 190.995 -37.727082 
L 190.995 -37.50589 
L 190.995 -37.284698 
L 190.995 -37.063507 
L 190.995 -36.842315 
L 190.995 -36.621123 
L 190.995 -36.399932 
L 190.995 -36.17874 
L 190.995 -35.957548 
L 190.995 -35.736357 
L 190.995 -35.515165 
L 190.995 -35.293973 
L 190.995 -35.072782 
L 190.995 -34.85159 
L 190.995 -34.630398 
L 190.995 -34.409207 
L 190.995 -34.188015 
L 190.995 -33.966823 
L 190.995 -33.745632 
L 190.995 -33.52444 
L 190.995 -33.303248 
L 190.995 -33.082057 
L 190.995 -32.860865 
L 190.995 -32.639673 
L 190.995 -32.418482 
L 190.995 -32.19729 
L 190.995 -31.976098 
L 190.995 -31.754906 
L 190.995 -31.533715 
L 190.995 -31.312523 
L 190.995 -31.091331 
L 190.995 -30.87014 
L 190.995 -30.648948 
L 190.995 -30.427756 
L 190.995 -30.206565 
L 190.995 -29.985373 
L 190.995 -29.764181 
L 190.995 -29.54299 
L 190.995 -29.321798 
L 190.995 -29.100606 
L 190.995 -28.879415 
L 190.995 -28.658223 
L 190.995 -28.437031 
L 190.995 -28.21584 
L 190.995 -27.994648 
L 190.995 -27.773456 
L 190.995 -27.552265 
L 190.995 -27.331073 
z
" style="stroke: #434343; stroke-width: 0.5"/>
    </defs>
    <g clip-path="url(#p450cf464fc)">
     <use xlink:href="#mb9267896c2" x="0" y="144" style="fill: #885757; stroke: #434343; stroke-width: 0.5"/>
    </g>
   </g>
   <g id="PolyCollection_6">
    <defs>
     <path id="ma1e17264d0" d="M 198.486098 -20.88 
L 197.505 -20.88 
L 197.505 -21.178987 
L 197.505 -21.477974 
L 197.505 -21.776961 
L 197.505 -22.075948 
L 197.505 -22.374935 
L 197.505 -22.673922 
L 197.505 -22.972909 
L 197.505 -23.271896 
L 197.505 -23.570883 
L 197.505 -23.869871 
L 197.505 -24.168858 
L 197.505 -24.467845 
L 197.505 -24.766832 
L 197.505 -25.065819 
L 197.505 -25.364806 
L 197.505 -25.663793 
L 197.505 -25.96278 
L 197.505 -26.261767 
L 197.505 -26.560754 
L 197.505 -26.859741 
L 197.505 -27.158728 
L 197.505 -27.457715 
L 197.505 -27.756702 
L 197.505 -28.055689 
L 197.505 -28.354676 
L 197.505 -28.653663 
L 197.505 -28.95265 
L 197.505 -29.251637 
L 197.505 -29.550625 
L 197.505 -29.849612 
L 197.505 -30.148599 
L 197.505 -30.447586 
L 197.505 -30.746573 
L 197.505 -31.04556 
L 197.505 -31.344547 
L 197.505 -31.643534 
L 197.505 -31.942521 
L 197.505 -32.241508 
L 197.505 -32.540495 
L 197.505 -32.839482 
L 197.505 -33.138469 
L 197.505 -33.437456 
L 197.505 -33.736443 
L 197.505 -34.03543 
L 197.505 -34.334417 
L 197.505 -34.633404 
L 197.505 -34.932392 
L 197.505 -35.231379 
L 197.505 -35.530366 
L 197.505 -35.829353 
L 197.505 -36.12834 
L 197.505 -36.427327 
L 197.505 -36.726314 
L 197.505 -37.025301 
L 197.505 -37.324288 
L 197.505 -37.623275 
L 197.505 -37.922262 
L 197.505 -38.221249 
L 197.505 -38.520236 
L 197.505 -38.819223 
L 197.505 -39.11821 
L 197.505 -39.417197 
L 197.505 -39.716184 
L 197.505 -40.015171 
L 197.505 -40.314158 
L 197.505 -40.613146 
L 197.505 -40.912133 
L 197.505 -41.21112 
L 197.505 -41.510107 
L 197.505 -41.809094 
L 197.505 -42.108081 
L 197.505 -42.407068 
L 197.505 -42.706055 
L 197.505 -43.005042 
L 197.505 -43.304029 
L 197.505 -43.603016 
L 197.505 -43.902003 
L 197.505 -44.20099 
L 197.505 -44.499977 
L 197.505 -44.798964 
L 197.505 -45.097951 
L 197.505 -45.396938 
L 197.505 -45.695925 
L 197.505 -45.994912 
L 197.505 -46.2939 
L 197.505 -46.592887 
L 197.505 -46.891874 
L 197.505 -47.190861 
L 197.505 -47.489848 
L 197.505 -47.788835 
L 197.505 -48.087822 
L 197.505 -48.386809 
L 197.505 -48.685796 
L 197.505 -48.984783 
L 197.505 -49.28377 
L 197.505 -49.582757 
L 197.505 -49.881744 
L 197.505 -50.180731 
L 197.505 -50.479718 
L 197.999878 -50.479718 
L 197.999878 -50.479718 
L 197.936137 -50.180731 
L 197.812536 -49.881744 
L 197.767314 -49.582757 
L 197.859539 -49.28377 
L 198.027647 -48.984783 
L 198.175137 -48.685796 
L 198.280537 -48.386809 
L 198.379912 -48.087822 
L 198.4672 -47.788835 
L 198.508193 -47.489848 
L 198.538588 -47.190861 
L 198.639933 -46.891874 
L 198.807355 -46.592887 
L 198.945289 -46.2939 
L 198.99046 -45.994912 
L 198.935265 -45.695925 
L 198.811511 -45.396938 
L 198.732043 -45.097951 
L 198.802715 -44.798964 
L 198.964327 -44.499977 
L 199.04199 -44.20099 
L 198.927589 -43.902003 
L 198.664742 -43.603016 
L 198.42274 -43.304029 
L 198.418456 -43.005042 
L 198.796081 -42.706055 
L 199.531106 -42.407068 
L 200.438385 -42.108081 
L 201.282144 -41.809094 
L 201.928176 -41.510107 
L 202.414185 -41.21112 
L 202.853294 -40.912133 
L 203.303422 -40.613146 
L 203.827516 -40.314158 
L 204.692842 -40.015171 
L 206.330418 -39.716184 
L 209.036907 -39.417197 
L 212.915874 -39.11821 
L 217.733834 -38.819223 
L 222.08491 -38.520236 
L 223.545 -38.221249 
L 221.14413 -37.922262 
L 216.826532 -37.623275 
L 213.225673 -37.324288 
L 211.131102 -37.025301 
L 209.820602 -36.726314 
L 208.508007 -36.427327 
L 206.888222 -36.12834 
L 205.144781 -35.829353 
L 203.814105 -35.530366 
L 203.33736 -35.231379 
L 203.643875 -34.932392 
L 204.251266 -34.633404 
L 204.668395 -34.334417 
L 204.622134 -34.03543 
L 204.132941 -33.736443 
L 203.572844 -33.437456 
L 203.474815 -33.138469 
L 204.137622 -32.839482 
L 205.453249 -32.540495 
L 206.989033 -32.241508 
L 208.201761 -31.942521 
L 208.800594 -31.643534 
L 208.933122 -31.344547 
L 209.006626 -31.04556 
L 209.458762 -30.746573 
L 210.44709 -30.447586 
L 211.506228 -30.148599 
L 211.876798 -29.849612 
L 211.248823 -29.550625 
L 209.843329 -29.251637 
L 208.069629 -28.95265 
L 206.430278 -28.653663 
L 205.383063 -28.354676 
L 205.048599 -28.055689 
L 205.121598 -27.756702 
L 205.035215 -27.457715 
L 204.339843 -27.158728 
L 203.129954 -26.859741 
L 201.919187 -26.560754 
L 200.983359 -26.261767 
L 200.159526 -25.96278 
L 199.324965 -25.663793 
L 198.651035 -25.364806 
L 198.307276 -25.065819 
L 198.22379 -24.766832 
L 198.226164 -24.467845 
L 198.211836 -24.168858 
L 198.14294 -23.869871 
L 198.026903 -23.570883 
L 197.944568 -23.271896 
L 197.978598 -22.972909 
L 198.109826 -22.673922 
L 198.26828 -22.374935 
L 198.443018 -22.075948 
L 198.637594 -21.776961 
L 198.769444 -21.477974 
L 198.725316 -21.178987 
L 198.486098 -20.88 
z
" style="stroke: #434343; stroke-width: 0.5"/>
    </defs>
    <g clip-path="url(#p450cf464fc)">
     <use xlink:href="#ma1e17264d0" x="0" y="144" style="fill: #b07878; stroke: #434343; stroke-width: 0.5"/>
    </g>
   </g>
   <g id="matplotlib.axis_1">
    <g id="xtick_1">
     <g id="line2d_1">
      <defs>
       <path id="mc052b65757" d="M 0 0 
L 0 -3 
" style="stroke: #000000; stroke-width: 0.5"/>
      </defs>
      <g>
       <use xlink:href="#mc052b65757" x="47.775" y="128.16" style="stroke: #000000; stroke-width: 0.5"/>
      </g>
     </g>
     <g id="text_1">
      <text style="font: 7px 'DejaVu Sans', 'Bitstream Vera Sans', 'Computer Modern Sans Serif', 'Lucida Grande', 'Verdana', 'Geneva', 'Lucid', 'Arial', 'Helvetica', 'Avant Garde', sans-serif" transform="translate(37.031094 136.978906)">Inulin,</text>
      <text style="font: 7px 'DejaVu Sans', 'Bitstream Vera Sans', 'Computer Modern Sans Serif', 'Lucida Grande', 'Verdana', 'Geneva', 'Lucid', 'Arial', 'Helvetica', 'Avant Garde', sans-serif" transform="translate(34.831016 144.817375)"> n=673</text>
     </g>
    </g>
    <g id="xtick_2">
     <g id="line2d_2">
      <g>
       <use xlink:href="#mc052b65757" x="80.325" y="128.16" style="stroke: #000000; stroke-width: 0.5"/>
      </g>
     </g>
     <g id="text_2">
      <text style="font: 7px 'DejaVu Sans', 'Bitstream Vera Sans', 'Computer Modern Sans Serif', 'Lucida Grande', 'Verdana', 'Geneva', 'Lucid', 'Arial', 'Helvetica', 'Avant Garde', sans-serif" transform="translate(67.971094 136.978906)">Starch,</text>
      <text style="font: 7px 'DejaVu Sans', 'Bitstream Vera Sans', 'Computer Modern Sans Serif', 'Lucida Grande', 'Verdana', 'Geneva', 'Lucid', 'Arial', 'Helvetica', 'Avant Garde', sans-serif" transform="translate(67.381016 144.817375)"> n=392</text>
     </g>
    </g>
    <g id="xtick_3">
     <g id="line2d_3">
      <g>
       <use xlink:href="#mc052b65757" x="112.875" y="128.16" style="stroke: #000000; stroke-width: 0.5"/>
      </g>
     </g>
     <g id="text_3">
      <text style="font: 7px 'DejaVu Sans', 'Bitstream Vera Sans', 'Computer Modern Sans Serif', 'Lucida Grande', 'Verdana', 'Geneva', 'Lucid', 'Arial', 'Helvetica', 'Avant Garde', sans-serif" transform="translate(101.958281 136.978906)">Xylan,</text>
      <text style="font: 7px 'DejaVu Sans', 'Bitstream Vera Sans', 'Computer Modern Sans Serif', 'Lucida Grande', 'Verdana', 'Geneva', 'Lucid', 'Arial', 'Helvetica', 'Avant Garde', sans-serif" transform="translate(99.931016 144.817375)"> n=335</text>
     </g>
    </g>
    <g id="xtick_4">
     <g id="line2d_4">
      <g>
       <use xlink:href="#mc052b65757" x="145.425" y="128.16" style="stroke: #000000; stroke-width: 0.5"/>
      </g>
     </g>
     <g id="text_4">
      <text style="font: 7px 'DejaVu Sans', 'Bitstream Vera Sans', 'Computer Modern Sans Serif', 'Lucida Grande', 'Verdana', 'Geneva', 'Lucid', 'Arial', 'Helvetica', 'Avant Garde', sans-serif" transform="translate(133.688516 136.978906)">Pectin,</text>
      <text style="font: 7px 'DejaVu Sans', 'Bitstream Vera Sans', 'Computer Modern Sans Serif', 'Lucida Grande', 'Verdana', 'Geneva', 'Lucid', 'Arial', 'Helvetica', 'Avant Garde', sans-serif" transform="translate(132.481016 144.817375)"> n=539</text>
     </g>
    </g>
    <g id="xtick_5">
     <g id="line2d_5">
      <g>
       <use xlink:href="#mc052b65757" x="177.975" y="128.16" style="stroke: #000000; stroke-width: 0.5"/>
      </g>
     </g>
     <g id="text_5">
      <text style="font: 7px 'DejaVu Sans', 'Bitstream Vera Sans', 'Computer Modern Sans Serif', 'Lucida Grande', 'Verdana', 'Geneva', 'Lucid', 'Arial', 'Helvetica', 'Avant Garde', sans-serif" transform="translate(164.265938 136.978906)">AcGum,</text>
      <text style="font: 7px 'DejaVu Sans', 'Bitstream Vera Sans', 'Computer Modern Sans Serif', 'Lucida Grande', 'Verdana', 'Geneva', 'Lucid', 'Arial', 'Helvetica', 'Avant Garde', sans-serif" transform="translate(165.031016 144.817375)"> n=252</text>
     </g>
    </g>
    <g id="xtick_6">
     <g id="line2d_6">
      <g>
       <use xlink:href="#mc052b65757" x="210.525" y="128.16" style="stroke: #000000; stroke-width: 0.5"/>
      </g>
     </g>
     <g id="text_6">
      <text style="font: 7px 'DejaVu Sans', 'Bitstream Vera Sans', 'Computer Modern Sans Serif', 'Lucida Grande', 'Verdana', 'Geneva', 'Lucid', 'Arial', 'Helvetica', 'Avant Garde', sans-serif" transform="translate(199.750469 136.978906)">ArGal,</text>
      <text style="font: 7px 'DejaVu Sans', 'Bitstream Vera Sans', 'Computer Modern Sans Serif', 'Lucida Grande', 'Verdana', 'Geneva', 'Lucid', 'Arial', 'Helvetica', 'Avant Garde', sans-serif" transform="translate(197.581016 144.817375)"> n=271</text>
     </g>
    </g>
   </g>
   <g id="matplotlib.axis_2">
    <g id="ytick_1">
     <g id="line2d_7">
      <defs>
       <path id="me9b4ed4cbf" d="M 0 0 
L 3 0 
" style="stroke: #000000; stroke-width: 0.5"/>
      </defs>
      <g>
       <use xlink:href="#me9b4ed4cbf" x="31.5" y="125.194368" style="stroke: #000000; stroke-width: 0.5"/>
      </g>
     </g>
     <g id="text_7">
      <text style="font: 7px 'DejaVu Sans', 'Bitstream Vera Sans', 'Computer Modern Sans Serif', 'Lucida Grande', 'Verdana', 'Geneva', 'Lucid', 'Arial', 'Helvetica', 'Avant Garde', sans-serif; text-anchor: end" x="28" y="127.853821" transform="rotate(-0 28 127.853821)">−2</text>
     </g>
    </g>
    <g id="ytick_2">
     <g id="line2d_8">
      <g>
       <use xlink:href="#me9b4ed4cbf" x="31.5" y="105.66285" style="stroke: #000000; stroke-width: 0.5"/>
      </g>
     </g>
     <g id="text_8">
      <text style="font: 7px 'DejaVu Sans', 'Bitstream Vera Sans', 'Computer Modern Sans Serif', 'Lucida Grande', 'Verdana', 'Geneva', 'Lucid', 'Arial', 'Helvetica', 'Avant Garde', sans-serif; text-anchor: end" x="28" y="108.322303" transform="rotate(-0 28 108.322303)">0</text>
     </g>
    </g>
    <g id="ytick_3">
     <g id="line2d_9">
      <g>
       <use xlink:href="#me9b4ed4cbf" x="31.5" y="86.131333" style="stroke: #000000; stroke-width: 0.5"/>
      </g>
     </g>
     <g id="text_9">
      <text style="font: 7px 'DejaVu Sans', 'Bitstream Vera Sans', 'Computer Modern Sans Serif', 'Lucida Grande', 'Verdana', 'Geneva', 'Lucid', 'Arial', 'Helvetica', 'Avant Garde', sans-serif; text-anchor: end" x="28" y="88.790786" transform="rotate(-0 28 88.790786)">2</text>
     </g>
    </g>
    <g id="ytick_4">
     <g id="line2d_10">
      <g>
       <use xlink:href="#me9b4ed4cbf" x="31.5" y="66.599815" style="stroke: #000000; stroke-width: 0.5"/>
      </g>
     </g>
     <g id="text_10">
      <text style="font: 7px 'DejaVu Sans', 'Bitstream Vera Sans', 'Computer Modern Sans Serif', 'Lucida Grande', 'Verdana', 'Geneva', 'Lucid', 'Arial', 'Helvetica', 'Avant Garde', sans-serif; text-anchor: end" x="28" y="69.259268" transform="rotate(-0 28 69.259268)">4</text>
     </g>
    </g>
    <g id="ytick_5">
     <g id="line2d_11">
      <g>
       <use xlink:href="#me9b4ed4cbf" x="31.5" y="47.068297" style="stroke: #000000; stroke-width: 0.5"/>
      </g>
     </g>
     <g id="text_11">
      <text style="font: 7px 'DejaVu Sans', 'Bitstream Vera Sans', 'Computer Modern Sans Serif', 'Lucida Grande', 'Verdana', 'Geneva', 'Lucid', 'Arial', 'Helvetica', 'Avant Garde', sans-serif; text-anchor: end" x="28" y="49.72775" transform="rotate(-0 28 49.72775)">6</text>
     </g>
    </g>
    <g id="ytick_6">
     <g id="line2d_12">
      <g>
       <use xlink:href="#me9b4ed4cbf" x="31.5" y="27.536779" style="stroke: #000000; stroke-width: 0.5"/>
      </g>
     </g>
     <g id="text_12">
      <text style="font: 7px 'DejaVu Sans', 'Bitstream Vera Sans', 'Computer Modern Sans Serif', 'Lucida Grande', 'Verdana', 'Geneva', 'Lucid', 'Arial', 'Helvetica', 'Avant Garde', sans-serif; text-anchor: end" x="28" y="30.196232" transform="rotate(-0 28 30.196232)">8</text>
     </g>
    </g>
    <g id="text_13">
     <text style="font: 7px 'DejaVu Sans', 'Bitstream Vera Sans', 'Computer Modern Sans Serif', 'Lucida Grande', 'Verdana', 'Geneva', 'Lucid', 'Arial', 'Helvetica', 'Avant Garde', sans-serif; text-anchor: middle" x="12.224687" y="72.72" transform="rotate(-90 12.224687 72.72)">SHAP value</text>
    </g>
   </g>
   <g id="line2d_13">
    <path d="M 31.5 105.66285 
L 226.8 105.66285 
" clip-path="url(#p450cf464fc)" style="fill: none; stroke: #000000; stroke-opacity: 0.5; stroke-linecap: square"/>
   </g>
   <g id="patch_3">
    <path d="M 31.5 128.16 
L 31.5 17.28 
" style="fill: none; stroke: #000000; stroke-width: 0.5; stroke-linejoin: miter; stroke-linecap: square"/>
   </g>
   <g id="patch_4">
    <path d="M 226.8 128.16 
L 226.8 17.28 
" style="fill: none; stroke: #000000; stroke-width: 0.5; stroke-linejoin: miter; stroke-linecap: square"/>
   </g>
   <g id="patch_5">
    <path d="M 31.5 128.16 
L 226.8 128.16 
" style="fill: none; stroke: #000000; stroke-width: 0.5; stroke-linejoin: miter; stroke-linecap: square"/>
   </g>
   <g id="patch_6">
    <path d="M 31.5 17.28 
L 226.8 17.28 
" style="fill: none; stroke: #000000; stroke-width: 0.5; stroke-linejoin: miter; stroke-linecap: square"/>
   </g>
  </g>
 </g>
 <defs>
  <clipPath id="p450cf464fc">
   <rect x="31.5" y="17.28" width="195.3" height="110.88"/>
  </clipPath>
 </defs>
</svg>
