<?xml version="1.0" encoding="utf-8" standalone="no"?>
<!DOCTYPE svg PUBLIC "-//W3C//DTD SVG 1.1//EN"
  "http://www.w3.org/Graphics/SVG/1.1/DTD/svg11.dtd">
<svg xmlns:xlink="http://www.w3.org/1999/xlink" width="216pt" height="144pt" viewBox="0 0 216 144" xmlns="http://www.w3.org/2000/svg" version="1.1">
 <metadata>
  <rdf:RDF xmlns:dc="http://purl.org/dc/elements/1.1/" xmlns:cc="http://creativecommons.org/ns#" xmlns:rdf="http://www.w3.org/1999/02/22-rdf-syntax-ns#">
   <cc:Work>
    <dc:type rdf:resource="http://purl.org/dc/dcmitype/StillImage"/>
    <dc:date>2025-08-17T20:09:48.654871</dc:date>
    <dc:format>image/svg+xml</dc:format>
    <dc:creator>
     <cc:Agent>
      <dc:title>Matplotlib v3.10.1, https://matplotlib.org/</dc:title>
     </cc:Agent>
    </dc:creator>
   </cc:Work>
  </rdf:RDF>
 </metadata>
 <defs>
  <style type="text/css">*{stroke-linejoin: round; stroke-linecap: butt}</style>
 </defs>
 <g id="figure_1">
  <g id="patch_1">
   <path d="M 0 144 
L 216 144 
L 216 0 
L 0 0 
z
" style="fill: #ffffff"/>
  </g>
  <g id="axes_1">
   <g id="patch_2">
    <path d="M 27 128.16 
L 194.4 128.16 
L 194.4 17.28 
L 27 17.28 
z
" style="fill: #ffffff"/>
   </g>
   <g id="FillBetweenPolyCollection_1">
    <defs>
     <path id="m864586d81c" d="M 52.11 -21.790101 
L 46.622902 -21.790101 
L 46.88214 -21.869846 
L 47.58865 -21.94959 
L 48.56041 -22.029334 
L 49.580279 -22.109079 
L 50.472949 -22.188823 
L 51.146576 -22.268568 
L 51.589587 -22.348312 
L 51.838076 -22.428057 
L 51.937121 -22.507801 
L 51.912157 -22.587545 
L 51.755975 -22.66729 
L 51.431511 -22.747034 
L 50.889978 -22.826779 
L 50.10175 -22.906523 
L 49.089261 -22.986267 
L 47.941372 -23.066012 
L 46.789246 -23.145756 
L 45.744443 -23.225501 
L 44.832974 -23.305245 
L 43.97807 -23.384989 
L 43.063219 -23.464734 
L 42.049401 -23.544478 
L 41.067385 -23.624223 
L 40.406631 -23.703967 
L 40.387926 -23.783711 
L 41.191725 -23.863456 
L 42.750623 -23.9432 
L 44.771429 -24.022945 
L 46.865072 -24.102689 
L 48.699628 -24.182433 
L 50.094648 -24.262178 
L 51.028147 -24.341922 
L 51.58238 -24.421667 
L 51.875358 -24.501411 
L 52.011812 -24.581155 
L 52.062105 -24.6609 
L 52.060335 -24.740644 
L 52.009228 -24.820389 
L 51.884638 -24.900133 
L 51.640189 -24.979877 
L 51.218094 -25.059622 
L 50.572401 -25.139366 
L 49.7037 -25.219111 
L 48.691598 -25.298855 
L 47.701745 -25.378599 
L 46.949419 -25.458344 
L 46.624949 -25.538088 
L 46.814301 -25.617833 
L 47.457995 -25.697577 
L 48.371157 -25.777322 
L 49.310217 -25.857066 
L 50.046486 -25.93681 
L 50.412062 -26.016555 
L 50.311181 -26.096299 
L 49.71503 -26.176044 
L 48.661002 -26.255788 
L 47.260719 -26.335532 
L 45.702807 -26.415277 
L 44.233199 -26.495021 
L 43.109049 -26.574766 
L 42.539458 -26.65451 
L 42.633872 -26.734254 
L 43.375065 -26.813999 
L 44.624694 -26.893743 
L 46.160723 -26.973488 
L 47.736813 -27.053232 
L 49.144409 -27.132976 
L 50.254699 -27.212721 
L 51.025655 -27.292465 
L 51.475752 -27.37221 
L 51.640133 -27.451954 
L 51.52941 -27.531698 
L 51.107201 -27.611443 
L 50.295687 -27.691187 
L 49.011051 -27.770932 
L 47.220254 -27.850676 
L 44.996957 -27.93042 
L 42.545576 -28.010165 
L 40.169938 -28.089909 
L 38.189663 -28.169654 
L 36.838639 -28.249398 
L 36.192956 -28.329142 
L 36.158617 -28.408887 
L 36.514311 -28.488631 
L 36.977805 -28.568376 
L 37.264884 -28.64812 
L 37.132789 -28.727864 
L 36.42265 -28.807609 
L 35.11441 -28.887353 
L 33.380311 -28.967098 
L 31.593046 -29.046842 
L 30.246019 -29.126587 
L 29.79 -29.206331 
L 30.456027 -29.286075 
L 32.164592 -29.36582 
L 34.579787 -29.445564 
L 37.275794 -29.525309 
L 39.911384 -29.605053 
L 42.313925 -29.684797 
L 52.11 -29.684797 
L 52.11 -29.684797 
L 52.11 -29.605053 
L 52.11 -29.525309 
L 52.11 -29.445564 
L 52.11 -29.36582 
L 52.11 -29.286075 
L 52.11 -29.206331 
L 52.11 -29.126587 
L 52.11 -29.046842 
L 52.11 -28.967098 
L 52.11 -28.887353 
L 52.11 -28.807609 
L 52.11 -28.727864 
L 52.11 -28.64812 
L 52.11 -28.568376 
L 52.11 -28.488631 
L 52.11 -28.408887 
L 52.11 -28.329142 
L 52.11 -28.249398 
L 52.11 -28.169654 
L 52.11 -28.089909 
L 52.11 -28.010165 
L 52.11 -27.93042 
L 52.11 -27.850676 
L 52.11 -27.770932 
L 52.11 -27.691187 
L 52.11 -27.611443 
L 52.11 -27.531698 
L 52.11 -27.451954 
L 52.11 -27.37221 
L 52.11 -27.292465 
L 52.11 -27.212721 
L 52.11 -27.132976 
L 52.11 -27.053232 
L 52.11 -26.973488 
L 52.11 -26.893743 
L 52.11 -26.813999 
L 52.11 -26.734254 
L 52.11 -26.65451 
L 52.11 -26.574766 
L 52.11 -26.495021 
L 52.11 -26.415277 
L 52.11 -26.335532 
L 52.11 -26.255788 
L 52.11 -26.176044 
L 52.11 -26.096299 
L 52.11 -26.016555 
L 52.11 -25.93681 
L 52.11 -25.857066 
L 52.11 -25.777322 
L 52.11 -25.697577 
L 52.11 -25.617833 
L 52.11 -25.538088 
L 52.11 -25.458344 
L 52.11 -25.378599 
L 52.11 -25.298855 
L 52.11 -25.219111 
L 52.11 -25.139366 
L 52.11 -25.059622 
L 52.11 -24.979877 
L 52.11 -24.900133 
L 52.11 -24.820389 
L 52.11 -24.740644 
L 52.11 -24.6609 
L 52.11 -24.581155 
L 52.11 -24.501411 
L 52.11 -24.421667 
L 52.11 -24.341922 
L 52.11 -24.262178 
L 52.11 -24.182433 
L 52.11 -24.102689 
L 52.11 -24.022945 
L 52.11 -23.9432 
L 52.11 -23.863456 
L 52.11 -23.783711 
L 52.11 -23.703967 
L 52.11 -23.624223 
L 52.11 -23.544478 
L 52.11 -23.464734 
L 52.11 -23.384989 
L 52.11 -23.305245 
L 52.11 -23.225501 
L 52.11 -23.145756 
L 52.11 -23.066012 
L 52.11 -22.986267 
L 52.11 -22.906523 
L 52.11 -22.826779 
L 52.11 -22.747034 
L 52.11 -22.66729 
L 52.11 -22.587545 
L 52.11 -22.507801 
L 52.11 -22.428057 
L 52.11 -22.348312 
L 52.11 -22.268568 
L 52.11 -22.188823 
L 52.11 -22.109079 
L 52.11 -22.029334 
L 52.11 -21.94959 
L 52.11 -21.869846 
L 52.11 -21.790101 
z
" style="stroke: #434343; stroke-width: 0.5"/>
    </defs>
    <g clip-path="url(#p9e04e242ce)">
     <use xlink:href="#m864586d81c" x="0" y="144" style="fill: #885757; stroke: #434343; stroke-width: 0.5"/>
    </g>
   </g>
   <g id="FillBetweenPolyCollection_2">
    <defs>
     <path id="md1e3f2a2d6" d="M 66.130184 -22.844907 
L 57.69 -22.844907 
L 57.69 -22.95284 
L 57.69 -23.060773 
L 57.69 -23.168707 
L 57.69 -23.27664 
L 57.69 -23.384573 
L 57.69 -23.492506 
L 57.69 -23.600439 
L 57.69 -23.708373 
L 57.69 -23.816306 
L 57.69 -23.924239 
L 57.69 -24.032172 
L 57.69 -24.140105 
L 57.69 -24.248039 
L 57.69 -24.355972 
L 57.69 -24.463905 
L 57.69 -24.571838 
L 57.69 -24.679771 
L 57.69 -24.787704 
L 57.69 -24.895638 
L 57.69 -25.003571 
L 57.69 -25.111504 
L 57.69 -25.219437 
L 57.69 -25.32737 
L 57.69 -25.435304 
L 57.69 -25.543237 
L 57.69 -25.65117 
L 57.69 -25.759103 
L 57.69 -25.867036 
L 57.69 -25.97497 
L 57.69 -26.082903 
L 57.69 -26.190836 
L 57.69 -26.298769 
L 57.69 -26.406702 
L 57.69 -26.514635 
L 57.69 -26.622569 
L 57.69 -26.730502 
L 57.69 -26.838435 
L 57.69 -26.946368 
L 57.69 -27.054301 
L 57.69 -27.162235 
L 57.69 -27.270168 
L 57.69 -27.378101 
L 57.69 -27.486034 
L 57.69 -27.593967 
L 57.69 -27.701901 
L 57.69 -27.809834 
L 57.69 -27.917767 
L 57.69 -28.0257 
L 57.69 -28.133633 
L 57.69 -28.241566 
L 57.69 -28.3495 
L 57.69 -28.457433 
L 57.69 -28.565366 
L 57.69 -28.673299 
L 57.69 -28.781232 
L 57.69 -28.889166 
L 57.69 -28.997099 
L 57.69 -29.105032 
L 57.69 -29.212965 
L 57.69 -29.320898 
L 57.69 -29.428832 
L 57.69 -29.536765 
L 57.69 -29.644698 
L 57.69 -29.752631 
L 57.69 -29.860564 
L 57.69 -29.968497 
L 57.69 -30.076431 
L 57.69 -30.184364 
L 57.69 -30.292297 
L 57.69 -30.40023 
L 57.69 -30.508163 
L 57.69 -30.616097 
L 57.69 -30.72403 
L 57.69 -30.831963 
L 57.69 -30.939896 
L 57.69 -31.047829 
L 57.69 -31.155763 
L 57.69 -31.263696 
L 57.69 -31.371629 
L 57.69 -31.479562 
L 57.69 -31.587495 
L 57.69 -31.695428 
L 57.69 -31.803362 
L 57.69 -31.911295 
L 57.69 -32.019228 
L 57.69 -32.127161 
L 57.69 -32.235094 
L 57.69 -32.343028 
L 57.69 -32.450961 
L 57.69 -32.558894 
L 57.69 -32.666827 
L 57.69 -32.77476 
L 57.69 -32.882694 
L 57.69 -32.990627 
L 57.69 -33.09856 
L 57.69 -33.206493 
L 57.69 -33.314426 
L 57.69 -33.422359 
L 57.69 -33.530293 
L 78.631536 -33.530293 
L 78.631536 -33.530293 
L 80.01 -33.422359 
L 79.651497 -33.314426 
L 77.698651 -33.206493 
L 74.608981 -33.09856 
L 70.996066 -32.990627 
L 67.467728 -32.882694 
L 64.512035 -32.77476 
L 62.444667 -32.666827 
L 61.403862 -32.558894 
L 61.365481 -32.450961 
L 62.154621 -32.343028 
L 63.453969 -32.235094 
L 64.837295 -32.127161 
L 65.858495 -32.019228 
L 66.188438 -31.911295 
L 65.740937 -31.803362 
L 64.714248 -31.695428 
L 63.516069 -31.587495 
L 62.605992 -31.479562 
L 62.327568 -31.371629 
L 62.793681 -31.263696 
L 63.857809 -31.155763 
L 65.178472 -31.047829 
L 66.363035 -30.939896 
L 67.144392 -30.831963 
L 67.509565 -30.72403 
L 67.701542 -30.616097 
L 68.077529 -30.508163 
L 68.895839 -30.40023 
L 70.152661 -30.292297 
L 71.558851 -30.184364 
L 72.661216 -30.076431 
L 73.036801 -29.968497 
L 72.467164 -29.860564 
L 71.027161 -29.752631 
L 69.06575 -29.644698 
L 67.091259 -29.536765 
L 65.598504 -29.428832 
L 64.894034 -29.320898 
L 64.98351 -29.212965 
L 65.57135 -29.105032 
L 66.182604 -28.997099 
L 66.361033 -28.889166 
L 65.853649 -28.781232 
L 64.693579 -28.673299 
L 63.149402 -28.565366 
L 61.586423 -28.457433 
L 60.328243 -28.3495 
L 59.586456 -28.241566 
L 59.465002 -28.133633 
L 59.994917 -28.0257 
L 61.149936 -27.917767 
L 62.82921 -27.809834 
L 64.835985 -27.701901 
L 66.89314 -27.593967 
L 68.706311 -27.486034 
L 70.039702 -27.378101 
L 70.754639 -27.270168 
L 70.795833 -27.162235 
L 70.160584 -27.054301 
L 68.896354 -26.946368 
L 67.130008 -26.838435 
L 65.086068 -26.730502 
L 63.054495 -26.622569 
L 61.316686 -26.514635 
L 60.078196 -26.406702 
L 59.447866 -26.298769 
L 59.458605 -26.190836 
L 60.090008 -26.082903 
L 61.258276 -25.97497 
L 62.778474 -25.867036 
L 64.34393 -25.759103 
L 65.571711 -25.65117 
L 66.120536 -25.543237 
L 65.826536 -25.435304 
L 64.774146 -25.32737 
L 63.253875 -25.219437 
L 61.631883 -25.111504 
L 60.209215 -25.003571 
L 59.142317 -24.895638 
L 58.445254 -24.787704 
L 58.044292 -24.679771 
L 57.839935 -24.571838 
L 57.747304 -24.463905 
L 57.710051 -24.355972 
L 57.697512 -24.248039 
L 57.696764 -24.140105 
L 57.706955 -24.032172 
L 57.738861 -23.924239 
L 57.819845 -23.816306 
L 58.001793 -23.708373 
L 58.365464 -23.600439 
L 59.010007 -23.492506 
L 60.016941 -23.384573 
L 61.390235 -23.27664 
L 62.99772 -23.168707 
L 64.557857 -23.060773 
L 65.706213 -22.95284 
L 66.130184 -22.844907 
z
" style="stroke: #434343; stroke-width: 0.5"/>
    </defs>
    <g clip-path="url(#p9e04e242ce)">
     <use xlink:href="#md1e3f2a2d6" x="0" y="144" style="fill: #f0f0db; stroke: #434343; stroke-width: 0.5"/>
    </g>
   </g>
   <g id="FillBetweenPolyCollection_3">
    <defs>
     <path id="mc3e5ea2487" d="M 107.91 -20.88 
L 102.422445 -20.88 
L 103.024226 -21.049039 
L 104.461765 -21.218077 
L 105.980835 -21.387116 
L 107.054439 -21.556154 
L 107.609225 -21.725193 
L 107.826181 -21.894232 
L 107.891484 -22.06327 
L 107.906758 -22.232309 
L 107.90955 -22.401347 
L 107.90995 -22.570386 
L 107.909996 -22.739425 
L 107.91 -22.908463 
L 107.91 -23.077502 
L 107.91 -23.24654 
L 107.91 -23.415579 
L 107.91 -23.584618 
L 107.91 -23.753656 
L 107.91 -23.922695 
L 107.91 -24.091733 
L 107.91 -24.260772 
L 107.91 -24.429811 
L 107.91 -24.598849 
L 107.91 -24.767888 
L 107.91 -24.936926 
L 107.91 -25.105965 
L 107.91 -25.275004 
L 107.91 -25.444042 
L 107.91 -25.613081 
L 107.91 -25.782119 
L 107.91 -25.951158 
L 107.91 -26.120197 
L 107.91 -26.289235 
L 107.91 -26.458274 
L 107.909998 -26.627312 
L 107.909976 -26.796351 
L 107.909754 -26.96539 
L 107.908013 -27.134428 
L 107.897159 -27.303467 
L 107.843535 -27.472505 
L 107.633903 -27.641544 
L 106.987207 -27.810583 
L 105.421148 -27.979621 
L 102.473495 -28.14866 
L 98.244987 -28.317698 
L 93.820466 -28.486737 
L 90.859444 -28.655776 
L 90.430572 -28.824814 
L 92.242631 -28.993853 
L 95.040751 -29.162891 
L 97.494525 -29.33193 
L 98.685984 -29.500969 
L 98.307847 -29.670007 
L 96.82658 -29.839046 
L 95.236695 -30.008084 
L 94.304859 -30.177123 
L 93.989579 -30.346162 
L 93.575885 -30.5152 
L 92.310611 -30.684239 
L 90.030723 -30.853277 
L 87.397939 -31.022316 
L 85.59 -31.191355 
L 85.655711 -31.360393 
L 87.891511 -31.529432 
L 91.538357 -31.69847 
L 95.124373 -31.867509 
L 97.426713 -32.036548 
L 98.26355 -32.205586 
L 98.376264 -32.374625 
L 98.698692 -32.543663 
L 99.785647 -32.712702 
L 101.621325 -32.881741 
L 103.671222 -33.050779 
L 105.162931 -33.219818 
L 105.475995 -33.388856 
L 104.401952 -33.557895 
L 102.253486 -33.726934 
L 99.857999 -33.895972 
L 98.286552 -34.065011 
L 98.306168 -34.234049 
L 99.920486 -34.403088 
L 102.396716 -34.572127 
L 104.778568 -34.741165 
L 106.457883 -34.910204 
L 107.359044 -35.079242 
L 107.711399 -35.248281 
L 107.728354 -35.41732 
L 107.437123 -35.586358 
L 106.70031 -35.755397 
L 105.421272 -35.924435 
L 103.847485 -36.093474 
L 102.650749 -36.262513 
L 102.500407 -36.431551 
L 103.442853 -36.60059 
L 104.784075 -36.769628 
L 105.611035 -36.938667 
L 105.396256 -37.107706 
L 104.274089 -37.276744 
L 102.976464 -37.445783 
L 102.41281 -37.614821 
L 107.91 -37.614821 
L 107.91 -37.614821 
L 107.91 -37.445783 
L 107.91 -37.276744 
L 107.91 -37.107706 
L 107.91 -36.938667 
L 107.91 -36.769628 
L 107.91 -36.60059 
L 107.91 -36.431551 
L 107.91 -36.262513 
L 107.91 -36.093474 
L 107.91 -35.924435 
L 107.91 -35.755397 
L 107.91 -35.586358 
L 107.91 -35.41732 
L 107.91 -35.248281 
L 107.91 -35.079242 
L 107.91 -34.910204 
L 107.91 -34.741165 
L 107.91 -34.572127 
L 107.91 -34.403088 
L 107.91 -34.234049 
L 107.91 -34.065011 
L 107.91 -33.895972 
L 107.91 -33.726934 
L 107.91 -33.557895 
L 107.91 -33.388856 
L 107.91 -33.219818 
L 107.91 -33.050779 
L 107.91 -32.881741 
L 107.91 -32.712702 
L 107.91 -32.543663 
L 107.91 -32.374625 
L 107.91 -32.205586 
L 107.91 -32.036548 
L 107.91 -31.867509 
L 107.91 -31.69847 
L 107.91 -31.529432 
L 107.91 -31.360393 
L 107.91 -31.191355 
L 107.91 -31.022316 
L 107.91 -30.853277 
L 107.91 -30.684239 
L 107.91 -30.5152 
L 107.91 -30.346162 
L 107.91 -30.177123 
L 107.91 -30.008084 
L 107.91 -29.839046 
L 107.91 -29.670007 
L 107.91 -29.500969 
L 107.91 -29.33193 
L 107.91 -29.162891 
L 107.91 -28.993853 
L 107.91 -28.824814 
L 107.91 -28.655776 
L 107.91 -28.486737 
L 107.91 -28.317698 
L 107.91 -28.14866 
L 107.91 -27.979621 
L 107.91 -27.810583 
L 107.91 -27.641544 
L 107.91 -27.472505 
L 107.91 -27.303467 
L 107.91 -27.134428 
L 107.91 -26.96539 
L 107.91 -26.796351 
L 107.91 -26.627312 
L 107.91 -26.458274 
L 107.91 -26.289235 
L 107.91 -26.120197 
L 107.91 -25.951158 
L 107.91 -25.782119 
L 107.91 -25.613081 
L 107.91 -25.444042 
L 107.91 -25.275004 
L 107.91 -25.105965 
L 107.91 -24.936926 
L 107.91 -24.767888 
L 107.91 -24.598849 
L 107.91 -24.429811 
L 107.91 -24.260772 
L 107.91 -24.091733 
L 107.91 -23.922695 
L 107.91 -23.753656 
L 107.91 -23.584618 
L 107.91 -23.415579 
L 107.91 -23.24654 
L 107.91 -23.077502 
L 107.91 -22.908463 
L 107.91 -22.739425 
L 107.91 -22.570386 
L 107.91 -22.401347 
L 107.91 -22.232309 
L 107.91 -22.06327 
L 107.91 -21.894232 
L 107.91 -21.725193 
L 107.91 -21.556154 
L 107.91 -21.387116 
L 107.91 -21.218077 
L 107.91 -21.049039 
L 107.91 -20.88 
z
" style="stroke: #434343; stroke-width: 0.5"/>
    </defs>
    <g clip-path="url(#p9e04e242ce)">
     <use xlink:href="#mc3e5ea2487" x="0" y="144" style="fill: #b07878; stroke: #434343; stroke-width: 0.5"/>
    </g>
   </g>
   <g id="FillBetweenPolyCollection_4">
    <defs>
     <path id="m8c8f3d606c" d="M 118.283543 -27.968525 
L 113.49 -27.968525 
L 113.49 -28.295445 
L 113.49 -28.622364 
L 113.49 -28.949283 
L 113.49 -29.276203 
L 113.49 -29.603122 
L 113.49 -29.930042 
L 113.49 -30.256961 
L 113.49 -30.58388 
L 113.49 -30.9108 
L 113.49 -31.237719 
L 113.49 -31.564639 
L 113.49 -31.891558 
L 113.49 -32.218477 
L 113.49 -32.545397 
L 113.49 -32.872316 
L 113.49 -33.199236 
L 113.49 -33.526155 
L 113.49 -33.853074 
L 113.49 -34.179994 
L 113.49 -34.506913 
L 113.49 -34.833833 
L 113.49 -35.160752 
L 113.49 -35.487671 
L 113.49 -35.814591 
L 113.49 -36.14151 
L 113.49 -36.468429 
L 113.49 -36.795349 
L 113.49 -37.122268 
L 113.49 -37.449188 
L 113.49 -37.776107 
L 113.49 -38.103026 
L 113.49 -38.429946 
L 113.49 -38.756865 
L 113.49 -39.083785 
L 113.49 -39.410704 
L 113.49 -39.737623 
L 113.49 -40.064543 
L 113.49 -40.391462 
L 113.49 -40.718382 
L 113.49 -41.045301 
L 113.49 -41.37222 
L 113.49 -41.69914 
L 113.49 -42.026059 
L 113.49 -42.352979 
L 113.49 -42.679898 
L 113.49 -43.006817 
L 113.49 -43.333737 
L 113.49 -43.660656 
L 113.49 -43.987576 
L 113.49 -44.314495 
L 113.49 -44.641414 
L 113.49 -44.968334 
L 113.49 -45.295253 
L 113.49 -45.622173 
L 113.49 -45.949092 
L 113.49 -46.276011 
L 113.49 -46.602931 
L 113.49 -46.92985 
L 113.49 -47.25677 
L 113.49 -47.583689 
L 113.49 -47.910608 
L 113.49 -48.237528 
L 113.49 -48.564447 
L 113.49 -48.891367 
L 113.49 -49.218286 
L 113.49 -49.545205 
L 113.49 -49.872125 
L 113.49 -50.199044 
L 113.49 -50.525964 
L 113.49 -50.852883 
L 113.49 -51.179802 
L 113.49 -51.506722 
L 113.49 -51.833641 
L 113.49 -52.16056 
L 113.49 -52.48748 
L 113.49 -52.814399 
L 113.49 -53.141319 
L 113.49 -53.468238 
L 113.49 -53.795157 
L 113.49 -54.122077 
L 113.49 -54.448996 
L 113.49 -54.775916 
L 113.49 -55.102835 
L 113.49 -55.429754 
L 113.49 -55.756674 
L 113.49 -56.083593 
L 113.49 -56.410513 
L 113.49 -56.737432 
L 113.49 -57.064351 
L 113.49 -57.391271 
L 113.49 -57.71819 
L 113.49 -58.04511 
L 113.49 -58.372029 
L 113.49 -58.698948 
L 113.49 -59.025868 
L 113.49 -59.352787 
L 113.49 -59.679707 
L 113.49 -60.006626 
L 113.49 -60.333545 
L 117.149012 -60.333545 
L 117.149012 -60.333545 
L 117.421164 -60.006626 
L 116.988022 -59.679707 
L 116.062956 -59.352787 
L 115.047401 -59.025868 
L 114.261189 -58.698948 
L 113.800491 -58.372029 
L 113.59108 -58.04511 
L 113.516488 -57.71819 
L 113.495568 -57.391271 
L 113.490936 -57.064351 
L 113.490126 -56.737432 
L 113.490013 -56.410513 
L 113.490001 -56.083593 
L 113.49 -55.756674 
L 113.49 -55.429754 
L 113.49 -55.102835 
L 113.49 -54.775916 
L 113.49 -54.448996 
L 113.49 -54.122077 
L 113.49 -53.795157 
L 113.49 -53.468238 
L 113.49 -53.141319 
L 113.49 -52.814399 
L 113.49 -52.48748 
L 113.49 -52.16056 
L 113.49 -51.833641 
L 113.49 -51.506722 
L 113.49 -51.179802 
L 113.49 -50.852883 
L 113.49 -50.525964 
L 113.49 -50.199044 
L 113.49 -49.872125 
L 113.49 -49.545205 
L 113.49 -49.218286 
L 113.49 -48.891367 
L 113.49 -48.564447 
L 113.49 -48.237528 
L 113.49 -47.910608 
L 113.49 -47.583689 
L 113.49 -47.25677 
L 113.49 -46.92985 
L 113.49 -46.602931 
L 113.49 -46.276011 
L 113.49 -45.949092 
L 113.49 -45.622173 
L 113.49 -45.295253 
L 113.49 -44.968334 
L 113.49 -44.641414 
L 113.49 -44.314495 
L 113.49 -43.987576 
L 113.49 -43.660656 
L 113.49 -43.333737 
L 113.490002 -43.006817 
L 113.490017 -42.679898 
L 113.490157 -42.352979 
L 113.491127 -42.026059 
L 113.49645 -41.69914 
L 113.519377 -41.37222 
L 113.596454 -41.045301 
L 113.797009 -40.718382 
L 114.195237 -40.391462 
L 114.783546 -40.064543 
L 115.397958 -39.737623 
L 115.798528 -39.410704 
L 115.902193 -39.083785 
L 115.90924 -38.756865 
L 116.130494 -38.429946 
L 116.721823 -38.103026 
L 117.655453 -37.776107 
L 118.881344 -37.449188 
L 120.37902 -37.122268 
L 122.066399 -36.795349 
L 123.797586 -36.468429 
L 125.497755 -36.14151 
L 127.236408 -35.814591 
L 129.137506 -35.487671 
L 131.230298 -35.160752 
L 133.344555 -34.833833 
L 135.065801 -34.506913 
L 135.81 -34.179994 
L 135.098139 -33.853074 
L 132.871744 -33.526155 
L 129.54353 -33.199236 
L 125.796015 -32.872316 
L 122.378657 -32.545397 
L 119.934532 -32.218477 
L 118.829813 -31.891558 
L 119.127875 -31.564639 
L 120.639861 -31.237719 
L 122.81838 -30.9108 
L 124.713032 -30.58388 
L 125.410048 -30.256961 
L 124.697043 -29.930042 
L 123.198579 -29.603122 
L 121.78589 -29.276203 
L 120.873845 -28.949283 
L 120.251348 -28.622364 
L 119.465084 -28.295445 
L 118.283543 -27.968525 
z
" style="stroke: #434343; stroke-width: 0.5"/>
    </defs>
    <g clip-path="url(#p9e04e242ce)">
     <use xlink:href="#m8c8f3d606c" x="0" y="144" style="fill: #d1c3a4; stroke: #434343; stroke-width: 0.5"/>
    </g>
   </g>
   <g id="FillBetweenPolyCollection_5">
    <defs>
     <path id="m5a2c4893a0" d="M 163.71 -24.938444 
L 160.072414 -24.938444 
L 159.189178 -25.915632 
L 158.071968 -26.892819 
L 156.390234 -27.870006 
L 153.851992 -28.847194 
L 150.469961 -29.824381 
L 146.733818 -30.801569 
L 143.502833 -31.778756 
L 141.606603 -32.755944 
L 141.39 -33.733131 
L 142.536608 -34.710318 
L 144.323656 -35.687506 
L 146.124363 -36.664693 
L 147.770769 -37.641881 
L 149.512881 -38.619068 
L 151.655898 -39.596256 
L 154.210769 -40.573443 
L 156.83341 -41.55063 
L 159.048146 -42.527818 
L 160.536047 -43.505005 
L 161.281192 -44.482193 
L 161.523069 -45.45938 
L 161.592546 -46.436568 
L 161.74409 -47.413755 
L 162.067707 -48.390943 
L 162.506502 -49.36813 
L 162.943255 -50.345317 
L 163.28661 -51.322505 
L 163.507573 -52.299692 
L 163.626232 -53.27688 
L 163.68 -54.254067 
L 163.700702 -55.231255 
L 163.707506 -56.208442 
L 163.709421 -57.185629 
L 163.709884 -58.162817 
L 163.70998 -59.140004 
L 163.709997 -60.117192 
L 163.71 -61.094379 
L 163.71 -62.071567 
L 163.71 -63.048754 
L 163.71 -64.025941 
L 163.71 -65.003129 
L 163.71 -65.980316 
L 163.71 -66.957504 
L 163.71 -67.934691 
L 163.71 -68.911879 
L 163.709999 -69.889066 
L 163.70999 -70.866253 
L 163.70994 -71.843441 
L 163.709684 -72.820628 
L 163.708559 -73.797816 
L 163.704319 -74.775003 
L 163.690615 -75.752191 
L 163.652754 -76.729378 
L 163.563709 -77.706566 
L 163.386481 -78.683753 
L 163.090863 -79.66094 
L 162.684631 -80.638128 
L 162.240465 -81.615315 
L 161.887422 -82.592503 
L 161.753865 -83.56969 
L 161.893152 -84.546878 
L 162.249664 -85.524065 
L 162.694086 -86.501252 
L 163.097684 -87.47844 
L 163.387645 -88.455627 
L 163.552393 -89.432815 
L 163.609908 -90.410002 
L 163.57068 -91.38719 
L 163.417649 -92.364377 
L 163.111166 -93.341564 
L 162.618246 -94.318752 
L 161.955104 -95.295939 
L 161.217982 -96.273127 
L 160.573853 -97.250314 
L 160.203147 -98.227502 
L 160.220752 -99.204689 
L 160.621055 -100.181876 
L 161.280691 -101.159064 
L 162.017327 -102.136251 
L 162.668622 -103.113439 
L 163.146317 -104.090626 
L 163.442465 -105.067814 
L 163.598991 -106.045001 
L 163.66983 -107.022189 
L 163.697347 -107.999376 
L 163.706527 -108.976563 
L 163.709118 -109.953751 
L 163.70952 -110.930938 
L 163.708552 -111.908126 
L 163.704394 -112.885313 
L 163.690857 -113.862501 
L 163.653382 -114.839688 
L 163.565084 -115.816875 
L 163.389018 -116.794063 
L 163.094749 -117.77125 
L 162.689459 -118.748438 
L 162.245077 -119.725625 
L 161.890276 -120.702813 
L 161.753849 -121.68 
L 163.71 -121.68 
L 163.71 -121.68 
L 163.71 -120.702813 
L 163.71 -119.725625 
L 163.71 -118.748438 
L 163.71 -117.77125 
L 163.71 -116.794063 
L 163.71 -115.816875 
L 163.71 -114.839688 
L 163.71 -113.862501 
L 163.71 -112.885313 
L 163.71 -111.908126 
L 163.71 -110.930938 
L 163.71 -109.953751 
L 163.71 -108.976563 
L 163.71 -107.999376 
L 163.71 -107.022189 
L 163.71 -106.045001 
L 163.71 -105.067814 
L 163.71 -104.090626 
L 163.71 -103.113439 
L 163.71 -102.136251 
L 163.71 -101.159064 
L 163.71 -100.181876 
L 163.71 -99.204689 
L 163.71 -98.227502 
L 163.71 -97.250314 
L 163.71 -96.273127 
L 163.71 -95.295939 
L 163.71 -94.318752 
L 163.71 -93.341564 
L 163.71 -92.364377 
L 163.71 -91.38719 
L 163.71 -90.410002 
L 163.71 -89.432815 
L 163.71 -88.455627 
L 163.71 -87.47844 
L 163.71 -86.501252 
L 163.71 -85.524065 
L 163.71 -84.546878 
L 163.71 -83.56969 
L 163.71 -82.592503 
L 163.71 -81.615315 
L 163.71 -80.638128 
L 163.71 -79.66094 
L 163.71 -78.683753 
L 163.71 -77.706566 
L 163.71 -76.729378 
L 163.71 -75.752191 
L 163.71 -74.775003 
L 163.71 -73.797816 
L 163.71 -72.820628 
L 163.71 -71.843441 
L 163.71 -70.866253 
L 163.71 -69.889066 
L 163.71 -68.911879 
L 163.71 -67.934691 
L 163.71 -66.957504 
L 163.71 -65.980316 
L 163.71 -65.003129 
L 163.71 -64.025941 
L 163.71 -63.048754 
L 163.71 -62.071567 
L 163.71 -61.094379 
L 163.71 -60.117192 
L 163.71 -59.140004 
L 163.71 -58.162817 
L 163.71 -57.185629 
L 163.71 -56.208442 
L 163.71 -55.231255 
L 163.71 -54.254067 
L 163.71 -53.27688 
L 163.71 -52.299692 
L 163.71 -51.322505 
L 163.71 -50.345317 
L 163.71 -49.36813 
L 163.71 -48.390943 
L 163.71 -47.413755 
L 163.71 -46.436568 
L 163.71 -45.45938 
L 163.71 -44.482193 
L 163.71 -43.505005 
L 163.71 -42.527818 
L 163.71 -41.55063 
L 163.71 -40.573443 
L 163.71 -39.596256 
L 163.71 -38.619068 
L 163.71 -37.641881 
L 163.71 -36.664693 
L 163.71 -35.687506 
L 163.71 -34.710318 
L 163.71 -33.733131 
L 163.71 -32.755944 
L 163.71 -31.778756 
L 163.71 -30.801569 
L 163.71 -29.824381 
L 163.71 -28.847194 
L 163.71 -27.870006 
L 163.71 -26.892819 
L 163.71 -25.915632 
L 163.71 -24.938444 
z
" style="stroke: #434343; stroke-width: 0.5"/>
    </defs>
    <g clip-path="url(#p9e04e242ce)">
     <use xlink:href="#m5a2c4893a0" x="0" y="144" style="fill: #dedeb7; stroke: #434343; stroke-width: 0.5"/>
    </g>
   </g>
   <g id="FillBetweenPolyCollection_6">
    <defs>
     <path id="m92f5dbb9a6" d="M 179.783192 -30.722728 
L 169.29 -30.722728 
L 169.29 -31.239738 
L 169.29 -31.756748 
L 169.29 -32.273758 
L 169.29 -32.790768 
L 169.29 -33.307779 
L 169.29 -33.824789 
L 169.29 -34.341799 
L 169.29 -34.858809 
L 169.29 -35.375819 
L 169.29 -35.892829 
L 169.29 -36.409839 
L 169.29 -36.926849 
L 169.29 -37.443859 
L 169.29 -37.96087 
L 169.29 -38.47788 
L 169.29 -38.99489 
L 169.29 -39.5119 
L 169.29 -40.02891 
L 169.29 -40.54592 
L 169.29 -41.06293 
L 169.29 -41.57994 
L 169.29 -42.096951 
L 169.29 -42.613961 
L 169.29 -43.130971 
L 169.29 -43.647981 
L 169.29 -44.164991 
L 169.29 -44.682001 
L 169.29 -45.199011 
L 169.29 -45.716021 
L 169.29 -46.233032 
L 169.29 -46.750042 
L 169.29 -47.267052 
L 169.29 -47.784062 
L 169.29 -48.301072 
L 169.29 -48.818082 
L 169.29 -49.335092 
L 169.29 -49.852102 
L 169.29 -50.369113 
L 169.29 -50.886123 
L 169.29 -51.403133 
L 169.29 -51.920143 
L 169.29 -52.437153 
L 169.29 -52.954163 
L 169.29 -53.471173 
L 169.29 -53.988183 
L 169.29 -54.505193 
L 169.29 -55.022204 
L 169.29 -55.539214 
L 169.29 -56.056224 
L 169.29 -56.573234 
L 169.29 -57.090244 
L 169.29 -57.607254 
L 169.29 -58.124264 
L 169.29 -58.641274 
L 169.29 -59.158285 
L 169.29 -59.675295 
L 169.29 -60.192305 
L 169.29 -60.709315 
L 169.29 -61.226325 
L 169.29 -61.743335 
L 169.29 -62.260345 
L 169.29 -62.777355 
L 169.29 -63.294366 
L 169.29 -63.811376 
L 169.29 -64.328386 
L 169.29 -64.845396 
L 169.29 -65.362406 
L 169.29 -65.879416 
L 169.29 -66.396426 
L 169.29 -66.913436 
L 169.29 -67.430447 
L 169.29 -67.947457 
L 169.29 -68.464467 
L 169.29 -68.981477 
L 169.29 -69.498487 
L 169.29 -70.015497 
L 169.29 -70.532507 
L 169.29 -71.049517 
L 169.29 -71.566528 
L 169.29 -72.083538 
L 169.29 -72.600548 
L 169.29 -73.117558 
L 169.29 -73.634568 
L 169.29 -74.151578 
L 169.29 -74.668588 
L 169.29 -75.185598 
L 169.29 -75.702608 
L 169.29 -76.219619 
L 169.29 -76.736629 
L 169.29 -77.253639 
L 169.29 -77.770649 
L 169.29 -78.287659 
L 169.29 -78.804669 
L 169.29 -79.321679 
L 169.29 -79.838689 
L 169.29 -80.3557 
L 169.29 -80.87271 
L 169.29 -81.38972 
L 169.29 -81.90673 
L 172.370194 -81.90673 
L 172.370194 -81.90673 
L 172.117039 -81.38972 
L 171.475711 -80.87271 
L 170.713511 -80.3557 
L 170.070977 -79.838689 
L 169.650952 -79.321679 
L 169.430684 -78.804669 
L 169.337074 -78.287659 
L 169.307534 -77.770649 
L 169.31251 -77.253639 
L 169.357579 -76.736629 
L 169.483545 -76.219619 
L 169.760635 -75.702608 
L 170.255041 -75.185598 
L 170.959644 -74.668588 
L 171.733849 -74.151578 
L 172.337588 -73.634568 
L 172.586019 -73.117558 
L 172.50968 -72.600548 
L 172.346178 -72.083538 
L 172.333289 -71.566528 
L 172.488085 -71.049517 
L 172.590809 -70.532507 
L 172.389811 -70.015497 
L 171.82354 -69.498487 
L 171.05676 -68.981477 
L 170.332895 -68.464467 
L 169.809518 -67.947457 
L 169.508154 -67.430447 
L 169.367186 -66.913436 
L 169.313007 -66.396426 
L 169.295777 -65.879416 
L 169.291222 -65.362406 
L 169.290218 -64.845396 
L 169.290033 -64.328386 
L 169.290004 -63.811376 
L 169.29 -63.294366 
L 169.290001 -62.777355 
L 169.290005 -62.260345 
L 169.290037 -61.743335 
L 169.290243 -61.226325 
L 169.291349 -60.709315 
L 169.296312 -60.192305 
L 169.314877 -59.675295 
L 169.372591 -59.158285 
L 169.520987 -58.641274 
L 169.834208 -58.124264 
L 170.370214 -57.607254 
L 171.097025 -57.090244 
L 171.840492 -56.573234 
L 172.33924 -56.056224 
L 172.419065 -55.539214 
L 172.163915 -55.022204 
L 171.920993 -54.505193 
L 172.100245 -53.988183 
L 172.889772 -53.471173 
L 174.074694 -52.954163 
L 175.104161 -52.437153 
L 175.40976 -51.920143 
L 174.772687 -51.403133 
L 173.449205 -50.886123 
L 171.957653 -50.369113 
L 170.736074 -49.852102 
L 169.953236 -49.335092 
L 169.551425 -48.818082 
L 169.395126 -48.301072 
L 169.38713 -47.784062 
L 169.513455 -47.267052 
L 169.842255 -46.750042 
L 170.498626 -46.233032 
L 171.62393 -45.716021 
L 173.337897 -45.199011 
L 175.717335 -44.682001 
L 178.758558 -44.164991 
L 182.280898 -43.647981 
L 185.842211 -43.130971 
L 188.836648 -42.613961 
L 190.793019 -42.096951 
L 191.61 -41.57994 
L 191.485491 -41.06293 
L 190.667217 -40.54592 
L 189.34796 -40.02891 
L 187.763622 -39.5119 
L 186.244306 -38.99489 
L 185.075472 -38.47788 
L 184.346771 -37.96087 
L 183.995016 -37.443859 
L 183.952959 -36.926849 
L 184.161781 -36.409839 
L 184.434716 -35.892829 
L 184.42041 -35.375819 
L 183.807207 -34.858809 
L 182.592418 -34.341799 
L 181.149993 -33.824789 
L 180.032481 -33.307779 
L 179.648399 -32.790768 
L 179.996722 -32.273758 
L 180.59965 -31.756748 
L 180.717514 -31.239738 
L 179.783192 -30.722728 
z
" style="stroke: #434343; stroke-width: 0.5"/>
    </defs>
    <g clip-path="url(#p9e04e242ce)">
     <use xlink:href="#m92f5dbb9a6" x="0" y="144" style="fill: #c1a390; stroke: #434343; stroke-width: 0.5"/>
    </g>
   </g>
   <g id="matplotlib.axis_1">
    <g id="xtick_1">
     <g id="line2d_1">
      <defs>
       <path id="m4c1daa37fe" d="M 0 0 
L 0 -3 
" style="stroke: #000000; stroke-width: 0.5"/>
      </defs>
      <g>
       <use xlink:href="#m4c1daa37fe" x="40.95" y="128.16" style="stroke: #000000; stroke-width: 0.5"/>
      </g>
     </g>
     <g id="text_1">
      <text style="font-size: 7px; font-family: 'DejaVu Sans', 'Bitstream Vera Sans', 'Computer Modern Sans Serif', 'Lucida Grande', 'Verdana', 'Geneva', 'Lucid', 'Arial', 'Helvetica', 'Avant Garde', sans-serif" transform="translate(27.240938 136.978906)">AcGum,</text>
      <text style="font-size: 7px; font-family: 'DejaVu Sans', 'Bitstream Vera Sans', 'Computer Modern Sans Serif', 'Lucida Grande', 'Verdana', 'Geneva', 'Lucid', 'Arial', 'Helvetica', 'Avant Garde', sans-serif" transform="translate(28.006016 144.817375)"> n=252</text>
     </g>
    </g>
    <g id="xtick_2">
     <g id="line2d_2">
      <g>
       <use xlink:href="#m4c1daa37fe" x="68.85" y="128.16" style="stroke: #000000; stroke-width: 0.5"/>
      </g>
     </g>
     <g id="text_2">
      <text style="font-size: 7px; font-family: 'DejaVu Sans', 'Bitstream Vera Sans', 'Computer Modern Sans Serif', 'Lucida Grande', 'Verdana', 'Geneva', 'Lucid', 'Arial', 'Helvetica', 'Avant Garde', sans-serif" transform="translate(57.933281 136.978906)">Xylan,</text>
      <text style="font-size: 7px; font-family: 'DejaVu Sans', 'Bitstream Vera Sans', 'Computer Modern Sans Serif', 'Lucida Grande', 'Verdana', 'Geneva', 'Lucid', 'Arial', 'Helvetica', 'Avant Garde', sans-serif" transform="translate(55.906016 144.817375)"> n=335</text>
     </g>
    </g>
    <g id="xtick_3">
     <g id="line2d_3">
      <g>
       <use xlink:href="#m4c1daa37fe" x="96.75" y="128.16" style="stroke: #000000; stroke-width: 0.5"/>
      </g>
     </g>
     <g id="text_3">
      <text style="font-size: 7px; font-family: 'DejaVu Sans', 'Bitstream Vera Sans', 'Computer Modern Sans Serif', 'Lucida Grande', 'Verdana', 'Geneva', 'Lucid', 'Arial', 'Helvetica', 'Avant Garde', sans-serif" transform="translate(85.975469 136.978906)">ArGal,</text>
      <text style="font-size: 7px; font-family: 'DejaVu Sans', 'Bitstream Vera Sans', 'Computer Modern Sans Serif', 'Lucida Grande', 'Verdana', 'Geneva', 'Lucid', 'Arial', 'Helvetica', 'Avant Garde', sans-serif" transform="translate(83.806016 144.817375)"> n=271</text>
     </g>
    </g>
    <g id="xtick_4">
     <g id="line2d_4">
      <g>
       <use xlink:href="#m4c1daa37fe" x="124.65" y="128.16" style="stroke: #000000; stroke-width: 0.5"/>
      </g>
     </g>
     <g id="text_4">
      <text style="font-size: 7px; font-family: 'DejaVu Sans', 'Bitstream Vera Sans', 'Computer Modern Sans Serif', 'Lucida Grande', 'Verdana', 'Geneva', 'Lucid', 'Arial', 'Helvetica', 'Avant Garde', sans-serif" transform="translate(112.913516 136.978906)">Pectin,</text>
      <text style="font-size: 7px; font-family: 'DejaVu Sans', 'Bitstream Vera Sans', 'Computer Modern Sans Serif', 'Lucida Grande', 'Verdana', 'Geneva', 'Lucid', 'Arial', 'Helvetica', 'Avant Garde', sans-serif" transform="translate(111.706016 144.817375)"> n=539</text>
     </g>
    </g>
    <g id="xtick_5">
     <g id="line2d_5">
      <g>
       <use xlink:href="#m4c1daa37fe" x="152.55" y="128.16" style="stroke: #000000; stroke-width: 0.5"/>
      </g>
     </g>
     <g id="text_5">
      <text style="font-size: 7px; font-family: 'DejaVu Sans', 'Bitstream Vera Sans', 'Computer Modern Sans Serif', 'Lucida Grande', 'Verdana', 'Geneva', 'Lucid', 'Arial', 'Helvetica', 'Avant Garde', sans-serif" transform="translate(140.196094 136.978906)">Starch,</text>
      <text style="font-size: 7px; font-family: 'DejaVu Sans', 'Bitstream Vera Sans', 'Computer Modern Sans Serif', 'Lucida Grande', 'Verdana', 'Geneva', 'Lucid', 'Arial', 'Helvetica', 'Avant Garde', sans-serif" transform="translate(139.606016 144.817375)"> n=392</text>
     </g>
    </g>
    <g id="xtick_6">
     <g id="line2d_6">
      <g>
       <use xlink:href="#m4c1daa37fe" x="180.45" y="128.16" style="stroke: #000000; stroke-width: 0.5"/>
      </g>
     </g>
     <g id="text_6">
      <text style="font-size: 7px; font-family: 'DejaVu Sans', 'Bitstream Vera Sans', 'Computer Modern Sans Serif', 'Lucida Grande', 'Verdana', 'Geneva', 'Lucid', 'Arial', 'Helvetica', 'Avant Garde', sans-serif" transform="translate(169.706094 136.978906)">Inulin,</text>
      <text style="font-size: 7px; font-family: 'DejaVu Sans', 'Bitstream Vera Sans', 'Computer Modern Sans Serif', 'Lucida Grande', 'Verdana', 'Geneva', 'Lucid', 'Arial', 'Helvetica', 'Avant Garde', sans-serif" transform="translate(167.506016 144.817375)"> n=673</text>
     </g>
    </g>
   </g>
   <g id="matplotlib.axis_2">
    <g id="ytick_1">
     <g id="line2d_7">
      <defs>
       <path id="m674865a5e5" d="M 0 0 
L 3 0 
" style="stroke: #000000; stroke-width: 0.5"/>
      </defs>
      <g>
       <use xlink:href="#m674865a5e5" x="27" y="111.615437" style="stroke: #000000; stroke-width: 0.5"/>
      </g>
     </g>
     <g id="text_7">
      <text style="font-size: 7px; font-family: 'DejaVu Sans', 'Bitstream Vera Sans', 'Computer Modern Sans Serif', 'Lucida Grande', 'Verdana', 'Geneva', 'Lucid', 'Arial', 'Helvetica', 'Avant Garde', sans-serif; text-anchor: end" x="23.5" y="114.274891" transform="rotate(-0 23.5 114.274891)">0.00</text>
     </g>
    </g>
    <g id="ytick_2">
     <g id="line2d_8">
      <g>
       <use xlink:href="#m674865a5e5" x="27" y="84.258138" style="stroke: #000000; stroke-width: 0.5"/>
      </g>
     </g>
     <g id="text_8">
      <text style="font-size: 7px; font-family: 'DejaVu Sans', 'Bitstream Vera Sans', 'Computer Modern Sans Serif', 'Lucida Grande', 'Verdana', 'Geneva', 'Lucid', 'Arial', 'Helvetica', 'Avant Garde', sans-serif; text-anchor: end" x="23.5" y="86.917591" transform="rotate(-0 23.5 86.917591)">0.01</text>
     </g>
    </g>
    <g id="ytick_3">
     <g id="line2d_9">
      <g>
       <use xlink:href="#m674865a5e5" x="27" y="56.900839" style="stroke: #000000; stroke-width: 0.5"/>
      </g>
     </g>
     <g id="text_9">
      <text style="font-size: 7px; font-family: 'DejaVu Sans', 'Bitstream Vera Sans', 'Computer Modern Sans Serif', 'Lucida Grande', 'Verdana', 'Geneva', 'Lucid', 'Arial', 'Helvetica', 'Avant Garde', sans-serif; text-anchor: end" x="23.5" y="59.560292" transform="rotate(-0 23.5 59.560292)">0.02</text>
     </g>
    </g>
    <g id="ytick_4">
     <g id="line2d_10">
      <g>
       <use xlink:href="#m674865a5e5" x="27" y="29.543539" style="stroke: #000000; stroke-width: 0.5"/>
      </g>
     </g>
     <g id="text_10">
      <text style="font-size: 7px; font-family: 'DejaVu Sans', 'Bitstream Vera Sans', 'Computer Modern Sans Serif', 'Lucida Grande', 'Verdana', 'Geneva', 'Lucid', 'Arial', 'Helvetica', 'Avant Garde', sans-serif; text-anchor: end" x="23.5" y="32.202992" transform="rotate(-0 23.5 32.202992)">0.03</text>
     </g>
    </g>
    <g id="text_11">
     <text style="font-size: 7px; font-family: 'DejaVu Sans', 'Bitstream Vera Sans', 'Computer Modern Sans Serif', 'Lucida Grande', 'Verdana', 'Geneva', 'Lucid', 'Arial', 'Helvetica', 'Avant Garde', sans-serif; text-anchor: middle" x="2.458281" y="72.72" transform="rotate(-90 2.458281 72.72)">SHAP value</text>
    </g>
   </g>
   <g id="line2d_11">
    <path d="M 27 111.615437 
L 194.4 111.615437 
" clip-path="url(#p9e04e242ce)" style="fill: none; stroke: #000000; stroke-opacity: 0.5; stroke-linecap: square"/>
   </g>
   <g id="patch_3">
    <path d="M 27 128.16 
L 27 17.28 
" style="fill: none; stroke: #000000; stroke-width: 0.5; stroke-linejoin: miter; stroke-linecap: square"/>
   </g>
   <g id="patch_4">
    <path d="M 194.4 128.16 
L 194.4 17.28 
" style="fill: none; stroke: #000000; stroke-width: 0.5; stroke-linejoin: miter; stroke-linecap: square"/>
   </g>
   <g id="patch_5">
    <path d="M 27 128.16 
L 194.4 128.16 
" style="fill: none; stroke: #000000; stroke-width: 0.5; stroke-linejoin: miter; stroke-linecap: square"/>
   </g>
   <g id="patch_6">
    <path d="M 27 17.28 
L 194.4 17.28 
" style="fill: none; stroke: #000000; stroke-width: 0.5; stroke-linejoin: miter; stroke-linecap: square"/>
   </g>
  </g>
 </g>
 <defs>
  <clipPath id="p9e04e242ce">
   <rect x="27" y="17.28" width="167.4" height="110.88"/>
  </clipPath>
 </defs>
</svg>
