<?xml version="1.0" encoding="utf-8" standalone="no"?>
<!DOCTYPE svg PUBLIC "-//W3C//DTD SVG 1.1//EN"
  "http://www.w3.org/Graphics/SVG/1.1/DTD/svg11.dtd">
<svg xmlns:xlink="http://www.w3.org/1999/xlink" width="540pt" height="144pt" viewBox="0 0 540 144" xmlns="http://www.w3.org/2000/svg" version="1.1">
 <metadata>
  <rdf:RDF xmlns:dc="http://purl.org/dc/elements/1.1/" xmlns:cc="http://creativecommons.org/ns#" xmlns:rdf="http://www.w3.org/1999/02/22-rdf-syntax-ns#">
   <cc:Work>
    <dc:type rdf:resource="http://purl.org/dc/dcmitype/StillImage"/>
    <dc:date>2025-08-17T18:20:03.037734</dc:date>
    <dc:format>image/svg+xml</dc:format>
    <dc:creator>
     <cc:Agent>
      <dc:title>Matplotlib v3.10.1, https://matplotlib.org/</dc:title>
     </cc:Agent>
    </dc:creator>
   </cc:Work>
  </rdf:RDF>
 </metadata>
 <defs>
  <style type="text/css">*{stroke-linejoin: round; stroke-linecap: butt}</style>
 </defs>
 <g id="figure_1">
  <g id="patch_1">
   <path d="M 0 144 
L 540 144 
L 540 0 
L 0 0 
z
" style="fill: #ffffff"/>
  </g>
  <g id="axes_1">
   <g id="patch_2">
    <path d="M 67.5 128.16 
L 486 128.16 
L 486 17.28 
L 67.5 17.28 
z
" style="fill: #ffffff"/>
   </g>
   <g id="FillBetweenPolyCollection_1">
    <defs>
     <path id="m6547f7e3d4" d="M 92.61 -26.127239 
L 85.650762 -26.127239 
L 86.268529 -26.452927 
L 87.811837 -26.778615 
L 89.59549 -27.104303 
L 91.037411 -27.429991 
L 91.928807 -27.755679 
L 92.364991 -28.081367 
L 92.536827 -28.407056 
L 92.591854 -28.732744 
L 92.606264 -29.058432 
L 92.609361 -29.38412 
L 92.609909 -29.709808 
L 92.609989 -30.035496 
L 92.609999 -30.361185 
L 92.61 -30.686873 
L 92.61 -31.012561 
L 92.61 -31.338249 
L 92.61 -31.663937 
L 92.61 -31.989625 
L 92.61 -32.315314 
L 92.61 -32.641002 
L 92.61 -32.96669 
L 92.61 -33.292378 
L 92.61 -33.618066 
L 92.609999 -33.943754 
L 92.609993 -34.269442 
L 92.609937 -34.595131 
L 92.609538 -34.920819 
L 92.607212 -35.246507 
L 92.596017 -35.572195 
L 92.551768 -35.897883 
L 92.408633 -36.223571 
L 92.031806 -36.54926 
L 91.231465 -36.874948 
L 89.88086 -37.200636 
L 88.123309 -37.526324 
L 86.483019 -37.852012 
L 85.650499 -38.1777 
L 85.993343 -38.503389 
L 87.195313 -38.829077 
L 88.355628 -39.154765 
L 88.437401 -39.480453 
L 86.7369 -39.806141 
L 83.219714 -40.131829 
L 78.656699 -40.457517 
L 74.357714 -40.783206 
L 71.46204 -41.108894 
L 70.29 -41.434582 
L 70.392058 -41.76027 
L 71.214743 -42.085958 
L 72.574056 -42.411646 
L 74.401575 -42.737335 
L 76.223776 -43.063023 
L 77.253674 -43.388711 
L 77.175559 -43.714399 
L 76.661227 -44.040087 
L 76.825175 -44.365775 
L 78.136252 -44.691463 
L 80.04171 -45.017152 
L 81.674154 -45.34284 
L 82.686882 -45.668528 
L 83.274027 -45.994216 
L 83.614544 -46.319904 
L 83.608107 -46.645592 
L 83.126086 -46.971281 
L 82.230695 -47.296969 
L 81.046772 -47.622657 
L 79.659131 -47.948345 
L 78.348631 -48.274033 
L 77.783676 -48.599721 
L 78.661999 -48.92541 
L 81.041581 -49.251098 
L 84.104057 -49.576786 
L 86.634877 -49.902474 
L 87.772033 -50.228162 
L 87.458617 -50.55385 
L 86.402474 -50.879538 
L 85.630689 -51.205227 
L 85.873837 -51.530915 
L 87.162978 -51.856603 
L 88.936482 -52.182291 
L 90.514587 -52.507979 
L 91.474986 -52.833667 
L 91.652306 -53.159356 
L 90.915434 -53.485044 
L 89.074356 -53.810732 
L 86.116237 -54.13642 
L 82.604235 -54.462108 
L 79.75311 -54.787796 
L 78.84216 -55.113485 
L 80.321838 -55.439173 
L 83.458103 -55.764861 
L 86.878203 -56.090549 
L 89.444121 -56.416237 
L 90.672729 -56.741925 
L 90.587447 -57.067613 
L 89.46123 -57.393302 
L 87.778474 -57.71899 
L 86.261626 -58.044678 
L 85.649573 -58.370366 
L 92.61 -58.370366 
L 92.61 -58.370366 
L 92.61 -58.044678 
L 92.61 -57.71899 
L 92.61 -57.393302 
L 92.61 -57.067613 
L 92.61 -56.741925 
L 92.61 -56.416237 
L 92.61 -56.090549 
L 92.61 -55.764861 
L 92.61 -55.439173 
L 92.61 -55.113485 
L 92.61 -54.787796 
L 92.61 -54.462108 
L 92.61 -54.13642 
L 92.61 -53.810732 
L 92.61 -53.485044 
L 92.61 -53.159356 
L 92.61 -52.833667 
L 92.61 -52.507979 
L 92.61 -52.182291 
L 92.61 -51.856603 
L 92.61 -51.530915 
L 92.61 -51.205227 
L 92.61 -50.879538 
L 92.61 -50.55385 
L 92.61 -50.228162 
L 92.61 -49.902474 
L 92.61 -49.576786 
L 92.61 -49.251098 
L 92.61 -48.92541 
L 92.61 -48.599721 
L 92.61 -48.274033 
L 92.61 -47.948345 
L 92.61 -47.622657 
L 92.61 -47.296969 
L 92.61 -46.971281 
L 92.61 -46.645592 
L 92.61 -46.319904 
L 92.61 -45.994216 
L 92.61 -45.668528 
L 92.61 -45.34284 
L 92.61 -45.017152 
L 92.61 -44.691463 
L 92.61 -44.365775 
L 92.61 -44.040087 
L 92.61 -43.714399 
L 92.61 -43.388711 
L 92.61 -43.063023 
L 92.61 -42.737335 
L 92.61 -42.411646 
L 92.61 -42.085958 
L 92.61 -41.76027 
L 92.61 -41.434582 
L 92.61 -41.108894 
L 92.61 -40.783206 
L 92.61 -40.457517 
L 92.61 -40.131829 
L 92.61 -39.806141 
L 92.61 -39.480453 
L 92.61 -39.154765 
L 92.61 -38.829077 
L 92.61 -38.503389 
L 92.61 -38.1777 
L 92.61 -37.852012 
L 92.61 -37.526324 
L 92.61 -37.200636 
L 92.61 -36.874948 
L 92.61 -36.54926 
L 92.61 -36.223571 
L 92.61 -35.897883 
L 92.61 -35.572195 
L 92.61 -35.246507 
L 92.61 -34.920819 
L 92.61 -34.595131 
L 92.61 -34.269442 
L 92.61 -33.943754 
L 92.61 -33.618066 
L 92.61 -33.292378 
L 92.61 -32.96669 
L 92.61 -32.641002 
L 92.61 -32.315314 
L 92.61 -31.989625 
L 92.61 -31.663937 
L 92.61 -31.338249 
L 92.61 -31.012561 
L 92.61 -30.686873 
L 92.61 -30.361185 
L 92.61 -30.035496 
L 92.61 -29.709808 
L 92.61 -29.38412 
L 92.61 -29.058432 
L 92.61 -28.732744 
L 92.61 -28.407056 
L 92.61 -28.081367 
L 92.61 -27.755679 
L 92.61 -27.429991 
L 92.61 -27.104303 
L 92.61 -26.778615 
L 92.61 -26.452927 
L 92.61 -26.127239 
z
" style="stroke: #1a1a1a; stroke-width: 0.5"/>
    </defs>
    <g clip-path="url(#pb40c91e473)">
     <use xlink:href="#m6547f7e3d4" x="0" y="144" style="fill: #c02fe1; stroke: #1a1a1a; stroke-width: 0.5"/>
    </g>
   </g>
   <g id="FillBetweenPolyCollection_2">
    <defs>
     <path id="m2c63b087ff" d="M 102.950174 -32.888174 
L 98.19 -32.888174 
L 98.19 -33.252159 
L 98.19 -33.616144 
L 98.19 -33.980129 
L 98.19 -34.344114 
L 98.19 -34.708099 
L 98.19 -35.072084 
L 98.19 -35.436069 
L 98.19 -35.800053 
L 98.19 -36.164038 
L 98.19 -36.528023 
L 98.19 -36.892008 
L 98.19 -37.255993 
L 98.19 -37.619978 
L 98.19 -37.983963 
L 98.19 -38.347948 
L 98.19 -38.711933 
L 98.19 -39.075918 
L 98.19 -39.439903 
L 98.19 -39.803888 
L 98.19 -40.167873 
L 98.19 -40.531858 
L 98.19 -40.895843 
L 98.19 -41.259828 
L 98.19 -41.623812 
L 98.19 -41.987797 
L 98.19 -42.351782 
L 98.19 -42.715767 
L 98.19 -43.079752 
L 98.19 -43.443737 
L 98.19 -43.807722 
L 98.19 -44.171707 
L 98.19 -44.535692 
L 98.19 -44.899677 
L 98.19 -45.263662 
L 98.19 -45.627647 
L 98.19 -45.991632 
L 98.19 -46.355617 
L 98.19 -46.719602 
L 98.19 -47.083587 
L 98.19 -47.447571 
L 98.19 -47.811556 
L 98.19 -48.175541 
L 98.19 -48.539526 
L 98.19 -48.903511 
L 98.19 -49.267496 
L 98.19 -49.631481 
L 98.19 -49.995466 
L 98.19 -50.359451 
L 98.19 -50.723436 
L 98.19 -51.087421 
L 98.19 -51.451406 
L 98.19 -51.815391 
L 98.19 -52.179376 
L 98.19 -52.543361 
L 98.19 -52.907346 
L 98.19 -53.27133 
L 98.19 -53.635315 
L 98.19 -53.9993 
L 98.19 -54.363285 
L 98.19 -54.72727 
L 98.19 -55.091255 
L 98.19 -55.45524 
L 98.19 -55.819225 
L 98.19 -56.18321 
L 98.19 -56.547195 
L 98.19 -56.91118 
L 98.19 -57.275165 
L 98.19 -57.63915 
L 98.19 -58.003135 
L 98.19 -58.36712 
L 98.19 -58.731105 
L 98.19 -59.09509 
L 98.19 -59.459074 
L 98.19 -59.823059 
L 98.19 -60.187044 
L 98.19 -60.551029 
L 98.19 -60.915014 
L 98.19 -61.278999 
L 98.19 -61.642984 
L 98.19 -62.006969 
L 98.19 -62.370954 
L 98.19 -62.734939 
L 98.19 -63.098924 
L 98.19 -63.462909 
L 98.19 -63.826894 
L 98.19 -64.190879 
L 98.19 -64.554864 
L 98.19 -64.918849 
L 98.19 -65.282833 
L 98.19 -65.646818 
L 98.19 -66.010803 
L 98.19 -66.374788 
L 98.19 -66.738773 
L 98.19 -67.102758 
L 98.19 -67.466743 
L 98.19 -67.830728 
L 98.19 -68.194713 
L 98.19 -68.558698 
L 98.19 -68.922683 
L 102.57704 -68.922683 
L 102.57704 -68.922683 
L 102.187812 -68.558698 
L 101.215343 -68.194713 
L 100.091202 -67.830728 
L 99.182164 -67.466743 
L 98.619972 -67.102758 
L 98.344739 -66.738773 
L 98.236247 -66.374788 
L 98.201502 -66.010803 
L 98.192554 -65.646818 
L 98.191595 -65.282833 
L 98.196279 -64.918849 
L 98.217017 -64.554864 
L 98.287388 -64.190879 
L 98.481596 -63.826894 
L 98.915066 -63.462909 
L 99.687378 -63.098924 
L 100.759079 -62.734939 
L 101.855894 -62.370954 
L 102.55643 -62.006969 
L 102.585118 -61.642984 
L 102.0785 -61.278999 
L 101.546077 -60.915014 
L 101.524758 -60.551029 
L 102.217494 -60.187044 
L 103.400703 -59.823059 
L 104.633734 -59.459074 
L 105.560315 -59.09509 
L 106.058775 -58.731105 
L 106.183288 -58.36712 
L 106.022295 -58.003135 
L 105.613165 -57.63915 
L 104.983146 -57.275165 
L 104.302976 -56.91118 
L 103.993377 -56.547195 
L 104.576969 -56.18321 
L 106.322201 -55.819225 
L 109.02166 -55.45524 
L 112.126404 -55.091255 
L 115.029697 -54.72727 
L 117.188477 -54.363285 
L 118.161031 -53.9993 
L 117.836642 -53.635315 
L 116.701517 -53.27133 
L 115.631167 -52.907346 
L 115.174532 -52.543361 
L 115.05625 -52.179376 
L 114.54861 -51.815391 
L 113.389891 -51.451406 
L 112.235655 -51.087421 
L 112.137714 -50.723436 
L 113.619465 -50.359451 
L 116.238704 -49.995466 
L 118.89981 -49.631481 
L 120.51 -49.267496 
L 120.477478 -48.903511 
L 118.848966 -48.539526 
L 116.173458 -48.175541 
L 113.238554 -47.811556 
L 110.752833 -47.447571 
L 109.067927 -47.083587 
L 108.102683 -46.719602 
L 107.526243 -46.355617 
L 107.03322 -45.991632 
L 106.478334 -45.627647 
L 105.807974 -45.263662 
L 104.947755 -44.899677 
L 103.839541 -44.535692 
L 102.603845 -44.171707 
L 101.594073 -43.807722 
L 101.205378 -43.443737 
L 101.585493 -43.079752 
L 102.517054 -42.715767 
L 103.593385 -42.351782 
L 104.538352 -41.987797 
L 105.353226 -41.623812 
L 106.12915 -41.259828 
L 106.753037 -40.895843 
L 106.888635 -40.531858 
L 106.300478 -40.167873 
L 105.19151 -39.803888 
L 104.20258 -39.439903 
L 104.041864 -39.075918 
L 105.022559 -38.711933 
L 106.837285 -38.347948 
L 108.702694 -37.983963 
L 109.769714 -37.619978 
L 109.581845 -37.255993 
L 108.356769 -36.892008 
L 106.898518 -36.528023 
L 106.09738 -36.164038 
L 106.292844 -35.800053 
L 107.005968 -35.436069 
L 107.336339 -35.072084 
L 106.727175 -34.708099 
L 105.408175 -34.344114 
L 104.114746 -33.980129 
L 103.393715 -33.616144 
L 103.174113 -33.252159 
L 102.950174 -32.888174 
z
" style="stroke: #1a1a1a; stroke-width: 0.5"/>
    </defs>
    <g clip-path="url(#pb40c91e473)">
     <use xlink:href="#m2c63b087ff" x="0" y="144" style="fill: #2020df; stroke: #1a1a1a; stroke-width: 0.5"/>
    </g>
   </g>
   <g id="FillBetweenPolyCollection_3">
    <defs>
     <path id="m961b8088d1" d="M 148.41 -30.084424 
L 144.321542 -30.084424 
L 144.671345 -30.48478 
L 145.550794 -30.885135 
L 146.578612 -31.28549 
L 147.41568 -31.685845 
L 147.90829 -32.086201 
L 148.042447 -32.486556 
L 147.818051 -32.886911 
L 147.185501 -33.287266 
L 146.100757 -33.687622 
L 144.64685 -34.087977 
L 143.103618 -34.488332 
L 141.878395 -34.888687 
L 141.327085 -35.289042 
L 141.576847 -35.689398 
L 142.440696 -36.089753 
L 143.470635 -36.490108 
L 144.165048 -36.890463 
L 144.24766 -37.290819 
L 143.810435 -37.691174 
L 143.16737 -38.091529 
L 142.539524 -38.491884 
L 141.888642 -38.89224 
L 141.053942 -39.292595 
L 139.989769 -39.69295 
L 138.806134 -40.093305 
L 137.589257 -40.493661 
L 136.243319 -40.894016 
L 134.549456 -41.294371 
L 132.41663 -41.694726 
L 130.144449 -42.095081 
L 128.480334 -42.495437 
L 128.328005 -42.895792 
L 130.203884 -43.296147 
L 133.825622 -43.696502 
L 138.205515 -44.096858 
L 142.200119 -44.497213 
L 145.061159 -44.897568 
L 146.59899 -45.297923 
L 146.989498 -45.698279 
L 146.533069 -46.098634 
L 145.570418 -46.498989 
L 144.483974 -46.899344 
L 143.610399 -47.2997 
L 143.06339 -47.700055 
L 142.656719 -48.10041 
L 142.02326 -48.500765 
L 140.780154 -48.90112 
L 138.613541 -49.301476 
L 135.416406 -49.701831 
L 131.574015 -50.102186 
L 128.079043 -50.502541 
L 126.09 -50.902897 
L 126.164488 -51.303252 
L 127.904089 -51.703607 
L 130.355161 -52.103962 
L 132.710146 -52.504318 
L 134.663372 -52.904673 
L 136.282463 -53.305028 
L 137.718655 -53.705383 
L 139.047947 -54.105739 
L 140.249744 -54.506094 
L 141.209272 -54.906449 
L 141.746922 -55.306804 
L 141.751189 -55.707159 
L 141.351969 -56.107515 
L 140.94235 -56.50787 
L 140.978441 -56.908225 
L 141.706699 -57.30858 
L 143.016993 -57.708936 
L 144.499804 -58.109291 
L 145.652597 -58.509646 
L 146.114041 -58.910001 
L 145.817484 -59.310357 
L 145.005297 -59.710712 
L 144.077247 -60.111067 
L 143.310024 -60.511422 
L 142.633271 -60.911778 
L 141.70478 -61.312133 
L 140.292492 -61.712488 
L 138.631495 -62.112843 
L 137.397077 -62.513199 
L 137.284667 -62.913554 
L 138.539309 -63.313909 
L 140.799896 -63.714264 
L 143.34489 -64.114619 
L 145.514665 -64.514975 
L 146.995022 -64.91533 
L 147.821099 -65.315685 
L 148.201548 -65.71604 
L 148.344969 -66.116396 
L 148.381007 -66.516751 
L 148.355667 -66.917106 
L 148.246197 -67.317461 
L 147.973235 -67.717817 
L 147.433061 -68.118172 
L 146.582512 -68.518527 
L 145.551527 -68.918882 
L 144.67146 -69.319238 
L 144.321557 -69.719593 
L 148.41 -69.719593 
L 148.41 -69.719593 
L 148.41 -69.319238 
L 148.41 -68.918882 
L 148.41 -68.518527 
L 148.41 -68.118172 
L 148.41 -67.717817 
L 148.41 -67.317461 
L 148.41 -66.917106 
L 148.41 -66.516751 
L 148.41 -66.116396 
L 148.41 -65.71604 
L 148.41 -65.315685 
L 148.41 -64.91533 
L 148.41 -64.514975 
L 148.41 -64.114619 
L 148.41 -63.714264 
L 148.41 -63.313909 
L 148.41 -62.913554 
L 148.41 -62.513199 
L 148.41 -62.112843 
L 148.41 -61.712488 
L 148.41 -61.312133 
L 148.41 -60.911778 
L 148.41 -60.511422 
L 148.41 -60.111067 
L 148.41 -59.710712 
L 148.41 -59.310357 
L 148.41 -58.910001 
L 148.41 -58.509646 
L 148.41 -58.109291 
L 148.41 -57.708936 
L 148.41 -57.30858 
L 148.41 -56.908225 
L 148.41 -56.50787 
L 148.41 -56.107515 
L 148.41 -55.707159 
L 148.41 -55.306804 
L 148.41 -54.906449 
L 148.41 -54.506094 
L 148.41 -54.105739 
L 148.41 -53.705383 
L 148.41 -53.305028 
L 148.41 -52.904673 
L 148.41 -52.504318 
L 148.41 -52.103962 
L 148.41 -51.703607 
L 148.41 -51.303252 
L 148.41 -50.902897 
L 148.41 -50.502541 
L 148.41 -50.102186 
L 148.41 -49.701831 
L 148.41 -49.301476 
L 148.41 -48.90112 
L 148.41 -48.500765 
L 148.41 -48.10041 
L 148.41 -47.700055 
L 148.41 -47.2997 
L 148.41 -46.899344 
L 148.41 -46.498989 
L 148.41 -46.098634 
L 148.41 -45.698279 
L 148.41 -45.297923 
L 148.41 -44.897568 
L 148.41 -44.497213 
L 148.41 -44.096858 
L 148.41 -43.696502 
L 148.41 -43.296147 
L 148.41 -42.895792 
L 148.41 -42.495437 
L 148.41 -42.095081 
L 148.41 -41.694726 
L 148.41 -41.294371 
L 148.41 -40.894016 
L 148.41 -40.493661 
L 148.41 -40.093305 
L 148.41 -39.69295 
L 148.41 -39.292595 
L 148.41 -38.89224 
L 148.41 -38.491884 
L 148.41 -38.091529 
L 148.41 -37.691174 
L 148.41 -37.290819 
L 148.41 -36.890463 
L 148.41 -36.490108 
L 148.41 -36.089753 
L 148.41 -35.689398 
L 148.41 -35.289042 
L 148.41 -34.888687 
L 148.41 -34.488332 
L 148.41 -34.087977 
L 148.41 -33.687622 
L 148.41 -33.287266 
L 148.41 -32.886911 
L 148.41 -32.486556 
L 148.41 -32.086201 
L 148.41 -31.685845 
L 148.41 -31.28549 
L 148.41 -30.885135 
L 148.41 -30.48478 
L 148.41 -30.084424 
z
" style="stroke: #1a1a1a; stroke-width: 0.5"/>
    </defs>
    <g clip-path="url(#pb40c91e473)">
     <use xlink:href="#m961b8088d1" x="0" y="144" style="fill: #20df20; stroke: #1a1a1a; stroke-width: 0.5"/>
    </g>
   </g>
   <g id="FillBetweenPolyCollection_4">
    <defs>
     <path id="mdc78ce420d" d="M 162.772067 -37.983814 
L 153.99 -37.983814 
L 153.99 -38.368186 
L 153.99 -38.752557 
L 153.99 -39.136929 
L 153.99 -39.521301 
L 153.99 -39.905672 
L 153.99 -40.290044 
L 153.99 -40.674416 
L 153.99 -41.058787 
L 153.99 -41.443159 
L 153.99 -41.827531 
L 153.99 -42.211902 
L 153.99 -42.596274 
L 153.99 -42.980645 
L 153.99 -43.365017 
L 153.99 -43.749389 
L 153.99 -44.13376 
L 153.99 -44.518132 
L 153.99 -44.902504 
L 153.99 -45.286875 
L 153.99 -45.671247 
L 153.99 -46.055619 
L 153.99 -46.43999 
L 153.99 -46.824362 
L 153.99 -47.208734 
L 153.99 -47.593105 
L 153.99 -47.977477 
L 153.99 -48.361848 
L 153.99 -48.74622 
L 153.99 -49.130592 
L 153.99 -49.514963 
L 153.99 -49.899335 
L 153.99 -50.283707 
L 153.99 -50.668078 
L 153.99 -51.05245 
L 153.99 -51.436822 
L 153.99 -51.821193 
L 153.99 -52.205565 
L 153.99 -52.589937 
L 153.99 -52.974308 
L 153.99 -53.35868 
L 153.99 -53.743051 
L 153.99 -54.127423 
L 153.99 -54.511795 
L 153.99 -54.896166 
L 153.99 -55.280538 
L 153.99 -55.66491 
L 153.99 -56.049281 
L 153.99 -56.433653 
L 153.99 -56.818025 
L 153.99 -57.202396 
L 153.99 -57.586768 
L 153.99 -57.97114 
L 153.99 -58.355511 
L 153.99 -58.739883 
L 153.99 -59.124255 
L 153.99 -59.508626 
L 153.99 -59.892998 
L 153.99 -60.277369 
L 153.99 -60.661741 
L 153.99 -61.046113 
L 153.99 -61.430484 
L 153.99 -61.814856 
L 153.99 -62.199228 
L 153.99 -62.583599 
L 153.99 -62.967971 
L 153.99 -63.352343 
L 153.99 -63.736714 
L 153.99 -64.121086 
L 153.99 -64.505458 
L 153.99 -64.889829 
L 153.99 -65.274201 
L 153.99 -65.658572 
L 153.99 -66.042944 
L 153.99 -66.427316 
L 153.99 -66.811687 
L 153.99 -67.196059 
L 153.99 -67.580431 
L 153.99 -67.964802 
L 153.99 -68.349174 
L 153.99 -68.733546 
L 153.99 -69.117917 
L 153.99 -69.502289 
L 153.99 -69.886661 
L 153.99 -70.271032 
L 153.99 -70.655404 
L 153.99 -71.039775 
L 153.99 -71.424147 
L 153.99 -71.808519 
L 153.99 -72.19289 
L 153.99 -72.577262 
L 153.99 -72.961634 
L 153.99 -73.346005 
L 153.99 -73.730377 
L 153.99 -74.114749 
L 153.99 -74.49912 
L 153.99 -74.883492 
L 153.99 -75.267864 
L 153.99 -75.652235 
L 153.99 -76.036607 
L 162.669531 -76.036607 
L 162.669531 -76.036607 
L 162.602779 -75.652235 
L 162.068427 -75.267864 
L 161.553651 -74.883492 
L 161.460968 -74.49912 
L 161.860547 -74.114749 
L 162.446934 -73.730377 
L 162.730076 -73.346005 
L 162.334818 -72.961634 
L 161.217658 -72.577262 
L 159.680465 -72.19289 
L 158.208006 -71.808519 
L 157.257073 -71.424147 
L 157.108094 -71.039775 
L 157.802022 -70.655404 
L 159.13083 -70.271032 
L 160.671919 -69.886661 
L 161.895446 -69.502289 
L 162.349633 -69.117917 
L 161.849239 -68.733546 
L 160.549285 -68.349174 
L 158.847869 -67.964802 
L 157.182944 -67.580431 
L 155.855242 -67.196059 
L 154.968588 -66.811687 
L 154.483351 -66.427316 
L 154.316587 -66.042944 
L 154.424612 -65.658572 
L 154.836809 -65.274201 
L 155.633456 -64.889829 
L 156.872073 -64.505458 
L 158.48734 -64.121086 
L 160.223633 -63.736714 
L 161.672278 -63.352343 
L 162.436659 -62.967971 
L 162.350122 -62.583599 
L 161.604618 -62.199228 
L 160.685911 -61.814856 
L 160.135433 -61.430484 
L 160.272128 -61.046113 
L 161.031596 -60.661741 
L 162.013588 -60.277369 
L 162.718185 -59.892998 
L 162.845839 -59.508626 
L 162.48909 -59.124255 
L 162.096702 -58.739883 
L 162.227346 -58.355511 
L 163.240424 -57.97114 
L 165.103497 -57.586768 
L 167.413784 -57.202396 
L 169.599776 -56.818025 
L 171.173356 -56.433653 
L 171.893966 -56.049281 
L 171.78154 -55.66491 
L 171.022007 -55.280538 
L 169.871756 -54.896166 
L 168.635061 -54.511795 
L 167.687452 -54.127423 
L 167.446587 -53.743051 
L 168.230326 -53.35868 
L 170.058471 -52.974308 
L 172.533613 -52.589937 
L 174.904464 -52.205565 
L 176.31 -51.821193 
L 176.108011 -51.436822 
L 174.149284 -51.05245 
L 170.873056 -50.668078 
L 167.172641 -50.283707 
L 164.089138 -49.899335 
L 162.465524 -49.514963 
L 162.680556 -49.130592 
L 164.520997 -48.74622 
L 167.221994 -48.361848 
L 169.706944 -47.977477 
L 171.002979 -47.593105 
L 170.67324 -47.208734 
L 169.017766 -46.824362 
L 166.892647 -46.43999 
L 165.245005 -46.055619 
L 164.652374 -45.671247 
L 165.127538 -45.286875 
L 166.244646 -44.902504 
L 167.440785 -44.518132 
L 168.292431 -44.13376 
L 168.654798 -43.749389 
L 168.666101 -43.365017 
L 168.655642 -42.980645 
L 168.971834 -42.596274 
L 169.760478 -42.211902 
L 170.801314 -41.827531 
L 171.547799 -41.443159 
L 171.408849 -41.058787 
L 170.118655 -40.674416 
L 167.94118 -40.290044 
L 165.556867 -39.905672 
L 163.699321 -39.521301 
L 162.770929 -39.136929 
L 162.662579 -38.752557 
L 162.86316 -38.368186 
L 162.772067 -37.983814 
z
" style="stroke: #1a1a1a; stroke-width: 0.5"/>
    </defs>
    <g clip-path="url(#pb40c91e473)">
     <use xlink:href="#mdc78ce420d" x="0" y="144" style="fill: #137683; stroke: #1a1a1a; stroke-width: 0.5"/>
    </g>
   </g>
   <g id="FillBetweenPolyCollection_5">
    <defs>
     <path id="mcc76021543" d="M 204.21 -20.88 
L 200.880072 -20.88 
L 201.424649 -21.448421 
L 202.579897 -22.016841 
L 203.542516 -22.585262 
L 204.01877 -23.153682 
L 204.171668 -23.722103 
L 204.204624 -24.290523 
L 204.209472 -24.858944 
L 204.209964 -25.427364 
L 204.209998 -25.995785 
L 204.21 -26.564205 
L 204.21 -27.132626 
L 204.21 -27.701046 
L 204.21 -28.269467 
L 204.21 -28.837887 
L 204.21 -29.406308 
L 204.21 -29.974728 
L 204.21 -30.543149 
L 204.21 -31.111569 
L 204.21 -31.67999 
L 204.21 -32.24841 
L 204.21 -32.816831 
L 204.21 -33.385251 
L 204.21 -33.953672 
L 204.21 -34.522092 
L 204.21 -35.090513 
L 204.21 -35.658933 
L 204.21 -36.227354 
L 204.21 -36.795774 
L 204.209998 -37.364195 
L 204.209968 -37.932615 
L 204.209525 -38.501036 
L 204.205083 -39.069456 
L 204.17442 -39.637877 
L 204.029845 -40.206297 
L 203.571772 -40.774718 
L 202.628046 -41.343138 
L 201.466516 -41.911559 
L 200.881098 -42.479979 
L 201.383886 -43.0484 
L 202.531317 -43.616821 
L 203.512346 -44.185241 
L 204.007059 -44.753662 
L 204.167535 -45.322082 
L 204.191623 -45.890503 
L 204.115974 -46.458923 
L 203.708513 -47.027344 
L 202.264727 -47.595764 
L 198.713711 -48.164185 
L 192.795941 -48.732605 
L 186.533602 -49.301026 
L 183.157166 -49.869446 
L 183.624421 -50.437867 
L 185.975477 -51.006287 
L 188.625329 -51.574708 
L 191.62701 -52.143128 
L 194.663964 -52.711549 
L 196.524365 -53.279969 
L 196.708279 -53.84839 
L 195.850773 -54.41681 
L 194.158037 -54.985231 
L 190.884117 -55.553651 
L 186.351984 -56.122072 
L 182.798678 -56.690492 
L 181.89 -57.258913 
L 183.053002 -57.827333 
L 185.089894 -58.395754 
L 187.861287 -58.964174 
L 191.49689 -59.532595 
L 194.979287 -60.101015 
L 196.796773 -60.669436 
L 196.333192 -61.237856 
L 194.067001 -61.806277 
L 191.67435 -62.374697 
L 191.466949 -62.943118 
L 194.096823 -63.511538 
L 197.597974 -64.079959 
L 199.717197 -64.648379 
L 200.232114 -65.2168 
L 200.205729 -65.785221 
L 199.806675 -66.353641 
L 198.192596 -66.922062 
L 195.64602 -67.490482 
L 194.324094 -68.058903 
L 195.770996 -68.627323 
L 198.777721 -69.195744 
L 200.920794 -69.764164 
L 201.280554 -70.332585 
L 200.86389 -70.901005 
L 201.027204 -71.469426 
L 202.026195 -72.037846 
L 203.156595 -72.606267 
L 203.853712 -73.174687 
L 204.120548 -73.743108 
L 204.157766 -74.311528 
L 204.017162 -74.879949 
L 203.542386 -75.448369 
L 202.579889 -76.01679 
L 201.424649 -76.58521 
L 200.880072 -77.153631 
L 204.21 -77.153631 
L 204.21 -77.153631 
L 204.21 -76.58521 
L 204.21 -76.01679 
L 204.21 -75.448369 
L 204.21 -74.879949 
L 204.21 -74.311528 
L 204.21 -73.743108 
L 204.21 -73.174687 
L 204.21 -72.606267 
L 204.21 -72.037846 
L 204.21 -71.469426 
L 204.21 -70.901005 
L 204.21 -70.332585 
L 204.21 -69.764164 
L 204.21 -69.195744 
L 204.21 -68.627323 
L 204.21 -68.058903 
L 204.21 -67.490482 
L 204.21 -66.922062 
L 204.21 -66.353641 
L 204.21 -65.785221 
L 204.21 -65.2168 
L 204.21 -64.648379 
L 204.21 -64.079959 
L 204.21 -63.511538 
L 204.21 -62.943118 
L 204.21 -62.374697 
L 204.21 -61.806277 
L 204.21 -61.237856 
L 204.21 -60.669436 
L 204.21 -60.101015 
L 204.21 -59.532595 
L 204.21 -58.964174 
L 204.21 -58.395754 
L 204.21 -57.827333 
L 204.21 -57.258913 
L 204.21 -56.690492 
L 204.21 -56.122072 
L 204.21 -55.553651 
L 204.21 -54.985231 
L 204.21 -54.41681 
L 204.21 -53.84839 
L 204.21 -53.279969 
L 204.21 -52.711549 
L 204.21 -52.143128 
L 204.21 -51.574708 
L 204.21 -51.006287 
L 204.21 -50.437867 
L 204.21 -49.869446 
L 204.21 -49.301026 
L 204.21 -48.732605 
L 204.21 -48.164185 
L 204.21 -47.595764 
L 204.21 -47.027344 
L 204.21 -46.458923 
L 204.21 -45.890503 
L 204.21 -45.322082 
L 204.21 -44.753662 
L 204.21 -44.185241 
L 204.21 -43.616821 
L 204.21 -43.0484 
L 204.21 -42.479979 
L 204.21 -41.911559 
L 204.21 -41.343138 
L 204.21 -40.774718 
L 204.21 -40.206297 
L 204.21 -39.637877 
L 204.21 -39.069456 
L 204.21 -38.501036 
L 204.21 -37.932615 
L 204.21 -37.364195 
L 204.21 -36.795774 
L 204.21 -36.227354 
L 204.21 -35.658933 
L 204.21 -35.090513 
L 204.21 -34.522092 
L 204.21 -33.953672 
L 204.21 -33.385251 
L 204.21 -32.816831 
L 204.21 -32.24841 
L 204.21 -31.67999 
L 204.21 -31.111569 
L 204.21 -30.543149 
L 204.21 -29.974728 
L 204.21 -29.406308 
L 204.21 -28.837887 
L 204.21 -28.269467 
L 204.21 -27.701046 
L 204.21 -27.132626 
L 204.21 -26.564205 
L 204.21 -25.995785 
L 204.21 -25.427364 
L 204.21 -24.858944 
L 204.21 -24.290523 
L 204.21 -23.722103 
L 204.21 -23.153682 
L 204.21 -22.585262 
L 204.21 -22.016841 
L 204.21 -21.448421 
L 204.21 -20.88 
z
" style="stroke: #1a1a1a; stroke-width: 0.5"/>
    </defs>
    <g clip-path="url(#pb40c91e473)">
     <use xlink:href="#mcc76021543" x="0" y="144" style="fill: #94c360; stroke: #1a1a1a; stroke-width: 0.5"/>
    </g>
   </g>
   <g id="FillBetweenPolyCollection_6">
    <defs>
     <path id="ma95113fe25" d="M 220.329193 -51.568168 
L 209.79 -51.568168 
L 209.79 -51.7019 
L 209.79 -51.835631 
L 209.79 -51.969363 
L 209.79 -52.103094 
L 209.79 -52.236826 
L 209.79 -52.370558 
L 209.79 -52.504289 
L 209.79 -52.638021 
L 209.79 -52.771752 
L 209.79 -52.905484 
L 209.79 -53.039215 
L 209.79 -53.172947 
L 209.79 -53.306678 
L 209.79 -53.44041 
L 209.79 -53.574142 
L 209.79 -53.707873 
L 209.79 -53.841605 
L 209.79 -53.975336 
L 209.79 -54.109068 
L 209.79 -54.242799 
L 209.79 -54.376531 
L 209.79 -54.510263 
L 209.79 -54.643994 
L 209.79 -54.777726 
L 209.79 -54.911457 
L 209.79 -55.045189 
L 209.79 -55.17892 
L 209.79 -55.312652 
L 209.79 -55.446383 
L 209.79 -55.580115 
L 209.79 -55.713847 
L 209.79 -55.847578 
L 209.79 -55.98131 
L 209.79 -56.115041 
L 209.79 -56.248773 
L 209.79 -56.382504 
L 209.79 -56.516236 
L 209.79 -56.649968 
L 209.79 -56.783699 
L 209.79 -56.917431 
L 209.79 -57.051162 
L 209.79 -57.184894 
L 209.79 -57.318625 
L 209.79 -57.452357 
L 209.79 -57.586089 
L 209.79 -57.71982 
L 209.79 -57.853552 
L 209.79 -57.987283 
L 209.79 -58.121015 
L 209.79 -58.254746 
L 209.79 -58.388478 
L 209.79 -58.522209 
L 209.79 -58.655941 
L 209.79 -58.789673 
L 209.79 -58.923404 
L 209.79 -59.057136 
L 209.79 -59.190867 
L 209.79 -59.324599 
L 209.79 -59.45833 
L 209.79 -59.592062 
L 209.79 -59.725794 
L 209.79 -59.859525 
L 209.79 -59.993257 
L 209.79 -60.126988 
L 209.79 -60.26072 
L 209.79 -60.394451 
L 209.79 -60.528183 
L 209.79 -60.661914 
L 209.79 -60.795646 
L 209.79 -60.929378 
L 209.79 -61.063109 
L 209.79 -61.196841 
L 209.79 -61.330572 
L 209.79 -61.464304 
L 209.79 -61.598035 
L 209.79 -61.731767 
L 209.79 -61.865499 
L 209.79 -61.99923 
L 209.79 -62.132962 
L 209.79 -62.266693 
L 209.79 -62.400425 
L 209.79 -62.534156 
L 209.79 -62.667888 
L 209.79 -62.80162 
L 209.79 -62.935351 
L 209.79 -63.069083 
L 209.79 -63.202814 
L 209.79 -63.336546 
L 209.79 -63.470277 
L 209.79 -63.604009 
L 209.79 -63.73774 
L 209.79 -63.871472 
L 209.79 -64.005204 
L 209.79 -64.138935 
L 209.79 -64.272667 
L 209.79 -64.406398 
L 209.79 -64.54013 
L 209.79 -64.673861 
L 209.79 -64.807593 
L 217.186669 -64.807593 
L 217.186669 -64.807593 
L 217.950582 -64.673861 
L 218.185027 -64.54013 
L 217.884447 -64.406398 
L 217.152903 -64.272667 
L 216.21693 -64.138935 
L 215.408706 -64.005204 
L 215.081828 -63.871472 
L 215.468738 -63.73774 
L 216.547245 -63.604009 
L 218.003076 -63.470277 
L 219.337061 -63.336546 
L 220.085542 -63.202814 
L 220.043508 -63.069083 
L 219.358749 -62.935351 
L 218.435356 -62.80162 
L 217.710588 -62.667888 
L 217.455108 -62.534156 
L 217.715766 -62.400425 
L 218.393497 -62.266693 
L 219.340542 -62.132962 
L 220.37568 -61.99923 
L 221.237975 -61.865499 
L 221.595015 -61.731767 
L 221.177345 -61.598035 
L 219.966812 -61.464304 
L 218.280491 -61.330572 
L 216.660847 -61.196841 
L 215.636697 -61.063109 
L 215.5102 -60.929378 
L 216.286434 -60.795646 
L 217.750414 -60.661914 
L 219.605868 -60.528183 
L 221.572877 -60.394451 
L 223.396846 -60.26072 
L 224.807909 -60.126988 
L 225.521143 -59.993257 
L 225.334691 -59.859525 
L 224.284534 -59.725794 
L 222.735073 -59.592062 
L 221.299018 -59.45833 
L 220.586362 -59.324599 
L 220.904062 -59.190867 
L 222.07817 -59.057136 
L 223.512394 -58.923404 
L 224.465013 -58.789673 
L 224.400198 -58.655941 
L 223.228363 -58.522209 
L 221.31863 -58.388478 
L 219.298765 -58.254746 
L 217.771126 -58.121015 
L 217.104633 -57.987283 
L 217.400275 -57.853552 
L 218.60537 -57.71982 
L 220.641638 -57.586089 
L 223.402017 -57.452357 
L 226.6001 -57.318625 
L 229.636575 -57.184894 
L 231.696335 -57.051162 
L 232.11 -56.917431 
L 230.744917 -56.783699 
L 228.110359 -56.649968 
L 225.080208 -56.516236 
L 222.448664 -56.382504 
L 220.635397 -56.248773 
L 219.675589 -56.115041 
L 219.383911 -55.98131 
L 219.504826 -55.847578 
L 219.768542 -55.713847 
L 219.900393 -55.580115 
L 219.65641 -55.446383 
L 218.897726 -55.312652 
L 217.659008 -55.17892 
L 216.160462 -55.045189 
L 214.747205 -54.911457 
L 213.779597 -54.777726 
L 213.518103 -54.643994 
L 214.040867 -54.510263 
L 215.215098 -54.376531 
L 216.730618 -54.242799 
L 218.194811 -54.109068 
L 219.270735 -53.975336 
L 219.813244 -53.841605 
L 219.938802 -53.707873 
L 219.975301 -53.574142 
L 220.289688 -53.44041 
L 221.069108 -53.306678 
L 222.184466 -53.172947 
L 223.234303 -53.039215 
L 223.751491 -52.905484 
L 223.444128 -52.771752 
L 222.332874 -52.638021 
L 220.736945 -52.504289 
L 219.151147 -52.370558 
L 218.07428 -52.236826 
L 217.826413 -52.103094 
L 218.398257 -51.969363 
L 219.409775 -51.835631 
L 220.244491 -51.7019 
L 220.329193 -51.568168 
z
" style="stroke: #1a1a1a; stroke-width: 0.5"/>
    </defs>
    <g clip-path="url(#pb40c91e473)">
     <use xlink:href="#ma95113fe25" x="0" y="144" style="fill: #20dfb1; stroke: #1a1a1a; stroke-width: 0.5"/>
    </g>
   </g>
   <g id="FillBetweenPolyCollection_7">
    <defs>
     <path id="mbb66d8d199" d="M 260.01 -23.457152 
L 254.485158 -23.457152 
L 255.293337 -24.065801 
L 257.075191 -24.67445 
L 258.679071 -25.283099 
L 259.570094 -25.891748 
L 259.904027 -26.500397 
L 259.991394 -27.109047 
L 260.007619 -27.717696 
L 260.009778 -28.326345 
L 260.009985 -28.934994 
L 260.009999 -29.543643 
L 260.01 -30.152292 
L 260.01 -30.760941 
L 260.01 -31.36959 
L 260.01 -31.978239 
L 260.01 -32.586888 
L 260.01 -33.195538 
L 260.01 -33.804187 
L 260.01 -34.412836 
L 260.01 -35.021485 
L 260.01 -35.630134 
L 260.01 -36.238783 
L 260.01 -36.847432 
L 260.01 -37.456081 
L 260.01 -38.06473 
L 260.01 -38.673379 
L 260.01 -39.282028 
L 260.01 -39.890678 
L 260.009999 -40.499327 
L 260.009985 -41.107976 
L 260.009784 -41.716625 
L 260.007675 -42.325274 
L 259.991772 -42.933923 
L 259.905826 -43.542572 
L 259.576079 -44.151221 
L 258.69268 -44.75987 
L 257.095248 -45.368519 
L 255.309512 -45.977169 
L 254.485055 -46.585818 
L 255.275037 -47.194467 
L 257.037408 -47.803116 
L 258.562538 -48.411765 
L 259.124379 -49.020414 
L 258.506625 -49.629063 
L 256.646038 -50.237712 
L 253.770721 -50.846361 
L 250.541012 -51.45501 
L 247.628469 -52.063659 
L 245.295662 -52.672309 
L 243.374417 -53.280958 
L 241.540755 -53.889607 
L 240.00677 -54.498256 
L 239.544614 -55.106905 
L 240.067225 -55.715554 
L 240.283031 -56.324203 
L 239.588601 -56.932852 
L 238.845717 -57.541501 
L 238.781228 -58.15015 
L 239.110377 -58.7588 
L 239.399301 -59.367449 
L 239.455247 -59.976098 
L 239.006172 -60.584747 
L 238.28253 -61.193396 
L 238.576485 -61.802045 
L 240.877304 -62.410694 
L 243.954375 -63.019343 
L 244.9459 -63.627992 
L 242.581552 -64.236641 
L 239.046043 -64.845291 
L 237.69 -65.45394 
L 239.807303 -66.062589 
L 244.374042 -66.671238 
L 249.405804 -67.279887 
L 252.77451 -67.888536 
L 253.150314 -68.497185 
L 251.194767 -69.105834 
L 249.400312 -69.714483 
L 249.980329 -70.323132 
L 252.866207 -70.931781 
L 256.211366 -71.540431 
L 258.507393 -72.14908 
L 259.569075 -72.757729 
L 259.913989 -73.366378 
L 259.991445 -73.975027 
L 259.984022 -74.583676 
L 259.878109 -75.192325 
L 259.486756 -75.800974 
L 258.495314 -76.409623 
L 256.814203 -77.018272 
L 255.095652 -77.626922 
L 254.50213 -78.235571 
L 255.510642 -78.84422 
L 257.329032 -79.452869 
L 258.82911 -80.061518 
L 259.53645 -80.670167 
L 259.485368 -81.278816 
L 258.664838 -81.887465 
L 257.073448 -82.496114 
L 255.293182 -83.104763 
L 254.485148 -83.713412 
L 260.01 -83.713412 
L 260.01 -83.713412 
L 260.01 -83.104763 
L 260.01 -82.496114 
L 260.01 -81.887465 
L 260.01 -81.278816 
L 260.01 -80.670167 
L 260.01 -80.061518 
L 260.01 -79.452869 
L 260.01 -78.84422 
L 260.01 -78.235571 
L 260.01 -77.626922 
L 260.01 -77.018272 
L 260.01 -76.409623 
L 260.01 -75.800974 
L 260.01 -75.192325 
L 260.01 -74.583676 
L 260.01 -73.975027 
L 260.01 -73.366378 
L 260.01 -72.757729 
L 260.01 -72.14908 
L 260.01 -71.540431 
L 260.01 -70.931781 
L 260.01 -70.323132 
L 260.01 -69.714483 
L 260.01 -69.105834 
L 260.01 -68.497185 
L 260.01 -67.888536 
L 260.01 -67.279887 
L 260.01 -66.671238 
L 260.01 -66.062589 
L 260.01 -65.45394 
L 260.01 -64.845291 
L 260.01 -64.236641 
L 260.01 -63.627992 
L 260.01 -63.019343 
L 260.01 -62.410694 
L 260.01 -61.802045 
L 260.01 -61.193396 
L 260.01 -60.584747 
L 260.01 -59.976098 
L 260.01 -59.367449 
L 260.01 -58.7588 
L 260.01 -58.15015 
L 260.01 -57.541501 
L 260.01 -56.932852 
L 260.01 -56.324203 
L 260.01 -55.715554 
L 260.01 -55.106905 
L 260.01 -54.498256 
L 260.01 -53.889607 
L 260.01 -53.280958 
L 260.01 -52.672309 
L 260.01 -52.063659 
L 260.01 -51.45501 
L 260.01 -50.846361 
L 260.01 -50.237712 
L 260.01 -49.629063 
L 260.01 -49.020414 
L 260.01 -48.411765 
L 260.01 -47.803116 
L 260.01 -47.194467 
L 260.01 -46.585818 
L 260.01 -45.977169 
L 260.01 -45.368519 
L 260.01 -44.75987 
L 260.01 -44.151221 
L 260.01 -43.542572 
L 260.01 -42.933923 
L 260.01 -42.325274 
L 260.01 -41.716625 
L 260.01 -41.107976 
L 260.01 -40.499327 
L 260.01 -39.890678 
L 260.01 -39.282028 
L 260.01 -38.673379 
L 260.01 -38.06473 
L 260.01 -37.456081 
L 260.01 -36.847432 
L 260.01 -36.238783 
L 260.01 -35.630134 
L 260.01 -35.021485 
L 260.01 -34.412836 
L 260.01 -33.804187 
L 260.01 -33.195538 
L 260.01 -32.586888 
L 260.01 -31.978239 
L 260.01 -31.36959 
L 260.01 -30.760941 
L 260.01 -30.152292 
L 260.01 -29.543643 
L 260.01 -28.934994 
L 260.01 -28.326345 
L 260.01 -27.717696 
L 260.01 -27.109047 
L 260.01 -26.500397 
L 260.01 -25.891748 
L 260.01 -25.283099 
L 260.01 -24.67445 
L 260.01 -24.065801 
L 260.01 -23.457152 
z
" style="stroke: #1a1a1a; stroke-width: 0.5"/>
    </defs>
    <g clip-path="url(#pb40c91e473)">
     <use xlink:href="#mbb66d8d199" x="0" y="144" style="fill: #e237ae; stroke: #1a1a1a; stroke-width: 0.5"/>
    </g>
   </g>
   <g id="FillBetweenPolyCollection_8">
    <defs>
     <path id="m2ef6fd5c7d" d="M 268.839212 -30.447335 
L 265.59 -30.447335 
L 265.59 -30.925186 
L 265.59 -31.403037 
L 265.59 -31.880888 
L 265.59 -32.358739 
L 265.59 -32.836591 
L 265.59 -33.314442 
L 265.59 -33.792293 
L 265.59 -34.270144 
L 265.59 -34.747995 
L 265.59 -35.225846 
L 265.59 -35.703697 
L 265.59 -36.181548 
L 265.59 -36.659399 
L 265.59 -37.13725 
L 265.59 -37.615102 
L 265.59 -38.092953 
L 265.59 -38.570804 
L 265.59 -39.048655 
L 265.59 -39.526506 
L 265.59 -40.004357 
L 265.59 -40.482208 
L 265.59 -40.960059 
L 265.59 -41.43791 
L 265.59 -41.915761 
L 265.59 -42.393613 
L 265.59 -42.871464 
L 265.59 -43.349315 
L 265.59 -43.827166 
L 265.59 -44.305017 
L 265.59 -44.782868 
L 265.59 -45.260719 
L 265.59 -45.73857 
L 265.59 -46.216421 
L 265.59 -46.694272 
L 265.59 -47.172123 
L 265.59 -47.649975 
L 265.59 -48.127826 
L 265.59 -48.605677 
L 265.59 -49.083528 
L 265.59 -49.561379 
L 265.59 -50.03923 
L 265.59 -50.517081 
L 265.59 -50.994932 
L 265.59 -51.472783 
L 265.59 -51.950634 
L 265.59 -52.428486 
L 265.59 -52.906337 
L 265.59 -53.384188 
L 265.59 -53.862039 
L 265.59 -54.33989 
L 265.59 -54.817741 
L 265.59 -55.295592 
L 265.59 -55.773443 
L 265.59 -56.251294 
L 265.59 -56.729145 
L 265.59 -57.206997 
L 265.59 -57.684848 
L 265.59 -58.162699 
L 265.59 -58.64055 
L 265.59 -59.118401 
L 265.59 -59.596252 
L 265.59 -60.074103 
L 265.59 -60.551954 
L 265.59 -61.029805 
L 265.59 -61.507656 
L 265.59 -61.985508 
L 265.59 -62.463359 
L 265.59 -62.94121 
L 265.59 -63.419061 
L 265.59 -63.896912 
L 265.59 -64.374763 
L 265.59 -64.852614 
L 265.59 -65.330465 
L 265.59 -65.808316 
L 265.59 -66.286167 
L 265.59 -66.764019 
L 265.59 -67.24187 
L 265.59 -67.719721 
L 265.59 -68.197572 
L 265.59 -68.675423 
L 265.59 -69.153274 
L 265.59 -69.631125 
L 265.59 -70.108976 
L 265.59 -70.586827 
L 265.59 -71.064678 
L 265.59 -71.54253 
L 265.59 -72.020381 
L 265.59 -72.498232 
L 265.59 -72.976083 
L 265.59 -73.453934 
L 265.59 -73.931785 
L 265.59 -74.409636 
L 265.59 -74.887487 
L 265.59 -75.365338 
L 265.59 -75.843189 
L 265.59 -76.321041 
L 265.59 -76.798892 
L 265.59 -77.276743 
L 265.59 -77.754594 
L 268.839212 -77.754594 
L 268.839212 -77.754594 
L 268.409099 -77.276743 
L 267.431227 -76.798892 
L 266.495251 -76.321041 
L 265.925039 -75.843189 
L 265.683344 -75.365338 
L 265.609577 -74.887487 
L 265.593091 -74.409636 
L 265.590367 -73.931785 
L 265.590033 -73.453934 
L 265.590002 -72.976083 
L 265.59 -72.498232 
L 265.59 -72.020381 
L 265.59 -71.54253 
L 265.590005 -71.064678 
L 265.59007 -70.586827 
L 265.590776 -70.108976 
L 265.596471 -69.631125 
L 265.630679 -69.153274 
L 265.782857 -68.675423 
L 266.28053 -68.197572 
L 267.463266 -67.719721 
L 269.4689 -67.24187 
L 271.829157 -66.764019 
L 273.712617 -66.286167 
L 274.917883 -65.808316 
L 276.307301 -65.330465 
L 278.835311 -64.852614 
L 282.365776 -64.374763 
L 285.728465 -63.896912 
L 287.729186 -63.419061 
L 287.91 -62.94121 
L 286.603269 -62.463359 
L 284.528476 -61.985508 
L 282.259223 -61.507656 
L 280.080782 -61.029805 
L 278.32925 -60.551954 
L 277.395426 -60.074103 
L 277.135793 -59.596252 
L 276.732589 -59.118401 
L 275.566632 -58.64055 
L 273.990753 -58.162699 
L 272.849244 -57.684848 
L 272.385342 -57.206997 
L 271.994686 -56.729145 
L 271.006057 -56.251294 
L 269.40797 -55.773443 
L 267.766534 -55.295592 
L 266.648015 -54.817741 
L 266.279676 -54.33989 
L 266.638285 -53.862039 
L 267.545396 -53.384188 
L 268.587658 -52.906337 
L 269.267616 -52.428486 
L 269.497297 -51.950634 
L 269.716465 -51.472783 
L 270.290821 -50.994932 
L 271.04407 -50.517081 
L 271.558357 -50.03923 
L 271.67287 -49.561379 
L 271.544266 -49.083528 
L 271.378609 -48.605677 
L 271.223023 -48.127826 
L 270.969109 -47.649975 
L 270.430481 -47.172123 
L 269.486155 -46.694272 
L 268.341077 -46.216421 
L 267.542025 -45.73857 
L 267.531523 -45.260719 
L 268.17647 -44.782868 
L 268.789278 -44.305017 
L 268.708363 -43.827166 
L 267.897808 -43.349315 
L 266.877713 -42.871464 
L 266.131038 -42.393613 
L 265.761129 -41.915761 
L 265.630746 -41.43791 
L 265.597303 -40.960059 
L 265.590985 -40.482208 
L 265.5901 -40.004357 
L 265.590008 -39.526506 
L 265.59 -39.048655 
L 265.59 -38.570804 
L 265.59 -38.092953 
L 265.59 -37.615102 
L 265.59 -37.13725 
L 265.59 -36.659399 
L 265.59 -36.181548 
L 265.59 -35.703697 
L 265.590002 -35.225846 
L 265.590033 -34.747995 
L 265.590367 -34.270144 
L 265.593091 -33.792293 
L 265.609577 -33.314442 
L 265.683344 -32.836591 
L 265.925039 -32.358739 
L 266.495251 -31.880888 
L 267.431227 -31.403037 
L 268.409099 -30.925186 
L 268.839212 -30.447335 
z
" style="stroke: #1a1a1a; stroke-width: 0.5"/>
    </defs>
    <g clip-path="url(#pb40c91e473)">
     <use xlink:href="#m2ef6fd5c7d" x="0" y="144" style="fill: #6f2662; stroke: #1a1a1a; stroke-width: 0.5"/>
    </g>
   </g>
   <g id="FillBetweenPolyCollection_9">
    <defs>
     <path id="m30322057d6" d="M 315.81 -32.129302 
L 312.154086 -32.129302 
L 312.642477 -32.802854 
L 313.749886 -33.476407 
L 314.804203 -34.14996 
L 315.441381 -34.823512 
L 315.708587 -35.497065 
L 315.789056 -36.170618 
L 315.806753 -36.84417 
L 315.809622 -37.517723 
L 315.809967 -38.191276 
L 315.809998 -38.864828 
L 315.809997 -39.538381 
L 315.809953 -40.211934 
L 315.809479 -40.885486 
L 315.805702 -41.559039 
L 315.783344 -42.232592 
L 315.685746 -42.906144 
L 315.373807 -43.579697 
L 314.651716 -44.25325 
L 313.459285 -44.926802 
L 312.077779 -45.600355 
L 310.943081 -46.273908 
L 310.138168 -46.94746 
L 309.2758 -47.621013 
L 307.928193 -48.294566 
L 306.012981 -48.968118 
L 303.906897 -49.641671 
L 302.24341 -50.315224 
L 301.305398 -50.988777 
L 300.646557 -51.662329 
L 299.552028 -52.335882 
L 297.942353 -53.009435 
L 296.889039 -53.682987 
L 297.879552 -54.35654 
L 301.195225 -55.030093 
L 305.528524 -55.703645 
L 309.272325 -56.377198 
L 311.341991 -57.050751 
L 310.879566 -57.724303 
L 307.3258 -58.397856 
L 301.430022 -59.071409 
L 295.797486 -59.744961 
L 293.49 -60.418514 
L 295.6725 -61.092067 
L 300.86486 -61.765619 
L 306.275416 -62.439172 
L 309.502815 -63.112725 
L 309.476391 -63.786277 
L 306.658132 -64.45983 
L 302.632648 -65.133383 
L 299.187305 -65.806935 
L 297.406849 -66.480488 
L 297.355315 -67.154041 
L 298.350163 -67.827593 
L 299.492933 -68.501146 
L 300.205868 -69.174699 
L 300.601552 -69.848251 
L 301.369215 -70.521804 
L 303.061875 -71.195357 
L 305.477335 -71.868909 
L 307.952031 -72.542462 
L 310.109552 -73.216015 
L 311.901094 -73.889567 
L 313.102724 -74.56312 
L 313.354457 -75.236673 
L 312.725171 -75.910225 
L 311.852301 -76.583778 
L 311.304154 -77.257331 
L 310.966635 -77.930884 
L 310.382728 -78.604436 
L 309.592347 -79.277989 
L 309.242615 -79.951542 
L 309.889681 -80.625094 
L 311.432775 -81.298647 
L 313.220456 -81.9722 
L 314.60743 -82.645752 
L 315.375459 -83.319305 
L 315.67124 -83.992858 
L 315.686081 -84.66641 
L 315.443727 -85.339963 
L 314.816512 -86.013516 
L 313.767339 -86.687068 
L 312.656001 -87.360621 
L 312.154201 -88.034174 
L 312.629091 -88.707726 
L 313.732372 -89.381279 
L 314.791334 -90.054832 
L 315.435076 -90.728384 
L 315.706413 -91.401937 
L 315.788514 -92.07549 
L 315.806622 -92.749042 
L 315.809231 -93.422595 
L 315.806719 -94.096148 
L 315.789054 -94.7697 
L 315.708587 -95.443253 
L 315.441381 -96.116806 
L 314.804203 -96.790358 
L 313.749886 -97.463911 
L 312.642477 -98.137464 
L 312.154086 -98.811016 
L 315.81 -98.811016 
L 315.81 -98.811016 
L 315.81 -98.137464 
L 315.81 -97.463911 
L 315.81 -96.790358 
L 315.81 -96.116806 
L 315.81 -95.443253 
L 315.81 -94.7697 
L 315.81 -94.096148 
L 315.81 -93.422595 
L 315.81 -92.749042 
L 315.81 -92.07549 
L 315.81 -91.401937 
L 315.81 -90.728384 
L 315.81 -90.054832 
L 315.81 -89.381279 
L 315.81 -88.707726 
L 315.81 -88.034174 
L 315.81 -87.360621 
L 315.81 -86.687068 
L 315.81 -86.013516 
L 315.81 -85.339963 
L 315.81 -84.66641 
L 315.81 -83.992858 
L 315.81 -83.319305 
L 315.81 -82.645752 
L 315.81 -81.9722 
L 315.81 -81.298647 
L 315.81 -80.625094 
L 315.81 -79.951542 
L 315.81 -79.277989 
L 315.81 -78.604436 
L 315.81 -77.930884 
L 315.81 -77.257331 
L 315.81 -76.583778 
L 315.81 -75.910225 
L 315.81 -75.236673 
L 315.81 -74.56312 
L 315.81 -73.889567 
L 315.81 -73.216015 
L 315.81 -72.542462 
L 315.81 -71.868909 
L 315.81 -71.195357 
L 315.81 -70.521804 
L 315.81 -69.848251 
L 315.81 -69.174699 
L 315.81 -68.501146 
L 315.81 -67.827593 
L 315.81 -67.154041 
L 315.81 -66.480488 
L 315.81 -65.806935 
L 315.81 -65.133383 
L 315.81 -64.45983 
L 315.81 -63.786277 
L 315.81 -63.112725 
L 315.81 -62.439172 
L 315.81 -61.765619 
L 315.81 -61.092067 
L 315.81 -60.418514 
L 315.81 -59.744961 
L 315.81 -59.071409 
L 315.81 -58.397856 
L 315.81 -57.724303 
L 315.81 -57.050751 
L 315.81 -56.377198 
L 315.81 -55.703645 
L 315.81 -55.030093 
L 315.81 -54.35654 
L 315.81 -53.682987 
L 315.81 -53.009435 
L 315.81 -52.335882 
L 315.81 -51.662329 
L 315.81 -50.988777 
L 315.81 -50.315224 
L 315.81 -49.641671 
L 315.81 -48.968118 
L 315.81 -48.294566 
L 315.81 -47.621013 
L 315.81 -46.94746 
L 315.81 -46.273908 
L 315.81 -45.600355 
L 315.81 -44.926802 
L 315.81 -44.25325 
L 315.81 -43.579697 
L 315.81 -42.906144 
L 315.81 -42.232592 
L 315.81 -41.559039 
L 315.81 -40.885486 
L 315.81 -40.211934 
L 315.81 -39.538381 
L 315.81 -38.864828 
L 315.81 -38.191276 
L 315.81 -37.517723 
L 315.81 -36.84417 
L 315.81 -36.170618 
L 315.81 -35.497065 
L 315.81 -34.823512 
L 315.81 -34.14996 
L 315.81 -33.476407 
L 315.81 -32.802854 
L 315.81 -32.129302 
z
" style="stroke: #1a1a1a; stroke-width: 0.5"/>
    </defs>
    <g clip-path="url(#pb40c91e473)">
     <use xlink:href="#m30322057d6" x="0" y="144" style="fill: #9393f0; stroke: #1a1a1a; stroke-width: 0.5"/>
    </g>
   </g>
   <g id="FillBetweenPolyCollection_10">
    <defs>
     <path id="meeb681c861" d="M 332.493224 -49.094451 
L 321.39 -49.094451 
L 321.39 -49.67013 
L 321.39 -50.24581 
L 321.39 -50.821489 
L 321.39 -51.397169 
L 321.39 -51.972849 
L 321.39 -52.548528 
L 321.39 -53.124208 
L 321.39 -53.699887 
L 321.39 -54.275567 
L 321.39 -54.851246 
L 321.39 -55.426926 
L 321.39 -56.002605 
L 321.39 -56.578285 
L 321.39 -57.153965 
L 321.39 -57.729644 
L 321.39 -58.305324 
L 321.39 -58.881003 
L 321.39 -59.456683 
L 321.39 -60.032362 
L 321.39 -60.608042 
L 321.39 -61.183722 
L 321.39 -61.759401 
L 321.39 -62.335081 
L 321.39 -62.91076 
L 321.39 -63.48644 
L 321.39 -64.062119 
L 321.39 -64.637799 
L 321.39 -65.213478 
L 321.39 -65.789158 
L 321.39 -66.364838 
L 321.39 -66.940517 
L 321.39 -67.516197 
L 321.39 -68.091876 
L 321.39 -68.667556 
L 321.39 -69.243235 
L 321.39 -69.818915 
L 321.39 -70.394594 
L 321.39 -70.970274 
L 321.39 -71.545954 
L 321.39 -72.121633 
L 321.39 -72.697313 
L 321.39 -73.272992 
L 321.39 -73.848672 
L 321.39 -74.424351 
L 321.39 -75.000031 
L 321.39 -75.575711 
L 321.39 -76.15139 
L 321.39 -76.72707 
L 321.39 -77.302749 
L 321.39 -77.878429 
L 321.39 -78.454108 
L 321.39 -79.029788 
L 321.39 -79.605467 
L 321.39 -80.181147 
L 321.39 -80.756827 
L 321.39 -81.332506 
L 321.39 -81.908186 
L 321.39 -82.483865 
L 321.39 -83.059545 
L 321.39 -83.635224 
L 321.39 -84.210904 
L 321.39 -84.786584 
L 321.39 -85.362263 
L 321.39 -85.937943 
L 321.39 -86.513622 
L 321.39 -87.089302 
L 321.39 -87.664981 
L 321.39 -88.240661 
L 321.39 -88.81634 
L 321.39 -89.39202 
L 321.39 -89.9677 
L 321.39 -90.543379 
L 321.39 -91.119059 
L 321.39 -91.694738 
L 321.39 -92.270418 
L 321.39 -92.846097 
L 321.39 -93.421777 
L 321.39 -93.997457 
L 321.39 -94.573136 
L 321.39 -95.148816 
L 321.39 -95.724495 
L 321.39 -96.300175 
L 321.39 -96.875854 
L 321.39 -97.451534 
L 321.39 -98.027213 
L 321.39 -98.602893 
L 321.39 -99.178573 
L 321.39 -99.754252 
L 321.39 -100.329932 
L 321.39 -100.905611 
L 321.39 -101.481291 
L 321.39 -102.05697 
L 321.39 -102.63265 
L 321.39 -103.20833 
L 321.39 -103.784009 
L 321.39 -104.359689 
L 321.39 -104.935368 
L 321.39 -105.511048 
L 321.39 -106.086727 
L 327.022792 -106.086727 
L 327.022792 -106.086727 
L 326.475947 -105.511048 
L 325.133831 -104.935368 
L 323.636761 -104.359689 
L 322.489244 -103.784009 
L 321.828457 -103.20833 
L 321.532579 -102.63265 
L 321.427799 -102.05697 
L 321.39817 -101.481291 
L 321.39144 -100.905611 
L 321.390207 -100.329932 
L 321.390024 -99.754252 
L 321.390002 -99.178573 
L 321.39 -98.602893 
L 321.39 -98.027213 
L 321.39 -97.451534 
L 321.39 -96.875854 
L 321.39 -96.300175 
L 321.39 -95.724495 
L 321.39 -95.148816 
L 321.39 -94.573136 
L 321.39 -93.997457 
L 321.39 -93.421777 
L 321.39 -92.846097 
L 321.39 -92.270418 
L 321.39 -91.694738 
L 321.39 -91.119059 
L 321.39 -90.543379 
L 321.39 -89.9677 
L 321.39 -89.39202 
L 321.39 -88.81634 
L 321.39 -88.240661 
L 321.39 -87.664981 
L 321.39 -87.089302 
L 321.39 -86.513622 
L 321.39 -85.937943 
L 321.390001 -85.362263 
L 321.390008 -84.786584 
L 321.390077 -84.210904 
L 321.390621 -83.635224 
L 321.394121 -83.059545 
L 321.41238 -82.483865 
L 321.48959 -81.908186 
L 321.753582 -81.332506 
L 322.480898 -80.756827 
L 324.086542 -80.181147 
L 326.899811 -79.605467 
L 330.741873 -79.029788 
L 334.675362 -78.454108 
L 337.389262 -77.878429 
L 338.110308 -77.302749 
L 337.23025 -76.72707 
L 336.004971 -76.15139 
L 335.636525 -75.575711 
L 336.594195 -75.000031 
L 338.583615 -74.424351 
L 340.900148 -73.848672 
L 342.79394 -73.272992 
L 343.71 -72.697313 
L 343.398222 -72.121633 
L 341.949039 -71.545954 
L 339.801457 -70.970274 
L 337.613554 -70.394594 
L 335.914975 -69.818915 
L 334.802807 -69.243235 
L 334.006399 -68.667556 
L 333.20264 -68.091876 
L 332.188566 -67.516197 
L 330.827194 -66.940517 
L 329.04226 -66.364838 
L 326.9783 -65.789158 
L 325.076399 -65.213478 
L 323.879508 -64.637799 
L 323.730809 -64.062119 
L 324.586413 -63.48644 
L 326.003791 -62.91076 
L 327.37468 -62.335081 
L 328.429262 -61.759401 
L 329.645521 -61.183722 
L 331.963797 -60.608042 
L 335.77295 -60.032362 
L 340.060773 -59.456683 
L 342.754408 -58.881003 
L 342.213571 -58.305324 
L 338.58507 -57.729644 
L 333.74276 -57.153965 
L 329.933291 -56.578285 
L 328.422091 -56.002605 
L 329.139839 -55.426926 
L 331.202261 -54.851246 
L 333.538854 -54.275567 
L 335.162275 -53.699887 
L 335.305166 -53.124208 
L 333.804636 -52.548528 
L 331.464944 -51.972849 
L 329.728984 -51.397169 
L 329.648017 -50.821489 
L 331.009409 -50.24581 
L 332.445709 -49.67013 
L 332.493224 -49.094451 
z
" style="stroke: #1a1a1a; stroke-width: 0.5"/>
    </defs>
    <g clip-path="url(#pb40c91e473)">
     <use xlink:href="#meeb681c861" x="0" y="144" style="fill: #df2020; stroke: #1a1a1a; stroke-width: 0.5"/>
    </g>
   </g>
   <g id="FillBetweenPolyCollection_11">
    <defs>
     <path id="m9fc8364730" d="M 371.61 -56.155837 
L 364.232888 -56.155837 
L 363.736553 -56.492289 
L 364.12048 -56.828741 
L 364.948879 -57.165193 
L 365.748655 -57.501645 
L 366.383383 -57.838097 
L 367.045271 -58.174549 
L 367.93405 -58.511001 
L 369.007798 -58.847453 
L 370.033645 -59.183905 
L 370.802858 -59.520356 
L 371.259573 -59.856808 
L 371.465145 -60.19326 
L 371.485202 -60.529712 
L 371.283849 -60.866164 
L 370.644402 -61.202616 
L 369.151079 -61.539068 
L 366.346936 -61.87552 
L 362.148043 -62.211972 
L 357.295399 -62.548424 
L 353.306478 -62.884876 
L 351.627898 -63.221328 
L 352.554285 -63.55778 
L 354.982039 -63.894232 
L 357.338741 -64.230684 
L 358.789549 -64.567135 
L 359.597105 -64.903587 
L 360.505251 -65.240039 
L 361.928553 -65.576491 
L 363.63982 -65.912943 
L 365.001032 -66.249395 
L 365.396243 -66.585847 
L 364.553506 -66.922299 
L 362.612024 -67.258751 
L 359.958677 -67.595203 
L 357.000672 -67.931655 
L 354.073219 -68.268107 
L 351.528619 -68.604559 
L 349.810472 -68.941011 
L 349.29 -69.277463 
L 349.991989 -69.613914 
L 351.604917 -69.950366 
L 353.812072 -70.286818 
L 356.463167 -70.62327 
L 359.325545 -70.959722 
L 361.828401 -71.296174 
L 363.270102 -71.632626 
L 363.333887 -71.969078 
L 362.38504 -72.30553 
L 361.291517 -72.641982 
L 360.926277 -72.978434 
L 361.671993 -73.314886 
L 363.225011 -73.651338 
L 364.847723 -73.98779 
L 365.901604 -74.324242 
L 366.226303 -74.660693 
L 366.067667 -74.997145 
L 365.712425 -75.333597 
L 365.237752 -75.670049 
L 364.565322 -76.006501 
L 363.663896 -76.342953 
L 362.685523 -76.679405 
L 361.959704 -77.015857 
L 361.83589 -77.352309 
L 362.431757 -77.688761 
L 363.509442 -78.025213 
L 364.671309 -78.361665 
L 365.704098 -78.698117 
L 366.681949 -79.034569 
L 367.732915 -79.37102 
L 368.777712 -79.707472 
L 369.520721 -80.043924 
L 369.643299 -80.380376 
L 368.998249 -80.716828 
L 367.710477 -81.05328 
L 366.180037 -81.389732 
L 364.966821 -81.726184 
L 364.558654 -82.062636 
L 365.131416 -82.399088 
L 366.462477 -82.73554 
L 368.063309 -83.071992 
L 369.430504 -83.408444 
L 370.236031 -83.744896 
L 370.368034 -84.081348 
L 369.891751 -84.417799 
L 369.035244 -84.754251 
L 368.17965 -85.090703 
L 367.742857 -85.427155 
L 367.957197 -85.763607 
L 368.724067 -86.100059 
L 369.701726 -86.436511 
L 370.545482 -86.772963 
L 371.076454 -87.109415 
L 371.268672 -87.445867 
L 371.136892 -87.782319 
L 370.669349 -88.118771 
L 369.875617 -88.455223 
L 368.900473 -88.791675 
L 368.065701 -89.128127 
L 367.733586 -89.464578 
L 371.61 -89.464578 
L 371.61 -89.464578 
L 371.61 -89.128127 
L 371.61 -88.791675 
L 371.61 -88.455223 
L 371.61 -88.118771 
L 371.61 -87.782319 
L 371.61 -87.445867 
L 371.61 -87.109415 
L 371.61 -86.772963 
L 371.61 -86.436511 
L 371.61 -86.100059 
L 371.61 -85.763607 
L 371.61 -85.427155 
L 371.61 -85.090703 
L 371.61 -84.754251 
L 371.61 -84.417799 
L 371.61 -84.081348 
L 371.61 -83.744896 
L 371.61 -83.408444 
L 371.61 -83.071992 
L 371.61 -82.73554 
L 371.61 -82.399088 
L 371.61 -82.062636 
L 371.61 -81.726184 
L 371.61 -81.389732 
L 371.61 -81.05328 
L 371.61 -80.716828 
L 371.61 -80.380376 
L 371.61 -80.043924 
L 371.61 -79.707472 
L 371.61 -79.37102 
L 371.61 -79.034569 
L 371.61 -78.698117 
L 371.61 -78.361665 
L 371.61 -78.025213 
L 371.61 -77.688761 
L 371.61 -77.352309 
L 371.61 -77.015857 
L 371.61 -76.679405 
L 371.61 -76.342953 
L 371.61 -76.006501 
L 371.61 -75.670049 
L 371.61 -75.333597 
L 371.61 -74.997145 
L 371.61 -74.660693 
L 371.61 -74.324242 
L 371.61 -73.98779 
L 371.61 -73.651338 
L 371.61 -73.314886 
L 371.61 -72.978434 
L 371.61 -72.641982 
L 371.61 -72.30553 
L 371.61 -71.969078 
L 371.61 -71.632626 
L 371.61 -71.296174 
L 371.61 -70.959722 
L 371.61 -70.62327 
L 371.61 -70.286818 
L 371.61 -69.950366 
L 371.61 -69.613914 
L 371.61 -69.277463 
L 371.61 -68.941011 
L 371.61 -68.604559 
L 371.61 -68.268107 
L 371.61 -67.931655 
L 371.61 -67.595203 
L 371.61 -67.258751 
L 371.61 -66.922299 
L 371.61 -66.585847 
L 371.61 -66.249395 
L 371.61 -65.912943 
L 371.61 -65.576491 
L 371.61 -65.240039 
L 371.61 -64.903587 
L 371.61 -64.567135 
L 371.61 -64.230684 
L 371.61 -63.894232 
L 371.61 -63.55778 
L 371.61 -63.221328 
L 371.61 -62.884876 
L 371.61 -62.548424 
L 371.61 -62.211972 
L 371.61 -61.87552 
L 371.61 -61.539068 
L 371.61 -61.202616 
L 371.61 -60.866164 
L 371.61 -60.529712 
L 371.61 -60.19326 
L 371.61 -59.856808 
L 371.61 -59.520356 
L 371.61 -59.183905 
L 371.61 -58.847453 
L 371.61 -58.511001 
L 371.61 -58.174549 
L 371.61 -57.838097 
L 371.61 -57.501645 
L 371.61 -57.165193 
L 371.61 -56.828741 
L 371.61 -56.492289 
L 371.61 -56.155837 
z
" style="stroke: #1a1a1a; stroke-width: 0.5"/>
    </defs>
    <g clip-path="url(#pb40c91e473)">
     <use xlink:href="#m9fc8364730" x="0" y="144" style="fill: #0b4d0b; stroke: #1a1a1a; stroke-width: 0.5"/>
    </g>
   </g>
   <g id="FillBetweenPolyCollection_12">
    <defs>
     <path id="me8096a370f" d="M 381.137399 -56.057342 
L 377.19 -56.057342 
L 377.19 -56.720197 
L 377.19 -57.383052 
L 377.19 -58.045907 
L 377.19 -58.708762 
L 377.19 -59.371618 
L 377.19 -60.034473 
L 377.19 -60.697328 
L 377.19 -61.360183 
L 377.19 -62.023038 
L 377.19 -62.685893 
L 377.19 -63.348748 
L 377.19 -64.011603 
L 377.19 -64.674459 
L 377.19 -65.337314 
L 377.19 -66.000169 
L 377.19 -66.663024 
L 377.19 -67.325879 
L 377.19 -67.988734 
L 377.19 -68.651589 
L 377.19 -69.314445 
L 377.19 -69.9773 
L 377.19 -70.640155 
L 377.19 -71.30301 
L 377.19 -71.965865 
L 377.19 -72.62872 
L 377.19 -73.291575 
L 377.19 -73.95443 
L 377.19 -74.617286 
L 377.19 -75.280141 
L 377.19 -75.942996 
L 377.19 -76.605851 
L 377.19 -77.268706 
L 377.19 -77.931561 
L 377.19 -78.594416 
L 377.19 -79.257272 
L 377.19 -79.920127 
L 377.19 -80.582982 
L 377.19 -81.245837 
L 377.19 -81.908692 
L 377.19 -82.571547 
L 377.19 -83.234402 
L 377.19 -83.897257 
L 377.19 -84.560113 
L 377.19 -85.222968 
L 377.19 -85.885823 
L 377.19 -86.548678 
L 377.19 -87.211533 
L 377.19 -87.874388 
L 377.19 -88.537243 
L 377.19 -89.200099 
L 377.19 -89.862954 
L 377.19 -90.525809 
L 377.19 -91.188664 
L 377.19 -91.851519 
L 377.19 -92.514374 
L 377.19 -93.177229 
L 377.19 -93.840084 
L 377.19 -94.50294 
L 377.19 -95.165795 
L 377.19 -95.82865 
L 377.19 -96.491505 
L 377.19 -97.15436 
L 377.19 -97.817215 
L 377.19 -98.48007 
L 377.19 -99.142925 
L 377.19 -99.805781 
L 377.19 -100.468636 
L 377.19 -101.131491 
L 377.19 -101.794346 
L 377.19 -102.457201 
L 377.19 -103.120056 
L 377.19 -103.782911 
L 377.19 -104.445767 
L 377.19 -105.108622 
L 377.19 -105.771477 
L 377.19 -106.434332 
L 377.19 -107.097187 
L 377.19 -107.760042 
L 377.19 -108.422897 
L 377.19 -109.085752 
L 377.19 -109.748608 
L 377.19 -110.411463 
L 377.19 -111.074318 
L 377.19 -111.737173 
L 377.19 -112.400028 
L 377.19 -113.062883 
L 377.19 -113.725738 
L 377.19 -114.388594 
L 377.19 -115.051449 
L 377.19 -115.714304 
L 377.19 -116.377159 
L 377.19 -117.040014 
L 377.19 -117.702869 
L 377.19 -118.365724 
L 377.19 -119.028579 
L 377.19 -119.691435 
L 377.19 -120.35429 
L 377.19 -121.017145 
L 377.19 -121.68 
L 380.46589 -121.68 
L 380.46589 -121.68 
L 380.045762 -121.017145 
L 379.08191 -120.35429 
L 378.142499 -119.691435 
L 377.55443 -119.028579 
L 377.295962 -118.365724 
L 377.213414 -117.702869 
L 377.193932 -117.040014 
L 377.190502 -116.377159 
L 377.190049 -115.714304 
L 377.190004 -115.051449 
L 377.19 -114.388594 
L 377.19 -113.725738 
L 377.19 -113.062883 
L 377.19 -112.400028 
L 377.19 -111.737173 
L 377.19 -111.074318 
L 377.19 -110.411463 
L 377.19 -109.748608 
L 377.19 -109.085752 
L 377.19 -108.422897 
L 377.19 -107.760042 
L 377.19 -107.097187 
L 377.19 -106.434332 
L 377.19 -105.771477 
L 377.19 -105.108622 
L 377.19 -104.445767 
L 377.19 -103.782911 
L 377.19 -103.120056 
L 377.19 -102.457201 
L 377.19 -101.794346 
L 377.19 -101.131491 
L 377.19 -100.468636 
L 377.19 -99.805781 
L 377.19 -99.142925 
L 377.19 -98.48007 
L 377.190005 -97.817215 
L 377.190064 -97.15436 
L 377.190642 -96.491505 
L 377.194875 -95.82865 
L 377.218154 -95.165795 
L 377.313591 -94.50294 
L 377.602708 -93.840084 
L 378.240193 -93.177229 
L 379.236577 -92.514374 
L 380.286317 -91.851519 
L 380.955322 -91.188664 
L 381.149486 -90.525809 
L 381.161501 -89.862954 
L 381.136045 -89.200099 
L 380.855202 -88.537243 
L 380.259135 -87.874388 
L 379.813026 -87.211533 
L 380.070831 -86.548678 
L 381.039939 -85.885823 
L 382.14354 -85.222968 
L 382.718003 -84.560113 
L 382.47039 -83.897257 
L 381.628801 -83.234402 
L 380.808807 -82.571547 
L 380.555765 -81.908692 
L 380.867092 -81.245837 
L 381.371022 -80.582982 
L 382.049345 -79.920127 
L 383.355352 -79.257272 
L 385.291133 -78.594416 
L 386.771585 -77.931561 
L 386.531535 -77.268706 
L 384.623123 -76.605851 
L 382.539365 -75.942996 
L 381.840034 -75.280141 
L 382.966903 -74.617286 
L 385.329857 -73.95443 
L 388.1903 -73.291575 
L 391.266227 -72.62872 
L 394.53005 -71.965865 
L 397.605221 -71.30301 
L 399.51 -70.640155 
L 399.1921 -69.9773 
L 396.538905 -69.314445 
L 392.629618 -68.651589 
L 388.721168 -67.988734 
L 385.421076 -67.325879 
L 383.128071 -66.663024 
L 382.651795 -66.000169 
L 384.771523 -65.337314 
L 389.126889 -64.674459 
L 393.766755 -64.011603 
L 396.204913 -63.348748 
L 395.221886 -62.685893 
L 391.577871 -62.023038 
L 387.088474 -61.360183 
L 383.366738 -60.697328 
L 381.247503 -60.034473 
L 380.701376 -59.371618 
L 381.028366 -58.708762 
L 381.439003 -58.045907 
L 381.604684 -57.383052 
L 381.535846 -56.720197 
L 381.137399 -56.057342 
z
" style="stroke: #1a1a1a; stroke-width: 0.5"/>
    </defs>
    <g clip-path="url(#pb40c91e473)">
     <use xlink:href="#me8096a370f" x="0" y="144" style="fill: #eba9d7; stroke: #1a1a1a; stroke-width: 0.5"/>
    </g>
   </g>
   <g id="FillBetweenPolyCollection_13">
    <defs>
     <path id="m98764f6d0f" d="M 427.41 -66.64359 
L 416.361434 -66.64359 
L 414.566402 -66.831279 
L 413.45883 -67.018967 
L 413.230687 -67.206656 
L 413.917239 -67.394344 
L 415.347432 -67.582033 
L 417.152513 -67.769722 
L 418.868832 -67.95741 
L 420.113321 -68.145099 
L 420.745825 -68.332788 
L 420.919568 -68.520476 
L 420.979858 -68.708165 
L 421.26477 -68.895854 
L 421.9227 -69.083542 
L 422.844684 -69.271231 
L 423.728727 -69.458919 
L 424.214734 -69.646608 
L 424.009508 -69.834297 
L 422.959564 -70.021985 
L 421.075738 -70.209674 
L 418.528065 -70.397363 
L 415.616415 -70.585051 
L 412.71018 -70.77274 
L 410.157304 -70.960428 
L 408.186423 -71.148117 
L 406.847321 -71.335806 
L 406.028507 -71.523494 
L 405.546517 -71.711183 
L 405.25167 -71.898872 
L 405.09 -72.08656 
L 405.105536 -72.274249 
L 405.405961 -72.461938 
L 406.108439 -72.649626 
L 407.261905 -72.837315 
L 408.75795 -73.025003 
L 410.285918 -73.212692 
L 411.399756 -73.400381 
L 411.708595 -73.588069 
L 411.10799 -73.775758 
L 409.90519 -73.963447 
L 408.725375 -74.151135 
L 408.220936 -74.338824 
L 408.754485 -74.526512 
L 410.259054 -74.714201 
L 412.348527 -74.90189 
L 414.563704 -75.089578 
L 416.563611 -75.277267 
L 418.166784 -75.464956 
L 419.300465 -75.652644 
L 419.969963 -75.840333 
L 420.282858 -76.028021 
L 420.463369 -76.21571 
L 420.786901 -76.403399 
L 421.451031 -76.591087 
L 422.474754 -76.778776 
L 423.70227 -76.966465 
L 424.902308 -77.154153 
L 425.885346 -77.341842 
L 426.564578 -77.529531 
L 426.941617 -77.717219 
L 427.04776 -77.904908 
L 426.884589 -78.092596 
L 426.394605 -78.280285 
L 425.476817 -78.467974 
L 424.04968 -78.655662 
L 422.144132 -78.843351 
L 419.980405 -79.03104 
L 417.965562 -79.218728 
L 416.574896 -79.406417 
L 416.150972 -79.594105 
L 416.723676 -79.781794 
L 417.962284 -79.969483 
L 419.299001 -80.157171 
L 420.161486 -80.34486 
L 420.192808 -80.532549 
L 419.356751 -80.720237 
L 417.901382 -80.907926 
L 416.230026 -81.095614 
L 414.760969 -81.283303 
L 413.833378 -81.470992 
L 413.663646 -81.65868 
L 414.320953 -81.846369 
L 415.701692 -82.034058 
L 417.521447 -82.221746 
L 419.363344 -82.409435 
L 420.795745 -82.597124 
L 421.519986 -82.784812 
L 421.474967 -82.972501 
L 420.839699 -83.160189 
L 419.931725 -83.347878 
L 419.061995 -83.535567 
L 418.429264 -83.723255 
L 418.098509 -83.910944 
L 418.041048 -84.098633 
L 418.182697 -84.286321 
L 418.435495 -84.47401 
L 418.730174 -84.661698 
L 419.060128 -84.849387 
L 419.504368 -85.037076 
L 420.186755 -85.224764 
L 427.41 -85.224764 
L 427.41 -85.224764 
L 427.41 -85.037076 
L 427.41 -84.849387 
L 427.41 -84.661698 
L 427.41 -84.47401 
L 427.41 -84.286321 
L 427.41 -84.098633 
L 427.41 -83.910944 
L 427.41 -83.723255 
L 427.41 -83.535567 
L 427.41 -83.347878 
L 427.41 -83.160189 
L 427.41 -82.972501 
L 427.41 -82.784812 
L 427.41 -82.597124 
L 427.41 -82.409435 
L 427.41 -82.221746 
L 427.41 -82.034058 
L 427.41 -81.846369 
L 427.41 -81.65868 
L 427.41 -81.470992 
L 427.41 -81.283303 
L 427.41 -81.095614 
L 427.41 -80.907926 
L 427.41 -80.720237 
L 427.41 -80.532549 
L 427.41 -80.34486 
L 427.41 -80.157171 
L 427.41 -79.969483 
L 427.41 -79.781794 
L 427.41 -79.594105 
L 427.41 -79.406417 
L 427.41 -79.218728 
L 427.41 -79.03104 
L 427.41 -78.843351 
L 427.41 -78.655662 
L 427.41 -78.467974 
L 427.41 -78.280285 
L 427.41 -78.092596 
L 427.41 -77.904908 
L 427.41 -77.717219 
L 427.41 -77.529531 
L 427.41 -77.341842 
L 427.41 -77.154153 
L 427.41 -76.966465 
L 427.41 -76.778776 
L 427.41 -76.591087 
L 427.41 -76.403399 
L 427.41 -76.21571 
L 427.41 -76.028021 
L 427.41 -75.840333 
L 427.41 -75.652644 
L 427.41 -75.464956 
L 427.41 -75.277267 
L 427.41 -75.089578 
L 427.41 -74.90189 
L 427.41 -74.714201 
L 427.41 -74.526512 
L 427.41 -74.338824 
L 427.41 -74.151135 
L 427.41 -73.963447 
L 427.41 -73.775758 
L 427.41 -73.588069 
L 427.41 -73.400381 
L 427.41 -73.212692 
L 427.41 -73.025003 
L 427.41 -72.837315 
L 427.41 -72.649626 
L 427.41 -72.461938 
L 427.41 -72.274249 
L 427.41 -72.08656 
L 427.41 -71.898872 
L 427.41 -71.711183 
L 427.41 -71.523494 
L 427.41 -71.335806 
L 427.41 -71.148117 
L 427.41 -70.960428 
L 427.41 -70.77274 
L 427.41 -70.585051 
L 427.41 -70.397363 
L 427.41 -70.209674 
L 427.41 -70.021985 
L 427.41 -69.834297 
L 427.41 -69.646608 
L 427.41 -69.458919 
L 427.41 -69.271231 
L 427.41 -69.083542 
L 427.41 -68.895854 
L 427.41 -68.708165 
L 427.41 -68.520476 
L 427.41 -68.332788 
L 427.41 -68.145099 
L 427.41 -67.95741 
L 427.41 -67.769722 
L 427.41 -67.582033 
L 427.41 -67.394344 
L 427.41 -67.206656 
L 427.41 -67.018967 
L 427.41 -66.831279 
L 427.41 -66.64359 
z
" style="stroke: #1a1a1a; stroke-width: 0.5"/>
    </defs>
    <g clip-path="url(#pb40c91e473)">
     <use xlink:href="#m98764f6d0f" x="0" y="144" style="fill: #935851; stroke: #1a1a1a; stroke-width: 0.5"/>
    </g>
   </g>
   <g id="FillBetweenPolyCollection_14">
    <defs>
     <path id="m9f56069c6c" d="M 437.42612 -50.956023 
L 432.99 -50.956023 
L 432.99 -51.380506 
L 432.99 -51.80499 
L 432.99 -52.229474 
L 432.99 -52.653958 
L 432.99 -53.078441 
L 432.99 -53.502925 
L 432.99 -53.927409 
L 432.99 -54.351893 
L 432.99 -54.776376 
L 432.99 -55.20086 
L 432.99 -55.625344 
L 432.99 -56.049828 
L 432.99 -56.474311 
L 432.99 -56.898795 
L 432.99 -57.323279 
L 432.99 -57.747763 
L 432.99 -58.172246 
L 432.99 -58.59673 
L 432.99 -59.021214 
L 432.99 -59.445698 
L 432.99 -59.870181 
L 432.99 -60.294665 
L 432.99 -60.719149 
L 432.99 -61.143633 
L 432.99 -61.568117 
L 432.99 -61.9926 
L 432.99 -62.417084 
L 432.99 -62.841568 
L 432.99 -63.266052 
L 432.99 -63.690535 
L 432.99 -64.115019 
L 432.99 -64.539503 
L 432.99 -64.963987 
L 432.99 -65.38847 
L 432.99 -65.812954 
L 432.99 -66.237438 
L 432.99 -66.661922 
L 432.99 -67.086405 
L 432.99 -67.510889 
L 432.99 -67.935373 
L 432.99 -68.359857 
L 432.99 -68.78434 
L 432.99 -69.208824 
L 432.99 -69.633308 
L 432.99 -70.057792 
L 432.99 -70.482276 
L 432.99 -70.906759 
L 432.99 -71.331243 
L 432.99 -71.755727 
L 432.99 -72.180211 
L 432.99 -72.604694 
L 432.99 -73.029178 
L 432.99 -73.453662 
L 432.99 -73.878146 
L 432.99 -74.302629 
L 432.99 -74.727113 
L 432.99 -75.151597 
L 432.99 -75.576081 
L 432.99 -76.000564 
L 432.99 -76.425048 
L 432.99 -76.849532 
L 432.99 -77.274016 
L 432.99 -77.698499 
L 432.99 -78.122983 
L 432.99 -78.547467 
L 432.99 -78.971951 
L 432.99 -79.396434 
L 432.99 -79.820918 
L 432.99 -80.245402 
L 432.99 -80.669886 
L 432.99 -81.09437 
L 432.99 -81.518853 
L 432.99 -81.943337 
L 432.99 -82.367821 
L 432.99 -82.792305 
L 432.99 -83.216788 
L 432.99 -83.641272 
L 432.99 -84.065756 
L 432.99 -84.49024 
L 432.99 -84.914723 
L 432.99 -85.339207 
L 432.99 -85.763691 
L 432.99 -86.188175 
L 432.99 -86.612658 
L 432.99 -87.037142 
L 432.99 -87.461626 
L 432.99 -87.88611 
L 432.99 -88.310593 
L 432.99 -88.735077 
L 432.99 -89.159561 
L 432.99 -89.584045 
L 432.99 -90.008529 
L 432.99 -90.433012 
L 432.99 -90.857496 
L 432.99 -91.28198 
L 432.99 -91.706464 
L 432.99 -92.130947 
L 432.99 -92.555431 
L 432.99 -92.979915 
L 441.442303 -92.979915 
L 441.442303 -92.979915 
L 441.454294 -92.555431 
L 440.047079 -92.130947 
L 437.903531 -91.706464 
L 435.904059 -91.28198 
L 434.636295 -90.857496 
L 434.275968 -90.433012 
L 434.727008 -90.008529 
L 435.720258 -89.584045 
L 436.819887 -89.159561 
L 437.538472 -88.735077 
L 437.634601 -88.310593 
L 437.326274 -87.88611 
L 437.116103 -87.461626 
L 437.334053 -87.037142 
L 437.863713 -86.612658 
L 438.341911 -86.188175 
L 438.584768 -85.763691 
L 438.745516 -85.339207 
L 439.0817 -84.914723 
L 439.713424 -84.49024 
L 440.672792 -84.065756 
L 442.024016 -83.641272 
L 443.726078 -83.216788 
L 445.396672 -82.792305 
L 446.405396 -82.367821 
L 446.307167 -81.943337 
L 445.14433 -81.518853 
L 443.304715 -81.09437 
L 441.174836 -80.669886 
L 439.00045 -80.245402 
L 436.9933 -79.820918 
L 435.411776 -79.396434 
L 434.491284 -78.971951 
L 434.349352 -78.547467 
L 434.953383 -78.122983 
L 436.109768 -77.698499 
L 437.499669 -77.274016 
L 438.872665 -76.849532 
L 440.322981 -76.425048 
L 442.319225 -76.000564 
L 445.304004 -75.576081 
L 449.147072 -75.151597 
L 452.935293 -74.727113 
L 455.31 -74.302629 
L 455.184868 -73.878146 
L 452.446229 -73.453662 
L 448.155572 -73.029178 
L 444.000667 -72.604694 
L 441.330782 -72.180211 
L 440.530596 -71.755727 
L 441.177857 -71.331243 
L 442.673754 -70.906759 
L 444.653929 -70.482276 
L 446.838744 -70.057792 
L 448.647717 -69.633308 
L 449.205456 -69.208824 
L 447.951019 -68.78434 
L 445.284409 -68.359857 
L 442.466317 -67.935373 
L 440.735994 -67.510889 
L 440.45485 -67.086405 
L 441.002647 -66.661922 
L 441.382388 -66.237438 
L 440.959281 -65.812954 
L 439.817684 -65.38847 
L 438.574094 -64.963987 
L 437.835865 -64.539503 
L 437.718051 -64.115019 
L 437.795837 -63.690535 
L 437.515373 -63.266052 
L 436.667757 -62.841568 
L 435.494343 -62.417084 
L 434.403521 -61.9926 
L 433.648832 -61.568117 
L 433.243249 -61.143633 
L 433.070246 -60.719149 
L 433.010958 -60.294665 
L 432.994511 -59.870181 
L 432.9908 -59.445698 
L 432.990117 -59.021214 
L 432.990014 -58.59673 
L 432.990001 -58.172246 
L 432.99 -57.747763 
L 432.99 -57.323279 
L 432.99 -56.898795 
L 432.99 -56.474311 
L 432.990004 -56.049828 
L 432.990037 -55.625344 
L 432.99028 -55.20086 
L 432.991758 -54.776376 
L 432.9991 -54.351893 
L 433.028819 -53.927409 
L 433.126468 -53.502925 
L 433.385387 -53.078441 
L 433.934095 -52.653958 
L 434.847849 -52.229474 
L 436.003051 -51.80499 
L 437.017208 -51.380506 
L 437.42612 -50.956023 
z
" style="stroke: #1a1a1a; stroke-width: 0.5"/>
    </defs>
    <g clip-path="url(#pb40c91e473)">
     <use xlink:href="#m9f56069c6c" x="0" y="144" style="fill: #0f0f6c; stroke: #1a1a1a; stroke-width: 0.5"/>
    </g>
   </g>
   <g id="FillBetweenPolyCollection_15">
    <defs>
     <path id="m124041b204" d="M 483.21 -67.672222 
L 479.004788 -67.672222 
L 478.670353 -68.0183 
L 478.568592 -68.364378 
L 478.601555 -68.710457 
L 478.80934 -69.056535 
L 479.312544 -69.402613 
L 480.128998 -69.748691 
L 481.093719 -70.094769 
L 481.966142 -70.440847 
L 482.589259 -70.786925 
L 482.947563 -71.133003 
L 483.113779 -71.479081 
L 483.167967 -71.825159 
L 483.145875 -72.171237 
L 483.011335 -72.517315 
L 482.630443 -72.863393 
L 481.760746 -73.209471 
L 480.116307 -73.555549 
L 477.55901 -73.901627 
L 474.344598 -74.247705 
L 471.197119 -74.593783 
L 469.017966 -74.939861 
L 468.353875 -75.285939 
L 469.065137 -75.632017 
L 470.521293 -75.978095 
L 472.133666 -76.324174 
L 473.688326 -76.670252 
L 475.190927 -77.01633 
L 476.475011 -77.362408 
L 477.037479 -77.708486 
L 476.291901 -78.054564 
L 474.043145 -78.400642 
L 470.818177 -78.74672 
L 467.76464 -79.092798 
L 466.081552 -79.438876 
L 466.300668 -79.784954 
L 467.955317 -80.131032 
L 469.952106 -80.47711 
L 471.366208 -80.823188 
L 471.9794 -81.169266 
L 472.149206 -81.515344 
L 472.27275 -81.861422 
L 472.438015 -82.2075 
L 472.52545 -82.553578 
L 472.494878 -82.899656 
L 472.459155 -83.245734 
L 472.477497 -83.591812 
L 472.368453 -83.937891 
L 471.806364 -84.283969 
L 470.586374 -84.630047 
L 468.748263 -84.976125 
L 466.496179 -85.322203 
L 464.126361 -85.668281 
L 462.069028 -86.014359 
L 460.89 -86.360437 
L 461.095874 -86.706515 
L 462.823463 -87.052593 
L 465.666233 -87.398671 
L 468.817768 -87.744749 
L 471.461224 -88.090827 
L 473.147313 -88.436905 
L 473.948177 -88.782983 
L 474.335799 -89.129061 
L 474.845449 -89.475139 
L 475.682478 -89.821217 
L 476.528408 -90.167295 
L 476.730847 -90.513373 
L 475.777846 -90.859451 
L 473.711473 -91.205529 
L 471.16754 -91.551607 
L 469.012886 -91.897686 
L 467.86399 -92.243764 
L 467.851129 -92.589842 
L 468.744965 -92.93592 
L 470.223656 -93.281998 
L 472.005841 -93.628076 
L 473.839562 -93.974154 
L 475.521595 -94.320232 
L 476.978783 -94.66631 
L 478.257577 -95.012388 
L 479.371977 -95.358466 
L 480.183616 -95.704544 
L 480.47315 -96.050622 
L 480.137768 -96.3967 
L 479.319118 -96.742778 
L 478.351629 -97.088856 
L 477.590477 -97.434934 
L 477.258499 -97.781012 
L 477.386802 -98.12709 
L 477.824509 -98.473168 
L 478.295008 -98.819246 
L 478.520668 -99.165324 
L 478.375223 -99.511403 
L 477.929785 -99.857481 
L 477.342245 -100.203559 
L 476.733393 -100.549637 
L 476.201792 -100.895715 
L 475.917934 -101.241793 
L 476.114526 -101.587871 
L 476.929838 -101.933949 
L 483.21 -101.933949 
L 483.21 -101.933949 
L 483.21 -101.587871 
L 483.21 -101.241793 
L 483.21 -100.895715 
L 483.21 -100.549637 
L 483.21 -100.203559 
L 483.21 -99.857481 
L 483.21 -99.511403 
L 483.21 -99.165324 
L 483.21 -98.819246 
L 483.21 -98.473168 
L 483.21 -98.12709 
L 483.21 -97.781012 
L 483.21 -97.434934 
L 483.21 -97.088856 
L 483.21 -96.742778 
L 483.21 -96.3967 
L 483.21 -96.050622 
L 483.21 -95.704544 
L 483.21 -95.358466 
L 483.21 -95.012388 
L 483.21 -94.66631 
L 483.21 -94.320232 
L 483.21 -93.974154 
L 483.21 -93.628076 
L 483.21 -93.281998 
L 483.21 -92.93592 
L 483.21 -92.589842 
L 483.21 -92.243764 
L 483.21 -91.897686 
L 483.21 -91.551607 
L 483.21 -91.205529 
L 483.21 -90.859451 
L 483.21 -90.513373 
L 483.21 -90.167295 
L 483.21 -89.821217 
L 483.21 -89.475139 
L 483.21 -89.129061 
L 483.21 -88.782983 
L 483.21 -88.436905 
L 483.21 -88.090827 
L 483.21 -87.744749 
L 483.21 -87.398671 
L 483.21 -87.052593 
L 483.21 -86.706515 
L 483.21 -86.360437 
L 483.21 -86.014359 
L 483.21 -85.668281 
L 483.21 -85.322203 
L 483.21 -84.976125 
L 483.21 -84.630047 
L 483.21 -84.283969 
L 483.21 -83.937891 
L 483.21 -83.591812 
L 483.21 -83.245734 
L 483.21 -82.899656 
L 483.21 -82.553578 
L 483.21 -82.2075 
L 483.21 -81.861422 
L 483.21 -81.515344 
L 483.21 -81.169266 
L 483.21 -80.823188 
L 483.21 -80.47711 
L 483.21 -80.131032 
L 483.21 -79.784954 
L 483.21 -79.438876 
L 483.21 -79.092798 
L 483.21 -78.74672 
L 483.21 -78.400642 
L 483.21 -78.054564 
L 483.21 -77.708486 
L 483.21 -77.362408 
L 483.21 -77.01633 
L 483.21 -76.670252 
L 483.21 -76.324174 
L 483.21 -75.978095 
L 483.21 -75.632017 
L 483.21 -75.285939 
L 483.21 -74.939861 
L 483.21 -74.593783 
L 483.21 -74.247705 
L 483.21 -73.901627 
L 483.21 -73.555549 
L 483.21 -73.209471 
L 483.21 -72.863393 
L 483.21 -72.517315 
L 483.21 -72.171237 
L 483.21 -71.825159 
L 483.21 -71.479081 
L 483.21 -71.133003 
L 483.21 -70.786925 
L 483.21 -70.440847 
L 483.21 -70.094769 
L 483.21 -69.748691 
L 483.21 -69.402613 
L 483.21 -69.056535 
L 483.21 -68.710457 
L 483.21 -68.364378 
L 483.21 -68.0183 
L 483.21 -67.672222 
z
" style="stroke: #1a1a1a; stroke-width: 0.5"/>
    </defs>
    <g clip-path="url(#pb40c91e473)">
     <use xlink:href="#m124041b204" x="0" y="144" style="fill: #dfbe20; stroke: #1a1a1a; stroke-width: 0.5"/>
    </g>
   </g>
   <g id="matplotlib.axis_1">
    <g id="xtick_1">
     <g id="line2d_1">
      <defs>
       <path id="m5d76d0e89b" d="M 0 0 
L 0 -3 
" style="stroke: #000000; stroke-width: 0.5"/>
      </defs>
      <g>
       <use xlink:href="#m5d76d0e89b" x="81.45" y="128.16" style="stroke: #000000; stroke-width: 0.5"/>
      </g>
     </g>
     <g id="text_1">
      <text style="font-size: 7px; font-family: 'DejaVu Sans', 'Bitstream Vera Sans', 'Computer Modern Sans Serif', 'Lucida Grande', 'Verdana', 'Geneva', 'Lucid', 'Arial', 'Helvetica', 'Avant Garde', sans-serif" transform="translate(77.194766 136.978906)">PJ,</text>
      <text style="font-size: 7px; font-family: 'DejaVu Sans', 'Bitstream Vera Sans', 'Computer Modern Sans Serif', 'Lucida Grande', 'Verdana', 'Geneva', 'Lucid', 'Arial', 'Helvetica', 'Avant Garde', sans-serif" transform="translate(68.506016 144.817375)"> n=477</text>
     </g>
    </g>
    <g id="xtick_2">
     <g id="line2d_2">
      <g>
       <use xlink:href="#m5d76d0e89b" x="109.35" y="128.16" style="stroke: #000000; stroke-width: 0.5"/>
      </g>
     </g>
     <g id="text_2">
      <text style="font-size: 7px; font-family: 'DejaVu Sans', 'Bitstream Vera Sans', 'Computer Modern Sans Serif', 'Lucida Grande', 'Verdana', 'Geneva', 'Lucid', 'Arial', 'Helvetica', 'Avant Garde', sans-serif" transform="translate(103.460703 136.978906)">AC,</text>
      <text style="font-size: 7px; font-family: 'DejaVu Sans', 'Bitstream Vera Sans', 'Computer Modern Sans Serif', 'Lucida Grande', 'Verdana', 'Geneva', 'Lucid', 'Arial', 'Helvetica', 'Avant Garde', sans-serif" transform="translate(96.406016 144.817375)"> n=740</text>
     </g>
    </g>
    <g id="xtick_3">
     <g id="line2d_3">
      <g>
       <use xlink:href="#m5d76d0e89b" x="137.25" y="128.16" style="stroke: #000000; stroke-width: 0.5"/>
      </g>
     </g>
     <g id="text_3">
      <text style="font-size: 7px; font-family: 'DejaVu Sans', 'Bitstream Vera Sans', 'Computer Modern Sans Serif', 'Lucida Grande', 'Verdana', 'Geneva', 'Lucid', 'Arial', 'Helvetica', 'Avant Garde', sans-serif" transform="translate(131.104219 136.978906)">BH,</text>
      <text style="font-size: 7px; font-family: 'DejaVu Sans', 'Bitstream Vera Sans', 'Computer Modern Sans Serif', 'Lucida Grande', 'Verdana', 'Geneva', 'Lucid', 'Arial', 'Helvetica', 'Avant Garde', sans-serif" transform="translate(124.306016 144.817375)"> n=613</text>
     </g>
    </g>
    <g id="xtick_4">
     <g id="line2d_4">
      <g>
       <use xlink:href="#m5d76d0e89b" x="165.15" y="128.16" style="stroke: #000000; stroke-width: 0.5"/>
      </g>
     </g>
     <g id="text_4">
      <text style="font-size: 7px; font-family: 'DejaVu Sans', 'Bitstream Vera Sans', 'Computer Modern Sans Serif', 'Lucida Grande', 'Verdana', 'Geneva', 'Lucid', 'Arial', 'Helvetica', 'Avant Garde', sans-serif" transform="translate(159.875937 136.978906)">EL,</text>
      <text style="font-size: 7px; font-family: 'DejaVu Sans', 'Bitstream Vera Sans', 'Computer Modern Sans Serif', 'Lucida Grande', 'Verdana', 'Geneva', 'Lucid', 'Arial', 'Helvetica', 'Avant Garde', sans-serif" transform="translate(152.206016 144.817375)"> n=490</text>
     </g>
    </g>
    <g id="xtick_5">
     <g id="line2d_5">
      <g>
       <use xlink:href="#m5d76d0e89b" x="193.05" y="128.16" style="stroke: #000000; stroke-width: 0.5"/>
      </g>
     </g>
     <g id="text_5">
      <text style="font-size: 7px; font-family: 'DejaVu Sans', 'Bitstream Vera Sans', 'Computer Modern Sans Serif', 'Lucida Grande', 'Verdana', 'Geneva', 'Lucid', 'Arial', 'Helvetica', 'Avant Garde', sans-serif" transform="translate(187.814219 136.978906)">FP,</text>
      <text style="font-size: 7px; font-family: 'DejaVu Sans', 'Bitstream Vera Sans', 'Computer Modern Sans Serif', 'Lucida Grande', 'Verdana', 'Geneva', 'Lucid', 'Arial', 'Helvetica', 'Avant Garde', sans-serif" transform="translate(180.106016 144.817375)"> n=657</text>
     </g>
    </g>
    <g id="xtick_6">
     <g id="line2d_6">
      <g>
       <use xlink:href="#m5d76d0e89b" x="220.95" y="128.16" style="stroke: #000000; stroke-width: 0.5"/>
      </g>
     </g>
     <g id="text_6">
      <text style="font-size: 7px; font-family: 'DejaVu Sans', 'Bitstream Vera Sans', 'Computer Modern Sans Serif', 'Lucida Grande', 'Verdana', 'Geneva', 'Lucid', 'Arial', 'Helvetica', 'Avant Garde', sans-serif" transform="translate(215.129609 136.978906)">DF,</text>
      <text style="font-size: 7px; font-family: 'DejaVu Sans', 'Bitstream Vera Sans', 'Computer Modern Sans Serif', 'Lucida Grande', 'Verdana', 'Geneva', 'Lucid', 'Arial', 'Helvetica', 'Avant Garde', sans-serif" transform="translate(208.006016 144.817375)"> n=686</text>
     </g>
    </g>
    <g id="xtick_7">
     <g id="line2d_7">
      <g>
       <use xlink:href="#m5d76d0e89b" x="248.85" y="128.16" style="stroke: #000000; stroke-width: 0.5"/>
      </g>
     </g>
     <g id="text_7">
      <text style="font-size: 7px; font-family: 'DejaVu Sans', 'Bitstream Vera Sans', 'Computer Modern Sans Serif', 'Lucida Grande', 'Verdana', 'Geneva', 'Lucid', 'Arial', 'Helvetica', 'Avant Garde', sans-serif" transform="translate(243.386172 136.978906)">BL,</text>
      <text style="font-size: 7px; font-family: 'DejaVu Sans', 'Bitstream Vera Sans', 'Computer Modern Sans Serif', 'Lucida Grande', 'Verdana', 'Geneva', 'Lucid', 'Arial', 'Helvetica', 'Avant Garde', sans-serif" transform="translate(235.906016 144.817375)"> n=648</text>
     </g>
    </g>
    <g id="xtick_8">
     <g id="line2d_8">
      <g>
       <use xlink:href="#m5d76d0e89b" x="276.75" y="128.16" style="stroke: #000000; stroke-width: 0.5"/>
      </g>
     </g>
     <g id="text_8">
      <text style="font-size: 7px; font-family: 'DejaVu Sans', 'Bitstream Vera Sans', 'Computer Modern Sans Serif', 'Lucida Grande', 'Verdana', 'Geneva', 'Lucid', 'Arial', 'Helvetica', 'Avant Garde', sans-serif" transform="translate(272.173203 136.978906)">RI,</text>
      <text style="font-size: 7px; font-family: 'DejaVu Sans', 'Bitstream Vera Sans', 'Computer Modern Sans Serif', 'Lucida Grande', 'Verdana', 'Geneva', 'Lucid', 'Arial', 'Helvetica', 'Avant Garde', sans-serif" transform="translate(263.806016 144.817375)"> n=636</text>
     </g>
    </g>
    <g id="xtick_9">
     <g id="line2d_9">
      <g>
       <use xlink:href="#m5d76d0e89b" x="304.65" y="128.16" style="stroke: #000000; stroke-width: 0.5"/>
      </g>
     </g>
     <g id="text_9">
      <text style="font-size: 7px; font-family: 'DejaVu Sans', 'Bitstream Vera Sans', 'Computer Modern Sans Serif', 'Lucida Grande', 'Verdana', 'Geneva', 'Lucid', 'Arial', 'Helvetica', 'Avant Garde', sans-serif" transform="translate(298.649687 136.978906)">CC,</text>
      <text style="font-size: 7px; font-family: 'DejaVu Sans', 'Bitstream Vera Sans', 'Computer Modern Sans Serif', 'Lucida Grande', 'Verdana', 'Geneva', 'Lucid', 'Arial', 'Helvetica', 'Avant Garde', sans-serif" transform="translate(291.706016 144.817375)"> n=572</text>
     </g>
    </g>
    <g id="xtick_10">
     <g id="line2d_10">
      <g>
       <use xlink:href="#m5d76d0e89b" x="332.55" y="128.16" style="stroke: #000000; stroke-width: 0.5"/>
      </g>
     </g>
     <g id="text_10">
      <text style="font-size: 7px; font-family: 'DejaVu Sans', 'Bitstream Vera Sans', 'Computer Modern Sans Serif', 'Lucida Grande', 'Verdana', 'Geneva', 'Lucid', 'Arial', 'Helvetica', 'Avant Garde', sans-serif" transform="translate(326.642109 136.978906)">BA,</text>
      <text style="font-size: 7px; font-family: 'DejaVu Sans', 'Bitstream Vera Sans', 'Computer Modern Sans Serif', 'Lucida Grande', 'Verdana', 'Geneva', 'Lucid', 'Arial', 'Helvetica', 'Avant Garde', sans-serif" transform="translate(319.606016 144.817375)"> n=756</text>
     </g>
    </g>
    <g id="xtick_11">
     <g id="line2d_11">
      <g>
       <use xlink:href="#m5d76d0e89b" x="360.45" y="128.16" style="stroke: #000000; stroke-width: 0.5"/>
      </g>
     </g>
     <g id="text_11">
      <text style="font-size: 7px; font-family: 'DejaVu Sans', 'Bitstream Vera Sans', 'Computer Modern Sans Serif', 'Lucida Grande', 'Verdana', 'Geneva', 'Lucid', 'Arial', 'Helvetica', 'Avant Garde', sans-serif" transform="translate(354.499453 136.978906)">CA,</text>
      <text style="font-size: 7px; font-family: 'DejaVu Sans', 'Bitstream Vera Sans', 'Computer Modern Sans Serif', 'Lucida Grande', 'Verdana', 'Geneva', 'Lucid', 'Arial', 'Helvetica', 'Avant Garde', sans-serif" transform="translate(347.506016 144.817375)"> n=646</text>
     </g>
    </g>
    <g id="xtick_12">
     <g id="line2d_12">
      <g>
       <use xlink:href="#m5d76d0e89b" x="388.35" y="128.16" style="stroke: #000000; stroke-width: 0.5"/>
      </g>
     </g>
     <g id="text_12">
      <text style="font-size: 7px; font-family: 'DejaVu Sans', 'Bitstream Vera Sans', 'Computer Modern Sans Serif', 'Lucida Grande', 'Verdana', 'Geneva', 'Lucid', 'Arial', 'Helvetica', 'Avant Garde', sans-serif" transform="translate(382.683281 136.978906)">PC,</text>
      <text style="font-size: 7px; font-family: 'DejaVu Sans', 'Bitstream Vera Sans', 'Computer Modern Sans Serif', 'Lucida Grande', 'Verdana', 'Geneva', 'Lucid', 'Arial', 'Helvetica', 'Avant Garde', sans-serif" transform="translate(375.406016 144.817375)"> n=539</text>
     </g>
    </g>
    <g id="xtick_13">
     <g id="line2d_13">
      <g>
       <use xlink:href="#m5d76d0e89b" x="416.25" y="128.16" style="stroke: #000000; stroke-width: 0.5"/>
      </g>
     </g>
     <g id="text_13">
      <text style="font-size: 7px; font-family: 'DejaVu Sans', 'Bitstream Vera Sans', 'Computer Modern Sans Serif', 'Lucida Grande', 'Verdana', 'Geneva', 'Lucid', 'Arial', 'Helvetica', 'Avant Garde', sans-serif" transform="translate(410.061562 136.978906)">CH,</text>
      <text style="font-size: 7px; font-family: 'DejaVu Sans', 'Bitstream Vera Sans', 'Computer Modern Sans Serif', 'Lucida Grande', 'Verdana', 'Geneva', 'Lucid', 'Arial', 'Helvetica', 'Avant Garde', sans-serif" transform="translate(403.306016 144.817375)"> n=675</text>
     </g>
    </g>
    <g id="xtick_14">
     <g id="line2d_14">
      <g>
       <use xlink:href="#m5d76d0e89b" x="444.15" y="128.16" style="stroke: #000000; stroke-width: 0.5"/>
      </g>
     </g>
     <g id="text_14">
      <text style="font-size: 7px; font-family: 'DejaVu Sans', 'Bitstream Vera Sans', 'Computer Modern Sans Serif', 'Lucida Grande', 'Verdana', 'Geneva', 'Lucid', 'Arial', 'Helvetica', 'Avant Garde', sans-serif" transform="translate(438.394141 136.978906)">ER,</text>
      <text style="font-size: 7px; font-family: 'DejaVu Sans', 'Bitstream Vera Sans', 'Computer Modern Sans Serif', 'Lucida Grande', 'Verdana', 'Geneva', 'Lucid', 'Arial', 'Helvetica', 'Avant Garde', sans-serif" transform="translate(431.206016 144.817375)"> n=697</text>
     </g>
    </g>
    <g id="xtick_15">
     <g id="line2d_15">
      <g>
       <use xlink:href="#m5d76d0e89b" x="472.05" y="128.16" style="stroke: #000000; stroke-width: 0.5"/>
      </g>
     </g>
     <g id="text_15">
      <text style="font-size: 7px; font-family: 'DejaVu Sans', 'Bitstream Vera Sans', 'Computer Modern Sans Serif', 'Lucida Grande', 'Verdana', 'Geneva', 'Lucid', 'Arial', 'Helvetica', 'Avant Garde', sans-serif" transform="translate(465.974766 136.978906)">BU,</text>
      <text style="font-size: 7px; font-family: 'DejaVu Sans', 'Bitstream Vera Sans', 'Computer Modern Sans Serif', 'Lucida Grande', 'Verdana', 'Geneva', 'Lucid', 'Arial', 'Helvetica', 'Avant Garde', sans-serif" transform="translate(459.106016 144.817375)"> n=718</text>
     </g>
    </g>
   </g>
   <g id="matplotlib.axis_2">
    <g id="ytick_1">
     <g id="line2d_16">
      <defs>
       <path id="mdd7e6e8720" d="M 0 0 
L 3 0 
" style="stroke: #000000; stroke-width: 0.5"/>
      </defs>
      <g>
       <use xlink:href="#mdd7e6e8720" x="67.5" y="106.10761" style="stroke: #000000; stroke-width: 0.5"/>
      </g>
     </g>
     <g id="text_16">
      <text style="font-size: 7px; font-family: 'DejaVu Sans', 'Bitstream Vera Sans', 'Computer Modern Sans Serif', 'Lucida Grande', 'Verdana', 'Geneva', 'Lucid', 'Arial', 'Helvetica', 'Avant Garde', sans-serif; text-anchor: end" x="64" y="108.767063" transform="rotate(-0 64 108.767063)">−0.005</text>
     </g>
    </g>
    <g id="ytick_2">
     <g id="line2d_17">
      <g>
       <use xlink:href="#mdd7e6e8720" x="67.5" y="83.211192" style="stroke: #000000; stroke-width: 0.5"/>
      </g>
     </g>
     <g id="text_17">
      <text style="font-size: 7px; font-family: 'DejaVu Sans', 'Bitstream Vera Sans', 'Computer Modern Sans Serif', 'Lucida Grande', 'Verdana', 'Geneva', 'Lucid', 'Arial', 'Helvetica', 'Avant Garde', sans-serif; text-anchor: end" x="64" y="85.870645" transform="rotate(-0 64 85.870645)">0.000</text>
     </g>
    </g>
    <g id="ytick_3">
     <g id="line2d_18">
      <g>
       <use xlink:href="#mdd7e6e8720" x="67.5" y="60.314774" style="stroke: #000000; stroke-width: 0.5"/>
      </g>
     </g>
     <g id="text_18">
      <text style="font-size: 7px; font-family: 'DejaVu Sans', 'Bitstream Vera Sans', 'Computer Modern Sans Serif', 'Lucida Grande', 'Verdana', 'Geneva', 'Lucid', 'Arial', 'Helvetica', 'Avant Garde', sans-serif; text-anchor: end" x="64" y="62.974227" transform="rotate(-0 64 62.974227)">0.005</text>
     </g>
    </g>
    <g id="ytick_4">
     <g id="line2d_19">
      <g>
       <use xlink:href="#mdd7e6e8720" x="67.5" y="37.418355" style="stroke: #000000; stroke-width: 0.5"/>
      </g>
     </g>
     <g id="text_19">
      <text style="font-size: 7px; font-family: 'DejaVu Sans', 'Bitstream Vera Sans', 'Computer Modern Sans Serif', 'Lucida Grande', 'Verdana', 'Geneva', 'Lucid', 'Arial', 'Helvetica', 'Avant Garde', sans-serif; text-anchor: end" x="64" y="40.077808" transform="rotate(-0 64 40.077808)">0.010</text>
     </g>
    </g>
    <g id="text_20">
     <text style="font-size: 7px; font-family: 'DejaVu Sans', 'Bitstream Vera Sans', 'Computer Modern Sans Serif', 'Lucida Grande', 'Verdana', 'Geneva', 'Lucid', 'Arial', 'Helvetica', 'Avant Garde', sans-serif; text-anchor: middle" x="32.63875" y="72.72" transform="rotate(-90 32.63875 72.72)">SHAP value</text>
    </g>
   </g>
   <g id="line2d_20">
    <path d="M 67.5 83.211192 
L 486 83.211192 
" clip-path="url(#pb40c91e473)" style="fill: none; stroke: #000000; stroke-opacity: 0.5; stroke-linecap: square"/>
   </g>
   <g id="patch_3">
    <path d="M 67.5 128.16 
L 67.5 17.28 
" style="fill: none; stroke: #000000; stroke-width: 0.5; stroke-linejoin: miter; stroke-linecap: square"/>
   </g>
   <g id="patch_4">
    <path d="M 486 128.16 
L 486 17.28 
" style="fill: none; stroke: #000000; stroke-width: 0.5; stroke-linejoin: miter; stroke-linecap: square"/>
   </g>
   <g id="patch_5">
    <path d="M 67.5 128.16 
L 486 128.16 
" style="fill: none; stroke: #000000; stroke-width: 0.5; stroke-linejoin: miter; stroke-linecap: square"/>
   </g>
   <g id="patch_6">
    <path d="M 67.5 17.28 
L 486 17.28 
" style="fill: none; stroke: #000000; stroke-width: 0.5; stroke-linejoin: miter; stroke-linecap: square"/>
   </g>
  </g>
 </g>
 <defs>
  <clipPath id="pb40c91e473">
   <rect x="67.5" y="17.28" width="418.5" height="110.88"/>
  </clipPath>
 </defs>
</svg>
