<?xml version="1.0" encoding="utf-8" standalone="no"?>
<!DOCTYPE svg PUBLIC "-//W3C//DTD SVG 1.1//EN"
  "http://www.w3.org/Graphics/SVG/1.1/DTD/svg11.dtd">
<svg xmlns:xlink="http://www.w3.org/1999/xlink" width="540pt" height="144pt" viewBox="0 0 540 144" xmlns="http://www.w3.org/2000/svg" version="1.1">
 <metadata>
  <rdf:RDF xmlns:dc="http://purl.org/dc/elements/1.1/" xmlns:cc="http://creativecommons.org/ns#" xmlns:rdf="http://www.w3.org/1999/02/22-rdf-syntax-ns#">
   <cc:Work>
    <dc:type rdf:resource="http://purl.org/dc/dcmitype/StillImage"/>
    <dc:date>2025-07-04T15:49:11.040596</dc:date>
    <dc:format>image/svg+xml</dc:format>
    <dc:creator>
     <cc:Agent>
      <dc:title>Matplotlib v3.10.1, https://matplotlib.org/</dc:title>
     </cc:Agent>
    </dc:creator>
   </cc:Work>
  </rdf:RDF>
 </metadata>
 <defs>
  <style type="text/css">*{stroke-linejoin: round; stroke-linecap: butt}</style>
 </defs>
 <g id="figure_1">
  <g id="patch_1">
   <path d="M 0 144 
L 540 144 
L 540 0 
L 0 0 
z
" style="fill: #ffffff"/>
  </g>
  <g id="axes_1">
   <g id="patch_2">
    <path d="M 67.5 128.16 
L 486 128.16 
L 486 17.28 
L 67.5 17.28 
z
" style="fill: #ffffff"/>
   </g>
   <g id="FillBetweenPolyCollection_1">
    <defs>
     <path id="m7998107688" d="M 92.61 -20.958085 
L 88.266719 -20.958085 
L 88.784713 -21.431042 
L 89.996621 -21.904 
L 91.225054 -22.376958 
L 92.040681 -22.849915 
L 92.428461 -23.322873 
L 92.565097 -23.79583 
L 92.601385 -24.268788 
L 92.608718 -24.741745 
L 92.609852 -25.214703 
L 92.609986 -25.687661 
L 92.609991 -26.160618 
L 92.609909 -26.633576 
L 92.609173 -27.106533 
L 92.604132 -27.579491 
L 92.577717 -28.052449 
L 92.472237 -28.525406 
L 92.153978 -28.998364 
L 91.439068 -29.471321 
L 90.277781 -29.944279 
L 89.00671 -30.417237 
L 88.291614 -30.890194 
L 88.59546 -31.363152 
L 89.715041 -31.836109 
L 90.990644 -32.309067 
L 91.907308 -32.782025 
L 92.372981 -33.254982 
L 92.544156 -33.72794 
L 92.572619 -34.200897 
L 92.489997 -34.673855 
L 92.171061 -35.146813 
L 91.3306 -35.61977 
L 89.676183 -36.092728 
L 87.302881 -36.565685 
L 84.981486 -37.038643 
L 83.70525 -37.511601 
L 83.592749 -37.984558 
L 83.383563 -38.457516 
L 81.445104 -38.930473 
L 77.441693 -39.403431 
L 72.93186 -39.876389 
L 70.29 -40.349346 
L 70.946935 -40.822304 
L 74.341304 -41.295261 
L 78.352622 -41.768219 
L 81.005786 -42.241176 
L 82.045867 -42.714134 
L 82.729439 -43.187092 
L 84.04581 -43.660049 
L 85.57088 -44.133007 
L 86.230806 -44.605964 
L 85.672377 -45.078922 
L 84.495914 -45.55188 
L 83.441615 -46.024837 
L 82.723636 -46.497795 
L 82.061472 -46.970752 
L 81.121906 -47.44371 
L 79.956863 -47.916668 
L 79.079128 -48.389625 
L 78.959717 -48.862583 
L 79.378568 -49.33554 
L 79.514215 -49.808498 
L 78.906118 -50.281456 
L 78.241669 -50.754413 
L 78.884885 -51.227371 
L 81.477069 -51.700328 
L 85.220114 -52.173286 
L 88.665086 -52.646244 
L 90.930817 -53.119201 
L 92.042875 -53.592159 
L 92.458558 -54.065116 
L 92.578121 -54.538074 
L 92.604724 -55.011032 
L 92.609309 -55.483989 
L 92.60986 -55.956947 
L 92.609335 -56.429904 
L 92.605194 -56.902862 
L 92.582826 -57.37582 
L 92.490808 -57.848777 
L 92.204453 -58.321735 
L 91.539649 -58.794692 
L 90.418691 -59.26765 
L 89.130048 -59.740607 
L 88.323182 -60.213565 
L 88.513725 -60.686523 
L 89.573765 -61.15948 
L 90.864283 -61.632438 
L 91.831418 -62.105395 
L 92.340643 -62.578353 
L 92.537703 -63.051311 
L 92.594805 -63.524268 
L 92.606288 -63.997226 
L 92.60108 -64.470183 
L 92.565067 -64.943141 
L 92.428458 -65.416099 
L 92.040681 -65.889056 
L 91.225054 -66.362014 
L 89.996621 -66.834971 
L 88.784713 -67.307929 
L 88.266719 -67.780887 
L 92.61 -67.780887 
L 92.61 -67.780887 
L 92.61 -67.307929 
L 92.61 -66.834971 
L 92.61 -66.362014 
L 92.61 -65.889056 
L 92.61 -65.416099 
L 92.61 -64.943141 
L 92.61 -64.470183 
L 92.61 -63.997226 
L 92.61 -63.524268 
L 92.61 -63.051311 
L 92.61 -62.578353 
L 92.61 -62.105395 
L 92.61 -61.632438 
L 92.61 -61.15948 
L 92.61 -60.686523 
L 92.61 -60.213565 
L 92.61 -59.740607 
L 92.61 -59.26765 
L 92.61 -58.794692 
L 92.61 -58.321735 
L 92.61 -57.848777 
L 92.61 -57.37582 
L 92.61 -56.902862 
L 92.61 -56.429904 
L 92.61 -55.956947 
L 92.61 -55.483989 
L 92.61 -55.011032 
L 92.61 -54.538074 
L 92.61 -54.065116 
L 92.61 -53.592159 
L 92.61 -53.119201 
L 92.61 -52.646244 
L 92.61 -52.173286 
L 92.61 -51.700328 
L 92.61 -51.227371 
L 92.61 -50.754413 
L 92.61 -50.281456 
L 92.61 -49.808498 
L 92.61 -49.33554 
L 92.61 -48.862583 
L 92.61 -48.389625 
L 92.61 -47.916668 
L 92.61 -47.44371 
L 92.61 -46.970752 
L 92.61 -46.497795 
L 92.61 -46.024837 
L 92.61 -45.55188 
L 92.61 -45.078922 
L 92.61 -44.605964 
L 92.61 -44.133007 
L 92.61 -43.660049 
L 92.61 -43.187092 
L 92.61 -42.714134 
L 92.61 -42.241176 
L 92.61 -41.768219 
L 92.61 -41.295261 
L 92.61 -40.822304 
L 92.61 -40.349346 
L 92.61 -39.876389 
L 92.61 -39.403431 
L 92.61 -38.930473 
L 92.61 -38.457516 
L 92.61 -37.984558 
L 92.61 -37.511601 
L 92.61 -37.038643 
L 92.61 -36.565685 
L 92.61 -36.092728 
L 92.61 -35.61977 
L 92.61 -35.146813 
L 92.61 -34.673855 
L 92.61 -34.200897 
L 92.61 -33.72794 
L 92.61 -33.254982 
L 92.61 -32.782025 
L 92.61 -32.309067 
L 92.61 -31.836109 
L 92.61 -31.363152 
L 92.61 -30.890194 
L 92.61 -30.417237 
L 92.61 -29.944279 
L 92.61 -29.471321 
L 92.61 -28.998364 
L 92.61 -28.525406 
L 92.61 -28.052449 
L 92.61 -27.579491 
L 92.61 -27.106533 
L 92.61 -26.633576 
L 92.61 -26.160618 
L 92.61 -25.687661 
L 92.61 -25.214703 
L 92.61 -24.741745 
L 92.61 -24.268788 
L 92.61 -23.79583 
L 92.61 -23.322873 
L 92.61 -22.849915 
L 92.61 -22.376958 
L 92.61 -21.904 
L 92.61 -21.431042 
L 92.61 -20.958085 
z
" style="stroke: #1a1a1a; stroke-width: 0.5"/>
    </defs>
    <g clip-path="url(#p6e005b255e)">
     <use xlink:href="#m7998107688" x="0" y="144" style="fill: #2020df; stroke: #1a1a1a; stroke-width: 0.5"/>
    </g>
   </g>
   <g id="FillBetweenPolyCollection_2">
    <defs>
     <path id="md5d3225aed" d="M 101.22945 -29.66818 
L 98.19 -29.66818 
L 98.19 -30.597592 
L 98.19 -31.527004 
L 98.19 -32.456417 
L 98.19 -33.385829 
L 98.19 -34.315241 
L 98.19 -35.244653 
L 98.19 -36.174066 
L 98.19 -37.103478 
L 98.19 -38.03289 
L 98.19 -38.962303 
L 98.19 -39.891715 
L 98.19 -40.821127 
L 98.19 -41.75054 
L 98.19 -42.679952 
L 98.19 -43.609364 
L 98.19 -44.538777 
L 98.19 -45.468189 
L 98.19 -46.397601 
L 98.19 -47.327014 
L 98.19 -48.256426 
L 98.19 -49.185838 
L 98.19 -50.115251 
L 98.19 -51.044663 
L 98.19 -51.974075 
L 98.19 -52.903488 
L 98.19 -53.8329 
L 98.19 -54.762312 
L 98.19 -55.691725 
L 98.19 -56.621137 
L 98.19 -57.550549 
L 98.19 -58.479962 
L 98.19 -59.409374 
L 98.19 -60.338786 
L 98.19 -61.268199 
L 98.19 -62.197611 
L 98.19 -63.127023 
L 98.19 -64.056436 
L 98.19 -64.985848 
L 98.19 -65.91526 
L 98.19 -66.844673 
L 98.19 -67.774085 
L 98.19 -68.703497 
L 98.19 -69.63291 
L 98.19 -70.562322 
L 98.19 -71.491734 
L 98.19 -72.421147 
L 98.19 -73.350559 
L 98.19 -74.279971 
L 98.19 -75.209384 
L 98.19 -76.138796 
L 98.19 -77.068208 
L 98.19 -77.997621 
L 98.19 -78.927033 
L 98.19 -79.856445 
L 98.19 -80.785858 
L 98.19 -81.71527 
L 98.19 -82.644682 
L 98.19 -83.574095 
L 98.19 -84.503507 
L 98.19 -85.432919 
L 98.19 -86.362332 
L 98.19 -87.291744 
L 98.19 -88.221156 
L 98.19 -89.150569 
L 98.19 -90.079981 
L 98.19 -91.009393 
L 98.19 -91.938806 
L 98.19 -92.868218 
L 98.19 -93.79763 
L 98.19 -94.727042 
L 98.19 -95.656455 
L 98.19 -96.585867 
L 98.19 -97.515279 
L 98.19 -98.444692 
L 98.19 -99.374104 
L 98.19 -100.303516 
L 98.19 -101.232929 
L 98.19 -102.162341 
L 98.19 -103.091753 
L 98.19 -104.021166 
L 98.19 -104.950578 
L 98.19 -105.87999 
L 98.19 -106.809403 
L 98.19 -107.738815 
L 98.19 -108.668227 
L 98.19 -109.59764 
L 98.19 -110.527052 
L 98.19 -111.456464 
L 98.19 -112.385877 
L 98.19 -113.315289 
L 98.19 -114.244701 
L 98.19 -115.174114 
L 98.19 -116.103526 
L 98.19 -117.032938 
L 98.19 -117.962351 
L 98.19 -118.891763 
L 98.19 -119.821175 
L 98.19 -120.750588 
L 98.19 -121.68 
L 101.205826 -121.68 
L 101.205826 -121.68 
L 100.896934 -120.750588 
L 100.147454 -119.821175 
L 99.330377 -118.891763 
L 98.725239 -117.962351 
L 98.39239 -117.032938 
L 98.251656 -116.103526 
L 98.205132 -115.174114 
L 98.192992 -114.244701 
L 98.19048 -113.315289 
L 98.190098 -112.385877 
L 98.190306 -111.456464 
L 98.191977 -110.527052 
L 98.200521 -109.59764 
L 98.235114 -108.668227 
L 98.345847 -107.738815 
L 98.623741 -106.809403 
L 99.162535 -105.87999 
L 99.946803 -104.950578 
L 100.746722 -104.021166 
L 101.18769 -103.091753 
L 101.021605 -102.162341 
L 100.344871 -101.232929 
L 99.511152 -100.303516 
L 98.842569 -99.374104 
L 98.449683 -98.444692 
L 98.273254 -97.515279 
L 98.211503 -96.585867 
L 98.194475 -95.656455 
L 98.19075 -94.727042 
L 98.190101 -93.79763 
L 98.190011 -92.868218 
L 98.190001 -91.938806 
L 98.19 -91.009393 
L 98.19 -90.079981 
L 98.19 -89.150569 
L 98.19 -88.221156 
L 98.19 -87.291744 
L 98.19 -86.362332 
L 98.19 -85.432919 
L 98.19 -84.503507 
L 98.190001 -83.574095 
L 98.190012 -82.644682 
L 98.190107 -81.71527 
L 98.190787 -80.785858 
L 98.194669 -79.856445 
L 98.212313 -78.927033 
L 98.275917 -77.997621 
L 98.456526 -77.068208 
L 98.85611 -76.138796 
L 99.531201 -75.209384 
L 100.365629 -74.279971 
L 101.033273 -73.350559 
L 101.183608 -72.421147 
L 100.7293 -71.491734 
L 99.925305 -70.562322 
L 99.145389 -69.63291 
L 98.613768 -68.703497 
L 98.34144 -67.774085 
L 98.233673 -66.844673 
L 98.200699 -65.91526 
L 98.195492 -64.985848 
L 98.208102 -64.056436 
L 98.261095 -63.127023 
L 98.418876 -62.197611 
L 98.787098 -61.268199 
L 99.460046 -60.338786 
L 100.423084 -59.409374 
L 101.523353 -58.479962 
L 102.600358 -57.550549 
L 103.621465 -56.621137 
L 104.573435 -55.691725 
L 105.260337 -54.762312 
L 105.462949 -53.8329 
L 105.405115 -52.903488 
L 105.843559 -51.974075 
L 107.499377 -51.044663 
L 110.445148 -50.115251 
L 114.060186 -49.185838 
L 117.416054 -48.256426 
L 119.688941 -47.327014 
L 120.51 -46.397601 
L 120.187999 -45.468189 
L 119.516387 -44.538777 
L 119.15907 -43.609364 
L 119.16946 -42.679952 
L 119.107211 -41.75054 
L 118.49875 -40.821127 
L 117.08409 -39.891715 
L 114.801068 -38.962303 
L 111.821115 -38.03289 
L 108.585741 -37.103478 
L 105.597598 -36.174066 
L 103.15764 -35.244653 
L 101.377141 -34.315241 
L 100.336026 -33.385829 
L 100.075503 -32.456417 
L 100.435344 -31.527004 
L 100.988333 -30.597592 
L 101.22945 -29.66818 
z
" style="stroke: #1a1a1a; stroke-width: 0.5"/>
    </defs>
    <g clip-path="url(#p6e005b255e)">
     <use xlink:href="#md5d3225aed" x="0" y="144" style="fill: #df2020; stroke: #1a1a1a; stroke-width: 0.5"/>
    </g>
   </g>
   <g id="FillBetweenPolyCollection_3">
    <defs>
     <path id="mfaf8ecb1bd" d="M 148.41 -22.173184 
L 134.847941 -22.173184 
L 132.275852 -22.377283 
L 129.900894 -22.581381 
L 127.891609 -22.785479 
L 126.527616 -22.989578 
L 126.09 -23.193676 
L 126.692566 -23.397775 
L 128.203721 -23.601873 
L 130.311492 -23.805971 
L 132.644188 -24.01007 
L 134.844416 -24.214168 
L 136.601003 -24.418267 
L 137.712977 -24.622365 
L 138.196212 -24.826464 
L 138.335158 -25.030562 
L 138.58011 -25.23466 
L 139.316752 -25.438759 
L 140.658422 -25.642857 
L 142.40194 -25.846956 
L 144.155318 -26.051054 
L 145.5208 -26.255153 
L 146.207416 -26.459251 
L 146.040474 -26.663349 
L 144.931729 -26.867448 
L 142.891908 -27.071546 
L 140.104582 -27.275645 
L 136.997326 -27.479743 
L 134.213429 -27.683841 
L 132.437802 -27.88794 
L 132.133827 -28.092038 
L 133.327351 -28.296137 
L 135.565533 -28.500235 
L 138.084323 -28.704334 
L 140.106449 -28.908432 
L 141.134191 -29.11253 
L 141.117535 -29.316629 
L 140.437841 -29.520727 
L 139.717456 -29.724826 
L 139.535306 -29.928924 
L 140.179462 -30.133022 
L 141.557941 -30.337121 
L 143.298799 -30.541219 
L 144.952921 -30.745318 
L 146.16101 -30.949416 
L 146.699663 -31.153515 
L 146.428325 -31.357613 
L 145.232992 -31.561711 
L 143.05589 -31.76581 
L 140.022269 -31.969908 
L 136.574207 -32.174007 
L 133.469309 -32.378105 
L 131.561846 -32.582204 
L 131.442376 -32.786302 
L 133.150153 -32.9904 
L 136.154664 -33.194499 
L 139.621258 -33.398597 
L 142.782347 -33.602696 
L 145.192698 -33.806794 
L 146.767984 -34.010892 
L 147.661942 -34.214991 
L 148.105833 -34.419089 
L 148.299631 -34.623188 
L 148.374266 -34.827286 
L 148.399678 -35.031385 
L 148.407341 -35.235483 
L 148.409389 -35.439581 
L 148.409875 -35.64368 
L 148.409977 -35.847778 
L 148.409996 -36.051877 
L 148.409999 -36.255975 
L 148.41 -36.460074 
L 148.41 -36.664172 
L 148.41 -36.86827 
L 148.41 -37.072369 
L 148.41 -37.276467 
L 148.41 -37.480566 
L 148.41 -37.684664 
L 148.41 -37.888762 
L 148.41 -38.092861 
L 148.41 -38.296959 
L 148.41 -38.501058 
L 148.41 -38.705156 
L 148.41 -38.909255 
L 148.409997 -39.113353 
L 148.409982 -39.317451 
L 148.409904 -39.52155 
L 148.409538 -39.725648 
L 148.408018 -39.929747 
L 148.402435 -40.133845 
L 148.384297 -40.337944 
L 148.332269 -40.542042 
L 148.200778 -40.74614 
L 147.908773 -40.950239 
L 147.341264 -41.154337 
L 146.381775 -41.358436 
L 144.984123 -41.562534 
L 143.259644 -41.766632 
L 141.518518 -41.970731 
L 140.202747 -42.174829 
L 139.710528 -42.378928 
L 148.41 -42.378928 
L 148.41 -42.378928 
L 148.41 -42.174829 
L 148.41 -41.970731 
L 148.41 -41.766632 
L 148.41 -41.562534 
L 148.41 -41.358436 
L 148.41 -41.154337 
L 148.41 -40.950239 
L 148.41 -40.74614 
L 148.41 -40.542042 
L 148.41 -40.337944 
L 148.41 -40.133845 
L 148.41 -39.929747 
L 148.41 -39.725648 
L 148.41 -39.52155 
L 148.41 -39.317451 
L 148.41 -39.113353 
L 148.41 -38.909255 
L 148.41 -38.705156 
L 148.41 -38.501058 
L 148.41 -38.296959 
L 148.41 -38.092861 
L 148.41 -37.888762 
L 148.41 -37.684664 
L 148.41 -37.480566 
L 148.41 -37.276467 
L 148.41 -37.072369 
L 148.41 -36.86827 
L 148.41 -36.664172 
L 148.41 -36.460074 
L 148.41 -36.255975 
L 148.41 -36.051877 
L 148.41 -35.847778 
L 148.41 -35.64368 
L 148.41 -35.439581 
L 148.41 -35.235483 
L 148.41 -35.031385 
L 148.41 -34.827286 
L 148.41 -34.623188 
L 148.41 -34.419089 
L 148.41 -34.214991 
L 148.41 -34.010892 
L 148.41 -33.806794 
L 148.41 -33.602696 
L 148.41 -33.398597 
L 148.41 -33.194499 
L 148.41 -32.9904 
L 148.41 -32.786302 
L 148.41 -32.582204 
L 148.41 -32.378105 
L 148.41 -32.174007 
L 148.41 -31.969908 
L 148.41 -31.76581 
L 148.41 -31.561711 
L 148.41 -31.357613 
L 148.41 -31.153515 
L 148.41 -30.949416 
L 148.41 -30.745318 
L 148.41 -30.541219 
L 148.41 -30.337121 
L 148.41 -30.133022 
L 148.41 -29.928924 
L 148.41 -29.724826 
L 148.41 -29.520727 
L 148.41 -29.316629 
L 148.41 -29.11253 
L 148.41 -28.908432 
L 148.41 -28.704334 
L 148.41 -28.500235 
L 148.41 -28.296137 
L 148.41 -28.092038 
L 148.41 -27.88794 
L 148.41 -27.683841 
L 148.41 -27.479743 
L 148.41 -27.275645 
L 148.41 -27.071546 
L 148.41 -26.867448 
L 148.41 -26.663349 
L 148.41 -26.459251 
L 148.41 -26.255153 
L 148.41 -26.051054 
L 148.41 -25.846956 
L 148.41 -25.642857 
L 148.41 -25.438759 
L 148.41 -25.23466 
L 148.41 -25.030562 
L 148.41 -24.826464 
L 148.41 -24.622365 
L 148.41 -24.418267 
L 148.41 -24.214168 
L 148.41 -24.01007 
L 148.41 -23.805971 
L 148.41 -23.601873 
L 148.41 -23.397775 
L 148.41 -23.193676 
L 148.41 -22.989578 
L 148.41 -22.785479 
L 148.41 -22.581381 
L 148.41 -22.377283 
L 148.41 -22.173184 
z
" style="stroke: #1a1a1a; stroke-width: 0.5"/>
    </defs>
    <g clip-path="url(#p6e005b255e)">
     <use xlink:href="#mfaf8ecb1bd" x="0" y="144" style="fill: #20df20; stroke: #1a1a1a; stroke-width: 0.5"/>
    </g>
   </g>
   <g id="FillBetweenPolyCollection_4">
    <defs>
     <path id="m00b9aeb4bc" d="M 159.908508 -26.374762 
L 153.99 -26.374762 
L 153.99 -26.777878 
L 153.99 -27.180994 
L 153.99 -27.58411 
L 153.99 -27.987226 
L 153.99 -28.390343 
L 153.99 -28.793459 
L 153.99 -29.196575 
L 153.99 -29.599691 
L 153.99 -30.002807 
L 153.99 -30.405924 
L 153.99 -30.80904 
L 153.99 -31.212156 
L 153.99 -31.615272 
L 153.99 -32.018388 
L 153.99 -32.421504 
L 153.99 -32.824621 
L 153.99 -33.227737 
L 153.99 -33.630853 
L 153.99 -34.033969 
L 153.99 -34.437085 
L 153.99 -34.840202 
L 153.99 -35.243318 
L 153.99 -35.646434 
L 153.99 -36.04955 
L 153.99 -36.452666 
L 153.99 -36.855782 
L 153.99 -37.258899 
L 153.99 -37.662015 
L 153.99 -38.065131 
L 153.99 -38.468247 
L 153.99 -38.871363 
L 153.99 -39.27448 
L 153.99 -39.677596 
L 153.99 -40.080712 
L 153.99 -40.483828 
L 153.99 -40.886944 
L 153.99 -41.29006 
L 153.99 -41.693177 
L 153.99 -42.096293 
L 153.99 -42.499409 
L 153.99 -42.902525 
L 153.99 -43.305641 
L 153.99 -43.708758 
L 153.99 -44.111874 
L 153.99 -44.51499 
L 153.99 -44.918106 
L 153.99 -45.321222 
L 153.99 -45.724338 
L 153.99 -46.127455 
L 153.99 -46.530571 
L 153.99 -46.933687 
L 153.99 -47.336803 
L 153.99 -47.739919 
L 153.99 -48.143035 
L 153.99 -48.546152 
L 153.99 -48.949268 
L 153.99 -49.352384 
L 153.99 -49.7555 
L 153.99 -50.158616 
L 153.99 -50.561733 
L 153.99 -50.964849 
L 153.99 -51.367965 
L 153.99 -51.771081 
L 153.99 -52.174197 
L 153.99 -52.577313 
L 153.99 -52.98043 
L 153.99 -53.383546 
L 153.99 -53.786662 
L 153.99 -54.189778 
L 153.99 -54.592894 
L 153.99 -54.996011 
L 153.99 -55.399127 
L 153.99 -55.802243 
L 153.99 -56.205359 
L 153.99 -56.608475 
L 153.99 -57.011591 
L 153.99 -57.414708 
L 153.99 -57.817824 
L 153.99 -58.22094 
L 153.99 -58.624056 
L 153.99 -59.027172 
L 153.99 -59.430289 
L 153.99 -59.833405 
L 153.99 -60.236521 
L 153.99 -60.639637 
L 153.99 -61.042753 
L 153.99 -61.445869 
L 153.99 -61.848986 
L 153.99 -62.252102 
L 153.99 -62.655218 
L 153.99 -63.058334 
L 153.99 -63.46145 
L 153.99 -63.864567 
L 153.99 -64.267683 
L 153.99 -64.670799 
L 153.99 -65.073915 
L 153.99 -65.477031 
L 153.99 -65.880147 
L 153.99 -66.283264 
L 165.646035 -66.283264 
L 165.646035 -66.283264 
L 165.357478 -65.880147 
L 163.58961 -65.477031 
L 161.027624 -65.073915 
L 158.525749 -64.670799 
L 156.713363 -64.267683 
L 155.853558 -63.864567 
L 155.926142 -63.46145 
L 156.742301 -63.058334 
L 157.976053 -62.655218 
L 159.173004 -62.252102 
L 159.856365 -61.848986 
L 159.732262 -61.445869 
L 158.844558 -61.042753 
L 157.533667 -60.639637 
L 156.223415 -60.236521 
L 155.20533 -59.833405 
L 154.560988 -59.430289 
L 154.221615 -59.027172 
L 154.071117 -58.624056 
L 154.014529 -58.22094 
L 153.996408 -57.817824 
L 153.991477 -57.414708 
L 153.990485 -57.011591 
L 153.99113 -56.608475 
L 153.994973 -56.205359 
L 154.009719 -55.802243 
L 154.05783 -55.399127 
L 154.192465 -54.996011 
L 154.515556 -54.592894 
L 155.180104 -54.189778 
L 156.351449 -53.786662 
L 158.121544 -53.383546 
L 160.418918 -52.98043 
L 162.991795 -52.577313 
L 165.506514 -52.174197 
L 167.709744 -51.771081 
L 169.541074 -51.367965 
L 171.117104 -50.964849 
L 172.602028 -50.561733 
L 174.053511 -50.158616 
L 175.34344 -49.7555 
L 176.197181 -49.352384 
L 176.31 -48.949268 
L 175.468603 -48.546152 
L 173.652933 -48.143035 
L 171.111181 -47.739919 
L 168.332517 -47.336803 
L 165.838739 -46.933687 
L 163.894687 -46.530571 
L 162.397915 -46.127455 
L 161.08244 -45.724338 
L 159.859927 -45.321222 
L 158.986739 -44.918106 
L 158.916539 -44.51499 
L 159.952734 -44.111874 
L 161.932637 -43.708758 
L 164.153883 -43.305641 
L 165.64414 -42.902525 
L 165.665556 -42.499409 
L 164.128487 -42.096293 
L 161.604371 -41.693177 
L 158.942367 -41.29006 
L 156.813288 -40.886944 
L 155.502839 -40.483828 
L 155.00149 -40.080712 
L 155.203198 -39.677596 
L 156.015123 -39.27448 
L 157.325824 -38.871363 
L 158.923668 -38.468247 
L 160.495164 -38.065131 
L 161.738976 -37.662015 
L 162.490056 -37.258899 
L 162.723213 -36.855782 
L 162.449758 -36.452666 
L 161.657407 -36.04955 
L 160.378752 -35.646434 
L 158.789562 -35.243318 
L 157.189428 -34.840202 
L 155.861687 -34.437085 
L 154.944292 -34.033969 
L 154.412318 -33.630853 
L 154.151842 -33.227737 
L 154.043637 -32.824621 
L 154.005362 -32.421504 
L 153.993804 -32.018388 
L 153.990836 -31.615272 
L 153.990301 -31.212156 
L 153.990842 -30.80904 
L 153.993828 -30.405924 
L 154.005439 -30.002807 
L 154.043808 -29.599691 
L 154.151916 -29.196575 
L 154.410671 -28.793459 
L 154.933631 -28.390343 
L 155.817553 -27.987226 
L 157.045939 -27.58411 
L 158.40191 -27.180994 
L 159.489407 -26.777878 
L 159.908508 -26.374762 
z
" style="stroke: #1a1a1a; stroke-width: 0.5"/>
    </defs>
    <g clip-path="url(#p6e005b255e)">
     <use xlink:href="#m00b9aeb4bc" x="0" y="144" style="fill: #e237ae; stroke: #1a1a1a; stroke-width: 0.5"/>
    </g>
   </g>
   <g id="FillBetweenPolyCollection_5">
    <defs>
     <path id="mfaa5e29dd5" d="M 204.21 -29.858665 
L 198.597678 -29.858665 
L 199.085596 -30.519083 
L 200.309272 -31.1795 
L 201.734576 -31.839917 
L 202.900344 -32.500334 
L 203.632298 -33.160751 
L 203.997198 -33.821168 
L 204.142562 -34.481585 
L 204.181938 -35.142002 
L 204.159644 -35.802419 
L 204.049392 -36.462837 
L 203.753934 -37.123254 
L 203.125566 -37.783671 
L 202.055301 -38.444088 
L 200.622256 -39.104505 
L 199.167513 -39.764922 
L 198.127755 -40.425339 
L 197.690375 -41.085756 
L 197.614362 -41.746173 
L 197.463335 -42.40659 
L 197.022878 -43.067008 
L 196.441336 -43.727425 
L 196.003755 -44.387842 
L 195.901088 -45.048259 
L 196.241147 -45.708676 
L 197.110622 -46.369093 
L 198.460298 -47.02951 
L 199.948041 -47.689927 
L 200.996221 -48.350344 
L 201.05457 -49.010761 
L 199.878124 -49.671179 
L 197.708334 -50.331596 
L 195.288098 -50.992013 
L 193.583718 -51.65243 
L 193.222982 -52.312847 
L 194.007799 -52.973264 
L 194.979213 -53.633681 
L 195.119114 -54.294098 
L 194.182431 -54.954515 
L 192.942095 -55.614933 
L 192.565738 -56.27535 
L 193.621873 -56.935767 
L 195.595223 -57.596184 
L 197.309721 -58.256601 
L 197.800846 -58.917018 
L 196.873305 -59.577435 
L 195.022946 -60.237852 
L 192.979355 -60.898269 
L 191.302436 -61.558686 
L 190.239153 -62.219104 
L 189.749123 -62.879521 
L 189.549523 -63.539938 
L 189.189032 -64.200355 
L 188.253501 -64.860772 
L 186.689913 -65.521189 
L 185.025908 -66.181606 
L 184.166645 -66.842023 
L 184.69895 -67.50244 
L 186.205295 -68.162857 
L 187.364134 -68.823275 
L 186.978922 -69.483692 
L 185.051355 -70.144109 
L 182.845561 -70.804526 
L 181.89 -71.464943 
L 182.904448 -72.12536 
L 185.564716 -72.785777 
L 189.039388 -73.446194 
L 192.555932 -74.106611 
L 195.533404 -74.767029 
L 197.485116 -75.427446 
L 198.078627 -76.087863 
L 197.373226 -76.74828 
L 195.934152 -77.408697 
L 194.62319 -78.069114 
L 194.178152 -78.729531 
L 194.847554 -79.389948 
L 196.270654 -80.050365 
L 197.657509 -80.710782 
L 198.207267 -81.3712 
L 197.56957 -82.031617 
L 196.074431 -82.692034 
L 194.562821 -83.352451 
L 193.906199 -84.012868 
L 194.507499 -84.673285 
L 196.081568 -85.333702 
L 197.841128 -85.994119 
L 198.98048 -86.654536 
L 199.168855 -87.314953 
L 198.734992 -87.975371 
L 198.400929 -88.635788 
L 198.74774 -89.296205 
L 199.828846 -89.956622 
L 201.216634 -90.617039 
L 202.356322 -91.277456 
L 202.864924 -91.937873 
L 202.601132 -92.59829 
L 201.637308 -93.258707 
L 200.282911 -93.919125 
L 199.07964 -94.579542 
L 198.596556 -95.239959 
L 204.21 -95.239959 
L 204.21 -95.239959 
L 204.21 -94.579542 
L 204.21 -93.919125 
L 204.21 -93.258707 
L 204.21 -92.59829 
L 204.21 -91.937873 
L 204.21 -91.277456 
L 204.21 -90.617039 
L 204.21 -89.956622 
L 204.21 -89.296205 
L 204.21 -88.635788 
L 204.21 -87.975371 
L 204.21 -87.314953 
L 204.21 -86.654536 
L 204.21 -85.994119 
L 204.21 -85.333702 
L 204.21 -84.673285 
L 204.21 -84.012868 
L 204.21 -83.352451 
L 204.21 -82.692034 
L 204.21 -82.031617 
L 204.21 -81.3712 
L 204.21 -80.710782 
L 204.21 -80.050365 
L 204.21 -79.389948 
L 204.21 -78.729531 
L 204.21 -78.069114 
L 204.21 -77.408697 
L 204.21 -76.74828 
L 204.21 -76.087863 
L 204.21 -75.427446 
L 204.21 -74.767029 
L 204.21 -74.106611 
L 204.21 -73.446194 
L 204.21 -72.785777 
L 204.21 -72.12536 
L 204.21 -71.464943 
L 204.21 -70.804526 
L 204.21 -70.144109 
L 204.21 -69.483692 
L 204.21 -68.823275 
L 204.21 -68.162857 
L 204.21 -67.50244 
L 204.21 -66.842023 
L 204.21 -66.181606 
L 204.21 -65.521189 
L 204.21 -64.860772 
L 204.21 -64.200355 
L 204.21 -63.539938 
L 204.21 -62.879521 
L 204.21 -62.219104 
L 204.21 -61.558686 
L 204.21 -60.898269 
L 204.21 -60.237852 
L 204.21 -59.577435 
L 204.21 -58.917018 
L 204.21 -58.256601 
L 204.21 -57.596184 
L 204.21 -56.935767 
L 204.21 -56.27535 
L 204.21 -55.614933 
L 204.21 -54.954515 
L 204.21 -54.294098 
L 204.21 -53.633681 
L 204.21 -52.973264 
L 204.21 -52.312847 
L 204.21 -51.65243 
L 204.21 -50.992013 
L 204.21 -50.331596 
L 204.21 -49.671179 
L 204.21 -49.010761 
L 204.21 -48.350344 
L 204.21 -47.689927 
L 204.21 -47.02951 
L 204.21 -46.369093 
L 204.21 -45.708676 
L 204.21 -45.048259 
L 204.21 -44.387842 
L 204.21 -43.727425 
L 204.21 -43.067008 
L 204.21 -42.40659 
L 204.21 -41.746173 
L 204.21 -41.085756 
L 204.21 -40.425339 
L 204.21 -39.764922 
L 204.21 -39.104505 
L 204.21 -38.444088 
L 204.21 -37.783671 
L 204.21 -37.123254 
L 204.21 -36.462837 
L 204.21 -35.802419 
L 204.21 -35.142002 
L 204.21 -34.481585 
L 204.21 -33.821168 
L 204.21 -33.160751 
L 204.21 -32.500334 
L 204.21 -31.839917 
L 204.21 -31.1795 
L 204.21 -30.519083 
L 204.21 -29.858665 
z
" style="stroke: #1a1a1a; stroke-width: 0.5"/>
    </defs>
    <g clip-path="url(#p6e005b255e)">
     <use xlink:href="#mfaa5e29dd5" x="0" y="144" style="fill: #dfbe20; stroke: #1a1a1a; stroke-width: 0.5"/>
    </g>
   </g>
   <g id="FillBetweenPolyCollection_6">
    <defs>
     <path id="m6e12992f34" d="M 215.079664 -35.317686 
L 209.79 -35.317686 
L 209.79 -35.729804 
L 209.79 -36.141922 
L 209.79 -36.554041 
L 209.79 -36.966159 
L 209.79 -37.378277 
L 209.79 -37.790395 
L 209.79 -38.202514 
L 209.79 -38.614632 
L 209.79 -39.02675 
L 209.79 -39.438868 
L 209.79 -39.850986 
L 209.79 -40.263105 
L 209.79 -40.675223 
L 209.79 -41.087341 
L 209.79 -41.499459 
L 209.79 -41.911577 
L 209.79 -42.323696 
L 209.79 -42.735814 
L 209.79 -43.147932 
L 209.79 -43.56005 
L 209.79 -43.972169 
L 209.79 -44.384287 
L 209.79 -44.796405 
L 209.79 -45.208523 
L 209.79 -45.620641 
L 209.79 -46.03276 
L 209.79 -46.444878 
L 209.79 -46.856996 
L 209.79 -47.269114 
L 209.79 -47.681232 
L 209.79 -48.093351 
L 209.79 -48.505469 
L 209.79 -48.917587 
L 209.79 -49.329705 
L 209.79 -49.741824 
L 209.79 -50.153942 
L 209.79 -50.56606 
L 209.79 -50.978178 
L 209.79 -51.390296 
L 209.79 -51.802415 
L 209.79 -52.214533 
L 209.79 -52.626651 
L 209.79 -53.038769 
L 209.79 -53.450887 
L 209.79 -53.863006 
L 209.79 -54.275124 
L 209.79 -54.687242 
L 209.79 -55.09936 
L 209.79 -55.511479 
L 209.79 -55.923597 
L 209.79 -56.335715 
L 209.79 -56.747833 
L 209.79 -57.159951 
L 209.79 -57.57207 
L 209.79 -57.984188 
L 209.79 -58.396306 
L 209.79 -58.808424 
L 209.79 -59.220542 
L 209.79 -59.632661 
L 209.79 -60.044779 
L 209.79 -60.456897 
L 209.79 -60.869015 
L 209.79 -61.281134 
L 209.79 -61.693252 
L 209.79 -62.10537 
L 209.79 -62.517488 
L 209.79 -62.929606 
L 209.79 -63.341725 
L 209.79 -63.753843 
L 209.79 -64.165961 
L 209.79 -64.578079 
L 209.79 -64.990198 
L 209.79 -65.402316 
L 209.79 -65.814434 
L 209.79 -66.226552 
L 209.79 -66.63867 
L 209.79 -67.050789 
L 209.79 -67.462907 
L 209.79 -67.875025 
L 209.79 -68.287143 
L 209.79 -68.699261 
L 209.79 -69.11138 
L 209.79 -69.523498 
L 209.79 -69.935616 
L 209.79 -70.347734 
L 209.79 -70.759853 
L 209.79 -71.171971 
L 209.79 -71.584089 
L 209.79 -71.996207 
L 209.79 -72.408325 
L 209.79 -72.820444 
L 209.79 -73.232562 
L 209.79 -73.64468 
L 209.79 -74.056798 
L 209.79 -74.468916 
L 209.79 -74.881035 
L 209.79 -75.293153 
L 209.79 -75.705271 
L 209.79 -76.117389 
L 218.137999 -76.117389 
L 218.137999 -76.117389 
L 218.99218 -75.705271 
L 218.608153 -75.293153 
L 217.138098 -74.881035 
L 215.13371 -74.468916 
L 213.309818 -74.056798 
L 212.252898 -73.64468 
L 212.21826 -73.232562 
L 213.056746 -72.820444 
L 214.257735 -72.408325 
L 215.169027 -71.996207 
L 215.395098 -71.584089 
L 215.093666 -71.171971 
L 214.818343 -70.759853 
L 214.981021 -70.347734 
L 215.473408 -69.935616 
L 215.860816 -69.523498 
L 215.926031 -69.11138 
L 215.935348 -68.699261 
L 216.32923 -68.287143 
L 217.215452 -67.875025 
L 218.222662 -67.462907 
L 218.796345 -67.050789 
L 218.591861 -66.63867 
L 217.704682 -66.226552 
L 216.697996 -65.814434 
L 216.367878 -65.402316 
L 217.211855 -64.990198 
L 218.906097 -64.578079 
L 220.346705 -64.165961 
L 220.434886 -63.753843 
L 219.014841 -63.341725 
L 217.127365 -62.929606 
L 216.391996 -62.517488 
L 218.037039 -62.10537 
L 222.111927 -61.693252 
L 227.213688 -61.281134 
L 231.094444 -60.869015 
L 232.11 -60.456897 
L 230.417029 -60.044779 
L 227.642967 -59.632661 
L 225.317271 -59.220542 
L 223.803478 -58.808424 
L 222.739797 -58.396306 
L 222.074601 -57.984188 
L 222.248317 -57.57207 
L 223.405975 -57.159951 
L 224.792466 -56.747833 
L 225.172359 -56.335715 
L 223.854735 -55.923597 
L 221.272824 -55.511479 
L 218.614379 -55.09936 
L 216.920848 -54.687242 
L 216.44811 -54.275124 
L 216.735154 -53.863006 
L 217.16481 -53.450887 
L 217.407636 -53.038769 
L 217.408034 -52.626651 
L 217.177962 -52.214533 
L 216.782324 -51.802415 
L 216.414605 -51.390296 
L 216.242059 -50.978178 
L 216.144685 -50.56606 
L 215.787254 -50.153942 
L 215.041708 -49.741824 
L 214.243149 -49.329705 
L 213.923305 -48.917587 
L 214.280971 -48.505469 
L 214.934713 -48.093351 
L 215.20702 -47.681232 
L 214.673012 -47.269114 
L 213.4628 -46.856996 
L 212.076386 -46.444878 
L 210.965077 -46.03276 
L 210.288222 -45.620641 
L 209.96423 -45.208523 
L 209.84025 -44.796405 
L 209.801952 -44.384287 
L 209.792345 -43.972169 
L 209.790379 -43.56005 
L 209.790051 -43.147932 
L 209.790006 -42.735814 
L 209.790001 -42.323696 
L 209.79 -41.911577 
L 209.79 -41.499459 
L 209.79 -41.087341 
L 209.79 -40.675223 
L 209.790005 -40.263105 
L 209.790046 -39.850986 
L 209.790346 -39.438868 
L 209.792156 -39.02675 
L 209.801093 -38.614632 
L 209.837077 -38.202514 
L 209.954759 -37.790395 
L 210.265546 -37.378277 
L 210.921977 -36.966159 
L 212.012201 -36.554041 
L 213.387746 -36.141922 
L 214.593731 -35.729804 
L 215.079664 -35.317686 
z
" style="stroke: #1a1a1a; stroke-width: 0.5"/>
    </defs>
    <g clip-path="url(#p6e005b255e)">
     <use xlink:href="#m6e12992f34" x="0" y="144" style="fill: #0b4d0b; stroke: #1a1a1a; stroke-width: 0.5"/>
    </g>
   </g>
   <g id="FillBetweenPolyCollection_7">
    <defs>
     <path id="md9b23d59e6" d="M 260.01 -26.818466 
L 254.48775 -26.818466 
L 254.921938 -27.107217 
L 256.000733 -27.395969 
L 257.152563 -27.68472 
L 257.811819 -27.973471 
L 257.675494 -28.262222 
L 256.804969 -28.550974 
L 255.607786 -28.839725 
L 254.686894 -29.128476 
L 254.542259 -29.417228 
L 255.278738 -29.705979 
L 256.567108 -29.99473 
L 257.901225 -30.283481 
L 258.910673 -30.572233 
L 259.476293 -30.860984 
L 259.62967 -31.149735 
L 259.397434 -31.438486 
L 258.742695 -31.727238 
L 257.650731 -32.015989 
L 256.288385 -32.30474 
L 255.071193 -32.593492 
L 254.498426 -32.882243 
L 254.827493 -33.170994 
L 255.865109 -33.459745 
L 257.070598 -33.748497 
L 257.862207 -34.037248 
L 257.869585 -34.325999 
L 257.020846 -34.614751 
L 255.514018 -34.903502 
L 253.698887 -35.192253 
L 251.862675 -35.481004 
L 250.047462 -35.769756 
L 248.121544 -36.058507 
L 246.106542 -36.347258 
L 244.415886 -36.63601 
L 243.660906 -36.924761 
L 244.118977 -37.213512 
L 245.374361 -37.502263 
L 246.541768 -37.791015 
L 246.909709 -38.079766 
L 246.405112 -38.368517 
L 245.477589 -38.657269 
L 244.581573 -38.94602 
L 243.756617 -39.234771 
L 242.653733 -39.523522 
L 240.985112 -39.812274 
L 239.029063 -40.101025 
L 237.69 -40.389776 
L 237.927458 -40.678528 
L 239.989811 -40.967279 
L 243.157239 -41.25603 
L 246.235379 -41.544781 
L 248.343631 -41.833533 
L 249.353839 -42.122284 
L 249.751983 -42.411035 
L 250.185902 -42.699787 
L 251.063711 -42.988538 
L 252.361291 -43.277289 
L 253.645675 -43.56604 
L 254.302764 -43.854792 
L 253.882391 -44.143543 
L 252.352787 -44.432294 
L 250.111383 -44.721046 
L 247.815873 -45.009797 
L 246.182708 -45.298548 
L 245.760787 -45.587299 
L 246.645835 -45.876051 
L 248.32422 -46.164802 
L 249.919453 -46.453553 
L 250.736409 -46.742304 
L 250.618746 -47.031056 
L 249.850014 -47.319807 
L 248.859617 -47.608558 
L 248.0914 -47.89731 
L 248.000933 -48.186061 
L 248.926469 -48.474812 
L 250.833417 -48.763563 
L 253.214848 -49.052315 
L 255.312476 -49.341066 
L 256.501105 -49.629817 
L 256.576242 -49.918569 
L 255.82637 -50.20732 
L 254.891528 -50.496071 
L 254.442075 -50.784822 
L 254.80494 -51.073574 
L 255.778841 -51.362325 
L 256.786978 -51.651076 
L 257.246352 -51.939828 
L 256.897601 -52.228579 
L 255.93761 -52.51733 
L 254.920623 -52.806081 
L 254.452849 -53.094833 
L 254.818178 -53.383584 
L 255.789401 -53.672335 
L 256.77874 -53.961087 
L 257.206071 -54.249838 
L 256.826783 -54.538589 
L 255.858532 -54.82734 
L 254.871021 -55.116092 
L 254.472696 -55.404843 
L 260.01 -55.404843 
L 260.01 -55.404843 
L 260.01 -55.116092 
L 260.01 -54.82734 
L 260.01 -54.538589 
L 260.01 -54.249838 
L 260.01 -53.961087 
L 260.01 -53.672335 
L 260.01 -53.383584 
L 260.01 -53.094833 
L 260.01 -52.806081 
L 260.01 -52.51733 
L 260.01 -52.228579 
L 260.01 -51.939828 
L 260.01 -51.651076 
L 260.01 -51.362325 
L 260.01 -51.073574 
L 260.01 -50.784822 
L 260.01 -50.496071 
L 260.01 -50.20732 
L 260.01 -49.918569 
L 260.01 -49.629817 
L 260.01 -49.341066 
L 260.01 -49.052315 
L 260.01 -48.763563 
L 260.01 -48.474812 
L 260.01 -48.186061 
L 260.01 -47.89731 
L 260.01 -47.608558 
L 260.01 -47.319807 
L 260.01 -47.031056 
L 260.01 -46.742304 
L 260.01 -46.453553 
L 260.01 -46.164802 
L 260.01 -45.876051 
L 260.01 -45.587299 
L 260.01 -45.298548 
L 260.01 -45.009797 
L 260.01 -44.721046 
L 260.01 -44.432294 
L 260.01 -44.143543 
L 260.01 -43.854792 
L 260.01 -43.56604 
L 260.01 -43.277289 
L 260.01 -42.988538 
L 260.01 -42.699787 
L 260.01 -42.411035 
L 260.01 -42.122284 
L 260.01 -41.833533 
L 260.01 -41.544781 
L 260.01 -41.25603 
L 260.01 -40.967279 
L 260.01 -40.678528 
L 260.01 -40.389776 
L 260.01 -40.101025 
L 260.01 -39.812274 
L 260.01 -39.523522 
L 260.01 -39.234771 
L 260.01 -38.94602 
L 260.01 -38.657269 
L 260.01 -38.368517 
L 260.01 -38.079766 
L 260.01 -37.791015 
L 260.01 -37.502263 
L 260.01 -37.213512 
L 260.01 -36.924761 
L 260.01 -36.63601 
L 260.01 -36.347258 
L 260.01 -36.058507 
L 260.01 -35.769756 
L 260.01 -35.481004 
L 260.01 -35.192253 
L 260.01 -34.903502 
L 260.01 -34.614751 
L 260.01 -34.325999 
L 260.01 -34.037248 
L 260.01 -33.748497 
L 260.01 -33.459745 
L 260.01 -33.170994 
L 260.01 -32.882243 
L 260.01 -32.593492 
L 260.01 -32.30474 
L 260.01 -32.015989 
L 260.01 -31.727238 
L 260.01 -31.438486 
L 260.01 -31.149735 
L 260.01 -30.860984 
L 260.01 -30.572233 
L 260.01 -30.283481 
L 260.01 -29.99473 
L 260.01 -29.705979 
L 260.01 -29.417228 
L 260.01 -29.128476 
L 260.01 -28.839725 
L 260.01 -28.550974 
L 260.01 -28.262222 
L 260.01 -27.973471 
L 260.01 -27.68472 
L 260.01 -27.395969 
L 260.01 -27.107217 
L 260.01 -26.818466 
z
" style="stroke: #1a1a1a; stroke-width: 0.5"/>
    </defs>
    <g clip-path="url(#p6e005b255e)">
     <use xlink:href="#md9b23d59e6" x="0" y="144" style="fill: #9393f0; stroke: #1a1a1a; stroke-width: 0.5"/>
    </g>
   </g>
   <g id="FillBetweenPolyCollection_8">
    <defs>
     <path id="m79d0fe91d4" d="M 272.017815 -39.583696 
L 265.59 -39.583696 
L 265.59 -39.880467 
L 265.59 -40.177238 
L 265.59 -40.474009 
L 265.59 -40.77078 
L 265.59 -41.067551 
L 265.59 -41.364321 
L 265.59 -41.661092 
L 265.59 -41.957863 
L 265.59 -42.254634 
L 265.59 -42.551405 
L 265.59 -42.848175 
L 265.59 -43.144946 
L 265.59 -43.441717 
L 265.59 -43.738488 
L 265.59 -44.035259 
L 265.59 -44.332029 
L 265.59 -44.6288 
L 265.59 -44.925571 
L 265.59 -45.222342 
L 265.59 -45.519113 
L 265.59 -45.815884 
L 265.59 -46.112654 
L 265.59 -46.409425 
L 265.59 -46.706196 
L 265.59 -47.002967 
L 265.59 -47.299738 
L 265.59 -47.596508 
L 265.59 -47.893279 
L 265.59 -48.19005 
L 265.59 -48.486821 
L 265.59 -48.783592 
L 265.59 -49.080363 
L 265.59 -49.377133 
L 265.59 -49.673904 
L 265.59 -49.970675 
L 265.59 -50.267446 
L 265.59 -50.564217 
L 265.59 -50.860987 
L 265.59 -51.157758 
L 265.59 -51.454529 
L 265.59 -51.7513 
L 265.59 -52.048071 
L 265.59 -52.344842 
L 265.59 -52.641612 
L 265.59 -52.938383 
L 265.59 -53.235154 
L 265.59 -53.531925 
L 265.59 -53.828696 
L 265.59 -54.125466 
L 265.59 -54.422237 
L 265.59 -54.719008 
L 265.59 -55.015779 
L 265.59 -55.31255 
L 265.59 -55.60932 
L 265.59 -55.906091 
L 265.59 -56.202862 
L 265.59 -56.499633 
L 265.59 -56.796404 
L 265.59 -57.093175 
L 265.59 -57.389945 
L 265.59 -57.686716 
L 265.59 -57.983487 
L 265.59 -58.280258 
L 265.59 -58.577029 
L 265.59 -58.873799 
L 265.59 -59.17057 
L 265.59 -59.467341 
L 265.59 -59.764112 
L 265.59 -60.060883 
L 265.59 -60.357654 
L 265.59 -60.654424 
L 265.59 -60.951195 
L 265.59 -61.247966 
L 265.59 -61.544737 
L 265.59 -61.841508 
L 265.59 -62.138278 
L 265.59 -62.435049 
L 265.59 -62.73182 
L 265.59 -63.028591 
L 265.59 -63.325362 
L 265.59 -63.622132 
L 265.59 -63.918903 
L 265.59 -64.215674 
L 265.59 -64.512445 
L 265.59 -64.809216 
L 265.59 -65.105987 
L 265.59 -65.402757 
L 265.59 -65.699528 
L 265.59 -65.996299 
L 265.59 -66.29307 
L 265.59 -66.589841 
L 265.59 -66.886611 
L 265.59 -67.183382 
L 265.59 -67.480153 
L 265.59 -67.776924 
L 265.59 -68.073695 
L 265.59 -68.370466 
L 265.59 -68.667236 
L 265.59 -68.964007 
L 269.044412 -68.964007 
L 269.044412 -68.964007 
L 268.716526 -68.667236 
L 267.908065 -68.370466 
L 266.997878 -68.073695 
L 266.290455 -67.776924 
L 265.875477 -67.480153 
L 265.68531 -67.183382 
L 265.616066 -66.886611 
L 265.595841 -66.589841 
L 265.591089 -66.29307 
L 265.590318 -65.996299 
L 265.591194 -65.699528 
L 265.597214 -65.402757 
L 265.626421 -65.105987 
L 265.741234 -64.809216 
L 266.106434 -64.512445 
L 267.04055 -64.215674 
L 268.941855 -63.918903 
L 271.963367 -63.622132 
L 275.565844 -63.325362 
L 278.455971 -63.028591 
L 279.302536 -62.73182 
L 277.781632 -62.435049 
L 274.902614 -62.138278 
L 272.215906 -61.841508 
L 270.699907 -61.544737 
L 270.343414 -61.247966 
L 270.560727 -60.951195 
L 270.798439 -60.654424 
L 270.779324 -60.357654 
L 270.425306 -60.060883 
L 269.805705 -59.764112 
L 269.190809 -59.467341 
L 268.990581 -59.17057 
L 269.515777 -58.873799 
L 270.809541 -58.577029 
L 272.729672 -58.280258 
L 275.112868 -57.983487 
L 277.762715 -57.686716 
L 280.319475 -57.389945 
L 282.298178 -57.093175 
L 283.356897 -56.796404 
L 283.534391 -56.499633 
L 283.231851 -56.202862 
L 282.980354 -55.906091 
L 283.190047 -55.60932 
L 284.028819 -55.31255 
L 285.405721 -55.015779 
L 286.934011 -54.719008 
L 287.91 -54.422237 
L 287.538756 -54.125466 
L 285.420647 -53.828696 
L 281.873895 -53.531925 
L 277.729782 -53.235154 
L 273.821663 -52.938383 
L 270.661461 -52.641612 
L 268.446685 -52.344842 
L 267.192348 -52.048071 
L 266.824584 -51.7513 
L 267.215198 -51.454529 
L 268.171982 -51.157758 
L 269.440476 -50.860987 
L 270.783214 -50.564217 
L 272.053258 -50.267446 
L 273.098334 -49.970675 
L 273.598026 -49.673904 
L 273.171599 -49.377133 
L 271.761 -49.080363 
L 269.814777 -48.783592 
L 267.99231 -48.486821 
L 266.717059 -48.19005 
L 266.024814 -47.893279 
L 265.727716 -47.596508 
L 265.62578 -47.299738 
L 265.597623 -47.002967 
L 265.591331 -46.706196 
L 265.590191 -46.409425 
L 265.590022 -46.112654 
L 265.590002 -45.815884 
L 265.59 -45.519113 
L 265.59 -45.222342 
L 265.59 -44.925571 
L 265.59 -44.6288 
L 265.590001 -44.332029 
L 265.590013 -44.035259 
L 265.590108 -43.738488 
L 265.590759 -43.441717 
L 265.594378 -43.144946 
L 265.610802 -42.848175 
L 265.67157 -42.551405 
L 265.85464 -42.254634 
L 266.302879 -41.957863 
L 267.192142 -41.661092 
L 268.613758 -41.364321 
L 270.424807 -41.067551 
L 272.214874 -40.77078 
L 273.476947 -40.474009 
L 273.862373 -40.177238 
L 273.312041 -39.880467 
L 272.017815 -39.583696 
z
" style="stroke: #1a1a1a; stroke-width: 0.5"/>
    </defs>
    <g clip-path="url(#p6e005b255e)">
     <use xlink:href="#m79d0fe91d4" x="0" y="144" style="fill: #935851; stroke: #1a1a1a; stroke-width: 0.5"/>
    </g>
   </g>
   <g id="FillBetweenPolyCollection_9">
    <defs>
     <path id="m8d88a2ea5b" d="M 315.81 -26.14182 
L 311.376855 -26.14182 
L 311.734811 -26.404753 
L 312.623919 -26.667686 
L 313.585541 -26.930619 
L 314.166451 -27.193551 
L 314.115355 -27.456484 
L 313.45364 -27.719417 
L 312.470696 -27.98235 
L 311.636575 -28.245283 
L 311.38691 -28.508216 
L 311.869497 -28.771148 
L 312.864504 -29.034081 
L 313.963392 -29.297014 
L 314.839123 -29.559947 
L 315.381925 -29.82288 
L 315.651715 -30.085812 
L 315.760918 -30.348745 
L 315.797237 -30.611678 
L 315.807217 -30.874611 
L 315.809491 -31.137544 
L 315.809922 -31.400476 
L 315.809988 -31.663409 
L 315.809982 -31.926342 
L 315.809875 -32.189275 
L 315.809216 -32.452208 
L 315.805879 -32.715141 
L 315.791796 -32.978073 
L 315.742373 -33.241006 
L 315.598327 -33.503939 
L 315.250343 -33.766872 
L 314.555071 -34.029805 
L 313.409277 -34.292737 
L 311.857787 -34.55567 
L 310.14305 -34.818603 
L 308.618633 -35.081536 
L 307.572256 -35.344469 
L 307.103358 -35.607401 
L 307.1499 -35.870334 
L 307.617147 -36.133267 
L 308.47193 -36.3962 
L 309.705432 -36.659133 
L 311.212541 -36.922066 
L 312.743437 -37.184998 
L 314.002009 -37.447931 
L 314.783732 -37.710864 
L 315.010819 -37.973797 
L 314.669472 -38.23673 
L 313.764538 -38.499662 
L 312.339655 -38.762595 
L 310.476465 -39.025528 
L 308.198142 -39.288461 
L 305.393781 -39.551394 
L 301.977883 -39.814326 
L 298.249638 -40.077259 
L 295.06314 -40.340192 
L 293.49 -40.603125 
L 294.175354 -40.866058 
L 296.942222 -41.128991 
L 300.952228 -41.391923 
L 305.198836 -41.654856 
L 308.901125 -41.917789 
L 311.604835 -42.180722 
L 313.091876 -42.443655 
L 313.269902 -42.706587 
L 312.15286 -42.96952 
L 309.964376 -43.232453 
L 307.261122 -43.495386 
L 304.857979 -43.758319 
L 303.455444 -44.021251 
L 303.192475 -44.284184 
L 303.516308 -44.547117 
L 303.548392 -44.81005 
L 302.718135 -45.072983 
L 301.183492 -45.335916 
L 299.692057 -45.598848 
L 299.014897 -45.861781 
L 299.47393 -46.124714 
L 300.922702 -46.387647 
L 303.014955 -46.65058 
L 305.375868 -46.913512 
L 307.590832 -47.176445 
L 309.241847 -47.439378 
L 310.112153 -47.702311 
L 310.353084 -47.965244 
L 310.358395 -48.228176 
L 310.421905 -48.491109 
L 310.543245 -48.754042 
L 310.591703 -49.016975 
L 310.60476 -49.279908 
L 310.839369 -49.542841 
L 311.516574 -49.805773 
L 312.573299 -50.068706 
L 313.689111 -50.331639 
L 314.509181 -50.594572 
L 314.812547 -50.857505 
L 314.533136 -51.120437 
L 313.742128 -51.38337 
L 312.678783 -51.646303 
L 311.750684 -51.909236 
L 311.380662 -52.172169 
L 315.81 -52.172169 
L 315.81 -52.172169 
L 315.81 -51.909236 
L 315.81 -51.646303 
L 315.81 -51.38337 
L 315.81 -51.120437 
L 315.81 -50.857505 
L 315.81 -50.594572 
L 315.81 -50.331639 
L 315.81 -50.068706 
L 315.81 -49.805773 
L 315.81 -49.542841 
L 315.81 -49.279908 
L 315.81 -49.016975 
L 315.81 -48.754042 
L 315.81 -48.491109 
L 315.81 -48.228176 
L 315.81 -47.965244 
L 315.81 -47.702311 
L 315.81 -47.439378 
L 315.81 -47.176445 
L 315.81 -46.913512 
L 315.81 -46.65058 
L 315.81 -46.387647 
L 315.81 -46.124714 
L 315.81 -45.861781 
L 315.81 -45.598848 
L 315.81 -45.335916 
L 315.81 -45.072983 
L 315.81 -44.81005 
L 315.81 -44.547117 
L 315.81 -44.284184 
L 315.81 -44.021251 
L 315.81 -43.758319 
L 315.81 -43.495386 
L 315.81 -43.232453 
L 315.81 -42.96952 
L 315.81 -42.706587 
L 315.81 -42.443655 
L 315.81 -42.180722 
L 315.81 -41.917789 
L 315.81 -41.654856 
L 315.81 -41.391923 
L 315.81 -41.128991 
L 315.81 -40.866058 
L 315.81 -40.603125 
L 315.81 -40.340192 
L 315.81 -40.077259 
L 315.81 -39.814326 
L 315.81 -39.551394 
L 315.81 -39.288461 
L 315.81 -39.025528 
L 315.81 -38.762595 
L 315.81 -38.499662 
L 315.81 -38.23673 
L 315.81 -37.973797 
L 315.81 -37.710864 
L 315.81 -37.447931 
L 315.81 -37.184998 
L 315.81 -36.922066 
L 315.81 -36.659133 
L 315.81 -36.3962 
L 315.81 -36.133267 
L 315.81 -35.870334 
L 315.81 -35.607401 
L 315.81 -35.344469 
L 315.81 -35.081536 
L 315.81 -34.818603 
L 315.81 -34.55567 
L 315.81 -34.292737 
L 315.81 -34.029805 
L 315.81 -33.766872 
L 315.81 -33.503939 
L 315.81 -33.241006 
L 315.81 -32.978073 
L 315.81 -32.715141 
L 315.81 -32.452208 
L 315.81 -32.189275 
L 315.81 -31.926342 
L 315.81 -31.663409 
L 315.81 -31.400476 
L 315.81 -31.137544 
L 315.81 -30.874611 
L 315.81 -30.611678 
L 315.81 -30.348745 
L 315.81 -30.085812 
L 315.81 -29.82288 
L 315.81 -29.559947 
L 315.81 -29.297014 
L 315.81 -29.034081 
L 315.81 -28.771148 
L 315.81 -28.508216 
L 315.81 -28.245283 
L 315.81 -27.98235 
L 315.81 -27.719417 
L 315.81 -27.456484 
L 315.81 -27.193551 
L 315.81 -26.930619 
L 315.81 -26.667686 
L 315.81 -26.404753 
L 315.81 -26.14182 
z
" style="stroke: #1a1a1a; stroke-width: 0.5"/>
    </defs>
    <g clip-path="url(#p6e005b255e)">
     <use xlink:href="#m8d88a2ea5b" x="0" y="144" style="fill: #20dfb1; stroke: #1a1a1a; stroke-width: 0.5"/>
    </g>
   </g>
   <g id="FillBetweenPolyCollection_10">
    <defs>
     <path id="mf7187e4a07" d="M 326.710224 -20.88 
L 321.39 -20.88 
L 321.39 -21.294383 
L 321.39 -21.708767 
L 321.39 -22.12315 
L 321.39 -22.537534 
L 321.39 -22.951917 
L 321.39 -23.3663 
L 321.39 -23.780684 
L 321.39 -24.195067 
L 321.39 -24.609451 
L 321.39 -25.023834 
L 321.39 -25.438217 
L 321.39 -25.852601 
L 321.39 -26.266984 
L 321.39 -26.681367 
L 321.39 -27.095751 
L 321.39 -27.510134 
L 321.39 -27.924518 
L 321.39 -28.338901 
L 321.39 -28.753284 
L 321.39 -29.167668 
L 321.39 -29.582051 
L 321.39 -29.996435 
L 321.39 -30.410818 
L 321.39 -30.825201 
L 321.39 -31.239585 
L 321.39 -31.653968 
L 321.39 -32.068352 
L 321.39 -32.482735 
L 321.39 -32.897118 
L 321.39 -33.311502 
L 321.39 -33.725885 
L 321.39 -34.140268 
L 321.39 -34.554652 
L 321.39 -34.969035 
L 321.39 -35.383419 
L 321.39 -35.797802 
L 321.39 -36.212185 
L 321.39 -36.626569 
L 321.39 -37.040952 
L 321.39 -37.455336 
L 321.39 -37.869719 
L 321.39 -38.284102 
L 321.39 -38.698486 
L 321.39 -39.112869 
L 321.39 -39.527253 
L 321.39 -39.941636 
L 321.39 -40.356019 
L 321.39 -40.770403 
L 321.39 -41.184786 
L 321.39 -41.599169 
L 321.39 -42.013553 
L 321.39 -42.427936 
L 321.39 -42.84232 
L 321.39 -43.256703 
L 321.39 -43.671086 
L 321.39 -44.08547 
L 321.39 -44.499853 
L 321.39 -44.914237 
L 321.39 -45.32862 
L 321.39 -45.743003 
L 321.39 -46.157387 
L 321.39 -46.57177 
L 321.39 -46.986154 
L 321.39 -47.400537 
L 321.39 -47.81492 
L 321.39 -48.229304 
L 321.39 -48.643687 
L 321.39 -49.05807 
L 321.39 -49.472454 
L 321.39 -49.886837 
L 321.39 -50.301221 
L 321.39 -50.715604 
L 321.39 -51.129987 
L 321.39 -51.544371 
L 321.39 -51.958754 
L 321.39 -52.373138 
L 321.39 -52.787521 
L 321.39 -53.201904 
L 321.39 -53.616288 
L 321.39 -54.030671 
L 321.39 -54.445055 
L 321.39 -54.859438 
L 321.39 -55.273821 
L 321.39 -55.688205 
L 321.39 -56.102588 
L 321.39 -56.516971 
L 321.39 -56.931355 
L 321.39 -57.345738 
L 321.39 -57.760122 
L 321.39 -58.174505 
L 321.39 -58.588888 
L 321.39 -59.003272 
L 321.39 -59.417655 
L 321.39 -59.832039 
L 321.39 -60.246422 
L 321.39 -60.660805 
L 321.39 -61.075189 
L 321.39 -61.489572 
L 321.39 -61.903956 
L 326.416404 -61.903956 
L 326.416404 -61.903956 
L 326.071195 -61.489572 
L 325.171472 -61.075189 
L 324.039897 -60.660805 
L 323.002552 -60.246422 
L 322.248947 -59.832039 
L 321.814255 -59.417655 
L 321.654363 -59.003272 
L 321.734851 -58.588888 
L 322.07474 -58.174505 
L 322.724165 -57.760122 
L 323.687083 -57.345738 
L 324.837029 -56.931355 
L 325.905547 -56.516971 
L 326.596965 -56.102588 
L 326.778339 -55.688205 
L 326.592217 -55.273821 
L 326.36784 -54.859438 
L 326.372922 -54.445055 
L 326.602479 -54.030671 
L 326.784325 -53.616288 
L 326.598674 -53.201904 
L 325.930477 -52.787521 
L 324.961541 -52.373138 
L 324.060972 -51.958754 
L 323.585518 -51.544371 
L 323.720209 -51.129987 
L 324.408738 -50.715604 
L 325.368727 -50.301221 
L 326.195861 -49.886837 
L 326.551171 -49.472454 
L 326.351891 -49.05807 
L 325.831759 -48.643687 
L 325.401123 -48.229304 
L 325.386726 -47.81492 
L 325.83092 -47.400537 
L 326.496299 -46.986154 
L 327.082106 -46.57177 
L 327.503699 -46.157387 
L 328.021535 -45.743003 
L 329.10112 -45.32862 
L 331.09223 -44.914237 
L 333.963841 -44.499853 
L 337.279193 -44.08547 
L 340.390995 -43.671086 
L 342.682156 -43.256703 
L 343.71 -42.84232 
L 343.253835 -42.427936 
L 341.337337 -42.013553 
L 338.245928 -41.599169 
L 334.492167 -41.184786 
L 330.69485 -40.770403 
L 327.408264 -40.356019 
L 324.987908 -39.941636 
L 323.560373 -39.527253 
L 323.090694 -39.112869 
L 323.471593 -38.698486 
L 324.558954 -38.284102 
L 326.148618 -37.869719 
L 327.958831 -37.455336 
L 329.674464 -37.040952 
L 331.032619 -36.626569 
L 331.876103 -36.212185 
L 332.136117 -35.797802 
L 331.784685 -35.383419 
L 330.826287 -34.969035 
L 329.346489 -34.554652 
L 327.564146 -34.140268 
L 325.821767 -33.725885 
L 324.507954 -33.311502 
L 323.965955 -32.897118 
L 324.43018 -32.482735 
L 325.971906 -32.068352 
L 328.424889 -31.653968 
L 331.335388 -31.239585 
L 334.038841 -30.825201 
L 335.893521 -30.410818 
L 336.543748 -29.996435 
L 336.022158 -29.582051 
L 334.628689 -29.167668 
L 332.717691 -28.753284 
L 330.577475 -28.338901 
L 328.455855 -27.924518 
L 326.629388 -27.510134 
L 325.393697 -27.095751 
L 324.957426 -26.681367 
L 325.324556 -26.266984 
L 326.263822 -25.852601 
L 327.40092 -25.438217 
L 328.379003 -25.023834 
L 328.977942 -24.609451 
L 329.123642 -24.195067 
L 328.832929 -23.780684 
L 328.194769 -23.3663 
L 327.403153 -22.951917 
L 326.742111 -22.537534 
L 326.449309 -22.12315 
L 326.538209 -21.708767 
L 326.749787 -21.294383 
L 326.710224 -20.88 
z
" style="stroke: #1a1a1a; stroke-width: 0.5"/>
    </defs>
    <g clip-path="url(#p6e005b255e)">
     <use xlink:href="#mf7187e4a07" x="0" y="144" style="fill: #137683; stroke: #1a1a1a; stroke-width: 0.5"/>
    </g>
   </g>
   <g id="FillBetweenPolyCollection_11">
    <defs>
     <path id="maf6660dae5" d="M 371.61 -44.144128 
L 365.66319 -44.144128 
L 366.21349 -44.433006 
L 367.577266 -44.721885 
L 369.12833 -45.010763 
L 370.352389 -45.299642 
L 371.085182 -45.588521 
L 371.429614 -45.877399 
L 371.558681 -46.166278 
L 371.596138 -46.455156 
L 371.596315 -46.744035 
L 371.555033 -47.032914 
L 371.393615 -47.321792 
L 370.900148 -47.610671 
L 369.677984 -47.899549 
L 367.2384 -48.188428 
L 363.359381 -48.477306 
L 358.556962 -48.766185 
L 354.168308 -49.055064 
L 351.703994 -49.343942 
L 351.886857 -49.632821 
L 354.226189 -49.921699 
L 357.396398 -50.210578 
L 359.920872 -50.499457 
L 360.721542 -50.788335 
L 359.508393 -51.077214 
L 356.90119 -51.366092 
L 354.029733 -51.654971 
L 351.82504 -51.94385 
L 350.65022 -52.232728 
L 350.478614 -52.521607 
L 351.154797 -52.810485 
L 352.412224 -53.099364 
L 353.860219 -53.388242 
L 355.139358 -53.677121 
L 356.062989 -53.966 
L 356.535034 -54.254878 
L 356.360745 -54.543757 
L 355.257594 -54.832635 
L 353.19514 -55.121514 
L 350.796561 -55.410393 
L 349.29 -55.699271 
L 349.780858 -55.98815 
L 352.362869 -56.277028 
L 355.9915 -56.565907 
L 359.349344 -56.854786 
L 361.784006 -57.143664 
L 363.343901 -57.432543 
L 364.125514 -57.721421 
L 363.940873 -58.0103 
L 362.714111 -58.299178 
L 360.979703 -58.588057 
L 359.729058 -58.876936 
L 359.665613 -59.165814 
L 360.654161 -59.454693 
L 361.970134 -59.743571 
L 363.070529 -60.03245 
L 364.033821 -60.321329 
L 365.246506 -60.610207 
L 366.803286 -60.899086 
L 368.312712 -61.187964 
L 369.202331 -61.476843 
L 369.117661 -61.765722 
L 368.133835 -62.0546 
L 366.770551 -62.343479 
L 365.793647 -62.632357 
L 365.79564 -62.921236 
L 366.813789 -63.210114 
L 368.350637 -63.498993 
L 369.785846 -63.787872 
L 370.769272 -64.07675 
L 371.290913 -64.365629 
L 371.510271 -64.654507 
L 371.584332 -64.943386 
L 371.60456 -65.232265 
L 371.60905 -65.521143 
L 371.609864 -65.810022 
L 371.609984 -66.0989 
L 371.609998 -66.387779 
L 371.609995 -66.676658 
L 371.609953 -66.965536 
L 371.609642 -67.254415 
L 371.607734 -67.543293 
L 371.598183 -67.832172 
L 371.559252 -68.12105 
L 371.430528 -68.409929 
L 371.087323 -68.698808 
L 370.35649 -68.987686 
L 369.134398 -69.276565 
L 367.583803 -69.565443 
L 366.217541 -69.854322 
L 365.660917 -70.143201 
L 366.197199 -70.432079 
L 367.519646 -70.720958 
L 368.941897 -71.009836 
L 369.823464 -71.298715 
L 369.825429 -71.587594 
L 368.947092 -71.876472 
L 367.525935 -72.165351 
L 366.201518 -72.454229 
L 365.66089 -72.743108 
L 371.61 -72.743108 
L 371.61 -72.743108 
L 371.61 -72.454229 
L 371.61 -72.165351 
L 371.61 -71.876472 
L 371.61 -71.587594 
L 371.61 -71.298715 
L 371.61 -71.009836 
L 371.61 -70.720958 
L 371.61 -70.432079 
L 371.61 -70.143201 
L 371.61 -69.854322 
L 371.61 -69.565443 
L 371.61 -69.276565 
L 371.61 -68.987686 
L 371.61 -68.698808 
L 371.61 -68.409929 
L 371.61 -68.12105 
L 371.61 -67.832172 
L 371.61 -67.543293 
L 371.61 -67.254415 
L 371.61 -66.965536 
L 371.61 -66.676658 
L 371.61 -66.387779 
L 371.61 -66.0989 
L 371.61 -65.810022 
L 371.61 -65.521143 
L 371.61 -65.232265 
L 371.61 -64.943386 
L 371.61 -64.654507 
L 371.61 -64.365629 
L 371.61 -64.07675 
L 371.61 -63.787872 
L 371.61 -63.498993 
L 371.61 -63.210114 
L 371.61 -62.921236 
L 371.61 -62.632357 
L 371.61 -62.343479 
L 371.61 -62.0546 
L 371.61 -61.765722 
L 371.61 -61.476843 
L 371.61 -61.187964 
L 371.61 -60.899086 
L 371.61 -60.610207 
L 371.61 -60.321329 
L 371.61 -60.03245 
L 371.61 -59.743571 
L 371.61 -59.454693 
L 371.61 -59.165814 
L 371.61 -58.876936 
L 371.61 -58.588057 
L 371.61 -58.299178 
L 371.61 -58.0103 
L 371.61 -57.721421 
L 371.61 -57.432543 
L 371.61 -57.143664 
L 371.61 -56.854786 
L 371.61 -56.565907 
L 371.61 -56.277028 
L 371.61 -55.98815 
L 371.61 -55.699271 
L 371.61 -55.410393 
L 371.61 -55.121514 
L 371.61 -54.832635 
L 371.61 -54.543757 
L 371.61 -54.254878 
L 371.61 -53.966 
L 371.61 -53.677121 
L 371.61 -53.388242 
L 371.61 -53.099364 
L 371.61 -52.810485 
L 371.61 -52.521607 
L 371.61 -52.232728 
L 371.61 -51.94385 
L 371.61 -51.654971 
L 371.61 -51.366092 
L 371.61 -51.077214 
L 371.61 -50.788335 
L 371.61 -50.499457 
L 371.61 -50.210578 
L 371.61 -49.921699 
L 371.61 -49.632821 
L 371.61 -49.343942 
L 371.61 -49.055064 
L 371.61 -48.766185 
L 371.61 -48.477306 
L 371.61 -48.188428 
L 371.61 -47.899549 
L 371.61 -47.610671 
L 371.61 -47.321792 
L 371.61 -47.032914 
L 371.61 -46.744035 
L 371.61 -46.455156 
L 371.61 -46.166278 
L 371.61 -45.877399 
L 371.61 -45.588521 
L 371.61 -45.299642 
L 371.61 -45.010763 
L 371.61 -44.721885 
L 371.61 -44.433006 
L 371.61 -44.144128 
z
" style="stroke: #1a1a1a; stroke-width: 0.5"/>
    </defs>
    <g clip-path="url(#p6e005b255e)">
     <use xlink:href="#maf6660dae5" x="0" y="144" style="fill: #0f0f6c; stroke: #1a1a1a; stroke-width: 0.5"/>
    </g>
   </g>
   <g id="FillBetweenPolyCollection_12">
    <defs>
     <path id="m0cf1e48a27" d="M 393.188411 -35.959437 
L 377.19 -35.959437 
L 377.19 -36.114983 
L 377.19 -36.27053 
L 377.19 -36.426076 
L 377.19 -36.581622 
L 377.19 -36.737169 
L 377.19 -36.892715 
L 377.19 -37.048261 
L 377.19 -37.203808 
L 377.19 -37.359354 
L 377.19 -37.514901 
L 377.19 -37.670447 
L 377.19 -37.825993 
L 377.19 -37.98154 
L 377.19 -38.137086 
L 377.19 -38.292632 
L 377.19 -38.448179 
L 377.19 -38.603725 
L 377.19 -38.759271 
L 377.19 -38.914818 
L 377.19 -39.070364 
L 377.19 -39.225911 
L 377.19 -39.381457 
L 377.19 -39.537003 
L 377.19 -39.69255 
L 377.19 -39.848096 
L 377.19 -40.003642 
L 377.19 -40.159189 
L 377.19 -40.314735 
L 377.19 -40.470282 
L 377.19 -40.625828 
L 377.19 -40.781374 
L 377.19 -40.936921 
L 377.19 -41.092467 
L 377.19 -41.248013 
L 377.19 -41.40356 
L 377.19 -41.559106 
L 377.19 -41.714653 
L 377.19 -41.870199 
L 377.19 -42.025745 
L 377.19 -42.181292 
L 377.19 -42.336838 
L 377.19 -42.492384 
L 377.19 -42.647931 
L 377.19 -42.803477 
L 377.19 -42.959024 
L 377.19 -43.11457 
L 377.19 -43.270116 
L 377.19 -43.425663 
L 377.19 -43.581209 
L 377.19 -43.736755 
L 377.19 -43.892302 
L 377.19 -44.047848 
L 377.19 -44.203394 
L 377.19 -44.358941 
L 377.19 -44.514487 
L 377.19 -44.670034 
L 377.19 -44.82558 
L 377.19 -44.981126 
L 377.19 -45.136673 
L 377.19 -45.292219 
L 377.19 -45.447765 
L 377.19 -45.603312 
L 377.19 -45.758858 
L 377.19 -45.914405 
L 377.19 -46.069951 
L 377.19 -46.225497 
L 377.19 -46.381044 
L 377.19 -46.53659 
L 377.19 -46.692136 
L 377.19 -46.847683 
L 377.19 -47.003229 
L 377.19 -47.158776 
L 377.19 -47.314322 
L 377.19 -47.469868 
L 377.19 -47.625415 
L 377.19 -47.780961 
L 377.19 -47.936507 
L 377.19 -48.092054 
L 377.19 -48.2476 
L 377.19 -48.403147 
L 377.19 -48.558693 
L 377.19 -48.714239 
L 377.19 -48.869786 
L 377.19 -49.025332 
L 377.19 -49.180878 
L 377.19 -49.336425 
L 377.19 -49.491971 
L 377.19 -49.647517 
L 377.19 -49.803064 
L 377.19 -49.95861 
L 377.19 -50.114157 
L 377.19 -50.269703 
L 377.19 -50.425249 
L 377.19 -50.580796 
L 377.19 -50.736342 
L 377.19 -50.891888 
L 377.19 -51.047435 
L 377.19 -51.202981 
L 377.19 -51.358528 
L 389.252367 -51.358528 
L 389.252367 -51.358528 
L 390.745029 -51.202981 
L 391.749121 -51.047435 
L 392.234103 -50.891888 
L 392.21951 -50.736342 
L 391.740991 -50.580796 
L 390.832788 -50.425249 
L 389.539661 -50.269703 
L 387.951931 -50.114157 
L 386.241194 -49.95861 
L 384.671394 -49.803064 
L 383.571521 -49.647517 
L 383.272706 -49.491971 
L 384.023452 -49.336425 
L 385.901129 -49.180878 
L 388.743344 -49.025332 
L 392.131099 -48.869786 
L 395.454652 -48.714239 
L 398.066542 -48.558693 
L 399.477444 -48.403147 
L 399.51 -48.2476 
L 398.331292 -48.092054 
L 396.345208 -47.936507 
L 394.006124 -47.780961 
L 391.658372 -47.625415 
L 389.480059 -47.469868 
L 387.535057 -47.314322 
L 385.868972 -47.158776 
L 384.569111 -47.003229 
L 383.747814 -46.847683 
L 383.467837 -46.692136 
L 383.666788 -46.53659 
L 384.135774 -46.381044 
L 384.573109 -46.225497 
L 384.690073 -46.069951 
L 384.316472 -45.914405 
L 383.454354 -45.758858 
L 382.257611 -45.603312 
L 380.955319 -45.447765 
L 379.763011 -45.292219 
L 378.824456 -45.136673 
L 378.202778 -44.981126 
L 377.912234 -44.82558 
L 377.966202 -44.670034 
L 378.415624 -44.514487 
L 379.358951 -44.358941 
L 380.913985 -44.203394 
L 383.154126 -44.047848 
L 386.028139 -43.892302 
L 389.299065 -43.736755 
L 392.542185 -43.581209 
L 395.223284 -43.425663 
L 396.840655 -43.270116 
L 397.077659 -43.11457 
L 395.901572 -42.959024 
L 393.567682 -42.803477 
L 390.531638 -42.647931 
L 387.312433 -42.492384 
L 384.36355 -42.336838 
L 381.997495 -42.181292 
L 380.37967 -42.025745 
L 379.576344 -41.870199 
L 379.620246 -41.714653 
L 380.552069 -41.559106 
L 382.408046 -41.40356 
L 385.150619 -41.248013 
L 388.573956 -41.092467 
L 392.243591 -40.936921 
L 395.529544 -40.781374 
L 397.753076 -40.625828 
L 398.401937 -40.470282 
L 397.316788 -40.314735 
L 394.752703 -40.159189 
L 391.281499 -40.003642 
L 387.585222 -39.848096 
L 384.242874 -39.69255 
L 381.601109 -39.537003 
L 379.761389 -39.381457 
L 378.654658 -39.225911 
L 378.145117 -39.070364 
L 378.111779 -38.914818 
L 378.482499 -38.759271 
L 379.220814 -38.603725 
L 380.283363 -38.448179 
L 381.575744 -38.292632 
L 382.936981 -38.137086 
L 384.172382 -37.98154 
L 385.129306 -37.825993 
L 385.779953 -37.670447 
L 386.260201 -37.514901 
L 386.829366 -37.359354 
L 387.758111 -37.203808 
L 389.194556 -37.048261 
L 391.07376 -36.892715 
L 393.113549 -36.737169 
L 394.896127 -36.581622 
L 395.997349 -36.426076 
L 396.112388 -36.27053 
L 395.137375 -36.114983 
L 393.188411 -35.959437 
z
" style="stroke: #1a1a1a; stroke-width: 0.5"/>
    </defs>
    <g clip-path="url(#p6e005b255e)">
     <use xlink:href="#m0cf1e48a27" x="0" y="144" style="fill: #94c360; stroke: #1a1a1a; stroke-width: 0.5"/>
    </g>
   </g>
   <g id="FillBetweenPolyCollection_13">
    <defs>
     <path id="ma8dc11808f" d="M 427.41 -36.752268 
L 417.746449 -36.752268 
L 416.794699 -37.129016 
L 416.411322 -37.505764 
L 416.507111 -37.882512 
L 417.026579 -38.259259 
L 417.866029 -38.636007 
L 418.730914 -39.012755 
L 419.171745 -39.389502 
L 418.843607 -39.76625 
L 417.766044 -40.142998 
L 416.34302 -40.519746 
L 415.138392 -40.896493 
L 414.601616 -41.273241 
L 414.904596 -41.649989 
L 415.900789 -42.026737 
L 417.172993 -42.403484 
L 418.192044 -42.780232 
L 418.576315 -43.15698 
L 418.29367 -43.533727 
L 417.607038 -43.910475 
L 416.774317 -44.287223 
L 415.776582 -44.663971 
L 414.346899 -45.040718 
L 412.279281 -45.417466 
L 409.729608 -45.794214 
L 407.248069 -46.170961 
L 405.531378 -46.547709 
L 405.09 -46.924457 
L 406.049704 -47.301205 
L 408.179638 -47.677952 
L 411.062814 -48.0547 
L 414.236564 -48.431448 
L 417.221528 -48.808196 
L 419.53001 -49.184943 
L 420.783603 -49.561691 
L 420.921595 -49.938439 
L 420.322891 -50.315186 
L 419.679349 -50.691934 
L 419.647489 -51.068682 
L 420.503378 -51.44543 
L 422.0447 -51.822177 
L 423.788439 -52.198925 
L 425.281122 -52.575673 
L 426.289148 -52.95242 
L 426.784793 -53.329168 
L 426.813284 -53.705916 
L 426.378829 -54.082664 
L 425.437087 -54.459411 
L 423.999782 -54.836159 
L 422.275066 -55.212907 
L 420.710477 -55.589655 
L 419.842036 -55.966402 
L 420.008945 -56.34315 
L 421.144134 -56.719898 
L 422.817592 -57.096645 
L 424.49612 -57.473393 
L 425.809431 -57.850141 
L 426.648887 -58.226889 
L 427.096675 -58.603636 
L 427.298336 -58.980384 
L 427.375549 -59.357132 
L 427.400798 -59.73388 
L 427.407872 -60.110627 
L 427.409574 -60.487375 
L 427.409926 -60.864123 
L 427.409989 -61.24087 
L 427.409999 -61.617618 
L 427.41 -61.994366 
L 427.41 -62.371114 
L 427.41 -62.747861 
L 427.41 -63.124609 
L 427.41 -63.501357 
L 427.41 -63.878104 
L 427.41 -64.254852 
L 427.41 -64.6316 
L 427.41 -65.008348 
L 427.41 -65.385095 
L 427.41 -65.761843 
L 427.41 -66.138591 
L 427.41 -66.515339 
L 427.41 -66.892086 
L 427.41 -67.268834 
L 427.41 -67.645582 
L 427.41 -68.022329 
L 427.409999 -68.399077 
L 427.409994 -68.775825 
L 427.409961 -69.152573 
L 427.409764 -69.52932 
L 427.408759 -69.906068 
L 427.40436 -70.282816 
L 427.387804 -70.659563 
L 427.334385 -71.036311 
L 427.186992 -71.413059 
L 426.840617 -71.789807 
L 426.151481 -72.166554 
L 425.001832 -72.543302 
L 423.420801 -72.92005 
L 421.689206 -73.296798 
L 420.307706 -73.673545 
L 419.776692 -74.050293 
L 427.41 -74.050293 
L 427.41 -74.050293 
L 427.41 -73.673545 
L 427.41 -73.296798 
L 427.41 -72.92005 
L 427.41 -72.543302 
L 427.41 -72.166554 
L 427.41 -71.789807 
L 427.41 -71.413059 
L 427.41 -71.036311 
L 427.41 -70.659563 
L 427.41 -70.282816 
L 427.41 -69.906068 
L 427.41 -69.52932 
L 427.41 -69.152573 
L 427.41 -68.775825 
L 427.41 -68.399077 
L 427.41 -68.022329 
L 427.41 -67.645582 
L 427.41 -67.268834 
L 427.41 -66.892086 
L 427.41 -66.515339 
L 427.41 -66.138591 
L 427.41 -65.761843 
L 427.41 -65.385095 
L 427.41 -65.008348 
L 427.41 -64.6316 
L 427.41 -64.254852 
L 427.41 -63.878104 
L 427.41 -63.501357 
L 427.41 -63.124609 
L 427.41 -62.747861 
L 427.41 -62.371114 
L 427.41 -61.994366 
L 427.41 -61.617618 
L 427.41 -61.24087 
L 427.41 -60.864123 
L 427.41 -60.487375 
L 427.41 -60.110627 
L 427.41 -59.73388 
L 427.41 -59.357132 
L 427.41 -58.980384 
L 427.41 -58.603636 
L 427.41 -58.226889 
L 427.41 -57.850141 
L 427.41 -57.473393 
L 427.41 -57.096645 
L 427.41 -56.719898 
L 427.41 -56.34315 
L 427.41 -55.966402 
L 427.41 -55.589655 
L 427.41 -55.212907 
L 427.41 -54.836159 
L 427.41 -54.459411 
L 427.41 -54.082664 
L 427.41 -53.705916 
L 427.41 -53.329168 
L 427.41 -52.95242 
L 427.41 -52.575673 
L 427.41 -52.198925 
L 427.41 -51.822177 
L 427.41 -51.44543 
L 427.41 -51.068682 
L 427.41 -50.691934 
L 427.41 -50.315186 
L 427.41 -49.938439 
L 427.41 -49.561691 
L 427.41 -49.184943 
L 427.41 -48.808196 
L 427.41 -48.431448 
L 427.41 -48.0547 
L 427.41 -47.677952 
L 427.41 -47.301205 
L 427.41 -46.924457 
L 427.41 -46.547709 
L 427.41 -46.170961 
L 427.41 -45.794214 
L 427.41 -45.417466 
L 427.41 -45.040718 
L 427.41 -44.663971 
L 427.41 -44.287223 
L 427.41 -43.910475 
L 427.41 -43.533727 
L 427.41 -43.15698 
L 427.41 -42.780232 
L 427.41 -42.403484 
L 427.41 -42.026737 
L 427.41 -41.649989 
L 427.41 -41.273241 
L 427.41 -40.896493 
L 427.41 -40.519746 
L 427.41 -40.142998 
L 427.41 -39.76625 
L 427.41 -39.389502 
L 427.41 -39.012755 
L 427.41 -38.636007 
L 427.41 -38.259259 
L 427.41 -37.882512 
L 427.41 -37.505764 
L 427.41 -37.129016 
L 427.41 -36.752268 
z
" style="stroke: #1a1a1a; stroke-width: 0.5"/>
    </defs>
    <g clip-path="url(#p6e005b255e)">
     <use xlink:href="#ma8dc11808f" x="0" y="144" style="fill: #eba9d7; stroke: #1a1a1a; stroke-width: 0.5"/>
    </g>
   </g>
   <g id="FillBetweenPolyCollection_14">
    <defs>
     <path id="m100480a90d" d="M 439.725062 -23.534938 
L 432.99 -23.534938 
L 432.99 -23.793743 
L 432.99 -24.052547 
L 432.99 -24.311351 
L 432.99 -24.570155 
L 432.99 -24.828959 
L 432.99 -25.087764 
L 432.99 -25.346568 
L 432.99 -25.605372 
L 432.99 -25.864176 
L 432.99 -26.122981 
L 432.99 -26.381785 
L 432.99 -26.640589 
L 432.99 -26.899393 
L 432.99 -27.158198 
L 432.99 -27.417002 
L 432.99 -27.675806 
L 432.99 -27.93461 
L 432.99 -28.193415 
L 432.99 -28.452219 
L 432.99 -28.711023 
L 432.99 -28.969827 
L 432.99 -29.228632 
L 432.99 -29.487436 
L 432.99 -29.74624 
L 432.99 -30.005044 
L 432.99 -30.263848 
L 432.99 -30.522653 
L 432.99 -30.781457 
L 432.99 -31.040261 
L 432.99 -31.299065 
L 432.99 -31.55787 
L 432.99 -31.816674 
L 432.99 -32.075478 
L 432.99 -32.334282 
L 432.99 -32.593087 
L 432.99 -32.851891 
L 432.99 -33.110695 
L 432.99 -33.369499 
L 432.99 -33.628304 
L 432.99 -33.887108 
L 432.99 -34.145912 
L 432.99 -34.404716 
L 432.99 -34.66352 
L 432.99 -34.922325 
L 432.99 -35.181129 
L 432.99 -35.439933 
L 432.99 -35.698737 
L 432.99 -35.957542 
L 432.99 -36.216346 
L 432.99 -36.47515 
L 432.99 -36.733954 
L 432.99 -36.992759 
L 432.99 -37.251563 
L 432.99 -37.510367 
L 432.99 -37.769171 
L 432.99 -38.027976 
L 432.99 -38.28678 
L 432.99 -38.545584 
L 432.99 -38.804388 
L 432.99 -39.063193 
L 432.99 -39.321997 
L 432.99 -39.580801 
L 432.99 -39.839605 
L 432.99 -40.098409 
L 432.99 -40.357214 
L 432.99 -40.616018 
L 432.99 -40.874822 
L 432.99 -41.133626 
L 432.99 -41.392431 
L 432.99 -41.651235 
L 432.99 -41.910039 
L 432.99 -42.168843 
L 432.99 -42.427648 
L 432.99 -42.686452 
L 432.99 -42.945256 
L 432.99 -43.20406 
L 432.99 -43.462865 
L 432.99 -43.721669 
L 432.99 -43.980473 
L 432.99 -44.239277 
L 432.99 -44.498082 
L 432.99 -44.756886 
L 432.99 -45.01569 
L 432.99 -45.274494 
L 432.99 -45.533298 
L 432.99 -45.792103 
L 432.99 -46.050907 
L 432.99 -46.309711 
L 432.99 -46.568515 
L 432.99 -46.82732 
L 432.99 -47.086124 
L 432.99 -47.344928 
L 432.99 -47.603732 
L 432.99 -47.862537 
L 432.99 -48.121341 
L 432.99 -48.380145 
L 432.99 -48.638949 
L 432.99 -48.897754 
L 432.99 -49.156558 
L 444.1322 -49.156558 
L 444.1322 -49.156558 
L 444.110741 -48.897754 
L 443.334395 -48.638949 
L 442.243035 -48.380145 
L 441.209452 -48.121341 
L 440.349524 -47.862537 
L 439.545475 -47.603732 
L 438.62919 -47.344928 
L 437.562059 -47.086124 
L 436.486605 -46.82732 
L 435.64783 -46.568515 
L 435.266536 -46.309711 
L 435.440526 -46.050907 
L 436.099106 -45.792103 
L 437.009299 -45.533298 
L 437.837182 -45.274494 
L 438.262595 -45.01569 
L 438.108552 -44.756886 
L 437.414956 -44.498082 
L 436.409021 -44.239277 
L 435.394925 -43.980473 
L 434.638587 -43.721669 
L 434.310661 -43.462865 
L 434.491192 -43.20406 
L 435.194937 -42.945256 
L 436.384584 -42.686452 
L 437.979402 -42.427648 
L 439.886092 -42.168843 
L 442.048234 -41.910039 
L 444.463729 -41.651235 
L 447.123272 -41.392431 
L 449.897105 -41.133626 
L 452.470175 -40.874822 
L 454.405569 -40.616018 
L 455.31 -40.357214 
L 454.99367 -40.098409 
L 453.538174 -39.839605 
L 451.262736 -39.580801 
L 448.619659 -39.321997 
L 446.047617 -39.063193 
L 443.824738 -38.804388 
L 441.995035 -38.545584 
L 440.423667 -38.28678 
L 438.94779 -38.027976 
L 437.513058 -37.769171 
L 436.206706 -37.510367 
L 435.193101 -37.251563 
L 434.625978 -36.992759 
L 434.596992 -36.733954 
L 435.121892 -36.47515 
L 436.135209 -36.216346 
L 437.483913 -35.957542 
L 438.940997 -35.698737 
L 440.25633 -35.439933 
L 441.2273 -35.181129 
L 441.750354 -34.922325 
L 441.833209 -34.66352 
L 441.578072 -34.404716 
L 441.147253 -34.145912 
L 440.704531 -33.887108 
L 440.335834 -33.628304 
L 439.994638 -33.369499 
L 439.529824 -33.110695 
L 438.79588 -32.851891 
L 437.767391 -32.593087 
L 436.569018 -32.334282 
L 435.40431 -32.075478 
L 434.447199 -31.816674 
L 433.774172 -31.55787 
L 433.365524 -31.299065 
L 433.149863 -31.040261 
L 433.050465 -30.781457 
L 433.010313 -30.522653 
L 432.99606 -30.263848 
L 432.991606 -30.005044 
L 432.990378 -29.74624 
L 432.990079 -29.487436 
L 432.990015 -29.228632 
L 432.990003 -28.969827 
L 432.990005 -28.711023 
L 432.990026 -28.452219 
L 432.990133 -28.193415 
L 432.990613 -27.93461 
L 432.992508 -27.675806 
L 432.999108 -27.417002 
L 433.019383 -27.158198 
L 433.074206 -26.899393 
L 433.204454 -26.640589 
L 433.475658 -26.381785 
L 433.969036 -26.122981 
L 434.750072 -25.864176 
L 435.820432 -25.605372 
L 437.082024 -25.346568 
L 438.35029 -25.087764 
L 439.425101 -24.828959 
L 440.175009 -24.570155 
L 440.567689 -24.311351 
L 440.624173 -24.052547 
L 440.350688 -23.793743 
L 439.725062 -23.534938 
z
" style="stroke: #1a1a1a; stroke-width: 0.5"/>
    </defs>
    <g clip-path="url(#p6e005b255e)">
     <use xlink:href="#m100480a90d" x="0" y="144" style="fill: #c02fe1; stroke: #1a1a1a; stroke-width: 0.5"/>
    </g>
   </g>
   <g id="FillBetweenPolyCollection_15">
    <defs>
     <path id="m0b3344ba45" d="M 483.21 -28.738196 
L 478.329925 -28.738196 
L 478.79648 -28.957607 
L 479.945166 -29.177018 
L 481.234603 -29.396429 
L 482.232391 -29.61584 
L 482.814275 -29.835252 
L 483.07898 -30.054663 
L 483.174519 -30.274074 
L 483.202141 -30.493485 
L 483.208576 -30.712896 
L 483.209789 -30.932307 
L 483.209974 -31.151718 
L 483.209997 -31.371129 
L 483.21 -31.59054 
L 483.21 -31.809951 
L 483.21 -32.029362 
L 483.21 -32.248773 
L 483.21 -32.468184 
L 483.21 -32.687595 
L 483.21 -32.907006 
L 483.21 -33.126417 
L 483.21 -33.345828 
L 483.21 -33.565239 
L 483.21 -33.78465 
L 483.21 -34.004061 
L 483.21 -34.223472 
L 483.21 -34.442883 
L 483.21 -34.662294 
L 483.21 -34.881705 
L 483.21 -35.101116 
L 483.209996 -35.320528 
L 483.209958 -35.539939 
L 483.20967 -35.75935 
L 483.207868 -35.978761 
L 483.198738 -36.198172 
L 483.161285 -36.417583 
L 483.037231 -36.636994 
L 482.706386 -36.856405 
L 481.997446 -37.075816 
L 480.774385 -37.295227 
L 479.048217 -37.514638 
L 476.947518 -37.734049 
L 474.486698 -37.95346 
L 471.427367 -38.172871 
L 467.617354 -38.392282 
L 463.625951 -38.611693 
L 460.89 -38.831104 
L 460.900844 -39.050515 
L 464.01997 -39.269926 
L 469.050931 -39.489337 
L 473.997085 -39.708748 
L 477.300032 -39.928159 
L 478.567595 -40.14757 
L 478.454363 -40.366981 
L 477.999572 -40.586393 
L 477.896653 -40.805804 
L 478.13563 -41.025215 
L 478.254877 -41.244626 
L 477.933052 -41.464037 
L 477.286821 -41.683448 
L 476.571211 -41.902859 
L 475.693532 -42.12227 
L 474.152901 -42.341681 
L 471.491805 -42.561092 
L 467.848707 -42.780503 
L 464.215908 -42.999914 
L 462.162685 -43.219325 
L 462.963072 -43.438736 
L 466.630967 -43.658147 
L 471.785557 -43.877558 
L 476.581372 -44.096969 
L 479.788504 -44.31638 
L 481.080478 -44.535791 
L 480.634002 -44.755202 
L 478.796333 -44.974613 
L 476.169669 -45.194024 
L 473.714422 -45.413435 
L 472.377478 -45.632846 
L 472.465909 -45.852257 
L 473.51566 -46.071669 
L 474.838748 -46.29108 
L 476.029656 -46.510491 
L 476.884888 -46.729902 
L 477.130442 -46.949313 
L 476.550028 -47.168724 
L 475.371185 -47.388135 
L 474.317179 -47.607546 
L 474.141101 -47.826957 
L 475.053904 -48.046368 
L 476.554526 -48.265779 
L 477.808175 -48.48519 
L 478.279342 -48.704601 
L 478.10963 -48.924012 
L 477.908456 -49.143423 
L 478.135968 -49.362834 
L 478.671428 -49.582245 
L 478.996944 -49.801656 
L 478.791583 -50.021067 
L 478.309571 -50.240478 
L 478.161773 -50.459889 
L 483.21 -50.459889 
L 483.21 -50.459889 
L 483.21 -50.240478 
L 483.21 -50.021067 
L 483.21 -49.801656 
L 483.21 -49.582245 
L 483.21 -49.362834 
L 483.21 -49.143423 
L 483.21 -48.924012 
L 483.21 -48.704601 
L 483.21 -48.48519 
L 483.21 -48.265779 
L 483.21 -48.046368 
L 483.21 -47.826957 
L 483.21 -47.607546 
L 483.21 -47.388135 
L 483.21 -47.168724 
L 483.21 -46.949313 
L 483.21 -46.729902 
L 483.21 -46.510491 
L 483.21 -46.29108 
L 483.21 -46.071669 
L 483.21 -45.852257 
L 483.21 -45.632846 
L 483.21 -45.413435 
L 483.21 -45.194024 
L 483.21 -44.974613 
L 483.21 -44.755202 
L 483.21 -44.535791 
L 483.21 -44.31638 
L 483.21 -44.096969 
L 483.21 -43.877558 
L 483.21 -43.658147 
L 483.21 -43.438736 
L 483.21 -43.219325 
L 483.21 -42.999914 
L 483.21 -42.780503 
L 483.21 -42.561092 
L 483.21 -42.341681 
L 483.21 -42.12227 
L 483.21 -41.902859 
L 483.21 -41.683448 
L 483.21 -41.464037 
L 483.21 -41.244626 
L 483.21 -41.025215 
L 483.21 -40.805804 
L 483.21 -40.586393 
L 483.21 -40.366981 
L 483.21 -40.14757 
L 483.21 -39.928159 
L 483.21 -39.708748 
L 483.21 -39.489337 
L 483.21 -39.269926 
L 483.21 -39.050515 
L 483.21 -38.831104 
L 483.21 -38.611693 
L 483.21 -38.392282 
L 483.21 -38.172871 
L 483.21 -37.95346 
L 483.21 -37.734049 
L 483.21 -37.514638 
L 483.21 -37.295227 
L 483.21 -37.075816 
L 483.21 -36.856405 
L 483.21 -36.636994 
L 483.21 -36.417583 
L 483.21 -36.198172 
L 483.21 -35.978761 
L 483.21 -35.75935 
L 483.21 -35.539939 
L 483.21 -35.320528 
L 483.21 -35.101116 
L 483.21 -34.881705 
L 483.21 -34.662294 
L 483.21 -34.442883 
L 483.21 -34.223472 
L 483.21 -34.004061 
L 483.21 -33.78465 
L 483.21 -33.565239 
L 483.21 -33.345828 
L 483.21 -33.126417 
L 483.21 -32.907006 
L 483.21 -32.687595 
L 483.21 -32.468184 
L 483.21 -32.248773 
L 483.21 -32.029362 
L 483.21 -31.809951 
L 483.21 -31.59054 
L 483.21 -31.371129 
L 483.21 -31.151718 
L 483.21 -30.932307 
L 483.21 -30.712896 
L 483.21 -30.493485 
L 483.21 -30.274074 
L 483.21 -30.054663 
L 483.21 -29.835252 
L 483.21 -29.61584 
L 483.21 -29.396429 
L 483.21 -29.177018 
L 483.21 -28.957607 
L 483.21 -28.738196 
z
" style="stroke: #1a1a1a; stroke-width: 0.5"/>
    </defs>
    <g clip-path="url(#p6e005b255e)">
     <use xlink:href="#m0b3344ba45" x="0" y="144" style="fill: #6f2662; stroke: #1a1a1a; stroke-width: 0.5"/>
    </g>
   </g>
   <g id="matplotlib.axis_1">
    <g id="xtick_1">
     <g id="line2d_1">
      <defs>
       <path id="m7e0f8ad18e" d="M 0 0 
L 0 -3 
" style="stroke: #000000; stroke-width: 0.5"/>
      </defs>
      <g>
       <use xlink:href="#m7e0f8ad18e" x="81.45" y="128.16" style="stroke: #000000; stroke-width: 0.5"/>
      </g>
     </g>
     <g id="text_1">
      <text style="font-size: 7px; font-family: 'DejaVu Sans', 'Bitstream Vera Sans', 'Computer Modern Sans Serif', 'Lucida Grande', 'Verdana', 'Geneva', 'Lucid', 'Arial', 'Helvetica', 'Avant Garde', sans-serif" transform="translate(75.560703 136.978906)">AC,</text>
      <text style="font-size: 7px; font-family: 'DejaVu Sans', 'Bitstream Vera Sans', 'Computer Modern Sans Serif', 'Lucida Grande', 'Verdana', 'Geneva', 'Lucid', 'Arial', 'Helvetica', 'Avant Garde', sans-serif" transform="translate(68.506016 144.817375)"> n=740</text>
     </g>
    </g>
    <g id="xtick_2">
     <g id="line2d_2">
      <g>
       <use xlink:href="#m7e0f8ad18e" x="109.35" y="128.16" style="stroke: #000000; stroke-width: 0.5"/>
      </g>
     </g>
     <g id="text_2">
      <text style="font-size: 7px; font-family: 'DejaVu Sans', 'Bitstream Vera Sans', 'Computer Modern Sans Serif', 'Lucida Grande', 'Verdana', 'Geneva', 'Lucid', 'Arial', 'Helvetica', 'Avant Garde', sans-serif" transform="translate(103.442109 136.978906)">BA,</text>
      <text style="font-size: 7px; font-family: 'DejaVu Sans', 'Bitstream Vera Sans', 'Computer Modern Sans Serif', 'Lucida Grande', 'Verdana', 'Geneva', 'Lucid', 'Arial', 'Helvetica', 'Avant Garde', sans-serif" transform="translate(96.406016 144.817375)"> n=756</text>
     </g>
    </g>
    <g id="xtick_3">
     <g id="line2d_3">
      <g>
       <use xlink:href="#m7e0f8ad18e" x="137.25" y="128.16" style="stroke: #000000; stroke-width: 0.5"/>
      </g>
     </g>
     <g id="text_3">
      <text style="font-size: 7px; font-family: 'DejaVu Sans', 'Bitstream Vera Sans', 'Computer Modern Sans Serif', 'Lucida Grande', 'Verdana', 'Geneva', 'Lucid', 'Arial', 'Helvetica', 'Avant Garde', sans-serif" transform="translate(131.104219 136.978906)">BH,</text>
      <text style="font-size: 7px; font-family: 'DejaVu Sans', 'Bitstream Vera Sans', 'Computer Modern Sans Serif', 'Lucida Grande', 'Verdana', 'Geneva', 'Lucid', 'Arial', 'Helvetica', 'Avant Garde', sans-serif" transform="translate(124.306016 144.817375)"> n=613</text>
     </g>
    </g>
    <g id="xtick_4">
     <g id="line2d_4">
      <g>
       <use xlink:href="#m7e0f8ad18e" x="165.15" y="128.16" style="stroke: #000000; stroke-width: 0.5"/>
      </g>
     </g>
     <g id="text_4">
      <text style="font-size: 7px; font-family: 'DejaVu Sans', 'Bitstream Vera Sans', 'Computer Modern Sans Serif', 'Lucida Grande', 'Verdana', 'Geneva', 'Lucid', 'Arial', 'Helvetica', 'Avant Garde', sans-serif" transform="translate(159.686172 136.978906)">BL,</text>
      <text style="font-size: 7px; font-family: 'DejaVu Sans', 'Bitstream Vera Sans', 'Computer Modern Sans Serif', 'Lucida Grande', 'Verdana', 'Geneva', 'Lucid', 'Arial', 'Helvetica', 'Avant Garde', sans-serif" transform="translate(152.206016 144.817375)"> n=648</text>
     </g>
    </g>
    <g id="xtick_5">
     <g id="line2d_5">
      <g>
       <use xlink:href="#m7e0f8ad18e" x="193.05" y="128.16" style="stroke: #000000; stroke-width: 0.5"/>
      </g>
     </g>
     <g id="text_5">
      <text style="font-size: 7px; font-family: 'DejaVu Sans', 'Bitstream Vera Sans', 'Computer Modern Sans Serif', 'Lucida Grande', 'Verdana', 'Geneva', 'Lucid', 'Arial', 'Helvetica', 'Avant Garde', sans-serif" transform="translate(186.974766 136.978906)">BU,</text>
      <text style="font-size: 7px; font-family: 'DejaVu Sans', 'Bitstream Vera Sans', 'Computer Modern Sans Serif', 'Lucida Grande', 'Verdana', 'Geneva', 'Lucid', 'Arial', 'Helvetica', 'Avant Garde', sans-serif" transform="translate(180.106016 144.817375)"> n=718</text>
     </g>
    </g>
    <g id="xtick_6">
     <g id="line2d_6">
      <g>
       <use xlink:href="#m7e0f8ad18e" x="220.95" y="128.16" style="stroke: #000000; stroke-width: 0.5"/>
      </g>
     </g>
     <g id="text_6">
      <text style="font-size: 7px; font-family: 'DejaVu Sans', 'Bitstream Vera Sans', 'Computer Modern Sans Serif', 'Lucida Grande', 'Verdana', 'Geneva', 'Lucid', 'Arial', 'Helvetica', 'Avant Garde', sans-serif" transform="translate(214.999453 136.978906)">CA,</text>
      <text style="font-size: 7px; font-family: 'DejaVu Sans', 'Bitstream Vera Sans', 'Computer Modern Sans Serif', 'Lucida Grande', 'Verdana', 'Geneva', 'Lucid', 'Arial', 'Helvetica', 'Avant Garde', sans-serif" transform="translate(208.006016 144.817375)"> n=646</text>
     </g>
    </g>
    <g id="xtick_7">
     <g id="line2d_7">
      <g>
       <use xlink:href="#m7e0f8ad18e" x="248.85" y="128.16" style="stroke: #000000; stroke-width: 0.5"/>
      </g>
     </g>
     <g id="text_7">
      <text style="font-size: 7px; font-family: 'DejaVu Sans', 'Bitstream Vera Sans', 'Computer Modern Sans Serif', 'Lucida Grande', 'Verdana', 'Geneva', 'Lucid', 'Arial', 'Helvetica', 'Avant Garde', sans-serif" transform="translate(242.849687 136.978906)">CC,</text>
      <text style="font-size: 7px; font-family: 'DejaVu Sans', 'Bitstream Vera Sans', 'Computer Modern Sans Serif', 'Lucida Grande', 'Verdana', 'Geneva', 'Lucid', 'Arial', 'Helvetica', 'Avant Garde', sans-serif" transform="translate(235.906016 144.817375)"> n=572</text>
     </g>
    </g>
    <g id="xtick_8">
     <g id="line2d_8">
      <g>
       <use xlink:href="#m7e0f8ad18e" x="276.75" y="128.16" style="stroke: #000000; stroke-width: 0.5"/>
      </g>
     </g>
     <g id="text_8">
      <text style="font-size: 7px; font-family: 'DejaVu Sans', 'Bitstream Vera Sans', 'Computer Modern Sans Serif', 'Lucida Grande', 'Verdana', 'Geneva', 'Lucid', 'Arial', 'Helvetica', 'Avant Garde', sans-serif" transform="translate(270.561562 136.978906)">CH,</text>
      <text style="font-size: 7px; font-family: 'DejaVu Sans', 'Bitstream Vera Sans', 'Computer Modern Sans Serif', 'Lucida Grande', 'Verdana', 'Geneva', 'Lucid', 'Arial', 'Helvetica', 'Avant Garde', sans-serif" transform="translate(263.806016 144.817375)"> n=675</text>
     </g>
    </g>
    <g id="xtick_9">
     <g id="line2d_9">
      <g>
       <use xlink:href="#m7e0f8ad18e" x="304.65" y="128.16" style="stroke: #000000; stroke-width: 0.5"/>
      </g>
     </g>
     <g id="text_9">
      <text style="font-size: 7px; font-family: 'DejaVu Sans', 'Bitstream Vera Sans', 'Computer Modern Sans Serif', 'Lucida Grande', 'Verdana', 'Geneva', 'Lucid', 'Arial', 'Helvetica', 'Avant Garde', sans-serif" transform="translate(298.829609 136.978906)">DF,</text>
      <text style="font-size: 7px; font-family: 'DejaVu Sans', 'Bitstream Vera Sans', 'Computer Modern Sans Serif', 'Lucida Grande', 'Verdana', 'Geneva', 'Lucid', 'Arial', 'Helvetica', 'Avant Garde', sans-serif" transform="translate(291.706016 144.817375)"> n=686</text>
     </g>
    </g>
    <g id="xtick_10">
     <g id="line2d_10">
      <g>
       <use xlink:href="#m7e0f8ad18e" x="332.55" y="128.16" style="stroke: #000000; stroke-width: 0.5"/>
      </g>
     </g>
     <g id="text_10">
      <text style="font-size: 7px; font-family: 'DejaVu Sans', 'Bitstream Vera Sans', 'Computer Modern Sans Serif', 'Lucida Grande', 'Verdana', 'Geneva', 'Lucid', 'Arial', 'Helvetica', 'Avant Garde', sans-serif" transform="translate(327.275937 136.978906)">EL,</text>
      <text style="font-size: 7px; font-family: 'DejaVu Sans', 'Bitstream Vera Sans', 'Computer Modern Sans Serif', 'Lucida Grande', 'Verdana', 'Geneva', 'Lucid', 'Arial', 'Helvetica', 'Avant Garde', sans-serif" transform="translate(319.606016 144.817375)"> n=490</text>
     </g>
    </g>
    <g id="xtick_11">
     <g id="line2d_11">
      <g>
       <use xlink:href="#m7e0f8ad18e" x="360.45" y="128.16" style="stroke: #000000; stroke-width: 0.5"/>
      </g>
     </g>
     <g id="text_11">
      <text style="font-size: 7px; font-family: 'DejaVu Sans', 'Bitstream Vera Sans', 'Computer Modern Sans Serif', 'Lucida Grande', 'Verdana', 'Geneva', 'Lucid', 'Arial', 'Helvetica', 'Avant Garde', sans-serif" transform="translate(354.694141 136.978906)">ER,</text>
      <text style="font-size: 7px; font-family: 'DejaVu Sans', 'Bitstream Vera Sans', 'Computer Modern Sans Serif', 'Lucida Grande', 'Verdana', 'Geneva', 'Lucid', 'Arial', 'Helvetica', 'Avant Garde', sans-serif" transform="translate(347.506016 144.817375)"> n=697</text>
     </g>
    </g>
    <g id="xtick_12">
     <g id="line2d_12">
      <g>
       <use xlink:href="#m7e0f8ad18e" x="388.35" y="128.16" style="stroke: #000000; stroke-width: 0.5"/>
      </g>
     </g>
     <g id="text_12">
      <text style="font-size: 7px; font-family: 'DejaVu Sans', 'Bitstream Vera Sans', 'Computer Modern Sans Serif', 'Lucida Grande', 'Verdana', 'Geneva', 'Lucid', 'Arial', 'Helvetica', 'Avant Garde', sans-serif" transform="translate(383.114219 136.978906)">FP,</text>
      <text style="font-size: 7px; font-family: 'DejaVu Sans', 'Bitstream Vera Sans', 'Computer Modern Sans Serif', 'Lucida Grande', 'Verdana', 'Geneva', 'Lucid', 'Arial', 'Helvetica', 'Avant Garde', sans-serif" transform="translate(375.406016 144.817375)"> n=657</text>
     </g>
    </g>
    <g id="xtick_13">
     <g id="line2d_13">
      <g>
       <use xlink:href="#m7e0f8ad18e" x="416.25" y="128.16" style="stroke: #000000; stroke-width: 0.5"/>
      </g>
     </g>
     <g id="text_13">
      <text style="font-size: 7px; font-family: 'DejaVu Sans', 'Bitstream Vera Sans', 'Computer Modern Sans Serif', 'Lucida Grande', 'Verdana', 'Geneva', 'Lucid', 'Arial', 'Helvetica', 'Avant Garde', sans-serif" transform="translate(410.583281 136.978906)">PC,</text>
      <text style="font-size: 7px; font-family: 'DejaVu Sans', 'Bitstream Vera Sans', 'Computer Modern Sans Serif', 'Lucida Grande', 'Verdana', 'Geneva', 'Lucid', 'Arial', 'Helvetica', 'Avant Garde', sans-serif" transform="translate(403.306016 144.817375)"> n=539</text>
     </g>
    </g>
    <g id="xtick_14">
     <g id="line2d_14">
      <g>
       <use xlink:href="#m7e0f8ad18e" x="444.15" y="128.16" style="stroke: #000000; stroke-width: 0.5"/>
      </g>
     </g>
     <g id="text_14">
      <text style="font-size: 7px; font-family: 'DejaVu Sans', 'Bitstream Vera Sans', 'Computer Modern Sans Serif', 'Lucida Grande', 'Verdana', 'Geneva', 'Lucid', 'Arial', 'Helvetica', 'Avant Garde', sans-serif" transform="translate(439.894766 136.978906)">PJ,</text>
      <text style="font-size: 7px; font-family: 'DejaVu Sans', 'Bitstream Vera Sans', 'Computer Modern Sans Serif', 'Lucida Grande', 'Verdana', 'Geneva', 'Lucid', 'Arial', 'Helvetica', 'Avant Garde', sans-serif" transform="translate(431.206016 144.817375)"> n=477</text>
     </g>
    </g>
    <g id="xtick_15">
     <g id="line2d_15">
      <g>
       <use xlink:href="#m7e0f8ad18e" x="472.05" y="128.16" style="stroke: #000000; stroke-width: 0.5"/>
      </g>
     </g>
     <g id="text_15">
      <text style="font-size: 7px; font-family: 'DejaVu Sans', 'Bitstream Vera Sans', 'Computer Modern Sans Serif', 'Lucida Grande', 'Verdana', 'Geneva', 'Lucid', 'Arial', 'Helvetica', 'Avant Garde', sans-serif" transform="translate(467.473203 136.978906)">RI,</text>
      <text style="font-size: 7px; font-family: 'DejaVu Sans', 'Bitstream Vera Sans', 'Computer Modern Sans Serif', 'Lucida Grande', 'Verdana', 'Geneva', 'Lucid', 'Arial', 'Helvetica', 'Avant Garde', sans-serif" transform="translate(459.106016 144.817375)"> n=636</text>
     </g>
    </g>
   </g>
   <g id="matplotlib.axis_2">
    <g id="ytick_1">
     <g id="line2d_16">
      <defs>
       <path id="m0e20150aba" d="M 0 0 
L 3 0 
" style="stroke: #000000; stroke-width: 0.5"/>
      </defs>
      <g>
       <use xlink:href="#m0e20150aba" x="67.5" y="118.21482" style="stroke: #000000; stroke-width: 0.5"/>
      </g>
     </g>
     <g id="text_16">
      <text style="font-size: 7px; font-family: 'DejaVu Sans', 'Bitstream Vera Sans', 'Computer Modern Sans Serif', 'Lucida Grande', 'Verdana', 'Geneva', 'Lucid', 'Arial', 'Helvetica', 'Avant Garde', sans-serif; text-anchor: end" x="64" y="120.874273" transform="rotate(-0 64 120.874273)">−0.005</text>
     </g>
    </g>
    <g id="ytick_2">
     <g id="line2d_17">
      <g>
       <use xlink:href="#m0e20150aba" x="67.5" y="98.514019" style="stroke: #000000; stroke-width: 0.5"/>
      </g>
     </g>
     <g id="text_17">
      <text style="font-size: 7px; font-family: 'DejaVu Sans', 'Bitstream Vera Sans', 'Computer Modern Sans Serif', 'Lucida Grande', 'Verdana', 'Geneva', 'Lucid', 'Arial', 'Helvetica', 'Avant Garde', sans-serif; text-anchor: end" x="64" y="101.173472" transform="rotate(-0 64 101.173472)">0.000</text>
     </g>
    </g>
    <g id="ytick_3">
     <g id="line2d_18">
      <g>
       <use xlink:href="#m0e20150aba" x="67.5" y="78.813219" style="stroke: #000000; stroke-width: 0.5"/>
      </g>
     </g>
     <g id="text_18">
      <text style="font-size: 7px; font-family: 'DejaVu Sans', 'Bitstream Vera Sans', 'Computer Modern Sans Serif', 'Lucida Grande', 'Verdana', 'Geneva', 'Lucid', 'Arial', 'Helvetica', 'Avant Garde', sans-serif; text-anchor: end" x="64" y="81.472672" transform="rotate(-0 64 81.472672)">0.005</text>
     </g>
    </g>
    <g id="ytick_4">
     <g id="line2d_19">
      <g>
       <use xlink:href="#m0e20150aba" x="67.5" y="59.112419" style="stroke: #000000; stroke-width: 0.5"/>
      </g>
     </g>
     <g id="text_19">
      <text style="font-size: 7px; font-family: 'DejaVu Sans', 'Bitstream Vera Sans', 'Computer Modern Sans Serif', 'Lucida Grande', 'Verdana', 'Geneva', 'Lucid', 'Arial', 'Helvetica', 'Avant Garde', sans-serif; text-anchor: end" x="64" y="61.771872" transform="rotate(-0 64 61.771872)">0.010</text>
     </g>
    </g>
    <g id="ytick_5">
     <g id="line2d_20">
      <g>
       <use xlink:href="#m0e20150aba" x="67.5" y="39.411618" style="stroke: #000000; stroke-width: 0.5"/>
      </g>
     </g>
     <g id="text_20">
      <text style="font-size: 7px; font-family: 'DejaVu Sans', 'Bitstream Vera Sans', 'Computer Modern Sans Serif', 'Lucida Grande', 'Verdana', 'Geneva', 'Lucid', 'Arial', 'Helvetica', 'Avant Garde', sans-serif; text-anchor: end" x="64" y="42.071071" transform="rotate(-0 64 42.071071)">0.015</text>
     </g>
    </g>
    <g id="ytick_6">
     <g id="line2d_21">
      <g>
       <use xlink:href="#m0e20150aba" x="67.5" y="19.710818" style="stroke: #000000; stroke-width: 0.5"/>
      </g>
     </g>
     <g id="text_21">
      <text style="font-size: 7px; font-family: 'DejaVu Sans', 'Bitstream Vera Sans', 'Computer Modern Sans Serif', 'Lucida Grande', 'Verdana', 'Geneva', 'Lucid', 'Arial', 'Helvetica', 'Avant Garde', sans-serif; text-anchor: end" x="64" y="22.370271" transform="rotate(-0 64 22.370271)">0.020</text>
     </g>
    </g>
    <g id="text_22">
     <text style="font-size: 7px; font-family: 'DejaVu Sans', 'Bitstream Vera Sans', 'Computer Modern Sans Serif', 'Lucida Grande', 'Verdana', 'Geneva', 'Lucid', 'Arial', 'Helvetica', 'Avant Garde', sans-serif; text-anchor: middle" x="32.63875" y="72.72" transform="rotate(-90 32.63875 72.72)">SHAP value</text>
    </g>
   </g>
   <g id="line2d_22">
    <path d="M 67.5 98.514019 
L 486 98.514019 
" clip-path="url(#p6e005b255e)" style="fill: none; stroke: #000000; stroke-opacity: 0.5; stroke-linecap: square"/>
   </g>
   <g id="patch_3">
    <path d="M 67.5 128.16 
L 67.5 17.28 
" style="fill: none; stroke: #000000; stroke-width: 0.5; stroke-linejoin: miter; stroke-linecap: square"/>
   </g>
   <g id="patch_4">
    <path d="M 486 128.16 
L 486 17.28 
" style="fill: none; stroke: #000000; stroke-width: 0.5; stroke-linejoin: miter; stroke-linecap: square"/>
   </g>
   <g id="patch_5">
    <path d="M 67.5 128.16 
L 486 128.16 
" style="fill: none; stroke: #000000; stroke-width: 0.5; stroke-linejoin: miter; stroke-linecap: square"/>
   </g>
   <g id="patch_6">
    <path d="M 67.5 17.28 
L 486 17.28 
" style="fill: none; stroke: #000000; stroke-width: 0.5; stroke-linejoin: miter; stroke-linecap: square"/>
   </g>
  </g>
 </g>
 <defs>
  <clipPath id="p6e005b255e">
   <rect x="67.5" y="17.28" width="418.5" height="110.88"/>
  </clipPath>
 </defs>
</svg>
