<?xml version="1.0" encoding="utf-8" standalone="no"?>
<!DOCTYPE svg PUBLIC "-//W3C//DTD SVG 1.1//EN"
  "http://www.w3.org/Graphics/SVG/1.1/DTD/svg11.dtd">
<svg xmlns:xlink="http://www.w3.org/1999/xlink" width="540pt" height="144pt" viewBox="0 0 540 144" xmlns="http://www.w3.org/2000/svg" version="1.1">
 <metadata>
  <rdf:RDF xmlns:dc="http://purl.org/dc/elements/1.1/" xmlns:cc="http://creativecommons.org/ns#" xmlns:rdf="http://www.w3.org/1999/02/22-rdf-syntax-ns#">
   <cc:Work>
    <dc:type rdf:resource="http://purl.org/dc/dcmitype/StillImage"/>
    <dc:date>2024-10-24T12:26:43.596158</dc:date>
    <dc:format>image/svg+xml</dc:format>
    <dc:creator>
     <cc:Agent>
      <dc:title>Matplotlib v3.7.1, https://matplotlib.org/</dc:title>
     </cc:Agent>
    </dc:creator>
   </cc:Work>
  </rdf:RDF>
 </metadata>
 <defs>
  <style type="text/css">*{stroke-linejoin: round; stroke-linecap: butt}</style>
 </defs>
 <g id="figure_1">
  <g id="patch_1">
   <path d="M 0 144 
L 540 144 
L 540 0 
L 0 0 
z
" style="fill: #ffffff"/>
  </g>
  <g id="axes_1">
   <g id="patch_2">
    <path d="M 67.5 128.16 
L 486 128.16 
L 486 17.28 
L 67.5 17.28 
z
" style="fill: #ffffff"/>
   </g>
   <g id="PolyCollection_1">
    <defs>
     <path id="m538f53d79c" d="M 92.61 -60.754083 
L 91.899445 -60.754083 
L 91.534745 -61.369496 
L 91.061724 -61.98491 
L 90.444045 -62.600323 
L 89.603518 -63.215736 
L 88.454198 -63.83115 
L 87.011756 -64.446563 
L 85.460577 -65.061976 
L 84.077489 -65.677389 
L 83.056529 -66.292803 
L 82.379786 -66.908216 
L 81.875675 -67.523629 
L 81.439858 -68.139043 
L 81.167167 -68.754456 
L 81.190512 -69.369869 
L 81.39117 -69.985283 
L 81.376816 -70.600696 
L 80.842697 -71.216109 
L 79.929451 -71.831522 
L 79.124171 -72.446936 
L 78.781639 -73.062349 
L 78.839684 -73.677762 
L 79.053096 -74.293176 
L 79.358346 -74.908589 
L 79.850168 -75.524002 
L 80.481413 -76.139416 
L 80.985785 -76.754829 
L 81.127819 -77.370242 
L 80.908091 -77.985655 
L 80.479494 -78.601069 
L 79.946674 -79.216482 
L 79.303627 -79.831895 
L 78.523382 -80.447309 
L 77.684392 -81.062722 
L 77.04882 -81.678135 
L 76.957022 -82.293549 
L 77.483803 -82.908962 
L 78.189623 -83.524375 
L 78.375913 -84.139789 
L 77.67485 -84.755202 
L 76.357323 -85.370615 
L 75.067342 -85.986028 
L 74.298358 -86.601442 
L 74.092485 -87.216855 
L 74.141451 -87.832268 
L 74.109447 -88.447682 
L 73.852482 -89.063095 
L 73.364206 -89.678508 
L 72.632255 -90.293922 
L 71.691394 -90.909335 
L 70.789069 -91.524748 
L 70.319693 -92.140161 
L 70.512685 -92.755575 
L 71.241195 -93.370988 
L 72.148536 -93.986401 
L 72.897708 -94.601815 
L 73.291471 -95.217228 
L 73.240036 -95.832641 
L 72.72709 -96.448055 
L 71.869328 -97.063468 
L 70.963258 -97.678881 
L 70.362387 -98.294294 
L 70.29 -98.909708 
L 70.847618 -99.525121 
L 72.125231 -100.140534 
L 74.069788 -100.755948 
L 76.257247 -101.371361 
L 78.091872 -101.986774 
L 79.341061 -102.602188 
L 80.285421 -103.217601 
L 81.269558 -103.833014 
L 82.279192 -104.448428 
L 83.070491 -105.063841 
L 83.611651 -105.679254 
L 84.23639 -106.294667 
L 85.305599 -106.910081 
L 86.788041 -107.525494 
L 88.252616 -108.140907 
L 89.243751 -108.756321 
L 89.618818 -109.371734 
L 89.574767 -109.987147 
L 89.423246 -110.602561 
L 89.354939 -111.217974 
L 89.401184 -111.833387 
L 89.55655 -112.4488 
L 89.841385 -113.064214 
L 90.235373 -113.679627 
L 90.63856 -114.29504 
L 90.953068 -114.910454 
L 91.178247 -115.525867 
L 91.394521 -116.14128 
L 91.664529 -116.756694 
L 91.971147 -117.372107 
L 92.244985 -117.98752 
L 92.428447 -118.602933 
L 92.506263 -119.218347 
L 92.494019 -119.83376 
L 92.423657 -120.449173 
L 92.343758 -121.064587 
L 92.308798 -121.68 
L 92.61 -121.68 
L 92.61 -121.68 
L 92.61 -121.064587 
L 92.61 -120.449173 
L 92.61 -119.83376 
L 92.61 -119.218347 
L 92.61 -118.602933 
L 92.61 -117.98752 
L 92.61 -117.372107 
L 92.61 -116.756694 
L 92.61 -116.14128 
L 92.61 -115.525867 
L 92.61 -114.910454 
L 92.61 -114.29504 
L 92.61 -113.679627 
L 92.61 -113.064214 
L 92.61 -112.4488 
L 92.61 -111.833387 
L 92.61 -111.217974 
L 92.61 -110.602561 
L 92.61 -109.987147 
L 92.61 -109.371734 
L 92.61 -108.756321 
L 92.61 -108.140907 
L 92.61 -107.525494 
L 92.61 -106.910081 
L 92.61 -106.294667 
L 92.61 -105.679254 
L 92.61 -105.063841 
L 92.61 -104.448428 
L 92.61 -103.833014 
L 92.61 -103.217601 
L 92.61 -102.602188 
L 92.61 -101.986774 
L 92.61 -101.371361 
L 92.61 -100.755948 
L 92.61 -100.140534 
L 92.61 -99.525121 
L 92.61 -98.909708 
L 92.61 -98.294294 
L 92.61 -97.678881 
L 92.61 -97.063468 
L 92.61 -96.448055 
L 92.61 -95.832641 
L 92.61 -95.217228 
L 92.61 -94.601815 
L 92.61 -93.986401 
L 92.61 -93.370988 
L 92.61 -92.755575 
L 92.61 -92.140161 
L 92.61 -91.524748 
L 92.61 -90.909335 
L 92.61 -90.293922 
L 92.61 -89.678508 
L 92.61 -89.063095 
L 92.61 -88.447682 
L 92.61 -87.832268 
L 92.61 -87.216855 
L 92.61 -86.601442 
L 92.61 -85.986028 
L 92.61 -85.370615 
L 92.61 -84.755202 
L 92.61 -84.139789 
L 92.61 -83.524375 
L 92.61 -82.908962 
L 92.61 -82.293549 
L 92.61 -81.678135 
L 92.61 -81.062722 
L 92.61 -80.447309 
L 92.61 -79.831895 
L 92.61 -79.216482 
L 92.61 -78.601069 
L 92.61 -77.985655 
L 92.61 -77.370242 
L 92.61 -76.754829 
L 92.61 -76.139416 
L 92.61 -75.524002 
L 92.61 -74.908589 
L 92.61 -74.293176 
L 92.61 -73.677762 
L 92.61 -73.062349 
L 92.61 -72.446936 
L 92.61 -71.831522 
L 92.61 -71.216109 
L 92.61 -70.600696 
L 92.61 -69.985283 
L 92.61 -69.369869 
L 92.61 -68.754456 
L 92.61 -68.139043 
L 92.61 -67.523629 
L 92.61 -66.908216 
L 92.61 -66.292803 
L 92.61 -65.677389 
L 92.61 -65.061976 
L 92.61 -64.446563 
L 92.61 -63.83115 
L 92.61 -63.215736 
L 92.61 -62.600323 
L 92.61 -61.98491 
L 92.61 -61.369496 
L 92.61 -60.754083 
z
" style="stroke: #1a1a1a; stroke-width: 0.5"/>
    </defs>
    <g clip-path="url(#p0f4b65fd35)">
     <use xlink:href="#m538f53d79c" x="0" y="144" style="fill: #2020df; stroke: #1a1a1a; stroke-width: 0.5"/>
    </g>
   </g>
   <g id="PolyCollection_2">
    <defs>
     <path id="m1d32cd2c4f" d="M 98.99838 -66.534961 
L 98.19 -66.534961 
L 98.19 -66.903964 
L 98.19 -67.272967 
L 98.19 -67.64197 
L 98.19 -68.010973 
L 98.19 -68.379976 
L 98.19 -68.748979 
L 98.19 -69.117982 
L 98.19 -69.486985 
L 98.19 -69.855988 
L 98.19 -70.224991 
L 98.19 -70.593994 
L 98.19 -70.962997 
L 98.19 -71.332 
L 98.19 -71.701003 
L 98.19 -72.070006 
L 98.19 -72.439009 
L 98.19 -72.808012 
L 98.19 -73.177015 
L 98.19 -73.546018 
L 98.19 -73.915021 
L 98.19 -74.284024 
L 98.19 -74.653027 
L 98.19 -75.02203 
L 98.19 -75.391033 
L 98.19 -75.760036 
L 98.19 -76.129039 
L 98.19 -76.498042 
L 98.19 -76.867045 
L 98.19 -77.236048 
L 98.19 -77.605051 
L 98.19 -77.974054 
L 98.19 -78.343057 
L 98.19 -78.71206 
L 98.19 -79.081063 
L 98.19 -79.450066 
L 98.19 -79.819069 
L 98.19 -80.188072 
L 98.19 -80.557075 
L 98.19 -80.926078 
L 98.19 -81.295081 
L 98.19 -81.664084 
L 98.19 -82.033087 
L 98.19 -82.40209 
L 98.19 -82.771093 
L 98.19 -83.140096 
L 98.19 -83.509099 
L 98.19 -83.878102 
L 98.19 -84.247105 
L 98.19 -84.616108 
L 98.19 -84.985111 
L 98.19 -85.354114 
L 98.19 -85.723117 
L 98.19 -86.09212 
L 98.19 -86.461123 
L 98.19 -86.830126 
L 98.19 -87.199129 
L 98.19 -87.568132 
L 98.19 -87.937135 
L 98.19 -88.306138 
L 98.19 -88.675141 
L 98.19 -89.044144 
L 98.19 -89.413147 
L 98.19 -89.78215 
L 98.19 -90.151153 
L 98.19 -90.520156 
L 98.19 -90.889159 
L 98.19 -91.258162 
L 98.19 -91.627165 
L 98.19 -91.996168 
L 98.19 -92.365171 
L 98.19 -92.734174 
L 98.19 -93.103177 
L 98.19 -93.47218 
L 98.19 -93.841183 
L 98.19 -94.210186 
L 98.19 -94.579189 
L 98.19 -94.948192 
L 98.19 -95.317195 
L 98.19 -95.686198 
L 98.19 -96.055201 
L 98.19 -96.424204 
L 98.19 -96.793207 
L 98.19 -97.16221 
L 98.19 -97.531213 
L 98.19 -97.900216 
L 98.19 -98.269219 
L 98.19 -98.638222 
L 98.19 -99.007225 
L 98.19 -99.376228 
L 98.19 -99.745231 
L 98.19 -100.114234 
L 98.19 -100.483237 
L 98.19 -100.85224 
L 98.19 -101.221243 
L 98.19 -101.590246 
L 98.19 -101.959249 
L 98.19 -102.328252 
L 98.19 -102.697255 
L 98.19 -103.066258 
L 98.441495 -103.066258 
L 98.441495 -103.066258 
L 98.373 -102.697255 
L 98.260504 -102.328252 
L 98.204382 -101.959249 
L 98.191554 -101.590246 
L 98.190106 -101.221243 
L 98.19041 -100.85224 
L 98.195168 -100.483237 
L 98.224755 -100.114234 
L 98.31431 -99.745231 
L 98.431451 -99.376228 
L 98.472661 -99.007225 
L 98.4662 -98.638222 
L 98.471008 -98.269219 
L 98.404808 -97.900216 
L 98.284785 -97.531213 
L 98.212507 -97.16221 
L 98.192838 -96.793207 
L 98.19019 -96.424204 
L 98.190007 -96.055201 
L 98.19 -95.686198 
L 98.190009 -95.317195 
L 98.190241 -94.948192 
L 98.193426 -94.579189 
L 98.215814 -94.210186 
L 98.292977 -93.841183 
L 98.4075 -93.47218 
L 98.433232 -93.103177 
L 98.334022 -92.734174 
L 98.235204 -92.365171 
L 98.198582 -91.996168 
L 98.202668 -91.627165 
L 98.262423 -91.258162 
L 98.431936 -90.889159 
L 98.656178 -90.520156 
L 98.786272 -90.151153 
L 98.89622 -89.78215 
L 99.072811 -89.413147 
L 99.144979 -89.044144 
L 99.14145 -88.675141 
L 99.223997 -88.306138 
L 99.374365 -87.937135 
L 99.394386 -87.568132 
L 99.190418 -87.199129 
L 99.184399 -86.830126 
L 99.817729 -86.461123 
L 100.831731 -86.09212 
L 101.434565 -85.723117 
L 101.330086 -85.354114 
L 101.170259 -84.985111 
L 101.395282 -84.616108 
L 101.660138 -84.247105 
L 101.684249 -83.878102 
L 101.656487 -83.509099 
L 102.048677 -83.140096 
L 103.2358 -82.771093 
L 104.943756 -82.40209 
L 106.440234 -82.033087 
L 107.176176 -81.664084 
L 107.133128 -81.295081 
L 106.863445 -80.926078 
L 106.967016 -80.557075 
L 107.502034 -80.188072 
L 108.334205 -79.819069 
L 110.090934 -79.450066 
L 112.705121 -79.081063 
L 114.664888 -78.71206 
L 115.913759 -78.343057 
L 117.737242 -77.974054 
L 119.760403 -77.605051 
L 120.51 -77.236048 
L 119.658861 -76.867045 
L 118.530908 -76.498042 
L 118.253871 -76.129039 
L 118.040591 -75.760036 
L 116.612425 -75.391033 
L 113.733321 -75.02203 
L 110.613512 -74.653027 
L 108.559889 -74.284024 
L 107.824048 -73.915021 
L 107.902267 -73.546018 
L 107.953835 -73.177015 
L 107.759803 -72.808012 
L 107.325785 -72.439009 
L 106.541265 -72.070006 
L 105.992842 -71.701003 
L 106.27725 -71.332 
L 106.306563 -70.962997 
L 104.947382 -70.593994 
L 103.158349 -70.224991 
L 102.486951 -69.855988 
L 102.856713 -69.486985 
L 102.887705 -69.117982 
L 101.984231 -68.748979 
L 100.866463 -68.379976 
L 100.298539 -68.010973 
L 100.242589 -67.64197 
L 100.095336 -67.272967 
L 99.59674 -66.903964 
L 98.99838 -66.534961 
z
" style="stroke: #1a1a1a; stroke-width: 0.5"/>
    </defs>
    <g clip-path="url(#p0f4b65fd35)">
     <use xlink:href="#m1d32cd2c4f" x="0" y="144" style="fill: #6f2662; stroke: #1a1a1a; stroke-width: 0.5"/>
    </g>
   </g>
   <g id="PolyCollection_3">
    <defs>
     <path id="mea523dfc9f" d="M 148.41 -44.10256 
L 148.106114 -44.10256 
L 148.14494 -44.78415 
L 148.226197 -45.46574 
L 148.272641 -46.147331 
L 148.222333 -46.828921 
L 148.065505 -47.510511 
L 147.862749 -48.192101 
L 147.706176 -48.873691 
L 147.61133 -49.555282 
L 147.474168 -50.236872 
L 147.182397 -50.918462 
L 146.727118 -51.600052 
L 146.167569 -52.281643 
L 145.538221 -52.963233 
L 144.835432 -53.644823 
L 144.078707 -54.326413 
L 143.311119 -55.008004 
L 142.448146 -55.689594 
L 141.198508 -56.371184 
L 139.338276 -57.052774 
L 137.042422 -57.734365 
L 134.74563 -58.415955 
L 132.709831 -59.097545 
L 130.871873 -59.779135 
L 129.071555 -60.460725 
L 127.400521 -61.142316 
L 126.296378 -61.823906 
L 126.09 -62.505496 
L 126.508613 -63.187086 
L 126.975485 -63.868677 
L 127.310637 -64.550267 
L 127.715442 -65.231857 
L 128.219368 -65.913447 
L 128.589155 -66.595038 
L 128.666037 -67.276628 
L 128.530512 -67.958218 
L 128.499232 -68.639808 
L 129.014446 -69.321399 
L 130.258202 -70.002989 
L 131.844832 -70.684579 
L 133.098879 -71.366169 
L 133.626189 -72.04776 
L 133.525078 -72.72935 
L 133.123885 -73.41094 
L 132.638552 -74.09253 
L 132.128101 -74.77412 
L 131.711503 -75.455711 
L 131.634324 -76.137301 
L 132.011549 -76.818891 
L 132.628185 -77.500481 
L 133.107614 -78.182072 
L 133.2275 -78.863662 
L 133.033879 -79.545252 
L 132.692746 -80.226842 
L 132.331199 -80.908433 
L 132.069467 -81.590023 
L 132.016363 -82.271613 
L 132.081997 -82.953203 
L 132.016044 -83.634794 
L 131.83562 -84.316384 
L 132.026624 -84.997974 
L 133.034069 -85.679564 
L 134.588807 -86.361154 
L 135.801112 -87.042745 
L 135.983271 -87.724335 
L 135.241538 -88.405925 
L 134.266978 -89.087515 
L 133.7479 -89.769106 
L 134.053615 -90.450696 
L 135.205006 -91.132286 
L 136.864119 -91.813876 
L 138.465968 -92.495467 
L 139.58023 -93.177057 
L 140.13844 -93.858647 
L 140.308444 -94.540237 
L 140.2622 -95.221828 
L 140.111743 -95.903418 
L 140.00883 -96.585008 
L 140.196111 -97.266598 
L 140.87528 -97.948189 
L 142.037001 -98.629779 
L 143.453541 -99.311369 
L 144.829958 -99.992959 
L 145.968275 -100.674549 
L 146.801662 -101.35614 
L 147.318697 -102.03773 
L 147.529349 -102.71932 
L 147.488745 -103.40091 
L 147.294089 -104.082501 
L 147.06364 -104.764091 
L 146.919067 -105.445681 
L 146.938521 -106.127271 
L 147.103 -106.808862 
L 147.316504 -107.490452 
L 147.497525 -108.172042 
L 147.634799 -108.853632 
L 147.75199 -109.535223 
L 147.853925 -110.216813 
L 147.934956 -110.898403 
L 148.014006 -111.579993 
L 148.41 -111.579993 
L 148.41 -111.579993 
L 148.41 -110.898403 
L 148.41 -110.216813 
L 148.41 -109.535223 
L 148.41 -108.853632 
L 148.41 -108.172042 
L 148.41 -107.490452 
L 148.41 -106.808862 
L 148.41 -106.127271 
L 148.41 -105.445681 
L 148.41 -104.764091 
L 148.41 -104.082501 
L 148.41 -103.40091 
L 148.41 -102.71932 
L 148.41 -102.03773 
L 148.41 -101.35614 
L 148.41 -100.674549 
L 148.41 -99.992959 
L 148.41 -99.311369 
L 148.41 -98.629779 
L 148.41 -97.948189 
L 148.41 -97.266598 
L 148.41 -96.585008 
L 148.41 -95.903418 
L 148.41 -95.221828 
L 148.41 -94.540237 
L 148.41 -93.858647 
L 148.41 -93.177057 
L 148.41 -92.495467 
L 148.41 -91.813876 
L 148.41 -91.132286 
L 148.41 -90.450696 
L 148.41 -89.769106 
L 148.41 -89.087515 
L 148.41 -88.405925 
L 148.41 -87.724335 
L 148.41 -87.042745 
L 148.41 -86.361154 
L 148.41 -85.679564 
L 148.41 -84.997974 
L 148.41 -84.316384 
L 148.41 -83.634794 
L 148.41 -82.953203 
L 148.41 -82.271613 
L 148.41 -81.590023 
L 148.41 -80.908433 
L 148.41 -80.226842 
L 148.41 -79.545252 
L 148.41 -78.863662 
L 148.41 -78.182072 
L 148.41 -77.500481 
L 148.41 -76.818891 
L 148.41 -76.137301 
L 148.41 -75.455711 
L 148.41 -74.77412 
L 148.41 -74.09253 
L 148.41 -73.41094 
L 148.41 -72.72935 
L 148.41 -72.04776 
L 148.41 -71.366169 
L 148.41 -70.684579 
L 148.41 -70.002989 
L 148.41 -69.321399 
L 148.41 -68.639808 
L 148.41 -67.958218 
L 148.41 -67.276628 
L 148.41 -66.595038 
L 148.41 -65.913447 
L 148.41 -65.231857 
L 148.41 -64.550267 
L 148.41 -63.868677 
L 148.41 -63.187086 
L 148.41 -62.505496 
L 148.41 -61.823906 
L 148.41 -61.142316 
L 148.41 -60.460725 
L 148.41 -59.779135 
L 148.41 -59.097545 
L 148.41 -58.415955 
L 148.41 -57.734365 
L 148.41 -57.052774 
L 148.41 -56.371184 
L 148.41 -55.689594 
L 148.41 -55.008004 
L 148.41 -54.326413 
L 148.41 -53.644823 
L 148.41 -52.963233 
L 148.41 -52.281643 
L 148.41 -51.600052 
L 148.41 -50.918462 
L 148.41 -50.236872 
L 148.41 -49.555282 
L 148.41 -48.873691 
L 148.41 -48.192101 
L 148.41 -47.510511 
L 148.41 -46.828921 
L 148.41 -46.147331 
L 148.41 -45.46574 
L 148.41 -44.78415 
L 148.41 -44.10256 
z
" style="stroke: #1a1a1a; stroke-width: 0.5"/>
    </defs>
    <g clip-path="url(#p0f4b65fd35)">
     <use xlink:href="#mea523dfc9f" x="0" y="144" style="fill: #dfbe20; stroke: #1a1a1a; stroke-width: 0.5"/>
    </g>
   </g>
   <g id="PolyCollection_4">
    <defs>
     <path id="m126abbc42a" d="M 154.551151 -59.686527 
L 153.99 -59.686527 
L 153.99 -59.928206 
L 153.99 -60.169885 
L 153.99 -60.411565 
L 153.99 -60.653244 
L 153.99 -60.894923 
L 153.99 -61.136602 
L 153.99 -61.378281 
L 153.99 -61.61996 
L 153.99 -61.861639 
L 153.99 -62.103318 
L 153.99 -62.344997 
L 153.99 -62.586676 
L 153.99 -62.828356 
L 153.99 -63.070035 
L 153.99 -63.311714 
L 153.99 -63.553393 
L 153.99 -63.795072 
L 153.99 -64.036751 
L 153.99 -64.27843 
L 153.99 -64.520109 
L 153.99 -64.761788 
L 153.99 -65.003467 
L 153.99 -65.245147 
L 153.99 -65.486826 
L 153.99 -65.728505 
L 153.99 -65.970184 
L 153.99 -66.211863 
L 153.99 -66.453542 
L 153.99 -66.695221 
L 153.99 -66.9369 
L 153.99 -67.178579 
L 153.99 -67.420258 
L 153.99 -67.661938 
L 153.99 -67.903617 
L 153.99 -68.145296 
L 153.99 -68.386975 
L 153.99 -68.628654 
L 153.99 -68.870333 
L 153.99 -69.112012 
L 153.99 -69.353691 
L 153.99 -69.59537 
L 153.99 -69.837049 
L 153.99 -70.078729 
L 153.99 -70.320408 
L 153.99 -70.562087 
L 153.99 -70.803766 
L 153.99 -71.045445 
L 153.99 -71.287124 
L 153.99 -71.528803 
L 153.99 -71.770482 
L 153.99 -72.012161 
L 153.99 -72.25384 
L 153.99 -72.495519 
L 153.99 -72.737199 
L 153.99 -72.978878 
L 153.99 -73.220557 
L 153.99 -73.462236 
L 153.99 -73.703915 
L 153.99 -73.945594 
L 153.99 -74.187273 
L 153.99 -74.428952 
L 153.99 -74.670631 
L 153.99 -74.91231 
L 153.99 -75.15399 
L 153.99 -75.395669 
L 153.99 -75.637348 
L 153.99 -75.879027 
L 153.99 -76.120706 
L 153.99 -76.362385 
L 153.99 -76.604064 
L 153.99 -76.845743 
L 153.99 -77.087422 
L 153.99 -77.329101 
L 153.99 -77.570781 
L 153.99 -77.81246 
L 153.99 -78.054139 
L 153.99 -78.295818 
L 153.99 -78.537497 
L 153.99 -78.779176 
L 153.99 -79.020855 
L 153.99 -79.262534 
L 153.99 -79.504213 
L 153.99 -79.745892 
L 153.99 -79.987572 
L 153.99 -80.229251 
L 153.99 -80.47093 
L 153.99 -80.712609 
L 153.99 -80.954288 
L 153.99 -81.195967 
L 153.99 -81.437646 
L 153.99 -81.679325 
L 153.99 -81.921004 
L 153.99 -82.162683 
L 153.99 -82.404363 
L 153.99 -82.646042 
L 153.99 -82.887721 
L 153.99 -83.1294 
L 153.99 -83.371079 
L 153.99 -83.612758 
L 155.351654 -83.612758 
L 155.351654 -83.612758 
L 155.560144 -83.371079 
L 155.523124 -83.1294 
L 155.285224 -82.887721 
L 154.965713 -82.646042 
L 154.704164 -82.404363 
L 154.618849 -82.162683 
L 154.752377 -81.921004 
L 155.027493 -81.679325 
L 155.289252 -81.437646 
L 155.439896 -81.195967 
L 155.539144 -80.954288 
L 155.761725 -80.712609 
L 156.276903 -80.47093 
L 157.162049 -80.229251 
L 158.354078 -79.987572 
L 159.636589 -79.745892 
L 160.731052 -79.504213 
L 161.48174 -79.262534 
L 161.970853 -79.020855 
L 162.423243 -78.779176 
L 162.991534 -78.537497 
L 163.674697 -78.295818 
L 164.437125 -78.054139 
L 165.305445 -77.81246 
L 166.31079 -77.570781 
L 167.417285 -77.329101 
L 168.524203 -77.087422 
L 169.458774 -76.845743 
L 169.971419 -76.604064 
L 169.84015 -76.362385 
L 169.048162 -76.120706 
L 167.882883 -75.879027 
L 166.862506 -75.637348 
L 166.498025 -75.395669 
L 167.011888 -75.15399 
L 168.221457 -74.91231 
L 169.69548 -74.670631 
L 171.041157 -74.428952 
L 172.076151 -74.187273 
L 172.807112 -73.945594 
L 173.321133 -73.703915 
L 173.685716 -73.462236 
L 173.886047 -73.220557 
L 173.825876 -72.978878 
L 173.39671 -72.737199 
L 172.591981 -72.495519 
L 171.611177 -72.25384 
L 170.833865 -72.012161 
L 170.627613 -71.770482 
L 171.143595 -71.528803 
L 172.245042 -71.287124 
L 173.598257 -71.045445 
L 174.870502 -70.803766 
L 175.840428 -70.562087 
L 176.31 -70.320408 
L 176.053451 -70.078729 
L 174.993007 -69.837049 
L 173.380784 -69.59537 
L 171.738578 -69.353691 
L 170.585916 -69.112012 
L 170.12785 -68.870333 
L 170.156323 -68.628654 
L 170.331773 -68.386975 
L 170.579103 -68.145296 
L 171.088275 -67.903617 
L 171.863398 -67.661938 
L 172.419712 -67.420258 
L 172.135028 -67.178579 
L 170.900598 -66.9369 
L 169.261066 -66.695221 
L 167.892844 -66.453542 
L 167.076775 -66.211863 
L 166.650908 -65.970184 
L 166.275323 -65.728505 
L 165.716445 -65.486826 
L 165.054996 -65.245147 
L 164.65364 -65.003467 
L 164.780119 -64.761788 
L 165.266879 -64.520109 
L 165.662087 -64.27843 
L 165.640765 -64.036751 
L 165.126731 -63.795072 
L 164.150768 -63.553393 
L 162.833692 -63.311714 
L 161.475179 -63.070035 
L 160.456118 -62.828356 
L 159.988179 -62.586676 
L 159.984298 -62.344997 
L 160.125816 -62.103318 
L 160.022576 -61.861639 
L 159.405943 -61.61996 
L 158.29183 -61.378281 
L 156.980914 -61.136602 
L 155.856246 -60.894923 
L 155.139883 -60.653244 
L 154.808907 -60.411565 
L 154.697086 -60.169885 
L 154.641065 -59.928206 
L 154.551151 -59.686527 
z
" style="stroke: #1a1a1a; stroke-width: 0.5"/>
    </defs>
    <g clip-path="url(#p0f4b65fd35)">
     <use xlink:href="#m126abbc42a" x="0" y="144" style="fill: #9393f0; stroke: #1a1a1a; stroke-width: 0.5"/>
    </g>
   </g>
   <g id="PolyCollection_5">
    <defs>
     <path id="m7ee1504c00" d="M 204.21 -53.757015 
L 203.599811 -53.757015 
L 203.36045 -54.174331 
L 203.156791 -54.591647 
L 203.067855 -55.008963 
L 203.158477 -55.426279 
L 203.281251 -55.843595 
L 203.135628 -56.260911 
L 202.581918 -56.678227 
L 201.766573 -57.095543 
L 200.94726 -57.512859 
L 200.294692 -57.930175 
L 199.888046 -58.347491 
L 199.734655 -58.764807 
L 199.635007 -59.182124 
L 199.19392 -59.59944 
L 198.24808 -60.016756 
L 197.142307 -60.434072 
L 196.411402 -60.851388 
L 196.299909 -61.268704 
L 196.417953 -61.68602 
L 196.067143 -62.103336 
L 195.152472 -62.520652 
L 194.150385 -62.937968 
L 193.150605 -63.355284 
L 191.732203 -63.7726 
L 189.757743 -64.189916 
L 187.631449 -64.607232 
L 185.881451 -65.024548 
L 184.885335 -65.441864 
L 184.656642 -65.85918 
L 184.832758 -66.276496 
L 185.247258 -66.693813 
L 186.082922 -67.111129 
L 187.073034 -67.528445 
L 187.276707 -67.945761 
L 186.230212 -68.363077 
L 184.6971 -68.780393 
L 183.706281 -69.197709 
L 183.356347 -69.615025 
L 183.169599 -70.032341 
L 183.11084 -70.449657 
L 183.387275 -70.866973 
L 183.773509 -71.284289 
L 183.897755 -71.701605 
L 183.836776 -72.118921 
L 183.919528 -72.536237 
L 184.062035 -72.953553 
L 183.86555 -73.370869 
L 183.170776 -73.788185 
L 182.245804 -74.205502 
L 181.89 -74.622818 
L 182.81559 -75.040134 
L 184.553121 -75.45745 
L 186.104434 -75.874766 
L 187.531353 -76.292082 
L 189.53755 -76.709398 
L 192.026313 -77.126714 
L 194.149877 -77.54403 
L 195.281537 -77.961346 
L 195.680358 -78.378662 
L 196.372959 -78.795978 
L 197.939235 -79.213294 
L 199.718808 -79.63061 
L 200.759908 -80.047926 
L 200.901935 -80.465242 
L 200.565826 -80.882558 
L 200.080744 -81.299874 
L 199.593092 -81.717191 
L 199.35847 -82.134507 
L 199.602186 -82.551823 
L 200.109019 -82.969139 
L 200.420699 -83.386455 
L 200.446754 -83.803771 
L 200.547195 -84.221087 
L 201.001446 -84.638403 
L 201.665558 -85.055719 
L 202.216528 -85.473035 
L 202.5269 -85.890351 
L 202.668743 -86.307667 
L 202.647363 -86.724983 
L 202.417752 -87.142299 
L 202.211189 -87.559615 
L 202.414985 -87.976931 
L 203.008108 -88.394247 
L 203.559437 -88.811563 
L 203.806834 -89.22888 
L 203.866973 -89.646196 
L 203.929558 -90.063512 
L 204.005787 -90.480828 
L 203.989453 -90.898144 
L 203.831452 -91.31546 
L 203.614523 -91.732776 
L 203.483513 -92.150092 
L 203.514034 -92.567408 
L 203.674414 -92.984724 
L 203.875234 -93.40204 
L 204.01234 -93.819356 
L 204.023479 -94.236672 
L 203.947477 -94.653988 
L 203.901428 -95.071304 
L 204.21 -95.071304 
L 204.21 -95.071304 
L 204.21 -94.653988 
L 204.21 -94.236672 
L 204.21 -93.819356 
L 204.21 -93.40204 
L 204.21 -92.984724 
L 204.21 -92.567408 
L 204.21 -92.150092 
L 204.21 -91.732776 
L 204.21 -91.31546 
L 204.21 -90.898144 
L 204.21 -90.480828 
L 204.21 -90.063512 
L 204.21 -89.646196 
L 204.21 -89.22888 
L 204.21 -88.811563 
L 204.21 -88.394247 
L 204.21 -87.976931 
L 204.21 -87.559615 
L 204.21 -87.142299 
L 204.21 -86.724983 
L 204.21 -86.307667 
L 204.21 -85.890351 
L 204.21 -85.473035 
L 204.21 -85.055719 
L 204.21 -84.638403 
L 204.21 -84.221087 
L 204.21 -83.803771 
L 204.21 -83.386455 
L 204.21 -82.969139 
L 204.21 -82.551823 
L 204.21 -82.134507 
L 204.21 -81.717191 
L 204.21 -81.299874 
L 204.21 -80.882558 
L 204.21 -80.465242 
L 204.21 -80.047926 
L 204.21 -79.63061 
L 204.21 -79.213294 
L 204.21 -78.795978 
L 204.21 -78.378662 
L 204.21 -77.961346 
L 204.21 -77.54403 
L 204.21 -77.126714 
L 204.21 -76.709398 
L 204.21 -76.292082 
L 204.21 -75.874766 
L 204.21 -75.45745 
L 204.21 -75.040134 
L 204.21 -74.622818 
L 204.21 -74.205502 
L 204.21 -73.788185 
L 204.21 -73.370869 
L 204.21 -72.953553 
L 204.21 -72.536237 
L 204.21 -72.118921 
L 204.21 -71.701605 
L 204.21 -71.284289 
L 204.21 -70.866973 
L 204.21 -70.449657 
L 204.21 -70.032341 
L 204.21 -69.615025 
L 204.21 -69.197709 
L 204.21 -68.780393 
L 204.21 -68.363077 
L 204.21 -67.945761 
L 204.21 -67.528445 
L 204.21 -67.111129 
L 204.21 -66.693813 
L 204.21 -66.276496 
L 204.21 -65.85918 
L 204.21 -65.441864 
L 204.21 -65.024548 
L 204.21 -64.607232 
L 204.21 -64.189916 
L 204.21 -63.7726 
L 204.21 -63.355284 
L 204.21 -62.937968 
L 204.21 -62.520652 
L 204.21 -62.103336 
L 204.21 -61.68602 
L 204.21 -61.268704 
L 204.21 -60.851388 
L 204.21 -60.434072 
L 204.21 -60.016756 
L 204.21 -59.59944 
L 204.21 -59.182124 
L 204.21 -58.764807 
L 204.21 -58.347491 
L 204.21 -57.930175 
L 204.21 -57.512859 
L 204.21 -57.095543 
L 204.21 -56.678227 
L 204.21 -56.260911 
L 204.21 -55.843595 
L 204.21 -55.426279 
L 204.21 -55.008963 
L 204.21 -54.591647 
L 204.21 -54.174331 
L 204.21 -53.757015 
z
" style="stroke: #1a1a1a; stroke-width: 0.5"/>
    </defs>
    <g clip-path="url(#p0f4b65fd35)">
     <use xlink:href="#m7ee1504c00" x="0" y="144" style="fill: #0f0f6c; stroke: #1a1a1a; stroke-width: 0.5"/>
    </g>
   </g>
   <g id="PolyCollection_6">
    <defs>
     <path id="m64723e743f" d="M 210.061059 -49.394337 
L 209.79 -49.394337 
L 209.79 -49.863008 
L 209.79 -50.33168 
L 209.79 -50.800351 
L 209.79 -51.269022 
L 209.79 -51.737694 
L 209.79 -52.206365 
L 209.79 -52.675037 
L 209.79 -53.143708 
L 209.79 -53.61238 
L 209.79 -54.081051 
L 209.79 -54.549722 
L 209.79 -55.018394 
L 209.79 -55.487065 
L 209.79 -55.955737 
L 209.79 -56.424408 
L 209.79 -56.893079 
L 209.79 -57.361751 
L 209.79 -57.830422 
L 209.79 -58.299094 
L 209.79 -58.767765 
L 209.79 -59.236437 
L 209.79 -59.705108 
L 209.79 -60.173779 
L 209.79 -60.642451 
L 209.79 -61.111122 
L 209.79 -61.579794 
L 209.79 -62.048465 
L 209.79 -62.517136 
L 209.79 -62.985808 
L 209.79 -63.454479 
L 209.79 -63.923151 
L 209.79 -64.391822 
L 209.79 -64.860493 
L 209.79 -65.329165 
L 209.79 -65.797836 
L 209.79 -66.266508 
L 209.79 -66.735179 
L 209.79 -67.203851 
L 209.79 -67.672522 
L 209.79 -68.141193 
L 209.79 -68.609865 
L 209.79 -69.078536 
L 209.79 -69.547208 
L 209.79 -70.015879 
L 209.79 -70.48455 
L 209.79 -70.953222 
L 209.79 -71.421893 
L 209.79 -71.890565 
L 209.79 -72.359236 
L 209.79 -72.827908 
L 209.79 -73.296579 
L 209.79 -73.76525 
L 209.79 -74.233922 
L 209.79 -74.702593 
L 209.79 -75.171265 
L 209.79 -75.639936 
L 209.79 -76.108607 
L 209.79 -76.577279 
L 209.79 -77.04595 
L 209.79 -77.514622 
L 209.79 -77.983293 
L 209.79 -78.451964 
L 209.79 -78.920636 
L 209.79 -79.389307 
L 209.79 -79.857979 
L 209.79 -80.32665 
L 209.79 -80.795322 
L 209.79 -81.263993 
L 209.79 -81.732664 
L 209.79 -82.201336 
L 209.79 -82.670007 
L 209.79 -83.138679 
L 209.79 -83.60735 
L 209.79 -84.076021 
L 209.79 -84.544693 
L 209.79 -85.013364 
L 209.79 -85.482036 
L 209.79 -85.950707 
L 209.79 -86.419379 
L 209.79 -86.88805 
L 209.79 -87.356721 
L 209.79 -87.825393 
L 209.79 -88.294064 
L 209.79 -88.762736 
L 209.79 -89.231407 
L 209.79 -89.700078 
L 209.79 -90.16875 
L 209.79 -90.637421 
L 209.79 -91.106093 
L 209.79 -91.574764 
L 209.79 -92.043435 
L 209.79 -92.512107 
L 209.79 -92.980778 
L 209.79 -93.44945 
L 209.79 -93.918121 
L 209.79 -94.386793 
L 209.79 -94.855464 
L 209.79 -95.324135 
L 209.79 -95.792807 
L 210.060812 -95.792807 
L 210.060812 -95.792807 
L 210.003817 -95.324135 
L 209.895301 -94.855464 
L 209.823311 -94.386793 
L 209.805849 -93.918121 
L 209.849616 -93.44945 
L 210.02416 -92.980778 
L 210.408522 -92.512107 
L 210.900958 -92.043435 
L 211.183034 -91.574764 
L 211.042815 -91.106093 
L 210.6385 -90.637421 
L 210.311725 -90.16875 
L 210.216183 -89.700078 
L 210.274551 -89.231407 
L 210.422718 -88.762736 
L 210.637808 -88.294064 
L 210.798045 -87.825393 
L 210.805847 -87.356721 
L 210.804066 -86.88805 
L 210.992796 -86.419379 
L 211.352389 -85.950707 
L 211.739232 -85.482036 
L 212.042019 -85.013364 
L 212.154655 -84.544693 
L 211.985472 -84.076021 
L 211.638432 -83.60735 
L 211.42165 -83.138679 
L 211.551818 -82.670007 
L 211.895432 -82.201336 
L 212.108986 -81.732664 
L 212.186585 -81.263993 
L 212.579404 -80.795322 
L 213.567685 -80.32665 
L 214.720285 -79.857979 
L 215.211779 -79.389307 
L 214.943328 -78.920636 
L 214.657018 -78.451964 
L 214.707621 -77.983293 
L 214.721676 -77.514622 
L 214.342782 -77.04595 
L 213.735883 -76.577279 
L 213.522387 -76.108607 
L 214.185406 -75.639936 
L 215.458475 -75.171265 
L 216.562926 -74.702593 
L 217.005433 -74.233922 
L 216.982881 -73.76525 
L 217.069619 -73.296579 
L 217.78574 -72.827908 
L 219.257707 -72.359236 
L 220.876073 -71.890565 
L 221.75292 -71.421893 
L 221.735629 -70.953222 
L 221.536548 -70.48455 
L 222.086136 -70.015879 
L 223.856513 -69.547208 
L 226.469649 -69.078536 
L 228.911567 -68.609865 
L 230.309171 -68.141193 
L 230.845295 -67.672522 
L 231.3156 -67.203851 
L 231.896635 -66.735179 
L 232.11 -66.266508 
L 231.623313 -65.797836 
L 230.58139 -65.329165 
L 229.065696 -64.860493 
L 226.941511 -64.391822 
L 224.359595 -63.923151 
L 221.833092 -63.454479 
L 219.843782 -62.985808 
L 218.343912 -62.517136 
L 216.853283 -62.048465 
L 215.240484 -61.579794 
L 213.955036 -61.111122 
L 213.491899 -60.642451 
L 213.809958 -60.173779 
L 214.179235 -59.705108 
L 213.892867 -59.236437 
L 213.116788 -58.767765 
L 212.482489 -58.299094 
L 212.122792 -57.830422 
L 211.746391 -57.361751 
L 211.302773 -56.893079 
L 210.956695 -56.424408 
L 210.677097 -55.955737 
L 210.399095 -55.487065 
L 210.21144 -55.018394 
L 210.113213 -54.549722 
L 210.00661 -54.081051 
L 209.90214 -53.61238 
L 209.876634 -53.143708 
L 209.947958 -52.675037 
L 210.042289 -52.206365 
L 210.049354 -51.737694 
L 209.961814 -51.269022 
L 209.888426 -50.800351 
L 209.911695 -50.33168 
L 210.006369 -49.863008 
L 210.061059 -49.394337 
z
" style="stroke: #1a1a1a; stroke-width: 0.5"/>
    </defs>
    <g clip-path="url(#p0f4b65fd35)">
     <use xlink:href="#m64723e743f" x="0" y="144" style="fill: #eba9d7; stroke: #1a1a1a; stroke-width: 0.5"/>
    </g>
   </g>
   <g id="PolyCollection_7">
    <defs>
     <path id="m950f3bbad9" d="M 260.01 -60.346768 
L 259.763241 -60.346768 
L 259.789595 -60.58717 
L 259.762895 -60.827573 
L 259.583606 -61.067976 
L 259.372226 -61.308378 
L 259.261532 -61.548781 
L 259.23836 -61.789184 
L 258.899242 -62.029586 
L 257.923416 -62.269989 
L 256.964352 -62.510392 
L 256.673539 -62.750794 
L 256.555965 -62.991197 
L 256.167164 -63.2316 
L 255.918582 -63.472002 
L 255.904937 -63.712405 
L 255.453983 -63.952808 
L 254.026957 -64.19321 
L 252.058431 -64.433613 
L 250.349504 -64.674015 
L 249.230872 -64.914418 
L 248.791807 -65.154821 
L 248.299791 -65.395223 
L 246.993424 -65.635626 
L 245.632971 -65.876029 
L 245.591037 -66.116431 
L 246.224622 -66.356834 
L 245.951295 -66.597237 
L 244.213041 -66.837639 
L 242.038082 -67.078042 
L 241.207762 -67.318445 
L 241.182751 -67.558847 
L 239.805379 -67.79925 
L 237.69 -68.039653 
L 237.806273 -68.280055 
L 240.606271 -68.520458 
L 244.015581 -68.76086 
L 246.299528 -69.001263 
L 247.108944 -69.241666 
L 247.455781 -69.482068 
L 248.039845 -69.722471 
L 249.21776 -69.962874 
L 250.842841 -70.203276 
L 251.793025 -70.443679 
L 251.978836 -70.684082 
L 252.597844 -70.924484 
L 254.0545 -71.164887 
L 255.432912 -71.40529 
L 256.041237 -71.645692 
L 256.043571 -71.886095 
L 255.966616 -72.126498 
L 256.210234 -72.3669 
L 256.585782 -72.607303 
L 256.961287 -72.847705 
L 257.658501 -73.088108 
L 258.504831 -73.328511 
L 258.885539 -73.568913 
L 258.755529 -73.809316 
L 258.606087 -74.049719 
L 258.690222 -74.290121 
L 258.945227 -74.530524 
L 259.148812 -74.770927 
L 259.042229 -75.011329 
L 258.931041 -75.251732 
L 259.09583 -75.492135 
L 259.351456 -75.732537 
L 259.626189 -75.97294 
L 259.775954 -76.213343 
L 259.645396 -76.453745 
L 259.427783 -76.694148 
L 259.421538 -76.93455 
L 259.590835 -77.174953 
L 259.706529 -77.415356 
L 259.715446 -77.655758 
L 259.722041 -77.896161 
L 259.726636 -78.136564 
L 259.760661 -78.376966 
L 259.867733 -78.617369 
L 259.930771 -78.857772 
L 259.846514 -79.098174 
L 259.652128 -79.338577 
L 259.519472 -79.57898 
L 259.539629 -79.819382 
L 259.643872 -80.059785 
L 259.793852 -80.300187 
L 259.930986 -80.54059 
L 259.994209 -80.780993 
L 260.008352 -81.021395 
L 260.009905 -81.261798 
L 260.009809 -81.502201 
L 260.007015 -81.742603 
L 259.985853 -81.983006 
L 259.910159 -82.223409 
L 259.799002 -82.463811 
L 259.782083 -82.704214 
L 259.884111 -82.944617 
L 259.973374 -83.185019 
L 259.993189 -83.425422 
L 259.947041 -83.665825 
L 259.838728 -83.906227 
L 259.770456 -84.14663 
L 260.01 -84.14663 
L 260.01 -84.14663 
L 260.01 -83.906227 
L 260.01 -83.665825 
L 260.01 -83.425422 
L 260.01 -83.185019 
L 260.01 -82.944617 
L 260.01 -82.704214 
L 260.01 -82.463811 
L 260.01 -82.223409 
L 260.01 -81.983006 
L 260.01 -81.742603 
L 260.01 -81.502201 
L 260.01 -81.261798 
L 260.01 -81.021395 
L 260.01 -80.780993 
L 260.01 -80.54059 
L 260.01 -80.300187 
L 260.01 -80.059785 
L 260.01 -79.819382 
L 260.01 -79.57898 
L 260.01 -79.338577 
L 260.01 -79.098174 
L 260.01 -78.857772 
L 260.01 -78.617369 
L 260.01 -78.376966 
L 260.01 -78.136564 
L 260.01 -77.896161 
L 260.01 -77.655758 
L 260.01 -77.415356 
L 260.01 -77.174953 
L 260.01 -76.93455 
L 260.01 -76.694148 
L 260.01 -76.453745 
L 260.01 -76.213343 
L 260.01 -75.97294 
L 260.01 -75.732537 
L 260.01 -75.492135 
L 260.01 -75.251732 
L 260.01 -75.011329 
L 260.01 -74.770927 
L 260.01 -74.530524 
L 260.01 -74.290121 
L 260.01 -74.049719 
L 260.01 -73.809316 
L 260.01 -73.568913 
L 260.01 -73.328511 
L 260.01 -73.088108 
L 260.01 -72.847705 
L 260.01 -72.607303 
L 260.01 -72.3669 
L 260.01 -72.126498 
L 260.01 -71.886095 
L 260.01 -71.645692 
L 260.01 -71.40529 
L 260.01 -71.164887 
L 260.01 -70.924484 
L 260.01 -70.684082 
L 260.01 -70.443679 
L 260.01 -70.203276 
L 260.01 -69.962874 
L 260.01 -69.722471 
L 260.01 -69.482068 
L 260.01 -69.241666 
L 260.01 -69.001263 
L 260.01 -68.76086 
L 260.01 -68.520458 
L 260.01 -68.280055 
L 260.01 -68.039653 
L 260.01 -67.79925 
L 260.01 -67.558847 
L 260.01 -67.318445 
L 260.01 -67.078042 
L 260.01 -66.837639 
L 260.01 -66.597237 
L 260.01 -66.356834 
L 260.01 -66.116431 
L 260.01 -65.876029 
L 260.01 -65.635626 
L 260.01 -65.395223 
L 260.01 -65.154821 
L 260.01 -64.914418 
L 260.01 -64.674015 
L 260.01 -64.433613 
L 260.01 -64.19321 
L 260.01 -63.952808 
L 260.01 -63.712405 
L 260.01 -63.472002 
L 260.01 -63.2316 
L 260.01 -62.991197 
L 260.01 -62.750794 
L 260.01 -62.510392 
L 260.01 -62.269989 
L 260.01 -62.029586 
L 260.01 -61.789184 
L 260.01 -61.548781 
L 260.01 -61.308378 
L 260.01 -61.067976 
L 260.01 -60.827573 
L 260.01 -60.58717 
L 260.01 -60.346768 
z
" style="stroke: #1a1a1a; stroke-width: 0.5"/>
    </defs>
    <g clip-path="url(#p0f4b65fd35)">
     <use xlink:href="#m950f3bbad9" x="0" y="144" style="fill: #94c360; stroke: #1a1a1a; stroke-width: 0.5"/>
    </g>
   </g>
   <g id="PolyCollection_8">
    <defs>
     <path id="mf1d6c6eeee" d="M 265.888509 -55.43494 
L 265.59 -55.43494 
L 265.59 -55.655815 
L 265.59 -55.87669 
L 265.59 -56.097565 
L 265.59 -56.318441 
L 265.59 -56.539316 
L 265.59 -56.760191 
L 265.59 -56.981067 
L 265.59 -57.201942 
L 265.59 -57.422817 
L 265.59 -57.643693 
L 265.59 -57.864568 
L 265.59 -58.085443 
L 265.59 -58.306318 
L 265.59 -58.527194 
L 265.59 -58.748069 
L 265.59 -58.968944 
L 265.59 -59.18982 
L 265.59 -59.410695 
L 265.59 -59.63157 
L 265.59 -59.852445 
L 265.59 -60.073321 
L 265.59 -60.294196 
L 265.59 -60.515071 
L 265.59 -60.735947 
L 265.59 -60.956822 
L 265.59 -61.177697 
L 265.59 -61.398572 
L 265.59 -61.619448 
L 265.59 -61.840323 
L 265.59 -62.061198 
L 265.59 -62.282074 
L 265.59 -62.502949 
L 265.59 -62.723824 
L 265.59 -62.9447 
L 265.59 -63.165575 
L 265.59 -63.38645 
L 265.59 -63.607325 
L 265.59 -63.828201 
L 265.59 -64.049076 
L 265.59 -64.269951 
L 265.59 -64.490827 
L 265.59 -64.711702 
L 265.59 -64.932577 
L 265.59 -65.153452 
L 265.59 -65.374328 
L 265.59 -65.595203 
L 265.59 -65.816078 
L 265.59 -66.036954 
L 265.59 -66.257829 
L 265.59 -66.478704 
L 265.59 -66.699579 
L 265.59 -66.920455 
L 265.59 -67.14133 
L 265.59 -67.362205 
L 265.59 -67.583081 
L 265.59 -67.803956 
L 265.59 -68.024831 
L 265.59 -68.245707 
L 265.59 -68.466582 
L 265.59 -68.687457 
L 265.59 -68.908332 
L 265.59 -69.129208 
L 265.59 -69.350083 
L 265.59 -69.570958 
L 265.59 -69.791834 
L 265.59 -70.012709 
L 265.59 -70.233584 
L 265.59 -70.454459 
L 265.59 -70.675335 
L 265.59 -70.89621 
L 265.59 -71.117085 
L 265.59 -71.337961 
L 265.59 -71.558836 
L 265.59 -71.779711 
L 265.59 -72.000587 
L 265.59 -72.221462 
L 265.59 -72.442337 
L 265.59 -72.663212 
L 265.59 -72.884088 
L 265.59 -73.104963 
L 265.59 -73.325838 
L 265.59 -73.546714 
L 265.59 -73.767589 
L 265.59 -73.988464 
L 265.59 -74.209339 
L 265.59 -74.430215 
L 265.59 -74.65109 
L 265.59 -74.871965 
L 265.59 -75.092841 
L 265.59 -75.313716 
L 265.59 -75.534591 
L 265.59 -75.755466 
L 265.59 -75.976342 
L 265.59 -76.197217 
L 265.59 -76.418092 
L 265.59 -76.638968 
L 265.59 -76.859843 
L 265.59 -77.080718 
L 265.59 -77.301594 
L 265.859726 -77.301594 
L 265.859726 -77.301594 
L 265.789088 -77.080718 
L 265.671075 -76.859843 
L 265.619733 -76.638968 
L 265.667237 -76.418092 
L 265.845699 -76.197217 
L 266.07176 -75.976342 
L 266.093776 -75.755466 
L 265.882251 -75.534591 
L 265.683996 -75.313716 
L 265.606741 -75.092841 
L 265.591648 -74.871965 
L 265.590092 -74.65109 
L 265.590094 -74.430215 
L 265.591679 -74.209339 
L 265.607084 -73.988464 
L 265.685859 -73.767589 
L 265.887126 -73.546714 
L 266.102797 -73.325838 
L 266.114673 -73.104963 
L 266.060449 -72.884088 
L 266.274073 -72.663212 
L 266.583436 -72.442337 
L 266.534836 -72.221462 
L 266.230995 -72.000587 
L 266.116872 -71.779711 
L 266.278029 -71.558836 
L 266.627816 -71.337961 
L 267.153046 -71.117085 
L 267.64098 -70.89621 
L 267.969338 -70.675335 
L 268.316385 -70.454459 
L 268.675729 -70.233584 
L 268.999914 -70.012709 
L 269.398264 -69.791834 
L 269.749686 -69.570958 
L 269.907765 -69.350083 
L 270.127455 -69.129208 
L 270.509912 -68.908332 
L 271.321338 -68.687457 
L 272.904823 -68.466582 
L 274.276841 -68.245707 
L 274.763009 -68.024831 
L 275.176905 -67.803956 
L 275.769993 -67.583081 
L 276.566452 -67.362205 
L 277.986178 -67.14133 
L 279.385115 -66.920455 
L 279.993417 -66.699579 
L 280.502859 -66.478704 
L 281.502078 -66.257829 
L 282.948836 -66.036954 
L 284.680635 -65.816078 
L 286.228846 -65.595203 
L 286.796324 -65.374328 
L 286.479731 -65.153452 
L 286.854228 -64.932577 
L 287.91 -64.711702 
L 287.715806 -64.490827 
L 286.043413 -64.269951 
L 284.534329 -64.049076 
L 283.811486 -63.828201 
L 282.895259 -63.607325 
L 280.82189 -63.38645 
L 278.723519 -63.165575 
L 278.428182 -62.9447 
L 279.266808 -62.723824 
L 279.325056 -62.502949 
L 277.891603 -62.282074 
L 275.581348 -62.061198 
L 273.390056 -61.840323 
L 271.911309 -61.619448 
L 271.451388 -61.398572 
L 271.788149 -61.177697 
L 272.085161 -60.956822 
L 271.952041 -60.735947 
L 271.360701 -60.515071 
L 270.183045 -60.294196 
L 268.855034 -60.073321 
L 268.005383 -59.852445 
L 267.71409 -59.63157 
L 267.742138 -59.410695 
L 267.896488 -59.18982 
L 267.80827 -58.968944 
L 267.273782 -58.748069 
L 266.726807 -58.527194 
L 266.583318 -58.306318 
L 266.749299 -58.085443 
L 266.852867 -57.864568 
L 266.625039 -57.643693 
L 266.175357 -57.422817 
L 265.865341 -57.201942 
L 265.831323 -56.981067 
L 265.874197 -56.760191 
L 265.841838 -56.539316 
L 265.833046 -56.318441 
L 265.887383 -56.097565 
L 265.903017 -55.87669 
L 265.899672 -55.655815 
L 265.888509 -55.43494 
z
" style="stroke: #1a1a1a; stroke-width: 0.5"/>
    </defs>
    <g clip-path="url(#p0f4b65fd35)">
     <use xlink:href="#mf1d6c6eeee" x="0" y="144" style="fill: #935851; stroke: #1a1a1a; stroke-width: 0.5"/>
    </g>
   </g>
   <g id="PolyCollection_9">
    <defs>
     <path id="m2ae0861593" d="M 315.81 -48.705609 
L 314.859917 -48.705609 
L 314.816053 -49.005912 
L 314.889784 -49.306215 
L 314.938511 -49.606519 
L 314.883884 -49.906822 
L 314.733021 -50.207125 
L 314.545102 -50.507428 
L 314.379533 -50.807732 
L 314.248592 -51.108035 
L 314.123035 -51.408338 
L 313.992839 -51.708641 
L 313.926319 -52.008945 
L 314.001769 -52.309248 
L 314.172363 -52.609551 
L 314.263692 -52.909854 
L 314.068596 -53.210158 
L 313.4956 -53.510461 
L 312.755452 -53.810764 
L 312.282089 -54.111067 
L 312.294784 -54.411371 
L 312.553992 -54.711674 
L 312.652224 -55.011977 
L 312.363242 -55.31228 
L 311.682071 -55.612584 
L 310.770868 -55.912887 
L 309.907272 -56.21319 
L 309.308526 -56.513494 
L 308.913666 -56.813797 
L 308.446606 -57.1141 
L 307.795116 -57.414403 
L 307.185873 -57.714707 
L 306.921273 -58.01501 
L 307.079539 -58.315313 
L 307.411222 -58.615616 
L 307.452775 -58.91592 
L 306.893931 -59.216223 
L 305.785081 -59.516526 
L 304.287537 -59.816829 
L 302.51149 -60.117133 
L 300.748204 -60.417436 
L 299.509388 -60.717739 
L 299.060583 -61.018042 
L 299.053686 -61.318346 
L 298.799369 -61.618649 
L 297.871478 -61.918952 
L 296.399108 -62.219255 
L 294.891005 -62.519559 
L 293.855074 -62.819862 
L 293.49 -63.120165 
L 293.691226 -63.420468 
L 294.262412 -63.720772 
L 294.945819 -64.021075 
L 295.367956 -64.321378 
L 295.264679 -64.621681 
L 294.768683 -64.921985 
L 294.309513 -65.222288 
L 294.217721 -65.522591 
L 294.510677 -65.822894 
L 295.05356 -66.123198 
L 295.771036 -66.423501 
L 296.610048 -66.723804 
L 297.377243 -67.024107 
L 297.690481 -67.324411 
L 297.196277 -67.624714 
L 296.040575 -67.925017 
L 295.138566 -68.22532 
L 295.649071 -68.525624 
L 297.879378 -68.825927 
L 300.841547 -69.12623 
L 303.16198 -69.426533 
L 304.258953 -69.726837 
L 304.473243 -70.02714 
L 304.423972 -70.327443 
L 304.498473 -70.627746 
L 304.812787 -70.92805 
L 305.416037 -71.228353 
L 306.320059 -71.528656 
L 307.375631 -71.828959 
L 308.389338 -72.129263 
L 309.36232 -72.429566 
L 310.373937 -72.729869 
L 311.308598 -73.030172 
L 311.995811 -73.330476 
L 312.530305 -73.630779 
L 313.122862 -73.931082 
L 313.719927 -74.231385 
L 314.07481 -74.531689 
L 314.104284 -74.831992 
L 313.935414 -75.132295 
L 313.677304 -75.432598 
L 313.378642 -75.732902 
L 313.204566 -76.033205 
L 313.383426 -76.333508 
L 313.894717 -76.633811 
L 314.417746 -76.934115 
L 314.657105 -77.234418 
L 314.604463 -77.534721 
L 314.465699 -77.835024 
L 314.444621 -78.135328 
L 314.63362 -78.435631 
L 315.81 -78.435631 
L 315.81 -78.435631 
L 315.81 -78.135328 
L 315.81 -77.835024 
L 315.81 -77.534721 
L 315.81 -77.234418 
L 315.81 -76.934115 
L 315.81 -76.633811 
L 315.81 -76.333508 
L 315.81 -76.033205 
L 315.81 -75.732902 
L 315.81 -75.432598 
L 315.81 -75.132295 
L 315.81 -74.831992 
L 315.81 -74.531689 
L 315.81 -74.231385 
L 315.81 -73.931082 
L 315.81 -73.630779 
L 315.81 -73.330476 
L 315.81 -73.030172 
L 315.81 -72.729869 
L 315.81 -72.429566 
L 315.81 -72.129263 
L 315.81 -71.828959 
L 315.81 -71.528656 
L 315.81 -71.228353 
L 315.81 -70.92805 
L 315.81 -70.627746 
L 315.81 -70.327443 
L 315.81 -70.02714 
L 315.81 -69.726837 
L 315.81 -69.426533 
L 315.81 -69.12623 
L 315.81 -68.825927 
L 315.81 -68.525624 
L 315.81 -68.22532 
L 315.81 -67.925017 
L 315.81 -67.624714 
L 315.81 -67.324411 
L 315.81 -67.024107 
L 315.81 -66.723804 
L 315.81 -66.423501 
L 315.81 -66.123198 
L 315.81 -65.822894 
L 315.81 -65.522591 
L 315.81 -65.222288 
L 315.81 -64.921985 
L 315.81 -64.621681 
L 315.81 -64.321378 
L 315.81 -64.021075 
L 315.81 -63.720772 
L 315.81 -63.420468 
L 315.81 -63.120165 
L 315.81 -62.819862 
L 315.81 -62.519559 
L 315.81 -62.219255 
L 315.81 -61.918952 
L 315.81 -61.618649 
L 315.81 -61.318346 
L 315.81 -61.018042 
L 315.81 -60.717739 
L 315.81 -60.417436 
L 315.81 -60.117133 
L 315.81 -59.816829 
L 315.81 -59.516526 
L 315.81 -59.216223 
L 315.81 -58.91592 
L 315.81 -58.615616 
L 315.81 -58.315313 
L 315.81 -58.01501 
L 315.81 -57.714707 
L 315.81 -57.414403 
L 315.81 -57.1141 
L 315.81 -56.813797 
L 315.81 -56.513494 
L 315.81 -56.21319 
L 315.81 -55.912887 
L 315.81 -55.612584 
L 315.81 -55.31228 
L 315.81 -55.011977 
L 315.81 -54.711674 
L 315.81 -54.411371 
L 315.81 -54.111067 
L 315.81 -53.810764 
L 315.81 -53.510461 
L 315.81 -53.210158 
L 315.81 -52.909854 
L 315.81 -52.609551 
L 315.81 -52.309248 
L 315.81 -52.008945 
L 315.81 -51.708641 
L 315.81 -51.408338 
L 315.81 -51.108035 
L 315.81 -50.807732 
L 315.81 -50.507428 
L 315.81 -50.207125 
L 315.81 -49.906822 
L 315.81 -49.606519 
L 315.81 -49.306215 
L 315.81 -49.005912 
L 315.81 -48.705609 
z
" style="stroke: #1a1a1a; stroke-width: 0.5"/>
    </defs>
    <g clip-path="url(#p0f4b65fd35)">
     <use xlink:href="#m2ae0861593" x="0" y="144" style="fill: #137683; stroke: #1a1a1a; stroke-width: 0.5"/>
    </g>
   </g>
   <g id="PolyCollection_10">
    <defs>
     <path id="m5189f1fd9e" d="M 321.675681 -55.548997 
L 321.39 -55.548997 
L 321.39 -55.770047 
L 321.39 -55.991097 
L 321.39 -56.212148 
L 321.39 -56.433198 
L 321.39 -56.654249 
L 321.39 -56.875299 
L 321.39 -57.09635 
L 321.39 -57.3174 
L 321.39 -57.538451 
L 321.39 -57.759501 
L 321.39 -57.980552 
L 321.39 -58.201602 
L 321.39 -58.422653 
L 321.39 -58.643703 
L 321.39 -58.864754 
L 321.39 -59.085804 
L 321.39 -59.306855 
L 321.39 -59.527905 
L 321.39 -59.748956 
L 321.39 -59.970006 
L 321.39 -60.191057 
L 321.39 -60.412107 
L 321.39 -60.633158 
L 321.39 -60.854208 
L 321.39 -61.075259 
L 321.39 -61.296309 
L 321.39 -61.51736 
L 321.39 -61.73841 
L 321.39 -61.959461 
L 321.39 -62.180511 
L 321.39 -62.401562 
L 321.39 -62.622612 
L 321.39 -62.843663 
L 321.39 -63.064713 
L 321.39 -63.285764 
L 321.39 -63.506814 
L 321.39 -63.727865 
L 321.39 -63.948915 
L 321.39 -64.169966 
L 321.39 -64.391016 
L 321.39 -64.612067 
L 321.39 -64.833117 
L 321.39 -65.054168 
L 321.39 -65.275218 
L 321.39 -65.496269 
L 321.39 -65.717319 
L 321.39 -65.93837 
L 321.39 -66.15942 
L 321.39 -66.380471 
L 321.39 -66.601521 
L 321.39 -66.822572 
L 321.39 -67.043622 
L 321.39 -67.264673 
L 321.39 -67.485723 
L 321.39 -67.706774 
L 321.39 -67.927824 
L 321.39 -68.148875 
L 321.39 -68.369925 
L 321.39 -68.590975 
L 321.39 -68.812026 
L 321.39 -69.033076 
L 321.39 -69.254127 
L 321.39 -69.475177 
L 321.39 -69.696228 
L 321.39 -69.917278 
L 321.39 -70.138329 
L 321.39 -70.359379 
L 321.39 -70.58043 
L 321.39 -70.80148 
L 321.39 -71.022531 
L 321.39 -71.243581 
L 321.39 -71.464632 
L 321.39 -71.685682 
L 321.39 -71.906733 
L 321.39 -72.127783 
L 321.39 -72.348834 
L 321.39 -72.569884 
L 321.39 -72.790935 
L 321.39 -73.011985 
L 321.39 -73.233036 
L 321.39 -73.454086 
L 321.39 -73.675137 
L 321.39 -73.896187 
L 321.39 -74.117238 
L 321.39 -74.338288 
L 321.39 -74.559339 
L 321.39 -74.780389 
L 321.39 -75.00144 
L 321.39 -75.22249 
L 321.39 -75.443541 
L 321.39 -75.664591 
L 321.39 -75.885642 
L 321.39 -76.106692 
L 321.39 -76.327743 
L 321.39 -76.548793 
L 321.39 -76.769844 
L 321.39 -76.990894 
L 321.39 -77.211945 
L 321.39 -77.432995 
L 321.675349 -77.432995 
L 321.675349 -77.432995 
L 321.611353 -77.211945 
L 321.495643 -76.990894 
L 321.437608 -76.769844 
L 321.472926 -76.548793 
L 321.58933 -76.327743 
L 321.716945 -76.106692 
L 321.779618 -75.885642 
L 321.778306 -75.664591 
L 321.71715 -75.443541 
L 321.626514 -75.22249 
L 321.647298 -75.00144 
L 321.861415 -74.780389 
L 322.107045 -74.559339 
L 322.134749 -74.338288 
L 321.942819 -74.117238 
L 321.800771 -73.896187 
L 321.94503 -73.675137 
L 322.277715 -73.454086 
L 322.447301 -73.233036 
L 322.351545 -73.011985 
L 322.273317 -72.790935 
L 322.398217 -72.569884 
L 322.596916 -72.348834 
L 322.766582 -72.127783 
L 322.993644 -71.906733 
L 323.238729 -71.685682 
L 323.25175 -71.464632 
L 323.043831 -71.243581 
L 322.920628 -71.022531 
L 322.883801 -70.80148 
L 322.808838 -70.58043 
L 323.027471 -70.359379 
L 323.848312 -70.138329 
L 324.868915 -69.917278 
L 325.489617 -69.696228 
L 325.694562 -69.475177 
L 325.83659 -69.254127 
L 326.136884 -69.033076 
L 326.658772 -68.812026 
L 327.405862 -68.590975 
L 328.141643 -68.369925 
L 328.768967 -68.148875 
L 329.874931 -67.927824 
L 331.745206 -67.706774 
L 333.489036 -67.485723 
L 334.312718 -67.264673 
L 334.56959 -67.043622 
L 334.707065 -66.822572 
L 334.746294 -66.601521 
L 334.850786 -66.380471 
L 335.044594 -66.15942 
L 335.140447 -65.93837 
L 335.115099 -65.717319 
L 335.103496 -65.496269 
L 335.623368 -65.275218 
L 336.92743 -65.054168 
L 338.371858 -64.833117 
L 339.561821 -64.612067 
L 340.863099 -64.391016 
L 342.345282 -64.169966 
L 343.478041 -63.948915 
L 343.71 -63.727865 
L 342.907518 -63.506814 
L 341.845615 -63.285764 
L 341.535223 -63.064713 
L 341.474613 -62.843663 
L 340.257103 -62.622612 
L 337.702836 -62.401562 
L 335.085412 -62.180511 
L 333.499849 -61.959461 
L 332.699173 -61.73841 
L 331.817635 -61.51736 
L 330.445159 -61.296309 
L 328.608434 -61.075259 
L 326.822252 -60.854208 
L 325.905731 -60.633158 
L 325.933155 -60.412107 
L 326.268426 -60.191057 
L 326.449556 -59.970006 
L 326.211235 -59.748956 
L 325.396787 -59.527905 
L 324.280132 -59.306855 
L 323.456367 -59.085804 
L 323.279478 -58.864754 
L 323.500341 -58.643703 
L 323.692418 -58.422653 
L 323.695592 -58.201602 
L 323.470134 -57.980552 
L 323.037801 -57.759501 
L 322.537474 -57.538451 
L 322.115843 -57.3174 
L 321.851717 -57.09635 
L 321.75256 -56.875299 
L 321.706012 -56.654249 
L 321.605441 -56.433198 
L 321.508645 -56.212148 
L 321.51626 -55.991097 
L 321.614771 -55.770047 
L 321.675681 -55.548997 
z
" style="stroke: #1a1a1a; stroke-width: 0.5"/>
    </defs>
    <g clip-path="url(#p0f4b65fd35)">
     <use xlink:href="#m5189f1fd9e" x="0" y="144" style="fill: #20df20; stroke: #1a1a1a; stroke-width: 0.5"/>
    </g>
   </g>
   <g id="PolyCollection_11">
    <defs>
     <path id="m415dcf3414" d="M 371.61 -35.927476 
L 371.357199 -35.927476 
L 371.397816 -36.365584 
L 371.480259 -36.803692 
L 371.528359 -37.2418 
L 371.482616 -37.679907 
L 371.304952 -38.118015 
L 371.00263 -38.556123 
L 370.680186 -38.994231 
L 370.514 -39.432339 
L 370.616772 -39.870446 
L 370.923339 -40.308554 
L 371.239823 -40.746662 
L 371.399103 -41.18477 
L 371.341108 -41.622878 
L 371.110402 -42.060985 
L 370.851232 -42.499093 
L 370.701963 -42.937201 
L 370.618207 -43.375309 
L 370.444802 -43.813417 
L 370.189285 -44.251524 
L 370.037166 -44.689632 
L 370.09364 -45.12774 
L 370.265572 -45.565848 
L 370.38733 -46.003956 
L 370.350404 -46.442063 
L 370.142556 -46.880171 
L 369.876572 -47.318279 
L 369.740611 -47.756387 
L 369.818494 -48.194495 
L 370.013926 -48.632603 
L 370.194511 -49.07071 
L 370.271913 -49.508818 
L 370.097371 -49.946926 
L 369.510117 -50.385034 
L 368.613446 -50.823142 
L 367.763283 -51.261249 
L 367.158857 -51.699357 
L 366.718657 -52.137465 
L 366.411394 -52.575573 
L 366.373021 -53.013681 
L 366.610056 -53.451788 
L 366.837694 -53.889896 
L 366.759719 -54.328004 
L 366.343491 -54.766112 
L 365.668475 -55.20422 
L 364.754488 -55.642327 
L 363.781732 -56.080435 
L 363.193443 -56.518543 
L 363.229862 -56.956651 
L 363.507069 -57.394759 
L 363.375538 -57.832866 
L 362.685574 -58.270974 
L 361.92135 -58.709082 
L 361.472303 -59.14719 
L 361.064578 -59.585298 
L 360.208592 -60.023406 
L 358.991673 -60.461513 
L 357.975052 -60.899621 
L 357.339193 -61.337729 
L 356.536098 -61.775837 
L 354.908566 -62.213945 
L 352.54072 -62.652052 
L 350.358257 -63.09016 
L 349.29 -63.528268 
L 349.414194 -63.966376 
L 350.025858 -64.404484 
L 350.508392 -64.842591 
L 350.959199 -65.280699 
L 351.775087 -65.718807 
L 352.897099 -66.156915 
L 353.945572 -66.595023 
L 354.945591 -67.03313 
L 356.36684 -67.471238 
L 358.295891 -67.909346 
L 360.027919 -68.347454 
L 360.846842 -68.785562 
L 360.804874 -69.223669 
L 360.439988 -69.661777 
L 360.151594 -70.099885 
L 360.104144 -70.537993 
L 360.42007 -70.976101 
L 361.147967 -71.414208 
L 362.111997 -71.852316 
L 363.033384 -72.290424 
L 363.815712 -72.728532 
L 364.512403 -73.16664 
L 365.016064 -73.604748 
L 365.095348 -74.042855 
L 364.866296 -74.480963 
L 364.845566 -74.919071 
L 365.371725 -75.357179 
L 366.327794 -75.795287 
L 367.405356 -76.233394 
L 368.321658 -76.671502 
L 368.923513 -77.10961 
L 369.287206 -77.547718 
L 369.616223 -77.985826 
L 370.012573 -78.423933 
L 370.434466 -78.862041 
L 370.824253 -79.300149 
L 371.61 -79.300149 
L 371.61 -79.300149 
L 371.61 -78.862041 
L 371.61 -78.423933 
L 371.61 -77.985826 
L 371.61 -77.547718 
L 371.61 -77.10961 
L 371.61 -76.671502 
L 371.61 -76.233394 
L 371.61 -75.795287 
L 371.61 -75.357179 
L 371.61 -74.919071 
L 371.61 -74.480963 
L 371.61 -74.042855 
L 371.61 -73.604748 
L 371.61 -73.16664 
L 371.61 -72.728532 
L 371.61 -72.290424 
L 371.61 -71.852316 
L 371.61 -71.414208 
L 371.61 -70.976101 
L 371.61 -70.537993 
L 371.61 -70.099885 
L 371.61 -69.661777 
L 371.61 -69.223669 
L 371.61 -68.785562 
L 371.61 -68.347454 
L 371.61 -67.909346 
L 371.61 -67.471238 
L 371.61 -67.03313 
L 371.61 -66.595023 
L 371.61 -66.156915 
L 371.61 -65.718807 
L 371.61 -65.280699 
L 371.61 -64.842591 
L 371.61 -64.404484 
L 371.61 -63.966376 
L 371.61 -63.528268 
L 371.61 -63.09016 
L 371.61 -62.652052 
L 371.61 -62.213945 
L 371.61 -61.775837 
L 371.61 -61.337729 
L 371.61 -60.899621 
L 371.61 -60.461513 
L 371.61 -60.023406 
L 371.61 -59.585298 
L 371.61 -59.14719 
L 371.61 -58.709082 
L 371.61 -58.270974 
L 371.61 -57.832866 
L 371.61 -57.394759 
L 371.61 -56.956651 
L 371.61 -56.518543 
L 371.61 -56.080435 
L 371.61 -55.642327 
L 371.61 -55.20422 
L 371.61 -54.766112 
L 371.61 -54.328004 
L 371.61 -53.889896 
L 371.61 -53.451788 
L 371.61 -53.013681 
L 371.61 -52.575573 
L 371.61 -52.137465 
L 371.61 -51.699357 
L 371.61 -51.261249 
L 371.61 -50.823142 
L 371.61 -50.385034 
L 371.61 -49.946926 
L 371.61 -49.508818 
L 371.61 -49.07071 
L 371.61 -48.632603 
L 371.61 -48.194495 
L 371.61 -47.756387 
L 371.61 -47.318279 
L 371.61 -46.880171 
L 371.61 -46.442063 
L 371.61 -46.003956 
L 371.61 -45.565848 
L 371.61 -45.12774 
L 371.61 -44.689632 
L 371.61 -44.251524 
L 371.61 -43.813417 
L 371.61 -43.375309 
L 371.61 -42.937201 
L 371.61 -42.499093 
L 371.61 -42.060985 
L 371.61 -41.622878 
L 371.61 -41.18477 
L 371.61 -40.746662 
L 371.61 -40.308554 
L 371.61 -39.870446 
L 371.61 -39.432339 
L 371.61 -38.994231 
L 371.61 -38.556123 
L 371.61 -38.118015 
L 371.61 -37.679907 
L 371.61 -37.2418 
L 371.61 -36.803692 
L 371.61 -36.365584 
L 371.61 -35.927476 
z
" style="stroke: #1a1a1a; stroke-width: 0.5"/>
    </defs>
    <g clip-path="url(#p0f4b65fd35)">
     <use xlink:href="#m415dcf3414" x="0" y="144" style="fill: #e237ae; stroke: #1a1a1a; stroke-width: 0.5"/>
    </g>
   </g>
   <g id="PolyCollection_12">
    <defs>
     <path id="m13070a1e76" d="M 377.874938 -52.925334 
L 377.19 -52.925334 
L 377.19 -53.227232 
L 377.19 -53.52913 
L 377.19 -53.831027 
L 377.19 -54.132925 
L 377.19 -54.434823 
L 377.19 -54.736721 
L 377.19 -55.038619 
L 377.19 -55.340517 
L 377.19 -55.642415 
L 377.19 -55.944312 
L 377.19 -56.24621 
L 377.19 -56.548108 
L 377.19 -56.850006 
L 377.19 -57.151904 
L 377.19 -57.453802 
L 377.19 -57.755699 
L 377.19 -58.057597 
L 377.19 -58.359495 
L 377.19 -58.661393 
L 377.19 -58.963291 
L 377.19 -59.265189 
L 377.19 -59.567086 
L 377.19 -59.868984 
L 377.19 -60.170882 
L 377.19 -60.47278 
L 377.19 -60.774678 
L 377.19 -61.076576 
L 377.19 -61.378473 
L 377.19 -61.680371 
L 377.19 -61.982269 
L 377.19 -62.284167 
L 377.19 -62.586065 
L 377.19 -62.887963 
L 377.19 -63.18986 
L 377.19 -63.491758 
L 377.19 -63.793656 
L 377.19 -64.095554 
L 377.19 -64.397452 
L 377.19 -64.69935 
L 377.19 -65.001247 
L 377.19 -65.303145 
L 377.19 -65.605043 
L 377.19 -65.906941 
L 377.19 -66.208839 
L 377.19 -66.510737 
L 377.19 -66.812634 
L 377.19 -67.114532 
L 377.19 -67.41643 
L 377.19 -67.718328 
L 377.19 -68.020226 
L 377.19 -68.322124 
L 377.19 -68.624021 
L 377.19 -68.925919 
L 377.19 -69.227817 
L 377.19 -69.529715 
L 377.19 -69.831613 
L 377.19 -70.133511 
L 377.19 -70.435408 
L 377.19 -70.737306 
L 377.19 -71.039204 
L 377.19 -71.341102 
L 377.19 -71.643 
L 377.19 -71.944898 
L 377.19 -72.246795 
L 377.19 -72.548693 
L 377.19 -72.850591 
L 377.19 -73.152489 
L 377.19 -73.454387 
L 377.19 -73.756285 
L 377.19 -74.058183 
L 377.19 -74.36008 
L 377.19 -74.661978 
L 377.19 -74.963876 
L 377.19 -75.265774 
L 377.19 -75.567672 
L 377.19 -75.86957 
L 377.19 -76.171467 
L 377.19 -76.473365 
L 377.19 -76.775263 
L 377.19 -77.077161 
L 377.19 -77.379059 
L 377.19 -77.680957 
L 377.19 -77.982854 
L 377.19 -78.284752 
L 377.19 -78.58665 
L 377.19 -78.888548 
L 377.19 -79.190446 
L 377.19 -79.492344 
L 377.19 -79.794241 
L 377.19 -80.096139 
L 377.19 -80.398037 
L 377.19 -80.699935 
L 377.19 -81.001833 
L 377.19 -81.303731 
L 377.19 -81.605628 
L 377.19 -81.907526 
L 377.19 -82.209424 
L 377.19 -82.511322 
L 377.19 -82.81322 
L 377.968909 -82.81322 
L 377.968909 -82.81322 
L 378.23117 -82.511322 
L 378.562045 -82.209424 
L 378.9782 -81.907526 
L 379.34733 -81.605628 
L 379.47723 -81.303731 
L 379.311299 -81.001833 
L 378.989169 -80.699935 
L 378.742232 -80.398037 
L 378.735099 -80.096139 
L 378.919633 -79.794241 
L 379.034101 -79.492344 
L 378.859082 -79.190446 
L 378.484562 -78.888548 
L 378.218377 -78.58665 
L 378.246763 -78.284752 
L 378.488308 -77.982854 
L 378.758915 -77.680957 
L 378.958819 -77.379059 
L 379.061722 -77.077161 
L 379.043098 -76.775263 
L 378.933153 -76.473365 
L 378.869532 -76.171467 
L 378.982576 -75.86957 
L 379.247463 -75.567672 
L 379.51809 -75.265774 
L 379.722177 -74.963876 
L 379.978468 -74.661978 
L 380.43267 -74.36008 
L 380.973155 -74.058183 
L 381.254852 -73.756285 
L 381.082002 -73.454387 
L 380.643393 -73.152489 
L 380.280819 -72.850591 
L 380.154792 -72.548693 
L 380.24812 -72.246795 
L 380.55233 -71.944898 
L 381.080664 -71.643 
L 381.774413 -71.341102 
L 382.527445 -71.039204 
L 383.25232 -70.737306 
L 383.870592 -70.435408 
L 384.340473 -70.133511 
L 384.733764 -69.831613 
L 385.178042 -69.529715 
L 385.699279 -69.227817 
L 386.249487 -68.925919 
L 386.907222 -68.624021 
L 387.84097 -68.322124 
L 389.006013 -68.020226 
L 390.086452 -67.718328 
L 390.802884 -67.41643 
L 391.186199 -67.114532 
L 391.568889 -66.812634 
L 392.25652 -66.510737 
L 393.130185 -66.208839 
L 393.758123 -65.906941 
L 394.008819 -65.605043 
L 394.283434 -65.303145 
L 394.966204 -65.001247 
L 395.926017 -64.69935 
L 396.782716 -64.397452 
L 397.319423 -64.095554 
L 397.395759 -63.793656 
L 396.925711 -63.491758 
L 396.17825 -63.18986 
L 395.673011 -62.887963 
L 395.71385 -62.586065 
L 396.321205 -62.284167 
L 397.394366 -61.982269 
L 398.603215 -61.680371 
L 399.405503 -61.378473 
L 399.51 -61.076576 
L 399.142454 -60.774678 
L 398.630529 -60.47278 
L 397.884304 -60.170882 
L 396.526196 -59.868984 
L 394.476491 -59.567086 
L 392.186705 -59.265189 
L 390.25912 -58.963291 
L 388.969831 -58.661393 
L 388.200544 -58.359495 
L 387.703869 -58.057597 
L 387.285059 -57.755699 
L 386.741184 -57.453802 
L 385.836561 -57.151904 
L 384.540193 -56.850006 
L 383.208452 -56.548108 
L 382.299956 -56.24621 
L 381.904502 -55.944312 
L 381.717995 -55.642415 
L 381.475248 -55.340517 
L 381.214856 -55.038619 
L 381.03741 -54.736721 
L 380.794698 -54.434823 
L 380.240776 -54.132925 
L 379.418377 -53.831027 
L 378.651442 -53.52913 
L 378.158259 -53.227232 
L 377.874938 -52.925334 
z
" style="stroke: #1a1a1a; stroke-width: 0.5"/>
    </defs>
    <g clip-path="url(#p0f4b65fd35)">
     <use xlink:href="#m13070a1e76" x="0" y="144" style="fill: #0b4d0b; stroke: #1a1a1a; stroke-width: 0.5"/>
    </g>
   </g>
   <g id="PolyCollection_13">
    <defs>
     <path id="m8e1b782dd8" d="M 427.41 -56.465538 
L 427.072737 -56.465538 
L 427.052268 -56.584674 
L 427.044063 -56.703811 
L 427.016098 -56.822947 
L 426.978857 -56.942084 
L 426.930656 -57.06122 
L 426.841607 -57.180357 
L 426.700767 -57.299493 
L 426.536187 -57.41863 
L 426.396123 -57.537766 
L 426.28925 -57.656903 
L 426.119614 -57.776039 
L 425.76217 -57.895176 
L 425.234141 -58.014312 
L 424.691856 -58.133449 
L 424.240357 -58.252585 
L 423.852316 -58.371722 
L 423.512573 -58.490858 
L 423.305407 -58.609995 
L 423.238978 -58.729131 
L 423.141808 -58.848268 
L 422.867417 -58.967404 
L 422.448853 -59.086541 
L 422.013156 -59.205677 
L 421.651378 -59.324814 
L 421.30569 -59.44395 
L 420.771859 -59.563087 
L 419.923363 -59.682223 
L 418.826272 -59.80136 
L 417.574168 -59.920496 
L 416.253504 -60.039633 
L 415.076641 -60.158769 
L 414.249446 -60.277906 
L 413.750367 -60.397042 
L 413.449888 -60.516179 
L 413.251826 -60.635315 
L 412.99468 -60.754452 
L 412.471879 -60.873588 
L 411.629607 -60.992725 
L 410.686431 -61.111861 
L 410.124551 -61.230998 
L 410.473693 -61.350134 
L 411.869605 -61.46927 
L 413.791965 -61.588407 
L 415.370839 -61.707543 
L 416.044595 -61.82668 
L 415.964726 -61.945816 
L 415.722456 -62.064953 
L 415.590452 -62.184089 
L 415.098954 -62.303226 
L 413.537534 -62.422362 
L 410.900501 -62.541499 
L 408.191994 -62.660635 
L 406.683813 -62.779772 
L 406.843769 -62.898908 
L 407.99563 -63.018045 
L 409.055681 -63.137181 
L 409.467921 -63.256318 
L 409.26762 -63.375454 
L 408.615449 -63.494591 
L 407.720945 -63.613727 
L 406.944609 -63.732864 
L 406.536774 -63.852 
L 406.355714 -63.971137 
L 406.047405 -64.090273 
L 405.503822 -64.20941 
L 405.09 -64.328546 
L 405.379238 -64.447683 
L 406.6598 -64.566819 
L 408.781828 -64.685956 
L 411.416317 -64.805092 
L 414.197085 -64.924229 
L 416.61934 -65.043365 
L 418.114309 -65.162502 
L 418.448946 -65.281638 
L 418.081531 -65.400775 
L 417.952586 -65.519911 
L 418.684091 -65.639048 
L 420.06764 -65.758184 
L 421.522366 -65.877321 
L 422.749023 -65.996457 
L 423.705567 -66.115594 
L 424.372256 -66.23473 
L 424.798372 -66.353867 
L 425.116024 -66.473003 
L 425.414758 -66.59214 
L 425.684514 -66.711276 
L 425.851031 -66.830413 
L 425.883626 -66.949549 
L 425.893195 -67.068686 
L 426.040544 -67.187822 
L 426.348909 -67.306959 
L 426.698738 -67.426095 
L 426.96153 -67.545232 
L 427.071749 -67.664368 
L 427.036464 -67.783505 
L 426.917606 -67.902641 
L 426.785472 -68.021778 
L 426.707264 -68.140914 
L 426.752462 -68.260051 
L 427.41 -68.260051 
L 427.41 -68.260051 
L 427.41 -68.140914 
L 427.41 -68.021778 
L 427.41 -67.902641 
L 427.41 -67.783505 
L 427.41 -67.664368 
L 427.41 -67.545232 
L 427.41 -67.426095 
L 427.41 -67.306959 
L 427.41 -67.187822 
L 427.41 -67.068686 
L 427.41 -66.949549 
L 427.41 -66.830413 
L 427.41 -66.711276 
L 427.41 -66.59214 
L 427.41 -66.473003 
L 427.41 -66.353867 
L 427.41 -66.23473 
L 427.41 -66.115594 
L 427.41 -65.996457 
L 427.41 -65.877321 
L 427.41 -65.758184 
L 427.41 -65.639048 
L 427.41 -65.519911 
L 427.41 -65.400775 
L 427.41 -65.281638 
L 427.41 -65.162502 
L 427.41 -65.043365 
L 427.41 -64.924229 
L 427.41 -64.805092 
L 427.41 -64.685956 
L 427.41 -64.566819 
L 427.41 -64.447683 
L 427.41 -64.328546 
L 427.41 -64.20941 
L 427.41 -64.090273 
L 427.41 -63.971137 
L 427.41 -63.852 
L 427.41 -63.732864 
L 427.41 -63.613727 
L 427.41 -63.494591 
L 427.41 -63.375454 
L 427.41 -63.256318 
L 427.41 -63.137181 
L 427.41 -63.018045 
L 427.41 -62.898908 
L 427.41 -62.779772 
L 427.41 -62.660635 
L 427.41 -62.541499 
L 427.41 -62.422362 
L 427.41 -62.303226 
L 427.41 -62.184089 
L 427.41 -62.064953 
L 427.41 -61.945816 
L 427.41 -61.82668 
L 427.41 -61.707543 
L 427.41 -61.588407 
L 427.41 -61.46927 
L 427.41 -61.350134 
L 427.41 -61.230998 
L 427.41 -61.111861 
L 427.41 -60.992725 
L 427.41 -60.873588 
L 427.41 -60.754452 
L 427.41 -60.635315 
L 427.41 -60.516179 
L 427.41 -60.397042 
L 427.41 -60.277906 
L 427.41 -60.158769 
L 427.41 -60.039633 
L 427.41 -59.920496 
L 427.41 -59.80136 
L 427.41 -59.682223 
L 427.41 -59.563087 
L 427.41 -59.44395 
L 427.41 -59.324814 
L 427.41 -59.205677 
L 427.41 -59.086541 
L 427.41 -58.967404 
L 427.41 -58.848268 
L 427.41 -58.729131 
L 427.41 -58.609995 
L 427.41 -58.490858 
L 427.41 -58.371722 
L 427.41 -58.252585 
L 427.41 -58.133449 
L 427.41 -58.014312 
L 427.41 -57.895176 
L 427.41 -57.776039 
L 427.41 -57.656903 
L 427.41 -57.537766 
L 427.41 -57.41863 
L 427.41 -57.299493 
L 427.41 -57.180357 
L 427.41 -57.06122 
L 427.41 -56.942084 
L 427.41 -56.822947 
L 427.41 -56.703811 
L 427.41 -56.584674 
L 427.41 -56.465538 
z
" style="stroke: #1a1a1a; stroke-width: 0.5"/>
    </defs>
    <g clip-path="url(#p0f4b65fd35)">
     <use xlink:href="#m8e1b782dd8" x="0" y="144" style="fill: #20dfb1; stroke: #1a1a1a; stroke-width: 0.5"/>
    </g>
   </g>
   <g id="PolyCollection_14">
    <defs>
     <path id="m24ca4eb027" d="M 433.392641 -41.316027 
L 432.99 -41.316027 
L 432.99 -41.628078 
L 432.99 -41.94013 
L 432.99 -42.252182 
L 432.99 -42.564233 
L 432.99 -42.876285 
L 432.99 -43.188336 
L 432.99 -43.500388 
L 432.99 -43.812439 
L 432.99 -44.124491 
L 432.99 -44.436542 
L 432.99 -44.748594 
L 432.99 -45.060645 
L 432.99 -45.372697 
L 432.99 -45.684748 
L 432.99 -45.9968 
L 432.99 -46.308852 
L 432.99 -46.620903 
L 432.99 -46.932955 
L 432.99 -47.245006 
L 432.99 -47.557058 
L 432.99 -47.869109 
L 432.99 -48.181161 
L 432.99 -48.493212 
L 432.99 -48.805264 
L 432.99 -49.117315 
L 432.99 -49.429367 
L 432.99 -49.741418 
L 432.99 -50.05347 
L 432.99 -50.365521 
L 432.99 -50.677573 
L 432.99 -50.989625 
L 432.99 -51.301676 
L 432.99 -51.613728 
L 432.99 -51.925779 
L 432.99 -52.237831 
L 432.99 -52.549882 
L 432.99 -52.861934 
L 432.99 -53.173985 
L 432.99 -53.486037 
L 432.99 -53.798088 
L 432.99 -54.11014 
L 432.99 -54.422191 
L 432.99 -54.734243 
L 432.99 -55.046294 
L 432.99 -55.358346 
L 432.99 -55.670398 
L 432.99 -55.982449 
L 432.99 -56.294501 
L 432.99 -56.606552 
L 432.99 -56.918604 
L 432.99 -57.230655 
L 432.99 -57.542707 
L 432.99 -57.854758 
L 432.99 -58.16681 
L 432.99 -58.478861 
L 432.99 -58.790913 
L 432.99 -59.102964 
L 432.99 -59.415016 
L 432.99 -59.727067 
L 432.99 -60.039119 
L 432.99 -60.351171 
L 432.99 -60.663222 
L 432.99 -60.975274 
L 432.99 -61.287325 
L 432.99 -61.599377 
L 432.99 -61.911428 
L 432.99 -62.22348 
L 432.99 -62.535531 
L 432.99 -62.847583 
L 432.99 -63.159634 
L 432.99 -63.471686 
L 432.99 -63.783737 
L 432.99 -64.095789 
L 432.99 -64.40784 
L 432.99 -64.719892 
L 432.99 -65.031944 
L 432.99 -65.343995 
L 432.99 -65.656047 
L 432.99 -65.968098 
L 432.99 -66.28015 
L 432.99 -66.592201 
L 432.99 -66.904253 
L 432.99 -67.216304 
L 432.99 -67.528356 
L 432.99 -67.840407 
L 432.99 -68.152459 
L 432.99 -68.46451 
L 432.99 -68.776562 
L 432.99 -69.088613 
L 432.99 -69.400665 
L 432.99 -69.712717 
L 432.99 -70.024768 
L 432.99 -70.33682 
L 432.99 -70.648871 
L 432.99 -70.960923 
L 432.99 -71.272974 
L 432.99 -71.585026 
L 432.99 -71.897077 
L 432.99 -72.209129 
L 433.392645 -72.209129 
L 433.392645 -72.209129 
L 433.28068 -71.897077 
L 433.101593 -71.585026 
L 433.035355 -71.272974 
L 433.120704 -70.960923 
L 433.374659 -70.648871 
L 433.674548 -70.33682 
L 433.805795 -70.024768 
L 433.821478 -69.712717 
L 434.078407 -69.400665 
L 434.951165 -69.088613 
L 436.120777 -68.776562 
L 436.641676 -68.46451 
L 436.650125 -68.152459 
L 436.808536 -67.840407 
L 437.052364 -67.528356 
L 437.642468 -67.216304 
L 438.739375 -66.904253 
L 440.094692 -66.592201 
L 442.085096 -66.28015 
L 444.433998 -65.968098 
L 446.287614 -65.656047 
L 448.075736 -65.343995 
L 450.96504 -65.031944 
L 454.143627 -64.719892 
L 455.080556 -64.40784 
L 453.703951 -64.095789 
L 452.900225 -63.783737 
L 453.9391 -63.471686 
L 455.12565 -63.159634 
L 455.31 -62.847583 
L 454.719063 -62.535531 
L 453.803007 -62.22348 
L 453.31403 -61.911428 
L 453.601683 -61.599377 
L 453.703403 -61.287325 
L 452.534529 -60.975274 
L 450.95417 -60.663222 
L 449.838501 -60.351171 
L 448.635914 -60.039119 
L 447.770107 -59.727067 
L 447.546043 -59.415016 
L 446.562403 -59.102964 
L 444.971484 -58.790913 
L 444.061176 -58.478861 
L 443.07797 -58.16681 
L 441.668288 -57.854758 
L 441.069044 -57.542707 
L 440.831888 -57.230655 
L 439.696758 -56.918604 
L 438.198602 -56.606552 
L 437.278665 -56.294501 
L 436.967954 -55.982449 
L 436.840045 -55.670398 
L 436.613747 -55.358346 
L 436.43047 -55.046294 
L 436.556916 -54.734243 
L 436.639324 -54.422191 
L 436.296323 -54.11014 
L 435.695431 -53.798088 
L 435.008348 -53.486037 
L 434.487623 -53.173985 
L 434.36101 -52.861934 
L 434.394396 -52.549882 
L 434.320484 -52.237831 
L 434.061589 -51.925779 
L 433.738996 -51.613728 
L 433.443697 -51.301676 
L 433.210169 -50.989625 
L 433.17316 -50.677573 
L 433.31949 -50.365521 
L 433.392812 -50.05347 
L 433.278912 -49.741418 
L 433.220639 -49.429367 
L 433.339011 -49.117315 
L 433.408899 -48.805264 
L 433.346493 -48.493212 
L 433.362019 -48.181161 
L 433.406004 -47.869109 
L 433.279706 -47.557058 
L 433.097751 -47.245006 
L 433.011606 -46.932955 
L 433.000943 -46.620903 
L 433.049514 -46.308852 
L 433.198196 -45.9968 
L 433.370181 -45.684748 
L 433.355124 -45.372697 
L 433.202721 -45.060645 
L 433.184045 -44.748594 
L 433.331081 -44.436542 
L 433.385034 -44.124491 
L 433.232123 -43.812439 
L 433.067351 -43.500388 
L 433.002872 -43.188336 
L 432.99123 -42.876285 
L 432.992227 -42.564233 
L 433.011364 -42.252182 
L 433.099178 -41.94013 
L 433.280551 -41.628078 
L 433.392641 -41.316027 
z
" style="stroke: #1a1a1a; stroke-width: 0.5"/>
    </defs>
    <g clip-path="url(#p0f4b65fd35)">
     <use xlink:href="#m24ca4eb027" x="0" y="144" style="fill: #c02fe1; stroke: #1a1a1a; stroke-width: 0.5"/>
    </g>
   </g>
   <g id="PolyCollection_15">
    <defs>
     <path id="m32857f51b6" d="M 483.21 -20.88 
L 483.033796 -20.88 
L 483.087851 -21.490769 
L 483.162939 -22.101537 
L 483.159158 -22.712306 
L 483.068485 -23.323075 
L 482.964199 -23.933844 
L 482.937489 -24.544612 
L 483.007391 -25.155381 
L 483.114045 -25.76615 
L 483.141216 -26.376919 
L 483.036743 -26.987687 
L 482.895766 -27.598456 
L 482.887627 -28.209225 
L 482.939801 -28.819994 
L 482.88317 -29.430762 
L 482.87026 -30.041531 
L 483.019237 -30.6523 
L 483.15688 -31.263069 
L 483.202272 -31.873837 
L 483.200995 -32.484606 
L 483.137785 -33.095375 
L 482.909413 -33.706144 
L 482.590888 -34.316912 
L 482.575933 -34.927681 
L 482.884253 -35.53845 
L 483.107695 -36.149219 
L 483.115671 -36.759987 
L 483.03848 -37.370756 
L 483.013452 -37.981525 
L 482.990908 -38.592294 
L 482.907854 -39.203062 
L 482.905753 -39.813831 
L 483.034432 -40.4246 
L 483.15575 -41.035368 
L 483.201087 -41.646137 
L 483.203806 -42.256906 
L 483.165847 -42.867675 
L 483.02954 -43.478443 
L 482.797134 -44.089212 
L 482.578774 -44.699981 
L 482.440617 -45.31075 
L 482.396165 -45.921518 
L 482.418318 -46.532287 
L 482.550727 -47.143056 
L 482.722892 -47.753825 
L 482.75286 -48.364593 
L 482.576642 -48.975362 
L 482.291653 -49.586131 
L 482.044013 -50.1969 
L 481.751349 -50.807668 
L 481.205345 -51.418437 
L 480.502782 -52.029206 
L 480.070353 -52.639975 
L 479.967577 -53.250743 
L 479.859668 -53.861512 
L 479.617117 -54.472281 
L 479.240277 -55.08305 
L 478.530449 -55.693818 
L 477.234327 -56.304587 
L 475.237733 -56.915356 
L 472.769211 -57.526124 
L 470.245254 -58.136893 
L 468.2144 -58.747662 
L 466.770494 -59.358431 
L 464.732724 -59.969199 
L 462.195581 -60.579968 
L 460.89 -61.190737 
L 461.166763 -61.801506 
L 462.312987 -62.412274 
L 463.851355 -63.023043 
L 464.550155 -63.633812 
L 464.69385 -64.244581 
L 466.703137 -64.855349 
L 470.373018 -65.466118 
L 473.766776 -66.076887 
L 475.999474 -66.687656 
L 476.635201 -67.298424 
L 476.416329 -67.909193 
L 476.599839 -68.519962 
L 477.301266 -69.130731 
L 478.278528 -69.741499 
L 479.098416 -70.352268 
L 479.49619 -70.963037 
L 479.62127 -71.573806 
L 479.89492 -72.184574 
L 480.511096 -72.795343 
L 480.920357 -73.406112 
L 480.730656 -74.016881 
L 480.308371 -74.627649 
L 480.379816 -75.238418 
L 481.117615 -75.849187 
L 481.821764 -76.459955 
L 482.294835 -77.070724 
L 482.675428 -77.681493 
L 482.700685 -78.292262 
L 482.309413 -78.90303 
L 482.059288 -79.513799 
L 482.278975 -80.124568 
L 482.615135 -80.735337 
L 482.847457 -81.346105 
L 483.21 -81.346105 
L 483.21 -81.346105 
L 483.21 -80.735337 
L 483.21 -80.124568 
L 483.21 -79.513799 
L 483.21 -78.90303 
L 483.21 -78.292262 
L 483.21 -77.681493 
L 483.21 -77.070724 
L 483.21 -76.459955 
L 483.21 -75.849187 
L 483.21 -75.238418 
L 483.21 -74.627649 
L 483.21 -74.016881 
L 483.21 -73.406112 
L 483.21 -72.795343 
L 483.21 -72.184574 
L 483.21 -71.573806 
L 483.21 -70.963037 
L 483.21 -70.352268 
L 483.21 -69.741499 
L 483.21 -69.130731 
L 483.21 -68.519962 
L 483.21 -67.909193 
L 483.21 -67.298424 
L 483.21 -66.687656 
L 483.21 -66.076887 
L 483.21 -65.466118 
L 483.21 -64.855349 
L 483.21 -64.244581 
L 483.21 -63.633812 
L 483.21 -63.023043 
L 483.21 -62.412274 
L 483.21 -61.801506 
L 483.21 -61.190737 
L 483.21 -60.579968 
L 483.21 -59.969199 
L 483.21 -59.358431 
L 483.21 -58.747662 
L 483.21 -58.136893 
L 483.21 -57.526124 
L 483.21 -56.915356 
L 483.21 -56.304587 
L 483.21 -55.693818 
L 483.21 -55.08305 
L 483.21 -54.472281 
L 483.21 -53.861512 
L 483.21 -53.250743 
L 483.21 -52.639975 
L 483.21 -52.029206 
L 483.21 -51.418437 
L 483.21 -50.807668 
L 483.21 -50.1969 
L 483.21 -49.586131 
L 483.21 -48.975362 
L 483.21 -48.364593 
L 483.21 -47.753825 
L 483.21 -47.143056 
L 483.21 -46.532287 
L 483.21 -45.921518 
L 483.21 -45.31075 
L 483.21 -44.699981 
L 483.21 -44.089212 
L 483.21 -43.478443 
L 483.21 -42.867675 
L 483.21 -42.256906 
L 483.21 -41.646137 
L 483.21 -41.035368 
L 483.21 -40.4246 
L 483.21 -39.813831 
L 483.21 -39.203062 
L 483.21 -38.592294 
L 483.21 -37.981525 
L 483.21 -37.370756 
L 483.21 -36.759987 
L 483.21 -36.149219 
L 483.21 -35.53845 
L 483.21 -34.927681 
L 483.21 -34.316912 
L 483.21 -33.706144 
L 483.21 -33.095375 
L 483.21 -32.484606 
L 483.21 -31.873837 
L 483.21 -31.263069 
L 483.21 -30.6523 
L 483.21 -30.041531 
L 483.21 -29.430762 
L 483.21 -28.819994 
L 483.21 -28.209225 
L 483.21 -27.598456 
L 483.21 -26.987687 
L 483.21 -26.376919 
L 483.21 -25.76615 
L 483.21 -25.155381 
L 483.21 -24.544612 
L 483.21 -23.933844 
L 483.21 -23.323075 
L 483.21 -22.712306 
L 483.21 -22.101537 
L 483.21 -21.490769 
L 483.21 -20.88 
z
" style="stroke: #1a1a1a; stroke-width: 0.5"/>
    </defs>
    <g clip-path="url(#p0f4b65fd35)">
     <use xlink:href="#m32857f51b6" x="0" y="144" style="fill: #df2020; stroke: #1a1a1a; stroke-width: 0.5"/>
    </g>
   </g>
   <g id="matplotlib.axis_1">
    <g id="xtick_1">
     <g id="line2d_1">
      <defs>
       <path id="mef389d9331" d="M 0 0 
L 0 -3 
" style="stroke: #000000; stroke-width: 0.5"/>
      </defs>
      <g>
       <use xlink:href="#mef389d9331" x="81.45" y="128.16" style="stroke: #000000; stroke-width: 0.5"/>
      </g>
     </g>
     <g id="text_1">
      <text style="font: 7px 'DejaVu Sans', 'Bitstream Vera Sans', 'Computer Modern Sans Serif', 'Lucida Grande', 'Verdana', 'Geneva', 'Lucid', 'Arial', 'Helvetica', 'Avant Garde', sans-serif" transform="translate(75.560703 136.978906)">AC,</text>
      <text style="font: 7px 'DejaVu Sans', 'Bitstream Vera Sans', 'Computer Modern Sans Serif', 'Lucida Grande', 'Verdana', 'Geneva', 'Lucid', 'Arial', 'Helvetica', 'Avant Garde', sans-serif" transform="translate(68.506016 144.817375)"> n=740</text>
     </g>
    </g>
    <g id="xtick_2">
     <g id="line2d_2">
      <g>
       <use xlink:href="#mef389d9331" x="109.35" y="128.16" style="stroke: #000000; stroke-width: 0.5"/>
      </g>
     </g>
     <g id="text_2">
      <text style="font: 7px 'DejaVu Sans', 'Bitstream Vera Sans', 'Computer Modern Sans Serif', 'Lucida Grande', 'Verdana', 'Geneva', 'Lucid', 'Arial', 'Helvetica', 'Avant Garde', sans-serif" transform="translate(104.773203 136.978906)">RI,</text>
      <text style="font: 7px 'DejaVu Sans', 'Bitstream Vera Sans', 'Computer Modern Sans Serif', 'Lucida Grande', 'Verdana', 'Geneva', 'Lucid', 'Arial', 'Helvetica', 'Avant Garde', sans-serif" transform="translate(96.406016 144.817375)"> n=636</text>
     </g>
    </g>
    <g id="xtick_3">
     <g id="line2d_3">
      <g>
       <use xlink:href="#mef389d9331" x="137.25" y="128.16" style="stroke: #000000; stroke-width: 0.5"/>
      </g>
     </g>
     <g id="text_3">
      <text style="font: 7px 'DejaVu Sans', 'Bitstream Vera Sans', 'Computer Modern Sans Serif', 'Lucida Grande', 'Verdana', 'Geneva', 'Lucid', 'Arial', 'Helvetica', 'Avant Garde', sans-serif" transform="translate(131.174766 136.978906)">BU,</text>
      <text style="font: 7px 'DejaVu Sans', 'Bitstream Vera Sans', 'Computer Modern Sans Serif', 'Lucida Grande', 'Verdana', 'Geneva', 'Lucid', 'Arial', 'Helvetica', 'Avant Garde', sans-serif" transform="translate(124.306016 144.817375)"> n=718</text>
     </g>
    </g>
    <g id="xtick_4">
     <g id="line2d_4">
      <g>
       <use xlink:href="#mef389d9331" x="165.15" y="128.16" style="stroke: #000000; stroke-width: 0.5"/>
      </g>
     </g>
     <g id="text_4">
      <text style="font: 7px 'DejaVu Sans', 'Bitstream Vera Sans', 'Computer Modern Sans Serif', 'Lucida Grande', 'Verdana', 'Geneva', 'Lucid', 'Arial', 'Helvetica', 'Avant Garde', sans-serif" transform="translate(159.149687 136.978906)">CC,</text>
      <text style="font: 7px 'DejaVu Sans', 'Bitstream Vera Sans', 'Computer Modern Sans Serif', 'Lucida Grande', 'Verdana', 'Geneva', 'Lucid', 'Arial', 'Helvetica', 'Avant Garde', sans-serif" transform="translate(152.206016 144.817375)"> n=572</text>
     </g>
    </g>
    <g id="xtick_5">
     <g id="line2d_5">
      <g>
       <use xlink:href="#mef389d9331" x="193.05" y="128.16" style="stroke: #000000; stroke-width: 0.5"/>
      </g>
     </g>
     <g id="text_5">
      <text style="font: 7px 'DejaVu Sans', 'Bitstream Vera Sans', 'Computer Modern Sans Serif', 'Lucida Grande', 'Verdana', 'Geneva', 'Lucid', 'Arial', 'Helvetica', 'Avant Garde', sans-serif" transform="translate(187.294141 136.978906)">ER,</text>
      <text style="font: 7px 'DejaVu Sans', 'Bitstream Vera Sans', 'Computer Modern Sans Serif', 'Lucida Grande', 'Verdana', 'Geneva', 'Lucid', 'Arial', 'Helvetica', 'Avant Garde', sans-serif" transform="translate(180.106016 144.817375)"> n=697</text>
     </g>
    </g>
    <g id="xtick_6">
     <g id="line2d_6">
      <g>
       <use xlink:href="#mef389d9331" x="220.95" y="128.16" style="stroke: #000000; stroke-width: 0.5"/>
      </g>
     </g>
     <g id="text_6">
      <text style="font: 7px 'DejaVu Sans', 'Bitstream Vera Sans', 'Computer Modern Sans Serif', 'Lucida Grande', 'Verdana', 'Geneva', 'Lucid', 'Arial', 'Helvetica', 'Avant Garde', sans-serif" transform="translate(215.283281 136.978906)">PC,</text>
      <text style="font: 7px 'DejaVu Sans', 'Bitstream Vera Sans', 'Computer Modern Sans Serif', 'Lucida Grande', 'Verdana', 'Geneva', 'Lucid', 'Arial', 'Helvetica', 'Avant Garde', sans-serif" transform="translate(208.006016 144.817375)"> n=539</text>
     </g>
    </g>
    <g id="xtick_7">
     <g id="line2d_7">
      <g>
       <use xlink:href="#mef389d9331" x="248.85" y="128.16" style="stroke: #000000; stroke-width: 0.5"/>
      </g>
     </g>
     <g id="text_7">
      <text style="font: 7px 'DejaVu Sans', 'Bitstream Vera Sans', 'Computer Modern Sans Serif', 'Lucida Grande', 'Verdana', 'Geneva', 'Lucid', 'Arial', 'Helvetica', 'Avant Garde', sans-serif" transform="translate(243.614219 136.978906)">FP,</text>
      <text style="font: 7px 'DejaVu Sans', 'Bitstream Vera Sans', 'Computer Modern Sans Serif', 'Lucida Grande', 'Verdana', 'Geneva', 'Lucid', 'Arial', 'Helvetica', 'Avant Garde', sans-serif" transform="translate(235.906016 144.817375)"> n=657</text>
     </g>
    </g>
    <g id="xtick_8">
     <g id="line2d_8">
      <g>
       <use xlink:href="#mef389d9331" x="276.75" y="128.16" style="stroke: #000000; stroke-width: 0.5"/>
      </g>
     </g>
     <g id="text_8">
      <text style="font: 7px 'DejaVu Sans', 'Bitstream Vera Sans', 'Computer Modern Sans Serif', 'Lucida Grande', 'Verdana', 'Geneva', 'Lucid', 'Arial', 'Helvetica', 'Avant Garde', sans-serif" transform="translate(270.561562 136.978906)">CH,</text>
      <text style="font: 7px 'DejaVu Sans', 'Bitstream Vera Sans', 'Computer Modern Sans Serif', 'Lucida Grande', 'Verdana', 'Geneva', 'Lucid', 'Arial', 'Helvetica', 'Avant Garde', sans-serif" transform="translate(263.806016 144.817375)"> n=675</text>
     </g>
    </g>
    <g id="xtick_9">
     <g id="line2d_9">
      <g>
       <use xlink:href="#mef389d9331" x="304.65" y="128.16" style="stroke: #000000; stroke-width: 0.5"/>
      </g>
     </g>
     <g id="text_9">
      <text style="font: 7px 'DejaVu Sans', 'Bitstream Vera Sans', 'Computer Modern Sans Serif', 'Lucida Grande', 'Verdana', 'Geneva', 'Lucid', 'Arial', 'Helvetica', 'Avant Garde', sans-serif" transform="translate(299.375937 136.978906)">EL,</text>
      <text style="font: 7px 'DejaVu Sans', 'Bitstream Vera Sans', 'Computer Modern Sans Serif', 'Lucida Grande', 'Verdana', 'Geneva', 'Lucid', 'Arial', 'Helvetica', 'Avant Garde', sans-serif" transform="translate(291.706016 144.817375)"> n=490</text>
     </g>
    </g>
    <g id="xtick_10">
     <g id="line2d_10">
      <g>
       <use xlink:href="#mef389d9331" x="332.55" y="128.16" style="stroke: #000000; stroke-width: 0.5"/>
      </g>
     </g>
     <g id="text_10">
      <text style="font: 7px 'DejaVu Sans', 'Bitstream Vera Sans', 'Computer Modern Sans Serif', 'Lucida Grande', 'Verdana', 'Geneva', 'Lucid', 'Arial', 'Helvetica', 'Avant Garde', sans-serif" transform="translate(326.404219 136.978906)">BH,</text>
      <text style="font: 7px 'DejaVu Sans', 'Bitstream Vera Sans', 'Computer Modern Sans Serif', 'Lucida Grande', 'Verdana', 'Geneva', 'Lucid', 'Arial', 'Helvetica', 'Avant Garde', sans-serif" transform="translate(319.606016 144.817375)"> n=613</text>
     </g>
    </g>
    <g id="xtick_11">
     <g id="line2d_11">
      <g>
       <use xlink:href="#mef389d9331" x="360.45" y="128.16" style="stroke: #000000; stroke-width: 0.5"/>
      </g>
     </g>
     <g id="text_11">
      <text style="font: 7px 'DejaVu Sans', 'Bitstream Vera Sans', 'Computer Modern Sans Serif', 'Lucida Grande', 'Verdana', 'Geneva', 'Lucid', 'Arial', 'Helvetica', 'Avant Garde', sans-serif" transform="translate(354.986172 136.978906)">BL,</text>
      <text style="font: 7px 'DejaVu Sans', 'Bitstream Vera Sans', 'Computer Modern Sans Serif', 'Lucida Grande', 'Verdana', 'Geneva', 'Lucid', 'Arial', 'Helvetica', 'Avant Garde', sans-serif" transform="translate(347.506016 144.817375)"> n=648</text>
     </g>
    </g>
    <g id="xtick_12">
     <g id="line2d_12">
      <g>
       <use xlink:href="#mef389d9331" x="388.35" y="128.16" style="stroke: #000000; stroke-width: 0.5"/>
      </g>
     </g>
     <g id="text_12">
      <text style="font: 7px 'DejaVu Sans', 'Bitstream Vera Sans', 'Computer Modern Sans Serif', 'Lucida Grande', 'Verdana', 'Geneva', 'Lucid', 'Arial', 'Helvetica', 'Avant Garde', sans-serif" transform="translate(382.399453 136.978906)">CA,</text>
      <text style="font: 7px 'DejaVu Sans', 'Bitstream Vera Sans', 'Computer Modern Sans Serif', 'Lucida Grande', 'Verdana', 'Geneva', 'Lucid', 'Arial', 'Helvetica', 'Avant Garde', sans-serif" transform="translate(375.406016 144.817375)"> n=646</text>
     </g>
    </g>
    <g id="xtick_13">
     <g id="line2d_13">
      <g>
       <use xlink:href="#mef389d9331" x="416.25" y="128.16" style="stroke: #000000; stroke-width: 0.5"/>
      </g>
     </g>
     <g id="text_13">
      <text style="font: 7px 'DejaVu Sans', 'Bitstream Vera Sans', 'Computer Modern Sans Serif', 'Lucida Grande', 'Verdana', 'Geneva', 'Lucid', 'Arial', 'Helvetica', 'Avant Garde', sans-serif" transform="translate(410.429609 136.978906)">DF,</text>
      <text style="font: 7px 'DejaVu Sans', 'Bitstream Vera Sans', 'Computer Modern Sans Serif', 'Lucida Grande', 'Verdana', 'Geneva', 'Lucid', 'Arial', 'Helvetica', 'Avant Garde', sans-serif" transform="translate(403.306016 144.817375)"> n=686</text>
     </g>
    </g>
    <g id="xtick_14">
     <g id="line2d_14">
      <g>
       <use xlink:href="#mef389d9331" x="444.15" y="128.16" style="stroke: #000000; stroke-width: 0.5"/>
      </g>
     </g>
     <g id="text_14">
      <text style="font: 7px 'DejaVu Sans', 'Bitstream Vera Sans', 'Computer Modern Sans Serif', 'Lucida Grande', 'Verdana', 'Geneva', 'Lucid', 'Arial', 'Helvetica', 'Avant Garde', sans-serif" transform="translate(439.894766 136.978906)">PJ,</text>
      <text style="font: 7px 'DejaVu Sans', 'Bitstream Vera Sans', 'Computer Modern Sans Serif', 'Lucida Grande', 'Verdana', 'Geneva', 'Lucid', 'Arial', 'Helvetica', 'Avant Garde', sans-serif" transform="translate(431.206016 144.817375)"> n=477</text>
     </g>
    </g>
    <g id="xtick_15">
     <g id="line2d_15">
      <g>
       <use xlink:href="#mef389d9331" x="472.05" y="128.16" style="stroke: #000000; stroke-width: 0.5"/>
      </g>
     </g>
     <g id="text_15">
      <text style="font: 7px 'DejaVu Sans', 'Bitstream Vera Sans', 'Computer Modern Sans Serif', 'Lucida Grande', 'Verdana', 'Geneva', 'Lucid', 'Arial', 'Helvetica', 'Avant Garde', sans-serif" transform="translate(466.142109 136.978906)">BA,</text>
      <text style="font: 7px 'DejaVu Sans', 'Bitstream Vera Sans', 'Computer Modern Sans Serif', 'Lucida Grande', 'Verdana', 'Geneva', 'Lucid', 'Arial', 'Helvetica', 'Avant Garde', sans-serif" transform="translate(459.106016 144.817375)"> n=756</text>
     </g>
    </g>
   </g>
   <g id="matplotlib.axis_2">
    <g id="ytick_1">
     <g id="line2d_16">
      <defs>
       <path id="m46478c1e3f" d="M 0 0 
L 3 0 
" style="stroke: #000000; stroke-width: 0.5"/>
      </defs>
      <g>
       <use xlink:href="#m46478c1e3f" x="67.5" y="118.931557" style="stroke: #000000; stroke-width: 0.5"/>
      </g>
     </g>
     <g id="text_16">
      <text style="font: 7px 'DejaVu Sans', 'Bitstream Vera Sans', 'Computer Modern Sans Serif', 'Lucida Grande', 'Verdana', 'Geneva', 'Lucid', 'Arial', 'Helvetica', 'Avant Garde', sans-serif; text-anchor: end" x="64" y="121.59101" transform="rotate(-0 64 121.59101)">−4</text>
     </g>
    </g>
    <g id="ytick_2">
     <g id="line2d_17">
      <g>
       <use xlink:href="#m46478c1e3f" x="67.5" y="99.246408" style="stroke: #000000; stroke-width: 0.5"/>
      </g>
     </g>
     <g id="text_17">
      <text style="font: 7px 'DejaVu Sans', 'Bitstream Vera Sans', 'Computer Modern Sans Serif', 'Lucida Grande', 'Verdana', 'Geneva', 'Lucid', 'Arial', 'Helvetica', 'Avant Garde', sans-serif; text-anchor: end" x="64" y="101.905861" transform="rotate(-0 64 101.905861)">−2</text>
     </g>
    </g>
    <g id="ytick_3">
     <g id="line2d_18">
      <g>
       <use xlink:href="#m46478c1e3f" x="67.5" y="79.561259" style="stroke: #000000; stroke-width: 0.5"/>
      </g>
     </g>
     <g id="text_18">
      <text style="font: 7px 'DejaVu Sans', 'Bitstream Vera Sans', 'Computer Modern Sans Serif', 'Lucida Grande', 'Verdana', 'Geneva', 'Lucid', 'Arial', 'Helvetica', 'Avant Garde', sans-serif; text-anchor: end" x="64" y="82.220712" transform="rotate(-0 64 82.220712)">0</text>
     </g>
    </g>
    <g id="ytick_4">
     <g id="line2d_19">
      <g>
       <use xlink:href="#m46478c1e3f" x="67.5" y="59.876111" style="stroke: #000000; stroke-width: 0.5"/>
      </g>
     </g>
     <g id="text_19">
      <text style="font: 7px 'DejaVu Sans', 'Bitstream Vera Sans', 'Computer Modern Sans Serif', 'Lucida Grande', 'Verdana', 'Geneva', 'Lucid', 'Arial', 'Helvetica', 'Avant Garde', sans-serif; text-anchor: end" x="64" y="62.535564" transform="rotate(-0 64 62.535564)">2</text>
     </g>
    </g>
    <g id="ytick_5">
     <g id="line2d_20">
      <g>
       <use xlink:href="#m46478c1e3f" x="67.5" y="40.190962" style="stroke: #000000; stroke-width: 0.5"/>
      </g>
     </g>
     <g id="text_20">
      <text style="font: 7px 'DejaVu Sans', 'Bitstream Vera Sans', 'Computer Modern Sans Serif', 'Lucida Grande', 'Verdana', 'Geneva', 'Lucid', 'Arial', 'Helvetica', 'Avant Garde', sans-serif; text-anchor: end" x="64" y="42.850415" transform="rotate(-0 64 42.850415)">4</text>
     </g>
    </g>
    <g id="ytick_6">
     <g id="line2d_21">
      <g>
       <use xlink:href="#m46478c1e3f" x="67.5" y="20.505813" style="stroke: #000000; stroke-width: 0.5"/>
      </g>
     </g>
     <g id="text_21">
      <text style="font: 7px 'DejaVu Sans', 'Bitstream Vera Sans', 'Computer Modern Sans Serif', 'Lucida Grande', 'Verdana', 'Geneva', 'Lucid', 'Arial', 'Helvetica', 'Avant Garde', sans-serif; text-anchor: end" x="64" y="23.165266" transform="rotate(-0 64 23.165266)">6</text>
     </g>
    </g>
    <g id="text_22">
     <text style="font: 7px 'DejaVu Sans', 'Bitstream Vera Sans', 'Computer Modern Sans Serif', 'Lucida Grande', 'Verdana', 'Geneva', 'Lucid', 'Arial', 'Helvetica', 'Avant Garde', sans-serif; text-anchor: middle" x="48.224688" y="72.72" transform="rotate(-90 48.224688 72.72)">SHAP value</text>
    </g>
   </g>
   <g id="line2d_22">
    <path d="M 67.5 79.561259 
L 486 79.561259 
" clip-path="url(#p0f4b65fd35)" style="fill: none; stroke: #000000; stroke-opacity: 0.5; stroke-linecap: square"/>
   </g>
   <g id="patch_3">
    <path d="M 67.5 128.16 
L 67.5 17.28 
" style="fill: none; stroke: #000000; stroke-width: 0.5; stroke-linejoin: miter; stroke-linecap: square"/>
   </g>
   <g id="patch_4">
    <path d="M 486 128.16 
L 486 17.28 
" style="fill: none; stroke: #000000; stroke-width: 0.5; stroke-linejoin: miter; stroke-linecap: square"/>
   </g>
   <g id="patch_5">
    <path d="M 67.5 128.16 
L 486 128.16 
" style="fill: none; stroke: #000000; stroke-width: 0.5; stroke-linejoin: miter; stroke-linecap: square"/>
   </g>
   <g id="patch_6">
    <path d="M 67.5 17.28 
L 486 17.28 
" style="fill: none; stroke: #000000; stroke-width: 0.5; stroke-linejoin: miter; stroke-linecap: square"/>
   </g>
  </g>
 </g>
 <defs>
  <clipPath id="p0f4b65fd35">
   <rect x="67.5" y="17.28" width="418.5" height="110.88"/>
  </clipPath>
 </defs>
</svg>
