<?xml version="1.0" encoding="utf-8" standalone="no"?>
<!DOCTYPE svg PUBLIC "-//W3C//DTD SVG 1.1//EN"
  "http://www.w3.org/Graphics/SVG/1.1/DTD/svg11.dtd">
<svg xmlns:xlink="http://www.w3.org/1999/xlink" width="540pt" height="144pt" viewBox="0 0 540 144" xmlns="http://www.w3.org/2000/svg" version="1.1">
 <metadata>
  <rdf:RDF xmlns:dc="http://purl.org/dc/elements/1.1/" xmlns:cc="http://creativecommons.org/ns#" xmlns:rdf="http://www.w3.org/1999/02/22-rdf-syntax-ns#">
   <cc:Work>
    <dc:type rdf:resource="http://purl.org/dc/dcmitype/StillImage"/>
    <dc:date>2024-10-23T18:47:50.771148</dc:date>
    <dc:format>image/svg+xml</dc:format>
    <dc:creator>
     <cc:Agent>
      <dc:title>Matplotlib v3.7.1, https://matplotlib.org/</dc:title>
     </cc:Agent>
    </dc:creator>
   </cc:Work>
  </rdf:RDF>
 </metadata>
 <defs>
  <style type="text/css">*{stroke-linejoin: round; stroke-linecap: butt}</style>
 </defs>
 <g id="figure_1">
  <g id="patch_1">
   <path d="M 0 144 
L 540 144 
L 540 0 
L 0 0 
z
" style="fill: #ffffff"/>
  </g>
  <g id="axes_1">
   <g id="patch_2">
    <path d="M 67.5 128.16 
L 486 128.16 
L 486 17.28 
L 67.5 17.28 
z
" style="fill: #ffffff"/>
   </g>
   <g id="PolyCollection_1">
    <defs>
     <path id="me1dd8f44d6" d="M 92.61 -60.975168 
L 91.364666 -60.975168 
L 90.72512 -61.588348 
L 90.001138 -62.201528 
L 89.199104 -62.814708 
L 88.293475 -63.427889 
L 87.242672 -64.041069 
L 86.007937 -64.654249 
L 84.606614 -65.267429 
L 83.169774 -65.880609 
L 81.916502 -66.493789 
L 81.049338 -67.106969 
L 80.648328 -67.720149 
L 80.614309 -68.33333 
L 80.716272 -68.94651 
L 80.757849 -69.55969 
L 80.721743 -70.17287 
L 80.736708 -70.78605 
L 80.926565 -71.39923 
L 81.304873 -72.01241 
L 81.759749 -72.62559 
L 82.113282 -73.238771 
L 82.265847 -73.851951 
L 82.332773 -74.465131 
L 82.583531 -75.078311 
L 83.176072 -75.691491 
L 83.954039 -76.304671 
L 84.537709 -76.917851 
L 84.616508 -77.531031 
L 84.135233 -78.144211 
L 83.198843 -78.757392 
L 81.8742 -79.370572 
L 80.202953 -79.983752 
L 78.390643 -80.596932 
L 76.820332 -81.210112 
L 75.811393 -81.823292 
L 75.412426 -82.436472 
L 75.413609 -83.049652 
L 75.52985 -83.662833 
L 75.609794 -84.276013 
L 75.677927 -84.889193 
L 75.796934 -85.502373 
L 75.985631 -86.115553 
L 76.269592 -86.728733 
L 76.672028 -87.341913 
L 77.084718 -87.955093 
L 77.233973 -88.568274 
L 76.881128 -89.181454 
L 76.031778 -89.794634 
L 74.858868 -90.407814 
L 73.494187 -91.020994 
L 72.066655 -91.634174 
L 70.879213 -92.247354 
L 70.29 -92.860534 
L 70.364111 -93.473714 
L 70.804333 -94.086895 
L 71.276042 -94.700075 
L 71.703152 -95.313255 
L 72.216873 -95.926435 
L 72.884296 -96.539615 
L 73.543313 -97.152795 
L 73.933357 -97.765975 
L 73.998668 -98.379155 
L 74.024867 -98.992336 
L 74.415961 -99.605516 
L 75.322432 -100.218696 
L 76.551692 -100.831876 
L 77.873268 -101.445056 
L 79.296004 -102.058236 
L 80.950331 -102.671416 
L 82.796131 -103.284596 
L 84.564628 -103.897777 
L 85.952787 -104.510957 
L 86.819945 -105.124137 
L 87.247617 -105.737317 
L 87.474225 -106.350497 
L 87.754416 -106.963677 
L 88.223762 -107.576857 
L 88.85596 -108.190037 
L 89.523619 -108.803217 
L 90.094776 -109.416398 
L 90.486712 -110.029578 
L 90.658051 -110.642758 
L 90.599234 -111.255938 
L 90.368176 -111.869118 
L 90.111733 -112.482298 
L 89.993672 -113.095478 
L 90.086419 -113.708658 
L 90.357609 -114.321839 
L 90.745399 -114.935019 
L 91.200825 -115.548199 
L 91.666598 -116.161379 
L 92.068234 -116.774559 
L 92.349783 -117.387739 
L 92.505236 -118.000919 
L 92.565964 -118.614099 
L 92.564956 -119.22728 
L 92.519021 -119.84046 
L 92.441765 -120.45364 
L 92.364649 -121.06682 
L 92.331668 -121.68 
L 92.61 -121.68 
L 92.61 -121.68 
L 92.61 -121.06682 
L 92.61 -120.45364 
L 92.61 -119.84046 
L 92.61 -119.22728 
L 92.61 -118.614099 
L 92.61 -118.000919 
L 92.61 -117.387739 
L 92.61 -116.774559 
L 92.61 -116.161379 
L 92.61 -115.548199 
L 92.61 -114.935019 
L 92.61 -114.321839 
L 92.61 -113.708658 
L 92.61 -113.095478 
L 92.61 -112.482298 
L 92.61 -111.869118 
L 92.61 -111.255938 
L 92.61 -110.642758 
L 92.61 -110.029578 
L 92.61 -109.416398 
L 92.61 -108.803217 
L 92.61 -108.190037 
L 92.61 -107.576857 
L 92.61 -106.963677 
L 92.61 -106.350497 
L 92.61 -105.737317 
L 92.61 -105.124137 
L 92.61 -104.510957 
L 92.61 -103.897777 
L 92.61 -103.284596 
L 92.61 -102.671416 
L 92.61 -102.058236 
L 92.61 -101.445056 
L 92.61 -100.831876 
L 92.61 -100.218696 
L 92.61 -99.605516 
L 92.61 -98.992336 
L 92.61 -98.379155 
L 92.61 -97.765975 
L 92.61 -97.152795 
L 92.61 -96.539615 
L 92.61 -95.926435 
L 92.61 -95.313255 
L 92.61 -94.700075 
L 92.61 -94.086895 
L 92.61 -93.473714 
L 92.61 -92.860534 
L 92.61 -92.247354 
L 92.61 -91.634174 
L 92.61 -91.020994 
L 92.61 -90.407814 
L 92.61 -89.794634 
L 92.61 -89.181454 
L 92.61 -88.568274 
L 92.61 -87.955093 
L 92.61 -87.341913 
L 92.61 -86.728733 
L 92.61 -86.115553 
L 92.61 -85.502373 
L 92.61 -84.889193 
L 92.61 -84.276013 
L 92.61 -83.662833 
L 92.61 -83.049652 
L 92.61 -82.436472 
L 92.61 -81.823292 
L 92.61 -81.210112 
L 92.61 -80.596932 
L 92.61 -79.983752 
L 92.61 -79.370572 
L 92.61 -78.757392 
L 92.61 -78.144211 
L 92.61 -77.531031 
L 92.61 -76.917851 
L 92.61 -76.304671 
L 92.61 -75.691491 
L 92.61 -75.078311 
L 92.61 -74.465131 
L 92.61 -73.851951 
L 92.61 -73.238771 
L 92.61 -72.62559 
L 92.61 -72.01241 
L 92.61 -71.39923 
L 92.61 -70.78605 
L 92.61 -70.17287 
L 92.61 -69.55969 
L 92.61 -68.94651 
L 92.61 -68.33333 
L 92.61 -67.720149 
L 92.61 -67.106969 
L 92.61 -66.493789 
L 92.61 -65.880609 
L 92.61 -65.267429 
L 92.61 -64.654249 
L 92.61 -64.041069 
L 92.61 -63.427889 
L 92.61 -62.814708 
L 92.61 -62.201528 
L 92.61 -61.588348 
L 92.61 -60.975168 
z
" style="stroke: #1a1a1a; stroke-width: 0.5"/>
    </defs>
    <g clip-path="url(#p9c36d2c3f0)">
     <use xlink:href="#me1dd8f44d6" x="0" y="144" style="fill: #2020df; stroke: #1a1a1a; stroke-width: 0.5"/>
    </g>
   </g>
   <g id="PolyCollection_2">
    <defs>
     <path id="m54d7f5a375" d="M 100.000031 -66.112765 
L 98.19 -66.112765 
L 98.19 -66.477956 
L 98.19 -66.843148 
L 98.19 -67.208339 
L 98.19 -67.57353 
L 98.19 -67.938722 
L 98.19 -68.303913 
L 98.19 -68.669104 
L 98.19 -69.034296 
L 98.19 -69.399487 
L 98.19 -69.764678 
L 98.19 -70.12987 
L 98.19 -70.495061 
L 98.19 -70.860252 
L 98.19 -71.225443 
L 98.19 -71.590635 
L 98.19 -71.955826 
L 98.19 -72.321017 
L 98.19 -72.686209 
L 98.19 -73.0514 
L 98.19 -73.416591 
L 98.19 -73.781783 
L 98.19 -74.146974 
L 98.19 -74.512165 
L 98.19 -74.877357 
L 98.19 -75.242548 
L 98.19 -75.607739 
L 98.19 -75.972931 
L 98.19 -76.338122 
L 98.19 -76.703313 
L 98.19 -77.068505 
L 98.19 -77.433696 
L 98.19 -77.798887 
L 98.19 -78.164079 
L 98.19 -78.52927 
L 98.19 -78.894461 
L 98.19 -79.259653 
L 98.19 -79.624844 
L 98.19 -79.990035 
L 98.19 -80.355227 
L 98.19 -80.720418 
L 98.19 -81.085609 
L 98.19 -81.450801 
L 98.19 -81.815992 
L 98.19 -82.181183 
L 98.19 -82.546375 
L 98.19 -82.911566 
L 98.19 -83.276757 
L 98.19 -83.641949 
L 98.19 -84.00714 
L 98.19 -84.372331 
L 98.19 -84.737523 
L 98.19 -85.102714 
L 98.19 -85.467905 
L 98.19 -85.833097 
L 98.19 -86.198288 
L 98.19 -86.563479 
L 98.19 -86.928671 
L 98.19 -87.293862 
L 98.19 -87.659053 
L 98.19 -88.024244 
L 98.19 -88.389436 
L 98.19 -88.754627 
L 98.19 -89.119818 
L 98.19 -89.48501 
L 98.19 -89.850201 
L 98.19 -90.215392 
L 98.19 -90.580584 
L 98.19 -90.945775 
L 98.19 -91.310966 
L 98.19 -91.676158 
L 98.19 -92.041349 
L 98.19 -92.40654 
L 98.19 -92.771732 
L 98.19 -93.136923 
L 98.19 -93.502114 
L 98.19 -93.867306 
L 98.19 -94.232497 
L 98.19 -94.597688 
L 98.19 -94.96288 
L 98.19 -95.328071 
L 98.19 -95.693262 
L 98.19 -96.058454 
L 98.19 -96.423645 
L 98.19 -96.788836 
L 98.19 -97.154028 
L 98.19 -97.519219 
L 98.19 -97.88441 
L 98.19 -98.249602 
L 98.19 -98.614793 
L 98.19 -98.979984 
L 98.19 -99.345176 
L 98.19 -99.710367 
L 98.19 -100.075558 
L 98.19 -100.44075 
L 98.19 -100.805941 
L 98.19 -101.171132 
L 98.19 -101.536324 
L 98.19 -101.901515 
L 98.19 -102.266706 
L 98.455477 -102.266706 
L 98.455477 -102.266706 
L 98.385835 -101.901515 
L 98.268706 -101.536324 
L 98.208832 -101.171132 
L 98.206767 -100.805941 
L 98.261046 -100.44075 
L 98.375815 -100.075558 
L 98.454923 -99.710367 
L 98.395531 -99.345176 
L 98.276765 -98.979984 
L 98.209931 -98.614793 
L 98.192491 -98.249602 
L 98.190169 -97.88441 
L 98.190006 -97.519219 
L 98.19 -97.154028 
L 98.190009 -96.788836 
L 98.190232 -96.423645 
L 98.193195 -96.058454 
L 98.213966 -95.693262 
L 98.287829 -95.328071 
L 98.407296 -94.96288 
L 98.452762 -94.597688 
L 98.36491 -94.232497 
L 98.270016 -93.867306 
L 98.284543 -93.502114 
L 98.400002 -93.136923 
L 98.506851 -92.771732 
L 98.537938 -92.40654 
L 98.522836 -92.041349 
L 98.437181 -91.676158 
L 98.305278 -91.310966 
L 98.227229 -90.945775 
L 98.2461 -90.580584 
L 98.400936 -90.215392 
L 98.685688 -89.850201 
L 98.925982 -89.48501 
L 98.994228 -89.119818 
L 98.932241 -88.754627 
L 98.799089 -88.389436 
L 98.683277 -88.024244 
L 98.703725 -87.659053 
L 98.899803 -87.293862 
L 99.222735 -86.928671 
L 99.678895 -86.563479 
L 100.211502 -86.198288 
L 100.699846 -85.833097 
L 100.99944 -85.467905 
L 101.135123 -85.102714 
L 101.645916 -84.737523 
L 102.856853 -84.372331 
L 104.078758 -84.00714 
L 104.279043 -83.641949 
L 103.358018 -83.276757 
L 102.258763 -82.911566 
L 101.759097 -82.546375 
L 101.93666 -82.181183 
L 102.451839 -81.815992 
L 102.858865 -81.450801 
L 103.195874 -81.085609 
L 103.81322 -80.720418 
L 104.81844 -80.355227 
L 106.12651 -79.990035 
L 107.796122 -79.624844 
L 110.022925 -79.259653 
L 112.587662 -78.894461 
L 115.070376 -78.52927 
L 117.036112 -78.164079 
L 118.001178 -77.798887 
L 118.535283 -77.433696 
L 119.574076 -77.068505 
L 120.495547 -76.703313 
L 120.51 -76.338122 
L 120.118504 -75.972931 
L 119.19915 -75.607739 
L 117.436917 -75.242548 
L 115.743005 -74.877357 
L 114.865725 -74.512165 
L 114.373447 -74.146974 
L 113.397264 -73.781783 
L 112.151114 -73.416591 
L 111.473537 -73.0514 
L 110.984496 -72.686209 
L 109.697946 -72.321017 
L 108.160145 -71.955826 
L 107.460341 -71.590635 
L 107.135883 -71.225443 
L 106.534782 -70.860252 
L 105.916315 -70.495061 
L 105.385232 -70.12987 
L 104.469688 -69.764678 
L 103.099311 -69.399487 
L 101.870707 -69.034296 
L 101.320362 -68.669104 
L 101.493989 -68.303913 
L 101.925593 -67.938722 
L 101.999775 -67.57353 
L 101.605142 -67.208339 
L 101.14445 -66.843148 
L 100.721276 -66.477956 
L 100.000031 -66.112765 
z
" style="stroke: #1a1a1a; stroke-width: 0.5"/>
    </defs>
    <g clip-path="url(#p9c36d2c3f0)">
     <use xlink:href="#m54d7f5a375" x="0" y="144" style="fill: #6f2662; stroke: #1a1a1a; stroke-width: 0.5"/>
    </g>
   </g>
   <g id="PolyCollection_3">
    <defs>
     <path id="m766f0b2ef8" d="M 148.41 -43.22526 
L 148.134157 -43.22526 
L 148.167499 -43.901066 
L 148.239691 -44.576871 
L 148.289822 -45.252676 
L 148.270541 -45.928482 
L 148.168073 -46.604287 
L 147.999258 -47.280092 
L 147.79737 -47.955898 
L 147.591647 -48.631703 
L 147.387022 -49.307508 
L 147.142369 -49.983314 
L 146.767922 -50.659119 
L 146.185799 -51.334924 
L 145.412783 -52.01073 
L 144.553001 -52.686535 
L 143.694668 -53.36234 
L 142.818509 -54.038146 
L 141.796798 -54.713951 
L 140.502183 -55.389757 
L 138.978933 -56.065562 
L 137.498091 -56.741367 
L 136.309027 -57.417173 
L 135.280168 -58.092978 
L 133.94899 -58.768783 
L 132.021267 -59.444589 
L 129.711313 -60.120394 
L 127.602862 -60.796199 
L 126.296174 -61.472005 
L 126.09 -62.14781 
L 126.832901 -62.823615 
L 128.116079 -63.499421 
L 129.620359 -64.175226 
L 131.104971 -64.851031 
L 132.128895 -65.526837 
L 132.20304 -66.202642 
L 131.355764 -66.878447 
L 130.251937 -67.554253 
L 129.640125 -68.230058 
L 129.864095 -68.905863 
L 130.887647 -69.581669 
L 132.495243 -70.257474 
L 134.316038 -70.933279 
L 135.841143 -71.609085 
L 136.677929 -72.28489 
L 136.776968 -72.960695 
L 136.273907 -73.636501 
L 135.241808 -74.312306 
L 133.830868 -74.988111 
L 132.517647 -75.663917 
L 131.890901 -76.339722 
L 132.154128 -77.015527 
L 132.972428 -77.691333 
L 133.77969 -78.367138 
L 134.176995 -79.042943 
L 134.129903 -79.718749 
L 133.913768 -80.394554 
L 133.914701 -81.070359 
L 134.40706 -81.746165 
L 135.360088 -82.42197 
L 136.379102 -83.097776 
L 136.907751 -83.773581 
L 136.588808 -84.449386 
L 135.484876 -85.125192 
L 134.008853 -85.800997 
L 132.698021 -86.476802 
L 132.028055 -87.152608 
L 132.301819 -87.828413 
L 133.518687 -88.504218 
L 135.27576 -89.180024 
L 136.94225 -89.855829 
L 138.074011 -90.531634 
L 138.672636 -91.20744 
L 139.071786 -91.883245 
L 139.594754 -92.55905 
L 140.283728 -93.234856 
L 140.956712 -93.910661 
L 141.49043 -94.586466 
L 141.931229 -95.262272 
L 142.339862 -95.938077 
L 142.681138 -96.613882 
L 142.928413 -97.289688 
L 143.204614 -97.965493 
L 143.721843 -98.641298 
L 144.54339 -99.317104 
L 145.476756 -99.992909 
L 146.26467 -100.668714 
L 146.810074 -101.34452 
L 147.150661 -102.020325 
L 147.30416 -102.69613 
L 147.254113 -103.371936 
L 147.07474 -104.047741 
L 146.962137 -104.723546 
L 147.059675 -105.399352 
L 147.284554 -106.075157 
L 147.414275 -106.750962 
L 147.347002 -107.426768 
L 147.210714 -108.102573 
L 147.204214 -108.778379 
L 147.391977 -109.454184 
L 147.686708 -110.129989 
L 148.41 -110.129989 
L 148.41 -110.129989 
L 148.41 -109.454184 
L 148.41 -108.778379 
L 148.41 -108.102573 
L 148.41 -107.426768 
L 148.41 -106.750962 
L 148.41 -106.075157 
L 148.41 -105.399352 
L 148.41 -104.723546 
L 148.41 -104.047741 
L 148.41 -103.371936 
L 148.41 -102.69613 
L 148.41 -102.020325 
L 148.41 -101.34452 
L 148.41 -100.668714 
L 148.41 -99.992909 
L 148.41 -99.317104 
L 148.41 -98.641298 
L 148.41 -97.965493 
L 148.41 -97.289688 
L 148.41 -96.613882 
L 148.41 -95.938077 
L 148.41 -95.262272 
L 148.41 -94.586466 
L 148.41 -93.910661 
L 148.41 -93.234856 
L 148.41 -92.55905 
L 148.41 -91.883245 
L 148.41 -91.20744 
L 148.41 -90.531634 
L 148.41 -89.855829 
L 148.41 -89.180024 
L 148.41 -88.504218 
L 148.41 -87.828413 
L 148.41 -87.152608 
L 148.41 -86.476802 
L 148.41 -85.800997 
L 148.41 -85.125192 
L 148.41 -84.449386 
L 148.41 -83.773581 
L 148.41 -83.097776 
L 148.41 -82.42197 
L 148.41 -81.746165 
L 148.41 -81.070359 
L 148.41 -80.394554 
L 148.41 -79.718749 
L 148.41 -79.042943 
L 148.41 -78.367138 
L 148.41 -77.691333 
L 148.41 -77.015527 
L 148.41 -76.339722 
L 148.41 -75.663917 
L 148.41 -74.988111 
L 148.41 -74.312306 
L 148.41 -73.636501 
L 148.41 -72.960695 
L 148.41 -72.28489 
L 148.41 -71.609085 
L 148.41 -70.933279 
L 148.41 -70.257474 
L 148.41 -69.581669 
L 148.41 -68.905863 
L 148.41 -68.230058 
L 148.41 -67.554253 
L 148.41 -66.878447 
L 148.41 -66.202642 
L 148.41 -65.526837 
L 148.41 -64.851031 
L 148.41 -64.175226 
L 148.41 -63.499421 
L 148.41 -62.823615 
L 148.41 -62.14781 
L 148.41 -61.472005 
L 148.41 -60.796199 
L 148.41 -60.120394 
L 148.41 -59.444589 
L 148.41 -58.768783 
L 148.41 -58.092978 
L 148.41 -57.417173 
L 148.41 -56.741367 
L 148.41 -56.065562 
L 148.41 -55.389757 
L 148.41 -54.713951 
L 148.41 -54.038146 
L 148.41 -53.36234 
L 148.41 -52.686535 
L 148.41 -52.01073 
L 148.41 -51.334924 
L 148.41 -50.659119 
L 148.41 -49.983314 
L 148.41 -49.307508 
L 148.41 -48.631703 
L 148.41 -47.955898 
L 148.41 -47.280092 
L 148.41 -46.604287 
L 148.41 -45.928482 
L 148.41 -45.252676 
L 148.41 -44.576871 
L 148.41 -43.901066 
L 148.41 -43.22526 
z
" style="stroke: #1a1a1a; stroke-width: 0.5"/>
    </defs>
    <g clip-path="url(#p9c36d2c3f0)">
     <use xlink:href="#m766f0b2ef8" x="0" y="144" style="fill: #dfbe20; stroke: #1a1a1a; stroke-width: 0.5"/>
    </g>
   </g>
   <g id="PolyCollection_4">
    <defs>
     <path id="m3d6fb5e232" d="M 154.944878 -58.808736 
L 153.99 -58.808736 
L 153.99 -59.049136 
L 153.99 -59.289535 
L 153.99 -59.529934 
L 153.99 -59.770334 
L 153.99 -60.010733 
L 153.99 -60.251133 
L 153.99 -60.491532 
L 153.99 -60.731931 
L 153.99 -60.972331 
L 153.99 -61.21273 
L 153.99 -61.453129 
L 153.99 -61.693529 
L 153.99 -61.933928 
L 153.99 -62.174328 
L 153.99 -62.414727 
L 153.99 -62.655126 
L 153.99 -62.895526 
L 153.99 -63.135925 
L 153.99 -63.376324 
L 153.99 -63.616724 
L 153.99 -63.857123 
L 153.99 -64.097523 
L 153.99 -64.337922 
L 153.99 -64.578321 
L 153.99 -64.818721 
L 153.99 -65.05912 
L 153.99 -65.299519 
L 153.99 -65.539919 
L 153.99 -65.780318 
L 153.99 -66.020718 
L 153.99 -66.261117 
L 153.99 -66.501516 
L 153.99 -66.741916 
L 153.99 -66.982315 
L 153.99 -67.222714 
L 153.99 -67.463114 
L 153.99 -67.703513 
L 153.99 -67.943913 
L 153.99 -68.184312 
L 153.99 -68.424711 
L 153.99 -68.665111 
L 153.99 -68.90551 
L 153.99 -69.145909 
L 153.99 -69.386309 
L 153.99 -69.626708 
L 153.99 -69.867107 
L 153.99 -70.107507 
L 153.99 -70.347906 
L 153.99 -70.588306 
L 153.99 -70.828705 
L 153.99 -71.069104 
L 153.99 -71.309504 
L 153.99 -71.549903 
L 153.99 -71.790302 
L 153.99 -72.030702 
L 153.99 -72.271101 
L 153.99 -72.511501 
L 153.99 -72.7519 
L 153.99 -72.992299 
L 153.99 -73.232699 
L 153.99 -73.473098 
L 153.99 -73.713497 
L 153.99 -73.953897 
L 153.99 -74.194296 
L 153.99 -74.434696 
L 153.99 -74.675095 
L 153.99 -74.915494 
L 153.99 -75.155894 
L 153.99 -75.396293 
L 153.99 -75.636692 
L 153.99 -75.877092 
L 153.99 -76.117491 
L 153.99 -76.357891 
L 153.99 -76.59829 
L 153.99 -76.838689 
L 153.99 -77.079089 
L 153.99 -77.319488 
L 153.99 -77.559887 
L 153.99 -77.800287 
L 153.99 -78.040686 
L 153.99 -78.281086 
L 153.99 -78.521485 
L 153.99 -78.761884 
L 153.99 -79.002284 
L 153.99 -79.242683 
L 153.99 -79.483082 
L 153.99 -79.723482 
L 153.99 -79.963881 
L 153.99 -80.204281 
L 153.99 -80.44468 
L 153.99 -80.685079 
L 153.99 -80.925479 
L 153.99 -81.165878 
L 153.99 -81.406277 
L 153.99 -81.646677 
L 153.99 -81.887076 
L 153.99 -82.127476 
L 153.99 -82.367875 
L 153.99 -82.608274 
L 155.314396 -82.608274 
L 155.314396 -82.608274 
L 155.577728 -82.367875 
L 155.636384 -82.127476 
L 155.528779 -81.887076 
L 155.379546 -81.646677 
L 155.315885 -81.406277 
L 155.386023 -81.165878 
L 155.528049 -80.925479 
L 155.615085 -80.685079 
L 155.560865 -80.44468 
L 155.405962 -80.204281 
L 155.311035 -79.963881 
L 155.469813 -79.723482 
L 155.998245 -79.483082 
L 156.85127 -79.242683 
L 157.834222 -79.002284 
L 158.748534 -78.761884 
L 159.578445 -78.521485 
L 160.535616 -78.281086 
L 161.905836 -78.040686 
L 163.825335 -77.800287 
L 166.113283 -77.559887 
L 168.252323 -77.319488 
L 169.640182 -77.079089 
L 170.041781 -76.838689 
L 169.823268 -76.59829 
L 169.655224 -76.357891 
L 169.978855 -76.117491 
L 170.790137 -75.877092 
L 171.807767 -75.636692 
L 172.657125 -75.396293 
L 172.964588 -75.155894 
L 172.544628 -74.915494 
L 171.5912 -74.675095 
L 170.610592 -74.434696 
L 170.146801 -74.194296 
L 170.529958 -73.953897 
L 171.730393 -73.713497 
L 173.346134 -73.473098 
L 174.792487 -73.232699 
L 175.649186 -72.992299 
L 175.911869 -72.7519 
L 175.893417 -72.511501 
L 175.868592 -72.271101 
L 175.847624 -72.030702 
L 175.679121 -71.790302 
L 175.291583 -71.549903 
L 174.796759 -71.309504 
L 174.432731 -71.069104 
L 174.460813 -70.828705 
L 174.99274 -70.588306 
L 175.789054 -70.347906 
L 176.31 -70.107507 
L 176.118684 -69.867107 
L 175.278294 -69.626708 
L 174.315223 -69.386309 
L 173.760468 -69.145909 
L 173.750574 -68.90551 
L 174.081387 -68.665111 
L 174.535814 -68.424711 
L 175.038185 -68.184312 
L 175.532393 -67.943913 
L 175.85693 -67.703513 
L 175.812429 -67.463114 
L 175.297703 -67.222714 
L 174.326568 -66.982315 
L 172.97156 -66.741916 
L 171.367494 -66.501516 
L 169.751441 -66.261117 
L 168.437838 -66.020718 
L 167.685909 -65.780318 
L 167.527055 -65.539919 
L 167.738039 -65.299519 
L 168.050224 -65.05912 
L 168.386861 -64.818721 
L 168.854131 -64.578321 
L 169.503387 -64.337922 
L 170.123715 -64.097523 
L 170.289634 -63.857123 
L 169.688751 -63.616724 
L 168.428397 -63.376324 
L 166.918816 -63.135925 
L 165.469058 -62.895526 
L 164.146001 -62.655126 
L 162.950685 -62.414727 
L 161.896744 -62.174328 
L 160.932587 -61.933928 
L 159.981584 -61.693529 
L 159.094865 -61.453129 
L 158.457462 -61.21273 
L 158.189887 -60.972331 
L 158.166687 -60.731931 
L 158.068878 -60.491532 
L 157.6517 -60.251133 
L 156.964188 -60.010733 
L 156.27368 -59.770334 
L 155.785012 -59.529934 
L 155.483298 -59.289535 
L 155.232506 -59.049136 
L 154.944878 -58.808736 
z
" style="stroke: #1a1a1a; stroke-width: 0.5"/>
    </defs>
    <g clip-path="url(#p9c36d2c3f0)">
     <use xlink:href="#m3d6fb5e232" x="0" y="144" style="fill: #9393f0; stroke: #1a1a1a; stroke-width: 0.5"/>
    </g>
   </g>
   <g id="PolyCollection_5">
    <defs>
     <path id="mf9053f8afd" d="M 204.21 -50.405745 
L 203.495885 -50.405745 
L 203.477629 -50.843283 
L 203.632565 -51.280821 
L 203.851621 -51.718359 
L 204.037434 -52.155896 
L 204.12881 -52.593434 
L 204.091323 -53.030972 
L 203.894164 -53.46851 
L 203.560882 -53.906048 
L 203.220623 -54.343586 
L 202.965639 -54.781124 
L 202.735273 -55.218661 
L 202.488909 -55.656199 
L 202.302723 -56.093737 
L 202.17679 -56.531275 
L 201.941528 -56.968813 
L 201.326198 -57.406351 
L 200.118996 -57.843889 
L 198.499218 -58.281426 
L 196.894736 -58.718964 
L 195.533029 -59.156502 
L 194.720471 -59.59404 
L 194.843112 -60.031578 
L 195.597414 -60.469116 
L 196.143979 -60.906654 
L 196.014906 -61.344191 
L 195.355283 -61.781729 
L 194.458213 -62.219267 
L 193.314716 -62.656805 
L 191.906846 -63.094343 
L 190.531957 -63.531881 
L 189.302758 -63.969419 
L 188.019342 -64.406956 
L 186.704697 -64.844494 
L 185.751591 -65.282032 
L 185.636124 -65.71957 
L 186.26046 -66.157108 
L 186.663908 -66.594646 
L 186.062079 -67.032183 
L 184.771707 -67.469721 
L 183.62383 -67.907259 
L 183.059051 -68.344797 
L 183.158485 -68.782335 
L 183.86878 -69.219873 
L 184.666937 -69.657411 
L 184.691466 -70.094948 
L 183.674892 -70.532486 
L 182.403983 -70.970024 
L 181.89 -71.407562 
L 182.061894 -71.8451 
L 182.140258 -72.282638 
L 182.207547 -72.720176 
L 182.755321 -73.157713 
L 183.411106 -73.595251 
L 183.886451 -74.032789 
L 184.761942 -74.470327 
L 186.385254 -74.907865 
L 188.498462 -75.345403 
L 190.856519 -75.782941 
L 193.262317 -76.220478 
L 195.357872 -76.658016 
L 196.800505 -77.095554 
L 197.512009 -77.533092 
L 197.673074 -77.97063 
L 197.738951 -78.408168 
L 198.094317 -78.845706 
L 198.486619 -79.283243 
L 198.503225 -79.720781 
L 198.356112 -80.158319 
L 198.533301 -80.595857 
L 199.152025 -81.033395 
L 200.01563 -81.470933 
L 200.847085 -81.908471 
L 201.375099 -82.346008 
L 201.535719 -82.783546 
L 201.486516 -83.221084 
L 201.404518 -83.658622 
L 201.505482 -84.09616 
L 201.952595 -84.533698 
L 202.538035 -84.971235 
L 202.797432 -85.408773 
L 202.565502 -85.846311 
L 202.204303 -86.283849 
L 202.166841 -86.721387 
L 202.496986 -87.158925 
L 202.913578 -87.596463 
L 203.212091 -88.034 
L 203.396247 -88.471538 
L 203.556869 -88.909076 
L 203.723973 -89.346614 
L 203.807264 -89.784152 
L 203.731432 -90.22169 
L 203.602491 -90.659228 
L 203.590284 -91.096765 
L 203.685945 -91.534303 
L 203.772906 -91.971841 
L 203.829413 -92.409379 
L 203.86935 -92.846917 
L 203.872909 -93.284455 
L 203.881534 -93.721993 
L 204.21 -93.721993 
L 204.21 -93.721993 
L 204.21 -93.284455 
L 204.21 -92.846917 
L 204.21 -92.409379 
L 204.21 -91.971841 
L 204.21 -91.534303 
L 204.21 -91.096765 
L 204.21 -90.659228 
L 204.21 -90.22169 
L 204.21 -89.784152 
L 204.21 -89.346614 
L 204.21 -88.909076 
L 204.21 -88.471538 
L 204.21 -88.034 
L 204.21 -87.596463 
L 204.21 -87.158925 
L 204.21 -86.721387 
L 204.21 -86.283849 
L 204.21 -85.846311 
L 204.21 -85.408773 
L 204.21 -84.971235 
L 204.21 -84.533698 
L 204.21 -84.09616 
L 204.21 -83.658622 
L 204.21 -83.221084 
L 204.21 -82.783546 
L 204.21 -82.346008 
L 204.21 -81.908471 
L 204.21 -81.470933 
L 204.21 -81.033395 
L 204.21 -80.595857 
L 204.21 -80.158319 
L 204.21 -79.720781 
L 204.21 -79.283243 
L 204.21 -78.845706 
L 204.21 -78.408168 
L 204.21 -77.97063 
L 204.21 -77.533092 
L 204.21 -77.095554 
L 204.21 -76.658016 
L 204.21 -76.220478 
L 204.21 -75.782941 
L 204.21 -75.345403 
L 204.21 -74.907865 
L 204.21 -74.470327 
L 204.21 -74.032789 
L 204.21 -73.595251 
L 204.21 -73.157713 
L 204.21 -72.720176 
L 204.21 -72.282638 
L 204.21 -71.8451 
L 204.21 -71.407562 
L 204.21 -70.970024 
L 204.21 -70.532486 
L 204.21 -70.094948 
L 204.21 -69.657411 
L 204.21 -69.219873 
L 204.21 -68.782335 
L 204.21 -68.344797 
L 204.21 -67.907259 
L 204.21 -67.469721 
L 204.21 -67.032183 
L 204.21 -66.594646 
L 204.21 -66.157108 
L 204.21 -65.71957 
L 204.21 -65.282032 
L 204.21 -64.844494 
L 204.21 -64.406956 
L 204.21 -63.969419 
L 204.21 -63.531881 
L 204.21 -63.094343 
L 204.21 -62.656805 
L 204.21 -62.219267 
L 204.21 -61.781729 
L 204.21 -61.344191 
L 204.21 -60.906654 
L 204.21 -60.469116 
L 204.21 -60.031578 
L 204.21 -59.59404 
L 204.21 -59.156502 
L 204.21 -58.718964 
L 204.21 -58.281426 
L 204.21 -57.843889 
L 204.21 -57.406351 
L 204.21 -56.968813 
L 204.21 -56.531275 
L 204.21 -56.093737 
L 204.21 -55.656199 
L 204.21 -55.218661 
L 204.21 -54.781124 
L 204.21 -54.343586 
L 204.21 -53.906048 
L 204.21 -53.46851 
L 204.21 -53.030972 
L 204.21 -52.593434 
L 204.21 -52.155896 
L 204.21 -51.718359 
L 204.21 -51.280821 
L 204.21 -50.843283 
L 204.21 -50.405745 
z
" style="stroke: #1a1a1a; stroke-width: 0.5"/>
    </defs>
    <g clip-path="url(#p9c36d2c3f0)">
     <use xlink:href="#mf9053f8afd" x="0" y="144" style="fill: #0f0f6c; stroke: #1a1a1a; stroke-width: 0.5"/>
    </g>
   </g>
   <g id="PolyCollection_6">
    <defs>
     <path id="m874248badb" d="M 210.06707 -48.891447 
L 209.79 -48.891447 
L 209.79 -49.328388 
L 209.79 -49.76533 
L 209.79 -50.202271 
L 209.79 -50.639213 
L 209.79 -51.076155 
L 209.79 -51.513096 
L 209.79 -51.950038 
L 209.79 -52.38698 
L 209.79 -52.823921 
L 209.79 -53.260863 
L 209.79 -53.697805 
L 209.79 -54.134746 
L 209.79 -54.571688 
L 209.79 -55.008629 
L 209.79 -55.445571 
L 209.79 -55.882513 
L 209.79 -56.319454 
L 209.79 -56.756396 
L 209.79 -57.193338 
L 209.79 -57.630279 
L 209.79 -58.067221 
L 209.79 -58.504163 
L 209.79 -58.941104 
L 209.79 -59.378046 
L 209.79 -59.814988 
L 209.79 -60.251929 
L 209.79 -60.688871 
L 209.79 -61.125812 
L 209.79 -61.562754 
L 209.79 -61.999696 
L 209.79 -62.436637 
L 209.79 -62.873579 
L 209.79 -63.310521 
L 209.79 -63.747462 
L 209.79 -64.184404 
L 209.79 -64.621346 
L 209.79 -65.058287 
L 209.79 -65.495229 
L 209.79 -65.93217 
L 209.79 -66.369112 
L 209.79 -66.806054 
L 209.79 -67.242995 
L 209.79 -67.679937 
L 209.79 -68.116879 
L 209.79 -68.55382 
L 209.79 -68.990762 
L 209.79 -69.427704 
L 209.79 -69.864645 
L 209.79 -70.301587 
L 209.79 -70.738529 
L 209.79 -71.17547 
L 209.79 -71.612412 
L 209.79 -72.049353 
L 209.79 -72.486295 
L 209.79 -72.923237 
L 209.79 -73.360178 
L 209.79 -73.79712 
L 209.79 -74.234062 
L 209.79 -74.671003 
L 209.79 -75.107945 
L 209.79 -75.544887 
L 209.79 -75.981828 
L 209.79 -76.41877 
L 209.79 -76.855711 
L 209.79 -77.292653 
L 209.79 -77.729595 
L 209.79 -78.166536 
L 209.79 -78.603478 
L 209.79 -79.04042 
L 209.79 -79.477361 
L 209.79 -79.914303 
L 209.79 -80.351245 
L 209.79 -80.788186 
L 209.79 -81.225128 
L 209.79 -81.66207 
L 209.79 -82.099011 
L 209.79 -82.535953 
L 209.79 -82.972894 
L 209.79 -83.409836 
L 209.79 -83.846778 
L 209.79 -84.283719 
L 209.79 -84.720661 
L 209.79 -85.157603 
L 209.79 -85.594544 
L 209.79 -86.031486 
L 209.79 -86.468428 
L 209.79 -86.905369 
L 209.79 -87.342311 
L 209.79 -87.779252 
L 209.79 -88.216194 
L 209.79 -88.653136 
L 209.79 -89.090077 
L 209.79 -89.527019 
L 209.79 -89.963961 
L 209.79 -90.400902 
L 209.79 -90.837844 
L 209.79 -91.274786 
L 209.79 -91.711727 
L 209.79 -92.148669 
L 210.412625 -92.148669 
L 210.412625 -92.148669 
L 210.559556 -91.711727 
L 210.520125 -91.274786 
L 210.413814 -90.837844 
L 210.430991 -90.400902 
L 210.606401 -89.963961 
L 210.830746 -89.527019 
L 210.963135 -89.090077 
L 210.90439 -88.653136 
L 210.706118 -88.216194 
L 210.562292 -87.779252 
L 210.596228 -87.342311 
L 210.725449 -86.905369 
L 210.803168 -86.468428 
L 210.822239 -86.031486 
L 210.936219 -85.594544 
L 211.286438 -85.157603 
L 211.806689 -84.720661 
L 212.248891 -84.283719 
L 212.403856 -83.846778 
L 212.271617 -83.409836 
L 212.02235 -82.972894 
L 211.823899 -82.535953 
L 211.758652 -82.099011 
L 211.859151 -81.66207 
L 212.059458 -81.225128 
L 212.151523 -80.788186 
L 212.039538 -80.351245 
L 211.94782 -79.914303 
L 212.201079 -79.477361 
L 212.885706 -79.04042 
L 213.765892 -78.603478 
L 214.479328 -78.166536 
L 214.781555 -77.729595 
L 214.751092 -77.292653 
L 214.703012 -76.855711 
L 214.727513 -76.41877 
L 214.708156 -75.981828 
L 214.822008 -75.544887 
L 215.416602 -75.107945 
L 216.392196 -74.671003 
L 217.216355 -74.234062 
L 217.490926 -73.79712 
L 217.233977 -73.360178 
L 216.844784 -72.923237 
L 216.853946 -72.486295 
L 217.52748 -72.049353 
L 218.606615 -71.612412 
L 219.366863 -71.17547 
L 219.312748 -70.738529 
L 219.020379 -70.301587 
L 219.758869 -69.864645 
L 222.095173 -69.427704 
L 225.272933 -68.990762 
L 228.105016 -68.55382 
L 230.094627 -68.116879 
L 231.368514 -67.679937 
L 232.046166 -67.242995 
L 232.11 -66.806054 
L 231.651606 -66.369112 
L 231.086112 -65.93217 
L 230.762327 -65.495229 
L 230.516402 -65.058287 
L 229.886548 -64.621346 
L 228.563786 -64.184404 
L 226.789012 -63.747462 
L 225.078524 -63.310521 
L 223.502863 -62.873579 
L 221.767491 -62.436637 
L 219.888013 -61.999696 
L 218.303422 -61.562754 
L 217.283156 -61.125812 
L 216.603233 -60.688871 
L 215.944164 -60.251929 
L 215.22029 -59.814988 
L 214.421592 -59.378046 
L 213.522296 -58.941104 
L 212.596814 -58.504163 
L 211.807441 -58.067221 
L 211.277241 -57.630279 
L 210.998759 -57.193338 
L 210.887389 -56.756396 
L 210.920471 -56.319454 
L 211.074827 -55.882513 
L 211.216086 -55.445571 
L 211.20744 -55.008629 
L 211.013949 -54.571688 
L 210.7104 -54.134746 
L 210.423698 -53.697805 
L 210.20352 -53.260863 
L 210.025077 -52.823921 
L 209.891751 -52.38698 
L 209.820754 -51.950038 
L 209.796381 -51.513096 
L 209.792263 -51.076155 
L 209.799573 -50.639213 
L 209.831554 -50.202271 
L 209.909223 -49.76533 
L 210.014405 -49.328388 
L 210.06707 -48.891447 
z
" style="stroke: #1a1a1a; stroke-width: 0.5"/>
    </defs>
    <g clip-path="url(#p9c36d2c3f0)">
     <use xlink:href="#m874248badb" x="0" y="144" style="fill: #eba9d7; stroke: #1a1a1a; stroke-width: 0.5"/>
    </g>
   </g>
   <g id="PolyCollection_7">
    <defs>
     <path id="m422410334c" d="M 260.01 -59.489927 
L 259.716546 -59.489927 
L 259.763424 -59.706834 
L 259.775218 -59.92374 
L 259.541683 -60.140647 
L 259.099554 -60.357553 
L 258.765684 -60.57446 
L 258.780193 -60.791366 
L 258.96937 -61.008273 
L 258.929832 -61.225179 
L 258.426733 -61.442085 
L 257.592527 -61.658992 
L 256.931134 -61.875898 
L 256.792003 -62.092805 
L 256.703841 -62.309711 
L 255.936926 -62.526618 
L 254.807905 -62.743524 
L 254.174619 -62.96043 
L 253.800038 -63.177337 
L 252.961515 -63.394243 
L 251.593125 -63.61115 
L 249.958901 -63.828056 
L 248.198524 -64.044963 
L 246.530965 -64.261869 
L 245.058019 -64.478775 
L 243.851652 -64.695682 
L 243.361582 -64.912588 
L 243.482107 -65.129495 
L 243.211393 -65.346401 
L 241.941424 -65.563308 
L 240.336689 -65.780214 
L 239.598271 -65.99712 
L 239.897231 -66.214027 
L 240.231284 -66.430933 
L 239.679398 -66.64784 
L 238.983363 -66.864746 
L 239.373751 -67.081653 
L 240.28339 -67.298559 
L 240.273458 -67.515466 
L 238.895692 -67.732372 
L 237.69 -67.949278 
L 238.430341 -68.166185 
L 240.802887 -68.383091 
L 243.248958 -68.599998 
L 244.773728 -68.816904 
L 245.659641 -69.033811 
L 246.706867 -69.250717 
L 248.053383 -69.467623 
L 249.129601 -69.68453 
L 249.494673 -69.901436 
L 249.683423 -70.118343 
L 250.773326 -70.335249 
L 252.87045 -70.552156 
L 254.809492 -70.769062 
L 255.652123 -70.985968 
L 255.645828 -71.202875 
L 255.453531 -71.419781 
L 255.484711 -71.636688 
L 255.868922 -71.853594 
L 256.40846 -72.070501 
L 256.989868 -72.287407 
L 257.707767 -72.504314 
L 258.328703 -72.72122 
L 258.600489 -72.938126 
L 258.721719 -73.155033 
L 258.848874 -73.371939 
L 258.930466 -73.588846 
L 259.103792 -73.805752 
L 259.349868 -74.022659 
L 259.390506 -74.239565 
L 259.152736 -74.456471 
L 258.828426 -74.673378 
L 258.739043 -74.890284 
L 258.982842 -75.107191 
L 259.26959 -75.324097 
L 259.341826 -75.541004 
L 259.302168 -75.75791 
L 259.33474 -75.974816 
L 259.378154 -76.191723 
L 259.289778 -76.408629 
L 259.116162 -76.625536 
L 259.09128 -76.842442 
L 259.27901 -77.059349 
L 259.535266 -77.276255 
L 259.76853 -77.493161 
L 259.926137 -77.710068 
L 259.992086 -77.926974 
L 260.007757 -78.143881 
L 260.009838 -78.360787 
L 260.009993 -78.577694 
L 260.009991 -78.7946 
L 260.009789 -79.011507 
L 260.007241 -79.228413 
L 259.989441 -79.445319 
L 259.922546 -79.662226 
L 259.795685 -79.879132 
L 259.692631 -80.096039 
L 259.662199 -80.312945 
L 259.591499 -80.529852 
L 259.475116 -80.746758 
L 259.501103 -80.963664 
L 260.01 -80.963664 
L 260.01 -80.963664 
L 260.01 -80.746758 
L 260.01 -80.529852 
L 260.01 -80.312945 
L 260.01 -80.096039 
L 260.01 -79.879132 
L 260.01 -79.662226 
L 260.01 -79.445319 
L 260.01 -79.228413 
L 260.01 -79.011507 
L 260.01 -78.7946 
L 260.01 -78.577694 
L 260.01 -78.360787 
L 260.01 -78.143881 
L 260.01 -77.926974 
L 260.01 -77.710068 
L 260.01 -77.493161 
L 260.01 -77.276255 
L 260.01 -77.059349 
L 260.01 -76.842442 
L 260.01 -76.625536 
L 260.01 -76.408629 
L 260.01 -76.191723 
L 260.01 -75.974816 
L 260.01 -75.75791 
L 260.01 -75.541004 
L 260.01 -75.324097 
L 260.01 -75.107191 
L 260.01 -74.890284 
L 260.01 -74.673378 
L 260.01 -74.456471 
L 260.01 -74.239565 
L 260.01 -74.022659 
L 260.01 -73.805752 
L 260.01 -73.588846 
L 260.01 -73.371939 
L 260.01 -73.155033 
L 260.01 -72.938126 
L 260.01 -72.72122 
L 260.01 -72.504314 
L 260.01 -72.287407 
L 260.01 -72.070501 
L 260.01 -71.853594 
L 260.01 -71.636688 
L 260.01 -71.419781 
L 260.01 -71.202875 
L 260.01 -70.985968 
L 260.01 -70.769062 
L 260.01 -70.552156 
L 260.01 -70.335249 
L 260.01 -70.118343 
L 260.01 -69.901436 
L 260.01 -69.68453 
L 260.01 -69.467623 
L 260.01 -69.250717 
L 260.01 -69.033811 
L 260.01 -68.816904 
L 260.01 -68.599998 
L 260.01 -68.383091 
L 260.01 -68.166185 
L 260.01 -67.949278 
L 260.01 -67.732372 
L 260.01 -67.515466 
L 260.01 -67.298559 
L 260.01 -67.081653 
L 260.01 -66.864746 
L 260.01 -66.64784 
L 260.01 -66.430933 
L 260.01 -66.214027 
L 260.01 -65.99712 
L 260.01 -65.780214 
L 260.01 -65.563308 
L 260.01 -65.346401 
L 260.01 -65.129495 
L 260.01 -64.912588 
L 260.01 -64.695682 
L 260.01 -64.478775 
L 260.01 -64.261869 
L 260.01 -64.044963 
L 260.01 -63.828056 
L 260.01 -63.61115 
L 260.01 -63.394243 
L 260.01 -63.177337 
L 260.01 -62.96043 
L 260.01 -62.743524 
L 260.01 -62.526618 
L 260.01 -62.309711 
L 260.01 -62.092805 
L 260.01 -61.875898 
L 260.01 -61.658992 
L 260.01 -61.442085 
L 260.01 -61.225179 
L 260.01 -61.008273 
L 260.01 -60.791366 
L 260.01 -60.57446 
L 260.01 -60.357553 
L 260.01 -60.140647 
L 260.01 -59.92374 
L 260.01 -59.706834 
L 260.01 -59.489927 
z
" style="stroke: #1a1a1a; stroke-width: 0.5"/>
    </defs>
    <g clip-path="url(#p9c36d2c3f0)">
     <use xlink:href="#m422410334c" x="0" y="144" style="fill: #94c360; stroke: #1a1a1a; stroke-width: 0.5"/>
    </g>
   </g>
   <g id="PolyCollection_8">
    <defs>
     <path id="m36411f2942" d="M 266.069518 -54.949949 
L 265.59 -54.949949 
L 265.59 -55.190467 
L 265.59 -55.430985 
L 265.59 -55.671503 
L 265.59 -55.912021 
L 265.59 -56.152539 
L 265.59 -56.393057 
L 265.59 -56.633575 
L 265.59 -56.874093 
L 265.59 -57.114611 
L 265.59 -57.355129 
L 265.59 -57.595647 
L 265.59 -57.836165 
L 265.59 -58.076683 
L 265.59 -58.317201 
L 265.59 -58.557719 
L 265.59 -58.798237 
L 265.59 -59.038754 
L 265.59 -59.279272 
L 265.59 -59.51979 
L 265.59 -59.760308 
L 265.59 -60.000826 
L 265.59 -60.241344 
L 265.59 -60.481862 
L 265.59 -60.72238 
L 265.59 -60.962898 
L 265.59 -61.203416 
L 265.59 -61.443934 
L 265.59 -61.684452 
L 265.59 -61.92497 
L 265.59 -62.165488 
L 265.59 -62.406006 
L 265.59 -62.646524 
L 265.59 -62.887042 
L 265.59 -63.12756 
L 265.59 -63.368077 
L 265.59 -63.608595 
L 265.59 -63.849113 
L 265.59 -64.089631 
L 265.59 -64.330149 
L 265.59 -64.570667 
L 265.59 -64.811185 
L 265.59 -65.051703 
L 265.59 -65.292221 
L 265.59 -65.532739 
L 265.59 -65.773257 
L 265.59 -66.013775 
L 265.59 -66.254293 
L 265.59 -66.494811 
L 265.59 -66.735329 
L 265.59 -66.975847 
L 265.59 -67.216365 
L 265.59 -67.456883 
L 265.59 -67.697401 
L 265.59 -67.937918 
L 265.59 -68.178436 
L 265.59 -68.418954 
L 265.59 -68.659472 
L 265.59 -68.89999 
L 265.59 -69.140508 
L 265.59 -69.381026 
L 265.59 -69.621544 
L 265.59 -69.862062 
L 265.59 -70.10258 
L 265.59 -70.343098 
L 265.59 -70.583616 
L 265.59 -70.824134 
L 265.59 -71.064652 
L 265.59 -71.30517 
L 265.59 -71.545688 
L 265.59 -71.786206 
L 265.59 -72.026724 
L 265.59 -72.267241 
L 265.59 -72.507759 
L 265.59 -72.748277 
L 265.59 -72.988795 
L 265.59 -73.229313 
L 265.59 -73.469831 
L 265.59 -73.710349 
L 265.59 -73.950867 
L 265.59 -74.191385 
L 265.59 -74.431903 
L 265.59 -74.672421 
L 265.59 -74.912939 
L 265.59 -75.153457 
L 265.59 -75.393975 
L 265.59 -75.634493 
L 265.59 -75.875011 
L 265.59 -76.115529 
L 265.59 -76.356047 
L 265.59 -76.596565 
L 265.59 -76.837082 
L 265.59 -77.0776 
L 265.59 -77.318118 
L 265.59 -77.558636 
L 265.59 -77.799154 
L 265.59 -78.039672 
L 265.59 -78.28019 
L 265.59 -78.520708 
L 265.59 -78.761226 
L 265.857781 -78.761226 
L 265.857781 -78.761226 
L 265.775957 -78.520708 
L 265.652275 -78.28019 
L 265.600057 -78.039672 
L 265.590783 -77.799154 
L 265.590029 -77.558636 
L 265.590001 -77.318118 
L 265.59 -77.0776 
L 265.59 -76.837082 
L 265.59 -76.596565 
L 265.59 -76.356047 
L 265.59 -76.115529 
L 265.59 -75.875011 
L 265.59 -75.634493 
L 265.59 -75.393975 
L 265.590008 -75.153457 
L 265.590325 -74.912939 
L 265.596015 -74.672421 
L 265.643822 -74.431903 
L 265.822693 -74.191385 
L 266.076102 -73.950867 
L 266.081205 -73.710349 
L 265.837427 -73.469831 
L 265.700559 -73.229313 
L 265.77034 -72.988795 
L 265.867714 -72.748277 
L 265.857441 -72.507759 
L 265.902065 -72.267241 
L 266.093673 -72.026724 
L 266.248469 -71.786206 
L 266.214748 -71.545688 
L 266.080771 -71.30517 
L 266.011392 -71.064652 
L 266.147071 -70.824134 
L 266.70423 -70.583616 
L 267.504672 -70.343098 
L 267.993273 -70.10258 
L 267.901524 -69.862062 
L 267.462929 -69.621544 
L 267.239826 -69.381026 
L 267.686019 -69.140508 
L 268.764447 -68.89999 
L 270.134903 -68.659472 
L 271.397339 -68.418954 
L 272.301036 -68.178436 
L 272.748382 -67.937918 
L 272.705233 -67.697401 
L 272.641053 -67.456883 
L 273.409525 -67.216365 
L 275.175727 -66.975847 
L 277.071312 -66.735329 
L 278.266352 -66.494811 
L 278.653378 -66.254293 
L 279.163463 -66.013775 
L 280.678154 -65.773257 
L 282.737972 -65.532739 
L 284.11568 -65.292221 
L 284.226499 -65.051703 
L 283.981387 -64.811185 
L 284.194743 -64.570667 
L 284.306974 -64.330149 
L 284.072196 -64.089631 
L 284.088564 -63.849113 
L 285.322897 -63.608595 
L 287.328211 -63.368077 
L 287.91 -63.12756 
L 286.231604 -62.887042 
L 283.476269 -62.646524 
L 281.137551 -62.406006 
L 279.826575 -62.165488 
L 278.892019 -61.92497 
L 277.522006 -61.684452 
L 275.902573 -61.443934 
L 274.742 -61.203416 
L 274.038438 -60.962898 
L 272.769924 -60.72238 
L 271.168061 -60.481862 
L 270.18502 -60.241344 
L 269.605271 -60.000826 
L 269.333921 -59.760308 
L 269.376127 -59.51979 
L 269.146104 -59.279272 
L 268.496163 -59.038754 
L 267.687111 -58.798237 
L 267.100657 -58.557719 
L 267.117206 -58.317201 
L 267.50166 -58.076683 
L 267.477324 -57.836165 
L 266.996995 -57.595647 
L 266.567426 -57.355129 
L 266.276481 -57.114611 
L 266.09687 -56.874093 
L 266.16177 -56.633575 
L 266.388219 -56.393057 
L 266.457023 -56.152539 
L 266.371613 -55.912021 
L 266.220457 -55.671503 
L 266.086509 -55.430985 
L 266.108233 -55.190467 
L 266.069518 -54.949949 
z
" style="stroke: #1a1a1a; stroke-width: 0.5"/>
    </defs>
    <g clip-path="url(#p9c36d2c3f0)">
     <use xlink:href="#m36411f2942" x="0" y="144" style="fill: #935851; stroke: #1a1a1a; stroke-width: 0.5"/>
    </g>
   </g>
   <g id="PolyCollection_9">
    <defs>
     <path id="m8800d8e56b" d="M 315.81 -46.074471 
L 315.222902 -46.074471 
L 315.149271 -46.413119 
L 315.225901 -46.751768 
L 315.354563 -47.090417 
L 315.40191 -47.429066 
L 315.359757 -47.767714 
L 315.318615 -48.106363 
L 315.286203 -48.445012 
L 315.212941 -48.783661 
L 315.129484 -49.122309 
L 315.072587 -49.460958 
L 314.938104 -49.799607 
L 314.560232 -50.138256 
L 314.01736 -50.476904 
L 313.672458 -50.815553 
L 313.767147 -51.154202 
L 314.223934 -51.49285 
L 314.776824 -51.831499 
L 315.062957 -52.170148 
L 314.792655 -52.508797 
L 313.981329 -52.847445 
L 312.914796 -53.186094 
L 311.889303 -53.524743 
L 311.162023 -53.863392 
L 310.978335 -54.20204 
L 311.32214 -54.540689 
L 311.833155 -54.879338 
L 312.097595 -55.217986 
L 311.803201 -55.556635 
L 310.776495 -55.895284 
L 309.256336 -56.233933 
L 307.887088 -56.572581 
L 307.177518 -56.91123 
L 307.113619 -57.249879 
L 307.262643 -57.588528 
L 307.151775 -57.927176 
L 306.543321 -58.265825 
L 305.618737 -58.604474 
L 304.894265 -58.943122 
L 304.486263 -59.281771 
L 303.854728 -59.62042 
L 302.760993 -59.959069 
L 301.756001 -60.297717 
L 301.278274 -60.636366 
L 301.072339 -60.975015 
L 300.686817 -61.313664 
L 299.758551 -61.652312 
L 298.147559 -61.990961 
L 296.340293 -62.32961 
L 295.110833 -62.668258 
L 294.595871 -63.006907 
L 294.237775 -63.345556 
L 293.728511 -63.684205 
L 293.49 -64.022853 
L 294.034614 -64.361502 
L 295.177269 -64.700151 
L 296.298149 -65.0388 
L 297.103777 -65.377448 
L 297.566309 -65.716097 
L 297.780383 -66.054746 
L 298.103144 -66.393395 
L 298.612905 -66.732043 
L 298.926693 -67.070692 
L 298.919524 -67.409341 
L 298.980213 -67.747989 
L 299.792251 -68.086638 
L 301.722665 -68.425287 
L 304.207372 -68.763936 
L 306.326587 -69.102584 
L 307.636968 -69.441233 
L 308.125268 -69.779882 
L 308.111823 -70.118531 
L 308.231545 -70.457179 
L 308.829636 -70.795828 
L 309.575876 -71.134477 
L 310.149469 -71.473125 
L 310.764717 -71.811774 
L 311.59334 -72.150423 
L 312.377166 -72.489072 
L 312.87842 -72.82772 
L 313.100445 -73.166369 
L 313.130356 -73.505018 
L 313.176335 -73.843667 
L 313.438147 -74.182315 
L 313.798991 -74.520964 
L 313.987164 -74.859613 
L 313.994379 -75.198261 
L 314.067629 -75.53691 
L 314.351464 -75.875559 
L 314.739028 -76.214208 
L 315.080279 -76.552856 
L 315.355693 -76.891505 
L 315.579571 -77.230154 
L 315.724244 -77.568803 
L 315.783622 -77.907451 
L 315.776628 -78.2461 
L 315.684851 -78.584749 
L 315.463303 -78.923397 
L 315.173187 -79.262046 
L 315.036857 -79.600695 
L 315.81 -79.600695 
L 315.81 -79.600695 
L 315.81 -79.262046 
L 315.81 -78.923397 
L 315.81 -78.584749 
L 315.81 -78.2461 
L 315.81 -77.907451 
L 315.81 -77.568803 
L 315.81 -77.230154 
L 315.81 -76.891505 
L 315.81 -76.552856 
L 315.81 -76.214208 
L 315.81 -75.875559 
L 315.81 -75.53691 
L 315.81 -75.198261 
L 315.81 -74.859613 
L 315.81 -74.520964 
L 315.81 -74.182315 
L 315.81 -73.843667 
L 315.81 -73.505018 
L 315.81 -73.166369 
L 315.81 -72.82772 
L 315.81 -72.489072 
L 315.81 -72.150423 
L 315.81 -71.811774 
L 315.81 -71.473125 
L 315.81 -71.134477 
L 315.81 -70.795828 
L 315.81 -70.457179 
L 315.81 -70.118531 
L 315.81 -69.779882 
L 315.81 -69.441233 
L 315.81 -69.102584 
L 315.81 -68.763936 
L 315.81 -68.425287 
L 315.81 -68.086638 
L 315.81 -67.747989 
L 315.81 -67.409341 
L 315.81 -67.070692 
L 315.81 -66.732043 
L 315.81 -66.393395 
L 315.81 -66.054746 
L 315.81 -65.716097 
L 315.81 -65.377448 
L 315.81 -65.0388 
L 315.81 -64.700151 
L 315.81 -64.361502 
L 315.81 -64.022853 
L 315.81 -63.684205 
L 315.81 -63.345556 
L 315.81 -63.006907 
L 315.81 -62.668258 
L 315.81 -62.32961 
L 315.81 -61.990961 
L 315.81 -61.652312 
L 315.81 -61.313664 
L 315.81 -60.975015 
L 315.81 -60.636366 
L 315.81 -60.297717 
L 315.81 -59.959069 
L 315.81 -59.62042 
L 315.81 -59.281771 
L 315.81 -58.943122 
L 315.81 -58.604474 
L 315.81 -58.265825 
L 315.81 -57.927176 
L 315.81 -57.588528 
L 315.81 -57.249879 
L 315.81 -56.91123 
L 315.81 -56.572581 
L 315.81 -56.233933 
L 315.81 -55.895284 
L 315.81 -55.556635 
L 315.81 -55.217986 
L 315.81 -54.879338 
L 315.81 -54.540689 
L 315.81 -54.20204 
L 315.81 -53.863392 
L 315.81 -53.524743 
L 315.81 -53.186094 
L 315.81 -52.847445 
L 315.81 -52.508797 
L 315.81 -52.170148 
L 315.81 -51.831499 
L 315.81 -51.49285 
L 315.81 -51.154202 
L 315.81 -50.815553 
L 315.81 -50.476904 
L 315.81 -50.138256 
L 315.81 -49.799607 
L 315.81 -49.460958 
L 315.81 -49.122309 
L 315.81 -48.783661 
L 315.81 -48.445012 
L 315.81 -48.106363 
L 315.81 -47.767714 
L 315.81 -47.429066 
L 315.81 -47.090417 
L 315.81 -46.751768 
L 315.81 -46.413119 
L 315.81 -46.074471 
z
" style="stroke: #1a1a1a; stroke-width: 0.5"/>
    </defs>
    <g clip-path="url(#p9c36d2c3f0)">
     <use xlink:href="#m8800d8e56b" x="0" y="144" style="fill: #137683; stroke: #1a1a1a; stroke-width: 0.5"/>
    </g>
   </g>
   <g id="PolyCollection_10">
    <defs>
     <path id="m948cec2a5d" d="M 321.656183 -34.430466 
L 321.39 -34.430466 
L 321.39 -34.875513 
L 321.39 -35.32056 
L 321.39 -35.765607 
L 321.39 -36.210654 
L 321.39 -36.655701 
L 321.39 -37.100748 
L 321.39 -37.545795 
L 321.39 -37.990841 
L 321.39 -38.435888 
L 321.39 -38.880935 
L 321.39 -39.325982 
L 321.39 -39.771029 
L 321.39 -40.216076 
L 321.39 -40.661123 
L 321.39 -41.10617 
L 321.39 -41.551217 
L 321.39 -41.996264 
L 321.39 -42.441311 
L 321.39 -42.886358 
L 321.39 -43.331405 
L 321.39 -43.776452 
L 321.39 -44.221499 
L 321.39 -44.666546 
L 321.39 -45.111593 
L 321.39 -45.55664 
L 321.39 -46.001687 
L 321.39 -46.446734 
L 321.39 -46.891781 
L 321.39 -47.336828 
L 321.39 -47.781875 
L 321.39 -48.226922 
L 321.39 -48.671969 
L 321.39 -49.117016 
L 321.39 -49.562063 
L 321.39 -50.00711 
L 321.39 -50.452157 
L 321.39 -50.897204 
L 321.39 -51.34225 
L 321.39 -51.787297 
L 321.39 -52.232344 
L 321.39 -52.677391 
L 321.39 -53.122438 
L 321.39 -53.567485 
L 321.39 -54.012532 
L 321.39 -54.457579 
L 321.39 -54.902626 
L 321.39 -55.347673 
L 321.39 -55.79272 
L 321.39 -56.237767 
L 321.39 -56.682814 
L 321.39 -57.127861 
L 321.39 -57.572908 
L 321.39 -58.017955 
L 321.39 -58.463002 
L 321.39 -58.908049 
L 321.39 -59.353096 
L 321.39 -59.798143 
L 321.39 -60.24319 
L 321.39 -60.688237 
L 321.39 -61.133284 
L 321.39 -61.578331 
L 321.39 -62.023378 
L 321.39 -62.468425 
L 321.39 -62.913472 
L 321.39 -63.358519 
L 321.39 -63.803566 
L 321.39 -64.248613 
L 321.39 -64.693659 
L 321.39 -65.138706 
L 321.39 -65.583753 
L 321.39 -66.0288 
L 321.39 -66.473847 
L 321.39 -66.918894 
L 321.39 -67.363941 
L 321.39 -67.808988 
L 321.39 -68.254035 
L 321.39 -68.699082 
L 321.39 -69.144129 
L 321.39 -69.589176 
L 321.39 -70.034223 
L 321.39 -70.47927 
L 321.39 -70.924317 
L 321.39 -71.369364 
L 321.39 -71.814411 
L 321.39 -72.259458 
L 321.39 -72.704505 
L 321.39 -73.149552 
L 321.39 -73.594599 
L 321.39 -74.039646 
L 321.39 -74.484693 
L 321.39 -74.92974 
L 321.39 -75.374787 
L 321.39 -75.819834 
L 321.39 -76.264881 
L 321.39 -76.709928 
L 321.39 -77.154975 
L 321.39 -77.600021 
L 321.39 -78.045068 
L 321.39 -78.490115 
L 322.370952 -78.490115 
L 322.370952 -78.490115 
L 322.791352 -78.045068 
L 323.193254 -77.600021 
L 323.517123 -77.154975 
L 323.851538 -76.709928 
L 324.46033 -76.264881 
L 325.477999 -75.819834 
L 326.630629 -75.374787 
L 327.461409 -74.92974 
L 327.851 -74.484693 
L 328.050849 -74.039646 
L 328.236574 -73.594599 
L 328.423405 -73.149552 
L 328.736612 -72.704505 
L 329.386752 -72.259458 
L 330.435889 -71.814411 
L 331.72965 -71.369364 
L 332.946689 -70.924317 
L 333.723731 -70.47927 
L 333.907367 -70.034223 
L 333.704818 -69.589176 
L 333.522368 -69.144129 
L 333.579519 -68.699082 
L 333.771485 -68.254035 
L 334.09089 -67.808988 
L 334.825631 -67.363941 
L 336.056601 -66.918894 
L 337.436002 -66.473847 
L 338.664977 -66.0288 
L 339.74464 -65.583753 
L 340.717729 -65.138706 
L 341.620806 -64.693659 
L 342.570185 -64.248613 
L 343.41792 -63.803566 
L 343.71 -63.358519 
L 343.429779 -62.913472 
L 343.118788 -62.468425 
L 342.928924 -62.023378 
L 342.24999 -61.578331 
L 340.536308 -61.133284 
L 338.120841 -60.688237 
L 335.94556 -60.24319 
L 334.490234 -59.798143 
L 333.378346 -59.353096 
L 332.285337 -58.908049 
L 331.531543 -58.463002 
L 331.327734 -58.017955 
L 331.203738 -57.572908 
L 330.732763 -57.127861 
L 330.236634 -56.682814 
L 330.233047 -56.237767 
L 330.552132 -55.79272 
L 330.460862 -55.347673 
L 329.520691 -54.902626 
L 328.063342 -54.457579 
L 326.821561 -54.012532 
L 326.230757 -53.567485 
L 326.198959 -53.122438 
L 326.410864 -52.677391 
L 326.621665 -52.232344 
L 326.70248 -51.787297 
L 326.566386 -51.34225 
L 326.138273 -50.897204 
L 325.463032 -50.452157 
L 324.770652 -50.00711 
L 324.301412 -49.562063 
L 324.137039 -49.117016 
L 324.241494 -48.671969 
L 324.484582 -48.226922 
L 324.617994 -47.781875 
L 324.427065 -47.336828 
L 323.959066 -46.891781 
L 323.493784 -46.446734 
L 323.213982 -46.001687 
L 323.046839 -45.55664 
L 322.904355 -45.111593 
L 322.827434 -44.666546 
L 322.836807 -44.221499 
L 322.881848 -43.776452 
L 322.91652 -43.331405 
L 322.866888 -42.886358 
L 322.634873 -42.441311 
L 322.246601 -41.996264 
L 321.880224 -41.551217 
L 321.694396 -41.10617 
L 321.703157 -40.661123 
L 321.820367 -40.216076 
L 321.974238 -39.771029 
L 322.147314 -39.325982 
L 322.302412 -38.880935 
L 322.332118 -38.435888 
L 322.160632 -37.990841 
L 321.864911 -37.545795 
L 321.604815 -37.100748 
L 321.463038 -36.655701 
L 321.422096 -36.210654 
L 321.44713 -35.765607 
L 321.521787 -35.32056 
L 321.613173 -34.875513 
L 321.656183 -34.430466 
z
" style="stroke: #1a1a1a; stroke-width: 0.5"/>
    </defs>
    <g clip-path="url(#p9c36d2c3f0)">
     <use xlink:href="#m948cec2a5d" x="0" y="144" style="fill: #e237ae; stroke: #1a1a1a; stroke-width: 0.5"/>
    </g>
   </g>
   <g id="PolyCollection_11">
    <defs>
     <path id="m4a94b305a7" d="M 371.61 -54.50533 
L 371.335611 -54.50533 
L 371.392049 -54.712085 
L 371.50077 -54.91884 
L 371.575431 -55.125594 
L 371.602614 -55.332349 
L 371.603998 -55.539104 
L 371.574881 -55.745858 
L 371.450716 -55.952613 
L 371.122831 -56.159368 
L 370.59153 -56.366123 
L 370.103591 -56.572877 
L 369.893717 -56.779632 
L 369.855244 -56.986387 
L 369.789272 -57.193142 
L 369.716581 -57.399896 
L 369.764337 -57.606651 
L 370.003372 -57.813406 
L 370.243353 -58.020161 
L 370.060712 -58.226915 
L 369.346137 -58.43367 
L 368.454043 -58.640425 
L 367.623175 -58.84718 
L 366.763348 -59.053934 
L 365.874469 -59.260689 
L 365.227036 -59.467444 
L 365.062378 -59.674198 
L 365.216882 -59.880953 
L 365.066076 -60.087708 
L 364.041951 -60.294463 
L 362.272123 -60.501217 
L 360.428631 -60.707972 
L 359.068567 -60.914727 
L 358.378708 -61.121482 
L 358.005404 -61.328236 
L 357.295159 -61.534991 
L 356.055227 -61.741746 
L 354.533533 -61.948501 
L 353.106473 -62.155255 
L 352.061836 -62.36201 
L 351.093908 -62.568765 
L 349.866848 -62.77552 
L 349.29 -62.982274 
L 350.629473 -63.189029 
L 353.126591 -63.395784 
L 354.804474 -63.602538 
L 355.325617 -63.809293 
L 355.799615 -64.016048 
L 356.890009 -64.222803 
L 358.293694 -64.429557 
L 359.211587 -64.636312 
L 359.143822 -64.843067 
L 358.389232 -65.049822 
L 357.622959 -65.256576 
L 357.44137 -65.463331 
L 358.056192 -65.670086 
L 358.945082 -65.876841 
L 359.463732 -66.083595 
L 359.779744 -66.29035 
L 360.466593 -66.497105 
L 361.681258 -66.703859 
L 363.235406 -66.910614 
L 364.86102 -67.117369 
L 366.106355 -67.324124 
L 366.560582 -67.530878 
L 366.377777 -67.737633 
L 366.15597 -67.944388 
L 366.354124 -68.151143 
L 366.963509 -68.357897 
L 367.640753 -68.564652 
L 368.082859 -68.771407 
L 368.405726 -68.978162 
L 368.928685 -69.184916 
L 369.507859 -69.391671 
L 369.705062 -69.598426 
L 369.54837 -69.805181 
L 369.515466 -70.011935 
L 369.862002 -70.21869 
L 370.395898 -70.425445 
L 370.839414 -70.632199 
L 371.100128 -70.838954 
L 371.193082 -71.045709 
L 371.058576 -71.252464 
L 370.657554 -71.459218 
L 370.200118 -71.665973 
L 370.004063 -71.872728 
L 370.137242 -72.079483 
L 370.38159 -72.286237 
L 370.553306 -72.492992 
L 370.724407 -72.699747 
L 371.008094 -72.906502 
L 371.29453 -73.113256 
L 371.38271 -73.320011 
L 371.203963 -73.526766 
L 370.908622 -73.73352 
L 370.803528 -73.940275 
L 371.009728 -74.14703 
L 371.295959 -74.353785 
L 371.41661 -74.560539 
L 371.375856 -74.767294 
L 371.333621 -74.974049 
L 371.61 -74.974049 
L 371.61 -74.974049 
L 371.61 -74.767294 
L 371.61 -74.560539 
L 371.61 -74.353785 
L 371.61 -74.14703 
L 371.61 -73.940275 
L 371.61 -73.73352 
L 371.61 -73.526766 
L 371.61 -73.320011 
L 371.61 -73.113256 
L 371.61 -72.906502 
L 371.61 -72.699747 
L 371.61 -72.492992 
L 371.61 -72.286237 
L 371.61 -72.079483 
L 371.61 -71.872728 
L 371.61 -71.665973 
L 371.61 -71.459218 
L 371.61 -71.252464 
L 371.61 -71.045709 
L 371.61 -70.838954 
L 371.61 -70.632199 
L 371.61 -70.425445 
L 371.61 -70.21869 
L 371.61 -70.011935 
L 371.61 -69.805181 
L 371.61 -69.598426 
L 371.61 -69.391671 
L 371.61 -69.184916 
L 371.61 -68.978162 
L 371.61 -68.771407 
L 371.61 -68.564652 
L 371.61 -68.357897 
L 371.61 -68.151143 
L 371.61 -67.944388 
L 371.61 -67.737633 
L 371.61 -67.530878 
L 371.61 -67.324124 
L 371.61 -67.117369 
L 371.61 -66.910614 
L 371.61 -66.703859 
L 371.61 -66.497105 
L 371.61 -66.29035 
L 371.61 -66.083595 
L 371.61 -65.876841 
L 371.61 -65.670086 
L 371.61 -65.463331 
L 371.61 -65.256576 
L 371.61 -65.049822 
L 371.61 -64.843067 
L 371.61 -64.636312 
L 371.61 -64.429557 
L 371.61 -64.222803 
L 371.61 -64.016048 
L 371.61 -63.809293 
L 371.61 -63.602538 
L 371.61 -63.395784 
L 371.61 -63.189029 
L 371.61 -62.982274 
L 371.61 -62.77552 
L 371.61 -62.568765 
L 371.61 -62.36201 
L 371.61 -62.155255 
L 371.61 -61.948501 
L 371.61 -61.741746 
L 371.61 -61.534991 
L 371.61 -61.328236 
L 371.61 -61.121482 
L 371.61 -60.914727 
L 371.61 -60.707972 
L 371.61 -60.501217 
L 371.61 -60.294463 
L 371.61 -60.087708 
L 371.61 -59.880953 
L 371.61 -59.674198 
L 371.61 -59.467444 
L 371.61 -59.260689 
L 371.61 -59.053934 
L 371.61 -58.84718 
L 371.61 -58.640425 
L 371.61 -58.43367 
L 371.61 -58.226915 
L 371.61 -58.020161 
L 371.61 -57.813406 
L 371.61 -57.606651 
L 371.61 -57.399896 
L 371.61 -57.193142 
L 371.61 -56.986387 
L 371.61 -56.779632 
L 371.61 -56.572877 
L 371.61 -56.366123 
L 371.61 -56.159368 
L 371.61 -55.952613 
L 371.61 -55.745858 
L 371.61 -55.539104 
L 371.61 -55.332349 
L 371.61 -55.125594 
L 371.61 -54.91884 
L 371.61 -54.712085 
L 371.61 -54.50533 
z
" style="stroke: #1a1a1a; stroke-width: 0.5"/>
    </defs>
    <g clip-path="url(#p9c36d2c3f0)">
     <use xlink:href="#m4a94b305a7" x="0" y="144" style="fill: #20df20; stroke: #1a1a1a; stroke-width: 0.5"/>
    </g>
   </g>
   <g id="PolyCollection_12">
    <defs>
     <path id="m35c833b19b" d="M 377.465219 -51.106221 
L 377.19 -51.106221 
L 377.19 -51.418611 
L 377.19 -51.731001 
L 377.19 -52.043392 
L 377.19 -52.355782 
L 377.19 -52.668172 
L 377.19 -52.980562 
L 377.19 -53.292953 
L 377.19 -53.605343 
L 377.19 -53.917733 
L 377.19 -54.230123 
L 377.19 -54.542514 
L 377.19 -54.854904 
L 377.19 -55.167294 
L 377.19 -55.479684 
L 377.19 -55.792075 
L 377.19 -56.104465 
L 377.19 -56.416855 
L 377.19 -56.729245 
L 377.19 -57.041636 
L 377.19 -57.354026 
L 377.19 -57.666416 
L 377.19 -57.978807 
L 377.19 -58.291197 
L 377.19 -58.603587 
L 377.19 -58.915977 
L 377.19 -59.228368 
L 377.19 -59.540758 
L 377.19 -59.853148 
L 377.19 -60.165538 
L 377.19 -60.477929 
L 377.19 -60.790319 
L 377.19 -61.102709 
L 377.19 -61.415099 
L 377.19 -61.72749 
L 377.19 -62.03988 
L 377.19 -62.35227 
L 377.19 -62.66466 
L 377.19 -62.977051 
L 377.19 -63.289441 
L 377.19 -63.601831 
L 377.19 -63.914222 
L 377.19 -64.226612 
L 377.19 -64.539002 
L 377.19 -64.851392 
L 377.19 -65.163783 
L 377.19 -65.476173 
L 377.19 -65.788563 
L 377.19 -66.100953 
L 377.19 -66.413344 
L 377.19 -66.725734 
L 377.19 -67.038124 
L 377.19 -67.350514 
L 377.19 -67.662905 
L 377.19 -67.975295 
L 377.19 -68.287685 
L 377.19 -68.600075 
L 377.19 -68.912466 
L 377.19 -69.224856 
L 377.19 -69.537246 
L 377.19 -69.849637 
L 377.19 -70.162027 
L 377.19 -70.474417 
L 377.19 -70.786807 
L 377.19 -71.099198 
L 377.19 -71.411588 
L 377.19 -71.723978 
L 377.19 -72.036368 
L 377.19 -72.348759 
L 377.19 -72.661149 
L 377.19 -72.973539 
L 377.19 -73.285929 
L 377.19 -73.59832 
L 377.19 -73.91071 
L 377.19 -74.2231 
L 377.19 -74.53549 
L 377.19 -74.847881 
L 377.19 -75.160271 
L 377.19 -75.472661 
L 377.19 -75.785052 
L 377.19 -76.097442 
L 377.19 -76.409832 
L 377.19 -76.722222 
L 377.19 -77.034613 
L 377.19 -77.347003 
L 377.19 -77.659393 
L 377.19 -77.971783 
L 377.19 -78.284174 
L 377.19 -78.596564 
L 377.19 -78.908954 
L 377.19 -79.221344 
L 377.19 -79.533735 
L 377.19 -79.846125 
L 377.19 -80.158515 
L 377.19 -80.470906 
L 377.19 -80.783296 
L 377.19 -81.095686 
L 377.19 -81.408076 
L 377.19 -81.720467 
L 377.19 -82.032857 
L 378.144332 -82.032857 
L 378.144332 -82.032857 
L 378.444899 -81.720467 
L 378.651815 -81.408076 
L 378.747285 -81.095686 
L 378.759065 -80.783296 
L 378.731621 -80.470906 
L 378.667667 -80.158515 
L 378.568838 -79.846125 
L 378.507047 -79.533735 
L 378.542351 -79.221344 
L 378.613243 -78.908954 
L 378.599561 -78.596564 
L 378.453291 -78.284174 
L 378.242988 -77.971783 
L 378.105579 -77.659393 
L 378.150561 -77.347003 
L 378.386226 -77.034613 
L 378.720189 -76.722222 
L 379.015762 -76.409832 
L 379.156466 -76.097442 
L 379.096333 -75.785052 
L 378.877291 -75.472661 
L 378.617823 -75.160271 
L 378.489919 -74.847881 
L 378.644051 -74.53549 
L 379.113258 -74.2231 
L 379.801924 -73.91071 
L 380.524844 -73.59832 
L 381.040234 -73.285929 
L 381.164745 -72.973539 
L 380.96513 -72.661149 
L 380.765679 -72.348759 
L 380.828101 -72.036368 
L 381.07492 -71.723978 
L 381.265819 -71.411588 
L 381.354402 -71.099198 
L 381.513607 -70.786807 
L 381.899575 -70.474417 
L 382.506833 -70.162027 
L 383.202497 -69.849637 
L 383.885251 -69.537246 
L 384.619428 -69.224856 
L 385.553991 -68.912466 
L 386.674898 -68.600075 
L 387.634361 -68.287685 
L 387.952851 -67.975295 
L 387.564609 -67.662905 
L 387.005035 -67.350514 
L 386.847658 -67.038124 
L 387.153029 -66.725734 
L 387.638835 -66.413344 
L 388.145518 -66.100953 
L 388.749014 -65.788563 
L 389.572024 -65.476173 
L 390.61811 -65.163783 
L 391.794214 -64.851392 
L 393.079972 -64.539002 
L 394.536394 -64.226612 
L 396.059783 -63.914222 
L 397.279236 -63.601831 
L 397.891579 -63.289441 
L 398.109614 -62.977051 
L 398.493564 -62.66466 
L 399.157994 -62.35227 
L 399.51 -62.03988 
L 399.022864 -61.72749 
L 397.92331 -61.415099 
L 396.886656 -61.102709 
L 396.295172 -60.790319 
L 395.999741 -60.477929 
L 395.687222 -60.165538 
L 395.227036 -59.853148 
L 394.609477 -59.540758 
L 393.821163 -59.228368 
L 392.917404 -58.915977 
L 392.027238 -58.603587 
L 391.230095 -58.291197 
L 390.487807 -57.978807 
L 389.686582 -57.666416 
L 388.746362 -57.354026 
L 387.652906 -57.041636 
L 386.408797 -56.729245 
L 385.054479 -56.416855 
L 383.712103 -56.104465 
L 382.5555 -55.792075 
L 381.737961 -55.479684 
L 381.29968 -55.167294 
L 381.084826 -54.854904 
L 380.804739 -54.542514 
L 380.288154 -54.230123 
L 379.615812 -53.917733 
L 378.96818 -53.605343 
L 378.466514 -53.292953 
L 378.135033 -52.980562 
L 377.900764 -52.668172 
L 377.685256 -52.355782 
L 377.508848 -52.043392 
L 377.434527 -51.731001 
L 377.449349 -51.418611 
L 377.465219 -51.106221 
z
" style="stroke: #1a1a1a; stroke-width: 0.5"/>
    </defs>
    <g clip-path="url(#p9c36d2c3f0)">
     <use xlink:href="#m35c833b19b" x="0" y="144" style="fill: #0b4d0b; stroke: #1a1a1a; stroke-width: 0.5"/>
    </g>
   </g>
   <g id="PolyCollection_13">
    <defs>
     <path id="m44add35135" d="M 427.41 -56.468851 
L 426.513933 -56.468851 
L 426.210385 -56.578664 
L 425.907914 -56.688478 
L 425.601407 -56.798291 
L 425.319661 -56.908105 
L 425.068199 -57.017918 
L 424.799772 -57.127732 
L 424.490161 -57.237546 
L 424.191468 -57.347359 
L 424.000269 -57.457173 
L 423.994429 -57.566986 
L 424.146752 -57.6768 
L 424.271524 -57.786613 
L 424.104918 -57.896427 
L 423.485183 -58.006241 
L 422.517236 -58.116054 
L 421.583661 -58.225868 
L 421.082985 -58.335681 
L 421.082979 -58.445495 
L 421.277598 -58.555308 
L 421.262435 -58.665122 
L 420.796135 -58.774935 
L 419.868696 -58.884749 
L 418.643791 -58.994563 
L 417.393184 -59.104376 
L 416.438539 -59.21419 
L 416.013646 -59.324003 
L 416.086205 -59.433817 
L 416.376688 -59.54363 
L 416.616894 -59.653444 
L 416.698017 -59.763258 
L 416.542001 -59.873071 
L 416.028923 -59.982885 
L 415.17498 -60.092698 
L 414.274255 -60.202512 
L 413.712479 -60.312325 
L 413.597875 -60.422139 
L 413.687905 -60.531953 
L 413.736829 -60.641766 
L 413.740409 -60.75158 
L 413.742286 -60.861393 
L 413.613473 -60.971207 
L 413.257551 -61.08102 
L 412.920296 -61.190834 
L 412.955767 -61.300647 
L 413.268719 -61.410461 
L 413.313036 -61.520275 
L 412.707611 -61.630088 
L 411.641653 -61.739902 
L 410.653304 -61.849715 
L 410.134716 -61.959529 
L 410.036178 -62.069342 
L 409.964813 -62.179156 
L 409.569684 -62.28897 
L 408.845316 -62.398783 
L 408.017384 -62.508597 
L 407.195736 -62.61841 
L 406.334787 -62.728224 
L 405.523447 -62.838037 
L 405.09 -62.947851 
L 405.371204 -63.057665 
L 406.429749 -63.167478 
L 407.919662 -63.277292 
L 409.239934 -63.387105 
L 410.000324 -63.496919 
L 410.355384 -63.606732 
L 410.715369 -63.716546 
L 411.198059 -63.826359 
L 411.651609 -63.936173 
L 412.152618 -64.045987 
L 413.077608 -64.1558 
L 414.582941 -64.265614 
L 416.322889 -64.375427 
L 417.844569 -64.485241 
L 419.031479 -64.595054 
L 420.003154 -64.704868 
L 420.83639 -64.814682 
L 421.587549 -64.924495 
L 422.38612 -65.034309 
L 423.31841 -65.144122 
L 424.297358 -65.253936 
L 425.116674 -65.363749 
L 425.602469 -65.473563 
L 425.737646 -65.583377 
L 425.694916 -65.69319 
L 425.713935 -65.803004 
L 425.890793 -65.912817 
L 426.113743 -66.022631 
L 426.227188 -66.132444 
L 426.207611 -66.242258 
L 426.144443 -66.352072 
L 426.103036 -66.461885 
L 426.084465 -66.571699 
L 426.104428 -66.681512 
L 426.217369 -66.791326 
L 426.435646 -66.901139 
L 426.686906 -67.010953 
L 426.879745 -67.120766 
L 426.987684 -67.23058 
L 427.057312 -67.340394 
L 427.41 -67.340394 
L 427.41 -67.340394 
L 427.41 -67.23058 
L 427.41 -67.120766 
L 427.41 -67.010953 
L 427.41 -66.901139 
L 427.41 -66.791326 
L 427.41 -66.681512 
L 427.41 -66.571699 
L 427.41 -66.461885 
L 427.41 -66.352072 
L 427.41 -66.242258 
L 427.41 -66.132444 
L 427.41 -66.022631 
L 427.41 -65.912817 
L 427.41 -65.803004 
L 427.41 -65.69319 
L 427.41 -65.583377 
L 427.41 -65.473563 
L 427.41 -65.363749 
L 427.41 -65.253936 
L 427.41 -65.144122 
L 427.41 -65.034309 
L 427.41 -64.924495 
L 427.41 -64.814682 
L 427.41 -64.704868 
L 427.41 -64.595054 
L 427.41 -64.485241 
L 427.41 -64.375427 
L 427.41 -64.265614 
L 427.41 -64.1558 
L 427.41 -64.045987 
L 427.41 -63.936173 
L 427.41 -63.826359 
L 427.41 -63.716546 
L 427.41 -63.606732 
L 427.41 -63.496919 
L 427.41 -63.387105 
L 427.41 -63.277292 
L 427.41 -63.167478 
L 427.41 -63.057665 
L 427.41 -62.947851 
L 427.41 -62.838037 
L 427.41 -62.728224 
L 427.41 -62.61841 
L 427.41 -62.508597 
L 427.41 -62.398783 
L 427.41 -62.28897 
L 427.41 -62.179156 
L 427.41 -62.069342 
L 427.41 -61.959529 
L 427.41 -61.849715 
L 427.41 -61.739902 
L 427.41 -61.630088 
L 427.41 -61.520275 
L 427.41 -61.410461 
L 427.41 -61.300647 
L 427.41 -61.190834 
L 427.41 -61.08102 
L 427.41 -60.971207 
L 427.41 -60.861393 
L 427.41 -60.75158 
L 427.41 -60.641766 
L 427.41 -60.531953 
L 427.41 -60.422139 
L 427.41 -60.312325 
L 427.41 -60.202512 
L 427.41 -60.092698 
L 427.41 -59.982885 
L 427.41 -59.873071 
L 427.41 -59.763258 
L 427.41 -59.653444 
L 427.41 -59.54363 
L 427.41 -59.433817 
L 427.41 -59.324003 
L 427.41 -59.21419 
L 427.41 -59.104376 
L 427.41 -58.994563 
L 427.41 -58.884749 
L 427.41 -58.774935 
L 427.41 -58.665122 
L 427.41 -58.555308 
L 427.41 -58.445495 
L 427.41 -58.335681 
L 427.41 -58.225868 
L 427.41 -58.116054 
L 427.41 -58.006241 
L 427.41 -57.896427 
L 427.41 -57.786613 
L 427.41 -57.6768 
L 427.41 -57.566986 
L 427.41 -57.457173 
L 427.41 -57.347359 
L 427.41 -57.237546 
L 427.41 -57.127732 
L 427.41 -57.017918 
L 427.41 -56.908105 
L 427.41 -56.798291 
L 427.41 -56.688478 
L 427.41 -56.578664 
L 427.41 -56.468851 
z
" style="stroke: #1a1a1a; stroke-width: 0.5"/>
    </defs>
    <g clip-path="url(#p9c36d2c3f0)">
     <use xlink:href="#m44add35135" x="0" y="144" style="fill: #20dfb1; stroke: #1a1a1a; stroke-width: 0.5"/>
    </g>
   </g>
   <g id="PolyCollection_14">
    <defs>
     <path id="m22c6815485" d="M 433.170699 -20.88 
L 432.99 -20.88 
L 432.99 -21.512238 
L 432.99 -22.144476 
L 432.99 -22.776714 
L 432.99 -23.408952 
L 432.99 -24.04119 
L 432.99 -24.673428 
L 432.99 -25.305666 
L 432.99 -25.937904 
L 432.99 -26.570142 
L 432.99 -27.20238 
L 432.99 -27.834618 
L 432.99 -28.466856 
L 432.99 -29.099094 
L 432.99 -29.731332 
L 432.99 -30.36357 
L 432.99 -30.995808 
L 432.99 -31.628046 
L 432.99 -32.260284 
L 432.99 -32.892522 
L 432.99 -33.52476 
L 432.99 -34.156998 
L 432.99 -34.789236 
L 432.99 -35.421474 
L 432.99 -36.053712 
L 432.99 -36.68595 
L 432.99 -37.318188 
L 432.99 -37.950426 
L 432.99 -38.582664 
L 432.99 -39.214902 
L 432.99 -39.84714 
L 432.99 -40.479378 
L 432.99 -41.111616 
L 432.99 -41.743854 
L 432.99 -42.376092 
L 432.99 -43.00833 
L 432.99 -43.640568 
L 432.99 -44.272806 
L 432.99 -44.905044 
L 432.99 -45.537282 
L 432.99 -46.16952 
L 432.99 -46.801758 
L 432.99 -47.433996 
L 432.99 -48.066234 
L 432.99 -48.698473 
L 432.99 -49.330711 
L 432.99 -49.962949 
L 432.99 -50.595187 
L 432.99 -51.227425 
L 432.99 -51.859663 
L 432.99 -52.491901 
L 432.99 -53.124139 
L 432.99 -53.756377 
L 432.99 -54.388615 
L 432.99 -55.020853 
L 432.99 -55.653091 
L 432.99 -56.285329 
L 432.99 -56.917567 
L 432.99 -57.549805 
L 432.99 -58.182043 
L 432.99 -58.814281 
L 432.99 -59.446519 
L 432.99 -60.078757 
L 432.99 -60.710995 
L 432.99 -61.343233 
L 432.99 -61.975471 
L 432.99 -62.607709 
L 432.99 -63.239947 
L 432.99 -63.872185 
L 432.99 -64.504423 
L 432.99 -65.136661 
L 432.99 -65.768899 
L 432.99 -66.401137 
L 432.99 -67.033375 
L 432.99 -67.665613 
L 432.99 -68.297851 
L 432.99 -68.930089 
L 432.99 -69.562327 
L 432.99 -70.194565 
L 432.99 -70.826803 
L 432.99 -71.459041 
L 432.99 -72.091279 
L 432.99 -72.723517 
L 432.99 -73.355755 
L 432.99 -73.987993 
L 432.99 -74.620231 
L 432.99 -75.252469 
L 432.99 -75.884707 
L 432.99 -76.516945 
L 432.99 -77.149183 
L 432.99 -77.781421 
L 432.99 -78.413659 
L 432.99 -79.045897 
L 432.99 -79.678135 
L 432.99 -80.310373 
L 432.99 -80.942611 
L 432.99 -81.574849 
L 432.99 -82.207087 
L 432.99 -82.839325 
L 432.99 -83.471563 
L 433.172366 -83.471563 
L 433.172366 -83.471563 
L 433.145475 -82.839325 
L 433.210866 -82.207087 
L 433.443971 -81.574849 
L 433.504532 -80.942611 
L 433.325273 -80.310373 
L 433.331131 -79.678135 
L 433.551653 -79.045897 
L 433.621593 -78.413659 
L 433.534343 -77.781421 
L 433.594643 -77.149183 
L 433.803221 -76.516945 
L 434.118951 -75.884707 
L 434.677243 -75.252469 
L 435.134241 -74.620231 
L 435.264336 -73.987993 
L 435.678519 -73.355755 
L 436.392338 -72.723517 
L 436.830368 -72.091279 
L 436.849343 -71.459041 
L 436.881353 -70.826803 
L 437.199457 -70.194565 
L 437.607421 -69.562327 
L 438.376815 -68.930089 
L 439.376142 -68.297851 
L 439.911057 -67.665613 
L 439.734564 -67.033375 
L 439.451164 -66.401137 
L 440.364289 -65.768899 
L 442.600526 -65.136661 
L 445.406799 -64.504423 
L 449.216179 -63.872185 
L 453.333973 -63.239947 
L 455.31 -62.607709 
L 454.691106 -61.975471 
L 453.11586 -61.343233 
L 452.386778 -60.710995 
L 452.265507 -60.078757 
L 451.168574 -59.446519 
L 449.556398 -58.814281 
L 448.47031 -58.182043 
L 446.881839 -57.549805 
L 444.336901 -56.917567 
L 442.086706 -56.285329 
L 440.854946 -55.653091 
L 439.746558 -55.020853 
L 438.301063 -54.388615 
L 437.354139 -53.756377 
L 436.790021 -53.124139 
L 436.426293 -52.491901 
L 436.369192 -51.859663 
L 436.363281 -51.227425 
L 435.908869 -50.595187 
L 434.966335 -49.962949 
L 434.189516 -49.330711 
L 433.874508 -48.698473 
L 433.859215 -48.066234 
L 433.704636 -47.433996 
L 433.494692 -46.801758 
L 433.4371 -46.16952 
L 433.420757 -45.537282 
L 433.48266 -44.905044 
L 433.461378 -44.272806 
L 433.262008 -43.640568 
L 433.116518 -43.00833 
L 433.138432 -42.376092 
L 433.168094 -41.743854 
L 433.093943 -41.111616 
L 433.017556 -40.479378 
L 432.994446 -39.84714 
L 433.006459 -39.214902 
L 433.098455 -38.582664 
L 433.333696 -37.950426 
L 433.509611 -37.318188 
L 433.363942 -36.68595 
L 433.117336 -36.053712 
L 433.010869 -35.421474 
L 432.998929 -34.789236 
L 433.037449 -34.156998 
L 433.128742 -33.52476 
L 433.195568 -32.892522 
L 433.251687 -32.260284 
L 433.46273 -31.628046 
L 433.65462 -30.995808 
L 433.551761 -30.36357 
L 433.396676 -29.731332 
L 433.381905 -29.099094 
L 433.328082 -28.466856 
L 433.248717 -27.834618 
L 433.171903 -27.20238 
L 433.067722 -26.570142 
L 433.006087 -25.937904 
L 432.99288 -25.305666 
L 433.004943 -24.673428 
L 433.063103 -24.04119 
L 433.152491 -23.408952 
L 433.157535 -22.776714 
L 433.100129 -22.144476 
L 433.125538 -21.512238 
L 433.170699 -20.88 
z
" style="stroke: #1a1a1a; stroke-width: 0.5"/>
    </defs>
    <g clip-path="url(#p9c36d2c3f0)">
     <use xlink:href="#m22c6815485" x="0" y="144" style="fill: #df2020; stroke: #1a1a1a; stroke-width: 0.5"/>
    </g>
   </g>
   <g id="PolyCollection_15">
    <defs>
     <path id="m943b6b374f" d="M 483.21 -41.703851 
L 482.650562 -41.703851 
L 482.505418 -42.018133 
L 482.45376 -42.332414 
L 482.552935 -42.646696 
L 482.817811 -42.960977 
L 483.069612 -43.275258 
L 483.182263 -43.58954 
L 483.2071 -43.903821 
L 483.209843 -44.218103 
L 483.209995 -44.532384 
L 483.209985 -44.846665 
L 483.209563 -45.160947 
L 483.203589 -45.475228 
L 483.161806 -45.78951 
L 483.024282 -46.103791 
L 482.843132 -46.418073 
L 482.838502 -46.732354 
L 483.017156 -47.046635 
L 483.158522 -47.360917 
L 483.200022 -47.675198 
L 483.181924 -47.98948 
L 483.079019 -48.303761 
L 482.891293 -48.618042 
L 482.812246 -48.932324 
L 482.952472 -49.246605 
L 483.096846 -49.560887 
L 483.056424 -49.875168 
L 482.858463 -50.18945 
L 482.666966 -50.503731 
L 482.49412 -50.818012 
L 482.301406 -51.132294 
L 482.288159 -51.446575 
L 482.416128 -51.760857 
L 482.422644 -52.075138 
L 482.156903 -52.389419 
L 481.689639 -52.703701 
L 481.010062 -53.017982 
L 479.916694 -53.332264 
L 478.689405 -53.646545 
L 477.88036 -53.960827 
L 478.058623 -54.275108 
L 479.111299 -54.589389 
L 479.671905 -54.903671 
L 479.094893 -55.217952 
L 477.592241 -55.532234 
L 475.423936 -55.846515 
L 474.109476 -56.160796 
L 473.987508 -56.475078 
L 473.589242 -56.789359 
L 473.176219 -57.103641 
L 473.547064 -57.417922 
L 473.727375 -57.732204 
L 472.419236 -58.046485 
L 470.100733 -58.360766 
L 468.903283 -58.675048 
L 469.315265 -58.989329 
L 468.70746 -59.303611 
L 466.467375 -59.617892 
L 464.816119 -59.932173 
L 463.824749 -60.246455 
L 462.32778 -60.560736 
L 460.89 -60.875018 
L 460.985338 -61.189299 
L 462.198726 -61.503581 
L 462.537492 -61.817862 
L 461.88821 -62.132143 
L 461.657185 -62.446425 
L 462.262139 -62.760706 
L 462.848204 -63.074988 
L 462.200806 -63.389269 
L 461.224874 -63.703551 
L 462.206285 -64.017832 
L 465.583946 -64.332113 
L 469.135246 -64.646395 
L 471.75288 -64.960676 
L 474.190073 -65.274958 
L 476.371215 -65.589239 
L 477.62889 -65.90352 
L 477.966631 -66.217802 
L 478.104805 -66.532083 
L 478.700415 -66.846365 
L 479.78219 -67.160646 
L 481.062245 -67.474928 
L 482.103331 -67.789209 
L 482.593267 -68.10349 
L 482.512102 -68.417772 
L 482.218329 -68.732053 
L 482.204631 -69.046335 
L 482.495621 -69.360616 
L 482.680967 -69.674897 
L 482.658064 -69.989179 
L 482.634332 -70.30346 
L 482.70902 -70.617742 
L 482.909425 -70.932023 
L 483.106335 -71.246305 
L 483.189167 -71.560586 
L 483.188369 -71.874867 
L 483.10444 -72.189149 
L 482.922618 -72.50343 
L 482.808616 -72.817712 
L 483.21 -72.817712 
L 483.21 -72.817712 
L 483.21 -72.50343 
L 483.21 -72.189149 
L 483.21 -71.874867 
L 483.21 -71.560586 
L 483.21 -71.246305 
L 483.21 -70.932023 
L 483.21 -70.617742 
L 483.21 -70.30346 
L 483.21 -69.989179 
L 483.21 -69.674897 
L 483.21 -69.360616 
L 483.21 -69.046335 
L 483.21 -68.732053 
L 483.21 -68.417772 
L 483.21 -68.10349 
L 483.21 -67.789209 
L 483.21 -67.474928 
L 483.21 -67.160646 
L 483.21 -66.846365 
L 483.21 -66.532083 
L 483.21 -66.217802 
L 483.21 -65.90352 
L 483.21 -65.589239 
L 483.21 -65.274958 
L 483.21 -64.960676 
L 483.21 -64.646395 
L 483.21 -64.332113 
L 483.21 -64.017832 
L 483.21 -63.703551 
L 483.21 -63.389269 
L 483.21 -63.074988 
L 483.21 -62.760706 
L 483.21 -62.446425 
L 483.21 -62.132143 
L 483.21 -61.817862 
L 483.21 -61.503581 
L 483.21 -61.189299 
L 483.21 -60.875018 
L 483.21 -60.560736 
L 483.21 -60.246455 
L 483.21 -59.932173 
L 483.21 -59.617892 
L 483.21 -59.303611 
L 483.21 -58.989329 
L 483.21 -58.675048 
L 483.21 -58.360766 
L 483.21 -58.046485 
L 483.21 -57.732204 
L 483.21 -57.417922 
L 483.21 -57.103641 
L 483.21 -56.789359 
L 483.21 -56.475078 
L 483.21 -56.160796 
L 483.21 -55.846515 
L 483.21 -55.532234 
L 483.21 -55.217952 
L 483.21 -54.903671 
L 483.21 -54.589389 
L 483.21 -54.275108 
L 483.21 -53.960827 
L 483.21 -53.646545 
L 483.21 -53.332264 
L 483.21 -53.017982 
L 483.21 -52.703701 
L 483.21 -52.389419 
L 483.21 -52.075138 
L 483.21 -51.760857 
L 483.21 -51.446575 
L 483.21 -51.132294 
L 483.21 -50.818012 
L 483.21 -50.503731 
L 483.21 -50.18945 
L 483.21 -49.875168 
L 483.21 -49.560887 
L 483.21 -49.246605 
L 483.21 -48.932324 
L 483.21 -48.618042 
L 483.21 -48.303761 
L 483.21 -47.98948 
L 483.21 -47.675198 
L 483.21 -47.360917 
L 483.21 -47.046635 
L 483.21 -46.732354 
L 483.21 -46.418073 
L 483.21 -46.103791 
L 483.21 -45.78951 
L 483.21 -45.475228 
L 483.21 -45.160947 
L 483.21 -44.846665 
L 483.21 -44.532384 
L 483.21 -44.218103 
L 483.21 -43.903821 
L 483.21 -43.58954 
L 483.21 -43.275258 
L 483.21 -42.960977 
L 483.21 -42.646696 
L 483.21 -42.332414 
L 483.21 -42.018133 
L 483.21 -41.703851 
z
" style="stroke: #1a1a1a; stroke-width: 0.5"/>
    </defs>
    <g clip-path="url(#p9c36d2c3f0)">
     <use xlink:href="#m943b6b374f" x="0" y="144" style="fill: #c02fe1; stroke: #1a1a1a; stroke-width: 0.5"/>
    </g>
   </g>
   <g id="matplotlib.axis_1">
    <g id="xtick_1">
     <g id="line2d_1">
      <defs>
       <path id="m53bdd13711" d="M 0 0 
L 0 -3 
" style="stroke: #000000"/>
      </defs>
      <g>
       <use xlink:href="#m53bdd13711" x="81.45" y="128.16" style="stroke: #000000"/>
      </g>
     </g>
     <g id="text_1">
      <text style="font: 7px 'DejaVu Sans', 'Bitstream Vera Sans', 'Computer Modern Sans Serif', 'Lucida Grande', 'Verdana', 'Geneva', 'Lucid', 'Arial', 'Helvetica', 'Avant Garde', sans-serif" transform="translate(75.560703 136.978906)">AC,</text>
      <text style="font: 7px 'DejaVu Sans', 'Bitstream Vera Sans', 'Computer Modern Sans Serif', 'Lucida Grande', 'Verdana', 'Geneva', 'Lucid', 'Arial', 'Helvetica', 'Avant Garde', sans-serif" transform="translate(68.506016 144.817375)"> n=740</text>
     </g>
    </g>
    <g id="xtick_2">
     <g id="line2d_2">
      <g>
       <use xlink:href="#m53bdd13711" x="109.35" y="128.16" style="stroke: #000000"/>
      </g>
     </g>
     <g id="text_2">
      <text style="font: 7px 'DejaVu Sans', 'Bitstream Vera Sans', 'Computer Modern Sans Serif', 'Lucida Grande', 'Verdana', 'Geneva', 'Lucid', 'Arial', 'Helvetica', 'Avant Garde', sans-serif" transform="translate(104.773203 136.978906)">RI,</text>
      <text style="font: 7px 'DejaVu Sans', 'Bitstream Vera Sans', 'Computer Modern Sans Serif', 'Lucida Grande', 'Verdana', 'Geneva', 'Lucid', 'Arial', 'Helvetica', 'Avant Garde', sans-serif" transform="translate(96.406016 144.817375)"> n=636</text>
     </g>
    </g>
    <g id="xtick_3">
     <g id="line2d_3">
      <g>
       <use xlink:href="#m53bdd13711" x="137.25" y="128.16" style="stroke: #000000"/>
      </g>
     </g>
     <g id="text_3">
      <text style="font: 7px 'DejaVu Sans', 'Bitstream Vera Sans', 'Computer Modern Sans Serif', 'Lucida Grande', 'Verdana', 'Geneva', 'Lucid', 'Arial', 'Helvetica', 'Avant Garde', sans-serif" transform="translate(131.174766 136.978906)">BU,</text>
      <text style="font: 7px 'DejaVu Sans', 'Bitstream Vera Sans', 'Computer Modern Sans Serif', 'Lucida Grande', 'Verdana', 'Geneva', 'Lucid', 'Arial', 'Helvetica', 'Avant Garde', sans-serif" transform="translate(124.306016 144.817375)"> n=718</text>
     </g>
    </g>
    <g id="xtick_4">
     <g id="line2d_4">
      <g>
       <use xlink:href="#m53bdd13711" x="165.15" y="128.16" style="stroke: #000000"/>
      </g>
     </g>
     <g id="text_4">
      <text style="font: 7px 'DejaVu Sans', 'Bitstream Vera Sans', 'Computer Modern Sans Serif', 'Lucida Grande', 'Verdana', 'Geneva', 'Lucid', 'Arial', 'Helvetica', 'Avant Garde', sans-serif" transform="translate(159.149687 136.978906)">CC,</text>
      <text style="font: 7px 'DejaVu Sans', 'Bitstream Vera Sans', 'Computer Modern Sans Serif', 'Lucida Grande', 'Verdana', 'Geneva', 'Lucid', 'Arial', 'Helvetica', 'Avant Garde', sans-serif" transform="translate(152.206016 144.817375)"> n=572</text>
     </g>
    </g>
    <g id="xtick_5">
     <g id="line2d_5">
      <g>
       <use xlink:href="#m53bdd13711" x="193.05" y="128.16" style="stroke: #000000"/>
      </g>
     </g>
     <g id="text_5">
      <text style="font: 7px 'DejaVu Sans', 'Bitstream Vera Sans', 'Computer Modern Sans Serif', 'Lucida Grande', 'Verdana', 'Geneva', 'Lucid', 'Arial', 'Helvetica', 'Avant Garde', sans-serif" transform="translate(187.294141 136.978906)">ER,</text>
      <text style="font: 7px 'DejaVu Sans', 'Bitstream Vera Sans', 'Computer Modern Sans Serif', 'Lucida Grande', 'Verdana', 'Geneva', 'Lucid', 'Arial', 'Helvetica', 'Avant Garde', sans-serif" transform="translate(180.106016 144.817375)"> n=697</text>
     </g>
    </g>
    <g id="xtick_6">
     <g id="line2d_6">
      <g>
       <use xlink:href="#m53bdd13711" x="220.95" y="128.16" style="stroke: #000000"/>
      </g>
     </g>
     <g id="text_6">
      <text style="font: 7px 'DejaVu Sans', 'Bitstream Vera Sans', 'Computer Modern Sans Serif', 'Lucida Grande', 'Verdana', 'Geneva', 'Lucid', 'Arial', 'Helvetica', 'Avant Garde', sans-serif" transform="translate(215.283281 136.978906)">PC,</text>
      <text style="font: 7px 'DejaVu Sans', 'Bitstream Vera Sans', 'Computer Modern Sans Serif', 'Lucida Grande', 'Verdana', 'Geneva', 'Lucid', 'Arial', 'Helvetica', 'Avant Garde', sans-serif" transform="translate(208.006016 144.817375)"> n=539</text>
     </g>
    </g>
    <g id="xtick_7">
     <g id="line2d_7">
      <g>
       <use xlink:href="#m53bdd13711" x="248.85" y="128.16" style="stroke: #000000"/>
      </g>
     </g>
     <g id="text_7">
      <text style="font: 7px 'DejaVu Sans', 'Bitstream Vera Sans', 'Computer Modern Sans Serif', 'Lucida Grande', 'Verdana', 'Geneva', 'Lucid', 'Arial', 'Helvetica', 'Avant Garde', sans-serif" transform="translate(243.614219 136.978906)">FP,</text>
      <text style="font: 7px 'DejaVu Sans', 'Bitstream Vera Sans', 'Computer Modern Sans Serif', 'Lucida Grande', 'Verdana', 'Geneva', 'Lucid', 'Arial', 'Helvetica', 'Avant Garde', sans-serif" transform="translate(235.906016 144.817375)"> n=657</text>
     </g>
    </g>
    <g id="xtick_8">
     <g id="line2d_8">
      <g>
       <use xlink:href="#m53bdd13711" x="276.75" y="128.16" style="stroke: #000000"/>
      </g>
     </g>
     <g id="text_8">
      <text style="font: 7px 'DejaVu Sans', 'Bitstream Vera Sans', 'Computer Modern Sans Serif', 'Lucida Grande', 'Verdana', 'Geneva', 'Lucid', 'Arial', 'Helvetica', 'Avant Garde', sans-serif" transform="translate(270.561562 136.978906)">CH,</text>
      <text style="font: 7px 'DejaVu Sans', 'Bitstream Vera Sans', 'Computer Modern Sans Serif', 'Lucida Grande', 'Verdana', 'Geneva', 'Lucid', 'Arial', 'Helvetica', 'Avant Garde', sans-serif" transform="translate(263.806016 144.817375)"> n=675</text>
     </g>
    </g>
    <g id="xtick_9">
     <g id="line2d_9">
      <g>
       <use xlink:href="#m53bdd13711" x="304.65" y="128.16" style="stroke: #000000"/>
      </g>
     </g>
     <g id="text_9">
      <text style="font: 7px 'DejaVu Sans', 'Bitstream Vera Sans', 'Computer Modern Sans Serif', 'Lucida Grande', 'Verdana', 'Geneva', 'Lucid', 'Arial', 'Helvetica', 'Avant Garde', sans-serif" transform="translate(299.375937 136.978906)">EL,</text>
      <text style="font: 7px 'DejaVu Sans', 'Bitstream Vera Sans', 'Computer Modern Sans Serif', 'Lucida Grande', 'Verdana', 'Geneva', 'Lucid', 'Arial', 'Helvetica', 'Avant Garde', sans-serif" transform="translate(291.706016 144.817375)"> n=490</text>
     </g>
    </g>
    <g id="xtick_10">
     <g id="line2d_10">
      <g>
       <use xlink:href="#m53bdd13711" x="332.55" y="128.16" style="stroke: #000000"/>
      </g>
     </g>
     <g id="text_10">
      <text style="font: 7px 'DejaVu Sans', 'Bitstream Vera Sans', 'Computer Modern Sans Serif', 'Lucida Grande', 'Verdana', 'Geneva', 'Lucid', 'Arial', 'Helvetica', 'Avant Garde', sans-serif" transform="translate(327.086172 136.978906)">BL,</text>
      <text style="font: 7px 'DejaVu Sans', 'Bitstream Vera Sans', 'Computer Modern Sans Serif', 'Lucida Grande', 'Verdana', 'Geneva', 'Lucid', 'Arial', 'Helvetica', 'Avant Garde', sans-serif" transform="translate(319.606016 144.817375)"> n=648</text>
     </g>
    </g>
    <g id="xtick_11">
     <g id="line2d_11">
      <g>
       <use xlink:href="#m53bdd13711" x="360.45" y="128.16" style="stroke: #000000"/>
      </g>
     </g>
     <g id="text_11">
      <text style="font: 7px 'DejaVu Sans', 'Bitstream Vera Sans', 'Computer Modern Sans Serif', 'Lucida Grande', 'Verdana', 'Geneva', 'Lucid', 'Arial', 'Helvetica', 'Avant Garde', sans-serif" transform="translate(354.304219 136.978906)">BH,</text>
      <text style="font: 7px 'DejaVu Sans', 'Bitstream Vera Sans', 'Computer Modern Sans Serif', 'Lucida Grande', 'Verdana', 'Geneva', 'Lucid', 'Arial', 'Helvetica', 'Avant Garde', sans-serif" transform="translate(347.506016 144.817375)"> n=613</text>
     </g>
    </g>
    <g id="xtick_12">
     <g id="line2d_12">
      <g>
       <use xlink:href="#m53bdd13711" x="388.35" y="128.16" style="stroke: #000000"/>
      </g>
     </g>
     <g id="text_12">
      <text style="font: 7px 'DejaVu Sans', 'Bitstream Vera Sans', 'Computer Modern Sans Serif', 'Lucida Grande', 'Verdana', 'Geneva', 'Lucid', 'Arial', 'Helvetica', 'Avant Garde', sans-serif" transform="translate(382.399453 136.978906)">CA,</text>
      <text style="font: 7px 'DejaVu Sans', 'Bitstream Vera Sans', 'Computer Modern Sans Serif', 'Lucida Grande', 'Verdana', 'Geneva', 'Lucid', 'Arial', 'Helvetica', 'Avant Garde', sans-serif" transform="translate(375.406016 144.817375)"> n=646</text>
     </g>
    </g>
    <g id="xtick_13">
     <g id="line2d_13">
      <g>
       <use xlink:href="#m53bdd13711" x="416.25" y="128.16" style="stroke: #000000"/>
      </g>
     </g>
     <g id="text_13">
      <text style="font: 7px 'DejaVu Sans', 'Bitstream Vera Sans', 'Computer Modern Sans Serif', 'Lucida Grande', 'Verdana', 'Geneva', 'Lucid', 'Arial', 'Helvetica', 'Avant Garde', sans-serif" transform="translate(410.429609 136.978906)">DF,</text>
      <text style="font: 7px 'DejaVu Sans', 'Bitstream Vera Sans', 'Computer Modern Sans Serif', 'Lucida Grande', 'Verdana', 'Geneva', 'Lucid', 'Arial', 'Helvetica', 'Avant Garde', sans-serif" transform="translate(403.306016 144.817375)"> n=686</text>
     </g>
    </g>
    <g id="xtick_14">
     <g id="line2d_14">
      <g>
       <use xlink:href="#m53bdd13711" x="444.15" y="128.16" style="stroke: #000000"/>
      </g>
     </g>
     <g id="text_14">
      <text style="font: 7px 'DejaVu Sans', 'Bitstream Vera Sans', 'Computer Modern Sans Serif', 'Lucida Grande', 'Verdana', 'Geneva', 'Lucid', 'Arial', 'Helvetica', 'Avant Garde', sans-serif" transform="translate(438.242109 136.978906)">BA,</text>
      <text style="font: 7px 'DejaVu Sans', 'Bitstream Vera Sans', 'Computer Modern Sans Serif', 'Lucida Grande', 'Verdana', 'Geneva', 'Lucid', 'Arial', 'Helvetica', 'Avant Garde', sans-serif" transform="translate(431.206016 144.817375)"> n=756</text>
     </g>
    </g>
    <g id="xtick_15">
     <g id="line2d_15">
      <g>
       <use xlink:href="#m53bdd13711" x="472.05" y="128.16" style="stroke: #000000"/>
      </g>
     </g>
     <g id="text_15">
      <text style="font: 7px 'DejaVu Sans', 'Bitstream Vera Sans', 'Computer Modern Sans Serif', 'Lucida Grande', 'Verdana', 'Geneva', 'Lucid', 'Arial', 'Helvetica', 'Avant Garde', sans-serif" transform="translate(467.794766 136.978906)">PJ,</text>
      <text style="font: 7px 'DejaVu Sans', 'Bitstream Vera Sans', 'Computer Modern Sans Serif', 'Lucida Grande', 'Verdana', 'Geneva', 'Lucid', 'Arial', 'Helvetica', 'Avant Garde', sans-serif" transform="translate(459.106016 144.817375)"> n=477</text>
     </g>
    </g>
   </g>
   <g id="matplotlib.axis_2">
    <g id="ytick_1">
     <g id="line2d_16">
      <defs>
       <path id="m8bb79b17fe" d="M 0 0 
L 3 0 
" style="stroke: #000000"/>
      </defs>
      <g>
       <use xlink:href="#m8bb79b17fe" x="67.5" y="119.823536" style="stroke: #000000"/>
      </g>
     </g>
     <g id="text_16">
      <text style="font: 7px 'DejaVu Sans', 'Bitstream Vera Sans', 'Computer Modern Sans Serif', 'Lucida Grande', 'Verdana', 'Geneva', 'Lucid', 'Arial', 'Helvetica', 'Avant Garde', sans-serif; text-anchor: end" x="64" y="122.482989" transform="rotate(-0 64 122.482989)">−4</text>
     </g>
    </g>
    <g id="ytick_2">
     <g id="line2d_17">
      <g>
       <use xlink:href="#m8bb79b17fe" x="67.5" y="100.115061" style="stroke: #000000"/>
      </g>
     </g>
     <g id="text_17">
      <text style="font: 7px 'DejaVu Sans', 'Bitstream Vera Sans', 'Computer Modern Sans Serif', 'Lucida Grande', 'Verdana', 'Geneva', 'Lucid', 'Arial', 'Helvetica', 'Avant Garde', sans-serif; text-anchor: end" x="64" y="102.774514" transform="rotate(-0 64 102.774514)">−2</text>
     </g>
    </g>
    <g id="ytick_3">
     <g id="line2d_18">
      <g>
       <use xlink:href="#m8bb79b17fe" x="67.5" y="80.406585" style="stroke: #000000"/>
      </g>
     </g>
     <g id="text_18">
      <text style="font: 7px 'DejaVu Sans', 'Bitstream Vera Sans', 'Computer Modern Sans Serif', 'Lucida Grande', 'Verdana', 'Geneva', 'Lucid', 'Arial', 'Helvetica', 'Avant Garde', sans-serif; text-anchor: end" x="64" y="83.066038" transform="rotate(-0 64 83.066038)">0</text>
     </g>
    </g>
    <g id="ytick_4">
     <g id="line2d_19">
      <g>
       <use xlink:href="#m8bb79b17fe" x="67.5" y="60.698109" style="stroke: #000000"/>
      </g>
     </g>
     <g id="text_19">
      <text style="font: 7px 'DejaVu Sans', 'Bitstream Vera Sans', 'Computer Modern Sans Serif', 'Lucida Grande', 'Verdana', 'Geneva', 'Lucid', 'Arial', 'Helvetica', 'Avant Garde', sans-serif; text-anchor: end" x="64" y="63.357563" transform="rotate(-0 64 63.357563)">2</text>
     </g>
    </g>
    <g id="ytick_5">
     <g id="line2d_20">
      <g>
       <use xlink:href="#m8bb79b17fe" x="67.5" y="40.989634" style="stroke: #000000"/>
      </g>
     </g>
     <g id="text_20">
      <text style="font: 7px 'DejaVu Sans', 'Bitstream Vera Sans', 'Computer Modern Sans Serif', 'Lucida Grande', 'Verdana', 'Geneva', 'Lucid', 'Arial', 'Helvetica', 'Avant Garde', sans-serif; text-anchor: end" x="64" y="43.649087" transform="rotate(-0 64 43.649087)">4</text>
     </g>
    </g>
    <g id="ytick_6">
     <g id="line2d_21">
      <g>
       <use xlink:href="#m8bb79b17fe" x="67.5" y="21.281158" style="stroke: #000000"/>
      </g>
     </g>
     <g id="text_21">
      <text style="font: 7px 'DejaVu Sans', 'Bitstream Vera Sans', 'Computer Modern Sans Serif', 'Lucida Grande', 'Verdana', 'Geneva', 'Lucid', 'Arial', 'Helvetica', 'Avant Garde', sans-serif; text-anchor: end" x="64" y="23.940611" transform="rotate(-0 64 23.940611)">6</text>
     </g>
    </g>
    <g id="text_22">
     <text style="font: 7px 'DejaVu Sans', 'Bitstream Vera Sans', 'Computer Modern Sans Serif', 'Lucida Grande', 'Verdana', 'Geneva', 'Lucid', 'Arial', 'Helvetica', 'Avant Garde', sans-serif; text-anchor: middle" x="48.224688" y="72.72" transform="rotate(-90 48.224688 72.72)">SHAP value</text>
    </g>
   </g>
   <g id="line2d_22">
    <path d="M 67.5 80.406585 
L 486 80.406585 
" clip-path="url(#p9c36d2c3f0)" style="fill: none; stroke: #000000; stroke-opacity: 0.5; stroke-linecap: square"/>
   </g>
   <g id="patch_3">
    <path d="M 67.5 128.16 
L 67.5 17.28 
" style="fill: none; stroke: #000000; stroke-linejoin: miter; stroke-linecap: square"/>
   </g>
   <g id="patch_4">
    <path d="M 486 128.16 
L 486 17.28 
" style="fill: none; stroke: #000000; stroke-linejoin: miter; stroke-linecap: square"/>
   </g>
   <g id="patch_5">
    <path d="M 67.5 128.16 
L 486 128.16 
" style="fill: none; stroke: #000000; stroke-linejoin: miter; stroke-linecap: square"/>
   </g>
   <g id="patch_6">
    <path d="M 67.5 17.28 
L 486 17.28 
" style="fill: none; stroke: #000000; stroke-linejoin: miter; stroke-linecap: square"/>
   </g>
  </g>
 </g>
 <defs>
  <clipPath id="p9c36d2c3f0">
   <rect x="67.5" y="17.28" width="418.5" height="110.88"/>
  </clipPath>
 </defs>
</svg>
