<?xml version="1.0" encoding="utf-8" standalone="no"?>
<!DOCTYPE svg PUBLIC "-//W3C//DTD SVG 1.1//EN"
  "http://www.w3.org/Graphics/SVG/1.1/DTD/svg11.dtd">
<svg xmlns:xlink="http://www.w3.org/1999/xlink" width="540pt" height="144pt" viewBox="0 0 540 144" xmlns="http://www.w3.org/2000/svg" version="1.1">
 <metadata>
  <rdf:RDF xmlns:dc="http://purl.org/dc/elements/1.1/" xmlns:cc="http://creativecommons.org/ns#" xmlns:rdf="http://www.w3.org/1999/02/22-rdf-syntax-ns#">
   <cc:Work>
    <dc:type rdf:resource="http://purl.org/dc/dcmitype/StillImage"/>
    <dc:date>2025-01-29T20:59:47.303772</dc:date>
    <dc:format>image/svg+xml</dc:format>
    <dc:creator>
     <cc:Agent>
      <dc:title>Matplotlib v3.5.2, https://matplotlib.org/</dc:title>
     </cc:Agent>
    </dc:creator>
   </cc:Work>
  </rdf:RDF>
 </metadata>
 <defs>
  <style type="text/css">*{stroke-linejoin: round; stroke-linecap: butt}</style>
 </defs>
 <g id="figure_1">
  <g id="patch_1">
   <path d="M 0 144 
L 540 144 
L 540 0 
L 0 0 
z
" style="fill: #ffffff"/>
  </g>
  <g id="axes_1">
   <g id="patch_2">
    <path d="M 67.5 128.16 
L 486 128.16 
L 486 17.28 
L 67.5 17.28 
z
" style="fill: #ffffff"/>
   </g>
   <g id="PolyCollection_1">
    <defs>
     <path id="m6c61903e3b" d="M 92.61 -57.876812 
L 87.643515 -57.876812 
L 88.552276 -58.521289 
L 90.396994 -59.165765 
L 91.804344 -59.810242 
L 92.414213 -60.454719 
L 92.57824 -61.099195 
L 92.606561 -61.743672 
L 92.609751 -62.388149 
L 92.609987 -63.032625 
L 92.609976 -63.677102 
L 92.609687 -64.321579 
L 92.60719 -64.966055 
L 92.59316 -65.610532 
L 92.542628 -66.255009 
L 92.430077 -66.899485 
L 92.289216 -67.543962 
L 92.227664 -68.188439 
L 92.300509 -68.832915 
L 92.408284 -69.477392 
L 92.36885 -70.121868 
L 92.015649 -70.766345 
L 91.305846 -71.410822 
L 90.479819 -72.055298 
L 89.913516 -72.699775 
L 89.615783 -73.344252 
L 89.162597 -73.988728 
L 88.295848 -74.633205 
L 87.204631 -75.277682 
L 86.134364 -75.922158 
L 85.162988 -76.566635 
L 84.271366 -77.211112 
L 83.314775 -77.855588 
L 82.306788 -78.500065 
L 81.760679 -79.144541 
L 82.105843 -79.789018 
L 82.822769 -80.433495 
L 82.81501 -81.077971 
L 81.701457 -81.722448 
L 80.218355 -82.366925 
L 79.13595 -83.011401 
L 78.340824 -83.655878 
L 77.360279 -84.300355 
L 76.112433 -84.944831 
L 74.669659 -85.589308 
L 73.040626 -86.233785 
L 71.600319 -86.878261 
L 70.937103 -87.522738 
L 71.046776 -88.167214 
L 71.329458 -88.811691 
L 71.294199 -89.456168 
L 70.878153 -90.100644 
L 70.412867 -90.745121 
L 70.29 -91.389598 
L 70.473707 -92.034074 
L 70.775519 -92.678551 
L 71.384153 -93.323028 
L 72.247148 -93.967504 
L 72.811871 -94.611981 
L 73.217229 -95.256458 
L 74.18934 -95.900934 
L 75.609126 -96.545411 
L 76.870896 -97.189888 
L 78.009468 -97.834364 
L 79.342928 -98.478841 
L 80.980415 -99.123317 
L 82.820767 -99.767794 
L 84.483887 -100.412271 
L 85.63032 -101.056747 
L 86.239278 -101.701224 
L 86.43669 -102.345701 
L 86.42285 -102.990177 
L 86.382406 -103.634654 
L 86.409764 -104.279131 
L 86.661082 -104.923607 
L 87.182348 -105.568084 
L 87.738614 -106.212561 
L 88.229134 -106.857037 
L 88.86112 -107.501514 
L 89.713577 -108.14599 
L 90.591599 -108.790467 
L 91.295782 -109.434944 
L 91.736632 -110.07942 
L 91.919844 -110.723897 
L 91.883502 -111.368374 
L 91.660307 -112.01285 
L 91.423763 -112.657327 
L 91.428994 -113.301804 
L 91.669802 -113.94628 
L 91.928288 -114.590757 
L 92.101029 -115.235234 
L 92.158568 -115.87971 
L 92.02051 -116.524187 
L 91.731156 -117.168663 
L 91.541415 -117.81314 
L 91.621594 -118.457617 
L 91.842087 -119.102093 
L 91.97244 -119.74657 
L 91.967948 -120.391047 
L 91.955066 -121.035523 
L 92.043377 -121.68 
L 92.61 -121.68 
L 92.61 -121.68 
L 92.61 -121.035523 
L 92.61 -120.391047 
L 92.61 -119.74657 
L 92.61 -119.102093 
L 92.61 -118.457617 
L 92.61 -117.81314 
L 92.61 -117.168663 
L 92.61 -116.524187 
L 92.61 -115.87971 
L 92.61 -115.235234 
L 92.61 -114.590757 
L 92.61 -113.94628 
L 92.61 -113.301804 
L 92.61 -112.657327 
L 92.61 -112.01285 
L 92.61 -111.368374 
L 92.61 -110.723897 
L 92.61 -110.07942 
L 92.61 -109.434944 
L 92.61 -108.790467 
L 92.61 -108.14599 
L 92.61 -107.501514 
L 92.61 -106.857037 
L 92.61 -106.212561 
L 92.61 -105.568084 
L 92.61 -104.923607 
L 92.61 -104.279131 
L 92.61 -103.634654 
L 92.61 -102.990177 
L 92.61 -102.345701 
L 92.61 -101.701224 
L 92.61 -101.056747 
L 92.61 -100.412271 
L 92.61 -99.767794 
L 92.61 -99.123317 
L 92.61 -98.478841 
L 92.61 -97.834364 
L 92.61 -97.189888 
L 92.61 -96.545411 
L 92.61 -95.900934 
L 92.61 -95.256458 
L 92.61 -94.611981 
L 92.61 -93.967504 
L 92.61 -93.323028 
L 92.61 -92.678551 
L 92.61 -92.034074 
L 92.61 -91.389598 
L 92.61 -90.745121 
L 92.61 -90.100644 
L 92.61 -89.456168 
L 92.61 -88.811691 
L 92.61 -88.167214 
L 92.61 -87.522738 
L 92.61 -86.878261 
L 92.61 -86.233785 
L 92.61 -85.589308 
L 92.61 -84.944831 
L 92.61 -84.300355 
L 92.61 -83.655878 
L 92.61 -83.011401 
L 92.61 -82.366925 
L 92.61 -81.722448 
L 92.61 -81.077971 
L 92.61 -80.433495 
L 92.61 -79.789018 
L 92.61 -79.144541 
L 92.61 -78.500065 
L 92.61 -77.855588 
L 92.61 -77.211112 
L 92.61 -76.566635 
L 92.61 -75.922158 
L 92.61 -75.277682 
L 92.61 -74.633205 
L 92.61 -73.988728 
L 92.61 -73.344252 
L 92.61 -72.699775 
L 92.61 -72.055298 
L 92.61 -71.410822 
L 92.61 -70.766345 
L 92.61 -70.121868 
L 92.61 -69.477392 
L 92.61 -68.832915 
L 92.61 -68.188439 
L 92.61 -67.543962 
L 92.61 -66.899485 
L 92.61 -66.255009 
L 92.61 -65.610532 
L 92.61 -64.966055 
L 92.61 -64.321579 
L 92.61 -63.677102 
L 92.61 -63.032625 
L 92.61 -62.388149 
L 92.61 -61.743672 
L 92.61 -61.099195 
L 92.61 -60.454719 
L 92.61 -59.810242 
L 92.61 -59.165765 
L 92.61 -58.521289 
L 92.61 -57.876812 
z
" style="stroke: #1a1a1a; stroke-width: 0.5"/>
    </defs>
    <g clip-path="url(#pb6870e3670)">
     <use xlink:href="#m6c61903e3b" x="0" y="144" style="fill: #137683; stroke: #1a1a1a; stroke-width: 0.5"/>
    </g>
   </g>
   <g id="PolyCollection_2">
    <defs>
     <path id="m7de730e3e9" d="M 98.598061 -26.711368 
L 98.19 -26.711368 
L 98.19 -27.583842 
L 98.19 -28.456316 
L 98.19 -29.32879 
L 98.19 -30.201264 
L 98.19 -31.073738 
L 98.19 -31.946212 
L 98.19 -32.818686 
L 98.19 -33.69116 
L 98.19 -34.563634 
L 98.19 -35.436108 
L 98.19 -36.308582 
L 98.19 -37.181056 
L 98.19 -38.05353 
L 98.19 -38.926004 
L 98.19 -39.798478 
L 98.19 -40.670952 
L 98.19 -41.543426 
L 98.19 -42.4159 
L 98.19 -43.288374 
L 98.19 -44.160848 
L 98.19 -45.033322 
L 98.19 -45.905796 
L 98.19 -46.77827 
L 98.19 -47.650744 
L 98.19 -48.523218 
L 98.19 -49.395692 
L 98.19 -50.268166 
L 98.19 -51.14064 
L 98.19 -52.013114 
L 98.19 -52.885588 
L 98.19 -53.758062 
L 98.19 -54.630536 
L 98.19 -55.50301 
L 98.19 -56.375484 
L 98.19 -57.247958 
L 98.19 -58.120432 
L 98.19 -58.992906 
L 98.19 -59.86538 
L 98.19 -60.737854 
L 98.19 -61.610328 
L 98.19 -62.482801 
L 98.19 -63.355275 
L 98.19 -64.227749 
L 98.19 -65.100223 
L 98.19 -65.972697 
L 98.19 -66.845171 
L 98.19 -67.717645 
L 98.19 -68.590119 
L 98.19 -69.462593 
L 98.19 -70.335067 
L 98.19 -71.207541 
L 98.19 -72.080015 
L 98.19 -72.952489 
L 98.19 -73.824963 
L 98.19 -74.697437 
L 98.19 -75.569911 
L 98.19 -76.442385 
L 98.19 -77.314859 
L 98.19 -78.187333 
L 98.19 -79.059807 
L 98.19 -79.932281 
L 98.19 -80.804755 
L 98.19 -81.677229 
L 98.19 -82.549703 
L 98.19 -83.422177 
L 98.19 -84.294651 
L 98.19 -85.167125 
L 98.19 -86.039599 
L 98.19 -86.912073 
L 98.19 -87.784547 
L 98.19 -88.657021 
L 98.19 -89.529495 
L 98.19 -90.401969 
L 98.19 -91.274443 
L 98.19 -92.146917 
L 98.19 -93.019391 
L 98.19 -93.891865 
L 98.19 -94.764339 
L 98.19 -95.636813 
L 98.19 -96.509287 
L 98.19 -97.381761 
L 98.19 -98.254235 
L 98.19 -99.126709 
L 98.19 -99.999183 
L 98.19 -100.871657 
L 98.19 -101.744131 
L 98.19 -102.616605 
L 98.19 -103.489079 
L 98.19 -104.361553 
L 98.19 -105.234027 
L 98.19 -106.106501 
L 98.19 -106.978975 
L 98.19 -107.851449 
L 98.19 -108.723923 
L 98.19 -109.596397 
L 98.19 -110.468871 
L 98.19 -111.341345 
L 98.19 -112.213819 
L 98.19 -113.086293 
L 98.395102 -113.086293 
L 98.395102 -113.086293 
L 98.338181 -112.213819 
L 98.24588 -111.341345 
L 98.200999 -110.468871 
L 98.19113 -109.596397 
L 98.190061 -108.723923 
L 98.190002 -107.851449 
L 98.19 -106.978975 
L 98.19 -106.106501 
L 98.19 -105.234027 
L 98.19 -104.361553 
L 98.19 -103.489079 
L 98.19 -102.616605 
L 98.19 -101.744131 
L 98.190008 -100.871657 
L 98.190242 -99.999183 
L 98.193746 -99.126709 
L 98.221028 -98.254235 
L 98.329527 -97.381761 
L 98.541563 -96.509287 
L 98.730726 -95.636813 
L 98.845612 -94.764339 
L 99.151318 -93.891865 
L 99.825788 -93.019391 
L 100.583985 -92.146917 
L 101.124198 -91.274443 
L 101.436053 -90.401969 
L 101.803328 -89.529495 
L 102.728581 -88.657021 
L 104.361262 -87.784547 
L 106.303379 -86.912073 
L 107.917899 -86.039599 
L 109.058727 -85.167125 
L 109.729787 -84.294651 
L 109.849939 -83.422177 
L 109.837917 -82.549703 
L 110.462255 -81.677229 
L 111.741763 -80.804755 
L 113.508531 -79.932281 
L 116.24943 -79.059807 
L 119.206195 -78.187333 
L 120.51 -77.314859 
L 119.874068 -76.442385 
L 118.256373 -75.569911 
L 116.173366 -74.697437 
L 113.765757 -73.824963 
L 111.927325 -72.952489 
L 111.354454 -72.080015 
L 111.47761 -71.207541 
L 111.792069 -70.335067 
L 111.381911 -69.462593 
L 110.022291 -68.590119 
L 109.061475 -67.717645 
L 108.357158 -66.845171 
L 107.225088 -65.972697 
L 106.363448 -65.100223 
L 105.972295 -64.227749 
L 105.394969 -63.355275 
L 104.696617 -62.482801 
L 104.243905 -61.610328 
L 103.887231 -60.737854 
L 103.708577 -59.86538 
L 104.287603 -58.992906 
L 105.03159 -58.120432 
L 104.420042 -57.247958 
L 102.900894 -56.375484 
L 101.725953 -55.50301 
L 101.021986 -54.630536 
L 100.472505 -53.758062 
L 99.964779 -52.885588 
L 99.614569 -52.013114 
L 99.514215 -51.14064 
L 99.70021 -50.268166 
L 100.035374 -49.395692 
L 100.089101 -48.523218 
L 99.774655 -47.650744 
L 99.565432 -46.77827 
L 99.676609 -45.905796 
L 99.770201 -45.033322 
L 99.672186 -44.160848 
L 99.599103 -43.288374 
L 99.487738 -42.4159 
L 99.113495 -41.543426 
L 98.71451 -40.670952 
L 98.538337 -39.798478 
L 98.49201 -38.926004 
L 98.456305 -38.05353 
L 98.421152 -37.181056 
L 98.421117 -36.308582 
L 98.382936 -35.436108 
L 98.285247 -34.563634 
L 98.215127 -33.69116 
L 98.193474 -32.818686 
L 98.190256 -31.946212 
L 98.190178 -31.073738 
L 98.192915 -30.201264 
L 98.216454 -29.32879 
L 98.315735 -28.456316 
L 98.50299 -27.583842 
L 98.598061 -26.711368 
z
" style="stroke: #1a1a1a; stroke-width: 0.5"/>
    </defs>
    <g clip-path="url(#pb6870e3670)">
     <use xlink:href="#m7de730e3e9" x="0" y="144" style="fill: #df2020; stroke: #1a1a1a; stroke-width: 0.5"/>
    </g>
   </g>
   <g id="PolyCollection_3">
    <defs>
     <path id="m3af6f57e12" d="M 148.41 -48.666664 
L 147.898282 -48.666664 
L 147.788225 -49.260441 
L 147.735088 -49.854219 
L 147.647332 -50.447997 
L 147.569757 -51.041775 
L 147.651721 -51.635553 
L 147.869986 -52.22933 
L 148.011495 -52.823108 
L 147.968586 -53.416886 
L 147.812929 -54.010664 
L 147.623638 -54.604442 
L 147.428638 -55.198219 
L 147.116507 -55.791997 
L 146.283587 -56.385775 
L 144.668426 -56.979553 
L 143.087105 -57.573331 
L 142.915684 -58.167108 
L 143.978641 -58.760886 
L 144.585221 -59.354664 
L 143.886791 -59.948442 
L 142.561484 -60.542219 
L 141.297987 -61.135997 
L 139.998313 -61.729775 
L 138.700007 -62.323553 
L 137.845031 -62.917331 
L 137.48561 -63.511108 
L 137.067711 -64.104886 
L 135.865548 -64.698664 
L 133.743526 -65.292442 
L 131.587199 -65.88622 
L 130.364857 -66.479997 
L 129.679438 -67.073775 
L 128.342571 -67.667553 
L 126.621659 -68.261331 
L 126.09 -68.855109 
L 126.880675 -69.448886 
L 127.53178 -70.042664 
L 127.75354 -70.636442 
L 128.492514 -71.23022 
L 129.741687 -71.823997 
L 130.499738 -72.417775 
L 130.190909 -73.011553 
L 129.374587 -73.605331 
L 128.973096 -74.199109 
L 129.06175 -74.792886 
L 129.471598 -75.386664 
L 130.679761 -75.980442 
L 132.535059 -76.57422 
L 133.852973 -77.167998 
L 134.329642 -77.761775 
L 134.740668 -78.355553 
L 135.431648 -78.949331 
L 136.393033 -79.543109 
L 137.859606 -80.136887 
L 139.773661 -80.730664 
L 141.48604 -81.324442 
L 142.426004 -81.91822 
L 142.493063 -82.511998 
L 141.735444 -83.105776 
L 140.474105 -83.699553 
L 139.684706 -84.293331 
L 140.17045 -84.887109 
L 141.556675 -85.480887 
L 142.857521 -86.074664 
L 143.631516 -86.668442 
L 144.115635 -87.26222 
L 144.583084 -87.855998 
L 145.09069 -88.449776 
L 145.61859 -89.043553 
L 146.062571 -89.637331 
L 146.342404 -90.231109 
L 146.446345 -90.824887 
L 146.295974 -91.418665 
L 145.968668 -92.012442 
L 145.817671 -92.60622 
L 146.054833 -93.199998 
L 146.571608 -93.793776 
L 147.143104 -94.387554 
L 147.530911 -94.981331 
L 147.615908 -95.575109 
L 147.536055 -96.168887 
L 147.485866 -96.762665 
L 147.418161 -97.356442 
L 147.184795 -97.95022 
L 146.880332 -98.543998 
L 146.7841 -99.137776 
L 147.050615 -99.731554 
L 147.56135 -100.325331 
L 148.033522 -100.919109 
L 148.29588 -101.512887 
L 148.386959 -102.106665 
L 148.406948 -102.700443 
L 148.409733 -103.29422 
L 148.409907 -103.887998 
L 148.409034 -104.481776 
L 148.402465 -105.075554 
L 148.372763 -105.669332 
L 148.293426 -106.263109 
L 148.178804 -106.856887 
L 148.119527 -107.450665 
L 148.41 -107.450665 
L 148.41 -107.450665 
L 148.41 -106.856887 
L 148.41 -106.263109 
L 148.41 -105.669332 
L 148.41 -105.075554 
L 148.41 -104.481776 
L 148.41 -103.887998 
L 148.41 -103.29422 
L 148.41 -102.700443 
L 148.41 -102.106665 
L 148.41 -101.512887 
L 148.41 -100.919109 
L 148.41 -100.325331 
L 148.41 -99.731554 
L 148.41 -99.137776 
L 148.41 -98.543998 
L 148.41 -97.95022 
L 148.41 -97.356442 
L 148.41 -96.762665 
L 148.41 -96.168887 
L 148.41 -95.575109 
L 148.41 -94.981331 
L 148.41 -94.387554 
L 148.41 -93.793776 
L 148.41 -93.199998 
L 148.41 -92.60622 
L 148.41 -92.012442 
L 148.41 -91.418665 
L 148.41 -90.824887 
L 148.41 -90.231109 
L 148.41 -89.637331 
L 148.41 -89.043553 
L 148.41 -88.449776 
L 148.41 -87.855998 
L 148.41 -87.26222 
L 148.41 -86.668442 
L 148.41 -86.074664 
L 148.41 -85.480887 
L 148.41 -84.887109 
L 148.41 -84.293331 
L 148.41 -83.699553 
L 148.41 -83.105776 
L 148.41 -82.511998 
L 148.41 -81.91822 
L 148.41 -81.324442 
L 148.41 -80.730664 
L 148.41 -80.136887 
L 148.41 -79.543109 
L 148.41 -78.949331 
L 148.41 -78.355553 
L 148.41 -77.761775 
L 148.41 -77.167998 
L 148.41 -76.57422 
L 148.41 -75.980442 
L 148.41 -75.386664 
L 148.41 -74.792886 
L 148.41 -74.199109 
L 148.41 -73.605331 
L 148.41 -73.011553 
L 148.41 -72.417775 
L 148.41 -71.823997 
L 148.41 -71.23022 
L 148.41 -70.636442 
L 148.41 -70.042664 
L 148.41 -69.448886 
L 148.41 -68.855109 
L 148.41 -68.261331 
L 148.41 -67.667553 
L 148.41 -67.073775 
L 148.41 -66.479997 
L 148.41 -65.88622 
L 148.41 -65.292442 
L 148.41 -64.698664 
L 148.41 -64.104886 
L 148.41 -63.511108 
L 148.41 -62.917331 
L 148.41 -62.323553 
L 148.41 -61.729775 
L 148.41 -61.135997 
L 148.41 -60.542219 
L 148.41 -59.948442 
L 148.41 -59.354664 
L 148.41 -58.760886 
L 148.41 -58.167108 
L 148.41 -57.573331 
L 148.41 -56.979553 
L 148.41 -56.385775 
L 148.41 -55.791997 
L 148.41 -55.198219 
L 148.41 -54.604442 
L 148.41 -54.010664 
L 148.41 -53.416886 
L 148.41 -52.823108 
L 148.41 -52.22933 
L 148.41 -51.635553 
L 148.41 -51.041775 
L 148.41 -50.447997 
L 148.41 -49.854219 
L 148.41 -49.260441 
L 148.41 -48.666664 
z
" style="stroke: #1a1a1a; stroke-width: 0.5"/>
    </defs>
    <g clip-path="url(#pb6870e3670)">
     <use xlink:href="#m3af6f57e12" x="0" y="144" style="fill: #0b4d0b; stroke: #1a1a1a; stroke-width: 0.5"/>
    </g>
   </g>
   <g id="PolyCollection_4">
    <defs>
     <path id="m9e10400117" d="M 154.288916 -55.069311 
L 153.99 -55.069311 
L 153.99 -55.519944 
L 153.99 -55.970578 
L 153.99 -56.421212 
L 153.99 -56.871846 
L 153.99 -57.32248 
L 153.99 -57.773113 
L 153.99 -58.223747 
L 153.99 -58.674381 
L 153.99 -59.125015 
L 153.99 -59.575649 
L 153.99 -60.026282 
L 153.99 -60.476916 
L 153.99 -60.92755 
L 153.99 -61.378184 
L 153.99 -61.828818 
L 153.99 -62.279451 
L 153.99 -62.730085 
L 153.99 -63.180719 
L 153.99 -63.631353 
L 153.99 -64.081987 
L 153.99 -64.53262 
L 153.99 -64.983254 
L 153.99 -65.433888 
L 153.99 -65.884522 
L 153.99 -66.335156 
L 153.99 -66.785789 
L 153.99 -67.236423 
L 153.99 -67.687057 
L 153.99 -68.137691 
L 153.99 -68.588325 
L 153.99 -69.038958 
L 153.99 -69.489592 
L 153.99 -69.940226 
L 153.99 -70.39086 
L 153.99 -70.841494 
L 153.99 -71.292127 
L 153.99 -71.742761 
L 153.99 -72.193395 
L 153.99 -72.644029 
L 153.99 -73.094663 
L 153.99 -73.545296 
L 153.99 -73.99593 
L 153.99 -74.446564 
L 153.99 -74.897198 
L 153.99 -75.347832 
L 153.99 -75.798465 
L 153.99 -76.249099 
L 153.99 -76.699733 
L 153.99 -77.150367 
L 153.99 -77.601001 
L 153.99 -78.051634 
L 153.99 -78.502268 
L 153.99 -78.952902 
L 153.99 -79.403536 
L 153.99 -79.854169 
L 153.99 -80.304803 
L 153.99 -80.755437 
L 153.99 -81.206071 
L 153.99 -81.656705 
L 153.99 -82.107338 
L 153.99 -82.557972 
L 153.99 -83.008606 
L 153.99 -83.45924 
L 153.99 -83.909874 
L 153.99 -84.360507 
L 153.99 -84.811141 
L 153.99 -85.261775 
L 153.99 -85.712409 
L 153.99 -86.163043 
L 153.99 -86.613676 
L 153.99 -87.06431 
L 153.99 -87.514944 
L 153.99 -87.965578 
L 153.99 -88.416212 
L 153.99 -88.866845 
L 153.99 -89.317479 
L 153.99 -89.768113 
L 153.99 -90.218747 
L 153.99 -90.669381 
L 153.99 -91.120014 
L 153.99 -91.570648 
L 153.99 -92.021282 
L 153.99 -92.471916 
L 153.99 -92.92255 
L 153.99 -93.373183 
L 153.99 -93.823817 
L 153.99 -94.274451 
L 153.99 -94.725085 
L 153.99 -95.175719 
L 153.99 -95.626352 
L 153.99 -96.076986 
L 153.99 -96.52762 
L 153.99 -96.978254 
L 153.99 -97.428888 
L 153.99 -97.879521 
L 153.99 -98.330155 
L 153.99 -98.780789 
L 153.99 -99.231423 
L 153.99 -99.682057 
L 154.241543 -99.682057 
L 154.241543 -99.682057 
L 154.20197 -99.231423 
L 154.121249 -98.780789 
L 154.07052 -98.330155 
L 154.089945 -97.879521 
L 154.171876 -97.428888 
L 154.273661 -96.978254 
L 154.364516 -96.52762 
L 154.474807 -96.076986 
L 154.662149 -95.626352 
L 154.939621 -95.175719 
L 155.256018 -94.725085 
L 155.506956 -94.274451 
L 155.60348 -93.823817 
L 155.560793 -93.373183 
L 155.433649 -92.92255 
L 155.229312 -92.471916 
L 155.007455 -92.021282 
L 154.942203 -91.570648 
L 155.172813 -91.120014 
L 155.640714 -90.669381 
L 156.127169 -90.218747 
L 156.473767 -89.768113 
L 156.692407 -89.317479 
L 156.846358 -88.866845 
L 156.960074 -88.416212 
L 157.026615 -87.965578 
L 157.004929 -87.514944 
L 156.902428 -87.06431 
L 156.887917 -86.613676 
L 157.146612 -86.163043 
L 157.6088 -85.712409 
L 157.98918 -85.261775 
L 158.100913 -84.811141 
L 158.007455 -84.360507 
L 157.886676 -83.909874 
L 157.852414 -83.45924 
L 157.886963 -83.008606 
L 157.905789 -82.557972 
L 157.889365 -82.107338 
L 157.89745 -81.656705 
L 157.982876 -81.206071 
L 158.215262 -80.755437 
L 158.708785 -80.304803 
L 159.399552 -79.854169 
L 159.90861 -79.403536 
L 159.951998 -78.952902 
L 159.781627 -78.502268 
L 159.936908 -78.051634 
L 160.706096 -77.601001 
L 162.024529 -77.150367 
L 163.66894 -76.699733 
L 165.276437 -76.249099 
L 166.378037 -75.798465 
L 166.828857 -75.347832 
L 167.151808 -74.897198 
L 168.078014 -74.446564 
L 169.706814 -73.99593 
L 171.449845 -73.545296 
L 172.872696 -73.094663 
L 174.138832 -72.644029 
L 175.414693 -72.193395 
L 176.31 -71.742761 
L 176.255403 -71.292127 
L 175.2357 -70.841494 
L 173.884788 -70.39086 
L 172.822748 -69.940226 
L 172.154321 -69.489592 
L 171.747157 -69.038958 
L 171.555746 -68.588325 
L 171.41887 -68.137691 
L 170.904197 -67.687057 
L 169.577628 -67.236423 
L 167.459644 -66.785789 
L 165.232944 -66.335156 
L 163.753408 -65.884522 
L 163.218099 -65.433888 
L 163.020189 -64.983254 
L 162.51228 -64.53262 
L 161.739465 -64.081987 
L 161.248975 -63.631353 
L 161.236485 -63.180719 
L 161.177561 -62.730085 
L 160.450366 -62.279451 
L 159.061179 -61.828818 
L 157.543876 -61.378184 
L 156.371868 -60.92755 
L 155.692634 -60.476916 
L 155.457929 -60.026282 
L 155.598979 -59.575649 
L 156.13042 -59.125015 
L 157.039053 -58.674381 
L 157.912778 -58.223747 
L 158.027773 -57.773113 
L 157.173806 -57.32248 
L 155.949174 -56.871846 
L 155.01271 -56.421212 
L 154.532872 -55.970578 
L 154.356747 -55.519944 
L 154.288916 -55.069311 
z
" style="stroke: #1a1a1a; stroke-width: 0.5"/>
    </defs>
    <g clip-path="url(#pb6870e3670)">
     <use xlink:href="#m9e10400117" x="0" y="144" style="fill: #20df20; stroke: #1a1a1a; stroke-width: 0.5"/>
    </g>
   </g>
   <g id="PolyCollection_5">
    <defs>
     <path id="m4746116118" d="M 204.21 -53.609556 
L 203.922156 -53.609556 
L 203.903522 -54.055688 
L 203.880446 -54.501819 
L 203.813968 -54.947951 
L 203.704016 -55.394082 
L 203.502763 -55.840213 
L 203.174506 -56.286345 
L 202.64467 -56.732476 
L 201.722656 -57.178608 
L 200.682104 -57.624739 
L 200.396127 -58.07087 
L 200.910926 -58.517002 
L 201.285197 -58.963133 
L 201.087353 -59.409265 
L 200.616178 -59.855396 
L 200.320503 -60.301528 
L 200.337926 -60.747659 
L 200.127123 -61.19379 
L 199.212692 -61.639922 
L 198.12205 -62.086053 
L 197.622464 -62.532185 
L 197.486825 -62.978316 
L 196.79 -63.424448 
L 195.26982 -63.870579 
L 193.601775 -64.31671 
L 192.374169 -64.762842 
L 191.671707 -65.208973 
L 191.23062 -65.655105 
L 190.462962 -66.101236 
L 188.986704 -66.547368 
L 187.224943 -66.993499 
L 185.972867 -67.43963 
L 185.499261 -67.885762 
L 185.274184 -68.331893 
L 184.629514 -68.778025 
L 183.645366 -69.224156 
L 182.694232 -69.670287 
L 181.914262 -70.116419 
L 181.89 -70.56255 
L 182.935749 -71.008682 
L 184.309564 -71.454813 
L 185.437084 -71.900945 
L 186.55311 -72.347076 
L 187.921503 -72.793207 
L 189.220157 -73.239339 
L 190.016073 -73.68547 
L 190.63257 -74.131602 
L 191.704015 -74.577733 
L 192.902183 -75.023865 
L 193.330419 -75.469996 
L 193.108764 -75.916127 
L 193.179804 -76.362259 
L 193.813922 -76.80839 
L 194.589047 -77.254522 
L 195.407654 -77.700653 
L 196.446188 -78.146785 
L 197.465621 -78.592916 
L 198.097286 -79.039047 
L 198.611092 -79.485179 
L 199.455129 -79.93131 
L 200.446469 -80.377442 
L 201.163917 -80.823573 
L 201.552239 -81.269705 
L 201.88927 -81.715836 
L 202.392178 -82.161967 
L 202.914412 -82.608099 
L 203.184587 -83.05423 
L 203.168853 -83.500362 
L 202.888567 -83.946493 
L 202.207575 -84.392624 
L 201.33897 -84.838756 
L 200.927678 -85.284887 
L 201.095626 -85.731019 
L 201.384873 -86.17715 
L 201.656472 -86.623282 
L 202.071933 -87.069413 
L 202.521666 -87.515544 
L 202.715305 -87.961676 
L 202.685131 -88.407807 
L 202.786868 -88.853939 
L 203.201027 -89.30007 
L 203.712493 -89.746202 
L 204.047099 -90.192333 
L 204.17451 -90.638464 
L 204.196745 -91.084596 
L 204.168134 -91.530727 
L 204.087183 -91.976859 
L 203.985522 -92.42299 
L 203.956609 -92.869122 
L 204.033377 -93.315253 
L 204.133979 -93.761384 
L 204.189795 -94.207516 
L 204.206682 -94.653647 
L 204.20962 -95.099779 
L 204.209358 -95.54591 
L 204.204562 -95.992041 
L 204.180615 -96.438173 
L 204.11193 -96.884304 
L 204.007893 -97.330436 
L 203.952803 -97.776567 
L 204.21 -97.776567 
L 204.21 -97.776567 
L 204.21 -97.330436 
L 204.21 -96.884304 
L 204.21 -96.438173 
L 204.21 -95.992041 
L 204.21 -95.54591 
L 204.21 -95.099779 
L 204.21 -94.653647 
L 204.21 -94.207516 
L 204.21 -93.761384 
L 204.21 -93.315253 
L 204.21 -92.869122 
L 204.21 -92.42299 
L 204.21 -91.976859 
L 204.21 -91.530727 
L 204.21 -91.084596 
L 204.21 -90.638464 
L 204.21 -90.192333 
L 204.21 -89.746202 
L 204.21 -89.30007 
L 204.21 -88.853939 
L 204.21 -88.407807 
L 204.21 -87.961676 
L 204.21 -87.515544 
L 204.21 -87.069413 
L 204.21 -86.623282 
L 204.21 -86.17715 
L 204.21 -85.731019 
L 204.21 -85.284887 
L 204.21 -84.838756 
L 204.21 -84.392624 
L 204.21 -83.946493 
L 204.21 -83.500362 
L 204.21 -83.05423 
L 204.21 -82.608099 
L 204.21 -82.161967 
L 204.21 -81.715836 
L 204.21 -81.269705 
L 204.21 -80.823573 
L 204.21 -80.377442 
L 204.21 -79.93131 
L 204.21 -79.485179 
L 204.21 -79.039047 
L 204.21 -78.592916 
L 204.21 -78.146785 
L 204.21 -77.700653 
L 204.21 -77.254522 
L 204.21 -76.80839 
L 204.21 -76.362259 
L 204.21 -75.916127 
L 204.21 -75.469996 
L 204.21 -75.023865 
L 204.21 -74.577733 
L 204.21 -74.131602 
L 204.21 -73.68547 
L 204.21 -73.239339 
L 204.21 -72.793207 
L 204.21 -72.347076 
L 204.21 -71.900945 
L 204.21 -71.454813 
L 204.21 -71.008682 
L 204.21 -70.56255 
L 204.21 -70.116419 
L 204.21 -69.670287 
L 204.21 -69.224156 
L 204.21 -68.778025 
L 204.21 -68.331893 
L 204.21 -67.885762 
L 204.21 -67.43963 
L 204.21 -66.993499 
L 204.21 -66.547368 
L 204.21 -66.101236 
L 204.21 -65.655105 
L 204.21 -65.208973 
L 204.21 -64.762842 
L 204.21 -64.31671 
L 204.21 -63.870579 
L 204.21 -63.424448 
L 204.21 -62.978316 
L 204.21 -62.532185 
L 204.21 -62.086053 
L 204.21 -61.639922 
L 204.21 -61.19379 
L 204.21 -60.747659 
L 204.21 -60.301528 
L 204.21 -59.855396 
L 204.21 -59.409265 
L 204.21 -58.963133 
L 204.21 -58.517002 
L 204.21 -58.07087 
L 204.21 -57.624739 
L 204.21 -57.178608 
L 204.21 -56.732476 
L 204.21 -56.286345 
L 204.21 -55.840213 
L 204.21 -55.394082 
L 204.21 -54.947951 
L 204.21 -54.501819 
L 204.21 -54.055688 
L 204.21 -53.609556 
z
" style="stroke: #1a1a1a; stroke-width: 0.5"/>
    </defs>
    <g clip-path="url(#pb6870e3670)">
     <use xlink:href="#m4746116118" x="0" y="144" style="fill: #20dfb1; stroke: #1a1a1a; stroke-width: 0.5"/>
    </g>
   </g>
   <g id="PolyCollection_6">
    <defs>
     <path id="m0970885eb0" d="M 210.523718 -45.68968 
L 209.79 -45.68968 
L 209.79 -46.245062 
L 209.79 -46.800444 
L 209.79 -47.355826 
L 209.79 -47.911208 
L 209.79 -48.466589 
L 209.79 -49.021971 
L 209.79 -49.577353 
L 209.79 -50.132735 
L 209.79 -50.688117 
L 209.79 -51.243499 
L 209.79 -51.798881 
L 209.79 -52.354263 
L 209.79 -52.909644 
L 209.79 -53.465026 
L 209.79 -54.020408 
L 209.79 -54.57579 
L 209.79 -55.131172 
L 209.79 -55.686554 
L 209.79 -56.241936 
L 209.79 -56.797318 
L 209.79 -57.352699 
L 209.79 -57.908081 
L 209.79 -58.463463 
L 209.79 -59.018845 
L 209.79 -59.574227 
L 209.79 -60.129609 
L 209.79 -60.684991 
L 209.79 -61.240373 
L 209.79 -61.795754 
L 209.79 -62.351136 
L 209.79 -62.906518 
L 209.79 -63.4619 
L 209.79 -64.017282 
L 209.79 -64.572664 
L 209.79 -65.128046 
L 209.79 -65.683427 
L 209.79 -66.238809 
L 209.79 -66.794191 
L 209.79 -67.349573 
L 209.79 -67.904955 
L 209.79 -68.460337 
L 209.79 -69.015719 
L 209.79 -69.571101 
L 209.79 -70.126482 
L 209.79 -70.681864 
L 209.79 -71.237246 
L 209.79 -71.792628 
L 209.79 -72.34801 
L 209.79 -72.903392 
L 209.79 -73.458774 
L 209.79 -74.014156 
L 209.79 -74.569537 
L 209.79 -75.124919 
L 209.79 -75.680301 
L 209.79 -76.235683 
L 209.79 -76.791065 
L 209.79 -77.346447 
L 209.79 -77.901829 
L 209.79 -78.457211 
L 209.79 -79.012592 
L 209.79 -79.567974 
L 209.79 -80.123356 
L 209.79 -80.678738 
L 209.79 -81.23412 
L 209.79 -81.789502 
L 209.79 -82.344884 
L 209.79 -82.900266 
L 209.79 -83.455647 
L 209.79 -84.011029 
L 209.79 -84.566411 
L 209.79 -85.121793 
L 209.79 -85.677175 
L 209.79 -86.232557 
L 209.79 -86.787939 
L 209.79 -87.343321 
L 209.79 -87.898702 
L 209.79 -88.454084 
L 209.79 -89.009466 
L 209.79 -89.564848 
L 209.79 -90.12023 
L 209.79 -90.675612 
L 209.79 -91.230994 
L 209.79 -91.786375 
L 209.79 -92.341757 
L 209.79 -92.897139 
L 209.79 -93.452521 
L 209.79 -94.007903 
L 209.79 -94.563285 
L 209.79 -95.118667 
L 209.79 -95.674049 
L 209.79 -96.22943 
L 209.79 -96.784812 
L 209.79 -97.340194 
L 209.79 -97.895576 
L 209.79 -98.450958 
L 209.79 -99.00634 
L 209.79 -99.561722 
L 209.79 -100.117104 
L 209.79 -100.672485 
L 210.382428 -100.672485 
L 210.382428 -100.672485 
L 210.564836 -100.117104 
L 210.754324 -99.561722 
L 210.957125 -99.00634 
L 211.142627 -98.450958 
L 211.286201 -97.895576 
L 211.42348 -97.340194 
L 211.610229 -96.784812 
L 211.819245 -96.22943 
L 211.935632 -95.674049 
L 211.88468 -95.118667 
L 211.733237 -94.563285 
L 211.650785 -94.007903 
L 211.785176 -93.452521 
L 212.135437 -92.897139 
L 212.500482 -92.341757 
L 212.634967 -91.786375 
L 212.539695 -91.230994 
L 212.523868 -90.675612 
L 212.893858 -90.12023 
L 213.634866 -89.564848 
L 214.451251 -89.009466 
L 215.029955 -88.454084 
L 215.230724 -87.898702 
L 215.150445 -87.343321 
L 215.060216 -86.787939 
L 215.199771 -86.232557 
L 215.573944 -85.677175 
L 215.955061 -85.121793 
L 216.133133 -84.566411 
L 216.154295 -84.011029 
L 216.205709 -83.455647 
L 216.310993 -82.900266 
L 216.325366 -82.344884 
L 216.195283 -81.789502 
L 216.06731 -81.23412 
L 216.1569 -80.678738 
L 216.568862 -80.123356 
L 217.242862 -79.567974 
L 218.050049 -79.012592 
L 218.896896 -78.457211 
L 219.743279 -77.901829 
L 220.622958 -77.346447 
L 221.722581 -76.791065 
L 223.253819 -76.235683 
L 225.019333 -75.680301 
L 226.442751 -75.124919 
L 227.369673 -74.569537 
L 228.350829 -74.014156 
L 229.794812 -73.458774 
L 231.309918 -72.903392 
L 232.11 -72.34801 
L 231.80979 -71.792628 
L 230.751667 -71.237246 
L 229.662398 -70.681864 
L 229.035204 -70.126482 
L 228.854051 -69.571101 
L 228.871783 -69.015719 
L 228.9486 -68.460337 
L 228.993115 -67.904955 
L 228.919294 -67.349573 
L 228.889605 -66.794191 
L 229.148426 -66.238809 
L 229.513529 -65.683427 
L 229.564027 -65.128046 
L 229.256881 -64.572664 
L 228.8893 -64.017282 
L 228.619184 -63.4619 
L 228.354382 -62.906518 
L 227.998147 -62.351136 
L 227.580921 -61.795754 
L 227.102832 -61.240373 
L 226.385854 -60.684991 
L 225.300125 -60.129609 
L 224.124239 -59.574227 
L 223.372952 -59.018845 
L 223.074713 -58.463463 
L 222.540107 -57.908081 
L 221.220146 -57.352699 
L 219.444233 -56.797318 
L 217.9361 -56.241936 
L 217.038543 -55.686554 
L 216.659581 -55.131172 
L 216.527384 -54.57579 
L 216.308991 -54.020408 
L 215.760767 -53.465026 
L 214.908758 -52.909644 
L 213.973118 -52.354263 
L 213.085621 -51.798881 
L 212.21449 -51.243499 
L 211.36655 -50.688117 
L 210.685372 -50.132735 
L 210.302413 -49.577353 
L 210.191999 -49.021971 
L 210.208198 -48.466589 
L 210.235012 -47.911208 
L 210.277874 -47.355826 
L 210.386456 -46.800444 
L 210.512716 -46.245062 
L 210.523718 -45.68968 
z
" style="stroke: #1a1a1a; stroke-width: 0.5"/>
    </defs>
    <g clip-path="url(#pb6870e3670)">
     <use xlink:href="#m0970885eb0" x="0" y="144" style="fill: #eba9d7; stroke: #1a1a1a; stroke-width: 0.5"/>
    </g>
   </g>
   <g id="PolyCollection_7">
    <defs>
     <path id="m96c50cf9db" d="M 260.01 -43.337917 
L 259.514865 -43.337917 
L 259.361363 -43.852646 
L 259.352958 -44.367375 
L 259.521678 -44.882104 
L 259.755373 -45.396834 
L 259.909176 -45.911563 
L 259.930378 -46.426292 
L 259.819194 -46.941021 
L 259.613133 -47.455751 
L 259.43382 -47.97048 
L 259.357128 -48.485209 
L 259.254247 -48.999938 
L 259.018911 -49.514668 
L 258.820114 -50.029397 
L 258.822716 -50.544126 
L 258.893028 -51.058855 
L 258.81011 -51.573585 
L 258.512807 -52.088314 
L 258.131419 -52.603043 
L 257.919946 -53.117772 
L 258.024561 -53.632502 
L 258.326361 -54.147231 
L 258.547706 -54.66196 
L 258.370913 -55.176689 
L 257.514117 -55.691419 
L 255.911551 -56.206148 
L 253.778106 -56.720877 
L 251.626188 -57.235606 
L 250.332483 -57.750336 
L 250.405304 -58.265065 
L 251.165985 -58.779794 
L 251.579321 -59.294523 
L 251.296938 -59.809253 
L 250.439676 -60.323982 
L 249.380773 -60.838711 
L 248.772308 -61.35344 
L 248.897535 -61.86817 
L 249.142336 -62.382899 
L 248.671075 -62.897628 
L 247.383405 -63.412357 
L 245.939335 -63.927087 
L 245.025511 -64.441816 
L 244.669111 -64.956545 
L 244.208957 -65.471274 
L 242.974295 -65.986004 
L 241.006828 -66.500733 
L 239.077475 -67.015462 
L 238.084817 -67.530191 
L 238.37492 -68.044921 
L 239.309995 -68.55965 
L 239.696826 -69.074379 
L 239.061277 -69.589108 
L 238.089374 -70.103838 
L 237.69 -70.618567 
L 238.059838 -71.133296 
L 238.802753 -71.648025 
L 239.738549 -72.162755 
L 240.977254 -72.677484 
L 242.520081 -73.192213 
L 244.346466 -73.706942 
L 246.394761 -74.221672 
L 248.331349 -74.736401 
L 249.831151 -75.25113 
L 250.960754 -75.765859 
L 251.862937 -76.280589 
L 252.515937 -76.795318 
L 252.973562 -77.310047 
L 253.420096 -77.824776 
L 253.997468 -78.339505 
L 254.553828 -78.854235 
L 254.721115 -79.368964 
L 254.515547 -79.883693 
L 254.449651 -80.398422 
L 254.856739 -80.913152 
L 255.583429 -81.427881 
L 256.3131 -81.94261 
L 256.725224 -82.457339 
L 256.553704 -82.972069 
L 255.965109 -83.486798 
L 255.623313 -84.001527 
L 256.049494 -84.516256 
L 257.060815 -85.030986 
L 258.04201 -85.545715 
L 258.638122 -86.060444 
L 258.917722 -86.575173 
L 259.065261 -87.089903 
L 259.170873 -87.604632 
L 259.238982 -88.119361 
L 259.260208 -88.63409 
L 259.215237 -89.14882 
L 259.087539 -89.663549 
L 258.925002 -90.178278 
L 258.808854 -90.693007 
L 258.769577 -91.207737 
L 258.830261 -91.722466 
L 258.999597 -92.237195 
L 259.160061 -92.751924 
L 259.178824 -93.266654 
L 259.137327 -93.781383 
L 259.244691 -94.296112 
L 260.01 -94.296112 
L 260.01 -94.296112 
L 260.01 -93.781383 
L 260.01 -93.266654 
L 260.01 -92.751924 
L 260.01 -92.237195 
L 260.01 -91.722466 
L 260.01 -91.207737 
L 260.01 -90.693007 
L 260.01 -90.178278 
L 260.01 -89.663549 
L 260.01 -89.14882 
L 260.01 -88.63409 
L 260.01 -88.119361 
L 260.01 -87.604632 
L 260.01 -87.089903 
L 260.01 -86.575173 
L 260.01 -86.060444 
L 260.01 -85.545715 
L 260.01 -85.030986 
L 260.01 -84.516256 
L 260.01 -84.001527 
L 260.01 -83.486798 
L 260.01 -82.972069 
L 260.01 -82.457339 
L 260.01 -81.94261 
L 260.01 -81.427881 
L 260.01 -80.913152 
L 260.01 -80.398422 
L 260.01 -79.883693 
L 260.01 -79.368964 
L 260.01 -78.854235 
L 260.01 -78.339505 
L 260.01 -77.824776 
L 260.01 -77.310047 
L 260.01 -76.795318 
L 260.01 -76.280589 
L 260.01 -75.765859 
L 260.01 -75.25113 
L 260.01 -74.736401 
L 260.01 -74.221672 
L 260.01 -73.706942 
L 260.01 -73.192213 
L 260.01 -72.677484 
L 260.01 -72.162755 
L 260.01 -71.648025 
L 260.01 -71.133296 
L 260.01 -70.618567 
L 260.01 -70.103838 
L 260.01 -69.589108 
L 260.01 -69.074379 
L 260.01 -68.55965 
L 260.01 -68.044921 
L 260.01 -67.530191 
L 260.01 -67.015462 
L 260.01 -66.500733 
L 260.01 -65.986004 
L 260.01 -65.471274 
L 260.01 -64.956545 
L 260.01 -64.441816 
L 260.01 -63.927087 
L 260.01 -63.412357 
L 260.01 -62.897628 
L 260.01 -62.382899 
L 260.01 -61.86817 
L 260.01 -61.35344 
L 260.01 -60.838711 
L 260.01 -60.323982 
L 260.01 -59.809253 
L 260.01 -59.294523 
L 260.01 -58.779794 
L 260.01 -58.265065 
L 260.01 -57.750336 
L 260.01 -57.235606 
L 260.01 -56.720877 
L 260.01 -56.206148 
L 260.01 -55.691419 
L 260.01 -55.176689 
L 260.01 -54.66196 
L 260.01 -54.147231 
L 260.01 -53.632502 
L 260.01 -53.117772 
L 260.01 -52.603043 
L 260.01 -52.088314 
L 260.01 -51.573585 
L 260.01 -51.058855 
L 260.01 -50.544126 
L 260.01 -50.029397 
L 260.01 -49.514668 
L 260.01 -48.999938 
L 260.01 -48.485209 
L 260.01 -47.97048 
L 260.01 -47.455751 
L 260.01 -46.941021 
L 260.01 -46.426292 
L 260.01 -45.911563 
L 260.01 -45.396834 
L 260.01 -44.882104 
L 260.01 -44.367375 
L 260.01 -43.852646 
L 260.01 -43.337917 
z
" style="stroke: #1a1a1a; stroke-width: 0.5"/>
    </defs>
    <g clip-path="url(#pb6870e3670)">
     <use xlink:href="#m96c50cf9db" x="0" y="144" style="fill: #935851; stroke: #1a1a1a; stroke-width: 0.5"/>
    </g>
   </g>
   <g id="PolyCollection_8">
    <defs>
     <path id="m3f14fded8b" d="M 266.369369 -48.232919 
L 265.59 -48.232919 
L 265.59 -48.750872 
L 265.59 -49.268825 
L 265.59 -49.786778 
L 265.59 -50.304731 
L 265.59 -50.822684 
L 265.59 -51.340637 
L 265.59 -51.85859 
L 265.59 -52.376543 
L 265.59 -52.894495 
L 265.59 -53.412448 
L 265.59 -53.930401 
L 265.59 -54.448354 
L 265.59 -54.966307 
L 265.59 -55.48426 
L 265.59 -56.002213 
L 265.59 -56.520166 
L 265.59 -57.038119 
L 265.59 -57.556072 
L 265.59 -58.074025 
L 265.59 -58.591978 
L 265.59 -59.10993 
L 265.59 -59.627883 
L 265.59 -60.145836 
L 265.59 -60.663789 
L 265.59 -61.181742 
L 265.59 -61.699695 
L 265.59 -62.217648 
L 265.59 -62.735601 
L 265.59 -63.253554 
L 265.59 -63.771507 
L 265.59 -64.28946 
L 265.59 -64.807412 
L 265.59 -65.325365 
L 265.59 -65.843318 
L 265.59 -66.361271 
L 265.59 -66.879224 
L 265.59 -67.397177 
L 265.59 -67.91513 
L 265.59 -68.433083 
L 265.59 -68.951036 
L 265.59 -69.468989 
L 265.59 -69.986942 
L 265.59 -70.504895 
L 265.59 -71.022847 
L 265.59 -71.5408 
L 265.59 -72.058753 
L 265.59 -72.576706 
L 265.59 -73.094659 
L 265.59 -73.612612 
L 265.59 -74.130565 
L 265.59 -74.648518 
L 265.59 -75.166471 
L 265.59 -75.684424 
L 265.59 -76.202377 
L 265.59 -76.720329 
L 265.59 -77.238282 
L 265.59 -77.756235 
L 265.59 -78.274188 
L 265.59 -78.792141 
L 265.59 -79.310094 
L 265.59 -79.828047 
L 265.59 -80.346 
L 265.59 -80.863953 
L 265.59 -81.381906 
L 265.59 -81.899859 
L 265.59 -82.417812 
L 265.59 -82.935764 
L 265.59 -83.453717 
L 265.59 -83.97167 
L 265.59 -84.489623 
L 265.59 -85.007576 
L 265.59 -85.525529 
L 265.59 -86.043482 
L 265.59 -86.561435 
L 265.59 -87.079388 
L 265.59 -87.597341 
L 265.59 -88.115294 
L 265.59 -88.633246 
L 265.59 -89.151199 
L 265.59 -89.669152 
L 265.59 -90.187105 
L 265.59 -90.705058 
L 265.59 -91.223011 
L 265.59 -91.740964 
L 265.59 -92.258917 
L 265.59 -92.77687 
L 265.59 -93.294823 
L 265.59 -93.812776 
L 265.59 -94.330729 
L 265.59 -94.848681 
L 265.59 -95.366634 
L 265.59 -95.884587 
L 265.59 -96.40254 
L 265.59 -96.920493 
L 265.59 -97.438446 
L 265.59 -97.956399 
L 265.59 -98.474352 
L 265.59 -98.992305 
L 265.59 -99.510258 
L 265.867332 -99.510258 
L 265.867332 -99.510258 
L 265.878434 -98.992305 
L 265.879698 -98.474352 
L 265.892142 -97.956399 
L 265.893643 -97.438446 
L 265.92084 -96.920493 
L 266.011629 -96.40254 
L 266.082706 -95.884587 
L 266.037255 -95.366634 
L 265.931729 -94.848681 
L 265.889923 -94.330729 
L 265.932906 -93.812776 
L 266.029748 -93.294823 
L 266.209109 -92.77687 
L 266.490698 -92.258917 
L 266.802422 -91.740964 
L 266.978344 -91.223011 
L 266.846926 -90.705058 
L 266.481732 -90.187105 
L 266.220661 -89.669152 
L 266.303424 -89.151199 
L 266.654254 -88.633246 
L 266.995141 -88.115294 
L 267.085518 -87.597341 
L 266.925739 -87.079388 
L 266.71003 -86.561435 
L 266.581539 -86.043482 
L 266.561853 -85.525529 
L 266.654856 -85.007576 
L 266.859994 -84.489623 
L 267.113216 -83.97167 
L 267.329741 -83.453717 
L 267.525219 -82.935764 
L 267.758736 -82.417812 
L 267.988484 -81.899859 
L 268.190231 -81.381906 
L 268.484596 -80.863953 
L 268.928801 -80.346 
L 269.446485 -79.828047 
L 269.944177 -79.310094 
L 270.254358 -78.792141 
L 270.327959 -78.274188 
L 270.450286 -77.756235 
L 270.836419 -77.238282 
L 271.294968 -76.720329 
L 271.684112 -76.202377 
L 272.260602 -75.684424 
L 273.19357 -75.166471 
L 274.261446 -74.648518 
L 275.138111 -74.130565 
L 275.640525 -73.612612 
L 276.042259 -73.094659 
L 276.959959 -72.576706 
L 278.388569 -72.058753 
L 279.568951 -71.5408 
L 280.121941 -71.022847 
L 280.597969 -70.504895 
L 281.843832 -69.986942 
L 283.961412 -69.468989 
L 286.083095 -68.951036 
L 287.329808 -68.433083 
L 287.719064 -67.91513 
L 287.846546 -67.397177 
L 287.91 -66.879224 
L 287.725138 -66.361271 
L 287.369309 -65.843318 
L 287.137445 -65.325365 
L 287.126958 -64.807412 
L 287.03082 -64.28946 
L 286.225071 -63.771507 
L 284.433082 -63.253554 
L 282.406608 -62.735601 
L 281.249639 -62.217648 
L 281.10524 -61.699695 
L 281.146008 -61.181742 
L 280.621568 -60.663789 
L 279.559568 -60.145836 
L 278.612022 -59.627883 
L 278.330679 -59.10993 
L 278.697497 -58.591978 
L 279.001324 -58.074025 
L 278.16082 -57.556072 
L 276.036635 -57.038119 
L 273.714922 -56.520166 
L 271.981772 -56.002213 
L 270.757856 -55.48426 
L 269.840003 -54.966307 
L 269.196838 -54.448354 
L 268.790042 -53.930401 
L 268.488742 -53.412448 
L 268.180074 -52.894495 
L 267.973717 -52.376543 
L 268.055208 -51.85859 
L 268.288072 -51.340637 
L 268.308254 -50.822684 
L 268.003616 -50.304731 
L 267.577393 -49.786778 
L 267.180818 -49.268825 
L 266.78531 -48.750872 
L 266.369369 -48.232919 
z
" style="stroke: #1a1a1a; stroke-width: 0.5"/>
    </defs>
    <g clip-path="url(#pb6870e3670)">
     <use xlink:href="#m3f14fded8b" x="0" y="144" style="fill: #2020df; stroke: #1a1a1a; stroke-width: 0.5"/>
    </g>
   </g>
   <g id="PolyCollection_9">
    <defs>
     <path id="m1310928886" d="M 315.81 -44.094077 
L 315.416037 -44.094077 
L 315.502381 -44.646559 
L 315.662669 -45.199042 
L 315.758606 -45.751524 
L 315.753996 -46.304007 
L 315.649293 -46.856489 
L 315.488432 -47.408972 
L 315.412905 -47.961454 
L 315.490611 -48.513937 
L 315.571569 -49.066419 
L 315.513767 -49.618902 
L 315.401754 -50.171384 
L 315.358763 -50.723867 
L 315.237103 -51.276349 
L 314.781233 -51.828832 
L 314.036483 -52.381314 
L 313.196972 -52.933797 
L 312.231943 -53.486279 
L 311.246929 -54.038762 
L 310.666158 -54.591244 
L 310.604185 -55.143727 
L 310.703234 -55.696209 
L 310.134021 -56.248692 
L 307.63603 -56.801174 
L 303.318781 -57.353657 
L 299.847096 -57.906139 
L 299.175605 -58.458622 
L 300.155632 -59.011105 
L 300.940332 -59.563587 
L 300.791829 -60.11607 
L 299.865854 -60.668552 
L 298.640207 -61.221035 
L 297.21504 -61.773517 
L 295.445013 -62.326 
L 293.890046 -62.878482 
L 293.49 -63.430965 
L 294.215841 -63.983447 
L 295.15058 -64.53593 
L 295.368297 -65.088412 
L 294.803944 -65.640895 
L 294.229325 -66.193377 
L 294.213079 -66.74586 
L 295.002648 -67.298342 
L 296.754627 -67.850825 
L 298.989892 -68.403307 
L 300.54938 -68.95579 
L 300.801019 -69.508272 
L 300.384595 -70.060755 
L 300.50072 -70.613237 
L 301.575454 -71.16572 
L 302.794392 -71.718202 
L 303.699235 -72.270685 
L 304.858941 -72.823167 
L 306.296878 -73.37565 
L 307.340252 -73.928132 
L 307.857646 -74.480615 
L 308.363001 -75.033097 
L 309.218545 -75.58558 
L 310.152538 -76.138062 
L 310.669241 -76.690545 
L 310.816825 -77.243027 
L 311.006881 -77.79551 
L 311.332053 -78.347993 
L 311.712405 -78.900475 
L 312.042055 -79.452958 
L 312.080169 -80.00544 
L 311.816217 -80.557923 
L 311.685177 -81.110405 
L 312.092233 -81.662888 
L 312.92233 -82.21537 
L 313.629009 -82.767853 
L 313.825457 -83.320335 
L 313.698539 -83.872818 
L 313.710945 -84.4253 
L 314.082008 -84.977783 
L 314.601918 -85.530265 
L 314.799739 -86.082748 
L 314.408428 -86.63523 
L 313.815178 -87.187713 
L 313.700297 -87.740195 
L 314.148708 -88.292678 
L 314.658929 -88.84516 
L 314.900824 -89.397643 
L 314.949212 -89.950125 
L 314.992469 -90.502608 
L 315.136099 -91.05509 
L 315.320907 -91.607573 
L 315.380396 -92.160055 
L 315.288677 -92.712538 
L 315.197441 -93.26502 
L 315.223778 -93.817503 
L 315.382079 -94.369985 
L 315.591482 -94.922468 
L 315.737304 -95.47495 
L 315.794067 -96.027433 
L 315.800564 -96.579915 
L 315.767423 -97.132398 
L 315.663673 -97.684881 
L 315.50245 -98.237363 
L 315.41604 -98.789846 
L 315.81 -98.789846 
L 315.81 -98.789846 
L 315.81 -98.237363 
L 315.81 -97.684881 
L 315.81 -97.132398 
L 315.81 -96.579915 
L 315.81 -96.027433 
L 315.81 -95.47495 
L 315.81 -94.922468 
L 315.81 -94.369985 
L 315.81 -93.817503 
L 315.81 -93.26502 
L 315.81 -92.712538 
L 315.81 -92.160055 
L 315.81 -91.607573 
L 315.81 -91.05509 
L 315.81 -90.502608 
L 315.81 -89.950125 
L 315.81 -89.397643 
L 315.81 -88.84516 
L 315.81 -88.292678 
L 315.81 -87.740195 
L 315.81 -87.187713 
L 315.81 -86.63523 
L 315.81 -86.082748 
L 315.81 -85.530265 
L 315.81 -84.977783 
L 315.81 -84.4253 
L 315.81 -83.872818 
L 315.81 -83.320335 
L 315.81 -82.767853 
L 315.81 -82.21537 
L 315.81 -81.662888 
L 315.81 -81.110405 
L 315.81 -80.557923 
L 315.81 -80.00544 
L 315.81 -79.452958 
L 315.81 -78.900475 
L 315.81 -78.347993 
L 315.81 -77.79551 
L 315.81 -77.243027 
L 315.81 -76.690545 
L 315.81 -76.138062 
L 315.81 -75.58558 
L 315.81 -75.033097 
L 315.81 -74.480615 
L 315.81 -73.928132 
L 315.81 -73.37565 
L 315.81 -72.823167 
L 315.81 -72.270685 
L 315.81 -71.718202 
L 315.81 -71.16572 
L 315.81 -70.613237 
L 315.81 -70.060755 
L 315.81 -69.508272 
L 315.81 -68.95579 
L 315.81 -68.403307 
L 315.81 -67.850825 
L 315.81 -67.298342 
L 315.81 -66.74586 
L 315.81 -66.193377 
L 315.81 -65.640895 
L 315.81 -65.088412 
L 315.81 -64.53593 
L 315.81 -63.983447 
L 315.81 -63.430965 
L 315.81 -62.878482 
L 315.81 -62.326 
L 315.81 -61.773517 
L 315.81 -61.221035 
L 315.81 -60.668552 
L 315.81 -60.11607 
L 315.81 -59.563587 
L 315.81 -59.011105 
L 315.81 -58.458622 
L 315.81 -57.906139 
L 315.81 -57.353657 
L 315.81 -56.801174 
L 315.81 -56.248692 
L 315.81 -55.696209 
L 315.81 -55.143727 
L 315.81 -54.591244 
L 315.81 -54.038762 
L 315.81 -53.486279 
L 315.81 -52.933797 
L 315.81 -52.381314 
L 315.81 -51.828832 
L 315.81 -51.276349 
L 315.81 -50.723867 
L 315.81 -50.171384 
L 315.81 -49.618902 
L 315.81 -49.066419 
L 315.81 -48.513937 
L 315.81 -47.961454 
L 315.81 -47.408972 
L 315.81 -46.856489 
L 315.81 -46.304007 
L 315.81 -45.751524 
L 315.81 -45.199042 
L 315.81 -44.646559 
L 315.81 -44.094077 
z
" style="stroke: #1a1a1a; stroke-width: 0.5"/>
    </defs>
    <g clip-path="url(#pb6870e3670)">
     <use xlink:href="#m1310928886" x="0" y="144" style="fill: #c02fe1; stroke: #1a1a1a; stroke-width: 0.5"/>
    </g>
   </g>
   <g id="PolyCollection_10">
    <defs>
     <path id="me539d50bcc" d="M 321.724989 -41.435937 
L 321.39 -41.435937 
L 321.39 -41.975869 
L 321.39 -42.5158 
L 321.39 -43.055732 
L 321.39 -43.595663 
L 321.39 -44.135595 
L 321.39 -44.675526 
L 321.39 -45.215458 
L 321.39 -45.755389 
L 321.39 -46.295321 
L 321.39 -46.835252 
L 321.39 -47.375184 
L 321.39 -47.915115 
L 321.39 -48.455047 
L 321.39 -48.994978 
L 321.39 -49.53491 
L 321.39 -50.074841 
L 321.39 -50.614773 
L 321.39 -51.154704 
L 321.39 -51.694636 
L 321.39 -52.234568 
L 321.39 -52.774499 
L 321.39 -53.314431 
L 321.39 -53.854362 
L 321.39 -54.394294 
L 321.39 -54.934225 
L 321.39 -55.474157 
L 321.39 -56.014088 
L 321.39 -56.55402 
L 321.39 -57.093951 
L 321.39 -57.633883 
L 321.39 -58.173814 
L 321.39 -58.713746 
L 321.39 -59.253677 
L 321.39 -59.793609 
L 321.39 -60.33354 
L 321.39 -60.873472 
L 321.39 -61.413403 
L 321.39 -61.953335 
L 321.39 -62.493267 
L 321.39 -63.033198 
L 321.39 -63.57313 
L 321.39 -64.113061 
L 321.39 -64.652993 
L 321.39 -65.192924 
L 321.39 -65.732856 
L 321.39 -66.272787 
L 321.39 -66.812719 
L 321.39 -67.35265 
L 321.39 -67.892582 
L 321.39 -68.432513 
L 321.39 -68.972445 
L 321.39 -69.512376 
L 321.39 -70.052308 
L 321.39 -70.592239 
L 321.39 -71.132171 
L 321.39 -71.672102 
L 321.39 -72.212034 
L 321.39 -72.751965 
L 321.39 -73.291897 
L 321.39 -73.831829 
L 321.39 -74.37176 
L 321.39 -74.911692 
L 321.39 -75.451623 
L 321.39 -75.991555 
L 321.39 -76.531486 
L 321.39 -77.071418 
L 321.39 -77.611349 
L 321.39 -78.151281 
L 321.39 -78.691212 
L 321.39 -79.231144 
L 321.39 -79.771075 
L 321.39 -80.311007 
L 321.39 -80.850938 
L 321.39 -81.39087 
L 321.39 -81.930801 
L 321.39 -82.470733 
L 321.39 -83.010664 
L 321.39 -83.550596 
L 321.39 -84.090528 
L 321.39 -84.630459 
L 321.39 -85.170391 
L 321.39 -85.710322 
L 321.39 -86.250254 
L 321.39 -86.790185 
L 321.39 -87.330117 
L 321.39 -87.870048 
L 321.39 -88.40998 
L 321.39 -88.949911 
L 321.39 -89.489843 
L 321.39 -90.029774 
L 321.39 -90.569706 
L 321.39 -91.109637 
L 321.39 -91.649569 
L 321.39 -92.1895 
L 321.39 -92.729432 
L 321.39 -93.269363 
L 321.39 -93.809295 
L 321.39 -94.349227 
L 321.39 -94.889158 
L 321.726585 -94.889158 
L 321.726585 -94.889158 
L 321.676821 -94.349227 
L 321.588576 -93.809295 
L 321.57298 -93.269363 
L 321.650104 -92.729432 
L 321.730276 -92.1895 
L 321.734928 -91.649569 
L 321.722314 -91.109637 
L 321.833795 -90.569706 
L 322.135296 -90.029774 
L 322.585222 -89.489843 
L 323.098192 -88.949911 
L 323.525541 -88.40998 
L 323.660044 -87.870048 
L 323.417566 -87.330117 
L 322.971436 -86.790185 
L 322.649781 -86.250254 
L 322.708989 -85.710322 
L 323.147022 -85.170391 
L 323.7657 -84.630459 
L 324.455347 -84.090528 
L 325.265505 -83.550596 
L 326.184616 -83.010664 
L 326.995575 -82.470733 
L 327.390596 -81.930801 
L 327.306538 -81.39087 
L 327.070927 -80.850938 
L 327.024256 -80.311007 
L 327.157159 -79.771075 
L 327.203232 -79.231144 
L 326.951092 -78.691212 
L 326.621927 -78.151281 
L 326.748667 -77.611349 
L 327.332486 -77.071418 
L 327.657622 -76.531486 
L 327.285551 -75.991555 
L 326.692208 -75.451623 
L 326.651815 -74.911692 
L 327.39592 -74.37176 
L 328.564179 -73.831829 
L 329.665279 -73.291897 
L 330.511791 -72.751965 
L 331.282859 -72.212034 
L 332.122721 -71.672102 
L 332.948937 -71.132171 
L 333.737759 -70.592239 
L 334.549132 -70.052308 
L 335.362656 -69.512376 
L 336.307953 -68.972445 
L 337.613885 -68.432513 
L 339.068077 -67.892582 
L 340.186703 -67.35265 
L 340.942369 -66.812719 
L 341.686566 -66.272787 
L 342.468275 -65.732856 
L 342.997196 -65.192924 
L 343.209746 -64.652993 
L 343.387213 -64.113061 
L 343.651336 -63.57313 
L 343.71 -63.033198 
L 343.28038 -62.493267 
L 342.40729 -61.953335 
L 341.188428 -61.413403 
L 339.705126 -60.873472 
L 338.467654 -60.33354 
L 338.36541 -59.793609 
L 339.67454 -59.253677 
L 341.341437 -58.713746 
L 341.652407 -58.173814 
L 339.793619 -57.633883 
L 336.722573 -57.093951 
L 334.121789 -56.55402 
L 332.674422 -56.014088 
L 331.829085 -55.474157 
L 330.872732 -54.934225 
L 329.811973 -54.394294 
L 329.095186 -53.854362 
L 328.69466 -53.314431 
L 328.041516 -52.774499 
L 326.900085 -52.234568 
L 325.749809 -51.694636 
L 325.157771 -51.154704 
L 325.137921 -50.614773 
L 325.2591 -50.074841 
L 325.144768 -49.53491 
L 324.71669 -48.994978 
L 324.092722 -48.455047 
L 323.414283 -47.915115 
L 322.781618 -47.375184 
L 322.255766 -46.835252 
L 321.860466 -46.295321 
L 321.599752 -45.755389 
L 321.461703 -45.215458 
L 321.408189 -44.675526 
L 321.395999 -44.135595 
L 321.406283 -43.595663 
L 321.450357 -43.055732 
L 321.546362 -42.5158 
L 321.666888 -41.975869 
L 321.724989 -41.435937 
z
" style="stroke: #1a1a1a; stroke-width: 0.5"/>
    </defs>
    <g clip-path="url(#pb6870e3670)">
     <use xlink:href="#me539d50bcc" x="0" y="144" style="fill: #9393f0; stroke: #1a1a1a; stroke-width: 0.5"/>
    </g>
   </g>
   <g id="PolyCollection_11">
    <defs>
     <path id="m57b6f4ac33" d="M 371.61 -43.206729 
L 371.015162 -43.206729 
L 371.069133 -43.662851 
L 371.312626 -44.118974 
L 371.505203 -44.575097 
L 371.551484 -45.03122 
L 371.475042 -45.487342 
L 371.343988 -45.943465 
L 371.284734 -46.399588 
L 371.303886 -46.855711 
L 371.189959 -47.311834 
L 370.834308 -47.767956 
L 370.435618 -48.224079 
L 370.156261 -48.680202 
L 369.912862 -49.136325 
L 369.557839 -49.592447 
L 368.816603 -50.04857 
L 367.610362 -50.504693 
L 366.5881 -50.960816 
L 366.319783 -51.416938 
L 366.325244 -51.873061 
L 365.668154 -52.329184 
L 364.032337 -52.785307 
L 361.832221 -53.241429 
L 359.707014 -53.697552 
L 358.314458 -54.153675 
L 358.277204 -54.609798 
L 359.092745 -55.06592 
L 359.161399 -55.522043 
L 357.869539 -55.978166 
L 355.923067 -56.434289 
L 353.620843 -56.890411 
L 350.9247 -57.346534 
L 349.29 -57.802657 
L 349.960366 -58.25878 
L 351.777358 -58.714902 
L 353.413816 -59.171025 
L 354.508105 -59.627148 
L 354.456051 -60.083271 
L 353.408346 -60.539393 
L 352.93248 -60.995516 
L 353.51515 -61.451639 
L 354.025399 -61.907762 
L 353.906599 -62.363884 
L 353.484876 -62.820007 
L 353.086506 -63.27613 
L 353.022284 -63.732253 
L 353.267035 -64.188376 
L 353.648325 -64.644498 
L 354.356099 -65.100621 
L 355.455255 -65.556744 
L 356.470614 -66.012867 
L 356.727748 -66.468989 
L 355.965488 -66.925112 
L 355.016717 -67.381235 
L 355.403609 -67.837358 
L 357.512491 -68.29348 
L 360.209494 -68.749603 
L 362.227817 -69.205726 
L 363.153677 -69.661849 
L 363.551349 -70.117971 
L 364.332468 -70.574094 
L 365.608594 -71.030217 
L 366.622513 -71.48634 
L 366.989227 -71.942462 
L 367.153234 -72.398585 
L 367.698001 -72.854708 
L 368.5577 -73.310831 
L 369.259262 -73.766953 
L 369.737105 -74.223076 
L 370.073874 -74.679199 
L 370.231825 -75.135322 
L 370.291473 -75.591444 
L 370.321015 -76.047567 
L 370.327015 -76.50369 
L 370.417119 -76.959813 
L 370.591088 -77.415935 
L 370.627021 -77.872058 
L 370.481084 -78.328181 
L 370.459964 -78.784304 
L 370.753109 -79.240427 
L 371.162073 -79.696549 
L 371.417952 -80.152672 
L 371.41378 -80.608795 
L 371.186807 -81.064918 
L 370.942321 -81.52104 
L 370.90433 -81.977163 
L 371.040135 -82.433286 
L 371.226511 -82.889409 
L 371.414283 -83.345531 
L 371.544193 -83.801654 
L 371.596478 -84.257777 
L 371.608348 -84.7139 
L 371.60988 -85.170022 
L 371.609973 -85.626145 
L 371.609596 -86.082268 
L 371.605574 -86.538391 
L 371.581486 -86.994513 
L 371.502125 -87.450636 
L 371.370317 -87.906759 
L 371.297241 -88.362882 
L 371.61 -88.362882 
L 371.61 -88.362882 
L 371.61 -87.906759 
L 371.61 -87.450636 
L 371.61 -86.994513 
L 371.61 -86.538391 
L 371.61 -86.082268 
L 371.61 -85.626145 
L 371.61 -85.170022 
L 371.61 -84.7139 
L 371.61 -84.257777 
L 371.61 -83.801654 
L 371.61 -83.345531 
L 371.61 -82.889409 
L 371.61 -82.433286 
L 371.61 -81.977163 
L 371.61 -81.52104 
L 371.61 -81.064918 
L 371.61 -80.608795 
L 371.61 -80.152672 
L 371.61 -79.696549 
L 371.61 -79.240427 
L 371.61 -78.784304 
L 371.61 -78.328181 
L 371.61 -77.872058 
L 371.61 -77.415935 
L 371.61 -76.959813 
L 371.61 -76.50369 
L 371.61 -76.047567 
L 371.61 -75.591444 
L 371.61 -75.135322 
L 371.61 -74.679199 
L 371.61 -74.223076 
L 371.61 -73.766953 
L 371.61 -73.310831 
L 371.61 -72.854708 
L 371.61 -72.398585 
L 371.61 -71.942462 
L 371.61 -71.48634 
L 371.61 -71.030217 
L 371.61 -70.574094 
L 371.61 -70.117971 
L 371.61 -69.661849 
L 371.61 -69.205726 
L 371.61 -68.749603 
L 371.61 -68.29348 
L 371.61 -67.837358 
L 371.61 -67.381235 
L 371.61 -66.925112 
L 371.61 -66.468989 
L 371.61 -66.012867 
L 371.61 -65.556744 
L 371.61 -65.100621 
L 371.61 -64.644498 
L 371.61 -64.188376 
L 371.61 -63.732253 
L 371.61 -63.27613 
L 371.61 -62.820007 
L 371.61 -62.363884 
L 371.61 -61.907762 
L 371.61 -61.451639 
L 371.61 -60.995516 
L 371.61 -60.539393 
L 371.61 -60.083271 
L 371.61 -59.627148 
L 371.61 -59.171025 
L 371.61 -58.714902 
L 371.61 -58.25878 
L 371.61 -57.802657 
L 371.61 -57.346534 
L 371.61 -56.890411 
L 371.61 -56.434289 
L 371.61 -55.978166 
L 371.61 -55.522043 
L 371.61 -55.06592 
L 371.61 -54.609798 
L 371.61 -54.153675 
L 371.61 -53.697552 
L 371.61 -53.241429 
L 371.61 -52.785307 
L 371.61 -52.329184 
L 371.61 -51.873061 
L 371.61 -51.416938 
L 371.61 -50.960816 
L 371.61 -50.504693 
L 371.61 -50.04857 
L 371.61 -49.592447 
L 371.61 -49.136325 
L 371.61 -48.680202 
L 371.61 -48.224079 
L 371.61 -47.767956 
L 371.61 -47.311834 
L 371.61 -46.855711 
L 371.61 -46.399588 
L 371.61 -45.943465 
L 371.61 -45.487342 
L 371.61 -45.03122 
L 371.61 -44.575097 
L 371.61 -44.118974 
L 371.61 -43.662851 
L 371.61 -43.206729 
z
" style="stroke: #1a1a1a; stroke-width: 0.5"/>
    </defs>
    <g clip-path="url(#pb6870e3670)">
     <use xlink:href="#m57b6f4ac33" x="0" y="144" style="fill: #94c360; stroke: #1a1a1a; stroke-width: 0.5"/>
    </g>
   </g>
   <g id="PolyCollection_12">
    <defs>
     <path id="m9c89ef48e8" d="M 377.460204 -20.88 
L 377.19 -20.88 
L 377.19 -21.788876 
L 377.19 -22.697752 
L 377.19 -23.606627 
L 377.19 -24.515503 
L 377.19 -25.424379 
L 377.19 -26.333255 
L 377.19 -27.242131 
L 377.19 -28.151006 
L 377.19 -29.059882 
L 377.19 -29.968758 
L 377.19 -30.877634 
L 377.19 -31.786509 
L 377.19 -32.695385 
L 377.19 -33.604261 
L 377.19 -34.513137 
L 377.19 -35.422013 
L 377.19 -36.330888 
L 377.19 -37.239764 
L 377.19 -38.14864 
L 377.19 -39.057516 
L 377.19 -39.966392 
L 377.19 -40.875267 
L 377.19 -41.784143 
L 377.19 -42.693019 
L 377.19 -43.601895 
L 377.19 -44.51077 
L 377.19 -45.419646 
L 377.19 -46.328522 
L 377.19 -47.237398 
L 377.19 -48.146274 
L 377.19 -49.055149 
L 377.19 -49.964025 
L 377.19 -50.872901 
L 377.19 -51.781777 
L 377.19 -52.690653 
L 377.19 -53.599528 
L 377.19 -54.508404 
L 377.19 -55.41728 
L 377.19 -56.326156 
L 377.19 -57.235031 
L 377.19 -58.143907 
L 377.19 -59.052783 
L 377.19 -59.961659 
L 377.19 -60.870535 
L 377.19 -61.77941 
L 377.19 -62.688286 
L 377.19 -63.597162 
L 377.19 -64.506038 
L 377.19 -65.414914 
L 377.19 -66.323789 
L 377.19 -67.232665 
L 377.19 -68.141541 
L 377.19 -69.050417 
L 377.19 -69.959292 
L 377.19 -70.868168 
L 377.19 -71.777044 
L 377.19 -72.68592 
L 377.19 -73.594796 
L 377.19 -74.503671 
L 377.19 -75.412547 
L 377.19 -76.321423 
L 377.19 -77.230299 
L 377.19 -78.139175 
L 377.19 -79.04805 
L 377.19 -79.956926 
L 377.19 -80.865802 
L 377.19 -81.774678 
L 377.19 -82.683553 
L 377.19 -83.592429 
L 377.19 -84.501305 
L 377.19 -85.410181 
L 377.19 -86.319057 
L 377.19 -87.227932 
L 377.19 -88.136808 
L 377.19 -89.045684 
L 377.19 -89.95456 
L 377.19 -90.863436 
L 377.19 -91.772311 
L 377.19 -92.681187 
L 377.19 -93.590063 
L 377.19 -94.498939 
L 377.19 -95.407814 
L 377.19 -96.31669 
L 377.19 -97.225566 
L 377.19 -98.134442 
L 377.19 -99.043318 
L 377.19 -99.952193 
L 377.19 -100.861069 
L 377.19 -101.769945 
L 377.19 -102.678821 
L 377.19 -103.587697 
L 377.19 -104.496572 
L 377.19 -105.405448 
L 377.19 -106.314324 
L 377.19 -107.2232 
L 377.19 -108.132075 
L 377.19 -109.040951 
L 377.19 -109.949827 
L 377.19 -110.858703 
L 377.459653 -110.858703 
L 377.459653 -110.858703 
L 377.39956 -109.949827 
L 377.288361 -109.040951 
L 377.217883 -108.132075 
L 377.194774 -107.2232 
L 377.190494 -106.314324 
L 377.190031 -105.405448 
L 377.190006 -104.496572 
L 377.1901 -103.587697 
L 377.191309 -102.678821 
L 377.20033 -101.769945 
L 377.239254 -100.861069 
L 377.332046 -99.952193 
L 377.439703 -99.043318 
L 377.470786 -98.134442 
L 377.447156 -97.225566 
L 377.502394 -96.31669 
L 377.637248 -95.407814 
L 377.688911 -94.498939 
L 377.593001 -93.590063 
L 377.49654 -92.681187 
L 377.542633 -91.772311 
L 377.706766 -90.863436 
L 377.948379 -89.95456 
L 378.323596 -89.045684 
L 378.807903 -88.136808 
L 379.244033 -87.227932 
L 379.651827 -86.319057 
L 380.304398 -85.410181 
L 381.232557 -84.501305 
L 381.97916 -83.592429 
L 382.164285 -82.683553 
L 381.950822 -81.774678 
L 381.689956 -80.865802 
L 381.61266 -79.956926 
L 381.960971 -79.04805 
L 382.866576 -78.139175 
L 384.19853 -77.230299 
L 385.764942 -76.321423 
L 387.38062 -75.412547 
L 388.865489 -74.503671 
L 390.231524 -73.594796 
L 391.543748 -72.68592 
L 392.538898 -71.777044 
L 392.876638 -70.868168 
L 392.875032 -69.959292 
L 393.297513 -69.050417 
L 394.534652 -68.141541 
L 396.252812 -67.232665 
L 397.480514 -66.323789 
L 397.378119 -65.414914 
L 396.277346 -64.506038 
L 395.297361 -63.597162 
L 395.048913 -62.688286 
L 395.489295 -61.77941 
L 396.64593 -60.870535 
L 398.312925 -59.961659 
L 399.51 -59.052783 
L 399.230276 -58.143907 
L 397.48158 -57.235031 
L 395.415873 -56.326156 
L 394.032175 -55.41728 
L 393.041516 -54.508404 
L 391.728243 -53.599528 
L 390.368363 -52.690653 
L 389.718889 -51.781777 
L 389.432319 -50.872901 
L 388.475526 -49.964025 
L 386.965342 -49.055149 
L 386.085011 -48.146274 
L 386.325259 -47.237398 
L 386.730608 -46.328522 
L 386.057838 -45.419646 
L 384.479516 -44.51077 
L 383.322427 -43.601895 
L 383.360025 -42.693019 
L 384.174109 -41.784143 
L 384.861797 -40.875267 
L 384.714674 -39.966392 
L 383.690399 -39.057516 
L 382.654649 -38.14864 
L 382.195855 -37.239764 
L 381.690282 -36.330888 
L 380.771005 -35.422013 
L 380.105913 -34.513137 
L 379.955753 -33.604261 
L 379.822647 -32.695385 
L 379.422736 -31.786509 
L 378.933355 -30.877634 
L 378.621037 -29.968758 
L 378.47206 -29.059882 
L 378.216115 -28.151006 
L 377.838248 -27.242131 
L 377.592561 -26.333255 
L 377.503851 -25.424379 
L 377.414891 -24.515503 
L 377.321148 -23.606627 
L 377.318172 -22.697752 
L 377.404775 -21.788876 
L 377.460204 -20.88 
z
" style="stroke: #1a1a1a; stroke-width: 0.5"/>
    </defs>
    <g clip-path="url(#pb6870e3670)">
     <use xlink:href="#m9c89ef48e8" x="0" y="144" style="fill: #dfbe20; stroke: #1a1a1a; stroke-width: 0.5"/>
    </g>
   </g>
   <g id="PolyCollection_13">
    <defs>
     <path id="m0ec671dddb" d="M 427.41 -40.820357 
L 426.528164 -40.820357 
L 426.37999 -41.290011 
L 426.534686 -41.759665 
L 426.788245 -42.229319 
L 426.878205 -42.698973 
L 426.748804 -43.168627 
L 426.521977 -43.638281 
L 426.210817 -44.107935 
L 425.554965 -44.577589 
L 424.424907 -45.047243 
L 423.246329 -45.516897 
L 422.488677 -45.986551 
L 422.126155 -46.456205 
L 422.013141 -46.925859 
L 422.101473 -47.395513 
L 422.159208 -47.865167 
L 421.910574 -48.334821 
L 421.328654 -48.804475 
L 420.527887 -49.274129 
L 419.5929 -49.743783 
L 418.356969 -50.213437 
L 416.350255 -50.683091 
L 413.454692 -51.152745 
L 410.500073 -51.622399 
L 408.505935 -52.092053 
L 407.277533 -52.561707 
L 406.01974 -53.031361 
L 405.09 -53.501015 
L 405.253255 -53.970669 
L 405.921724 -54.440323 
L 405.875003 -54.909977 
L 405.203676 -55.379631 
L 405.24955 -55.849285 
L 406.590486 -56.318939 
L 407.948078 -56.788593 
L 407.731709 -57.258247 
L 406.605345 -57.727901 
L 406.836575 -58.197555 
L 408.71451 -58.667209 
L 410.292738 -59.136863 
L 410.473849 -59.606517 
L 410.010268 -60.076171 
L 410.010467 -60.545825 
L 410.818773 -61.015479 
L 412.218636 -61.485133 
L 413.888708 -61.954787 
L 415.520199 -62.424441 
L 416.86831 -62.894095 
L 417.867375 -63.363749 
L 418.565753 -63.833403 
L 418.971613 -64.303057 
L 419.191661 -64.772711 
L 419.430941 -65.242365 
L 419.771226 -65.712019 
L 420.385537 -66.181673 
L 421.581257 -66.651327 
L 423.177374 -67.120981 
L 424.400824 -67.590635 
L 424.711374 -68.060289 
L 424.377327 -68.529943 
L 424.058075 -68.999597 
L 423.961918 -69.469251 
L 423.723587 -69.938905 
L 423.225556 -70.408559 
L 422.875039 -70.878213 
L 422.842591 -71.347867 
L 423.011537 -71.817521 
L 423.481014 -72.287175 
L 424.131033 -72.756829 
L 424.53979 -73.226483 
L 424.670456 -73.696137 
L 424.834066 -74.165791 
L 425.263476 -74.635445 
L 425.890269 -75.105099 
L 426.398766 -75.574753 
L 426.640741 -76.044407 
L 426.749044 -76.514061 
L 426.867287 -76.983715 
L 427.035869 -77.453369 
L 427.215259 -77.923023 
L 427.339439 -78.392677 
L 427.392906 -78.862331 
L 427.405807 -79.331985 
L 427.398763 -79.801639 
L 427.360828 -80.271293 
L 427.270274 -80.740947 
L 427.157924 -81.210601 
L 427.121146 -81.680255 
L 427.197334 -82.149909 
L 427.292862 -82.619563 
L 427.291722 -83.089217 
L 427.148635 -83.558871 
L 426.936272 -84.028525 
L 426.839191 -84.498179 
L 426.944616 -84.967833 
L 427.095611 -85.437487 
L 427.106203 -85.907141 
L 426.99371 -86.376795 
L 426.91148 -86.846449 
L 426.96206 -87.316103 
L 427.41 -87.316103 
L 427.41 -87.316103 
L 427.41 -86.846449 
L 427.41 -86.376795 
L 427.41 -85.907141 
L 427.41 -85.437487 
L 427.41 -84.967833 
L 427.41 -84.498179 
L 427.41 -84.028525 
L 427.41 -83.558871 
L 427.41 -83.089217 
L 427.41 -82.619563 
L 427.41 -82.149909 
L 427.41 -81.680255 
L 427.41 -81.210601 
L 427.41 -80.740947 
L 427.41 -80.271293 
L 427.41 -79.801639 
L 427.41 -79.331985 
L 427.41 -78.862331 
L 427.41 -78.392677 
L 427.41 -77.923023 
L 427.41 -77.453369 
L 427.41 -76.983715 
L 427.41 -76.514061 
L 427.41 -76.044407 
L 427.41 -75.574753 
L 427.41 -75.105099 
L 427.41 -74.635445 
L 427.41 -74.165791 
L 427.41 -73.696137 
L 427.41 -73.226483 
L 427.41 -72.756829 
L 427.41 -72.287175 
L 427.41 -71.817521 
L 427.41 -71.347867 
L 427.41 -70.878213 
L 427.41 -70.408559 
L 427.41 -69.938905 
L 427.41 -69.469251 
L 427.41 -68.999597 
L 427.41 -68.529943 
L 427.41 -68.060289 
L 427.41 -67.590635 
L 427.41 -67.120981 
L 427.41 -66.651327 
L 427.41 -66.181673 
L 427.41 -65.712019 
L 427.41 -65.242365 
L 427.41 -64.772711 
L 427.41 -64.303057 
L 427.41 -63.833403 
L 427.41 -63.363749 
L 427.41 -62.894095 
L 427.41 -62.424441 
L 427.41 -61.954787 
L 427.41 -61.485133 
L 427.41 -61.015479 
L 427.41 -60.545825 
L 427.41 -60.076171 
L 427.41 -59.606517 
L 427.41 -59.136863 
L 427.41 -58.667209 
L 427.41 -58.197555 
L 427.41 -57.727901 
L 427.41 -57.258247 
L 427.41 -56.788593 
L 427.41 -56.318939 
L 427.41 -55.849285 
L 427.41 -55.379631 
L 427.41 -54.909977 
L 427.41 -54.440323 
L 427.41 -53.970669 
L 427.41 -53.501015 
L 427.41 -53.031361 
L 427.41 -52.561707 
L 427.41 -52.092053 
L 427.41 -51.622399 
L 427.41 -51.152745 
L 427.41 -50.683091 
L 427.41 -50.213437 
L 427.41 -49.743783 
L 427.41 -49.274129 
L 427.41 -48.804475 
L 427.41 -48.334821 
L 427.41 -47.865167 
L 427.41 -47.395513 
L 427.41 -46.925859 
L 427.41 -46.456205 
L 427.41 -45.986551 
L 427.41 -45.516897 
L 427.41 -45.047243 
L 427.41 -44.577589 
L 427.41 -44.107935 
L 427.41 -43.638281 
L 427.41 -43.168627 
L 427.41 -42.698973 
L 427.41 -42.229319 
L 427.41 -41.759665 
L 427.41 -41.290011 
L 427.41 -40.820357 
z
" style="stroke: #1a1a1a; stroke-width: 0.5"/>
    </defs>
    <g clip-path="url(#pb6870e3670)">
     <use xlink:href="#m0ec671dddb" x="0" y="144" style="fill: #e237ae; stroke: #1a1a1a; stroke-width: 0.5"/>
    </g>
   </g>
   <g id="PolyCollection_14">
    <defs>
     <path id="m23c804e852" d="M 433.492779 -31.446946 
L 432.99 -31.446946 
L 432.99 -31.90728 
L 432.99 -32.367613 
L 432.99 -32.827946 
L 432.99 -33.288279 
L 432.99 -33.748612 
L 432.99 -34.208945 
L 432.99 -34.669278 
L 432.99 -35.129611 
L 432.99 -35.589945 
L 432.99 -36.050278 
L 432.99 -36.510611 
L 432.99 -36.970944 
L 432.99 -37.431277 
L 432.99 -37.89161 
L 432.99 -38.351943 
L 432.99 -38.812276 
L 432.99 -39.272609 
L 432.99 -39.732943 
L 432.99 -40.193276 
L 432.99 -40.653609 
L 432.99 -41.113942 
L 432.99 -41.574275 
L 432.99 -42.034608 
L 432.99 -42.494941 
L 432.99 -42.955274 
L 432.99 -43.415608 
L 432.99 -43.875941 
L 432.99 -44.336274 
L 432.99 -44.796607 
L 432.99 -45.25694 
L 432.99 -45.717273 
L 432.99 -46.177606 
L 432.99 -46.637939 
L 432.99 -47.098272 
L 432.99 -47.558606 
L 432.99 -48.018939 
L 432.99 -48.479272 
L 432.99 -48.939605 
L 432.99 -49.399938 
L 432.99 -49.860271 
L 432.99 -50.320604 
L 432.99 -50.780937 
L 432.99 -51.241271 
L 432.99 -51.701604 
L 432.99 -52.161937 
L 432.99 -52.62227 
L 432.99 -53.082603 
L 432.99 -53.542936 
L 432.99 -54.003269 
L 432.99 -54.463602 
L 432.99 -54.923935 
L 432.99 -55.384269 
L 432.99 -55.844602 
L 432.99 -56.304935 
L 432.99 -56.765268 
L 432.99 -57.225601 
L 432.99 -57.685934 
L 432.99 -58.146267 
L 432.99 -58.6066 
L 432.99 -59.066934 
L 432.99 -59.527267 
L 432.99 -59.9876 
L 432.99 -60.447933 
L 432.99 -60.908266 
L 432.99 -61.368599 
L 432.99 -61.828932 
L 432.99 -62.289265 
L 432.99 -62.749598 
L 432.99 -63.209932 
L 432.99 -63.670265 
L 432.99 -64.130598 
L 432.99 -64.590931 
L 432.99 -65.051264 
L 432.99 -65.511597 
L 432.99 -65.97193 
L 432.99 -66.432263 
L 432.99 -66.892597 
L 432.99 -67.35293 
L 432.99 -67.813263 
L 432.99 -68.273596 
L 432.99 -68.733929 
L 432.99 -69.194262 
L 432.99 -69.654595 
L 432.99 -70.114928 
L 432.99 -70.575261 
L 432.99 -71.035595 
L 432.99 -71.495928 
L 432.99 -71.956261 
L 432.99 -72.416594 
L 432.99 -72.876927 
L 432.99 -73.33726 
L 432.99 -73.797593 
L 432.99 -74.257926 
L 432.99 -74.71826 
L 432.99 -75.178593 
L 432.99 -75.638926 
L 432.99 -76.099259 
L 432.99 -76.559592 
L 432.99 -77.019925 
L 433.334998 -77.019925 
L 433.334998 -77.019925 
L 433.404058 -76.559592 
L 433.490788 -76.099259 
L 433.632485 -75.638926 
L 433.797201 -75.178593 
L 433.915907 -74.71826 
L 433.985333 -74.257926 
L 434.174281 -73.797593 
L 434.627065 -73.33726 
L 435.127797 -72.876927 
L 435.300812 -72.416594 
L 435.166157 -71.956261 
L 435.064546 -71.495928 
L 435.098903 -71.035595 
L 435.165122 -70.575261 
L 435.297368 -70.114928 
L 435.528219 -69.654595 
L 435.756818 -69.194262 
L 435.952314 -68.733929 
L 436.18194 -68.273596 
L 436.417558 -67.813263 
L 436.60487 -67.35293 
L 436.955024 -66.892597 
L 437.741624 -66.432263 
L 438.80202 -65.97193 
L 439.707738 -65.511597 
L 440.265126 -65.051264 
L 440.602959 -64.590931 
L 441.032592 -64.130598 
L 441.753465 -63.670265 
L 442.552002 -63.209932 
L 443.068788 -62.749598 
L 443.410726 -62.289265 
L 443.992855 -61.828932 
L 444.667845 -61.368599 
L 444.920327 -60.908266 
L 445.01482 -60.447933 
L 445.905575 -59.9876 
L 448.070071 -59.527267 
L 451.014641 -59.066934 
L 453.732283 -58.6066 
L 455.31 -58.146267 
L 455.305116 -57.685934 
L 454.122554 -57.225601 
L 452.82389 -56.765268 
L 452.297074 -56.304935 
L 452.742913 -55.844602 
L 453.594706 -55.384269 
L 453.939281 -54.923935 
L 453.290366 -54.463602 
L 451.82403 -54.003269 
L 450.122397 -53.542936 
L 448.804943 -53.082603 
L 448.069697 -52.62227 
L 447.69975 -52.161937 
L 447.44376 -51.701604 
L 447.054377 -51.241271 
L 446.345267 -50.780937 
L 445.330107 -50.320604 
L 443.978401 -49.860271 
L 442.352567 -49.399938 
L 440.962644 -48.939605 
L 440.219525 -48.479272 
L 439.865341 -48.018939 
L 439.513232 -47.558606 
L 439.290078 -47.098272 
L 439.288887 -46.637939 
L 439.00274 -46.177606 
L 438.188728 -45.717273 
L 437.425202 -45.25694 
L 437.15877 -44.796607 
L 437.115397 -44.336274 
L 436.825943 -43.875941 
L 436.163888 -43.415608 
L 435.374248 -42.955274 
L 434.738041 -42.494941 
L 434.329919 -42.034608 
L 434.148847 -41.574275 
L 434.210116 -41.113942 
L 434.371934 -40.653609 
L 434.358192 -40.193276 
L 434.089953 -39.732943 
L 433.759126 -39.272609 
L 433.562834 -38.812276 
L 433.54612 -38.351943 
L 433.598338 -37.89161 
L 433.568431 -37.431277 
L 433.461677 -36.970944 
L 433.382758 -36.510611 
L 433.345219 -36.050278 
L 433.32987 -35.589945 
L 433.372806 -35.129611 
L 433.486272 -34.669278 
L 433.627904 -34.208945 
L 433.734861 -33.748612 
L 433.774908 -33.288279 
L 433.785152 -32.827946 
L 433.770103 -32.367613 
L 433.673194 -31.90728 
L 433.492779 -31.446946 
z
" style="stroke: #1a1a1a; stroke-width: 0.5"/>
    </defs>
    <g clip-path="url(#pb6870e3670)">
     <use xlink:href="#m23c804e852" x="0" y="144" style="fill: #6f2662; stroke: #1a1a1a; stroke-width: 0.5"/>
    </g>
   </g>
   <g id="PolyCollection_15">
    <defs>
     <path id="m44daf260e0" d="M 483.21 -31.648737 
L 482.959944 -31.648737 
L 483.011717 -32.348082 
L 483.03543 -33.047427 
L 482.967526 -33.746772 
L 482.98536 -34.446117 
L 483.054973 -35.145463 
L 483.00149 -35.844808 
L 482.878901 -36.544153 
L 482.67697 -37.243498 
L 482.251871 -37.942843 
L 481.895501 -38.642189 
L 481.881274 -39.341534 
L 481.969305 -40.040879 
L 481.709423 -40.740224 
L 480.828334 -41.439569 
L 479.48896 -42.138915 
L 477.97175 -42.83826 
L 477.03327 -43.537605 
L 477.004796 -44.23695 
L 476.477711 -44.936295 
L 474.938376 -45.63564 
L 473.859274 -46.334986 
L 473.380218 -47.034331 
L 472.921027 -47.733676 
L 472.216345 -48.433021 
L 470.416661 -49.132366 
L 467.684857 -49.831712 
L 466.329634 -50.531057 
L 466.842783 -51.230402 
L 466.977255 -51.929747 
L 466.272169 -52.629092 
L 465.509968 -53.328438 
L 464.705176 -54.027783 
L 463.941451 -54.727128 
L 464.226147 -55.426473 
L 465.100478 -56.125818 
L 464.199936 -56.825164 
L 461.290324 -57.524509 
L 460.89 -58.223854 
L 464.660893 -58.923199 
L 468.430217 -59.622544 
L 470.031541 -60.321889 
L 471.253498 -61.021235 
L 473.393566 -61.72058 
L 475.509702 -62.419925 
L 476.59279 -63.11927 
L 476.73633 -63.818615 
L 476.594365 -64.517961 
L 477.18477 -65.217306 
L 478.115455 -65.916651 
L 478.305041 -66.615996 
L 478.353947 -67.315341 
L 478.78451 -68.014687 
L 478.998909 -68.714032 
L 478.866512 -69.413377 
L 478.973362 -70.112722 
L 479.583505 -70.812067 
L 480.34065 -71.511413 
L 480.78964 -72.210758 
L 481.002365 -72.910103 
L 481.327763 -73.609448 
L 481.792801 -74.308793 
L 482.208655 -75.008139 
L 482.425325 -75.707484 
L 482.522106 -76.406829 
L 482.495085 -77.106174 
L 482.244585 -77.805519 
L 482.058749 -78.504864 
L 482.222397 -79.20421 
L 482.56106 -79.903555 
L 482.796746 -80.6029 
L 482.966936 -81.302245 
L 483.106124 -82.00159 
L 483.113622 -82.700936 
L 482.999003 -83.400281 
L 482.913077 -84.099626 
L 482.902538 -84.798971 
L 482.927253 -85.498316 
L 483.038683 -86.197662 
L 483.156639 -86.897007 
L 483.202037 -87.596352 
L 483.209439 -88.295697 
L 483.209981 -88.995042 
L 483.21 -89.694388 
L 483.21 -90.393733 
L 483.21 -91.093078 
L 483.21 -91.792423 
L 483.21 -92.491768 
L 483.21 -93.191113 
L 483.21 -93.890459 
L 483.21 -94.589804 
L 483.21 -95.289149 
L 483.21 -95.988494 
L 483.21 -96.687839 
L 483.20998 -97.387185 
L 483.209405 -98.08653 
L 483.201684 -98.785875 
L 483.155313 -99.48522 
L 483.040694 -100.184565 
L 482.963242 -100.883911 
L 483.21 -100.883911 
L 483.21 -100.883911 
L 483.21 -100.184565 
L 483.21 -99.48522 
L 483.21 -98.785875 
L 483.21 -98.08653 
L 483.21 -97.387185 
L 483.21 -96.687839 
L 483.21 -95.988494 
L 483.21 -95.289149 
L 483.21 -94.589804 
L 483.21 -93.890459 
L 483.21 -93.191113 
L 483.21 -92.491768 
L 483.21 -91.792423 
L 483.21 -91.093078 
L 483.21 -90.393733 
L 483.21 -89.694388 
L 483.21 -88.995042 
L 483.21 -88.295697 
L 483.21 -87.596352 
L 483.21 -86.897007 
L 483.21 -86.197662 
L 483.21 -85.498316 
L 483.21 -84.798971 
L 483.21 -84.099626 
L 483.21 -83.400281 
L 483.21 -82.700936 
L 483.21 -82.00159 
L 483.21 -81.302245 
L 483.21 -80.6029 
L 483.21 -79.903555 
L 483.21 -79.20421 
L 483.21 -78.504864 
L 483.21 -77.805519 
L 483.21 -77.106174 
L 483.21 -76.406829 
L 483.21 -75.707484 
L 483.21 -75.008139 
L 483.21 -74.308793 
L 483.21 -73.609448 
L 483.21 -72.910103 
L 483.21 -72.210758 
L 483.21 -71.511413 
L 483.21 -70.812067 
L 483.21 -70.112722 
L 483.21 -69.413377 
L 483.21 -68.714032 
L 483.21 -68.014687 
L 483.21 -67.315341 
L 483.21 -66.615996 
L 483.21 -65.916651 
L 483.21 -65.217306 
L 483.21 -64.517961 
L 483.21 -63.818615 
L 483.21 -63.11927 
L 483.21 -62.419925 
L 483.21 -61.72058 
L 483.21 -61.021235 
L 483.21 -60.321889 
L 483.21 -59.622544 
L 483.21 -58.923199 
L 483.21 -58.223854 
L 483.21 -57.524509 
L 483.21 -56.825164 
L 483.21 -56.125818 
L 483.21 -55.426473 
L 483.21 -54.727128 
L 483.21 -54.027783 
L 483.21 -53.328438 
L 483.21 -52.629092 
L 483.21 -51.929747 
L 483.21 -51.230402 
L 483.21 -50.531057 
L 483.21 -49.831712 
L 483.21 -49.132366 
L 483.21 -48.433021 
L 483.21 -47.733676 
L 483.21 -47.034331 
L 483.21 -46.334986 
L 483.21 -45.63564 
L 483.21 -44.936295 
L 483.21 -44.23695 
L 483.21 -43.537605 
L 483.21 -42.83826 
L 483.21 -42.138915 
L 483.21 -41.439569 
L 483.21 -40.740224 
L 483.21 -40.040879 
L 483.21 -39.341534 
L 483.21 -38.642189 
L 483.21 -37.942843 
L 483.21 -37.243498 
L 483.21 -36.544153 
L 483.21 -35.844808 
L 483.21 -35.145463 
L 483.21 -34.446117 
L 483.21 -33.746772 
L 483.21 -33.047427 
L 483.21 -32.348082 
L 483.21 -31.648737 
z
" style="stroke: #1a1a1a; stroke-width: 0.5"/>
    </defs>
    <g clip-path="url(#pb6870e3670)">
     <use xlink:href="#m44daf260e0" x="0" y="144" style="fill: #0f0f6c; stroke: #1a1a1a; stroke-width: 0.5"/>
    </g>
   </g>
   <g id="matplotlib.axis_1">
    <g id="xtick_1">
     <g id="line2d_1">
      <defs>
       <path id="m7e7a63d9bd" d="M 0 0 
L 0 -3 
" style="stroke: #000000; stroke-width: 0.5"/>
      </defs>
      <g>
       <use xlink:href="#m7e7a63d9bd" x="81.45" y="128.16" style="stroke: #000000; stroke-width: 0.5"/>
      </g>
     </g>
     <g id="text_1">
      <text style="font: 7px 'sans-serif'" transform="translate(76.175938 136.978906)">EL,</text>
      <text style="font: 7px 'sans-serif'" transform="translate(68.506016 144.817375)"> n=490</text>
     </g>
    </g>
    <g id="xtick_2">
     <g id="line2d_2">
      <g>
       <use xlink:href="#m7e7a63d9bd" x="109.35" y="128.16" style="stroke: #000000; stroke-width: 0.5"/>
      </g>
     </g>
     <g id="text_2">
      <text style="font: 7px 'sans-serif'" transform="translate(103.442109 136.978906)">BA,</text>
      <text style="font: 7px 'sans-serif'" transform="translate(96.406016 144.817375)"> n=756</text>
     </g>
    </g>
    <g id="xtick_3">
     <g id="line2d_3">
      <g>
       <use xlink:href="#m7e7a63d9bd" x="137.25" y="128.16" style="stroke: #000000; stroke-width: 0.5"/>
      </g>
     </g>
     <g id="text_3">
      <text style="font: 7px 'sans-serif'" transform="translate(131.299453 136.978906)">CA,</text>
      <text style="font: 7px 'sans-serif'" transform="translate(124.306016 144.817375)"> n=646</text>
     </g>
    </g>
    <g id="xtick_4">
     <g id="line2d_4">
      <g>
       <use xlink:href="#m7e7a63d9bd" x="165.15" y="128.16" style="stroke: #000000; stroke-width: 0.5"/>
      </g>
     </g>
     <g id="text_4">
      <text style="font: 7px 'sans-serif'" transform="translate(159.004219 136.978906)">BH,</text>
      <text style="font: 7px 'sans-serif'" transform="translate(152.206016 144.817375)"> n=613</text>
     </g>
    </g>
    <g id="xtick_5">
     <g id="line2d_5">
      <g>
       <use xlink:href="#m7e7a63d9bd" x="193.05" y="128.16" style="stroke: #000000; stroke-width: 0.5"/>
      </g>
     </g>
     <g id="text_5">
      <text style="font: 7px 'sans-serif'" transform="translate(187.229609 136.978906)">DF,</text>
      <text style="font: 7px 'sans-serif'" transform="translate(180.106016 144.817375)"> n=686</text>
     </g>
    </g>
    <g id="xtick_6">
     <g id="line2d_6">
      <g>
       <use xlink:href="#m7e7a63d9bd" x="220.95" y="128.16" style="stroke: #000000; stroke-width: 0.5"/>
      </g>
     </g>
     <g id="text_6">
      <text style="font: 7px 'sans-serif'" transform="translate(215.283281 136.978906)">PC,</text>
      <text style="font: 7px 'sans-serif'" transform="translate(208.006016 144.817375)"> n=539</text>
     </g>
    </g>
    <g id="xtick_7">
     <g id="line2d_7">
      <g>
       <use xlink:href="#m7e7a63d9bd" x="248.85" y="128.16" style="stroke: #000000; stroke-width: 0.5"/>
      </g>
     </g>
     <g id="text_7">
      <text style="font: 7px 'sans-serif'" transform="translate(242.661562 136.978906)">CH,</text>
      <text style="font: 7px 'sans-serif'" transform="translate(235.906016 144.817375)"> n=675</text>
     </g>
    </g>
    <g id="xtick_8">
     <g id="line2d_8">
      <g>
       <use xlink:href="#m7e7a63d9bd" x="276.75" y="128.16" style="stroke: #000000; stroke-width: 0.5"/>
      </g>
     </g>
     <g id="text_8">
      <text style="font: 7px 'sans-serif'" transform="translate(270.860703 136.978906)">AC,</text>
      <text style="font: 7px 'sans-serif'" transform="translate(263.806016 144.817375)"> n=740</text>
     </g>
    </g>
    <g id="xtick_9">
     <g id="line2d_9">
      <g>
       <use xlink:href="#m7e7a63d9bd" x="304.65" y="128.16" style="stroke: #000000; stroke-width: 0.5"/>
      </g>
     </g>
     <g id="text_9">
      <text style="font: 7px 'sans-serif'" transform="translate(300.394766 136.978906)">PJ,</text>
      <text style="font: 7px 'sans-serif'" transform="translate(291.706016 144.817375)"> n=477</text>
     </g>
    </g>
    <g id="xtick_10">
     <g id="line2d_10">
      <g>
       <use xlink:href="#m7e7a63d9bd" x="332.55" y="128.16" style="stroke: #000000; stroke-width: 0.5"/>
      </g>
     </g>
     <g id="text_10">
      <text style="font: 7px 'sans-serif'" transform="translate(326.549688 136.978906)">CC,</text>
      <text style="font: 7px 'sans-serif'" transform="translate(319.606016 144.817375)"> n=572</text>
     </g>
    </g>
    <g id="xtick_11">
     <g id="line2d_11">
      <g>
       <use xlink:href="#m7e7a63d9bd" x="360.45" y="128.16" style="stroke: #000000; stroke-width: 0.5"/>
      </g>
     </g>
     <g id="text_11">
      <text style="font: 7px 'sans-serif'" transform="translate(355.214219 136.978906)">FP,</text>
      <text style="font: 7px 'sans-serif'" transform="translate(347.506016 144.817375)"> n=657</text>
     </g>
    </g>
    <g id="xtick_12">
     <g id="line2d_12">
      <g>
       <use xlink:href="#m7e7a63d9bd" x="388.35" y="128.16" style="stroke: #000000; stroke-width: 0.5"/>
      </g>
     </g>
     <g id="text_12">
      <text style="font: 7px 'sans-serif'" transform="translate(382.274766 136.978906)">BU,</text>
      <text style="font: 7px 'sans-serif'" transform="translate(375.406016 144.817375)"> n=718</text>
     </g>
    </g>
    <g id="xtick_13">
     <g id="line2d_13">
      <g>
       <use xlink:href="#m7e7a63d9bd" x="416.25" y="128.16" style="stroke: #000000; stroke-width: 0.5"/>
      </g>
     </g>
     <g id="text_13">
      <text style="font: 7px 'sans-serif'" transform="translate(410.786172 136.978906)">BL,</text>
      <text style="font: 7px 'sans-serif'" transform="translate(403.306016 144.817375)"> n=648</text>
     </g>
    </g>
    <g id="xtick_14">
     <g id="line2d_14">
      <g>
       <use xlink:href="#m7e7a63d9bd" x="444.15" y="128.16" style="stroke: #000000; stroke-width: 0.5"/>
      </g>
     </g>
     <g id="text_14">
      <text style="font: 7px 'sans-serif'" transform="translate(439.573203 136.978906)">RI,</text>
      <text style="font: 7px 'sans-serif'" transform="translate(431.206016 144.817375)"> n=636</text>
     </g>
    </g>
    <g id="xtick_15">
     <g id="line2d_15">
      <g>
       <use xlink:href="#m7e7a63d9bd" x="472.05" y="128.16" style="stroke: #000000; stroke-width: 0.5"/>
      </g>
     </g>
     <g id="text_15">
      <text style="font: 7px 'sans-serif'" transform="translate(466.294141 136.978906)">ER,</text>
      <text style="font: 7px 'sans-serif'" transform="translate(459.106016 144.817375)"> n=697</text>
     </g>
    </g>
   </g>
   <g id="matplotlib.axis_2">
    <g id="ytick_1">
     <g id="line2d_16">
      <defs>
       <path id="m71b18f547d" d="M 0 0 
L 3 0 
" style="stroke: #000000; stroke-width: 0.5"/>
      </defs>
      <g>
       <use xlink:href="#m71b18f547d" x="67.5" y="107.694108" style="stroke: #000000; stroke-width: 0.5"/>
      </g>
     </g>
     <g id="text_16">
      <text style="font: 7px 'sans-serif'; text-anchor: end" x="64" y="110.353561" transform="rotate(-0, 64, 110.353561)">−0.2</text>
     </g>
    </g>
    <g id="ytick_2">
     <g id="line2d_17">
      <g>
       <use xlink:href="#m71b18f547d" x="67.5" y="86.123188" style="stroke: #000000; stroke-width: 0.5"/>
      </g>
     </g>
     <g id="text_17">
      <text style="font: 7px 'sans-serif'; text-anchor: end" x="64" y="88.782641" transform="rotate(-0, 64, 88.782641)">0.0</text>
     </g>
    </g>
    <g id="ytick_3">
     <g id="line2d_18">
      <g>
       <use xlink:href="#m71b18f547d" x="67.5" y="64.552267" style="stroke: #000000; stroke-width: 0.5"/>
      </g>
     </g>
     <g id="text_18">
      <text style="font: 7px 'sans-serif'; text-anchor: end" x="64" y="67.211721" transform="rotate(-0, 64, 67.211721)">0.2</text>
     </g>
    </g>
    <g id="ytick_4">
     <g id="line2d_19">
      <g>
       <use xlink:href="#m71b18f547d" x="67.5" y="42.981347" style="stroke: #000000; stroke-width: 0.5"/>
      </g>
     </g>
     <g id="text_19">
      <text style="font: 7px 'sans-serif'; text-anchor: end" x="64" y="45.6408" transform="rotate(-0, 64, 45.6408)">0.4</text>
     </g>
    </g>
    <g id="ytick_5">
     <g id="line2d_20">
      <g>
       <use xlink:href="#m71b18f547d" x="67.5" y="21.410427" style="stroke: #000000; stroke-width: 0.5"/>
      </g>
     </g>
     <g id="text_20">
      <text style="font: 7px 'sans-serif'; text-anchor: end" x="64" y="24.06988" transform="rotate(-0, 64, 24.06988)">0.6</text>
     </g>
    </g>
    <g id="text_21">
     <text style="font: 7px 'sans-serif'; text-anchor: middle" x="41.54625" y="72.72" transform="rotate(-90, 41.54625, 72.72)">SHAP value</text>
    </g>
   </g>
   <g id="line2d_21">
    <path d="M 67.5 86.123188 
L 486 86.123188 
" clip-path="url(#pb6870e3670)" style="fill: none; stroke: #000000; stroke-opacity: 0.5; stroke-linecap: square"/>
   </g>
   <g id="patch_3">
    <path d="M 67.5 128.16 
L 67.5 17.28 
" style="fill: none; stroke: #000000; stroke-width: 0.5; stroke-linejoin: miter; stroke-linecap: square"/>
   </g>
   <g id="patch_4">
    <path d="M 486 128.16 
L 486 17.28 
" style="fill: none; stroke: #000000; stroke-width: 0.5; stroke-linejoin: miter; stroke-linecap: square"/>
   </g>
   <g id="patch_5">
    <path d="M 67.5 128.16 
L 486 128.16 
" style="fill: none; stroke: #000000; stroke-width: 0.5; stroke-linejoin: miter; stroke-linecap: square"/>
   </g>
   <g id="patch_6">
    <path d="M 67.5 17.28 
L 486 17.28 
" style="fill: none; stroke: #000000; stroke-width: 0.5; stroke-linejoin: miter; stroke-linecap: square"/>
   </g>
  </g>
 </g>
 <defs>
  <clipPath id="pb6870e3670">
   <rect x="67.5" y="17.28" width="418.5" height="110.88"/>
  </clipPath>
 </defs>
</svg>
