<?xml version="1.0" encoding="utf-8" standalone="no"?>
<!DOCTYPE svg PUBLIC "-//W3C//DTD SVG 1.1//EN"
  "http://www.w3.org/Graphics/SVG/1.1/DTD/svg11.dtd">
<svg xmlns:xlink="http://www.w3.org/1999/xlink" width="72pt" height="216pt" viewBox="0 0 72 216" xmlns="http://www.w3.org/2000/svg" version="1.1">
 <metadata>
  <rdf:RDF xmlns:dc="http://purl.org/dc/elements/1.1/" xmlns:cc="http://creativecommons.org/ns#" xmlns:rdf="http://www.w3.org/1999/02/22-rdf-syntax-ns#">
   <cc:Work>
    <dc:type rdf:resource="http://purl.org/dc/dcmitype/StillImage"/>
    <dc:date>2025-02-03T16:19:11.281003</dc:date>
    <dc:format>image/svg+xml</dc:format>
    <dc:creator>
     <cc:Agent>
      <dc:title>Matplotlib v3.5.2, https://matplotlib.org/</dc:title>
     </cc:Agent>
    </dc:creator>
   </cc:Work>
  </rdf:RDF>
 </metadata>
 <defs>
  <style type="text/css">*{stroke-linejoin: round; stroke-linecap: butt}</style>
 </defs>
 <g id="figure_1">
  <g id="patch_1">
   <path d="M 0 216 
L 72 216 
L 72 0 
L 0 0 
z
" style="fill: #ffffff"/>
  </g>
  <g id="axes_1">
   <g id="patch_2">
    <path d="M 9 192.24 
L 64.8 192.24 
L 64.8 25.92 
L 9 25.92 
z
" style="fill: #ffffff"/>
   </g>
   <g id="QuadMesh_1">
    <path d="M 9 25.92 
L 20.16 25.92 
L 20.16 33.84 
L 9 33.84 
L 9 25.92 
" clip-path="url(#p8a828dfcaf)" style="fill: #404040; stroke: #000000; stroke-width: 0.5"/>
    <path d="M 20.16 25.92 
L 31.32 25.92 
L 31.32 33.84 
L 20.16 33.84 
L 20.16 25.92 
" clip-path="url(#p8a828dfcaf)" style="fill: #404040; stroke: #000000; stroke-width: 0.5"/>
    <path d="M 31.32 25.92 
L 42.48 25.92 
L 42.48 33.84 
L 31.32 33.84 
L 31.32 25.92 
" clip-path="url(#p8a828dfcaf)" style="fill: #404040; stroke: #000000; stroke-width: 0.5"/>
    <path d="M 42.48 25.92 
L 53.64 25.92 
L 53.64 33.84 
L 42.48 33.84 
L 42.48 25.92 
" clip-path="url(#p8a828dfcaf)" style="fill: #404040; stroke: #000000; stroke-width: 0.5"/>
    <path d="M 53.64 25.92 
L 64.8 25.92 
L 64.8 33.84 
L 53.64 33.84 
L 53.64 25.92 
" clip-path="url(#p8a828dfcaf)" style="fill: #404040; stroke: #000000; stroke-width: 0.5"/>
    <path d="M 9 33.84 
L 20.16 33.84 
L 20.16 41.76 
L 9 41.76 
L 9 33.84 
" clip-path="url(#p8a828dfcaf)" style="fill: #404040; stroke: #000000; stroke-width: 0.5"/>
    <path d="M 20.16 33.84 
L 31.32 33.84 
L 31.32 41.76 
L 20.16 41.76 
L 20.16 33.84 
" clip-path="url(#p8a828dfcaf)" style="fill: #404040; stroke: #000000; stroke-width: 0.5"/>
    <path d="M 31.32 33.84 
L 42.48 33.84 
L 42.48 41.76 
L 31.32 41.76 
L 31.32 33.84 
" clip-path="url(#p8a828dfcaf)" style="fill: #404040; stroke: #000000; stroke-width: 0.5"/>
    <path d="M 42.48 33.84 
L 53.64 33.84 
L 53.64 41.76 
L 42.48 41.76 
L 42.48 33.84 
" clip-path="url(#p8a828dfcaf)" style="fill: #404040; stroke: #000000; stroke-width: 0.5"/>
    <path d="M 53.64 33.84 
L 64.8 33.84 
L 64.8 41.76 
L 53.64 41.76 
L 53.64 33.84 
" clip-path="url(#p8a828dfcaf)" style="fill: #404040; stroke: #000000; stroke-width: 0.5"/>
    <path d="M 9 41.76 
L 20.16 41.76 
L 20.16 49.68 
L 9 49.68 
L 9 41.76 
" clip-path="url(#p8a828dfcaf)" style="fill: #ffffff; stroke: #000000; stroke-width: 0.5"/>
    <path d="M 20.16 41.76 
L 31.32 41.76 
L 31.32 49.68 
L 20.16 49.68 
L 20.16 41.76 
" clip-path="url(#p8a828dfcaf)" style="fill: #404040; stroke: #000000; stroke-width: 0.5"/>
    <path d="M 31.32 41.76 
L 42.48 41.76 
L 42.48 49.68 
L 31.32 49.68 
L 31.32 41.76 
" clip-path="url(#p8a828dfcaf)" style="fill: #404040; stroke: #000000; stroke-width: 0.5"/>
    <path d="M 42.48 41.76 
L 53.64 41.76 
L 53.64 49.68 
L 42.48 49.68 
L 42.48 41.76 
" clip-path="url(#p8a828dfcaf)" style="fill: #404040; stroke: #000000; stroke-width: 0.5"/>
    <path d="M 53.64 41.76 
L 64.8 41.76 
L 64.8 49.68 
L 53.64 49.68 
L 53.64 41.76 
" clip-path="url(#p8a828dfcaf)" style="fill: #404040; stroke: #000000; stroke-width: 0.5"/>
    <path d="M 9 49.68 
L 20.16 49.68 
L 20.16 57.6 
L 9 57.6 
L 9 49.68 
" clip-path="url(#p8a828dfcaf)" style="fill: #404040; stroke: #000000; stroke-width: 0.5"/>
    <path d="M 20.16 49.68 
L 31.32 49.68 
L 31.32 57.6 
L 20.16 57.6 
L 20.16 49.68 
" clip-path="url(#p8a828dfcaf)" style="fill: #404040; stroke: #000000; stroke-width: 0.5"/>
    <path d="M 31.32 49.68 
L 42.48 49.68 
L 42.48 57.6 
L 31.32 57.6 
L 31.32 49.68 
" clip-path="url(#p8a828dfcaf)" style="fill: #404040; stroke: #000000; stroke-width: 0.5"/>
    <path d="M 42.48 49.68 
L 53.64 49.68 
L 53.64 57.6 
L 42.48 57.6 
L 42.48 49.68 
" clip-path="url(#p8a828dfcaf)" style="fill: #404040; stroke: #000000; stroke-width: 0.5"/>
    <path d="M 53.64 49.68 
L 64.8 49.68 
L 64.8 57.6 
L 53.64 57.6 
L 53.64 49.68 
" clip-path="url(#p8a828dfcaf)" style="fill: #404040; stroke: #000000; stroke-width: 0.5"/>
    <path d="M 9 57.6 
L 20.16 57.6 
L 20.16 65.52 
L 9 65.52 
L 9 57.6 
" clip-path="url(#p8a828dfcaf)" style="fill: #404040; stroke: #000000; stroke-width: 0.5"/>
    <path d="M 20.16 57.6 
L 31.32 57.6 
L 31.32 65.52 
L 20.16 65.52 
L 20.16 57.6 
" clip-path="url(#p8a828dfcaf)" style="fill: #404040; stroke: #000000; stroke-width: 0.5"/>
    <path d="M 31.32 57.6 
L 42.48 57.6 
L 42.48 65.52 
L 31.32 65.52 
L 31.32 57.6 
" clip-path="url(#p8a828dfcaf)" style="fill: #404040; stroke: #000000; stroke-width: 0.5"/>
    <path d="M 42.48 57.6 
L 53.64 57.6 
L 53.64 65.52 
L 42.48 65.52 
L 42.48 57.6 
" clip-path="url(#p8a828dfcaf)" style="fill: #404040; stroke: #000000; stroke-width: 0.5"/>
    <path d="M 53.64 57.6 
L 64.8 57.6 
L 64.8 65.52 
L 53.64 65.52 
L 53.64 57.6 
" clip-path="url(#p8a828dfcaf)" style="fill: #404040; stroke: #000000; stroke-width: 0.5"/>
    <path d="M 9 65.52 
L 20.16 65.52 
L 20.16 73.44 
L 9 73.44 
L 9 65.52 
" clip-path="url(#p8a828dfcaf)" style="fill: #ffffff; stroke: #000000; stroke-width: 0.5"/>
    <path d="M 20.16 65.52 
L 31.32 65.52 
L 31.32 73.44 
L 20.16 73.44 
L 20.16 65.52 
" clip-path="url(#p8a828dfcaf)" style="fill: #ffffff; stroke: #000000; stroke-width: 0.5"/>
    <path d="M 31.32 65.52 
L 42.48 65.52 
L 42.48 73.44 
L 31.32 73.44 
L 31.32 65.52 
" clip-path="url(#p8a828dfcaf)" style="fill: #ffffff; stroke: #000000; stroke-width: 0.5"/>
    <path d="M 42.48 65.52 
L 53.64 65.52 
L 53.64 73.44 
L 42.48 73.44 
L 42.48 65.52 
" clip-path="url(#p8a828dfcaf)" style="fill: #ffffff; stroke: #000000; stroke-width: 0.5"/>
    <path d="M 53.64 65.52 
L 64.8 65.52 
L 64.8 73.44 
L 53.64 73.44 
L 53.64 65.52 
" clip-path="url(#p8a828dfcaf)" style="fill: #ffffff; stroke: #000000; stroke-width: 0.5"/>
    <path d="M 9 73.44 
L 20.16 73.44 
L 20.16 81.36 
L 9 81.36 
L 9 73.44 
" clip-path="url(#p8a828dfcaf)" style="fill: #ffffff; stroke: #000000; stroke-width: 0.5"/>
    <path d="M 20.16 73.44 
L 31.32 73.44 
L 31.32 81.36 
L 20.16 81.36 
L 20.16 73.44 
" clip-path="url(#p8a828dfcaf)" style="fill: #404040; stroke: #000000; stroke-width: 0.5"/>
    <path d="M 31.32 73.44 
L 42.48 73.44 
L 42.48 81.36 
L 31.32 81.36 
L 31.32 73.44 
" clip-path="url(#p8a828dfcaf)" style="fill: #404040; stroke: #000000; stroke-width: 0.5"/>
    <path d="M 42.48 73.44 
L 53.64 73.44 
L 53.64 81.36 
L 42.48 81.36 
L 42.48 73.44 
" clip-path="url(#p8a828dfcaf)" style="fill: #ffffff; stroke: #000000; stroke-width: 0.5"/>
    <path d="M 53.64 73.44 
L 64.8 73.44 
L 64.8 81.36 
L 53.64 81.36 
L 53.64 73.44 
" clip-path="url(#p8a828dfcaf)" style="fill: #ffffff; stroke: #000000; stroke-width: 0.5"/>
    <path d="M 9 81.36 
L 20.16 81.36 
L 20.16 89.28 
L 9 89.28 
L 9 81.36 
" clip-path="url(#p8a828dfcaf)" style="fill: #404040; stroke: #000000; stroke-width: 0.5"/>
    <path d="M 20.16 81.36 
L 31.32 81.36 
L 31.32 89.28 
L 20.16 89.28 
L 20.16 81.36 
" clip-path="url(#p8a828dfcaf)" style="fill: #404040; stroke: #000000; stroke-width: 0.5"/>
    <path d="M 31.32 81.36 
L 42.48 81.36 
L 42.48 89.28 
L 31.32 89.28 
L 31.32 81.36 
" clip-path="url(#p8a828dfcaf)" style="fill: #404040; stroke: #000000; stroke-width: 0.5"/>
    <path d="M 42.48 81.36 
L 53.64 81.36 
L 53.64 89.28 
L 42.48 89.28 
L 42.48 81.36 
" clip-path="url(#p8a828dfcaf)" style="fill: #404040; stroke: #000000; stroke-width: 0.5"/>
    <path d="M 53.64 81.36 
L 64.8 81.36 
L 64.8 89.28 
L 53.64 89.28 
L 53.64 81.36 
" clip-path="url(#p8a828dfcaf)" style="fill: #404040; stroke: #000000; stroke-width: 0.5"/>
    <path d="M 9 89.28 
L 20.16 89.28 
L 20.16 97.2 
L 9 97.2 
L 9 89.28 
" clip-path="url(#p8a828dfcaf)" style="fill: #404040; stroke: #000000; stroke-width: 0.5"/>
    <path d="M 20.16 89.28 
L 31.32 89.28 
L 31.32 97.2 
L 20.16 97.2 
L 20.16 89.28 
" clip-path="url(#p8a828dfcaf)" style="fill: #404040; stroke: #000000; stroke-width: 0.5"/>
    <path d="M 31.32 89.28 
L 42.48 89.28 
L 42.48 97.2 
L 31.32 97.2 
L 31.32 89.28 
" clip-path="url(#p8a828dfcaf)" style="fill: #404040; stroke: #000000; stroke-width: 0.5"/>
    <path d="M 42.48 89.28 
L 53.64 89.28 
L 53.64 97.2 
L 42.48 97.2 
L 42.48 89.28 
" clip-path="url(#p8a828dfcaf)" style="fill: #404040; stroke: #000000; stroke-width: 0.5"/>
    <path d="M 53.64 89.28 
L 64.8 89.28 
L 64.8 97.2 
L 53.64 97.2 
L 53.64 89.28 
" clip-path="url(#p8a828dfcaf)" style="fill: #404040; stroke: #000000; stroke-width: 0.5"/>
    <path d="M 9 97.2 
L 20.16 97.2 
L 20.16 105.12 
L 9 105.12 
L 9 97.2 
" clip-path="url(#p8a828dfcaf)" style="fill: #ffffff; stroke: #000000; stroke-width: 0.5"/>
    <path d="M 20.16 97.2 
L 31.32 97.2 
L 31.32 105.12 
L 20.16 105.12 
L 20.16 97.2 
" clip-path="url(#p8a828dfcaf)" style="fill: #ffffff; stroke: #000000; stroke-width: 0.5"/>
    <path d="M 31.32 97.2 
L 42.48 97.2 
L 42.48 105.12 
L 31.32 105.12 
L 31.32 97.2 
" clip-path="url(#p8a828dfcaf)" style="fill: #ffffff; stroke: #000000; stroke-width: 0.5"/>
    <path d="M 42.48 97.2 
L 53.64 97.2 
L 53.64 105.12 
L 42.48 105.12 
L 42.48 97.2 
" clip-path="url(#p8a828dfcaf)" style="fill: #ffffff; stroke: #000000; stroke-width: 0.5"/>
    <path d="M 53.64 97.2 
L 64.8 97.2 
L 64.8 105.12 
L 53.64 105.12 
L 53.64 97.2 
" clip-path="url(#p8a828dfcaf)" style="fill: #ffffff; stroke: #000000; stroke-width: 0.5"/>
    <path d="M 9 105.12 
L 20.16 105.12 
L 20.16 113.04 
L 9 113.04 
L 9 105.12 
" clip-path="url(#p8a828dfcaf)" style="fill: #404040; stroke: #000000; stroke-width: 0.5"/>
    <path d="M 20.16 105.12 
L 31.32 105.12 
L 31.32 113.04 
L 20.16 113.04 
L 20.16 105.12 
" clip-path="url(#p8a828dfcaf)" style="fill: #404040; stroke: #000000; stroke-width: 0.5"/>
    <path d="M 31.32 105.12 
L 42.48 105.12 
L 42.48 113.04 
L 31.32 113.04 
L 31.32 105.12 
" clip-path="url(#p8a828dfcaf)" style="fill: #404040; stroke: #000000; stroke-width: 0.5"/>
    <path d="M 42.48 105.12 
L 53.64 105.12 
L 53.64 113.04 
L 42.48 113.04 
L 42.48 105.12 
" clip-path="url(#p8a828dfcaf)" style="fill: #ffffff; stroke: #000000; stroke-width: 0.5"/>
    <path d="M 53.64 105.12 
L 64.8 105.12 
L 64.8 113.04 
L 53.64 113.04 
L 53.64 105.12 
" clip-path="url(#p8a828dfcaf)" style="fill: #404040; stroke: #000000; stroke-width: 0.5"/>
    <path d="M 9 113.04 
L 20.16 113.04 
L 20.16 120.96 
L 9 120.96 
L 9 113.04 
" clip-path="url(#p8a828dfcaf)" style="fill: #404040; stroke: #000000; stroke-width: 0.5"/>
    <path d="M 20.16 113.04 
L 31.32 113.04 
L 31.32 120.96 
L 20.16 120.96 
L 20.16 113.04 
" clip-path="url(#p8a828dfcaf)" style="fill: #ffffff; stroke: #000000; stroke-width: 0.5"/>
    <path d="M 31.32 113.04 
L 42.48 113.04 
L 42.48 120.96 
L 31.32 120.96 
L 31.32 113.04 
" clip-path="url(#p8a828dfcaf)" style="fill: #ffffff; stroke: #000000; stroke-width: 0.5"/>
    <path d="M 42.48 113.04 
L 53.64 113.04 
L 53.64 120.96 
L 42.48 120.96 
L 42.48 113.04 
" clip-path="url(#p8a828dfcaf)" style="fill: #404040; stroke: #000000; stroke-width: 0.5"/>
    <path d="M 53.64 113.04 
L 64.8 113.04 
L 64.8 120.96 
L 53.64 120.96 
L 53.64 113.04 
" clip-path="url(#p8a828dfcaf)" style="fill: #ffffff; stroke: #000000; stroke-width: 0.5"/>
    <path d="M 9 120.96 
L 20.16 120.96 
L 20.16 128.88 
L 9 128.88 
L 9 120.96 
" clip-path="url(#p8a828dfcaf)" style="fill: #ffffff; stroke: #000000; stroke-width: 0.5"/>
    <path d="M 20.16 120.96 
L 31.32 120.96 
L 31.32 128.88 
L 20.16 128.88 
L 20.16 120.96 
" clip-path="url(#p8a828dfcaf)" style="fill: #ffffff; stroke: #000000; stroke-width: 0.5"/>
    <path d="M 31.32 120.96 
L 42.48 120.96 
L 42.48 128.88 
L 31.32 128.88 
L 31.32 120.96 
" clip-path="url(#p8a828dfcaf)" style="fill: #ffffff; stroke: #000000; stroke-width: 0.5"/>
    <path d="M 42.48 120.96 
L 53.64 120.96 
L 53.64 128.88 
L 42.48 128.88 
L 42.48 120.96 
" clip-path="url(#p8a828dfcaf)" style="fill: #ffffff; stroke: #000000; stroke-width: 0.5"/>
    <path d="M 53.64 120.96 
L 64.8 120.96 
L 64.8 128.88 
L 53.64 128.88 
L 53.64 120.96 
" clip-path="url(#p8a828dfcaf)" style="fill: #ffffff; stroke: #000000; stroke-width: 0.5"/>
    <path d="M 9 128.88 
L 20.16 128.88 
L 20.16 136.8 
L 9 136.8 
L 9 128.88 
" clip-path="url(#p8a828dfcaf)" style="fill: #ffffff; stroke: #000000; stroke-width: 0.5"/>
    <path d="M 20.16 128.88 
L 31.32 128.88 
L 31.32 136.8 
L 20.16 136.8 
L 20.16 128.88 
" clip-path="url(#p8a828dfcaf)" style="fill: #ffffff; stroke: #000000; stroke-width: 0.5"/>
    <path d="M 31.32 128.88 
L 42.48 128.88 
L 42.48 136.8 
L 31.32 136.8 
L 31.32 128.88 
" clip-path="url(#p8a828dfcaf)" style="fill: #ffffff; stroke: #000000; stroke-width: 0.5"/>
    <path d="M 42.48 128.88 
L 53.64 128.88 
L 53.64 136.8 
L 42.48 136.8 
L 42.48 128.88 
" clip-path="url(#p8a828dfcaf)" style="fill: #ffffff; stroke: #000000; stroke-width: 0.5"/>
    <path d="M 53.64 128.88 
L 64.8 128.88 
L 64.8 136.8 
L 53.64 136.8 
L 53.64 128.88 
" clip-path="url(#p8a828dfcaf)" style="fill: #ffffff; stroke: #000000; stroke-width: 0.5"/>
    <path d="M 9 136.8 
L 20.16 136.8 
L 20.16 144.72 
L 9 144.72 
L 9 136.8 
" clip-path="url(#p8a828dfcaf)" style="fill: #404040; stroke: #000000; stroke-width: 0.5"/>
    <path d="M 20.16 136.8 
L 31.32 136.8 
L 31.32 144.72 
L 20.16 144.72 
L 20.16 136.8 
" clip-path="url(#p8a828dfcaf)" style="fill: #404040; stroke: #000000; stroke-width: 0.5"/>
    <path d="M 31.32 136.8 
L 42.48 136.8 
L 42.48 144.72 
L 31.32 144.72 
L 31.32 136.8 
" clip-path="url(#p8a828dfcaf)" style="fill: #404040; stroke: #000000; stroke-width: 0.5"/>
    <path d="M 42.48 136.8 
L 53.64 136.8 
L 53.64 144.72 
L 42.48 144.72 
L 42.48 136.8 
" clip-path="url(#p8a828dfcaf)" style="fill: #404040; stroke: #000000; stroke-width: 0.5"/>
    <path d="M 53.64 136.8 
L 64.8 136.8 
L 64.8 144.72 
L 53.64 144.72 
L 53.64 136.8 
" clip-path="url(#p8a828dfcaf)" style="fill: #404040; stroke: #000000; stroke-width: 0.5"/>
    <path d="M 9 144.72 
L 20.16 144.72 
L 20.16 152.64 
L 9 152.64 
L 9 144.72 
" clip-path="url(#p8a828dfcaf)" style="fill: #ffffff; stroke: #000000; stroke-width: 0.5"/>
    <path d="M 20.16 144.72 
L 31.32 144.72 
L 31.32 152.64 
L 20.16 152.64 
L 20.16 144.72 
" clip-path="url(#p8a828dfcaf)" style="fill: #ffffff; stroke: #000000; stroke-width: 0.5"/>
    <path d="M 31.32 144.72 
L 42.48 144.72 
L 42.48 152.64 
L 31.32 152.64 
L 31.32 144.72 
" clip-path="url(#p8a828dfcaf)" style="fill: #ffffff; stroke: #000000; stroke-width: 0.5"/>
    <path d="M 42.48 144.72 
L 53.64 144.72 
L 53.64 152.64 
L 42.48 152.64 
L 42.48 144.72 
" clip-path="url(#p8a828dfcaf)" style="fill: #ffffff; stroke: #000000; stroke-width: 0.5"/>
    <path d="M 53.64 144.72 
L 64.8 144.72 
L 64.8 152.64 
L 53.64 152.64 
L 53.64 144.72 
" clip-path="url(#p8a828dfcaf)" style="fill: #ffffff; stroke: #000000; stroke-width: 0.5"/>
    <path d="M 9 152.64 
L 20.16 152.64 
L 20.16 160.56 
L 9 160.56 
L 9 152.64 
" clip-path="url(#p8a828dfcaf)" style="fill: #ffffff; stroke: #000000; stroke-width: 0.5"/>
    <path d="M 20.16 152.64 
L 31.32 152.64 
L 31.32 160.56 
L 20.16 160.56 
L 20.16 152.64 
" clip-path="url(#p8a828dfcaf)" style="fill: #ffffff; stroke: #000000; stroke-width: 0.5"/>
    <path d="M 31.32 152.64 
L 42.48 152.64 
L 42.48 160.56 
L 31.32 160.56 
L 31.32 152.64 
" clip-path="url(#p8a828dfcaf)" style="fill: #ffffff; stroke: #000000; stroke-width: 0.5"/>
    <path d="M 42.48 152.64 
L 53.64 152.64 
L 53.64 160.56 
L 42.48 160.56 
L 42.48 152.64 
" clip-path="url(#p8a828dfcaf)" style="fill: #ffffff; stroke: #000000; stroke-width: 0.5"/>
    <path d="M 53.64 152.64 
L 64.8 152.64 
L 64.8 160.56 
L 53.64 160.56 
L 53.64 152.64 
" clip-path="url(#p8a828dfcaf)" style="fill: #ffffff; stroke: #000000; stroke-width: 0.5"/>
    <path d="M 9 160.56 
L 20.16 160.56 
L 20.16 168.48 
L 9 168.48 
L 9 160.56 
" clip-path="url(#p8a828dfcaf)" style="fill: #404040; stroke: #000000; stroke-width: 0.5"/>
    <path d="M 20.16 160.56 
L 31.32 160.56 
L 31.32 168.48 
L 20.16 168.48 
L 20.16 160.56 
" clip-path="url(#p8a828dfcaf)" style="fill: #404040; stroke: #000000; stroke-width: 0.5"/>
    <path d="M 31.32 160.56 
L 42.48 160.56 
L 42.48 168.48 
L 31.32 168.48 
L 31.32 160.56 
" clip-path="url(#p8a828dfcaf)" style="fill: #404040; stroke: #000000; stroke-width: 0.5"/>
    <path d="M 42.48 160.56 
L 53.64 160.56 
L 53.64 168.48 
L 42.48 168.48 
L 42.48 160.56 
" clip-path="url(#p8a828dfcaf)" style="fill: #404040; stroke: #000000; stroke-width: 0.5"/>
    <path d="M 53.64 160.56 
L 64.8 160.56 
L 64.8 168.48 
L 53.64 168.48 
L 53.64 160.56 
" clip-path="url(#p8a828dfcaf)" style="fill: #404040; stroke: #000000; stroke-width: 0.5"/>
    <path d="M 9 168.48 
L 20.16 168.48 
L 20.16 176.4 
L 9 176.4 
L 9 168.48 
" clip-path="url(#p8a828dfcaf)" style="fill: #404040; stroke: #000000; stroke-width: 0.5"/>
    <path d="M 20.16 168.48 
L 31.32 168.48 
L 31.32 176.4 
L 20.16 176.4 
L 20.16 168.48 
" clip-path="url(#p8a828dfcaf)" style="fill: #404040; stroke: #000000; stroke-width: 0.5"/>
    <path d="M 31.32 168.48 
L 42.48 168.48 
L 42.48 176.4 
L 31.32 176.4 
L 31.32 168.48 
" clip-path="url(#p8a828dfcaf)" style="fill: #404040; stroke: #000000; stroke-width: 0.5"/>
    <path d="M 42.48 168.48 
L 53.64 168.48 
L 53.64 176.4 
L 42.48 176.4 
L 42.48 168.48 
" clip-path="url(#p8a828dfcaf)" style="fill: #404040; stroke: #000000; stroke-width: 0.5"/>
    <path d="M 53.64 168.48 
L 64.8 168.48 
L 64.8 176.4 
L 53.64 176.4 
L 53.64 168.48 
" clip-path="url(#p8a828dfcaf)" style="fill: #404040; stroke: #000000; stroke-width: 0.5"/>
    <path d="M 9 176.4 
L 20.16 176.4 
L 20.16 184.32 
L 9 184.32 
L 9 176.4 
" clip-path="url(#p8a828dfcaf)" style="fill: #ffffff; stroke: #000000; stroke-width: 0.5"/>
    <path d="M 20.16 176.4 
L 31.32 176.4 
L 31.32 184.32 
L 20.16 184.32 
L 20.16 176.4 
" clip-path="url(#p8a828dfcaf)" style="fill: #ffffff; stroke: #000000; stroke-width: 0.5"/>
    <path d="M 31.32 176.4 
L 42.48 176.4 
L 42.48 184.32 
L 31.32 184.32 
L 31.32 176.4 
" clip-path="url(#p8a828dfcaf)" style="fill: #ffffff; stroke: #000000; stroke-width: 0.5"/>
    <path d="M 42.48 176.4 
L 53.64 176.4 
L 53.64 184.32 
L 42.48 184.32 
L 42.48 176.4 
" clip-path="url(#p8a828dfcaf)" style="fill: #ffffff; stroke: #000000; stroke-width: 0.5"/>
    <path d="M 53.64 176.4 
L 64.8 176.4 
L 64.8 184.32 
L 53.64 184.32 
L 53.64 176.4 
" clip-path="url(#p8a828dfcaf)" style="fill: #404040; stroke: #000000; stroke-width: 0.5"/>
    <path d="M 9 184.32 
L 20.16 184.32 
L 20.16 192.24 
L 9 192.24 
L 9 184.32 
" clip-path="url(#p8a828dfcaf)" style="fill: #ffffff; stroke: #000000; stroke-width: 0.5"/>
    <path d="M 20.16 184.32 
L 31.32 184.32 
L 31.32 192.24 
L 20.16 192.24 
L 20.16 184.32 
" clip-path="url(#p8a828dfcaf)" style="fill: #ffffff; stroke: #000000; stroke-width: 0.5"/>
    <path d="M 31.32 184.32 
L 42.48 184.32 
L 42.48 192.24 
L 31.32 192.24 
L 31.32 184.32 
" clip-path="url(#p8a828dfcaf)" style="fill: #ffffff; stroke: #000000; stroke-width: 0.5"/>
    <path d="M 42.48 184.32 
L 53.64 184.32 
L 53.64 192.24 
L 42.48 192.24 
L 42.48 184.32 
" clip-path="url(#p8a828dfcaf)" style="fill: #404040; stroke: #000000; stroke-width: 0.5"/>
    <path d="M 53.64 184.32 
L 64.8 184.32 
L 64.8 192.24 
L 53.64 192.24 
L 53.64 184.32 
" clip-path="url(#p8a828dfcaf)" style="fill: #ffffff; stroke: #000000; stroke-width: 0.5"/>
   </g>
   <g id="matplotlib.axis_1">
    <g id="xtick_1">
     <g id="line2d_1">
      <defs>
       <path id="m0f3b1c7609" d="M 0 0 
L 0 -3 
" style="stroke: #000000; stroke-width: 0.5"/>
      </defs>
      <g>
       <use xlink:href="#m0f3b1c7609" x="14.58" y="192.24" style="stroke: #000000; stroke-width: 0.5"/>
      </g>
     </g>
     <g id="text_1">
      <text style="font: 7px 'sans-serif'" transform="translate(16.511563 211.325938)rotate(-90)">1.36</text>
     </g>
    </g>
    <g id="xtick_2">
     <g id="line2d_2">
      <g>
       <use xlink:href="#m0f3b1c7609" x="25.74" y="192.24" style="stroke: #000000; stroke-width: 0.5"/>
      </g>
     </g>
     <g id="text_2">
      <text style="font: 7px 'sans-serif'" transform="translate(27.671563 211.325938)rotate(-90)">1.33</text>
     </g>
    </g>
    <g id="xtick_3">
     <g id="line2d_3">
      <g>
       <use xlink:href="#m0f3b1c7609" x="36.9" y="192.24" style="stroke: #000000; stroke-width: 0.5"/>
      </g>
     </g>
     <g id="text_3">
      <text style="font: 7px 'sans-serif'" transform="translate(38.831562 211.325938)rotate(-90)">1.31</text>
     </g>
    </g>
    <g id="xtick_4">
     <g id="line2d_4">
      <g>
       <use xlink:href="#m0f3b1c7609" x="48.06" y="192.24" style="stroke: #000000; stroke-width: 0.5"/>
      </g>
     </g>
     <g id="text_4">
      <text style="font: 7px 'sans-serif'" transform="translate(49.991563 211.325938)rotate(-90)">1.30</text>
     </g>
    </g>
    <g id="xtick_5">
     <g id="line2d_5">
      <g>
       <use xlink:href="#m0f3b1c7609" x="59.22" y="192.24" style="stroke: #000000; stroke-width: 0.5"/>
      </g>
     </g>
     <g id="text_5">
      <text style="font: 7px 'sans-serif'" transform="translate(61.151562 211.325938)rotate(-90)">1.30</text>
     </g>
    </g>
    <g id="text_6">
     <text style="font: 7px 'sans-serif'; text-anchor: middle" x="36.9" y="220.644844" transform="rotate(-0, 36.9, 220.644844)">Butyrate production (mM)</text>
    </g>
   </g>
   <g id="matplotlib.axis_2">
    <g id="ytick_1">
     <g id="line2d_6">
      <defs>
       <path id="m775a5423ef" d="M 0 0 
L 3 0 
" style="stroke: #000000; stroke-width: 0.5"/>
      </defs>
      <g>
       <use xlink:href="#m775a5423ef" x="9" y="29.88" style="stroke: #000000; stroke-width: 0.5"/>
      </g>
     </g>
     <g id="text_7">
      <text style="font: 7px 'sans-serif'; text-anchor: end" x="5.5" y="31.811563" transform="rotate(-0, 5.5, 31.811563)">AC</text>
     </g>
    </g>
    <g id="ytick_2">
     <g id="line2d_7">
      <g>
       <use xlink:href="#m775a5423ef" x="9" y="37.8" style="stroke: #000000; stroke-width: 0.5"/>
      </g>
     </g>
     <g id="text_8">
      <text style="font: 7px 'sans-serif'; text-anchor: end" x="5.5" y="39.731562" transform="rotate(-0, 5.5, 39.731562)">BA</text>
     </g>
    </g>
    <g id="ytick_3">
     <g id="line2d_8">
      <g>
       <use xlink:href="#m775a5423ef" x="9" y="45.72" style="stroke: #000000; stroke-width: 0.5"/>
      </g>
     </g>
     <g id="text_9">
      <text style="font: 7px 'sans-serif'; text-anchor: end" x="5.5" y="47.651563" transform="rotate(-0, 5.5, 47.651563)">BH</text>
     </g>
    </g>
    <g id="ytick_4">
     <g id="line2d_9">
      <g>
       <use xlink:href="#m775a5423ef" x="9" y="53.64" style="stroke: #000000; stroke-width: 0.5"/>
      </g>
     </g>
     <g id="text_10">
      <text style="font: 7px 'sans-serif'; text-anchor: end" x="5.5" y="55.571562" transform="rotate(-0, 5.5, 55.571562)">BL</text>
     </g>
    </g>
    <g id="ytick_5">
     <g id="line2d_10">
      <g>
       <use xlink:href="#m775a5423ef" x="9" y="61.56" style="stroke: #000000; stroke-width: 0.5"/>
      </g>
     </g>
     <g id="text_11">
      <text style="font: 7px 'sans-serif'; text-anchor: end" x="5.5" y="63.491563" transform="rotate(-0, 5.5, 63.491563)">BU</text>
     </g>
    </g>
    <g id="ytick_6">
     <g id="line2d_11">
      <g>
       <use xlink:href="#m775a5423ef" x="9" y="69.48" style="stroke: #000000; stroke-width: 0.5"/>
      </g>
     </g>
     <g id="text_12">
      <text style="font: 7px 'sans-serif'; text-anchor: end" x="5.5" y="71.411563" transform="rotate(-0, 5.5, 71.411563)">CA</text>
     </g>
    </g>
    <g id="ytick_7">
     <g id="line2d_12">
      <g>
       <use xlink:href="#m775a5423ef" x="9" y="77.4" style="stroke: #000000; stroke-width: 0.5"/>
      </g>
     </g>
     <g id="text_13">
      <text style="font: 7px 'sans-serif'; text-anchor: end" x="5.5" y="79.331562" transform="rotate(-0, 5.5, 79.331562)">CC</text>
     </g>
    </g>
    <g id="ytick_8">
     <g id="line2d_13">
      <g>
       <use xlink:href="#m775a5423ef" x="9" y="85.32" style="stroke: #000000; stroke-width: 0.5"/>
      </g>
     </g>
     <g id="text_14">
      <text style="font: 7px 'sans-serif'; text-anchor: end" x="5.5" y="87.251563" transform="rotate(-0, 5.5, 87.251563)">CH</text>
     </g>
    </g>
    <g id="ytick_9">
     <g id="line2d_14">
      <g>
       <use xlink:href="#m775a5423ef" x="9" y="93.24" style="stroke: #000000; stroke-width: 0.5"/>
      </g>
     </g>
     <g id="text_15">
      <text style="font: 7px 'sans-serif'; text-anchor: end" x="5.5" y="95.171562" transform="rotate(-0, 5.5, 95.171562)">DF</text>
     </g>
    </g>
    <g id="ytick_10">
     <g id="line2d_15">
      <g>
       <use xlink:href="#m775a5423ef" x="9" y="101.16" style="stroke: #000000; stroke-width: 0.5"/>
      </g>
     </g>
     <g id="text_16">
      <text style="font: 7px 'sans-serif'; text-anchor: end" x="5.5" y="103.091562" transform="rotate(-0, 5.5, 103.091562)">EL</text>
     </g>
    </g>
    <g id="ytick_11">
     <g id="line2d_16">
      <g>
       <use xlink:href="#m775a5423ef" x="9" y="109.08" style="stroke: #000000; stroke-width: 0.5"/>
      </g>
     </g>
     <g id="text_17">
      <text style="font: 7px 'sans-serif'; text-anchor: end" x="5.5" y="111.011562" transform="rotate(-0, 5.5, 111.011562)">ER</text>
     </g>
    </g>
    <g id="ytick_12">
     <g id="line2d_17">
      <g>
       <use xlink:href="#m775a5423ef" x="9" y="117" style="stroke: #000000; stroke-width: 0.5"/>
      </g>
     </g>
     <g id="text_18">
      <text style="font: 7px 'sans-serif'; text-anchor: end" x="5.5" y="118.931562" transform="rotate(-0, 5.5, 118.931562)">FP</text>
     </g>
    </g>
    <g id="ytick_13">
     <g id="line2d_18">
      <g>
       <use xlink:href="#m775a5423ef" x="9" y="124.92" style="stroke: #000000; stroke-width: 0.5"/>
      </g>
     </g>
     <g id="text_19">
      <text style="font: 7px 'sans-serif'; text-anchor: end" x="5.5" y="126.851562" transform="rotate(-0, 5.5, 126.851562)">PC</text>
     </g>
    </g>
    <g id="ytick_14">
     <g id="line2d_19">
      <g>
       <use xlink:href="#m775a5423ef" x="9" y="132.84" style="stroke: #000000; stroke-width: 0.5"/>
      </g>
     </g>
     <g id="text_20">
      <text style="font: 7px 'sans-serif'; text-anchor: end" x="5.5" y="134.771563" transform="rotate(-0, 5.5, 134.771563)">PJ</text>
     </g>
    </g>
    <g id="ytick_15">
     <g id="line2d_20">
      <g>
       <use xlink:href="#m775a5423ef" x="9" y="140.76" style="stroke: #000000; stroke-width: 0.5"/>
      </g>
     </g>
     <g id="text_21">
      <text style="font: 7px 'sans-serif'; text-anchor: end" x="5.5" y="142.691563" transform="rotate(-0, 5.5, 142.691563)">RI</text>
     </g>
    </g>
    <g id="ytick_16">
     <g id="line2d_21">
      <g>
       <use xlink:href="#m775a5423ef" x="9" y="148.68" style="stroke: #000000; stroke-width: 0.5"/>
      </g>
     </g>
     <g id="text_22">
      <text style="font: 7px 'sans-serif'; text-anchor: end" x="5.5" y="150.611562" transform="rotate(-0, 5.5, 150.611562)">AcGum</text>
     </g>
    </g>
    <g id="ytick_17">
     <g id="line2d_22">
      <g>
       <use xlink:href="#m775a5423ef" x="9" y="156.6" style="stroke: #000000; stroke-width: 0.5"/>
      </g>
     </g>
     <g id="text_23">
      <text style="font: 7px 'sans-serif'; text-anchor: end" x="5.5" y="158.531563" transform="rotate(-0, 5.5, 158.531563)">ArGal</text>
     </g>
    </g>
    <g id="ytick_18">
     <g id="line2d_23">
      <g>
       <use xlink:href="#m775a5423ef" x="9" y="164.52" style="stroke: #000000; stroke-width: 0.5"/>
      </g>
     </g>
     <g id="text_24">
      <text style="font: 7px 'sans-serif'; text-anchor: end" x="5.5" y="166.451563" transform="rotate(-0, 5.5, 166.451563)">Inulin</text>
     </g>
    </g>
    <g id="ytick_19">
     <g id="line2d_24">
      <g>
       <use xlink:href="#m775a5423ef" x="9" y="172.44" style="stroke: #000000; stroke-width: 0.5"/>
      </g>
     </g>
     <g id="text_25">
      <text style="font: 7px 'sans-serif'; text-anchor: end" x="5.5" y="174.371562" transform="rotate(-0, 5.5, 174.371562)">Pectin</text>
     </g>
    </g>
    <g id="ytick_20">
     <g id="line2d_25">
      <g>
       <use xlink:href="#m775a5423ef" x="9" y="180.36" style="stroke: #000000; stroke-width: 0.5"/>
      </g>
     </g>
     <g id="text_26">
      <text style="font: 7px 'sans-serif'; text-anchor: end" x="5.5" y="182.291562" transform="rotate(-0, 5.5, 182.291562)">Starch</text>
     </g>
    </g>
    <g id="ytick_21">
     <g id="line2d_26">
      <g>
       <use xlink:href="#m775a5423ef" x="9" y="188.28" style="stroke: #000000; stroke-width: 0.5"/>
      </g>
     </g>
     <g id="text_27">
      <text style="font: 7px 'sans-serif'; text-anchor: end" x="5.5" y="190.211563" transform="rotate(-0, 5.5, 190.211563)">Xylan</text>
     </g>
    </g>
    <g id="text_28">
     <text style="font: 7px 'sans-serif'; text-anchor: middle" x="-25.149219" y="109.08" transform="rotate(-90, -25.149219, 109.08)">Design variables</text>
    </g>
   </g>
   <g id="text_29">
    <text style="font: 7px 'sans-serif'; text-anchor: middle" x="36.9" y="15.92" transform="rotate(-0, 36.9, 15.92)">Red cluster</text>
   </g>
  </g>
 </g>
 <defs>
  <clipPath id="p8a828dfcaf">
   <rect x="9" y="25.92" width="55.8" height="166.32"/>
  </clipPath>
 </defs>
</svg>
