<?xml version="1.0" encoding="utf-8" standalone="no"?>
<!DOCTYPE svg PUBLIC "-//W3C//DTD SVG 1.1//EN"
  "http://www.w3.org/Graphics/SVG/1.1/DTD/svg11.dtd">
<svg xmlns:xlink="http://www.w3.org/1999/xlink" width="432pt" height="180pt" viewBox="0 0 432 180" xmlns="http://www.w3.org/2000/svg" version="1.1">
 <metadata>
  <rdf:RDF xmlns:dc="http://purl.org/dc/elements/1.1/" xmlns:cc="http://creativecommons.org/ns#" xmlns:rdf="http://www.w3.org/1999/02/22-rdf-syntax-ns#">
   <cc:Work>
    <dc:type rdf:resource="http://purl.org/dc/dcmitype/StillImage"/>
    <dc:date>2024-11-11T06:28:50.161335</dc:date>
    <dc:format>image/svg+xml</dc:format>
    <dc:creator>
     <cc:Agent>
      <dc:title>Matplotlib v3.5.2, https://matplotlib.org/</dc:title>
     </cc:Agent>
    </dc:creator>
   </cc:Work>
  </rdf:RDF>
 </metadata>
 <defs>
  <style type="text/css">*{stroke-linejoin: round; stroke-linecap: butt}</style>
 </defs>
 <g id="figure_1">
  <g id="patch_1">
   <path d="M 0 180 
L 432 180 
L 432 0 
L 0 0 
z
" style="fill: #ffffff"/>
  </g>
  <g id="axes_1">
   <g id="patch_2">
    <path d="M 45.83 143.8 
L 213.525 143.8 
L 213.525 23.856 
L 45.83 23.856 
z
" style="fill: #ffffff"/>
   </g>
   <g id="PathCollection_1">
    <defs>
     <path id="m1209b24585" d="M 0 2.5 
C 0.663008 2.5 1.29895 2.236584 1.767767 1.767767 
C 2.236584 1.29895 2.5 0.663008 2.5 0 
C 2.5 -0.663008 2.236584 -1.29895 1.767767 -1.767767 
C 1.29895 -2.236584 0.663008 -2.5 0 -2.5 
C -0.663008 -2.5 -1.29895 -2.236584 -1.767767 -1.767767 
C -2.236584 -1.29895 -2.5 -0.663008 -2.5 0 
C -2.5 0.663008 -2.236584 1.29895 -1.767767 1.767767 
C -1.29895 2.236584 -0.663008 2.5 0 2.5 
z
" style="stroke: #1f77b4"/>
    </defs>
    <g clip-path="url(#pd85bfc058b)">
     <use xlink:href="#m1209b24585" x="53.4525" y="116.850361" style="fill: #1f77b4; stroke: #1f77b4"/>
     <use xlink:href="#m1209b24585" x="104.269167" y="111.901593" style="fill: #1f77b4; stroke: #1f77b4"/>
     <use xlink:href="#m1209b24585" x="155.085833" y="111.930719" style="fill: #1f77b4; stroke: #1f77b4"/>
     <use xlink:href="#m1209b24585" x="205.9025" y="115.403394" style="fill: #1f77b4; stroke: #1f77b4"/>
    </g>
   </g>
   <g id="PolyCollection_1">
    <defs>
     <path id="m4274f45683" d="M 53.4525 -63.149639 
L 53.4525 -63.149639 
L 104.269167 -57.368463 
L 155.085833 -47.272397 
L 205.9025 -44.188491 
L 205.9025 -82.785518 
L 205.9025 -82.785518 
L 155.085833 -85.726076 
L 104.269167 -95.797381 
L 53.4525 -63.149639 
z
" style="stroke: #1f77b4; stroke-opacity: 0.5"/>
    </defs>
    <g clip-path="url(#pd85bfc058b)">
     <use xlink:href="#m4274f45683" x="0" y="180" style="fill: #1f77b4; fill-opacity: 0.5; stroke: #1f77b4; stroke-opacity: 0.5"/>
    </g>
   </g>
   <g id="PathCollection_2">
    <defs>
     <path id="m988a395f7c" d="M 0 2.5 
C 0.663008 2.5 1.29895 2.236584 1.767767 1.767767 
C 2.236584 1.29895 2.5 0.663008 2.5 0 
C 2.5 -0.663008 2.236584 -1.29895 1.767767 -1.767767 
C 1.29895 -2.236584 0.663008 -2.5 0 -2.5 
C -0.663008 -2.5 -1.29895 -2.236584 -1.767767 -1.767767 
C -2.236584 -1.29895 -2.5 -0.663008 -2.5 0 
C -2.5 0.663008 -2.236584 1.29895 -1.767767 1.767767 
C -1.29895 2.236584 -0.663008 2.5 0 2.5 
z
" style="stroke: #ff7f0e"/>
    </defs>
    <g clip-path="url(#pd85bfc058b)">
     <use xlink:href="#m988a395f7c" x="53.4525" y="116.850361" style="fill: #ff7f0e; stroke: #ff7f0e"/>
     <use xlink:href="#m988a395f7c" x="104.269167" y="84.793994" style="fill: #ff7f0e; stroke: #ff7f0e"/>
     <use xlink:href="#m988a395f7c" x="155.085833" y="108.052541" style="fill: #ff7f0e; stroke: #ff7f0e"/>
     <use xlink:href="#m988a395f7c" x="205.9025" y="102.835922" style="fill: #ff7f0e; stroke: #ff7f0e"/>
    </g>
   </g>
   <g id="PolyCollection_2">
    <defs>
     <path id="mf80313c04f" d="M 53.4525 -63.149639 
L 53.4525 -63.149639 
L 104.269167 -92.320674 
L 155.085833 -50.705789 
L 205.9025 -56.519012 
L 205.9025 -107.217219 
L 205.9025 -107.217219 
L 155.085833 -101.385396 
L 104.269167 -142.975876 
L 53.4525 -63.149639 
z
" style="stroke: #ff7f0e; stroke-opacity: 0.5"/>
    </defs>
    <g clip-path="url(#pd85bfc058b)">
     <use xlink:href="#mf80313c04f" x="0" y="180" style="fill: #ff7f0e; fill-opacity: 0.5; stroke: #ff7f0e; stroke-opacity: 0.5"/>
    </g>
   </g>
   <g id="PathCollection_3">
    <defs>
     <path id="m21707a0a42" d="M 0 2.5 
C 0.663008 2.5 1.29895 2.236584 1.767767 1.767767 
C 2.236584 1.29895 2.5 0.663008 2.5 0 
C 2.5 -0.663008 2.236584 -1.29895 1.767767 -1.767767 
C 1.29895 -2.236584 0.663008 -2.5 0 -2.5 
C -0.663008 -2.5 -1.29895 -2.236584 -1.767767 -1.767767 
C -2.236584 -1.29895 -2.5 -0.663008 -2.5 0 
C -2.5 0.663008 -2.236584 1.29895 -1.767767 1.767767 
C -1.29895 2.236584 -0.663008 2.5 0 2.5 
z
" style="stroke: #2ca02c"/>
    </defs>
    <g clip-path="url(#pd85bfc058b)">
     <use xlink:href="#m21707a0a42" x="53.4525" y="116.850361" style="fill: #2ca02c; stroke: #2ca02c"/>
     <use xlink:href="#m21707a0a42" x="104.269167" y="120.93217" style="fill: #2ca02c; stroke: #2ca02c"/>
     <use xlink:href="#m21707a0a42" x="155.085833" y="54.108808" style="fill: #2ca02c; stroke: #2ca02c"/>
     <use xlink:href="#m21707a0a42" x="205.9025" y="75.56703" style="fill: #2ca02c; stroke: #2ca02c"/>
    </g>
   </g>
   <g id="PolyCollection_3">
    <defs>
     <path id="m8f546262b0" d="M 53.4525 -63.149639 
L 53.4525 -63.149639 
L 104.269167 -41.652 
L 155.085833 -107.405336 
L 205.9025 -106.524365 
L 205.9025 -149.879419 
L 205.9025 -149.879419 
L 155.085833 -150.692 
L 104.269167 -84.860931 
L 53.4525 -63.149639 
z
" style="stroke: #2ca02c; stroke-opacity: 0.5"/>
    </defs>
    <g clip-path="url(#pd85bfc058b)">
     <use xlink:href="#m8f546262b0" x="0" y="180" style="fill: #2ca02c; fill-opacity: 0.5; stroke: #2ca02c; stroke-opacity: 0.5"/>
    </g>
   </g>
   <g id="matplotlib.axis_1">
    <g id="xtick_1">
     <g id="line2d_1">
      <defs>
       <path id="m9f109e8e3c" d="M 0 0 
L 0 3.5 
" style="stroke: #000000; stroke-width: 0.8"/>
      </defs>
      <g>
       <use xlink:href="#m9f109e8e3c" x="53.4525" y="143.8" style="stroke: #000000; stroke-width: 0.8"/>
      </g>
     </g>
     <g id="text_1">
      <!-- 0 -->
      <g transform="translate(51.225625 156.118906)scale(0.07 -0.07)">
       <defs>
        <path id="DejaVuSans-30" d="M 2034 4250 
Q 1547 4250 1301 3770 
Q 1056 3291 1056 2328 
Q 1056 1369 1301 889 
Q 1547 409 2034 409 
Q 2525 409 2770 889 
Q 3016 1369 3016 2328 
Q 3016 3291 2770 3770 
Q 2525 4250 2034 4250 
z
M 2034 4750 
Q 2819 4750 3233 4129 
Q 3647 3509 3647 2328 
Q 3647 1150 3233 529 
Q 2819 -91 2034 -91 
Q 1250 -91 836 529 
Q 422 1150 422 2328 
Q 422 3509 836 4129 
Q 1250 4750 2034 4750 
z
" transform="scale(0.015625)"/>
       </defs>
       <use xlink:href="#DejaVuSans-30"/>
      </g>
     </g>
    </g>
    <g id="xtick_2">
     <g id="line2d_2">
      <g>
       <use xlink:href="#m9f109e8e3c" x="104.269167" y="143.8" style="stroke: #000000; stroke-width: 0.8"/>
      </g>
     </g>
     <g id="text_2">
      <!-- 1 -->
      <g transform="translate(102.042292 156.118906)scale(0.07 -0.07)">
       <defs>
        <path id="DejaVuSans-31" d="M 794 531 
L 1825 531 
L 1825 4091 
L 703 3866 
L 703 4441 
L 1819 4666 
L 2450 4666 
L 2450 531 
L 3481 531 
L 3481 0 
L 794 0 
L 794 531 
z
" transform="scale(0.015625)"/>
       </defs>
       <use xlink:href="#DejaVuSans-31"/>
      </g>
     </g>
    </g>
    <g id="xtick_3">
     <g id="line2d_3">
      <g>
       <use xlink:href="#m9f109e8e3c" x="155.085833" y="143.8" style="stroke: #000000; stroke-width: 0.8"/>
      </g>
     </g>
     <g id="text_3">
      <!-- 2 -->
      <g transform="translate(152.858958 156.118906)scale(0.07 -0.07)">
       <defs>
        <path id="DejaVuSans-32" d="M 1228 531 
L 3431 531 
L 3431 0 
L 469 0 
L 469 531 
Q 828 903 1448 1529 
Q 2069 2156 2228 2338 
Q 2531 2678 2651 2914 
Q 2772 3150 2772 3378 
Q 2772 3750 2511 3984 
Q 2250 4219 1831 4219 
Q 1534 4219 1204 4116 
Q 875 4013 500 3803 
L 500 4441 
Q 881 4594 1212 4672 
Q 1544 4750 1819 4750 
Q 2544 4750 2975 4387 
Q 3406 4025 3406 3419 
Q 3406 3131 3298 2873 
Q 3191 2616 2906 2266 
Q 2828 2175 2409 1742 
Q 1991 1309 1228 531 
z
" transform="scale(0.015625)"/>
       </defs>
       <use xlink:href="#DejaVuSans-32"/>
      </g>
     </g>
    </g>
    <g id="xtick_4">
     <g id="line2d_4">
      <g>
       <use xlink:href="#m9f109e8e3c" x="205.9025" y="143.8" style="stroke: #000000; stroke-width: 0.8"/>
      </g>
     </g>
     <g id="text_4">
      <!-- 3 -->
      <g transform="translate(203.675625 156.118906)scale(0.07 -0.07)">
       <defs>
        <path id="DejaVuSans-33" d="M 2597 2516 
Q 3050 2419 3304 2112 
Q 3559 1806 3559 1356 
Q 3559 666 3084 287 
Q 2609 -91 1734 -91 
Q 1441 -91 1130 -33 
Q 819 25 488 141 
L 488 750 
Q 750 597 1062 519 
Q 1375 441 1716 441 
Q 2309 441 2620 675 
Q 2931 909 2931 1356 
Q 2931 1769 2642 2001 
Q 2353 2234 1838 2234 
L 1294 2234 
L 1294 2753 
L 1863 2753 
Q 2328 2753 2575 2939 
Q 2822 3125 2822 3475 
Q 2822 3834 2567 4026 
Q 2313 4219 1838 4219 
Q 1578 4219 1281 4162 
Q 984 4106 628 3988 
L 628 4550 
Q 988 4650 1302 4700 
Q 1616 4750 1894 4750 
Q 2613 4750 3031 4423 
Q 3450 4097 3450 3541 
Q 3450 3153 3228 2886 
Q 3006 2619 2597 2516 
z
" transform="scale(0.015625)"/>
       </defs>
       <use xlink:href="#DejaVuSans-33"/>
      </g>
     </g>
    </g>
    <g id="text_5">
     <!-- Passage number -->
     <g transform="translate(100.640625 166.893594)scale(0.07 -0.07)">
      <defs>
       <path id="DejaVuSans-50" d="M 1259 4147 
L 1259 2394 
L 2053 2394 
Q 2494 2394 2734 2622 
Q 2975 2850 2975 3272 
Q 2975 3691 2734 3919 
Q 2494 4147 2053 4147 
L 1259 4147 
z
M 628 4666 
L 2053 4666 
Q 2838 4666 3239 4311 
Q 3641 3956 3641 3272 
Q 3641 2581 3239 2228 
Q 2838 1875 2053 1875 
L 1259 1875 
L 1259 0 
L 628 0 
L 628 4666 
z
" transform="scale(0.015625)"/>
       <path id="DejaVuSans-61" d="M 2194 1759 
Q 1497 1759 1228 1600 
Q 959 1441 959 1056 
Q 959 750 1161 570 
Q 1363 391 1709 391 
Q 2188 391 2477 730 
Q 2766 1069 2766 1631 
L 2766 1759 
L 2194 1759 
z
M 3341 1997 
L 3341 0 
L 2766 0 
L 2766 531 
Q 2569 213 2275 61 
Q 1981 -91 1556 -91 
Q 1019 -91 701 211 
Q 384 513 384 1019 
Q 384 1609 779 1909 
Q 1175 2209 1959 2209 
L 2766 2209 
L 2766 2266 
Q 2766 2663 2505 2880 
Q 2244 3097 1772 3097 
Q 1472 3097 1187 3025 
Q 903 2953 641 2809 
L 641 3341 
Q 956 3463 1253 3523 
Q 1550 3584 1831 3584 
Q 2591 3584 2966 3190 
Q 3341 2797 3341 1997 
z
" transform="scale(0.015625)"/>
       <path id="DejaVuSans-73" d="M 2834 3397 
L 2834 2853 
Q 2591 2978 2328 3040 
Q 2066 3103 1784 3103 
Q 1356 3103 1142 2972 
Q 928 2841 928 2578 
Q 928 2378 1081 2264 
Q 1234 2150 1697 2047 
L 1894 2003 
Q 2506 1872 2764 1633 
Q 3022 1394 3022 966 
Q 3022 478 2636 193 
Q 2250 -91 1575 -91 
Q 1294 -91 989 -36 
Q 684 19 347 128 
L 347 722 
Q 666 556 975 473 
Q 1284 391 1588 391 
Q 1994 391 2212 530 
Q 2431 669 2431 922 
Q 2431 1156 2273 1281 
Q 2116 1406 1581 1522 
L 1381 1569 
Q 847 1681 609 1914 
Q 372 2147 372 2553 
Q 372 3047 722 3315 
Q 1072 3584 1716 3584 
Q 2034 3584 2315 3537 
Q 2597 3491 2834 3397 
z
" transform="scale(0.015625)"/>
       <path id="DejaVuSans-67" d="M 2906 1791 
Q 2906 2416 2648 2759 
Q 2391 3103 1925 3103 
Q 1463 3103 1205 2759 
Q 947 2416 947 1791 
Q 947 1169 1205 825 
Q 1463 481 1925 481 
Q 2391 481 2648 825 
Q 2906 1169 2906 1791 
z
M 3481 434 
Q 3481 -459 3084 -895 
Q 2688 -1331 1869 -1331 
Q 1566 -1331 1297 -1286 
Q 1028 -1241 775 -1147 
L 775 -588 
Q 1028 -725 1275 -790 
Q 1522 -856 1778 -856 
Q 2344 -856 2625 -561 
Q 2906 -266 2906 331 
L 2906 616 
Q 2728 306 2450 153 
Q 2172 0 1784 0 
Q 1141 0 747 490 
Q 353 981 353 1791 
Q 353 2603 747 3093 
Q 1141 3584 1784 3584 
Q 2172 3584 2450 3431 
Q 2728 3278 2906 2969 
L 2906 3500 
L 3481 3500 
L 3481 434 
z
" transform="scale(0.015625)"/>
       <path id="DejaVuSans-65" d="M 3597 1894 
L 3597 1613 
L 953 1613 
Q 991 1019 1311 708 
Q 1631 397 2203 397 
Q 2534 397 2845 478 
Q 3156 559 3463 722 
L 3463 178 
Q 3153 47 2828 -22 
Q 2503 -91 2169 -91 
Q 1331 -91 842 396 
Q 353 884 353 1716 
Q 353 2575 817 3079 
Q 1281 3584 2069 3584 
Q 2775 3584 3186 3129 
Q 3597 2675 3597 1894 
z
M 3022 2063 
Q 3016 2534 2758 2815 
Q 2500 3097 2075 3097 
Q 1594 3097 1305 2825 
Q 1016 2553 972 2059 
L 3022 2063 
z
" transform="scale(0.015625)"/>
       <path id="DejaVuSans-20" transform="scale(0.015625)"/>
       <path id="DejaVuSans-6e" d="M 3513 2113 
L 3513 0 
L 2938 0 
L 2938 2094 
Q 2938 2591 2744 2837 
Q 2550 3084 2163 3084 
Q 1697 3084 1428 2787 
Q 1159 2491 1159 1978 
L 1159 0 
L 581 0 
L 581 3500 
L 1159 3500 
L 1159 2956 
Q 1366 3272 1645 3428 
Q 1925 3584 2291 3584 
Q 2894 3584 3203 3211 
Q 3513 2838 3513 2113 
z
" transform="scale(0.015625)"/>
       <path id="DejaVuSans-75" d="M 544 1381 
L 544 3500 
L 1119 3500 
L 1119 1403 
Q 1119 906 1312 657 
Q 1506 409 1894 409 
Q 2359 409 2629 706 
Q 2900 1003 2900 1516 
L 2900 3500 
L 3475 3500 
L 3475 0 
L 2900 0 
L 2900 538 
Q 2691 219 2414 64 
Q 2138 -91 1772 -91 
Q 1169 -91 856 284 
Q 544 659 544 1381 
z
M 1991 3584 
L 1991 3584 
z
" transform="scale(0.015625)"/>
       <path id="DejaVuSans-6d" d="M 3328 2828 
Q 3544 3216 3844 3400 
Q 4144 3584 4550 3584 
Q 5097 3584 5394 3201 
Q 5691 2819 5691 2113 
L 5691 0 
L 5113 0 
L 5113 2094 
Q 5113 2597 4934 2840 
Q 4756 3084 4391 3084 
Q 3944 3084 3684 2787 
Q 3425 2491 3425 1978 
L 3425 0 
L 2847 0 
L 2847 2094 
Q 2847 2600 2669 2842 
Q 2491 3084 2119 3084 
Q 1678 3084 1418 2786 
Q 1159 2488 1159 1978 
L 1159 0 
L 581 0 
L 581 3500 
L 1159 3500 
L 1159 2956 
Q 1356 3278 1631 3431 
Q 1906 3584 2284 3584 
Q 2666 3584 2933 3390 
Q 3200 3197 3328 2828 
z
" transform="scale(0.015625)"/>
       <path id="DejaVuSans-62" d="M 3116 1747 
Q 3116 2381 2855 2742 
Q 2594 3103 2138 3103 
Q 1681 3103 1420 2742 
Q 1159 2381 1159 1747 
Q 1159 1113 1420 752 
Q 1681 391 2138 391 
Q 2594 391 2855 752 
Q 3116 1113 3116 1747 
z
M 1159 2969 
Q 1341 3281 1617 3432 
Q 1894 3584 2278 3584 
Q 2916 3584 3314 3078 
Q 3713 2572 3713 1747 
Q 3713 922 3314 415 
Q 2916 -91 2278 -91 
Q 1894 -91 1617 61 
Q 1341 213 1159 525 
L 1159 0 
L 581 0 
L 581 4863 
L 1159 4863 
L 1159 2969 
z
" transform="scale(0.015625)"/>
       <path id="DejaVuSans-72" d="M 2631 2963 
Q 2534 3019 2420 3045 
Q 2306 3072 2169 3072 
Q 1681 3072 1420 2755 
Q 1159 2438 1159 1844 
L 1159 0 
L 581 0 
L 581 3500 
L 1159 3500 
L 1159 2956 
Q 1341 3275 1631 3429 
Q 1922 3584 2338 3584 
Q 2397 3584 2469 3576 
Q 2541 3569 2628 3553 
L 2631 2963 
z
" transform="scale(0.015625)"/>
      </defs>
      <use xlink:href="#DejaVuSans-50"/>
      <use xlink:href="#DejaVuSans-61" x="55.802734"/>
      <use xlink:href="#DejaVuSans-73" x="117.082031"/>
      <use xlink:href="#DejaVuSans-73" x="169.181641"/>
      <use xlink:href="#DejaVuSans-61" x="221.28125"/>
      <use xlink:href="#DejaVuSans-67" x="282.560547"/>
      <use xlink:href="#DejaVuSans-65" x="346.037109"/>
      <use xlink:href="#DejaVuSans-20" x="407.560547"/>
      <use xlink:href="#DejaVuSans-6e" x="439.347656"/>
      <use xlink:href="#DejaVuSans-75" x="502.726562"/>
      <use xlink:href="#DejaVuSans-6d" x="566.105469"/>
      <use xlink:href="#DejaVuSans-62" x="663.517578"/>
      <use xlink:href="#DejaVuSans-65" x="726.994141"/>
      <use xlink:href="#DejaVuSans-72" x="788.517578"/>
     </g>
    </g>
   </g>
   <g id="matplotlib.axis_2">
    <g id="ytick_1">
     <g id="line2d_5">
      <defs>
       <path id="madad09f925" d="M 0 0 
L -3.5 0 
" style="stroke: #000000; stroke-width: 0.8"/>
      </defs>
      <g>
       <use xlink:href="#madad09f925" x="45.83" y="121.336981" style="stroke: #000000; stroke-width: 0.8"/>
      </g>
     </g>
     <g id="text_6">
      <!-- 0.0 -->
      <g transform="translate(27.697813 123.996434)scale(0.07 -0.07)">
       <defs>
        <path id="DejaVuSans-2e" d="M 684 794 
L 1344 794 
L 1344 0 
L 684 0 
L 684 794 
z
" transform="scale(0.015625)"/>
       </defs>
       <use xlink:href="#DejaVuSans-30"/>
       <use xlink:href="#DejaVuSans-2e" x="63.623047"/>
       <use xlink:href="#DejaVuSans-30" x="95.410156"/>
      </g>
     </g>
    </g>
    <g id="ytick_2">
     <g id="line2d_6">
      <g>
       <use xlink:href="#madad09f925" x="45.83" y="76.470781" style="stroke: #000000; stroke-width: 0.8"/>
      </g>
     </g>
     <g id="text_7">
      <!-- 0.2 -->
      <g transform="translate(27.697813 79.130234)scale(0.07 -0.07)">
       <use xlink:href="#DejaVuSans-30"/>
       <use xlink:href="#DejaVuSans-2e" x="63.623047"/>
       <use xlink:href="#DejaVuSans-32" x="95.410156"/>
      </g>
     </g>
    </g>
    <g id="ytick_3">
     <g id="line2d_7">
      <g>
       <use xlink:href="#madad09f925" x="45.83" y="31.604582" style="stroke: #000000; stroke-width: 0.8"/>
      </g>
     </g>
     <g id="text_8">
      <!-- 0.4 -->
      <g transform="translate(27.697813 34.264035)scale(0.07 -0.07)">
       <defs>
        <path id="DejaVuSans-34" d="M 2419 4116 
L 825 1625 
L 2419 1625 
L 2419 4116 
z
M 2253 4666 
L 3047 4666 
L 3047 1625 
L 3713 1625 
L 3713 1100 
L 3047 1100 
L 3047 0 
L 2419 0 
L 2419 1100 
L 313 1100 
L 313 1709 
L 2253 4666 
z
" transform="scale(0.015625)"/>
       </defs>
       <use xlink:href="#DejaVuSans-30"/>
       <use xlink:href="#DejaVuSans-2e" x="63.623047"/>
       <use xlink:href="#DejaVuSans-34" x="95.410156"/>
      </g>
     </g>
    </g>
    <g id="text_9">
     <!-- Species abundance -->
     <g transform="translate(22.242031 117.877531)rotate(-90)scale(0.07 -0.07)">
      <defs>
       <path id="DejaVuSans-53" d="M 3425 4513 
L 3425 3897 
Q 3066 4069 2747 4153 
Q 2428 4238 2131 4238 
Q 1616 4238 1336 4038 
Q 1056 3838 1056 3469 
Q 1056 3159 1242 3001 
Q 1428 2844 1947 2747 
L 2328 2669 
Q 3034 2534 3370 2195 
Q 3706 1856 3706 1288 
Q 3706 609 3251 259 
Q 2797 -91 1919 -91 
Q 1588 -91 1214 -16 
Q 841 59 441 206 
L 441 856 
Q 825 641 1194 531 
Q 1563 422 1919 422 
Q 2459 422 2753 634 
Q 3047 847 3047 1241 
Q 3047 1584 2836 1778 
Q 2625 1972 2144 2069 
L 1759 2144 
Q 1053 2284 737 2584 
Q 422 2884 422 3419 
Q 422 4038 858 4394 
Q 1294 4750 2059 4750 
Q 2388 4750 2728 4690 
Q 3069 4631 3425 4513 
z
" transform="scale(0.015625)"/>
       <path id="DejaVuSans-70" d="M 1159 525 
L 1159 -1331 
L 581 -1331 
L 581 3500 
L 1159 3500 
L 1159 2969 
Q 1341 3281 1617 3432 
Q 1894 3584 2278 3584 
Q 2916 3584 3314 3078 
Q 3713 2572 3713 1747 
Q 3713 922 3314 415 
Q 2916 -91 2278 -91 
Q 1894 -91 1617 61 
Q 1341 213 1159 525 
z
M 3116 1747 
Q 3116 2381 2855 2742 
Q 2594 3103 2138 3103 
Q 1681 3103 1420 2742 
Q 1159 2381 1159 1747 
Q 1159 1113 1420 752 
Q 1681 391 2138 391 
Q 2594 391 2855 752 
Q 3116 1113 3116 1747 
z
" transform="scale(0.015625)"/>
       <path id="DejaVuSans-63" d="M 3122 3366 
L 3122 2828 
Q 2878 2963 2633 3030 
Q 2388 3097 2138 3097 
Q 1578 3097 1268 2742 
Q 959 2388 959 1747 
Q 959 1106 1268 751 
Q 1578 397 2138 397 
Q 2388 397 2633 464 
Q 2878 531 3122 666 
L 3122 134 
Q 2881 22 2623 -34 
Q 2366 -91 2075 -91 
Q 1284 -91 818 406 
Q 353 903 353 1747 
Q 353 2603 823 3093 
Q 1294 3584 2113 3584 
Q 2378 3584 2631 3529 
Q 2884 3475 3122 3366 
z
" transform="scale(0.015625)"/>
       <path id="DejaVuSans-69" d="M 603 3500 
L 1178 3500 
L 1178 0 
L 603 0 
L 603 3500 
z
M 603 4863 
L 1178 4863 
L 1178 4134 
L 603 4134 
L 603 4863 
z
" transform="scale(0.015625)"/>
       <path id="DejaVuSans-64" d="M 2906 2969 
L 2906 4863 
L 3481 4863 
L 3481 0 
L 2906 0 
L 2906 525 
Q 2725 213 2448 61 
Q 2172 -91 1784 -91 
Q 1150 -91 751 415 
Q 353 922 353 1747 
Q 353 2572 751 3078 
Q 1150 3584 1784 3584 
Q 2172 3584 2448 3432 
Q 2725 3281 2906 2969 
z
M 947 1747 
Q 947 1113 1208 752 
Q 1469 391 1925 391 
Q 2381 391 2643 752 
Q 2906 1113 2906 1747 
Q 2906 2381 2643 2742 
Q 2381 3103 1925 3103 
Q 1469 3103 1208 2742 
Q 947 2381 947 1747 
z
" transform="scale(0.015625)"/>
      </defs>
      <use xlink:href="#DejaVuSans-53"/>
      <use xlink:href="#DejaVuSans-70" x="63.476562"/>
      <use xlink:href="#DejaVuSans-65" x="126.953125"/>
      <use xlink:href="#DejaVuSans-63" x="188.476562"/>
      <use xlink:href="#DejaVuSans-69" x="243.457031"/>
      <use xlink:href="#DejaVuSans-65" x="271.240234"/>
      <use xlink:href="#DejaVuSans-73" x="332.763672"/>
      <use xlink:href="#DejaVuSans-20" x="384.863281"/>
      <use xlink:href="#DejaVuSans-61" x="416.650391"/>
      <use xlink:href="#DejaVuSans-62" x="477.929688"/>
      <use xlink:href="#DejaVuSans-75" x="541.40625"/>
      <use xlink:href="#DejaVuSans-6e" x="604.785156"/>
      <use xlink:href="#DejaVuSans-64" x="668.164062"/>
      <use xlink:href="#DejaVuSans-61" x="731.640625"/>
      <use xlink:href="#DejaVuSans-6e" x="792.919922"/>
      <use xlink:href="#DejaVuSans-63" x="856.298828"/>
      <use xlink:href="#DejaVuSans-65" x="911.279297"/>
     </g>
    </g>
   </g>
   <g id="line2d_8">
    <path d="M 53.4525 116.850361 
L 104.269167 103.417078 
L 155.085833 113.500764 
L 205.9025 116.512995 
" clip-path="url(#pd85bfc058b)" style="fill: none; stroke: #1f77b4; stroke-linecap: square"/>
   </g>
   <g id="line2d_9">
    <path d="M 53.4525 116.850361 
L 104.269167 62.351725 
L 155.085833 103.954407 
L 205.9025 98.131885 
" clip-path="url(#pd85bfc058b)" style="fill: none; stroke: #ff7f0e; stroke-linecap: square"/>
   </g>
   <g id="line2d_10">
    <path d="M 53.4525 116.850361 
L 104.269167 116.743535 
L 155.085833 50.951332 
L 205.9025 51.798108 
" clip-path="url(#pd85bfc058b)" style="fill: none; stroke: #2ca02c; stroke-linecap: square"/>
   </g>
   <g id="patch_3">
    <path d="M 45.83 143.8 
L 45.83 23.856 
" style="fill: none; stroke: #000000; stroke-width: 0.8; stroke-linejoin: miter; stroke-linecap: square"/>
   </g>
   <g id="patch_4">
    <path d="M 213.525 143.8 
L 213.525 23.856 
" style="fill: none; stroke: #000000; stroke-width: 0.8; stroke-linejoin: miter; stroke-linecap: square"/>
   </g>
   <g id="patch_5">
    <path d="M 45.83 143.8 
L 213.525 143.8 
" style="fill: none; stroke: #000000; stroke-width: 0.8; stroke-linejoin: miter; stroke-linecap: square"/>
   </g>
   <g id="patch_6">
    <path d="M 45.83 23.856 
L 213.525 23.856 
" style="fill: none; stroke: #000000; stroke-width: 0.8; stroke-linejoin: miter; stroke-linecap: square"/>
   </g>
   <g id="text_10">
    <!-- $s_{t+1} = MiRNN(m_t, s_t, u)$ -->
    <g transform="translate(84.7575 17.856)scale(0.08 -0.08)">
     <defs>
      <path id="DejaVuSans-Oblique-73" d="M 3200 3397 
L 3091 2853 
Q 2863 2978 2609 3040 
Q 2356 3103 2088 3103 
Q 1634 3103 1373 2948 
Q 1113 2794 1113 2528 
Q 1113 2219 1719 2053 
Q 1766 2041 1788 2034 
L 1972 1978 
Q 2547 1819 2739 1644 
Q 2931 1469 2931 1166 
Q 2931 609 2489 259 
Q 2047 -91 1331 -91 
Q 1053 -91 747 -37 
Q 441 16 72 128 
L 184 722 
Q 500 559 806 475 
Q 1113 391 1394 391 
Q 1816 391 2080 572 
Q 2344 753 2344 1031 
Q 2344 1331 1650 1516 
L 1591 1531 
L 1394 1581 
Q 956 1697 753 1886 
Q 550 2075 550 2369 
Q 550 2928 970 3256 
Q 1391 3584 2113 3584 
Q 2397 3584 2667 3537 
Q 2938 3491 3200 3397 
z
" transform="scale(0.015625)"/>
      <path id="DejaVuSans-Oblique-74" d="M 2706 3500 
L 2619 3053 
L 1472 3053 
L 1100 1153 
Q 1081 1047 1072 975 
Q 1063 903 1063 863 
Q 1063 663 1183 572 
Q 1303 481 1569 481 
L 2150 481 
L 2053 0 
L 1503 0 
Q 991 0 739 200 
Q 488 400 488 806 
Q 488 878 497 964 
Q 506 1050 525 1153 
L 897 3053 
L 409 3053 
L 500 3500 
L 978 3500 
L 1172 4494 
L 1747 4494 
L 1556 3500 
L 2706 3500 
z
" transform="scale(0.015625)"/>
      <path id="DejaVuSans-2b" d="M 2944 4013 
L 2944 2272 
L 4684 2272 
L 4684 1741 
L 2944 1741 
L 2944 0 
L 2419 0 
L 2419 1741 
L 678 1741 
L 678 2272 
L 2419 2272 
L 2419 4013 
L 2944 4013 
z
" transform="scale(0.015625)"/>
      <path id="DejaVuSans-3d" d="M 678 2906 
L 4684 2906 
L 4684 2381 
L 678 2381 
L 678 2906 
z
M 678 1631 
L 4684 1631 
L 4684 1100 
L 678 1100 
L 678 1631 
z
" transform="scale(0.015625)"/>
      <path id="DejaVuSans-Oblique-4d" d="M 1081 4666 
L 2028 4666 
L 2572 1522 
L 4378 4666 
L 5350 4666 
L 4441 0 
L 3828 0 
L 4622 4091 
L 2791 897 
L 2175 897 
L 1581 4103 
L 788 0 
L 172 0 
L 1081 4666 
z
" transform="scale(0.015625)"/>
      <path id="DejaVuSans-Oblique-69" d="M 1172 4863 
L 1747 4863 
L 1606 4134 
L 1031 4134 
L 1172 4863 
z
M 909 3500 
L 1484 3500 
L 800 0 
L 225 0 
L 909 3500 
z
" transform="scale(0.015625)"/>
      <path id="DejaVuSans-Oblique-52" d="M 1613 4147 
L 1294 2491 
L 2106 2491 
Q 2584 2491 2879 2755 
Q 3175 3019 3175 3444 
Q 3175 3784 2976 3965 
Q 2778 4147 2406 4147 
L 1613 4147 
z
M 2772 2241 
Q 2972 2194 3105 2009 
Q 3238 1825 3413 1275 
L 3809 0 
L 3144 0 
L 2778 1197 
Q 2638 1659 2453 1815 
Q 2269 1972 1888 1972 
L 1191 1972 
L 806 0 
L 172 0 
L 1081 4666 
L 2503 4666 
Q 3150 4666 3495 4373 
Q 3841 4081 3841 3531 
Q 3841 3044 3547 2687 
Q 3253 2331 2772 2241 
z
" transform="scale(0.015625)"/>
      <path id="DejaVuSans-Oblique-4e" d="M 1081 4666 
L 1931 4666 
L 3219 666 
L 4000 4666 
L 4616 4666 
L 3706 0 
L 2853 0 
L 1569 4025 
L 788 0 
L 172 0 
L 1081 4666 
z
" transform="scale(0.015625)"/>
      <path id="DejaVuSans-28" d="M 1984 4856 
Q 1566 4138 1362 3434 
Q 1159 2731 1159 2009 
Q 1159 1288 1364 580 
Q 1569 -128 1984 -844 
L 1484 -844 
Q 1016 -109 783 600 
Q 550 1309 550 2009 
Q 550 2706 781 3412 
Q 1013 4119 1484 4856 
L 1984 4856 
z
" transform="scale(0.015625)"/>
      <path id="DejaVuSans-Oblique-6d" d="M 5747 2113 
L 5338 0 
L 4763 0 
L 5166 2094 
Q 5191 2228 5203 2325 
Q 5216 2422 5216 2491 
Q 5216 2772 5059 2928 
Q 4903 3084 4622 3084 
Q 4203 3084 3875 2770 
Q 3547 2456 3450 1953 
L 3066 0 
L 2491 0 
L 2900 2094 
Q 2925 2209 2937 2307 
Q 2950 2406 2950 2484 
Q 2950 2769 2794 2926 
Q 2638 3084 2363 3084 
Q 1938 3084 1609 2770 
Q 1281 2456 1184 1953 
L 800 0 
L 225 0 
L 909 3500 
L 1484 3500 
L 1375 2956 
Q 1609 3263 1923 3423 
Q 2238 3584 2597 3584 
Q 2978 3584 3223 3384 
Q 3469 3184 3519 2828 
Q 3781 3197 4126 3390 
Q 4472 3584 4856 3584 
Q 5306 3584 5551 3325 
Q 5797 3066 5797 2591 
Q 5797 2488 5784 2364 
Q 5772 2241 5747 2113 
z
" transform="scale(0.015625)"/>
      <path id="DejaVuSans-2c" d="M 750 794 
L 1409 794 
L 1409 256 
L 897 -744 
L 494 -744 
L 750 256 
L 750 794 
z
" transform="scale(0.015625)"/>
      <path id="DejaVuSans-Oblique-75" d="M 428 1388 
L 838 3500 
L 1416 3500 
L 1006 1409 
Q 975 1256 961 1147 
Q 947 1038 947 966 
Q 947 700 1109 554 
Q 1272 409 1569 409 
Q 2031 409 2368 721 
Q 2706 1034 2809 1563 
L 3194 3500 
L 3769 3500 
L 3091 0 
L 2516 0 
L 2631 550 
Q 2388 244 2052 76 
Q 1716 -91 1338 -91 
Q 878 -91 622 161 
Q 366 413 366 863 
Q 366 956 381 1097 
Q 397 1238 428 1388 
z
" transform="scale(0.015625)"/>
      <path id="DejaVuSans-29" d="M 513 4856 
L 1013 4856 
Q 1481 4119 1714 3412 
Q 1947 2706 1947 2009 
Q 1947 1309 1714 600 
Q 1481 -109 1013 -844 
L 513 -844 
Q 928 -128 1133 580 
Q 1338 1288 1338 2009 
Q 1338 2731 1133 3434 
Q 928 4138 513 4856 
z
" transform="scale(0.015625)"/>
     </defs>
     <use xlink:href="#DejaVuSans-Oblique-73" transform="translate(0 0.015625)"/>
     <use xlink:href="#DejaVuSans-Oblique-74" transform="translate(52.099609 -16.390625)scale(0.7)"/>
     <use xlink:href="#DejaVuSans-2b" transform="translate(93.183594 -16.390625)scale(0.7)"/>
     <use xlink:href="#DejaVuSans-31" transform="translate(165.473633 -16.390625)scale(0.7)"/>
     <use xlink:href="#DejaVuSans-3d" transform="translate(232.226562 0.015625)"/>
     <use xlink:href="#DejaVuSans-Oblique-4d" transform="translate(335.498047 0.015625)"/>
     <use xlink:href="#DejaVuSans-Oblique-69" transform="translate(421.777344 0.015625)"/>
     <use xlink:href="#DejaVuSans-Oblique-52" transform="translate(449.560547 0.015625)"/>
     <use xlink:href="#DejaVuSans-Oblique-4e" transform="translate(519.042969 0.015625)"/>
     <use xlink:href="#DejaVuSans-Oblique-4e" transform="translate(593.847656 0.015625)"/>
     <use xlink:href="#DejaVuSans-28" transform="translate(668.652344 0.015625)"/>
     <use xlink:href="#DejaVuSans-Oblique-6d" transform="translate(707.666016 0.015625)"/>
     <use xlink:href="#DejaVuSans-Oblique-74" transform="translate(805.078125 -16.390625)scale(0.7)"/>
     <use xlink:href="#DejaVuSans-2c" transform="translate(835.258789 0.015625)"/>
     <use xlink:href="#DejaVuSans-Oblique-73" transform="translate(886.52832 0.015625)"/>
     <use xlink:href="#DejaVuSans-Oblique-74" transform="translate(938.62793 -16.390625)scale(0.7)"/>
     <use xlink:href="#DejaVuSans-2c" transform="translate(968.808594 0.015625)"/>
     <use xlink:href="#DejaVuSans-Oblique-75" transform="translate(1020.078125 0.015625)"/>
     <use xlink:href="#DejaVuSans-29" transform="translate(1083.457031 0.015625)"/>
    </g>
   </g>
   <g id="legend_1">
    <g id="patch_7">
     <path d="M 50.73 60.280063 
L 106.750781 60.280063 
Q 108.150781 60.280063 108.150781 58.880063 
L 108.150781 28.756 
Q 108.150781 27.356 106.750781 27.356 
L 50.73 27.356 
Q 49.33 27.356 49.33 28.756 
L 49.33 58.880063 
Q 49.33 60.280063 50.73 60.280063 
z
" style="fill: #ffffff; opacity: 0.8; stroke: #cccccc; stroke-linejoin: miter"/>
    </g>
    <g id="line2d_11">
     <path d="M 52.13 33.024906 
L 59.13 33.024906 
L 66.13 33.024906 
" style="fill: none; stroke: #1f77b4; stroke-linecap: square"/>
    </g>
    <g id="text_11">
     <!-- Species 1 -->
     <g transform="translate(71.73 35.474906)scale(0.07 -0.07)">
      <use xlink:href="#DejaVuSans-53"/>
      <use xlink:href="#DejaVuSans-70" x="63.476562"/>
      <use xlink:href="#DejaVuSans-65" x="126.953125"/>
      <use xlink:href="#DejaVuSans-63" x="188.476562"/>
      <use xlink:href="#DejaVuSans-69" x="243.457031"/>
      <use xlink:href="#DejaVuSans-65" x="271.240234"/>
      <use xlink:href="#DejaVuSans-73" x="332.763672"/>
      <use xlink:href="#DejaVuSans-20" x="384.863281"/>
      <use xlink:href="#DejaVuSans-31" x="416.650391"/>
     </g>
    </g>
    <g id="line2d_12">
     <path d="M 52.13 43.299594 
L 59.13 43.299594 
L 66.13 43.299594 
" style="fill: none; stroke: #ff7f0e; stroke-linecap: square"/>
    </g>
    <g id="text_12">
     <!-- Species 2 -->
     <g transform="translate(71.73 45.749594)scale(0.07 -0.07)">
      <use xlink:href="#DejaVuSans-53"/>
      <use xlink:href="#DejaVuSans-70" x="63.476562"/>
      <use xlink:href="#DejaVuSans-65" x="126.953125"/>
      <use xlink:href="#DejaVuSans-63" x="188.476562"/>
      <use xlink:href="#DejaVuSans-69" x="243.457031"/>
      <use xlink:href="#DejaVuSans-65" x="271.240234"/>
      <use xlink:href="#DejaVuSans-73" x="332.763672"/>
      <use xlink:href="#DejaVuSans-20" x="384.863281"/>
      <use xlink:href="#DejaVuSans-32" x="416.650391"/>
     </g>
    </g>
    <g id="line2d_13">
     <path d="M 52.13 53.574281 
L 59.13 53.574281 
L 66.13 53.574281 
" style="fill: none; stroke: #2ca02c; stroke-linecap: square"/>
    </g>
    <g id="text_13">
     <!-- Species 3 -->
     <g transform="translate(71.73 56.024281)scale(0.07 -0.07)">
      <use xlink:href="#DejaVuSans-53"/>
      <use xlink:href="#DejaVuSans-70" x="63.476562"/>
      <use xlink:href="#DejaVuSans-65" x="126.953125"/>
      <use xlink:href="#DejaVuSans-63" x="188.476562"/>
      <use xlink:href="#DejaVuSans-69" x="243.457031"/>
      <use xlink:href="#DejaVuSans-65" x="271.240234"/>
      <use xlink:href="#DejaVuSans-73" x="332.763672"/>
      <use xlink:href="#DejaVuSans-20" x="384.863281"/>
      <use xlink:href="#DejaVuSans-33" x="416.650391"/>
     </g>
    </g>
   </g>
  </g>
  <g id="axes_2">
   <g id="patch_8">
    <path d="M 253.505 143.8 
L 421.2 143.8 
L 421.2 23.856 
L 253.505 23.856 
z
" style="fill: #ffffff"/>
   </g>
   <g id="PathCollection_4">
    <g clip-path="url(#p4385a49470)">
     <use xlink:href="#m1209b24585" x="261.1275" y="125.718667" style="fill: #1f77b4; stroke: #1f77b4"/>
     <use xlink:href="#m1209b24585" x="413.5775" y="47.997095" style="fill: #1f77b4; stroke: #1f77b4"/>
    </g>
   </g>
   <g id="PolyCollection_4">
    <defs>
     <path id="m85d363f8b9" d="M 261.1275 -54.281333 
L 261.1275 -54.281333 
L 311.944167 -123.14686 
L 362.760833 -101.28771 
L 413.5775 -106.833188 
L 413.5775 -134.454719 
L 413.5775 -134.454719 
L 362.760833 -128.846467 
L 311.944167 -150.692 
L 261.1275 -54.281333 
z
" style="stroke: #1f77b4; stroke-opacity: 0.5"/>
    </defs>
    <g clip-path="url(#p4385a49470)">
     <use xlink:href="#m85d363f8b9" x="0" y="180" style="fill: #1f77b4; fill-opacity: 0.5; stroke: #1f77b4; stroke-opacity: 0.5"/>
    </g>
   </g>
   <g id="PathCollection_5">
    <g clip-path="url(#p4385a49470)">
     <use xlink:href="#m988a395f7c" x="261.1275" y="125.718667" style="fill: #ff7f0e; stroke: #ff7f0e"/>
     <use xlink:href="#m988a395f7c" x="413.5775" y="94.403999" style="fill: #ff7f0e; stroke: #ff7f0e"/>
    </g>
   </g>
   <g id="PolyCollection_5">
    <defs>
     <path id="mdcbe8dfe74" d="M 261.1275 -54.281333 
L 261.1275 -54.281333 
L 311.944167 -61.27456 
L 362.760833 -65.381167 
L 413.5775 -77.062127 
L 413.5775 -102.975876 
L 413.5775 -102.975876 
L 362.760833 -91.274001 
L 311.944167 -87.17165 
L 261.1275 -54.281333 
z
" style="stroke: #ff7f0e; stroke-opacity: 0.5"/>
    </defs>
    <g clip-path="url(#p4385a49470)">
     <use xlink:href="#mdcbe8dfe74" x="0" y="180" style="fill: #ff7f0e; fill-opacity: 0.5; stroke: #ff7f0e; stroke-opacity: 0.5"/>
    </g>
   </g>
   <g id="PathCollection_6">
    <g clip-path="url(#p4385a49470)">
     <use xlink:href="#m21707a0a42" x="261.1275" y="125.718667" style="fill: #2ca02c; stroke: #2ca02c"/>
     <use xlink:href="#m21707a0a42" x="413.5775" y="125.718667" style="fill: #2ca02c; stroke: #2ca02c"/>
    </g>
   </g>
   <g id="PolyCollection_6">
    <defs>
     <path id="m07f7f1a3d0" d="M 261.1275 -54.281333 
L 261.1275 -54.281333 
L 311.944167 -42.232143 
L 362.760833 -41.652 
L 413.5775 -41.70079 
L 413.5775 -66.861876 
L 413.5775 -66.861876 
L 362.760833 -66.910666 
L 311.944167 -67.366765 
L 261.1275 -54.281333 
z
" style="stroke: #2ca02c; stroke-opacity: 0.5"/>
    </defs>
    <g clip-path="url(#p4385a49470)">
     <use xlink:href="#m07f7f1a3d0" x="0" y="180" style="fill: #2ca02c; fill-opacity: 0.5; stroke: #2ca02c; stroke-opacity: 0.5"/>
    </g>
   </g>
   <g id="matplotlib.axis_3">
    <g id="xtick_5">
     <g id="line2d_14">
      <g>
       <use xlink:href="#m9f109e8e3c" x="261.1275" y="143.8" style="stroke: #000000; stroke-width: 0.8"/>
      </g>
     </g>
     <g id="text_14">
      <!-- 0 -->
      <g transform="translate(258.900625 156.118906)scale(0.07 -0.07)">
       <use xlink:href="#DejaVuSans-30"/>
      </g>
     </g>
    </g>
    <g id="xtick_6">
     <g id="line2d_15">
      <g>
       <use xlink:href="#m9f109e8e3c" x="311.944167" y="143.8" style="stroke: #000000; stroke-width: 0.8"/>
      </g>
     </g>
     <g id="text_15">
      <!-- 1 -->
      <g transform="translate(309.717292 156.118906)scale(0.07 -0.07)">
       <use xlink:href="#DejaVuSans-31"/>
      </g>
     </g>
    </g>
    <g id="xtick_7">
     <g id="line2d_16">
      <g>
       <use xlink:href="#m9f109e8e3c" x="362.760833" y="143.8" style="stroke: #000000; stroke-width: 0.8"/>
      </g>
     </g>
     <g id="text_16">
      <!-- 2 -->
      <g transform="translate(360.533958 156.118906)scale(0.07 -0.07)">
       <use xlink:href="#DejaVuSans-32"/>
      </g>
     </g>
    </g>
    <g id="xtick_8">
     <g id="line2d_17">
      <g>
       <use xlink:href="#m9f109e8e3c" x="413.5775" y="143.8" style="stroke: #000000; stroke-width: 0.8"/>
      </g>
     </g>
     <g id="text_17">
      <!-- 3 -->
      <g transform="translate(411.350625 156.118906)scale(0.07 -0.07)">
       <use xlink:href="#DejaVuSans-33"/>
      </g>
     </g>
    </g>
    <g id="text_18">
     <!-- Passage number -->
     <g transform="translate(308.315625 166.893594)scale(0.07 -0.07)">
      <use xlink:href="#DejaVuSans-50"/>
      <use xlink:href="#DejaVuSans-61" x="55.802734"/>
      <use xlink:href="#DejaVuSans-73" x="117.082031"/>
      <use xlink:href="#DejaVuSans-73" x="169.181641"/>
      <use xlink:href="#DejaVuSans-61" x="221.28125"/>
      <use xlink:href="#DejaVuSans-67" x="282.560547"/>
      <use xlink:href="#DejaVuSans-65" x="346.037109"/>
      <use xlink:href="#DejaVuSans-20" x="407.560547"/>
      <use xlink:href="#DejaVuSans-6e" x="439.347656"/>
      <use xlink:href="#DejaVuSans-75" x="502.726562"/>
      <use xlink:href="#DejaVuSans-6d" x="566.105469"/>
      <use xlink:href="#DejaVuSans-62" x="663.517578"/>
      <use xlink:href="#DejaVuSans-65" x="726.994141"/>
      <use xlink:href="#DejaVuSans-72" x="788.517578"/>
     </g>
    </g>
   </g>
   <g id="matplotlib.axis_4">
    <g id="ytick_4">
     <g id="line2d_18">
      <g>
       <use xlink:href="#madad09f925" x="253.505" y="125.718667" style="stroke: #000000; stroke-width: 0.8"/>
      </g>
     </g>
     <g id="text_19">
      <!-- 0.00 -->
      <g transform="translate(230.919062 128.37812)scale(0.07 -0.07)">
       <use xlink:href="#DejaVuSans-30"/>
       <use xlink:href="#DejaVuSans-2e" x="63.623047"/>
       <use xlink:href="#DejaVuSans-30" x="95.410156"/>
       <use xlink:href="#DejaVuSans-30" x="159.033203"/>
      </g>
     </g>
    </g>
    <g id="ytick_5">
     <g id="line2d_19">
      <g>
       <use xlink:href="#madad09f925" x="253.505" y="98.662021" style="stroke: #000000; stroke-width: 0.8"/>
      </g>
     </g>
     <g id="text_20">
      <!-- 0.25 -->
      <g transform="translate(230.919062 101.321474)scale(0.07 -0.07)">
       <defs>
        <path id="DejaVuSans-35" d="M 691 4666 
L 3169 4666 
L 3169 4134 
L 1269 4134 
L 1269 2991 
Q 1406 3038 1543 3061 
Q 1681 3084 1819 3084 
Q 2600 3084 3056 2656 
Q 3513 2228 3513 1497 
Q 3513 744 3044 326 
Q 2575 -91 1722 -91 
Q 1428 -91 1123 -41 
Q 819 9 494 109 
L 494 744 
Q 775 591 1075 516 
Q 1375 441 1709 441 
Q 2250 441 2565 725 
Q 2881 1009 2881 1497 
Q 2881 1984 2565 2268 
Q 2250 2553 1709 2553 
Q 1456 2553 1204 2497 
Q 953 2441 691 2322 
L 691 4666 
z
" transform="scale(0.015625)"/>
       </defs>
       <use xlink:href="#DejaVuSans-30"/>
       <use xlink:href="#DejaVuSans-2e" x="63.623047"/>
       <use xlink:href="#DejaVuSans-32" x="95.410156"/>
       <use xlink:href="#DejaVuSans-35" x="159.033203"/>
      </g>
     </g>
    </g>
    <g id="ytick_6">
     <g id="line2d_20">
      <g>
       <use xlink:href="#madad09f925" x="253.505" y="71.605375" style="stroke: #000000; stroke-width: 0.8"/>
      </g>
     </g>
     <g id="text_21">
      <!-- 0.50 -->
      <g transform="translate(230.919062 74.264828)scale(0.07 -0.07)">
       <use xlink:href="#DejaVuSans-30"/>
       <use xlink:href="#DejaVuSans-2e" x="63.623047"/>
       <use xlink:href="#DejaVuSans-35" x="95.410156"/>
       <use xlink:href="#DejaVuSans-30" x="159.033203"/>
      </g>
     </g>
    </g>
    <g id="ytick_7">
     <g id="line2d_21">
      <g>
       <use xlink:href="#madad09f925" x="253.505" y="44.548729" style="stroke: #000000; stroke-width: 0.8"/>
      </g>
     </g>
     <g id="text_22">
      <!-- 0.75 -->
      <g transform="translate(230.919062 47.208182)scale(0.07 -0.07)">
       <defs>
        <path id="DejaVuSans-37" d="M 525 4666 
L 3525 4666 
L 3525 4397 
L 1831 0 
L 1172 0 
L 2766 4134 
L 525 4134 
L 525 4666 
z
" transform="scale(0.015625)"/>
       </defs>
       <use xlink:href="#DejaVuSans-30"/>
       <use xlink:href="#DejaVuSans-2e" x="63.623047"/>
       <use xlink:href="#DejaVuSans-37" x="95.410156"/>
       <use xlink:href="#DejaVuSans-35" x="159.033203"/>
      </g>
     </g>
    </g>
    <g id="text_23">
     <!-- Metabolite concentration -->
     <g transform="translate(225.463281 127.704875)rotate(-90)scale(0.07 -0.07)">
      <defs>
       <path id="DejaVuSans-4d" d="M 628 4666 
L 1569 4666 
L 2759 1491 
L 3956 4666 
L 4897 4666 
L 4897 0 
L 4281 0 
L 4281 4097 
L 3078 897 
L 2444 897 
L 1241 4097 
L 1241 0 
L 628 0 
L 628 4666 
z
" transform="scale(0.015625)"/>
       <path id="DejaVuSans-74" d="M 1172 4494 
L 1172 3500 
L 2356 3500 
L 2356 3053 
L 1172 3053 
L 1172 1153 
Q 1172 725 1289 603 
Q 1406 481 1766 481 
L 2356 481 
L 2356 0 
L 1766 0 
Q 1100 0 847 248 
Q 594 497 594 1153 
L 594 3053 
L 172 3053 
L 172 3500 
L 594 3500 
L 594 4494 
L 1172 4494 
z
" transform="scale(0.015625)"/>
       <path id="DejaVuSans-6f" d="M 1959 3097 
Q 1497 3097 1228 2736 
Q 959 2375 959 1747 
Q 959 1119 1226 758 
Q 1494 397 1959 397 
Q 2419 397 2687 759 
Q 2956 1122 2956 1747 
Q 2956 2369 2687 2733 
Q 2419 3097 1959 3097 
z
M 1959 3584 
Q 2709 3584 3137 3096 
Q 3566 2609 3566 1747 
Q 3566 888 3137 398 
Q 2709 -91 1959 -91 
Q 1206 -91 779 398 
Q 353 888 353 1747 
Q 353 2609 779 3096 
Q 1206 3584 1959 3584 
z
" transform="scale(0.015625)"/>
       <path id="DejaVuSans-6c" d="M 603 4863 
L 1178 4863 
L 1178 0 
L 603 0 
L 603 4863 
z
" transform="scale(0.015625)"/>
      </defs>
      <use xlink:href="#DejaVuSans-4d"/>
      <use xlink:href="#DejaVuSans-65" x="86.279297"/>
      <use xlink:href="#DejaVuSans-74" x="147.802734"/>
      <use xlink:href="#DejaVuSans-61" x="187.011719"/>
      <use xlink:href="#DejaVuSans-62" x="248.291016"/>
      <use xlink:href="#DejaVuSans-6f" x="311.767578"/>
      <use xlink:href="#DejaVuSans-6c" x="372.949219"/>
      <use xlink:href="#DejaVuSans-69" x="400.732422"/>
      <use xlink:href="#DejaVuSans-74" x="428.515625"/>
      <use xlink:href="#DejaVuSans-65" x="467.724609"/>
      <use xlink:href="#DejaVuSans-20" x="529.248047"/>
      <use xlink:href="#DejaVuSans-63" x="561.035156"/>
      <use xlink:href="#DejaVuSans-6f" x="616.015625"/>
      <use xlink:href="#DejaVuSans-6e" x="677.197266"/>
      <use xlink:href="#DejaVuSans-63" x="740.576172"/>
      <use xlink:href="#DejaVuSans-65" x="795.556641"/>
      <use xlink:href="#DejaVuSans-6e" x="857.080078"/>
      <use xlink:href="#DejaVuSans-74" x="920.458984"/>
      <use xlink:href="#DejaVuSans-72" x="959.667969"/>
      <use xlink:href="#DejaVuSans-61" x="1000.78125"/>
      <use xlink:href="#DejaVuSans-74" x="1062.060547"/>
      <use xlink:href="#DejaVuSans-69" x="1101.269531"/>
      <use xlink:href="#DejaVuSans-6f" x="1129.052734"/>
      <use xlink:href="#DejaVuSans-6e" x="1190.234375"/>
     </g>
    </g>
   </g>
   <g id="line2d_22">
    <path d="M 261.1275 125.718667 
L 311.944167 43.08057 
L 362.760833 64.932911 
L 413.5775 59.356047 
" clip-path="url(#p4385a49470)" style="fill: none; stroke: #1f77b4; stroke-linecap: square"/>
   </g>
   <g id="line2d_23">
    <path d="M 261.1275 125.718667 
L 311.944167 105.776895 
L 362.760833 101.672416 
L 413.5775 89.980999 
" clip-path="url(#p4385a49470)" style="fill: none; stroke: #ff7f0e; stroke-linecap: square"/>
   </g>
   <g id="line2d_24">
    <path d="M 261.1275 125.718667 
L 311.944167 125.200546 
L 362.760833 125.718667 
L 413.5775 125.718667 
" clip-path="url(#p4385a49470)" style="fill: none; stroke: #2ca02c; stroke-linecap: square"/>
   </g>
   <g id="patch_9">
    <path d="M 253.505 143.8 
L 253.505 23.856 
" style="fill: none; stroke: #000000; stroke-width: 0.8; stroke-linejoin: miter; stroke-linecap: square"/>
   </g>
   <g id="patch_10">
    <path d="M 421.2 143.8 
L 421.2 23.856 
" style="fill: none; stroke: #000000; stroke-width: 0.8; stroke-linejoin: miter; stroke-linecap: square"/>
   </g>
   <g id="patch_11">
    <path d="M 253.505 143.8 
L 421.2 143.8 
" style="fill: none; stroke: #000000; stroke-width: 0.8; stroke-linejoin: miter; stroke-linecap: square"/>
   </g>
   <g id="patch_12">
    <path d="M 253.505 23.856 
L 421.2 23.856 
" style="fill: none; stroke: #000000; stroke-width: 0.8; stroke-linejoin: miter; stroke-linecap: square"/>
   </g>
   <g id="text_24">
    <!-- $m_{t+1} = MiRNN(m_t, s_t, u)$ -->
    <g transform="translate(290.6325 17.856)scale(0.08 -0.08)">
     <use xlink:href="#DejaVuSans-Oblique-6d" transform="translate(0 0.015625)"/>
     <use xlink:href="#DejaVuSans-Oblique-74" transform="translate(97.412109 -16.390625)scale(0.7)"/>
     <use xlink:href="#DejaVuSans-2b" transform="translate(138.496094 -16.390625)scale(0.7)"/>
     <use xlink:href="#DejaVuSans-31" transform="translate(210.786133 -16.390625)scale(0.7)"/>
     <use xlink:href="#DejaVuSans-3d" transform="translate(277.539062 0.015625)"/>
     <use xlink:href="#DejaVuSans-Oblique-4d" transform="translate(380.810547 0.015625)"/>
     <use xlink:href="#DejaVuSans-Oblique-69" transform="translate(467.089844 0.015625)"/>
     <use xlink:href="#DejaVuSans-Oblique-52" transform="translate(494.873047 0.015625)"/>
     <use xlink:href="#DejaVuSans-Oblique-4e" transform="translate(564.355469 0.015625)"/>
     <use xlink:href="#DejaVuSans-Oblique-4e" transform="translate(639.160156 0.015625)"/>
     <use xlink:href="#DejaVuSans-28" transform="translate(713.964844 0.015625)"/>
     <use xlink:href="#DejaVuSans-Oblique-6d" transform="translate(752.978516 0.015625)"/>
     <use xlink:href="#DejaVuSans-Oblique-74" transform="translate(850.390625 -16.390625)scale(0.7)"/>
     <use xlink:href="#DejaVuSans-2c" transform="translate(880.571289 0.015625)"/>
     <use xlink:href="#DejaVuSans-Oblique-73" transform="translate(931.84082 0.015625)"/>
     <use xlink:href="#DejaVuSans-Oblique-74" transform="translate(983.94043 -16.390625)scale(0.7)"/>
     <use xlink:href="#DejaVuSans-2c" transform="translate(1014.121094 0.015625)"/>
     <use xlink:href="#DejaVuSans-Oblique-75" transform="translate(1065.390625 0.015625)"/>
     <use xlink:href="#DejaVuSans-29" transform="translate(1128.769531 0.015625)"/>
    </g>
   </g>
   <g id="legend_2">
    <g id="patch_13">
     <path d="M 258.405 60.280063 
L 311.15 60.280063 
Q 312.55 60.280063 312.55 58.880063 
L 312.55 28.756 
Q 312.55 27.356 311.15 27.356 
L 258.405 27.356 
Q 257.005 27.356 257.005 28.756 
L 257.005 58.880063 
Q 257.005 60.280063 258.405 60.280063 
z
" style="fill: #ffffff; opacity: 0.8; stroke: #cccccc; stroke-linejoin: miter"/>
    </g>
    <g id="line2d_25">
     <path d="M 259.805 33.024906 
L 266.805 33.024906 
L 273.805 33.024906 
" style="fill: none; stroke: #1f77b4; stroke-linecap: square"/>
    </g>
    <g id="text_25">
     <!-- Butyrate -->
     <g transform="translate(279.405 35.474906)scale(0.07 -0.07)">
      <defs>
       <path id="DejaVuSans-42" d="M 1259 2228 
L 1259 519 
L 2272 519 
Q 2781 519 3026 730 
Q 3272 941 3272 1375 
Q 3272 1813 3026 2020 
Q 2781 2228 2272 2228 
L 1259 2228 
z
M 1259 4147 
L 1259 2741 
L 2194 2741 
Q 2656 2741 2882 2914 
Q 3109 3088 3109 3444 
Q 3109 3797 2882 3972 
Q 2656 4147 2194 4147 
L 1259 4147 
z
M 628 4666 
L 2241 4666 
Q 2963 4666 3353 4366 
Q 3744 4066 3744 3513 
Q 3744 3084 3544 2831 
Q 3344 2578 2956 2516 
Q 3422 2416 3680 2098 
Q 3938 1781 3938 1306 
Q 3938 681 3513 340 
Q 3088 0 2303 0 
L 628 0 
L 628 4666 
z
" transform="scale(0.015625)"/>
       <path id="DejaVuSans-79" d="M 2059 -325 
Q 1816 -950 1584 -1140 
Q 1353 -1331 966 -1331 
L 506 -1331 
L 506 -850 
L 844 -850 
Q 1081 -850 1212 -737 
Q 1344 -625 1503 -206 
L 1606 56 
L 191 3500 
L 800 3500 
L 1894 763 
L 2988 3500 
L 3597 3500 
L 2059 -325 
z
" transform="scale(0.015625)"/>
      </defs>
      <use xlink:href="#DejaVuSans-42"/>
      <use xlink:href="#DejaVuSans-75" x="68.603516"/>
      <use xlink:href="#DejaVuSans-74" x="131.982422"/>
      <use xlink:href="#DejaVuSans-79" x="171.191406"/>
      <use xlink:href="#DejaVuSans-72" x="230.371094"/>
      <use xlink:href="#DejaVuSans-61" x="271.484375"/>
      <use xlink:href="#DejaVuSans-74" x="332.763672"/>
      <use xlink:href="#DejaVuSans-65" x="371.972656"/>
     </g>
    </g>
    <g id="line2d_26">
     <path d="M 259.805 43.299594 
L 266.805 43.299594 
L 273.805 43.299594 
" style="fill: none; stroke: #ff7f0e; stroke-linecap: square"/>
    </g>
    <g id="text_26">
     <!-- Acetate -->
     <g transform="translate(279.405 45.749594)scale(0.07 -0.07)">
      <defs>
       <path id="DejaVuSans-41" d="M 2188 4044 
L 1331 1722 
L 3047 1722 
L 2188 4044 
z
M 1831 4666 
L 2547 4666 
L 4325 0 
L 3669 0 
L 3244 1197 
L 1141 1197 
L 716 0 
L 50 0 
L 1831 4666 
z
" transform="scale(0.015625)"/>
      </defs>
      <use xlink:href="#DejaVuSans-41"/>
      <use xlink:href="#DejaVuSans-63" x="66.658203"/>
      <use xlink:href="#DejaVuSans-65" x="121.638672"/>
      <use xlink:href="#DejaVuSans-74" x="183.162109"/>
      <use xlink:href="#DejaVuSans-61" x="222.371094"/>
      <use xlink:href="#DejaVuSans-74" x="283.650391"/>
      <use xlink:href="#DejaVuSans-65" x="322.859375"/>
     </g>
    </g>
    <g id="line2d_27">
     <path d="M 259.805 53.574281 
L 266.805 53.574281 
L 273.805 53.574281 
" style="fill: none; stroke: #2ca02c; stroke-linecap: square"/>
    </g>
    <g id="text_27">
     <!-- Lactate -->
     <g transform="translate(279.405 56.024281)scale(0.07 -0.07)">
      <defs>
       <path id="DejaVuSans-4c" d="M 628 4666 
L 1259 4666 
L 1259 531 
L 3531 531 
L 3531 0 
L 628 0 
L 628 4666 
z
" transform="scale(0.015625)"/>
      </defs>
      <use xlink:href="#DejaVuSans-4c"/>
      <use xlink:href="#DejaVuSans-61" x="55.712891"/>
      <use xlink:href="#DejaVuSans-63" x="116.992188"/>
      <use xlink:href="#DejaVuSans-74" x="171.972656"/>
      <use xlink:href="#DejaVuSans-61" x="211.181641"/>
      <use xlink:href="#DejaVuSans-74" x="272.460938"/>
      <use xlink:href="#DejaVuSans-65" x="311.669922"/>
     </g>
    </g>
   </g>
  </g>
 </g>
 <defs>
  <clipPath id="pd85bfc058b">
   <rect x="45.83" y="23.856" width="167.695" height="119.944"/>
  </clipPath>
  <clipPath id="p4385a49470">
   <rect x="253.505" y="23.856" width="167.695" height="119.944"/>
  </clipPath>
 </defs>
</svg>
