<?xml version="1.0" encoding="utf-8" standalone="no"?>
<!DOCTYPE svg PUBLIC "-//W3C//DTD SVG 1.1//EN"
  "http://www.w3.org/Graphics/SVG/1.1/DTD/svg11.dtd">
<svg xmlns:xlink="http://www.w3.org/1999/xlink" width="460.8pt" height="345.6pt" viewBox="0 0 460.8 345.6" xmlns="http://www.w3.org/2000/svg" version="1.1">
 <metadata>
  <rdf:RDF xmlns:dc="http://purl.org/dc/elements/1.1/" xmlns:cc="http://creativecommons.org/ns#" xmlns:rdf="http://www.w3.org/1999/02/22-rdf-syntax-ns#">
   <cc:Work>
    <dc:type rdf:resource="http://purl.org/dc/dcmitype/StillImage"/>
    <dc:date>2024-10-09T17:51:52.522660</dc:date>
    <dc:format>image/svg+xml</dc:format>
    <dc:creator>
     <cc:Agent>
      <dc:title>Matplotlib v3.7.1, https://matplotlib.org/</dc:title>
     </cc:Agent>
    </dc:creator>
   </cc:Work>
  </rdf:RDF>
 </metadata>
 <defs>
  <style type="text/css">*{stroke-linejoin: round; stroke-linecap: butt}</style>
 </defs>
 <g id="figure_1">
  <g id="patch_1">
   <path d="M 0 345.6 
L 460.8 345.6 
L 460.8 0 
L 0 0 
z
" style="fill: #ffffff"/>
  </g>
  <g id="axes_1">
   <g id="patch_2">
    <path d="M 57.6 307.584 
L 414.72 307.584 
L 414.72 41.472 
L 57.6 41.472 
z
" style="fill: #ffffff"/>
   </g>
   <g id="patch_3">
    <path d="M 73.832727 307.584 
L 80.45833 307.584 
L 80.45833 54.144 
L 73.832727 54.144 
z
" clip-path="url(#p5961fa26a0)" style="opacity: 0.7"/>
   </g>
   <g id="patch_4">
    <path d="M 80.45833 307.584 
L 87.083933 307.584 
L 87.083933 187.067223 
L 80.45833 187.067223 
z
" clip-path="url(#p5961fa26a0)" style="opacity: 0.7"/>
   </g>
   <g id="patch_5">
    <path d="M 87.083933 307.584 
L 93.709536 307.584 
L 93.709536 158.271027 
L 87.083933 158.271027 
z
" clip-path="url(#p5961fa26a0)" style="opacity: 0.7"/>
   </g>
   <g id="patch_6">
    <path d="M 93.709536 307.584 
L 100.335139 307.584 
L 100.335139 136.111209 
L 93.709536 136.111209 
z
" clip-path="url(#p5961fa26a0)" style="opacity: 0.7"/>
   </g>
   <g id="patch_7">
    <path d="M 100.335139 307.584 
L 106.960742 307.584 
L 106.960742 122.823685 
L 100.335139 122.823685 
z
" clip-path="url(#p5961fa26a0)" style="opacity: 0.7"/>
   </g>
   <g id="patch_8">
    <path d="M 106.960742 307.584 
L 113.586345 307.584 
L 113.586345 119.396592 
L 106.960742 119.396592 
z
" clip-path="url(#p5961fa26a0)" style="opacity: 0.7"/>
   </g>
   <g id="patch_9">
    <path d="M 113.586345 307.584 
L 120.211948 307.584 
L 120.211948 124.900861 
L 113.586345 124.900861 
z
" clip-path="url(#p5961fa26a0)" style="opacity: 0.7"/>
   </g>
   <g id="patch_10">
    <path d="M 120.211948 307.584 
L 126.837551 307.584 
L 126.837551 137.015666 
L 120.211948 137.015666 
z
" clip-path="url(#p5961fa26a0)" style="opacity: 0.7"/>
   </g>
   <g id="patch_11">
    <path d="M 126.837551 307.584 
L 133.463154 307.584 
L 133.463154 154.552292 
L 126.837551 154.552292 
z
" clip-path="url(#p5961fa26a0)" style="opacity: 0.7"/>
   </g>
   <g id="patch_12">
    <path d="M 133.463154 307.584 
L 140.088757 307.584 
L 140.088757 172.213205 
L 133.463154 172.213205 
z
" clip-path="url(#p5961fa26a0)" style="opacity: 0.7"/>
   </g>
   <g id="patch_13">
    <path d="M 140.088757 307.584 
L 146.71436 307.584 
L 146.71436 188.908132 
L 140.088757 188.908132 
z
" clip-path="url(#p5961fa26a0)" style="opacity: 0.7"/>
   </g>
   <g id="patch_14">
    <path d="M 146.71436 307.584 
L 153.339963 307.584 
L 153.339963 203.832292 
L 146.71436 203.832292 
z
" clip-path="url(#p5961fa26a0)" style="opacity: 0.7"/>
   </g>
   <g id="patch_15">
    <path d="M 153.339963 307.584 
L 159.965566 307.584 
L 159.965566 215.976631 
L 153.339963 215.976631 
z
" clip-path="url(#p5961fa26a0)" style="opacity: 0.7"/>
   </g>
   <g id="patch_16">
    <path d="M 159.965566 307.584 
L 166.591169 307.584 
L 166.591169 228.159116 
L 159.965566 228.159116 
z
" clip-path="url(#p5961fa26a0)" style="opacity: 0.7"/>
   </g>
   <g id="patch_17">
    <path d="M 166.591169 307.584 
L 173.216772 307.584 
L 173.216772 238.381329 
L 166.591169 238.381329 
z
" clip-path="url(#p5961fa26a0)" style="opacity: 0.7"/>
   </g>
   <g id="patch_18">
    <path d="M 173.216772 307.584 
L 179.842375 307.584 
L 179.842375 246.984133 
L 173.216772 246.984133 
z
" clip-path="url(#p5961fa26a0)" style="opacity: 0.7"/>
   </g>
   <g id="patch_19">
    <path d="M 179.842375 307.584 
L 186.467978 307.584 
L 186.467978 254.966737 
L 179.842375 254.966737 
z
" clip-path="url(#p5961fa26a0)" style="opacity: 0.7"/>
   </g>
   <g id="patch_20">
    <path d="M 186.467978 307.584 
L 193.093581 307.584 
L 193.093581 262.717998 
L 186.467978 262.717998 
z
" clip-path="url(#p5961fa26a0)" style="opacity: 0.7"/>
   </g>
   <g id="patch_21">
    <path d="M 193.093581 307.584 
L 199.719184 307.584 
L 199.719184 269.247318 
L 193.093581 269.247318 
z
" clip-path="url(#p5961fa26a0)" style="opacity: 0.7"/>
   </g>
   <g id="patch_22">
    <path d="M 199.719184 307.584 
L 206.344787 307.584 
L 206.344787 274.868489 
L 199.719184 274.868489 
z
" clip-path="url(#p5961fa26a0)" style="opacity: 0.7"/>
   </g>
   <g id="patch_23">
    <path d="M 206.344787 307.584 
L 212.97039 307.584 
L 212.97039 280.22386 
L 206.344787 280.22386 
z
" clip-path="url(#p5961fa26a0)" style="opacity: 0.7"/>
   </g>
   <g id="patch_24">
    <path d="M 212.97039 307.584 
L 219.595993 307.584 
L 219.595993 284.555411 
L 212.97039 284.555411 
z
" clip-path="url(#p5961fa26a0)" style="opacity: 0.7"/>
   </g>
   <g id="patch_25">
    <path d="M 219.595993 307.584 
L 226.221596 307.584 
L 226.221596 288.459959 
L 219.595993 288.459959 
z
" clip-path="url(#p5961fa26a0)" style="opacity: 0.7"/>
   </g>
   <g id="patch_26">
    <path d="M 226.221596 307.584 
L 232.847199 307.584 
L 232.847199 291.599102 
L 226.221596 291.599102 
z
" clip-path="url(#p5961fa26a0)" style="opacity: 0.7"/>
   </g>
   <g id="patch_27">
    <path d="M 232.847199 307.584 
L 239.472801 307.584 
L 239.472801 294.449066 
L 232.847199 294.449066 
z
" clip-path="url(#p5961fa26a0)" style="opacity: 0.7"/>
   </g>
   <g id="patch_28">
    <path d="M 239.472801 307.584 
L 246.098404 307.584 
L 246.098404 297.200585 
L 239.472801 297.200585 
z
" clip-path="url(#p5961fa26a0)" style="opacity: 0.7"/>
   </g>
   <g id="patch_29">
    <path d="M 246.098404 307.584 
L 252.724007 307.584 
L 252.724007 299.408199 
L 246.098404 299.408199 
z
" clip-path="url(#p5961fa26a0)" style="opacity: 0.7"/>
   </g>
   <g id="patch_30">
    <path d="M 252.724007 307.584 
L 259.34961 307.584 
L 259.34961 301.398005 
L 252.724007 301.398005 
z
" clip-path="url(#p5961fa26a0)" style="opacity: 0.7"/>
   </g>
   <g id="patch_31">
    <path d="M 259.34961 307.584 
L 265.975213 307.584 
L 265.975213 302.869747 
L 259.34961 302.869747 
z
" clip-path="url(#p5961fa26a0)" style="opacity: 0.7"/>
   </g>
   <g id="patch_32">
    <path d="M 265.975213 307.584 
L 272.600816 307.584 
L 272.600816 303.984629 
L 265.975213 303.984629 
z
" clip-path="url(#p5961fa26a0)" style="opacity: 0.7"/>
   </g>
   <g id="patch_33">
    <path d="M 272.600816 307.584 
L 279.226419 307.584 
L 279.226419 305.061364 
L 272.600816 305.061364 
z
" clip-path="url(#p5961fa26a0)" style="opacity: 0.7"/>
   </g>
   <g id="patch_34">
    <path d="M 279.226419 307.584 
L 285.852022 307.584 
L 285.852022 305.868608 
L 279.226419 305.868608 
z
" clip-path="url(#p5961fa26a0)" style="opacity: 0.7"/>
   </g>
   <g id="patch_35">
    <path d="M 285.852022 307.584 
L 292.477625 307.584 
L 292.477625 306.369443 
L 285.852022 306.369443 
z
" clip-path="url(#p5961fa26a0)" style="opacity: 0.7"/>
   </g>
   <g id="patch_36">
    <path d="M 292.477625 307.584 
L 299.103228 307.584 
L 299.103228 306.811212 
L 292.477625 306.811212 
z
" clip-path="url(#p5961fa26a0)" style="opacity: 0.7"/>
   </g>
   <g id="patch_37">
    <path d="M 299.103228 307.584 
L 305.728831 307.584 
L 305.728831 307.101623 
L 299.103228 307.101623 
z
" clip-path="url(#p5961fa26a0)" style="opacity: 0.7"/>
   </g>
   <g id="patch_38">
    <path d="M 305.728831 307.584 
L 312.354434 307.584 
L 312.354434 307.254212 
L 305.728831 307.254212 
z
" clip-path="url(#p5961fa26a0)" style="opacity: 0.7"/>
   </g>
   <g id="patch_39">
    <path d="M 312.354434 307.584 
L 318.980037 307.584 
L 318.980037 307.385881 
L 312.354434 307.385881 
z
" clip-path="url(#p5961fa26a0)" style="opacity: 0.7"/>
   </g>
   <g id="patch_40">
    <path d="M 318.980037 307.584 
L 325.60564 307.584 
L 325.60564 307.491708 
L 318.980037 307.491708 
z
" clip-path="url(#p5961fa26a0)" style="opacity: 0.7"/>
   </g>
   <g id="patch_41">
    <path d="M 325.60564 307.584 
L 332.231243 307.584 
L 332.231243 307.531086 
L 325.60564 307.531086 
z
" clip-path="url(#p5961fa26a0)" style="opacity: 0.7"/>
   </g>
   <g id="patch_42">
    <path d="M 332.231243 307.584 
L 338.856846 307.584 
L 338.856846 307.553236 
L 332.231243 307.553236 
z
" clip-path="url(#p5961fa26a0)" style="opacity: 0.7"/>
   </g>
   <g id="patch_43">
    <path d="M 338.856846 307.584 
L 345.482449 307.584 
L 345.482449 307.571694 
L 338.856846 307.571694 
z
" clip-path="url(#p5961fa26a0)" style="opacity: 0.7"/>
   </g>
   <g id="patch_44">
    <path d="M 345.482449 307.584 
L 352.108052 307.584 
L 352.108052 307.582769 
L 345.482449 307.582769 
z
" clip-path="url(#p5961fa26a0)" style="opacity: 0.7"/>
   </g>
   <g id="patch_45">
    <path d="M 352.108052 307.584 
L 358.733655 307.584 
L 358.733655 307.584 
L 352.108052 307.584 
z
" clip-path="url(#p5961fa26a0)" style="opacity: 0.7"/>
   </g>
   <g id="patch_46">
    <path d="M 358.733655 307.584 
L 365.359258 307.584 
L 365.359258 307.584 
L 358.733655 307.584 
z
" clip-path="url(#p5961fa26a0)" style="opacity: 0.7"/>
   </g>
   <g id="patch_47">
    <path d="M 365.359258 307.584 
L 371.984861 307.584 
L 371.984861 307.584 
L 365.359258 307.584 
z
" clip-path="url(#p5961fa26a0)" style="opacity: 0.7"/>
   </g>
   <g id="patch_48">
    <path d="M 371.984861 307.584 
L 378.610464 307.584 
L 378.610464 307.584 
L 371.984861 307.584 
z
" clip-path="url(#p5961fa26a0)" style="opacity: 0.7"/>
   </g>
   <g id="patch_49">
    <path d="M 378.610464 307.584 
L 385.236067 307.584 
L 385.236067 307.584 
L 378.610464 307.584 
z
" clip-path="url(#p5961fa26a0)" style="opacity: 0.7"/>
   </g>
   <g id="patch_50">
    <path d="M 385.236067 307.584 
L 391.86167 307.584 
L 391.86167 307.584 
L 385.236067 307.584 
z
" clip-path="url(#p5961fa26a0)" style="opacity: 0.7"/>
   </g>
   <g id="patch_51">
    <path d="M 391.86167 307.584 
L 398.487273 307.584 
L 398.487273 307.584 
L 391.86167 307.584 
z
" clip-path="url(#p5961fa26a0)" style="opacity: 0.7"/>
   </g>
   <g id="patch_52">
    <path d="M 73.832727 307.584 
L 80.45833 307.584 
L 80.45833 302.486893 
L 73.832727 302.486893 
z
" clip-path="url(#p5961fa26a0)" style="fill: #1f77b4; opacity: 0.5"/>
   </g>
   <g id="patch_53">
    <path d="M 80.45833 307.584 
L 87.083933 307.584 
L 87.083933 301.110868 
L 80.45833 301.110868 
z
" clip-path="url(#p5961fa26a0)" style="fill: #1f77b4; opacity: 0.5"/>
   </g>
   <g id="patch_54">
    <path d="M 87.083933 307.584 
L 93.709536 307.584 
L 93.709536 296.352922 
L 87.083933 296.352922 
z
" clip-path="url(#p5961fa26a0)" style="fill: #1f77b4; opacity: 0.5"/>
   </g>
   <g id="patch_55">
    <path d="M 93.709536 307.584 
L 100.335139 307.584 
L 100.335139 287.176191 
L 93.709536 287.176191 
z
" clip-path="url(#p5961fa26a0)" style="fill: #1f77b4; opacity: 0.5"/>
   </g>
   <g id="patch_56">
    <path d="M 100.335139 307.584 
L 106.960742 307.584 
L 106.960742 274.510945 
L 100.335139 274.510945 
z
" clip-path="url(#p5961fa26a0)" style="fill: #1f77b4; opacity: 0.5"/>
   </g>
   <g id="patch_57">
    <path d="M 106.960742 307.584 
L 113.586345 307.584 
L 113.586345 258.987056 
L 106.960742 258.987056 
z
" clip-path="url(#p5961fa26a0)" style="fill: #1f77b4; opacity: 0.5"/>
   </g>
   <g id="patch_58">
    <path d="M 113.586345 307.584 
L 120.211948 307.584 
L 120.211948 241.825503 
L 113.586345 241.825503 
z
" clip-path="url(#p5961fa26a0)" style="fill: #1f77b4; opacity: 0.5"/>
   </g>
   <g id="patch_59">
    <path d="M 120.211948 307.584 
L 126.837551 307.584 
L 126.837551 219.382727 
L 120.211948 219.382727 
z
" clip-path="url(#p5961fa26a0)" style="fill: #1f77b4; opacity: 0.5"/>
   </g>
   <g id="patch_60">
    <path d="M 126.837551 307.584 
L 133.463154 307.584 
L 133.463154 197.143448 
L 126.837551 197.143448 
z
" clip-path="url(#p5961fa26a0)" style="fill: #1f77b4; opacity: 0.5"/>
   </g>
   <g id="patch_61">
    <path d="M 133.463154 307.584 
L 140.088757 307.584 
L 140.088757 178.150425 
L 133.463154 178.150425 
z
" clip-path="url(#p5961fa26a0)" style="fill: #1f77b4; opacity: 0.5"/>
   </g>
   <g id="patch_62">
    <path d="M 140.088757 307.584 
L 146.71436 307.584 
L 146.71436 162.578085 
L 140.088757 162.578085 
z
" clip-path="url(#p5961fa26a0)" style="fill: #1f77b4; opacity: 0.5"/>
   </g>
   <g id="patch_63">
    <path d="M 146.71436 307.584 
L 153.339963 307.584 
L 153.339963 150.5524 
L 146.71436 150.5524 
z
" clip-path="url(#p5961fa26a0)" style="fill: #1f77b4; opacity: 0.5"/>
   </g>
   <g id="patch_64">
    <path d="M 153.339963 307.584 
L 159.965566 307.584 
L 159.965566 140.445399 
L 153.339963 140.445399 
z
" clip-path="url(#p5961fa26a0)" style="fill: #1f77b4; opacity: 0.5"/>
   </g>
   <g id="patch_65">
    <path d="M 159.965566 307.584 
L 166.591169 307.584 
L 166.591169 142.761385 
L 159.965566 142.761385 
z
" clip-path="url(#p5961fa26a0)" style="fill: #1f77b4; opacity: 0.5"/>
   </g>
   <g id="patch_66">
    <path d="M 166.591169 307.584 
L 173.216772 307.584 
L 173.216772 147.296453 
L 166.591169 147.296453 
z
" clip-path="url(#p5961fa26a0)" style="fill: #1f77b4; opacity: 0.5"/>
   </g>
   <g id="patch_67">
    <path d="M 173.216772 307.584 
L 179.842375 307.584 
L 179.842375 151.724929 
L 173.216772 151.724929 
z
" clip-path="url(#p5961fa26a0)" style="fill: #1f77b4; opacity: 0.5"/>
   </g>
   <g id="patch_68">
    <path d="M 179.842375 307.584 
L 186.467978 307.584 
L 186.467978 158.731028 
L 179.842375 158.731028 
z
" clip-path="url(#p5961fa26a0)" style="fill: #1f77b4; opacity: 0.5"/>
   </g>
   <g id="patch_69">
    <path d="M 186.467978 307.584 
L 193.093581 307.584 
L 193.093581 169.874894 
L 186.467978 169.874894 
z
" clip-path="url(#p5961fa26a0)" style="fill: #1f77b4; opacity: 0.5"/>
   </g>
   <g id="patch_70">
    <path d="M 193.093581 307.584 
L 199.719184 307.584 
L 199.719184 182.540139 
L 193.093581 182.540139 
z
" clip-path="url(#p5961fa26a0)" style="fill: #1f77b4; opacity: 0.5"/>
   </g>
   <g id="patch_71">
    <path d="M 199.719184 307.584 
L 206.344787 307.584 
L 206.344787 197.046545 
L 199.719184 197.046545 
z
" clip-path="url(#p5961fa26a0)" style="fill: #1f77b4; opacity: 0.5"/>
   </g>
   <g id="patch_72">
    <path d="M 206.344787 307.584 
L 212.97039 307.584 
L 212.97039 209.450152 
L 206.344787 209.450152 
z
" clip-path="url(#p5961fa26a0)" style="fill: #1f77b4; opacity: 0.5"/>
   </g>
   <g id="patch_73">
    <path d="M 212.97039 307.584 
L 219.595993 307.584 
L 219.595993 221.204507 
L 212.97039 221.204507 
z
" clip-path="url(#p5961fa26a0)" style="fill: #1f77b4; opacity: 0.5"/>
   </g>
   <g id="patch_74">
    <path d="M 219.595993 307.584 
L 226.221596 307.584 
L 226.221596 234.10232 
L 219.595993 234.10232 
z
" clip-path="url(#p5961fa26a0)" style="fill: #1f77b4; opacity: 0.5"/>
   </g>
   <g id="patch_75">
    <path d="M 226.221596 307.584 
L 232.847199 307.584 
L 232.847199 244.703528 
L 226.221596 244.703528 
z
" clip-path="url(#p5961fa26a0)" style="fill: #1f77b4; opacity: 0.5"/>
   </g>
   <g id="patch_76">
    <path d="M 232.847199 307.584 
L 239.472801 307.584 
L 239.472801 253.870568 
L 232.847199 253.870568 
z
" clip-path="url(#p5961fa26a0)" style="fill: #1f77b4; opacity: 0.5"/>
   </g>
   <g id="patch_77">
    <path d="M 239.472801 307.584 
L 246.098404 307.584 
L 246.098404 265.402047 
L 239.472801 265.402047 
z
" clip-path="url(#p5961fa26a0)" style="fill: #1f77b4; opacity: 0.5"/>
   </g>
   <g id="patch_78">
    <path d="M 246.098404 307.584 
L 252.724007 307.584 
L 252.724007 273.13492 
L 246.098404 273.13492 
z
" clip-path="url(#p5961fa26a0)" style="fill: #1f77b4; opacity: 0.5"/>
   </g>
   <g id="patch_79">
    <path d="M 252.724007 307.584 
L 259.34961 307.584 
L 259.34961 280.770891 
L 252.724007 280.770891 
z
" clip-path="url(#p5961fa26a0)" style="fill: #1f77b4; opacity: 0.5"/>
   </g>
   <g id="patch_80">
    <path d="M 259.34961 307.584 
L 265.975213 307.584 
L 265.975213 287.069597 
L 259.34961 287.069597 
z
" clip-path="url(#p5961fa26a0)" style="fill: #1f77b4; opacity: 0.5"/>
   </g>
   <g id="patch_81">
    <path d="M 265.975213 307.584 
L 272.600816 307.584 
L 272.600816 290.945724 
L 265.975213 290.945724 
z
" clip-path="url(#p5961fa26a0)" style="fill: #1f77b4; opacity: 0.5"/>
   </g>
   <g id="patch_82">
    <path d="M 272.600816 307.584 
L 279.226419 307.584 
L 279.226419 296.013761 
L 272.600816 296.013761 
z
" clip-path="url(#p5961fa26a0)" style="fill: #1f77b4; opacity: 0.5"/>
   </g>
   <g id="patch_83">
    <path d="M 279.226419 307.584 
L 285.852022 307.584 
L 285.852022 299.35692 
L 279.226419 299.35692 
z
" clip-path="url(#p5961fa26a0)" style="fill: #1f77b4; opacity: 0.5"/>
   </g>
   <g id="patch_84">
    <path d="M 285.852022 307.584 
L 292.477625 307.584 
L 292.477625 302.031448 
L 285.852022 302.031448 
z
" clip-path="url(#p5961fa26a0)" style="fill: #1f77b4; opacity: 0.5"/>
   </g>
   <g id="patch_85">
    <path d="M 292.477625 307.584 
L 299.103228 307.584 
L 299.103228 303.91137 
L 292.477625 303.91137 
z
" clip-path="url(#p5961fa26a0)" style="fill: #1f77b4; opacity: 0.5"/>
   </g>
   <g id="patch_86">
    <path d="M 299.103228 307.584 
L 305.728831 307.584 
L 305.728831 305.481201 
L 299.103228 305.481201 
z
" clip-path="url(#p5961fa26a0)" style="fill: #1f77b4; opacity: 0.5"/>
   </g>
   <g id="patch_87">
    <path d="M 305.728831 307.584 
L 312.354434 307.584 
L 312.354434 306.159523 
L 305.728831 306.159523 
z
" clip-path="url(#p5961fa26a0)" style="fill: #1f77b4; opacity: 0.5"/>
   </g>
   <g id="patch_88">
    <path d="M 312.354434 307.584 
L 318.980037 307.584 
L 318.980037 306.770013 
L 312.354434 306.770013 
z
" clip-path="url(#p5961fa26a0)" style="fill: #1f77b4; opacity: 0.5"/>
   </g>
   <g id="patch_89">
    <path d="M 318.980037 307.584 
L 325.60564 307.584 
L 325.60564 307.27391 
L 318.980037 307.27391 
z
" clip-path="url(#p5961fa26a0)" style="fill: #1f77b4; opacity: 0.5"/>
   </g>
   <g id="patch_90">
    <path d="M 325.60564 307.584 
L 332.231243 307.584 
L 332.231243 307.351432 
L 325.60564 307.351432 
z
" clip-path="url(#p5961fa26a0)" style="fill: #1f77b4; opacity: 0.5"/>
   </g>
   <g id="patch_91">
    <path d="M 332.231243 307.584 
L 338.856846 307.584 
L 338.856846 307.467716 
L 332.231243 307.467716 
z
" clip-path="url(#p5961fa26a0)" style="fill: #1f77b4; opacity: 0.5"/>
   </g>
   <g id="patch_92">
    <path d="M 338.856846 307.584 
L 345.482449 307.584 
L 345.482449 307.535548 
L 338.856846 307.535548 
z
" clip-path="url(#p5961fa26a0)" style="fill: #1f77b4; opacity: 0.5"/>
   </g>
   <g id="patch_93">
    <path d="M 345.482449 307.584 
L 352.108052 307.584 
L 352.108052 307.584 
L 345.482449 307.584 
z
" clip-path="url(#p5961fa26a0)" style="fill: #1f77b4; opacity: 0.5"/>
   </g>
   <g id="patch_94">
    <path d="M 352.108052 307.584 
L 358.733655 307.584 
L 358.733655 307.584 
L 352.108052 307.584 
z
" clip-path="url(#p5961fa26a0)" style="fill: #1f77b4; opacity: 0.5"/>
   </g>
   <g id="patch_95">
    <path d="M 358.733655 307.584 
L 365.359258 307.584 
L 365.359258 307.584 
L 358.733655 307.584 
z
" clip-path="url(#p5961fa26a0)" style="fill: #1f77b4; opacity: 0.5"/>
   </g>
   <g id="patch_96">
    <path d="M 365.359258 307.584 
L 371.984861 307.584 
L 371.984861 307.584 
L 365.359258 307.584 
z
" clip-path="url(#p5961fa26a0)" style="fill: #1f77b4; opacity: 0.5"/>
   </g>
   <g id="patch_97">
    <path d="M 371.984861 307.584 
L 378.610464 307.584 
L 378.610464 307.584 
L 371.984861 307.584 
z
" clip-path="url(#p5961fa26a0)" style="fill: #1f77b4; opacity: 0.5"/>
   </g>
   <g id="patch_98">
    <path d="M 378.610464 307.584 
L 385.236067 307.584 
L 385.236067 307.584 
L 378.610464 307.584 
z
" clip-path="url(#p5961fa26a0)" style="fill: #1f77b4; opacity: 0.5"/>
   </g>
   <g id="patch_99">
    <path d="M 385.236067 307.584 
L 391.86167 307.584 
L 391.86167 307.584 
L 385.236067 307.584 
z
" clip-path="url(#p5961fa26a0)" style="fill: #1f77b4; opacity: 0.5"/>
   </g>
   <g id="patch_100">
    <path d="M 391.86167 307.584 
L 398.487273 307.584 
L 398.487273 307.584 
L 391.86167 307.584 
z
" clip-path="url(#p5961fa26a0)" style="fill: #1f77b4; opacity: 0.5"/>
   </g>
   <g id="matplotlib.axis_1">
    <g id="xtick_1">
     <g id="line2d_1">
      <defs>
       <path id="m1bdb224489" d="M 0 0 
L 0 3.5 
" style="stroke: #000000; stroke-width: 0.8"/>
      </defs>
      <g>
       <use xlink:href="#m1bdb224489" x="73.832727" y="307.584" style="stroke: #000000; stroke-width: 0.8"/>
      </g>
     </g>
     <g id="text_1">
      <!-- 0 -->
      <g transform="translate(70.651477 322.182437) scale(0.1 -0.1)">
       <defs>
        <path id="DejaVuSans-30" d="M 2034 4250 
Q 1547 4250 1301 3770 
Q 1056 3291 1056 2328 
Q 1056 1369 1301 889 
Q 1547 409 2034 409 
Q 2525 409 2770 889 
Q 3016 1369 3016 2328 
Q 3016 3291 2770 3770 
Q 2525 4250 2034 4250 
z
M 2034 4750 
Q 2819 4750 3233 4129 
Q 3647 3509 3647 2328 
Q 3647 1150 3233 529 
Q 2819 -91 2034 -91 
Q 1250 -91 836 529 
Q 422 1150 422 2328 
Q 422 3509 836 4129 
Q 1250 4750 2034 4750 
z
" transform="scale(0.015625)"/>
       </defs>
       <use xlink:href="#DejaVuSans-30"/>
      </g>
     </g>
    </g>
    <g id="xtick_2">
     <g id="line2d_2">
      <g>
       <use xlink:href="#m1bdb224489" x="138.763636" y="307.584" style="stroke: #000000; stroke-width: 0.8"/>
      </g>
     </g>
     <g id="text_2">
      <!-- 5 -->
      <g transform="translate(135.582386 322.182437) scale(0.1 -0.1)">
       <defs>
        <path id="DejaVuSans-35" d="M 691 4666 
L 3169 4666 
L 3169 4134 
L 1269 4134 
L 1269 2991 
Q 1406 3038 1543 3061 
Q 1681 3084 1819 3084 
Q 2600 3084 3056 2656 
Q 3513 2228 3513 1497 
Q 3513 744 3044 326 
Q 2575 -91 1722 -91 
Q 1428 -91 1123 -41 
Q 819 9 494 109 
L 494 744 
Q 775 591 1075 516 
Q 1375 441 1709 441 
Q 2250 441 2565 725 
Q 2881 1009 2881 1497 
Q 2881 1984 2565 2268 
Q 2250 2553 1709 2553 
Q 1456 2553 1204 2497 
Q 953 2441 691 2322 
L 691 4666 
z
" transform="scale(0.015625)"/>
       </defs>
       <use xlink:href="#DejaVuSans-35"/>
      </g>
     </g>
    </g>
    <g id="xtick_3">
     <g id="line2d_3">
      <g>
       <use xlink:href="#m1bdb224489" x="203.694545" y="307.584" style="stroke: #000000; stroke-width: 0.8"/>
      </g>
     </g>
     <g id="text_3">
      <!-- 10 -->
      <g transform="translate(197.332045 322.182437) scale(0.1 -0.1)">
       <defs>
        <path id="DejaVuSans-31" d="M 794 531 
L 1825 531 
L 1825 4091 
L 703 3866 
L 703 4441 
L 1819 4666 
L 2450 4666 
L 2450 531 
L 3481 531 
L 3481 0 
L 794 0 
L 794 531 
z
" transform="scale(0.015625)"/>
       </defs>
       <use xlink:href="#DejaVuSans-31"/>
       <use xlink:href="#DejaVuSans-30" x="63.623047"/>
      </g>
     </g>
    </g>
    <g id="xtick_4">
     <g id="line2d_4">
      <g>
       <use xlink:href="#m1bdb224489" x="268.625455" y="307.584" style="stroke: #000000; stroke-width: 0.8"/>
      </g>
     </g>
     <g id="text_4">
      <!-- 15 -->
      <g transform="translate(262.262955 322.182437) scale(0.1 -0.1)">
       <use xlink:href="#DejaVuSans-31"/>
       <use xlink:href="#DejaVuSans-35" x="63.623047"/>
      </g>
     </g>
    </g>
    <g id="xtick_5">
     <g id="line2d_5">
      <g>
       <use xlink:href="#m1bdb224489" x="333.556364" y="307.584" style="stroke: #000000; stroke-width: 0.8"/>
      </g>
     </g>
     <g id="text_5">
      <!-- 20 -->
      <g transform="translate(327.193864 322.182437) scale(0.1 -0.1)">
       <defs>
        <path id="DejaVuSans-32" d="M 1228 531 
L 3431 531 
L 3431 0 
L 469 0 
L 469 531 
Q 828 903 1448 1529 
Q 2069 2156 2228 2338 
Q 2531 2678 2651 2914 
Q 2772 3150 2772 3378 
Q 2772 3750 2511 3984 
Q 2250 4219 1831 4219 
Q 1534 4219 1204 4116 
Q 875 4013 500 3803 
L 500 4441 
Q 881 4594 1212 4672 
Q 1544 4750 1819 4750 
Q 2544 4750 2975 4387 
Q 3406 4025 3406 3419 
Q 3406 3131 3298 2873 
Q 3191 2616 2906 2266 
Q 2828 2175 2409 1742 
Q 1991 1309 1228 531 
z
" transform="scale(0.015625)"/>
       </defs>
       <use xlink:href="#DejaVuSans-32"/>
       <use xlink:href="#DejaVuSans-30" x="63.623047"/>
      </g>
     </g>
    </g>
    <g id="xtick_6">
     <g id="line2d_6">
      <g>
       <use xlink:href="#m1bdb224489" x="398.487273" y="307.584" style="stroke: #000000; stroke-width: 0.8"/>
      </g>
     </g>
     <g id="text_6">
      <!-- 25 -->
      <g transform="translate(392.124773 322.182437) scale(0.1 -0.1)">
       <use xlink:href="#DejaVuSans-32"/>
       <use xlink:href="#DejaVuSans-35" x="63.623047"/>
      </g>
     </g>
    </g>
    <g id="text_7">
     <!-- Butyrate (mM) -->
     <g transform="translate(199.81 335.860562) scale(0.1 -0.1)">
      <defs>
       <path id="DejaVuSans-42" d="M 1259 2228 
L 1259 519 
L 2272 519 
Q 2781 519 3026 730 
Q 3272 941 3272 1375 
Q 3272 1813 3026 2020 
Q 2781 2228 2272 2228 
L 1259 2228 
z
M 1259 4147 
L 1259 2741 
L 2194 2741 
Q 2656 2741 2882 2914 
Q 3109 3088 3109 3444 
Q 3109 3797 2882 3972 
Q 2656 4147 2194 4147 
L 1259 4147 
z
M 628 4666 
L 2241 4666 
Q 2963 4666 3353 4366 
Q 3744 4066 3744 3513 
Q 3744 3084 3544 2831 
Q 3344 2578 2956 2516 
Q 3422 2416 3680 2098 
Q 3938 1781 3938 1306 
Q 3938 681 3513 340 
Q 3088 0 2303 0 
L 628 0 
L 628 4666 
z
" transform="scale(0.015625)"/>
       <path id="DejaVuSans-75" d="M 544 1381 
L 544 3500 
L 1119 3500 
L 1119 1403 
Q 1119 906 1312 657 
Q 1506 409 1894 409 
Q 2359 409 2629 706 
Q 2900 1003 2900 1516 
L 2900 3500 
L 3475 3500 
L 3475 0 
L 2900 0 
L 2900 538 
Q 2691 219 2414 64 
Q 2138 -91 1772 -91 
Q 1169 -91 856 284 
Q 544 659 544 1381 
z
M 1991 3584 
L 1991 3584 
z
" transform="scale(0.015625)"/>
       <path id="DejaVuSans-74" d="M 1172 4494 
L 1172 3500 
L 2356 3500 
L 2356 3053 
L 1172 3053 
L 1172 1153 
Q 1172 725 1289 603 
Q 1406 481 1766 481 
L 2356 481 
L 2356 0 
L 1766 0 
Q 1100 0 847 248 
Q 594 497 594 1153 
L 594 3053 
L 172 3053 
L 172 3500 
L 594 3500 
L 594 4494 
L 1172 4494 
z
" transform="scale(0.015625)"/>
       <path id="DejaVuSans-79" d="M 2059 -325 
Q 1816 -950 1584 -1140 
Q 1353 -1331 966 -1331 
L 506 -1331 
L 506 -850 
L 844 -850 
Q 1081 -850 1212 -737 
Q 1344 -625 1503 -206 
L 1606 56 
L 191 3500 
L 800 3500 
L 1894 763 
L 2988 3500 
L 3597 3500 
L 2059 -325 
z
" transform="scale(0.015625)"/>
       <path id="DejaVuSans-72" d="M 2631 2963 
Q 2534 3019 2420 3045 
Q 2306 3072 2169 3072 
Q 1681 3072 1420 2755 
Q 1159 2438 1159 1844 
L 1159 0 
L 581 0 
L 581 3500 
L 1159 3500 
L 1159 2956 
Q 1341 3275 1631 3429 
Q 1922 3584 2338 3584 
Q 2397 3584 2469 3576 
Q 2541 3569 2628 3553 
L 2631 2963 
z
" transform="scale(0.015625)"/>
       <path id="DejaVuSans-61" d="M 2194 1759 
Q 1497 1759 1228 1600 
Q 959 1441 959 1056 
Q 959 750 1161 570 
Q 1363 391 1709 391 
Q 2188 391 2477 730 
Q 2766 1069 2766 1631 
L 2766 1759 
L 2194 1759 
z
M 3341 1997 
L 3341 0 
L 2766 0 
L 2766 531 
Q 2569 213 2275 61 
Q 1981 -91 1556 -91 
Q 1019 -91 701 211 
Q 384 513 384 1019 
Q 384 1609 779 1909 
Q 1175 2209 1959 2209 
L 2766 2209 
L 2766 2266 
Q 2766 2663 2505 2880 
Q 2244 3097 1772 3097 
Q 1472 3097 1187 3025 
Q 903 2953 641 2809 
L 641 3341 
Q 956 3463 1253 3523 
Q 1550 3584 1831 3584 
Q 2591 3584 2966 3190 
Q 3341 2797 3341 1997 
z
" transform="scale(0.015625)"/>
       <path id="DejaVuSans-65" d="M 3597 1894 
L 3597 1613 
L 953 1613 
Q 991 1019 1311 708 
Q 1631 397 2203 397 
Q 2534 397 2845 478 
Q 3156 559 3463 722 
L 3463 178 
Q 3153 47 2828 -22 
Q 2503 -91 2169 -91 
Q 1331 -91 842 396 
Q 353 884 353 1716 
Q 353 2575 817 3079 
Q 1281 3584 2069 3584 
Q 2775 3584 3186 3129 
Q 3597 2675 3597 1894 
z
M 3022 2063 
Q 3016 2534 2758 2815 
Q 2500 3097 2075 3097 
Q 1594 3097 1305 2825 
Q 1016 2553 972 2059 
L 3022 2063 
z
" transform="scale(0.015625)"/>
       <path id="DejaVuSans-20" transform="scale(0.015625)"/>
       <path id="DejaVuSans-28" d="M 1984 4856 
Q 1566 4138 1362 3434 
Q 1159 2731 1159 2009 
Q 1159 1288 1364 580 
Q 1569 -128 1984 -844 
L 1484 -844 
Q 1016 -109 783 600 
Q 550 1309 550 2009 
Q 550 2706 781 3412 
Q 1013 4119 1484 4856 
L 1984 4856 
z
" transform="scale(0.015625)"/>
       <path id="DejaVuSans-6d" d="M 3328 2828 
Q 3544 3216 3844 3400 
Q 4144 3584 4550 3584 
Q 5097 3584 5394 3201 
Q 5691 2819 5691 2113 
L 5691 0 
L 5113 0 
L 5113 2094 
Q 5113 2597 4934 2840 
Q 4756 3084 4391 3084 
Q 3944 3084 3684 2787 
Q 3425 2491 3425 1978 
L 3425 0 
L 2847 0 
L 2847 2094 
Q 2847 2600 2669 2842 
Q 2491 3084 2119 3084 
Q 1678 3084 1418 2786 
Q 1159 2488 1159 1978 
L 1159 0 
L 581 0 
L 581 3500 
L 1159 3500 
L 1159 2956 
Q 1356 3278 1631 3431 
Q 1906 3584 2284 3584 
Q 2666 3584 2933 3390 
Q 3200 3197 3328 2828 
z
" transform="scale(0.015625)"/>
       <path id="DejaVuSans-4d" d="M 628 4666 
L 1569 4666 
L 2759 1491 
L 3956 4666 
L 4897 4666 
L 4897 0 
L 4281 0 
L 4281 4097 
L 3078 897 
L 2444 897 
L 1241 4097 
L 1241 0 
L 628 0 
L 628 4666 
z
" transform="scale(0.015625)"/>
       <path id="DejaVuSans-29" d="M 513 4856 
L 1013 4856 
Q 1481 4119 1714 3412 
Q 1947 2706 1947 2009 
Q 1947 1309 1714 600 
Q 1481 -109 1013 -844 
L 513 -844 
Q 928 -128 1133 580 
Q 1338 1288 1338 2009 
Q 1338 2731 1133 3434 
Q 928 4138 513 4856 
z
" transform="scale(0.015625)"/>
      </defs>
      <use xlink:href="#DejaVuSans-42"/>
      <use xlink:href="#DejaVuSans-75" x="68.603516"/>
      <use xlink:href="#DejaVuSans-74" x="131.982422"/>
      <use xlink:href="#DejaVuSans-79" x="171.191406"/>
      <use xlink:href="#DejaVuSans-72" x="230.371094"/>
      <use xlink:href="#DejaVuSans-61" x="271.484375"/>
      <use xlink:href="#DejaVuSans-74" x="332.763672"/>
      <use xlink:href="#DejaVuSans-65" x="371.972656"/>
      <use xlink:href="#DejaVuSans-20" x="433.496094"/>
      <use xlink:href="#DejaVuSans-28" x="465.283203"/>
      <use xlink:href="#DejaVuSans-6d" x="504.296875"/>
      <use xlink:href="#DejaVuSans-4d" x="601.708984"/>
      <use xlink:href="#DejaVuSans-29" x="687.988281"/>
     </g>
    </g>
   </g>
   <g id="matplotlib.axis_2">
    <g id="ytick_1">
     <g id="line2d_7">
      <defs>
       <path id="mf18060caf4" d="M 0 0 
L -3.5 0 
" style="stroke: #000000; stroke-width: 0.8"/>
      </defs>
      <g>
       <use xlink:href="#mf18060caf4" x="57.6" y="307.584" style="stroke: #000000; stroke-width: 0.8"/>
      </g>
     </g>
     <g id="text_8">
      <!-- 0.000 -->
      <g transform="translate(21.971875 311.383219) scale(0.1 -0.1)">
       <defs>
        <path id="DejaVuSans-2e" d="M 684 794 
L 1344 794 
L 1344 0 
L 684 0 
L 684 794 
z
" transform="scale(0.015625)"/>
       </defs>
       <use xlink:href="#DejaVuSans-30"/>
       <use xlink:href="#DejaVuSans-2e" x="63.623047"/>
       <use xlink:href="#DejaVuSans-30" x="95.410156"/>
       <use xlink:href="#DejaVuSans-30" x="159.033203"/>
       <use xlink:href="#DejaVuSans-30" x="222.65625"/>
      </g>
     </g>
    </g>
    <g id="ytick_2">
     <g id="line2d_8">
      <g>
       <use xlink:href="#mf18060caf4" x="57.6" y="275.182741" style="stroke: #000000; stroke-width: 0.8"/>
      </g>
     </g>
     <g id="text_9">
      <!-- 0.025 -->
      <g transform="translate(21.971875 278.98196) scale(0.1 -0.1)">
       <use xlink:href="#DejaVuSans-30"/>
       <use xlink:href="#DejaVuSans-2e" x="63.623047"/>
       <use xlink:href="#DejaVuSans-30" x="95.410156"/>
       <use xlink:href="#DejaVuSans-32" x="159.033203"/>
       <use xlink:href="#DejaVuSans-35" x="222.65625"/>
      </g>
     </g>
    </g>
    <g id="ytick_3">
     <g id="line2d_9">
      <g>
       <use xlink:href="#mf18060caf4" x="57.6" y="242.781483" style="stroke: #000000; stroke-width: 0.8"/>
      </g>
     </g>
     <g id="text_10">
      <!-- 0.050 -->
      <g transform="translate(21.971875 246.580702) scale(0.1 -0.1)">
       <use xlink:href="#DejaVuSans-30"/>
       <use xlink:href="#DejaVuSans-2e" x="63.623047"/>
       <use xlink:href="#DejaVuSans-30" x="95.410156"/>
       <use xlink:href="#DejaVuSans-35" x="159.033203"/>
       <use xlink:href="#DejaVuSans-30" x="222.65625"/>
      </g>
     </g>
    </g>
    <g id="ytick_4">
     <g id="line2d_10">
      <g>
       <use xlink:href="#mf18060caf4" x="57.6" y="210.380224" style="stroke: #000000; stroke-width: 0.8"/>
      </g>
     </g>
     <g id="text_11">
      <!-- 0.075 -->
      <g transform="translate(21.971875 214.179443) scale(0.1 -0.1)">
       <defs>
        <path id="DejaVuSans-37" d="M 525 4666 
L 3525 4666 
L 3525 4397 
L 1831 0 
L 1172 0 
L 2766 4134 
L 525 4134 
L 525 4666 
z
" transform="scale(0.015625)"/>
       </defs>
       <use xlink:href="#DejaVuSans-30"/>
       <use xlink:href="#DejaVuSans-2e" x="63.623047"/>
       <use xlink:href="#DejaVuSans-30" x="95.410156"/>
       <use xlink:href="#DejaVuSans-37" x="159.033203"/>
       <use xlink:href="#DejaVuSans-35" x="222.65625"/>
      </g>
     </g>
    </g>
    <g id="ytick_5">
     <g id="line2d_11">
      <g>
       <use xlink:href="#mf18060caf4" x="57.6" y="177.978966" style="stroke: #000000; stroke-width: 0.8"/>
      </g>
     </g>
     <g id="text_12">
      <!-- 0.100 -->
      <g transform="translate(21.971875 181.778185) scale(0.1 -0.1)">
       <use xlink:href="#DejaVuSans-30"/>
       <use xlink:href="#DejaVuSans-2e" x="63.623047"/>
       <use xlink:href="#DejaVuSans-31" x="95.410156"/>
       <use xlink:href="#DejaVuSans-30" x="159.033203"/>
       <use xlink:href="#DejaVuSans-30" x="222.65625"/>
      </g>
     </g>
    </g>
    <g id="ytick_6">
     <g id="line2d_12">
      <g>
       <use xlink:href="#mf18060caf4" x="57.6" y="145.577707" style="stroke: #000000; stroke-width: 0.8"/>
      </g>
     </g>
     <g id="text_13">
      <!-- 0.125 -->
      <g transform="translate(21.971875 149.376926) scale(0.1 -0.1)">
       <use xlink:href="#DejaVuSans-30"/>
       <use xlink:href="#DejaVuSans-2e" x="63.623047"/>
       <use xlink:href="#DejaVuSans-31" x="95.410156"/>
       <use xlink:href="#DejaVuSans-32" x="159.033203"/>
       <use xlink:href="#DejaVuSans-35" x="222.65625"/>
      </g>
     </g>
    </g>
    <g id="ytick_7">
     <g id="line2d_13">
      <g>
       <use xlink:href="#mf18060caf4" x="57.6" y="113.176449" style="stroke: #000000; stroke-width: 0.8"/>
      </g>
     </g>
     <g id="text_14">
      <!-- 0.150 -->
      <g transform="translate(21.971875 116.975668) scale(0.1 -0.1)">
       <use xlink:href="#DejaVuSans-30"/>
       <use xlink:href="#DejaVuSans-2e" x="63.623047"/>
       <use xlink:href="#DejaVuSans-31" x="95.410156"/>
       <use xlink:href="#DejaVuSans-35" x="159.033203"/>
       <use xlink:href="#DejaVuSans-30" x="222.65625"/>
      </g>
     </g>
    </g>
    <g id="ytick_8">
     <g id="line2d_14">
      <g>
       <use xlink:href="#mf18060caf4" x="57.6" y="80.77519" style="stroke: #000000; stroke-width: 0.8"/>
      </g>
     </g>
     <g id="text_15">
      <!-- 0.175 -->
      <g transform="translate(21.971875 84.574409) scale(0.1 -0.1)">
       <use xlink:href="#DejaVuSans-30"/>
       <use xlink:href="#DejaVuSans-2e" x="63.623047"/>
       <use xlink:href="#DejaVuSans-31" x="95.410156"/>
       <use xlink:href="#DejaVuSans-37" x="159.033203"/>
       <use xlink:href="#DejaVuSans-35" x="222.65625"/>
      </g>
     </g>
    </g>
    <g id="ytick_9">
     <g id="line2d_15">
      <g>
       <use xlink:href="#mf18060caf4" x="57.6" y="48.373932" style="stroke: #000000; stroke-width: 0.8"/>
      </g>
     </g>
     <g id="text_16">
      <!-- 0.200 -->
      <g transform="translate(21.971875 52.173151) scale(0.1 -0.1)">
       <use xlink:href="#DejaVuSans-30"/>
       <use xlink:href="#DejaVuSans-2e" x="63.623047"/>
       <use xlink:href="#DejaVuSans-32" x="95.410156"/>
       <use xlink:href="#DejaVuSans-30" x="159.033203"/>
       <use xlink:href="#DejaVuSans-30" x="222.65625"/>
      </g>
     </g>
    </g>
    <g id="text_17">
     <!-- Sample density -->
     <g transform="translate(15.892187 213.198312) rotate(-90) scale(0.1 -0.1)">
      <defs>
       <path id="DejaVuSans-53" d="M 3425 4513 
L 3425 3897 
Q 3066 4069 2747 4153 
Q 2428 4238 2131 4238 
Q 1616 4238 1336 4038 
Q 1056 3838 1056 3469 
Q 1056 3159 1242 3001 
Q 1428 2844 1947 2747 
L 2328 2669 
Q 3034 2534 3370 2195 
Q 3706 1856 3706 1288 
Q 3706 609 3251 259 
Q 2797 -91 1919 -91 
Q 1588 -91 1214 -16 
Q 841 59 441 206 
L 441 856 
Q 825 641 1194 531 
Q 1563 422 1919 422 
Q 2459 422 2753 634 
Q 3047 847 3047 1241 
Q 3047 1584 2836 1778 
Q 2625 1972 2144 2069 
L 1759 2144 
Q 1053 2284 737 2584 
Q 422 2884 422 3419 
Q 422 4038 858 4394 
Q 1294 4750 2059 4750 
Q 2388 4750 2728 4690 
Q 3069 4631 3425 4513 
z
" transform="scale(0.015625)"/>
       <path id="DejaVuSans-70" d="M 1159 525 
L 1159 -1331 
L 581 -1331 
L 581 3500 
L 1159 3500 
L 1159 2969 
Q 1341 3281 1617 3432 
Q 1894 3584 2278 3584 
Q 2916 3584 3314 3078 
Q 3713 2572 3713 1747 
Q 3713 922 3314 415 
Q 2916 -91 2278 -91 
Q 1894 -91 1617 61 
Q 1341 213 1159 525 
z
M 3116 1747 
Q 3116 2381 2855 2742 
Q 2594 3103 2138 3103 
Q 1681 3103 1420 2742 
Q 1159 2381 1159 1747 
Q 1159 1113 1420 752 
Q 1681 391 2138 391 
Q 2594 391 2855 752 
Q 3116 1113 3116 1747 
z
" transform="scale(0.015625)"/>
       <path id="DejaVuSans-6c" d="M 603 4863 
L 1178 4863 
L 1178 0 
L 603 0 
L 603 4863 
z
" transform="scale(0.015625)"/>
       <path id="DejaVuSans-64" d="M 2906 2969 
L 2906 4863 
L 3481 4863 
L 3481 0 
L 2906 0 
L 2906 525 
Q 2725 213 2448 61 
Q 2172 -91 1784 -91 
Q 1150 -91 751 415 
Q 353 922 353 1747 
Q 353 2572 751 3078 
Q 1150 3584 1784 3584 
Q 2172 3584 2448 3432 
Q 2725 3281 2906 2969 
z
M 947 1747 
Q 947 1113 1208 752 
Q 1469 391 1925 391 
Q 2381 391 2643 752 
Q 2906 1113 2906 1747 
Q 2906 2381 2643 2742 
Q 2381 3103 1925 3103 
Q 1469 3103 1208 2742 
Q 947 2381 947 1747 
z
" transform="scale(0.015625)"/>
       <path id="DejaVuSans-6e" d="M 3513 2113 
L 3513 0 
L 2938 0 
L 2938 2094 
Q 2938 2591 2744 2837 
Q 2550 3084 2163 3084 
Q 1697 3084 1428 2787 
Q 1159 2491 1159 1978 
L 1159 0 
L 581 0 
L 581 3500 
L 1159 3500 
L 1159 2956 
Q 1366 3272 1645 3428 
Q 1925 3584 2291 3584 
Q 2894 3584 3203 3211 
Q 3513 2838 3513 2113 
z
" transform="scale(0.015625)"/>
       <path id="DejaVuSans-73" d="M 2834 3397 
L 2834 2853 
Q 2591 2978 2328 3040 
Q 2066 3103 1784 3103 
Q 1356 3103 1142 2972 
Q 928 2841 928 2578 
Q 928 2378 1081 2264 
Q 1234 2150 1697 2047 
L 1894 2003 
Q 2506 1872 2764 1633 
Q 3022 1394 3022 966 
Q 3022 478 2636 193 
Q 2250 -91 1575 -91 
Q 1294 -91 989 -36 
Q 684 19 347 128 
L 347 722 
Q 666 556 975 473 
Q 1284 391 1588 391 
Q 1994 391 2212 530 
Q 2431 669 2431 922 
Q 2431 1156 2273 1281 
Q 2116 1406 1581 1522 
L 1381 1569 
Q 847 1681 609 1914 
Q 372 2147 372 2553 
Q 372 3047 722 3315 
Q 1072 3584 1716 3584 
Q 2034 3584 2315 3537 
Q 2597 3491 2834 3397 
z
" transform="scale(0.015625)"/>
       <path id="DejaVuSans-69" d="M 603 3500 
L 1178 3500 
L 1178 0 
L 603 0 
L 603 3500 
z
M 603 4863 
L 1178 4863 
L 1178 4134 
L 603 4134 
L 603 4863 
z
" transform="scale(0.015625)"/>
      </defs>
      <use xlink:href="#DejaVuSans-53"/>
      <use xlink:href="#DejaVuSans-61" x="63.476562"/>
      <use xlink:href="#DejaVuSans-6d" x="124.755859"/>
      <use xlink:href="#DejaVuSans-70" x="222.167969"/>
      <use xlink:href="#DejaVuSans-6c" x="285.644531"/>
      <use xlink:href="#DejaVuSans-65" x="313.427734"/>
      <use xlink:href="#DejaVuSans-20" x="374.951172"/>
      <use xlink:href="#DejaVuSans-64" x="406.738281"/>
      <use xlink:href="#DejaVuSans-65" x="470.214844"/>
      <use xlink:href="#DejaVuSans-6e" x="531.738281"/>
      <use xlink:href="#DejaVuSans-73" x="595.117188"/>
      <use xlink:href="#DejaVuSans-69" x="647.216797"/>
      <use xlink:href="#DejaVuSans-74" x="675"/>
      <use xlink:href="#DejaVuSans-79" x="714.208984"/>
     </g>
    </g>
   </g>
   <g id="patch_101">
    <path d="M 57.6 307.584 
L 57.6 41.472 
" style="fill: none; stroke: #000000; stroke-width: 0.8; stroke-linejoin: miter; stroke-linecap: square"/>
   </g>
   <g id="patch_102">
    <path d="M 414.72 307.584 
L 414.72 41.472 
" style="fill: none; stroke: #000000; stroke-width: 0.8; stroke-linejoin: miter; stroke-linecap: square"/>
   </g>
   <g id="patch_103">
    <path d="M 57.6 307.584 
L 414.72 307.584 
" style="fill: none; stroke: #000000; stroke-width: 0.8; stroke-linejoin: miter; stroke-linecap: square"/>
   </g>
   <g id="patch_104">
    <path d="M 57.6 41.472 
L 414.72 41.472 
" style="fill: none; stroke: #000000; stroke-width: 0.8; stroke-linejoin: miter; stroke-linecap: square"/>
   </g>
   <g id="legend_1">
    <g id="patch_105">
     <path d="M 303.973125 64.150125 
L 407.72 64.150125 
Q 409.72 64.150125 409.72 62.150125 
L 409.72 48.472 
Q 409.72 46.472 407.72 46.472 
L 303.973125 46.472 
Q 301.973125 46.472 301.973125 48.472 
L 301.973125 62.150125 
Q 301.973125 64.150125 303.973125 64.150125 
z
" style="fill: #ffffff; opacity: 0.8; stroke: #cccccc; stroke-linejoin: miter"/>
    </g>
    <g id="patch_106">
     <path d="M 305.973125 58.070438 
L 325.973125 58.070438 
L 325.973125 51.070438 
L 305.973125 51.070438 
z
" style="fill: #1f77b4; opacity: 0.5"/>
    </g>
    <g id="text_18">
     <!-- AC, ER, Starch -->
     <g transform="translate(333.973125 58.070438) scale(0.1 -0.1)">
      <defs>
       <path id="DejaVuSans-41" d="M 2188 4044 
L 1331 1722 
L 3047 1722 
L 2188 4044 
z
M 1831 4666 
L 2547 4666 
L 4325 0 
L 3669 0 
L 3244 1197 
L 1141 1197 
L 716 0 
L 50 0 
L 1831 4666 
z
" transform="scale(0.015625)"/>
       <path id="DejaVuSans-43" d="M 4122 4306 
L 4122 3641 
Q 3803 3938 3442 4084 
Q 3081 4231 2675 4231 
Q 1875 4231 1450 3742 
Q 1025 3253 1025 2328 
Q 1025 1406 1450 917 
Q 1875 428 2675 428 
Q 3081 428 3442 575 
Q 3803 722 4122 1019 
L 4122 359 
Q 3791 134 3420 21 
Q 3050 -91 2638 -91 
Q 1578 -91 968 557 
Q 359 1206 359 2328 
Q 359 3453 968 4101 
Q 1578 4750 2638 4750 
Q 3056 4750 3426 4639 
Q 3797 4528 4122 4306 
z
" transform="scale(0.015625)"/>
       <path id="DejaVuSans-2c" d="M 750 794 
L 1409 794 
L 1409 256 
L 897 -744 
L 494 -744 
L 750 256 
L 750 794 
z
" transform="scale(0.015625)"/>
       <path id="DejaVuSans-45" d="M 628 4666 
L 3578 4666 
L 3578 4134 
L 1259 4134 
L 1259 2753 
L 3481 2753 
L 3481 2222 
L 1259 2222 
L 1259 531 
L 3634 531 
L 3634 0 
L 628 0 
L 628 4666 
z
" transform="scale(0.015625)"/>
       <path id="DejaVuSans-52" d="M 2841 2188 
Q 3044 2119 3236 1894 
Q 3428 1669 3622 1275 
L 4263 0 
L 3584 0 
L 2988 1197 
Q 2756 1666 2539 1819 
Q 2322 1972 1947 1972 
L 1259 1972 
L 1259 0 
L 628 0 
L 628 4666 
L 2053 4666 
Q 2853 4666 3247 4331 
Q 3641 3997 3641 3322 
Q 3641 2881 3436 2590 
Q 3231 2300 2841 2188 
z
M 1259 4147 
L 1259 2491 
L 2053 2491 
Q 2509 2491 2742 2702 
Q 2975 2913 2975 3322 
Q 2975 3731 2742 3939 
Q 2509 4147 2053 4147 
L 1259 4147 
z
" transform="scale(0.015625)"/>
       <path id="DejaVuSans-63" d="M 3122 3366 
L 3122 2828 
Q 2878 2963 2633 3030 
Q 2388 3097 2138 3097 
Q 1578 3097 1268 2742 
Q 959 2388 959 1747 
Q 959 1106 1268 751 
Q 1578 397 2138 397 
Q 2388 397 2633 464 
Q 2878 531 3122 666 
L 3122 134 
Q 2881 22 2623 -34 
Q 2366 -91 2075 -91 
Q 1284 -91 818 406 
Q 353 903 353 1747 
Q 353 2603 823 3093 
Q 1294 3584 2113 3584 
Q 2378 3584 2631 3529 
Q 2884 3475 3122 3366 
z
" transform="scale(0.015625)"/>
       <path id="DejaVuSans-68" d="M 3513 2113 
L 3513 0 
L 2938 0 
L 2938 2094 
Q 2938 2591 2744 2837 
Q 2550 3084 2163 3084 
Q 1697 3084 1428 2787 
Q 1159 2491 1159 1978 
L 1159 0 
L 581 0 
L 581 4863 
L 1159 4863 
L 1159 2956 
Q 1366 3272 1645 3428 
Q 1925 3584 2291 3584 
Q 2894 3584 3203 3211 
Q 3513 2838 3513 2113 
z
" transform="scale(0.015625)"/>
      </defs>
      <use xlink:href="#DejaVuSans-41"/>
      <use xlink:href="#DejaVuSans-43" x="66.658203"/>
      <use xlink:href="#DejaVuSans-2c" x="136.482422"/>
      <use xlink:href="#DejaVuSans-20" x="168.269531"/>
      <use xlink:href="#DejaVuSans-45" x="200.056641"/>
      <use xlink:href="#DejaVuSans-52" x="263.240234"/>
      <use xlink:href="#DejaVuSans-2c" x="332.722656"/>
      <use xlink:href="#DejaVuSans-20" x="364.509766"/>
      <use xlink:href="#DejaVuSans-53" x="396.296875"/>
      <use xlink:href="#DejaVuSans-74" x="459.773438"/>
      <use xlink:href="#DejaVuSans-61" x="498.982422"/>
      <use xlink:href="#DejaVuSans-72" x="560.261719"/>
      <use xlink:href="#DejaVuSans-63" x="599.125"/>
      <use xlink:href="#DejaVuSans-68" x="654.105469"/>
     </g>
    </g>
   </g>
  </g>
 </g>
 <defs>
  <clipPath id="p5961fa26a0">
   <rect x="57.6" y="41.472" width="357.12" height="266.112"/>
  </clipPath>
 </defs>
</svg>
