<?xml version="1.0" encoding="utf-8" standalone="no"?>
<!DOCTYPE svg PUBLIC "-//W3C//DTD SVG 1.1//EN"
  "http://www.w3.org/Graphics/SVG/1.1/DTD/svg11.dtd">
<svg xmlns:xlink="http://www.w3.org/1999/xlink" width="144pt" height="216pt" viewBox="0 0 144 216" xmlns="http://www.w3.org/2000/svg" version="1.1">
 <metadata>
  <rdf:RDF xmlns:dc="http://purl.org/dc/elements/1.1/" xmlns:cc="http://creativecommons.org/ns#" xmlns:rdf="http://www.w3.org/1999/02/22-rdf-syntax-ns#">
   <cc:Work>
    <dc:type rdf:resource="http://purl.org/dc/dcmitype/StillImage"/>
    <dc:date>2024-11-04T13:12:31.545092</dc:date>
    <dc:format>image/svg+xml</dc:format>
    <dc:creator>
     <cc:Agent>
      <dc:title>Matplotlib v3.7.1, https://matplotlib.org/</dc:title>
     </cc:Agent>
    </dc:creator>
   </cc:Work>
  </rdf:RDF>
 </metadata>
 <defs>
  <style type="text/css">*{stroke-linejoin: round; stroke-linecap: butt}</style>
 </defs>
 <g id="figure_1">
  <g id="patch_1">
   <path d="M 0 216 
L 144 216 
L 144 0 
L 0 0 
z
" style="fill: #ffffff"/>
  </g>
  <g id="axes_1">
   <g id="patch_2">
    <path d="M 18 192.24 
L 129.6 192.24 
L 129.6 25.92 
L 18 25.92 
z
" style="fill: #ffffff"/>
   </g>
   <g id="line2d_1">
    <path d="M 23.072727 153.953787 
L 124.527273 111.425932 
" clip-path="url(#p72ae06eb6d)" style="fill: none; stroke: #0000ff; stroke-width: 1.5; stroke-linecap: square"/>
   </g>
   <g id="line2d_2">
    <path d="M 23.072727 79.781611 
L 124.527273 72.017452 
" clip-path="url(#p72ae06eb6d)" style="fill: none; stroke: #ff0000; stroke-width: 1.5; stroke-linecap: square"/>
   </g>
   <g id="line2d_3">
    <path d="M 23.072727 178.449113 
L 124.527273 171.859782 
" clip-path="url(#p72ae06eb6d)" style="fill: none; stroke: #00ff00; stroke-width: 1.5; stroke-linecap: square"/>
   </g>
   <g id="line2d_4">
    <path d="M 23.072727 92.162376 
L 124.527273 62.650363 
" clip-path="url(#p72ae06eb6d)" style="fill: none; stroke: #ff1ab9; stroke-width: 1.5; stroke-linecap: square"/>
   </g>
   <g id="line2d_5">
    <path d="M 23.072727 127.907777 
L 124.527273 108.099081 
" clip-path="url(#p72ae06eb6d)" style="fill: none; stroke: #ffd300; stroke-width: 1.5; stroke-linecap: square"/>
   </g>
   <g id="line2d_6">
    <path d="M 23.072727 85.693204 
L 124.527273 93.432665 
" clip-path="url(#p72ae06eb6d)" style="fill: none; stroke: #005800; stroke-width: 1.5; stroke-linecap: square"/>
   </g>
   <g id="line2d_7">
    <path d="M 23.072727 143.693114 
L 124.527273 113.200777 
" clip-path="url(#p72ae06eb6d)" style="fill: none; stroke: #8484ff; stroke-width: 1.5; stroke-linecap: square"/>
   </g>
   <g id="line2d_8">
    <path d="M 23.072727 145.766344 
L 124.527273 139.067639 
" clip-path="url(#p72ae06eb6d)" style="fill: none; stroke: #9e4f46; stroke-width: 1.5; stroke-linecap: square"/>
   </g>
   <g id="line2d_9">
    <path d="M 23.072727 131.911066 
L 124.527273 108.762072 
" clip-path="url(#p72ae06eb6d)" style="fill: none; stroke: #00ffc1; stroke-width: 1.5; stroke-linecap: square"/>
   </g>
   <g id="line2d_10">
    <path d="M 23.072727 171.559587 
L 124.527273 172.642831 
" clip-path="url(#p72ae06eb6d)" style="fill: none; stroke: #008495; stroke-width: 1.5; stroke-linecap: square"/>
   </g>
   <g id="line2d_11">
    <path d="M 23.072727 139.88839 
L 124.527273 104.830059 
" clip-path="url(#p72ae06eb6d)" style="fill: none; stroke: #00007b; stroke-width: 1.5; stroke-linecap: square"/>
   </g>
   <g id="line2d_12">
    <path d="M 23.072727 148.558594 
L 124.527273 108.312651 
" clip-path="url(#p72ae06eb6d)" style="fill: none; stroke: #95d34f; stroke-width: 1.5; stroke-linecap: square"/>
   </g>
   <g id="line2d_13">
    <path d="M 23.072727 103.689794 
L 124.527273 73.901516 
" clip-path="url(#p72ae06eb6d)" style="fill: none; stroke: #f69edc; stroke-width: 1.5; stroke-linecap: square"/>
   </g>
   <g id="line2d_14">
    <path d="M 23.072727 119.738272 
L 124.527273 103.097084 
" clip-path="url(#p72ae06eb6d)" style="fill: none; stroke: #d312ff; stroke-width: 1.5; stroke-linecap: square"/>
   </g>
   <g id="line2d_15">
    <path d="M 23.072727 143.690228 
L 124.527273 145.996473 
" clip-path="url(#p72ae06eb6d)" style="fill: none; stroke: #7b1a6a; stroke-width: 1.5; stroke-linecap: square"/>
   </g>
   <g id="PathCollection_1">
    <defs>
     <path id="me456808013" d="M 0 2.5 
C 0.663008 2.5 1.29895 2.236584 1.767767 1.767767 
C 2.236584 1.29895 2.5 0.663008 2.5 0 
C 2.5 -0.663008 2.236584 -1.29895 1.767767 -1.767767 
C 1.29895 -2.236584 0.663008 -2.5 0 -2.5 
C -0.663008 -2.5 -1.29895 -2.236584 -1.767767 -1.767767 
C -2.236584 -1.29895 -2.5 -0.663008 -2.5 0 
C -2.5 0.663008 -2.236584 1.29895 -1.767767 1.767767 
C -1.29895 2.236584 -0.663008 2.5 0 2.5 
z
" style="stroke: #0000ff"/>
    </defs>
    <g clip-path="url(#p72ae06eb6d)">
     <use xlink:href="#me456808013" x="23.072727" y="153.953787" style="fill: #0000ff; stroke: #0000ff"/>
     <use xlink:href="#me456808013" x="124.527273" y="111.425932" style="fill: #0000ff; stroke: #0000ff"/>
    </g>
   </g>
   <g id="PathCollection_2">
    <defs>
     <path id="m0e3c539369" d="M 0 2.5 
C 0.663008 2.5 1.29895 2.236584 1.767767 1.767767 
C 2.236584 1.29895 2.5 0.663008 2.5 0 
C 2.5 -0.663008 2.236584 -1.29895 1.767767 -1.767767 
C 1.29895 -2.236584 0.663008 -2.5 0 -2.5 
C -0.663008 -2.5 -1.29895 -2.236584 -1.767767 -1.767767 
C -2.236584 -1.29895 -2.5 -0.663008 -2.5 0 
C -2.5 0.663008 -2.236584 1.29895 -1.767767 1.767767 
C -1.29895 2.236584 -0.663008 2.5 0 2.5 
z
" style="stroke: #ff0000"/>
    </defs>
    <g clip-path="url(#p72ae06eb6d)">
     <use xlink:href="#m0e3c539369" x="23.072727" y="79.781611" style="fill: #ff0000; stroke: #ff0000"/>
     <use xlink:href="#m0e3c539369" x="124.527273" y="72.017452" style="fill: #ff0000; stroke: #ff0000"/>
    </g>
   </g>
   <g id="PathCollection_3">
    <defs>
     <path id="m019ae69e93" d="M 0 2.5 
C 0.663008 2.5 1.29895 2.236584 1.767767 1.767767 
C 2.236584 1.29895 2.5 0.663008 2.5 0 
C 2.5 -0.663008 2.236584 -1.29895 1.767767 -1.767767 
C 1.29895 -2.236584 0.663008 -2.5 0 -2.5 
C -0.663008 -2.5 -1.29895 -2.236584 -1.767767 -1.767767 
C -2.236584 -1.29895 -2.5 -0.663008 -2.5 0 
C -2.5 0.663008 -2.236584 1.29895 -1.767767 1.767767 
C -1.29895 2.236584 -0.663008 2.5 0 2.5 
z
" style="stroke: #00ff00"/>
    </defs>
    <g clip-path="url(#p72ae06eb6d)">
     <use xlink:href="#m019ae69e93" x="23.072727" y="178.449113" style="fill: #00ff00; stroke: #00ff00"/>
     <use xlink:href="#m019ae69e93" x="124.527273" y="171.859782" style="fill: #00ff00; stroke: #00ff00"/>
    </g>
   </g>
   <g id="PathCollection_4">
    <defs>
     <path id="mba6bf1ea1f" d="M 0 2.5 
C 0.663008 2.5 1.29895 2.236584 1.767767 1.767767 
C 2.236584 1.29895 2.5 0.663008 2.5 0 
C 2.5 -0.663008 2.236584 -1.29895 1.767767 -1.767767 
C 1.29895 -2.236584 0.663008 -2.5 0 -2.5 
C -0.663008 -2.5 -1.29895 -2.236584 -1.767767 -1.767767 
C -2.236584 -1.29895 -2.5 -0.663008 -2.5 0 
C -2.5 0.663008 -2.236584 1.29895 -1.767767 1.767767 
C -1.29895 2.236584 -0.663008 2.5 0 2.5 
z
" style="stroke: #ff1ab9"/>
    </defs>
    <g clip-path="url(#p72ae06eb6d)">
     <use xlink:href="#mba6bf1ea1f" x="23.072727" y="92.162376" style="fill: #ff1ab9; stroke: #ff1ab9"/>
     <use xlink:href="#mba6bf1ea1f" x="124.527273" y="62.650363" style="fill: #ff1ab9; stroke: #ff1ab9"/>
    </g>
   </g>
   <g id="PathCollection_5">
    <defs>
     <path id="m3a39a63fa0" d="M 0 2.5 
C 0.663008 2.5 1.29895 2.236584 1.767767 1.767767 
C 2.236584 1.29895 2.5 0.663008 2.5 0 
C 2.5 -0.663008 2.236584 -1.29895 1.767767 -1.767767 
C 1.29895 -2.236584 0.663008 -2.5 0 -2.5 
C -0.663008 -2.5 -1.29895 -2.236584 -1.767767 -1.767767 
C -2.236584 -1.29895 -2.5 -0.663008 -2.5 0 
C -2.5 0.663008 -2.236584 1.29895 -1.767767 1.767767 
C -1.29895 2.236584 -0.663008 2.5 0 2.5 
z
" style="stroke: #ffd300"/>
    </defs>
    <g clip-path="url(#p72ae06eb6d)">
     <use xlink:href="#m3a39a63fa0" x="23.072727" y="127.907777" style="fill: #ffd300; stroke: #ffd300"/>
     <use xlink:href="#m3a39a63fa0" x="124.527273" y="108.099081" style="fill: #ffd300; stroke: #ffd300"/>
    </g>
   </g>
   <g id="PathCollection_6">
    <defs>
     <path id="meec3835aa2" d="M 0 2.5 
C 0.663008 2.5 1.29895 2.236584 1.767767 1.767767 
C 2.236584 1.29895 2.5 0.663008 2.5 0 
C 2.5 -0.663008 2.236584 -1.29895 1.767767 -1.767767 
C 1.29895 -2.236584 0.663008 -2.5 0 -2.5 
C -0.663008 -2.5 -1.29895 -2.236584 -1.767767 -1.767767 
C -2.236584 -1.29895 -2.5 -0.663008 -2.5 0 
C -2.5 0.663008 -2.236584 1.29895 -1.767767 1.767767 
C -1.29895 2.236584 -0.663008 2.5 0 2.5 
z
" style="stroke: #005800"/>
    </defs>
    <g clip-path="url(#p72ae06eb6d)">
     <use xlink:href="#meec3835aa2" x="23.072727" y="85.693204" style="fill: #005800; stroke: #005800"/>
     <use xlink:href="#meec3835aa2" x="124.527273" y="93.432665" style="fill: #005800; stroke: #005800"/>
    </g>
   </g>
   <g id="PathCollection_7">
    <defs>
     <path id="m9a2e42e5b1" d="M 0 2.5 
C 0.663008 2.5 1.29895 2.236584 1.767767 1.767767 
C 2.236584 1.29895 2.5 0.663008 2.5 0 
C 2.5 -0.663008 2.236584 -1.29895 1.767767 -1.767767 
C 1.29895 -2.236584 0.663008 -2.5 0 -2.5 
C -0.663008 -2.5 -1.29895 -2.236584 -1.767767 -1.767767 
C -2.236584 -1.29895 -2.5 -0.663008 -2.5 0 
C -2.5 0.663008 -2.236584 1.29895 -1.767767 1.767767 
C -1.29895 2.236584 -0.663008 2.5 0 2.5 
z
" style="stroke: #8484ff"/>
    </defs>
    <g clip-path="url(#p72ae06eb6d)">
     <use xlink:href="#m9a2e42e5b1" x="23.072727" y="143.693114" style="fill: #8484ff; stroke: #8484ff"/>
     <use xlink:href="#m9a2e42e5b1" x="124.527273" y="113.200777" style="fill: #8484ff; stroke: #8484ff"/>
    </g>
   </g>
   <g id="PathCollection_8">
    <defs>
     <path id="m18977a50a0" d="M 0 2.5 
C 0.663008 2.5 1.29895 2.236584 1.767767 1.767767 
C 2.236584 1.29895 2.5 0.663008 2.5 0 
C 2.5 -0.663008 2.236584 -1.29895 1.767767 -1.767767 
C 1.29895 -2.236584 0.663008 -2.5 0 -2.5 
C -0.663008 -2.5 -1.29895 -2.236584 -1.767767 -1.767767 
C -2.236584 -1.29895 -2.5 -0.663008 -2.5 0 
C -2.5 0.663008 -2.236584 1.29895 -1.767767 1.767767 
C -1.29895 2.236584 -0.663008 2.5 0 2.5 
z
" style="stroke: #9e4f46"/>
    </defs>
    <g clip-path="url(#p72ae06eb6d)">
     <use xlink:href="#m18977a50a0" x="23.072727" y="145.766344" style="fill: #9e4f46; stroke: #9e4f46"/>
     <use xlink:href="#m18977a50a0" x="124.527273" y="139.067639" style="fill: #9e4f46; stroke: #9e4f46"/>
    </g>
   </g>
   <g id="PathCollection_9">
    <defs>
     <path id="m9db243e989" d="M 0 2.5 
C 0.663008 2.5 1.29895 2.236584 1.767767 1.767767 
C 2.236584 1.29895 2.5 0.663008 2.5 0 
C 2.5 -0.663008 2.236584 -1.29895 1.767767 -1.767767 
C 1.29895 -2.236584 0.663008 -2.5 0 -2.5 
C -0.663008 -2.5 -1.29895 -2.236584 -1.767767 -1.767767 
C -2.236584 -1.29895 -2.5 -0.663008 -2.5 0 
C -2.5 0.663008 -2.236584 1.29895 -1.767767 1.767767 
C -1.29895 2.236584 -0.663008 2.5 0 2.5 
z
" style="stroke: #00ffc1"/>
    </defs>
    <g clip-path="url(#p72ae06eb6d)">
     <use xlink:href="#m9db243e989" x="23.072727" y="131.911066" style="fill: #00ffc1; stroke: #00ffc1"/>
     <use xlink:href="#m9db243e989" x="124.527273" y="108.762072" style="fill: #00ffc1; stroke: #00ffc1"/>
    </g>
   </g>
   <g id="PathCollection_10">
    <defs>
     <path id="mac85a234b7" d="M 0 2.5 
C 0.663008 2.5 1.29895 2.236584 1.767767 1.767767 
C 2.236584 1.29895 2.5 0.663008 2.5 0 
C 2.5 -0.663008 2.236584 -1.29895 1.767767 -1.767767 
C 1.29895 -2.236584 0.663008 -2.5 0 -2.5 
C -0.663008 -2.5 -1.29895 -2.236584 -1.767767 -1.767767 
C -2.236584 -1.29895 -2.5 -0.663008 -2.5 0 
C -2.5 0.663008 -2.236584 1.29895 -1.767767 1.767767 
C -1.29895 2.236584 -0.663008 2.5 0 2.5 
z
" style="stroke: #008495"/>
    </defs>
    <g clip-path="url(#p72ae06eb6d)">
     <use xlink:href="#mac85a234b7" x="23.072727" y="171.559587" style="fill: #008495; stroke: #008495"/>
     <use xlink:href="#mac85a234b7" x="124.527273" y="172.642831" style="fill: #008495; stroke: #008495"/>
    </g>
   </g>
   <g id="PathCollection_11">
    <defs>
     <path id="m40eed445ca" d="M 0 2.5 
C 0.663008 2.5 1.29895 2.236584 1.767767 1.767767 
C 2.236584 1.29895 2.5 0.663008 2.5 0 
C 2.5 -0.663008 2.236584 -1.29895 1.767767 -1.767767 
C 1.29895 -2.236584 0.663008 -2.5 0 -2.5 
C -0.663008 -2.5 -1.29895 -2.236584 -1.767767 -1.767767 
C -2.236584 -1.29895 -2.5 -0.663008 -2.5 0 
C -2.5 0.663008 -2.236584 1.29895 -1.767767 1.767767 
C -1.29895 2.236584 -0.663008 2.5 0 2.5 
z
" style="stroke: #00007b"/>
    </defs>
    <g clip-path="url(#p72ae06eb6d)">
     <use xlink:href="#m40eed445ca" x="23.072727" y="139.88839" style="fill: #00007b; stroke: #00007b"/>
     <use xlink:href="#m40eed445ca" x="124.527273" y="104.830059" style="fill: #00007b; stroke: #00007b"/>
    </g>
   </g>
   <g id="PathCollection_12">
    <defs>
     <path id="m68a98d3c2a" d="M 0 2.5 
C 0.663008 2.5 1.29895 2.236584 1.767767 1.767767 
C 2.236584 1.29895 2.5 0.663008 2.5 0 
C 2.5 -0.663008 2.236584 -1.29895 1.767767 -1.767767 
C 1.29895 -2.236584 0.663008 -2.5 0 -2.5 
C -0.663008 -2.5 -1.29895 -2.236584 -1.767767 -1.767767 
C -2.236584 -1.29895 -2.5 -0.663008 -2.5 0 
C -2.5 0.663008 -2.236584 1.29895 -1.767767 1.767767 
C -1.29895 2.236584 -0.663008 2.5 0 2.5 
z
" style="stroke: #95d34f"/>
    </defs>
    <g clip-path="url(#p72ae06eb6d)">
     <use xlink:href="#m68a98d3c2a" x="23.072727" y="148.558594" style="fill: #95d34f; stroke: #95d34f"/>
     <use xlink:href="#m68a98d3c2a" x="124.527273" y="108.312651" style="fill: #95d34f; stroke: #95d34f"/>
    </g>
   </g>
   <g id="PathCollection_13">
    <defs>
     <path id="me98ac95961" d="M 0 2.5 
C 0.663008 2.5 1.29895 2.236584 1.767767 1.767767 
C 2.236584 1.29895 2.5 0.663008 2.5 0 
C 2.5 -0.663008 2.236584 -1.29895 1.767767 -1.767767 
C 1.29895 -2.236584 0.663008 -2.5 0 -2.5 
C -0.663008 -2.5 -1.29895 -2.236584 -1.767767 -1.767767 
C -2.236584 -1.29895 -2.5 -0.663008 -2.5 0 
C -2.5 0.663008 -2.236584 1.29895 -1.767767 1.767767 
C -1.29895 2.236584 -0.663008 2.5 0 2.5 
z
" style="stroke: #f69edc"/>
    </defs>
    <g clip-path="url(#p72ae06eb6d)">
     <use xlink:href="#me98ac95961" x="23.072727" y="103.689794" style="fill: #f69edc; stroke: #f69edc"/>
     <use xlink:href="#me98ac95961" x="124.527273" y="73.901516" style="fill: #f69edc; stroke: #f69edc"/>
    </g>
   </g>
   <g id="PathCollection_14">
    <defs>
     <path id="m8db9249ffa" d="M 0 2.5 
C 0.663008 2.5 1.29895 2.236584 1.767767 1.767767 
C 2.236584 1.29895 2.5 0.663008 2.5 0 
C 2.5 -0.663008 2.236584 -1.29895 1.767767 -1.767767 
C 1.29895 -2.236584 0.663008 -2.5 0 -2.5 
C -0.663008 -2.5 -1.29895 -2.236584 -1.767767 -1.767767 
C -2.236584 -1.29895 -2.5 -0.663008 -2.5 0 
C -2.5 0.663008 -2.236584 1.29895 -1.767767 1.767767 
C -1.29895 2.236584 -0.663008 2.5 0 2.5 
z
" style="stroke: #d312ff"/>
    </defs>
    <g clip-path="url(#p72ae06eb6d)">
     <use xlink:href="#m8db9249ffa" x="23.072727" y="119.738272" style="fill: #d312ff; stroke: #d312ff"/>
     <use xlink:href="#m8db9249ffa" x="124.527273" y="103.097084" style="fill: #d312ff; stroke: #d312ff"/>
    </g>
   </g>
   <g id="PathCollection_15">
    <defs>
     <path id="m3cf9cb1281" d="M 0 2.5 
C 0.663008 2.5 1.29895 2.236584 1.767767 1.767767 
C 2.236584 1.29895 2.5 0.663008 2.5 0 
C 2.5 -0.663008 2.236584 -1.29895 1.767767 -1.767767 
C 1.29895 -2.236584 0.663008 -2.5 0 -2.5 
C -0.663008 -2.5 -1.29895 -2.236584 -1.767767 -1.767767 
C -2.236584 -1.29895 -2.5 -0.663008 -2.5 0 
C -2.5 0.663008 -2.236584 1.29895 -1.767767 1.767767 
C -1.29895 2.236584 -0.663008 2.5 0 2.5 
z
" style="stroke: #7b1a6a"/>
    </defs>
    <g clip-path="url(#p72ae06eb6d)">
     <use xlink:href="#m3cf9cb1281" x="23.072727" y="143.690228" style="fill: #7b1a6a; stroke: #7b1a6a"/>
     <use xlink:href="#m3cf9cb1281" x="124.527273" y="145.996473" style="fill: #7b1a6a; stroke: #7b1a6a"/>
    </g>
   </g>
   <g id="matplotlib.axis_1">
    <g id="xtick_1">
     <g id="line2d_16">
      <path d="M 23.072727 192.24 
L 23.072727 25.92 
" clip-path="url(#p72ae06eb6d)" style="fill: none; stroke: #b0b0b0; stroke-opacity: 0.3; stroke-width: 0.5; stroke-linecap: square"/>
     </g>
     <g id="line2d_17">
      <defs>
       <path id="mf236e87197" d="M 0 0 
L 0 -3 
" style="stroke: #000000; stroke-width: 0.5"/>
      </defs>
      <g>
       <use xlink:href="#mf236e87197" x="23.072727" y="192.24" style="stroke: #000000; stroke-width: 0.5"/>
      </g>
     </g>
     <g id="text_1">
      <text style="font: 7px 'DejaVu Sans', 'Bitstream Vera Sans', 'Computer Modern Sans Serif', 'Lucida Grande', 'Verdana', 'Geneva', 'Lucid', 'Arial', 'Helvetica', 'Avant Garde', sans-serif; text-anchor: middle" x="23.072727" y="201.058906" transform="rotate(-0 23.072727 201.058906)">LR</text>
     </g>
    </g>
    <g id="xtick_2">
     <g id="line2d_18">
      <path d="M 124.527273 192.24 
L 124.527273 25.92 
" clip-path="url(#p72ae06eb6d)" style="fill: none; stroke: #b0b0b0; stroke-opacity: 0.3; stroke-width: 0.5; stroke-linecap: square"/>
     </g>
     <g id="line2d_19">
      <g>
       <use xlink:href="#mf236e87197" x="124.527273" y="192.24" style="stroke: #000000; stroke-width: 0.5"/>
      </g>
     </g>
     <g id="text_2">
      <text style="font: 7px 'DejaVu Sans', 'Bitstream Vera Sans', 'Computer Modern Sans Serif', 'Lucida Grande', 'Verdana', 'Geneva', 'Lucid', 'Arial', 'Helvetica', 'Avant Garde', sans-serif; text-anchor: middle" x="124.527273" y="201.058906" transform="rotate(-0 124.527273 201.058906)">MiRNN</text>
     </g>
    </g>
   </g>
   <g id="matplotlib.axis_2">
    <g id="ytick_1">
     <g id="line2d_20">
      <path d="M 18 192.24 
L 129.6 192.24 
" clip-path="url(#p72ae06eb6d)" style="fill: none; stroke: #b0b0b0; stroke-opacity: 0.3; stroke-width: 0.5; stroke-linecap: square"/>
     </g>
     <g id="line2d_21">
      <defs>
       <path id="m448b75833d" d="M 0 0 
L 3 0 
" style="stroke: #000000; stroke-width: 0.5"/>
      </defs>
      <g>
       <use xlink:href="#m448b75833d" x="18" y="192.24" style="stroke: #000000; stroke-width: 0.5"/>
      </g>
     </g>
     <g id="text_3">
      <text style="font: 7px 'DejaVu Sans', 'Bitstream Vera Sans', 'Computer Modern Sans Serif', 'Lucida Grande', 'Verdana', 'Geneva', 'Lucid', 'Arial', 'Helvetica', 'Avant Garde', sans-serif; text-anchor: end" x="14.5" y="194.899453" transform="rotate(-0 14.5 194.899453)">0.4</text>
     </g>
    </g>
    <g id="ytick_2">
     <g id="line2d_22">
      <path d="M 18 158.976 
L 129.6 158.976 
" clip-path="url(#p72ae06eb6d)" style="fill: none; stroke: #b0b0b0; stroke-opacity: 0.3; stroke-width: 0.5; stroke-linecap: square"/>
     </g>
     <g id="line2d_23">
      <g>
       <use xlink:href="#m448b75833d" x="18" y="158.976" style="stroke: #000000; stroke-width: 0.5"/>
      </g>
     </g>
     <g id="text_4">
      <text style="font: 7px 'DejaVu Sans', 'Bitstream Vera Sans', 'Computer Modern Sans Serif', 'Lucida Grande', 'Verdana', 'Geneva', 'Lucid', 'Arial', 'Helvetica', 'Avant Garde', sans-serif; text-anchor: end" x="14.5" y="161.635453" transform="rotate(-0 14.5 161.635453)">0.5</text>
     </g>
    </g>
    <g id="ytick_3">
     <g id="line2d_24">
      <path d="M 18 125.712 
L 129.6 125.712 
" clip-path="url(#p72ae06eb6d)" style="fill: none; stroke: #b0b0b0; stroke-opacity: 0.3; stroke-width: 0.5; stroke-linecap: square"/>
     </g>
     <g id="line2d_25">
      <g>
       <use xlink:href="#m448b75833d" x="18" y="125.712" style="stroke: #000000; stroke-width: 0.5"/>
      </g>
     </g>
     <g id="text_5">
      <text style="font: 7px 'DejaVu Sans', 'Bitstream Vera Sans', 'Computer Modern Sans Serif', 'Lucida Grande', 'Verdana', 'Geneva', 'Lucid', 'Arial', 'Helvetica', 'Avant Garde', sans-serif; text-anchor: end" x="14.5" y="128.371453" transform="rotate(-0 14.5 128.371453)">0.6</text>
     </g>
    </g>
    <g id="ytick_4">
     <g id="line2d_26">
      <path d="M 18 92.448 
L 129.6 92.448 
" clip-path="url(#p72ae06eb6d)" style="fill: none; stroke: #b0b0b0; stroke-opacity: 0.3; stroke-width: 0.5; stroke-linecap: square"/>
     </g>
     <g id="line2d_27">
      <g>
       <use xlink:href="#m448b75833d" x="18" y="92.448" style="stroke: #000000; stroke-width: 0.5"/>
      </g>
     </g>
     <g id="text_6">
      <text style="font: 7px 'DejaVu Sans', 'Bitstream Vera Sans', 'Computer Modern Sans Serif', 'Lucida Grande', 'Verdana', 'Geneva', 'Lucid', 'Arial', 'Helvetica', 'Avant Garde', sans-serif; text-anchor: end" x="14.5" y="95.107453" transform="rotate(-0 14.5 95.107453)">0.7</text>
     </g>
    </g>
    <g id="ytick_5">
     <g id="line2d_28">
      <path d="M 18 59.184 
L 129.6 59.184 
" clip-path="url(#p72ae06eb6d)" style="fill: none; stroke: #b0b0b0; stroke-opacity: 0.3; stroke-width: 0.5; stroke-linecap: square"/>
     </g>
     <g id="line2d_29">
      <g>
       <use xlink:href="#m448b75833d" x="18" y="59.184" style="stroke: #000000; stroke-width: 0.5"/>
      </g>
     </g>
     <g id="text_7">
      <text style="font: 7px 'DejaVu Sans', 'Bitstream Vera Sans', 'Computer Modern Sans Serif', 'Lucida Grande', 'Verdana', 'Geneva', 'Lucid', 'Arial', 'Helvetica', 'Avant Garde', sans-serif; text-anchor: end" x="14.5" y="61.843453" transform="rotate(-0 14.5 61.843453)">0.8</text>
     </g>
    </g>
    <g id="ytick_6">
     <g id="line2d_30">
      <path d="M 18 25.92 
L 129.6 25.92 
" clip-path="url(#p72ae06eb6d)" style="fill: none; stroke: #b0b0b0; stroke-opacity: 0.3; stroke-width: 0.5; stroke-linecap: square"/>
     </g>
     <g id="line2d_31">
      <g>
       <use xlink:href="#m448b75833d" x="18" y="25.92" style="stroke: #000000; stroke-width: 0.5"/>
      </g>
     </g>
     <g id="text_8">
      <text style="font: 7px 'DejaVu Sans', 'Bitstream Vera Sans', 'Computer Modern Sans Serif', 'Lucida Grande', 'Verdana', 'Geneva', 'Lucid', 'Arial', 'Helvetica', 'Avant Garde', sans-serif; text-anchor: end" x="14.5" y="28.579453" transform="rotate(-0 14.5 28.579453)">0.9</text>
     </g>
    </g>
    <g id="text_9">
     <text style="font: 7px 'DejaVu Sans', 'Bitstream Vera Sans', 'Computer Modern Sans Serif', 'Lucida Grande', 'Verdana', 'Geneva', 'Lucid', 'Arial', 'Helvetica', 'Avant Garde', sans-serif; text-anchor: middle" x="-2.087969" y="109.08" transform="rotate(-90 -2.087969 109.08)">Pearson correlation</text>
    </g>
   </g>
   <g id="patch_3">
    <path d="M 18 192.24 
L 18 25.92 
" style="fill: none; stroke: #000000; stroke-width: 0.5; stroke-linejoin: miter; stroke-linecap: square"/>
   </g>
   <g id="patch_4">
    <path d="M 129.6 192.24 
L 129.6 25.92 
" style="fill: none; stroke: #000000; stroke-width: 0.5; stroke-linejoin: miter; stroke-linecap: square"/>
   </g>
   <g id="patch_5">
    <path d="M 18 192.24 
L 129.6 192.24 
" style="fill: none; stroke: #000000; stroke-width: 0.5; stroke-linejoin: miter; stroke-linecap: square"/>
   </g>
   <g id="patch_6">
    <path d="M 18 25.92 
L 129.6 25.92 
" style="fill: none; stroke: #000000; stroke-width: 0.5; stroke-linejoin: miter; stroke-linecap: square"/>
   </g>
   <g id="legend_1">
    <g id="patch_7">
     <path d="M 134.5 125.542031 
L 273.340625 125.542031 
Q 274.740625 125.542031 274.740625 124.142031 
L 274.740625 94.017969 
Q 274.740625 92.617969 273.340625 92.617969 
L 134.5 92.617969 
Q 133.1 92.617969 133.1 94.017969 
L 133.1 124.142031 
Q 133.1 125.542031 134.5 125.542031 
z
" style="fill: #ffffff; opacity: 0.8; stroke: #cccccc; stroke-linejoin: miter"/>
    </g>
    <g id="PathCollection_16">
     <g>
      <use xlink:href="#me456808013" x="142.9" y="98.899375" style="fill: #0000ff; stroke: #0000ff"/>
     </g>
    </g>
    <g id="text_10">
     <text style="font: 7px 'DejaVu Sans', 'Bitstream Vera Sans', 'Computer Modern Sans Serif', 'Lucida Grande', 'Verdana', 'Geneva', 'Lucid', 'Arial', 'Helvetica', 'Avant Garde', sans-serif; text-anchor: start" x="150.6" y="100.736875" transform="rotate(-0 150.6 100.736875)">AC</text>
    </g>
    <g id="PathCollection_17">
     <g>
      <use xlink:href="#m0e3c539369" x="142.9" y="109.174062" style="fill: #ff0000; stroke: #ff0000"/>
     </g>
    </g>
    <g id="text_11">
     <text style="font: 7px 'DejaVu Sans', 'Bitstream Vera Sans', 'Computer Modern Sans Serif', 'Lucida Grande', 'Verdana', 'Geneva', 'Lucid', 'Arial', 'Helvetica', 'Avant Garde', sans-serif; text-anchor: start" x="150.6" y="111.011562" transform="rotate(-0 150.6 111.011562)">BA</text>
    </g>
    <g id="PathCollection_18">
     <g>
      <use xlink:href="#m019ae69e93" x="142.9" y="119.44875" style="fill: #00ff00; stroke: #00ff00"/>
     </g>
    </g>
    <g id="text_12">
     <text style="font: 7px 'DejaVu Sans', 'Bitstream Vera Sans', 'Computer Modern Sans Serif', 'Lucida Grande', 'Verdana', 'Geneva', 'Lucid', 'Arial', 'Helvetica', 'Avant Garde', sans-serif; text-anchor: start" x="150.6" y="121.28625" transform="rotate(-0 150.6 121.28625)">BH</text>
    </g>
    <g id="PathCollection_19">
     <g>
      <use xlink:href="#mba6bf1ea1f" x="171.166875" y="98.899375" style="fill: #ff1ab9; stroke: #ff1ab9"/>
     </g>
    </g>
    <g id="text_13">
     <text style="font: 7px 'DejaVu Sans', 'Bitstream Vera Sans', 'Computer Modern Sans Serif', 'Lucida Grande', 'Verdana', 'Geneva', 'Lucid', 'Arial', 'Helvetica', 'Avant Garde', sans-serif; text-anchor: start" x="178.866875" y="100.736875" transform="rotate(-0 178.866875 100.736875)">BL</text>
    </g>
    <g id="PathCollection_20">
     <g>
      <use xlink:href="#m3a39a63fa0" x="171.166875" y="109.174062" style="fill: #ffd300; stroke: #ffd300"/>
     </g>
    </g>
    <g id="text_14">
     <text style="font: 7px 'DejaVu Sans', 'Bitstream Vera Sans', 'Computer Modern Sans Serif', 'Lucida Grande', 'Verdana', 'Geneva', 'Lucid', 'Arial', 'Helvetica', 'Avant Garde', sans-serif; text-anchor: start" x="178.866875" y="111.011562" transform="rotate(-0 178.866875 111.011562)">BU</text>
    </g>
    <g id="PathCollection_21">
     <g>
      <use xlink:href="#meec3835aa2" x="171.166875" y="119.44875" style="fill: #005800; stroke: #005800"/>
     </g>
    </g>
    <g id="text_15">
     <text style="font: 7px 'DejaVu Sans', 'Bitstream Vera Sans', 'Computer Modern Sans Serif', 'Lucida Grande', 'Verdana', 'Geneva', 'Lucid', 'Arial', 'Helvetica', 'Avant Garde', sans-serif; text-anchor: start" x="178.866875" y="121.28625" transform="rotate(-0 178.866875 121.28625)">CA</text>
    </g>
    <g id="PathCollection_22">
     <g>
      <use xlink:href="#m9a2e42e5b1" x="199.292656" y="98.899375" style="fill: #8484ff; stroke: #8484ff"/>
     </g>
    </g>
    <g id="text_16">
     <text style="font: 7px 'DejaVu Sans', 'Bitstream Vera Sans', 'Computer Modern Sans Serif', 'Lucida Grande', 'Verdana', 'Geneva', 'Lucid', 'Arial', 'Helvetica', 'Avant Garde', sans-serif; text-anchor: start" x="206.992656" y="100.736875" transform="rotate(-0 206.992656 100.736875)">CC</text>
    </g>
    <g id="PathCollection_23">
     <g>
      <use xlink:href="#m18977a50a0" x="199.292656" y="109.174062" style="fill: #9e4f46; stroke: #9e4f46"/>
     </g>
    </g>
    <g id="text_17">
     <text style="font: 7px 'DejaVu Sans', 'Bitstream Vera Sans', 'Computer Modern Sans Serif', 'Lucida Grande', 'Verdana', 'Geneva', 'Lucid', 'Arial', 'Helvetica', 'Avant Garde', sans-serif; text-anchor: start" x="206.992656" y="111.011562" transform="rotate(-0 206.992656 111.011562)">CH</text>
    </g>
    <g id="PathCollection_24">
     <g>
      <use xlink:href="#m9db243e989" x="199.292656" y="119.44875" style="fill: #00ffc1; stroke: #00ffc1"/>
     </g>
    </g>
    <g id="text_18">
     <text style="font: 7px 'DejaVu Sans', 'Bitstream Vera Sans', 'Computer Modern Sans Serif', 'Lucida Grande', 'Verdana', 'Geneva', 'Lucid', 'Arial', 'Helvetica', 'Avant Garde', sans-serif; text-anchor: start" x="206.992656" y="121.28625" transform="rotate(-0 206.992656 121.28625)">DF</text>
    </g>
    <g id="PathCollection_25">
     <g>
      <use xlink:href="#mac85a234b7" x="227.644844" y="98.899375" style="fill: #008495; stroke: #008495"/>
     </g>
    </g>
    <g id="text_19">
     <text style="font: 7px 'DejaVu Sans', 'Bitstream Vera Sans', 'Computer Modern Sans Serif', 'Lucida Grande', 'Verdana', 'Geneva', 'Lucid', 'Arial', 'Helvetica', 'Avant Garde', sans-serif; text-anchor: start" x="235.344844" y="100.736875" transform="rotate(-0 235.344844 100.736875)">EL</text>
    </g>
    <g id="PathCollection_26">
     <g>
      <use xlink:href="#m40eed445ca" x="227.644844" y="109.174062" style="fill: #00007b; stroke: #00007b"/>
     </g>
    </g>
    <g id="text_20">
     <text style="font: 7px 'DejaVu Sans', 'Bitstream Vera Sans', 'Computer Modern Sans Serif', 'Lucida Grande', 'Verdana', 'Geneva', 'Lucid', 'Arial', 'Helvetica', 'Avant Garde', sans-serif; text-anchor: start" x="235.344844" y="111.011562" transform="rotate(-0 235.344844 111.011562)">ER</text>
    </g>
    <g id="PathCollection_27">
     <g>
      <use xlink:href="#m68a98d3c2a" x="227.644844" y="119.44875" style="fill: #95d34f; stroke: #95d34f"/>
     </g>
    </g>
    <g id="text_21">
     <text style="font: 7px 'DejaVu Sans', 'Bitstream Vera Sans', 'Computer Modern Sans Serif', 'Lucida Grande', 'Verdana', 'Geneva', 'Lucid', 'Arial', 'Helvetica', 'Avant Garde', sans-serif; text-anchor: start" x="235.344844" y="121.28625" transform="rotate(-0 235.344844 121.28625)">FP</text>
    </g>
    <g id="PathCollection_28">
     <g>
      <use xlink:href="#me98ac95961" x="255.131875" y="98.899375" style="fill: #f69edc; stroke: #f69edc"/>
     </g>
    </g>
    <g id="text_22">
     <text style="font: 7px 'DejaVu Sans', 'Bitstream Vera Sans', 'Computer Modern Sans Serif', 'Lucida Grande', 'Verdana', 'Geneva', 'Lucid', 'Arial', 'Helvetica', 'Avant Garde', sans-serif; text-anchor: start" x="262.831875" y="100.736875" transform="rotate(-0 262.831875 100.736875)">PC</text>
    </g>
    <g id="PathCollection_29">
     <g>
      <use xlink:href="#m8db9249ffa" x="255.131875" y="109.174062" style="fill: #d312ff; stroke: #d312ff"/>
     </g>
    </g>
    <g id="text_23">
     <text style="font: 7px 'DejaVu Sans', 'Bitstream Vera Sans', 'Computer Modern Sans Serif', 'Lucida Grande', 'Verdana', 'Geneva', 'Lucid', 'Arial', 'Helvetica', 'Avant Garde', sans-serif; text-anchor: start" x="262.831875" y="111.011562" transform="rotate(-0 262.831875 111.011562)">PJ</text>
    </g>
    <g id="PathCollection_30">
     <g>
      <use xlink:href="#m3cf9cb1281" x="255.131875" y="119.44875" style="fill: #7b1a6a; stroke: #7b1a6a"/>
     </g>
    </g>
    <g id="text_24">
     <text style="font: 7px 'DejaVu Sans', 'Bitstream Vera Sans', 'Computer Modern Sans Serif', 'Lucida Grande', 'Verdana', 'Geneva', 'Lucid', 'Arial', 'Helvetica', 'Avant Garde', sans-serif; text-anchor: start" x="262.831875" y="121.28625" transform="rotate(-0 262.831875 121.28625)">RI</text>
    </g>
   </g>
  </g>
 </g>
 <defs>
  <clipPath id="p72ae06eb6d">
   <rect x="18" y="25.92" width="111.6" height="166.32"/>
  </clipPath>
 </defs>
</svg>
