<?xml version="1.0" encoding="utf-8" standalone="no"?>
<!DOCTYPE svg PUBLIC "-//W3C//DTD SVG 1.1//EN"
  "http://www.w3.org/Graphics/SVG/1.1/DTD/svg11.dtd">
<svg xmlns:xlink="http://www.w3.org/1999/xlink" width="144pt" height="216pt" viewBox="0 0 144 216" xmlns="http://www.w3.org/2000/svg" version="1.1">
 <metadata>
  <rdf:RDF xmlns:dc="http://purl.org/dc/elements/1.1/" xmlns:cc="http://creativecommons.org/ns#" xmlns:rdf="http://www.w3.org/1999/02/22-rdf-syntax-ns#">
   <cc:Work>
    <dc:type rdf:resource="http://purl.org/dc/dcmitype/StillImage"/>
    <dc:date>2025-01-24T18:07:11.916009</dc:date>
    <dc:format>image/svg+xml</dc:format>
    <dc:creator>
     <cc:Agent>
      <dc:title>Matplotlib v3.5.2, https://matplotlib.org/</dc:title>
     </cc:Agent>
    </dc:creator>
   </cc:Work>
  </rdf:RDF>
 </metadata>
 <defs>
  <style type="text/css">*{stroke-linejoin: round; stroke-linecap: butt}</style>
 </defs>
 <g id="figure_1">
  <g id="patch_1">
   <path d="M 0 216 
L 144 216 
L 144 0 
L 0 0 
z
" style="fill: #ffffff"/>
  </g>
  <g id="axes_1">
   <g id="patch_2">
    <path d="M 18 192.24 
L 129.6 192.24 
L 129.6 25.92 
L 18 25.92 
z
" style="fill: #ffffff"/>
   </g>
   <g id="PathCollection_1">
    <defs>
     <path id="m29b5d073b2" d="M 0 2.5 
C 0.663008 2.5 1.29895 2.236584 1.767767 1.767767 
C 2.236584 1.29895 2.5 0.663008 2.5 0 
C 2.5 -0.663008 2.236584 -1.29895 1.767767 -1.767767 
C 1.29895 -2.236584 0.663008 -2.5 0 -2.5 
C -0.663008 -2.5 -1.29895 -2.236584 -1.767767 -1.767767 
C -2.236584 -1.29895 -2.5 -0.663008 -2.5 0 
C -2.5 0.663008 -2.236584 1.29895 -1.767767 1.767767 
C -1.29895 2.236584 -0.663008 2.5 0 2.5 
z
" style="stroke: #1f77b4"/>
    </defs>
    <g clip-path="url(#pcd366f7e51)">
     <use xlink:href="#m29b5d073b2" x="23.072727" y="85.154465" style="fill: #1f77b4; stroke: #1f77b4"/>
     <use xlink:href="#m29b5d073b2" x="73.8" y="66.865495" style="fill: #1f77b4; stroke: #1f77b4"/>
     <use xlink:href="#m29b5d073b2" x="124.527273" y="53.139356" style="fill: #1f77b4; stroke: #1f77b4"/>
    </g>
   </g>
   <g id="PathCollection_2">
    <defs>
     <path id="mefcd6f1e84" d="M 0 2.5 
C 0.663008 2.5 1.29895 2.236584 1.767767 1.767767 
C 2.236584 1.29895 2.5 0.663008 2.5 0 
C 2.5 -0.663008 2.236584 -1.29895 1.767767 -1.767767 
C 1.29895 -2.236584 0.663008 -2.5 0 -2.5 
C -0.663008 -2.5 -1.29895 -2.236584 -1.767767 -1.767767 
C -2.236584 -1.29895 -2.5 -0.663008 -2.5 0 
C -2.5 0.663008 -2.236584 1.29895 -1.767767 1.767767 
C -1.29895 2.236584 -0.663008 2.5 0 2.5 
z
" style="stroke: #ff7f0e"/>
    </defs>
    <g clip-path="url(#pcd366f7e51)">
     <use xlink:href="#mefcd6f1e84" x="23.072727" y="124.110594" style="fill: #ff7f0e; stroke: #ff7f0e"/>
     <use xlink:href="#mefcd6f1e84" x="73.8" y="107.970858" style="fill: #ff7f0e; stroke: #ff7f0e"/>
     <use xlink:href="#mefcd6f1e84" x="124.527273" y="83.135567" style="fill: #ff7f0e; stroke: #ff7f0e"/>
    </g>
   </g>
   <g id="PathCollection_3">
    <defs>
     <path id="me80d26414b" d="M 0 2.5 
C 0.663008 2.5 1.29895 2.236584 1.767767 1.767767 
C 2.236584 1.29895 2.5 0.663008 2.5 0 
C 2.5 -0.663008 2.236584 -1.29895 1.767767 -1.767767 
C 1.29895 -2.236584 0.663008 -2.5 0 -2.5 
C -0.663008 -2.5 -1.29895 -2.236584 -1.767767 -1.767767 
C -2.236584 -1.29895 -2.5 -0.663008 -2.5 0 
C -2.5 0.663008 -2.236584 1.29895 -1.767767 1.767767 
C -1.29895 2.236584 -0.663008 2.5 0 2.5 
z
" style="stroke: #2ca02c"/>
    </defs>
    <g clip-path="url(#pcd366f7e51)">
     <use xlink:href="#me80d26414b" x="23.072727" y="74.515964" style="fill: #2ca02c; stroke: #2ca02c"/>
     <use xlink:href="#me80d26414b" x="73.8" y="62.215179" style="fill: #2ca02c; stroke: #2ca02c"/>
     <use xlink:href="#me80d26414b" x="124.527273" y="56.763017" style="fill: #2ca02c; stroke: #2ca02c"/>
    </g>
   </g>
   <g id="matplotlib.axis_1">
    <g id="xtick_1">
     <g id="line2d_1">
      <path d="M 23.072727 192.24 
L 23.072727 25.92 
" clip-path="url(#pcd366f7e51)" style="fill: none; stroke: #b0b0b0; stroke-opacity: 0.3; stroke-width: 0.5; stroke-linecap: square"/>
     </g>
     <g id="line2d_2">
      <defs>
       <path id="mffd47fd55e" d="M 0 0 
L 0 -3 
" style="stroke: #000000; stroke-width: 0.5"/>
      </defs>
      <g>
       <use xlink:href="#mffd47fd55e" x="23.072727" y="192.24" style="stroke: #000000; stroke-width: 0.5"/>
      </g>
     </g>
     <g id="text_1">
      <text style="font: 7px 'sans-serif'; text-anchor: middle" x="23.072727" y="201.058906" transform="rotate(-0, 23.072727, 201.058906)">1</text>
     </g>
    </g>
    <g id="xtick_2">
     <g id="line2d_3">
      <path d="M 73.8 192.24 
L 73.8 25.92 
" clip-path="url(#pcd366f7e51)" style="fill: none; stroke: #b0b0b0; stroke-opacity: 0.3; stroke-width: 0.5; stroke-linecap: square"/>
     </g>
     <g id="line2d_4">
      <g>
       <use xlink:href="#mffd47fd55e" x="73.8" y="192.24" style="stroke: #000000; stroke-width: 0.5"/>
      </g>
     </g>
     <g id="text_2">
      <text style="font: 7px 'sans-serif'; text-anchor: middle" x="73.8" y="201.058906" transform="rotate(-0, 73.8, 201.058906)">2</text>
     </g>
    </g>
    <g id="xtick_3">
     <g id="line2d_5">
      <path d="M 124.527273 192.24 
L 124.527273 25.92 
" clip-path="url(#pcd366f7e51)" style="fill: none; stroke: #b0b0b0; stroke-opacity: 0.3; stroke-width: 0.5; stroke-linecap: square"/>
     </g>
     <g id="line2d_6">
      <g>
       <use xlink:href="#mffd47fd55e" x="124.527273" y="192.24" style="stroke: #000000; stroke-width: 0.5"/>
      </g>
     </g>
     <g id="text_3">
      <text style="font: 7px 'sans-serif'; text-anchor: middle" x="124.527273" y="201.058906" transform="rotate(-0, 124.527273, 201.058906)">3</text>
     </g>
    </g>
    <g id="text_4">
     <text style="font: 7px 'sans-serif'; text-anchor: middle" x="73.8" y="211.833594" transform="rotate(-0, 73.8, 211.833594)">DTL cycle</text>
    </g>
   </g>
   <g id="matplotlib.axis_2">
    <g id="ytick_1">
     <g id="line2d_7">
      <path d="M 18 192.24 
L 129.6 192.24 
" clip-path="url(#pcd366f7e51)" style="fill: none; stroke: #b0b0b0; stroke-opacity: 0.3; stroke-width: 0.5; stroke-linecap: square"/>
     </g>
     <g id="line2d_8">
      <defs>
       <path id="m40682f1e21" d="M 0 0 
L 3 0 
" style="stroke: #000000; stroke-width: 0.5"/>
      </defs>
      <g>
       <use xlink:href="#m40682f1e21" x="18" y="192.24" style="stroke: #000000; stroke-width: 0.5"/>
      </g>
     </g>
     <g id="text_5">
      <text style="font: 7px 'sans-serif'; text-anchor: end" x="14.5" y="194.899453" transform="rotate(-0, 14.5, 194.899453)">0.0</text>
     </g>
    </g>
    <g id="ytick_2">
     <g id="line2d_9">
      <path d="M 18 158.976 
L 129.6 158.976 
" clip-path="url(#pcd366f7e51)" style="fill: none; stroke: #b0b0b0; stroke-opacity: 0.3; stroke-width: 0.5; stroke-linecap: square"/>
     </g>
     <g id="line2d_10">
      <g>
       <use xlink:href="#m40682f1e21" x="18" y="158.976" style="stroke: #000000; stroke-width: 0.5"/>
      </g>
     </g>
     <g id="text_6">
      <text style="font: 7px 'sans-serif'; text-anchor: end" x="14.5" y="161.635453" transform="rotate(-0, 14.5, 161.635453)">0.2</text>
     </g>
    </g>
    <g id="ytick_3">
     <g id="line2d_11">
      <path d="M 18 125.712 
L 129.6 125.712 
" clip-path="url(#pcd366f7e51)" style="fill: none; stroke: #b0b0b0; stroke-opacity: 0.3; stroke-width: 0.5; stroke-linecap: square"/>
     </g>
     <g id="line2d_12">
      <g>
       <use xlink:href="#m40682f1e21" x="18" y="125.712" style="stroke: #000000; stroke-width: 0.5"/>
      </g>
     </g>
     <g id="text_7">
      <text style="font: 7px 'sans-serif'; text-anchor: end" x="14.5" y="128.371453" transform="rotate(-0, 14.5, 128.371453)">0.4</text>
     </g>
    </g>
    <g id="ytick_4">
     <g id="line2d_13">
      <path d="M 18 92.448 
L 129.6 92.448 
" clip-path="url(#pcd366f7e51)" style="fill: none; stroke: #b0b0b0; stroke-opacity: 0.3; stroke-width: 0.5; stroke-linecap: square"/>
     </g>
     <g id="line2d_14">
      <g>
       <use xlink:href="#m40682f1e21" x="18" y="92.448" style="stroke: #000000; stroke-width: 0.5"/>
      </g>
     </g>
     <g id="text_8">
      <text style="font: 7px 'sans-serif'; text-anchor: end" x="14.5" y="95.107453" transform="rotate(-0, 14.5, 95.107453)">0.6</text>
     </g>
    </g>
    <g id="ytick_5">
     <g id="line2d_15">
      <path d="M 18 59.184 
L 129.6 59.184 
" clip-path="url(#pcd366f7e51)" style="fill: none; stroke: #b0b0b0; stroke-opacity: 0.3; stroke-width: 0.5; stroke-linecap: square"/>
     </g>
     <g id="line2d_16">
      <g>
       <use xlink:href="#m40682f1e21" x="18" y="59.184" style="stroke: #000000; stroke-width: 0.5"/>
      </g>
     </g>
     <g id="text_9">
      <text style="font: 7px 'sans-serif'; text-anchor: end" x="14.5" y="61.843453" transform="rotate(-0, 14.5, 61.843453)">0.8</text>
     </g>
    </g>
    <g id="ytick_6">
     <g id="line2d_17">
      <path d="M 18 25.92 
L 129.6 25.92 
" clip-path="url(#pcd366f7e51)" style="fill: none; stroke: #b0b0b0; stroke-opacity: 0.3; stroke-width: 0.5; stroke-linecap: square"/>
     </g>
     <g id="line2d_18">
      <g>
       <use xlink:href="#m40682f1e21" x="18" y="25.92" style="stroke: #000000; stroke-width: 0.5"/>
      </g>
     </g>
     <g id="text_10">
      <text style="font: 7px 'sans-serif'; text-anchor: end" x="14.5" y="28.579453" transform="rotate(-0, 14.5, 28.579453)">1.0</text>
     </g>
    </g>
    <g id="text_11">
     <text style="font: 7px 'sans-serif'; text-anchor: middle" x="-2.087969" y="109.08" transform="rotate(-90, -2.087969, 109.08)">Pearson correlation</text>
    </g>
   </g>
   <g id="line2d_19">
    <path d="M 23.072727 85.154465 
L 73.8 66.865495 
L 124.527273 53.139356 
" clip-path="url(#pcd366f7e51)" style="fill: none; stroke: #1f77b4; stroke-width: 1.5; stroke-linecap: square"/>
   </g>
   <g id="line2d_20">
    <path d="M 23.072727 124.110594 
L 73.8 107.970858 
L 124.527273 83.135567 
" clip-path="url(#pcd366f7e51)" style="fill: none; stroke: #ff7f0e; stroke-width: 1.5; stroke-linecap: square"/>
   </g>
   <g id="line2d_21">
    <path d="M 23.072727 74.515964 
L 73.8 62.215179 
L 124.527273 56.763017 
" clip-path="url(#pcd366f7e51)" style="fill: none; stroke: #2ca02c; stroke-width: 1.5; stroke-linecap: square"/>
   </g>
   <g id="patch_3">
    <path d="M 18 192.24 
L 18 25.92 
" style="fill: none; stroke: #000000; stroke-width: 0.5; stroke-linejoin: miter; stroke-linecap: square"/>
   </g>
   <g id="patch_4">
    <path d="M 129.6 192.24 
L 129.6 25.92 
" style="fill: none; stroke: #000000; stroke-width: 0.5; stroke-linejoin: miter; stroke-linecap: square"/>
   </g>
   <g id="patch_5">
    <path d="M 18 192.24 
L 129.6 192.24 
" style="fill: none; stroke: #000000; stroke-width: 0.5; stroke-linejoin: miter; stroke-linecap: square"/>
   </g>
   <g id="patch_6">
    <path d="M 18 25.92 
L 129.6 25.92 
" style="fill: none; stroke: #000000; stroke-width: 0.5; stroke-linejoin: miter; stroke-linecap: square"/>
   </g>
   <g id="legend_1">
    <g id="patch_7">
     <path d="M 134.5 125.542031 
L 187.245 125.542031 
Q 188.645 125.542031 188.645 124.142031 
L 188.645 94.017969 
Q 188.645 92.617969 187.245 92.617969 
L 134.5 92.617969 
Q 133.1 92.617969 133.1 94.017969 
L 133.1 124.142031 
Q 133.1 125.542031 134.5 125.542031 
z
" style="fill: #ffffff; opacity: 0.8; stroke: #cccccc; stroke-linejoin: miter"/>
    </g>
    <g id="PathCollection_4">
     <g>
      <use xlink:href="#m29b5d073b2" x="142.9" y="98.899375" style="fill: #1f77b4; stroke: #1f77b4"/>
     </g>
    </g>
    <g id="text_12">
     <text style="font: 7px 'sans-serif'; text-anchor: start" x="155.5" y="100.736875" transform="rotate(-0, 155.5, 100.736875)">Butyrate</text>
    </g>
    <g id="PathCollection_5">
     <g>
      <use xlink:href="#mefcd6f1e84" x="142.9" y="109.174062" style="fill: #ff7f0e; stroke: #ff7f0e"/>
     </g>
    </g>
    <g id="text_13">
     <text style="font: 7px 'sans-serif'; text-anchor: start" x="155.5" y="111.011562" transform="rotate(-0, 155.5, 111.011562)">Acetate</text>
    </g>
    <g id="PathCollection_6">
     <g>
      <use xlink:href="#me80d26414b" x="142.9" y="119.44875" style="fill: #2ca02c; stroke: #2ca02c"/>
     </g>
    </g>
    <g id="text_14">
     <text style="font: 7px 'sans-serif'; text-anchor: start" x="155.5" y="121.28625" transform="rotate(-0, 155.5, 121.28625)">Lactate</text>
    </g>
   </g>
  </g>
 </g>
 <defs>
  <clipPath id="pcd366f7e51">
   <rect x="18" y="25.92" width="111.6" height="166.32"/>
  </clipPath>
 </defs>
</svg>
