<?xml version="1.0" encoding="utf-8" standalone="no"?>
<!DOCTYPE svg PUBLIC "-//W3C//DTD SVG 1.1//EN"
  "http://www.w3.org/Graphics/SVG/1.1/DTD/svg11.dtd">
<svg xmlns:xlink="http://www.w3.org/1999/xlink" width="194.4pt" height="216pt" viewBox="0 0 194.4 216" xmlns="http://www.w3.org/2000/svg" version="1.1">
 <metadata>
  <rdf:RDF xmlns:dc="http://purl.org/dc/elements/1.1/" xmlns:cc="http://creativecommons.org/ns#" xmlns:rdf="http://www.w3.org/1999/02/22-rdf-syntax-ns#">
   <cc:Work>
    <dc:type rdf:resource="http://purl.org/dc/dcmitype/StillImage"/>
    <dc:date>2024-11-05T11:02:12.983327</dc:date>
    <dc:format>image/svg+xml</dc:format>
    <dc:creator>
     <cc:Agent>
      <dc:title>Matplotlib v3.7.1, https://matplotlib.org/</dc:title>
     </cc:Agent>
    </dc:creator>
   </cc:Work>
  </rdf:RDF>
 </metadata>
 <defs>
  <style type="text/css">*{stroke-linejoin: round; stroke-linecap: butt}</style>
 </defs>
 <g id="figure_1">
  <g id="patch_1">
   <path d="M 0 216 
L 194.4 216 
L 194.4 0 
L 0 0 
z
" style="fill: #ffffff"/>
  </g>
  <g id="axes_1">
   <g id="patch_2">
    <path d="M 24.3 192.24 
L 174.96 192.24 
L 174.96 25.92 
L 24.3 25.92 
z
" style="fill: #ffffff"/>
   </g>
   <g id="line2d_1">
    <path d="M 31.148182 174.291738 
L 76.802727 133.622366 
L 122.457273 117.524923 
L 168.111818 90.39711 
" clip-path="url(#pa616f574f9)" style="fill: none; stroke: #0000ff; stroke-width: 1.5; stroke-linecap: square"/>
   </g>
   <g id="line2d_2">
    <path d="M 31.148182 100.878319 
L 76.802727 93.004441 
L 122.457273 83.979795 
L 168.111818 71.631167 
" clip-path="url(#pa616f574f9)" style="fill: none; stroke: #ff0000; stroke-width: 1.5; stroke-linecap: square"/>
   </g>
   <g id="line2d_3">
    <path d="M 31.148182 169.060529 
L 76.802727 153.100554 
L 122.457273 126.153468 
L 168.111818 119.175134 
" clip-path="url(#pa616f574f9)" style="fill: none; stroke: #00ff00; stroke-width: 1.5; stroke-linecap: square"/>
   </g>
   <g id="line2d_4">
    <path d="M 31.148182 96.158811 
L 76.802727 148.8518 
L 122.457273 114.722576 
L 168.111818 67.170649 
" clip-path="url(#pa616f574f9)" style="fill: none; stroke: #ff1ab9; stroke-width: 1.5; stroke-linecap: square"/>
   </g>
   <g id="line2d_5">
    <path d="M 31.148182 211.119904 
L 76.802727 130.077637 
L 122.457273 108.639205 
L 168.111818 88.812896 
" clip-path="url(#pa616f574f9)" style="fill: none; stroke: #ffd300; stroke-width: 1.5; stroke-linecap: square"/>
   </g>
   <g id="line2d_6">
    <path d="M 31.148182 152.561523 
L 76.802727 173.146846 
L 122.457273 111.395104 
L 168.111818 81.828888 
" clip-path="url(#pa616f574f9)" style="fill: none; stroke: #005800; stroke-width: 1.5; stroke-linecap: square"/>
   </g>
   <g id="line2d_7">
    <path d="M 31.148182 190.760867 
L 76.802727 127.698902 
L 122.457273 119.574 
L 168.111818 91.242275 
" clip-path="url(#pa616f574f9)" style="fill: none; stroke: #8484ff; stroke-width: 1.5; stroke-linecap: square"/>
   </g>
   <g id="line2d_8">
    <path d="M 31.148182 158.093055 
L 76.802727 129.127584 
L 122.457273 107.751438 
L 168.111818 103.559828 
" clip-path="url(#pa616f574f9)" style="fill: none; stroke: #9e4f46; stroke-width: 1.5; stroke-linecap: square"/>
   </g>
   <g id="line2d_9">
    <path d="M 31.148182 159.182258 
L 76.802727 119.118919 
L 122.457273 105.213884 
L 168.111818 89.128605 
" clip-path="url(#pa616f574f9)" style="fill: none; stroke: #00ffc1; stroke-width: 1.5; stroke-linecap: square"/>
   </g>
   <g id="line2d_10">
    <path d="M 31.148182 194.650888 
L 76.802727 146.727207 
L 122.457273 130.895935 
L 168.111818 119.548015 
" clip-path="url(#pa616f574f9)" style="fill: none; stroke: #008495; stroke-width: 1.5; stroke-linecap: square"/>
   </g>
   <g id="line2d_11">
    <path d="M 31.148182 134.924992 
L 76.802727 127.958804 
L 122.457273 106.293359 
L 168.111818 87.256219 
" clip-path="url(#pa616f574f9)" style="fill: none; stroke: #00007b; stroke-width: 1.5; stroke-linecap: square"/>
   </g>
   <g id="line2d_12">
    <path d="M 31.148182 165.135837 
L 76.802727 144.06091 
L 122.457273 123.274359 
L 168.111818 88.914596 
" clip-path="url(#pa616f574f9)" style="fill: none; stroke: #95d34f; stroke-width: 1.5; stroke-linecap: square"/>
   </g>
   <g id="line2d_13">
    <path d="M 31.148182 94.281059 
L 76.802727 84.112676 
L 122.457273 65.865848 
L 168.111818 72.528341 
" clip-path="url(#pa616f574f9)" style="fill: none; stroke: #f69edc; stroke-width: 1.5; stroke-linecap: square"/>
   </g>
   <g id="line2d_14">
    <path d="M 31.148182 116.704279 
L 76.802727 90.951313 
L 122.457273 93.257761 
L 168.111818 86.430992 
" clip-path="url(#pa616f574f9)" style="fill: none; stroke: #d312ff; stroke-width: 1.5; stroke-linecap: square"/>
   </g>
   <g id="line2d_15">
    <path d="M 31.148182 173.496417 
L 76.802727 141.158595 
L 122.457273 114.106468 
L 168.111818 106.859273 
" clip-path="url(#pa616f574f9)" style="fill: none; stroke: #7b1a6a; stroke-width: 1.5; stroke-linecap: square"/>
   </g>
   <g id="PathCollection_1">
    <defs>
     <path id="mfa1722492a" d="M 0 2.5 
C 0.663008 2.5 1.29895 2.236584 1.767767 1.767767 
C 2.236584 1.29895 2.5 0.663008 2.5 0 
C 2.5 -0.663008 2.236584 -1.29895 1.767767 -1.767767 
C 1.29895 -2.236584 0.663008 -2.5 0 -2.5 
C -0.663008 -2.5 -1.29895 -2.236584 -1.767767 -1.767767 
C -2.236584 -1.29895 -2.5 -0.663008 -2.5 0 
C -2.5 0.663008 -2.236584 1.29895 -1.767767 1.767767 
C -1.29895 2.236584 -0.663008 2.5 0 2.5 
z
" style="stroke: #0000ff"/>
    </defs>
    <g clip-path="url(#pa616f574f9)">
     <use xlink:href="#mfa1722492a" x="31.148182" y="174.291738" style="fill: #0000ff; stroke: #0000ff"/>
     <use xlink:href="#mfa1722492a" x="76.802727" y="133.622366" style="fill: #0000ff; stroke: #0000ff"/>
     <use xlink:href="#mfa1722492a" x="122.457273" y="117.524923" style="fill: #0000ff; stroke: #0000ff"/>
     <use xlink:href="#mfa1722492a" x="168.111818" y="90.39711" style="fill: #0000ff; stroke: #0000ff"/>
    </g>
   </g>
   <g id="PathCollection_2">
    <defs>
     <path id="mb0c0cdd67c" d="M 0 2.5 
C 0.663008 2.5 1.29895 2.236584 1.767767 1.767767 
C 2.236584 1.29895 2.5 0.663008 2.5 0 
C 2.5 -0.663008 2.236584 -1.29895 1.767767 -1.767767 
C 1.29895 -2.236584 0.663008 -2.5 0 -2.5 
C -0.663008 -2.5 -1.29895 -2.236584 -1.767767 -1.767767 
C -2.236584 -1.29895 -2.5 -0.663008 -2.5 0 
C -2.5 0.663008 -2.236584 1.29895 -1.767767 1.767767 
C -1.29895 2.236584 -0.663008 2.5 0 2.5 
z
" style="stroke: #ff0000"/>
    </defs>
    <g clip-path="url(#pa616f574f9)">
     <use xlink:href="#mb0c0cdd67c" x="31.148182" y="100.878319" style="fill: #ff0000; stroke: #ff0000"/>
     <use xlink:href="#mb0c0cdd67c" x="76.802727" y="93.004441" style="fill: #ff0000; stroke: #ff0000"/>
     <use xlink:href="#mb0c0cdd67c" x="122.457273" y="83.979795" style="fill: #ff0000; stroke: #ff0000"/>
     <use xlink:href="#mb0c0cdd67c" x="168.111818" y="71.631167" style="fill: #ff0000; stroke: #ff0000"/>
    </g>
   </g>
   <g id="PathCollection_3">
    <defs>
     <path id="ma3552a6e79" d="M 0 2.5 
C 0.663008 2.5 1.29895 2.236584 1.767767 1.767767 
C 2.236584 1.29895 2.5 0.663008 2.5 0 
C 2.5 -0.663008 2.236584 -1.29895 1.767767 -1.767767 
C 1.29895 -2.236584 0.663008 -2.5 0 -2.5 
C -0.663008 -2.5 -1.29895 -2.236584 -1.767767 -1.767767 
C -2.236584 -1.29895 -2.5 -0.663008 -2.5 0 
C -2.5 0.663008 -2.236584 1.29895 -1.767767 1.767767 
C -1.29895 2.236584 -0.663008 2.5 0 2.5 
z
" style="stroke: #00ff00"/>
    </defs>
    <g clip-path="url(#pa616f574f9)">
     <use xlink:href="#ma3552a6e79" x="31.148182" y="169.060529" style="fill: #00ff00; stroke: #00ff00"/>
     <use xlink:href="#ma3552a6e79" x="76.802727" y="153.100554" style="fill: #00ff00; stroke: #00ff00"/>
     <use xlink:href="#ma3552a6e79" x="122.457273" y="126.153468" style="fill: #00ff00; stroke: #00ff00"/>
     <use xlink:href="#ma3552a6e79" x="168.111818" y="119.175134" style="fill: #00ff00; stroke: #00ff00"/>
    </g>
   </g>
   <g id="PathCollection_4">
    <defs>
     <path id="m329d530696" d="M 0 2.5 
C 0.663008 2.5 1.29895 2.236584 1.767767 1.767767 
C 2.236584 1.29895 2.5 0.663008 2.5 0 
C 2.5 -0.663008 2.236584 -1.29895 1.767767 -1.767767 
C 1.29895 -2.236584 0.663008 -2.5 0 -2.5 
C -0.663008 -2.5 -1.29895 -2.236584 -1.767767 -1.767767 
C -2.236584 -1.29895 -2.5 -0.663008 -2.5 0 
C -2.5 0.663008 -2.236584 1.29895 -1.767767 1.767767 
C -1.29895 2.236584 -0.663008 2.5 0 2.5 
z
" style="stroke: #ff1ab9"/>
    </defs>
    <g clip-path="url(#pa616f574f9)">
     <use xlink:href="#m329d530696" x="31.148182" y="96.158811" style="fill: #ff1ab9; stroke: #ff1ab9"/>
     <use xlink:href="#m329d530696" x="76.802727" y="148.8518" style="fill: #ff1ab9; stroke: #ff1ab9"/>
     <use xlink:href="#m329d530696" x="122.457273" y="114.722576" style="fill: #ff1ab9; stroke: #ff1ab9"/>
     <use xlink:href="#m329d530696" x="168.111818" y="67.170649" style="fill: #ff1ab9; stroke: #ff1ab9"/>
    </g>
   </g>
   <g id="PathCollection_5">
    <defs>
     <path id="m47ecb4cd40" d="M 0 2.5 
C 0.663008 2.5 1.29895 2.236584 1.767767 1.767767 
C 2.236584 1.29895 2.5 0.663008 2.5 0 
C 2.5 -0.663008 2.236584 -1.29895 1.767767 -1.767767 
C 1.29895 -2.236584 0.663008 -2.5 0 -2.5 
C -0.663008 -2.5 -1.29895 -2.236584 -1.767767 -1.767767 
C -2.236584 -1.29895 -2.5 -0.663008 -2.5 0 
C -2.5 0.663008 -2.236584 1.29895 -1.767767 1.767767 
C -1.29895 2.236584 -0.663008 2.5 0 2.5 
z
" style="stroke: #ffd300"/>
    </defs>
    <g clip-path="url(#pa616f574f9)">
     <use xlink:href="#m47ecb4cd40" x="31.148182" y="211.119904" style="fill: #ffd300; stroke: #ffd300"/>
     <use xlink:href="#m47ecb4cd40" x="76.802727" y="130.077637" style="fill: #ffd300; stroke: #ffd300"/>
     <use xlink:href="#m47ecb4cd40" x="122.457273" y="108.639205" style="fill: #ffd300; stroke: #ffd300"/>
     <use xlink:href="#m47ecb4cd40" x="168.111818" y="88.812896" style="fill: #ffd300; stroke: #ffd300"/>
    </g>
   </g>
   <g id="PathCollection_6">
    <defs>
     <path id="mc8ec8c120c" d="M 0 2.5 
C 0.663008 2.5 1.29895 2.236584 1.767767 1.767767 
C 2.236584 1.29895 2.5 0.663008 2.5 0 
C 2.5 -0.663008 2.236584 -1.29895 1.767767 -1.767767 
C 1.29895 -2.236584 0.663008 -2.5 0 -2.5 
C -0.663008 -2.5 -1.29895 -2.236584 -1.767767 -1.767767 
C -2.236584 -1.29895 -2.5 -0.663008 -2.5 0 
C -2.5 0.663008 -2.236584 1.29895 -1.767767 1.767767 
C -1.29895 2.236584 -0.663008 2.5 0 2.5 
z
" style="stroke: #005800"/>
    </defs>
    <g clip-path="url(#pa616f574f9)">
     <use xlink:href="#mc8ec8c120c" x="31.148182" y="152.561523" style="fill: #005800; stroke: #005800"/>
     <use xlink:href="#mc8ec8c120c" x="76.802727" y="173.146846" style="fill: #005800; stroke: #005800"/>
     <use xlink:href="#mc8ec8c120c" x="122.457273" y="111.395104" style="fill: #005800; stroke: #005800"/>
     <use xlink:href="#mc8ec8c120c" x="168.111818" y="81.828888" style="fill: #005800; stroke: #005800"/>
    </g>
   </g>
   <g id="PathCollection_7">
    <defs>
     <path id="m2309fb84d4" d="M 0 2.5 
C 0.663008 2.5 1.29895 2.236584 1.767767 1.767767 
C 2.236584 1.29895 2.5 0.663008 2.5 0 
C 2.5 -0.663008 2.236584 -1.29895 1.767767 -1.767767 
C 1.29895 -2.236584 0.663008 -2.5 0 -2.5 
C -0.663008 -2.5 -1.29895 -2.236584 -1.767767 -1.767767 
C -2.236584 -1.29895 -2.5 -0.663008 -2.5 0 
C -2.5 0.663008 -2.236584 1.29895 -1.767767 1.767767 
C -1.29895 2.236584 -0.663008 2.5 0 2.5 
z
" style="stroke: #8484ff"/>
    </defs>
    <g clip-path="url(#pa616f574f9)">
     <use xlink:href="#m2309fb84d4" x="31.148182" y="190.760867" style="fill: #8484ff; stroke: #8484ff"/>
     <use xlink:href="#m2309fb84d4" x="76.802727" y="127.698902" style="fill: #8484ff; stroke: #8484ff"/>
     <use xlink:href="#m2309fb84d4" x="122.457273" y="119.574" style="fill: #8484ff; stroke: #8484ff"/>
     <use xlink:href="#m2309fb84d4" x="168.111818" y="91.242275" style="fill: #8484ff; stroke: #8484ff"/>
    </g>
   </g>
   <g id="PathCollection_8">
    <defs>
     <path id="m7434de57f4" d="M 0 2.5 
C 0.663008 2.5 1.29895 2.236584 1.767767 1.767767 
C 2.236584 1.29895 2.5 0.663008 2.5 0 
C 2.5 -0.663008 2.236584 -1.29895 1.767767 -1.767767 
C 1.29895 -2.236584 0.663008 -2.5 0 -2.5 
C -0.663008 -2.5 -1.29895 -2.236584 -1.767767 -1.767767 
C -2.236584 -1.29895 -2.5 -0.663008 -2.5 0 
C -2.5 0.663008 -2.236584 1.29895 -1.767767 1.767767 
C -1.29895 2.236584 -0.663008 2.5 0 2.5 
z
" style="stroke: #9e4f46"/>
    </defs>
    <g clip-path="url(#pa616f574f9)">
     <use xlink:href="#m7434de57f4" x="31.148182" y="158.093055" style="fill: #9e4f46; stroke: #9e4f46"/>
     <use xlink:href="#m7434de57f4" x="76.802727" y="129.127584" style="fill: #9e4f46; stroke: #9e4f46"/>
     <use xlink:href="#m7434de57f4" x="122.457273" y="107.751438" style="fill: #9e4f46; stroke: #9e4f46"/>
     <use xlink:href="#m7434de57f4" x="168.111818" y="103.559828" style="fill: #9e4f46; stroke: #9e4f46"/>
    </g>
   </g>
   <g id="PathCollection_9">
    <defs>
     <path id="m25351d6ce2" d="M 0 2.5 
C 0.663008 2.5 1.29895 2.236584 1.767767 1.767767 
C 2.236584 1.29895 2.5 0.663008 2.5 0 
C 2.5 -0.663008 2.236584 -1.29895 1.767767 -1.767767 
C 1.29895 -2.236584 0.663008 -2.5 0 -2.5 
C -0.663008 -2.5 -1.29895 -2.236584 -1.767767 -1.767767 
C -2.236584 -1.29895 -2.5 -0.663008 -2.5 0 
C -2.5 0.663008 -2.236584 1.29895 -1.767767 1.767767 
C -1.29895 2.236584 -0.663008 2.5 0 2.5 
z
" style="stroke: #00ffc1"/>
    </defs>
    <g clip-path="url(#pa616f574f9)">
     <use xlink:href="#m25351d6ce2" x="31.148182" y="159.182258" style="fill: #00ffc1; stroke: #00ffc1"/>
     <use xlink:href="#m25351d6ce2" x="76.802727" y="119.118919" style="fill: #00ffc1; stroke: #00ffc1"/>
     <use xlink:href="#m25351d6ce2" x="122.457273" y="105.213884" style="fill: #00ffc1; stroke: #00ffc1"/>
     <use xlink:href="#m25351d6ce2" x="168.111818" y="89.128605" style="fill: #00ffc1; stroke: #00ffc1"/>
    </g>
   </g>
   <g id="PathCollection_10">
    <defs>
     <path id="m891d2e25f4" d="M 0 2.5 
C 0.663008 2.5 1.29895 2.236584 1.767767 1.767767 
C 2.236584 1.29895 2.5 0.663008 2.5 0 
C 2.5 -0.663008 2.236584 -1.29895 1.767767 -1.767767 
C 1.29895 -2.236584 0.663008 -2.5 0 -2.5 
C -0.663008 -2.5 -1.29895 -2.236584 -1.767767 -1.767767 
C -2.236584 -1.29895 -2.5 -0.663008 -2.5 0 
C -2.5 0.663008 -2.236584 1.29895 -1.767767 1.767767 
C -1.29895 2.236584 -0.663008 2.5 0 2.5 
z
" style="stroke: #008495"/>
    </defs>
    <g clip-path="url(#pa616f574f9)">
     <use xlink:href="#m891d2e25f4" x="31.148182" y="194.650888" style="fill: #008495; stroke: #008495"/>
     <use xlink:href="#m891d2e25f4" x="76.802727" y="146.727207" style="fill: #008495; stroke: #008495"/>
     <use xlink:href="#m891d2e25f4" x="122.457273" y="130.895935" style="fill: #008495; stroke: #008495"/>
     <use xlink:href="#m891d2e25f4" x="168.111818" y="119.548015" style="fill: #008495; stroke: #008495"/>
    </g>
   </g>
   <g id="PathCollection_11">
    <defs>
     <path id="m418a4e4461" d="M 0 2.5 
C 0.663008 2.5 1.29895 2.236584 1.767767 1.767767 
C 2.236584 1.29895 2.5 0.663008 2.5 0 
C 2.5 -0.663008 2.236584 -1.29895 1.767767 -1.767767 
C 1.29895 -2.236584 0.663008 -2.5 0 -2.5 
C -0.663008 -2.5 -1.29895 -2.236584 -1.767767 -1.767767 
C -2.236584 -1.29895 -2.5 -0.663008 -2.5 0 
C -2.5 0.663008 -2.236584 1.29895 -1.767767 1.767767 
C -1.29895 2.236584 -0.663008 2.5 0 2.5 
z
" style="stroke: #00007b"/>
    </defs>
    <g clip-path="url(#pa616f574f9)">
     <use xlink:href="#m418a4e4461" x="31.148182" y="134.924992" style="fill: #00007b; stroke: #00007b"/>
     <use xlink:href="#m418a4e4461" x="76.802727" y="127.958804" style="fill: #00007b; stroke: #00007b"/>
     <use xlink:href="#m418a4e4461" x="122.457273" y="106.293359" style="fill: #00007b; stroke: #00007b"/>
     <use xlink:href="#m418a4e4461" x="168.111818" y="87.256219" style="fill: #00007b; stroke: #00007b"/>
    </g>
   </g>
   <g id="PathCollection_12">
    <defs>
     <path id="mb81624855e" d="M 0 2.5 
C 0.663008 2.5 1.29895 2.236584 1.767767 1.767767 
C 2.236584 1.29895 2.5 0.663008 2.5 0 
C 2.5 -0.663008 2.236584 -1.29895 1.767767 -1.767767 
C 1.29895 -2.236584 0.663008 -2.5 0 -2.5 
C -0.663008 -2.5 -1.29895 -2.236584 -1.767767 -1.767767 
C -2.236584 -1.29895 -2.5 -0.663008 -2.5 0 
C -2.5 0.663008 -2.236584 1.29895 -1.767767 1.767767 
C -1.29895 2.236584 -0.663008 2.5 0 2.5 
z
" style="stroke: #95d34f"/>
    </defs>
    <g clip-path="url(#pa616f574f9)">
     <use xlink:href="#mb81624855e" x="31.148182" y="165.135837" style="fill: #95d34f; stroke: #95d34f"/>
     <use xlink:href="#mb81624855e" x="76.802727" y="144.06091" style="fill: #95d34f; stroke: #95d34f"/>
     <use xlink:href="#mb81624855e" x="122.457273" y="123.274359" style="fill: #95d34f; stroke: #95d34f"/>
     <use xlink:href="#mb81624855e" x="168.111818" y="88.914596" style="fill: #95d34f; stroke: #95d34f"/>
    </g>
   </g>
   <g id="PathCollection_13">
    <defs>
     <path id="m782fd26c6b" d="M 0 2.5 
C 0.663008 2.5 1.29895 2.236584 1.767767 1.767767 
C 2.236584 1.29895 2.5 0.663008 2.5 0 
C 2.5 -0.663008 2.236584 -1.29895 1.767767 -1.767767 
C 1.29895 -2.236584 0.663008 -2.5 0 -2.5 
C -0.663008 -2.5 -1.29895 -2.236584 -1.767767 -1.767767 
C -2.236584 -1.29895 -2.5 -0.663008 -2.5 0 
C -2.5 0.663008 -2.236584 1.29895 -1.767767 1.767767 
C -1.29895 2.236584 -0.663008 2.5 0 2.5 
z
" style="stroke: #f69edc"/>
    </defs>
    <g clip-path="url(#pa616f574f9)">
     <use xlink:href="#m782fd26c6b" x="31.148182" y="94.281059" style="fill: #f69edc; stroke: #f69edc"/>
     <use xlink:href="#m782fd26c6b" x="76.802727" y="84.112676" style="fill: #f69edc; stroke: #f69edc"/>
     <use xlink:href="#m782fd26c6b" x="122.457273" y="65.865848" style="fill: #f69edc; stroke: #f69edc"/>
     <use xlink:href="#m782fd26c6b" x="168.111818" y="72.528341" style="fill: #f69edc; stroke: #f69edc"/>
    </g>
   </g>
   <g id="PathCollection_14">
    <defs>
     <path id="m0a6a7c3fff" d="M 0 2.5 
C 0.663008 2.5 1.29895 2.236584 1.767767 1.767767 
C 2.236584 1.29895 2.5 0.663008 2.5 0 
C 2.5 -0.663008 2.236584 -1.29895 1.767767 -1.767767 
C 1.29895 -2.236584 0.663008 -2.5 0 -2.5 
C -0.663008 -2.5 -1.29895 -2.236584 -1.767767 -1.767767 
C -2.236584 -1.29895 -2.5 -0.663008 -2.5 0 
C -2.5 0.663008 -2.236584 1.29895 -1.767767 1.767767 
C -1.29895 2.236584 -0.663008 2.5 0 2.5 
z
" style="stroke: #d312ff"/>
    </defs>
    <g clip-path="url(#pa616f574f9)">
     <use xlink:href="#m0a6a7c3fff" x="31.148182" y="116.704279" style="fill: #d312ff; stroke: #d312ff"/>
     <use xlink:href="#m0a6a7c3fff" x="76.802727" y="90.951313" style="fill: #d312ff; stroke: #d312ff"/>
     <use xlink:href="#m0a6a7c3fff" x="122.457273" y="93.257761" style="fill: #d312ff; stroke: #d312ff"/>
     <use xlink:href="#m0a6a7c3fff" x="168.111818" y="86.430992" style="fill: #d312ff; stroke: #d312ff"/>
    </g>
   </g>
   <g id="PathCollection_15">
    <defs>
     <path id="m0e520663cc" d="M 0 2.5 
C 0.663008 2.5 1.29895 2.236584 1.767767 1.767767 
C 2.236584 1.29895 2.5 0.663008 2.5 0 
C 2.5 -0.663008 2.236584 -1.29895 1.767767 -1.767767 
C 1.29895 -2.236584 0.663008 -2.5 0 -2.5 
C -0.663008 -2.5 -1.29895 -2.236584 -1.767767 -1.767767 
C -2.236584 -1.29895 -2.5 -0.663008 -2.5 0 
C -2.5 0.663008 -2.236584 1.29895 -1.767767 1.767767 
C -1.29895 2.236584 -0.663008 2.5 0 2.5 
z
" style="stroke: #7b1a6a"/>
    </defs>
    <g clip-path="url(#pa616f574f9)">
     <use xlink:href="#m0e520663cc" x="31.148182" y="173.496417" style="fill: #7b1a6a; stroke: #7b1a6a"/>
     <use xlink:href="#m0e520663cc" x="76.802727" y="141.158595" style="fill: #7b1a6a; stroke: #7b1a6a"/>
     <use xlink:href="#m0e520663cc" x="122.457273" y="114.106468" style="fill: #7b1a6a; stroke: #7b1a6a"/>
     <use xlink:href="#m0e520663cc" x="168.111818" y="106.859273" style="fill: #7b1a6a; stroke: #7b1a6a"/>
    </g>
   </g>
   <g id="matplotlib.axis_1">
    <g id="xtick_1">
     <g id="line2d_16">
      <path d="M 31.148182 192.24 
L 31.148182 25.92 
" clip-path="url(#pa616f574f9)" style="fill: none; stroke: #b0b0b0; stroke-opacity: 0.3; stroke-width: 0.5; stroke-linecap: square"/>
     </g>
     <g id="line2d_17">
      <defs>
       <path id="m4d18f27f39" d="M 0 0 
L 0 -3 
" style="stroke: #000000; stroke-width: 0.5"/>
      </defs>
      <g>
       <use xlink:href="#m4d18f27f39" x="31.148182" y="192.24" style="stroke: #000000; stroke-width: 0.5"/>
      </g>
     </g>
     <g id="text_1">
      <text style="font: 7px 'DejaVu Sans', 'Bitstream Vera Sans', 'Computer Modern Sans Serif', 'Lucida Grande', 'Verdana', 'Geneva', 'Lucid', 'Arial', 'Helvetica', 'Avant Garde', sans-serif; text-anchor: middle" x="31.148182" y="201.058906" transform="rotate(-0 31.148182 201.058906)">0</text>
     </g>
    </g>
    <g id="xtick_2">
     <g id="line2d_18">
      <path d="M 76.802727 192.24 
L 76.802727 25.92 
" clip-path="url(#pa616f574f9)" style="fill: none; stroke: #b0b0b0; stroke-opacity: 0.3; stroke-width: 0.5; stroke-linecap: square"/>
     </g>
     <g id="line2d_19">
      <g>
       <use xlink:href="#m4d18f27f39" x="76.802727" y="192.24" style="stroke: #000000; stroke-width: 0.5"/>
      </g>
     </g>
     <g id="text_2">
      <text style="font: 7px 'DejaVu Sans', 'Bitstream Vera Sans', 'Computer Modern Sans Serif', 'Lucida Grande', 'Verdana', 'Geneva', 'Lucid', 'Arial', 'Helvetica', 'Avant Garde', sans-serif; text-anchor: middle" x="76.802727" y="201.058906" transform="rotate(-0 76.802727 201.058906)">1</text>
     </g>
    </g>
    <g id="xtick_3">
     <g id="line2d_20">
      <path d="M 122.457273 192.24 
L 122.457273 25.92 
" clip-path="url(#pa616f574f9)" style="fill: none; stroke: #b0b0b0; stroke-opacity: 0.3; stroke-width: 0.5; stroke-linecap: square"/>
     </g>
     <g id="line2d_21">
      <g>
       <use xlink:href="#m4d18f27f39" x="122.457273" y="192.24" style="stroke: #000000; stroke-width: 0.5"/>
      </g>
     </g>
     <g id="text_3">
      <text style="font: 7px 'DejaVu Sans', 'Bitstream Vera Sans', 'Computer Modern Sans Serif', 'Lucida Grande', 'Verdana', 'Geneva', 'Lucid', 'Arial', 'Helvetica', 'Avant Garde', sans-serif; text-anchor: middle" x="122.457273" y="201.058906" transform="rotate(-0 122.457273 201.058906)">2</text>
     </g>
    </g>
    <g id="xtick_4">
     <g id="line2d_22">
      <path d="M 168.111818 192.24 
L 168.111818 25.92 
" clip-path="url(#pa616f574f9)" style="fill: none; stroke: #b0b0b0; stroke-opacity: 0.3; stroke-width: 0.5; stroke-linecap: square"/>
     </g>
     <g id="line2d_23">
      <g>
       <use xlink:href="#m4d18f27f39" x="168.111818" y="192.24" style="stroke: #000000; stroke-width: 0.5"/>
      </g>
     </g>
     <g id="text_4">
      <text style="font: 7px 'DejaVu Sans', 'Bitstream Vera Sans', 'Computer Modern Sans Serif', 'Lucida Grande', 'Verdana', 'Geneva', 'Lucid', 'Arial', 'Helvetica', 'Avant Garde', sans-serif; text-anchor: middle" x="168.111818" y="201.058906" transform="rotate(-0 168.111818 201.058906)">3</text>
     </g>
    </g>
    <g id="text_5">
     <text style="font: 7px 'DejaVu Sans', 'Bitstream Vera Sans', 'Computer Modern Sans Serif', 'Lucida Grande', 'Verdana', 'Geneva', 'Lucid', 'Arial', 'Helvetica', 'Avant Garde', sans-serif; text-anchor: middle" x="99.63" y="211.833594" transform="rotate(-0 99.63 211.833594)">DTL cycle</text>
    </g>
   </g>
   <g id="matplotlib.axis_2">
    <g id="ytick_1">
     <g id="line2d_24">
      <path d="M 24.3 192.24 
L 174.96 192.24 
" clip-path="url(#pa616f574f9)" style="fill: none; stroke: #b0b0b0; stroke-opacity: 0.3; stroke-width: 0.5; stroke-linecap: square"/>
     </g>
     <g id="line2d_25">
      <defs>
       <path id="mdce76efcab" d="M 0 0 
L 3 0 
" style="stroke: #000000; stroke-width: 0.5"/>
      </defs>
      <g>
       <use xlink:href="#mdce76efcab" x="24.3" y="192.24" style="stroke: #000000; stroke-width: 0.5"/>
      </g>
     </g>
     <g id="text_6">
      <text style="font: 7px 'DejaVu Sans', 'Bitstream Vera Sans', 'Computer Modern Sans Serif', 'Lucida Grande', 'Verdana', 'Geneva', 'Lucid', 'Arial', 'Helvetica', 'Avant Garde', sans-serif; text-anchor: end" x="20.8" y="194.899453" transform="rotate(-0 20.8 194.899453)">0.0</text>
     </g>
    </g>
    <g id="ytick_2">
     <g id="line2d_26">
      <path d="M 24.3 160.56 
L 174.96 160.56 
" clip-path="url(#pa616f574f9)" style="fill: none; stroke: #b0b0b0; stroke-opacity: 0.3; stroke-width: 0.5; stroke-linecap: square"/>
     </g>
     <g id="line2d_27">
      <g>
       <use xlink:href="#mdce76efcab" x="24.3" y="160.56" style="stroke: #000000; stroke-width: 0.5"/>
      </g>
     </g>
     <g id="text_7">
      <text style="font: 7px 'DejaVu Sans', 'Bitstream Vera Sans', 'Computer Modern Sans Serif', 'Lucida Grande', 'Verdana', 'Geneva', 'Lucid', 'Arial', 'Helvetica', 'Avant Garde', sans-serif; text-anchor: end" x="20.8" y="163.219453" transform="rotate(-0 20.8 163.219453)">0.2</text>
     </g>
    </g>
    <g id="ytick_3">
     <g id="line2d_28">
      <path d="M 24.3 128.88 
L 174.96 128.88 
" clip-path="url(#pa616f574f9)" style="fill: none; stroke: #b0b0b0; stroke-opacity: 0.3; stroke-width: 0.5; stroke-linecap: square"/>
     </g>
     <g id="line2d_29">
      <g>
       <use xlink:href="#mdce76efcab" x="24.3" y="128.88" style="stroke: #000000; stroke-width: 0.5"/>
      </g>
     </g>
     <g id="text_8">
      <text style="font: 7px 'DejaVu Sans', 'Bitstream Vera Sans', 'Computer Modern Sans Serif', 'Lucida Grande', 'Verdana', 'Geneva', 'Lucid', 'Arial', 'Helvetica', 'Avant Garde', sans-serif; text-anchor: end" x="20.8" y="131.539453" transform="rotate(-0 20.8 131.539453)">0.4</text>
     </g>
    </g>
    <g id="ytick_4">
     <g id="line2d_30">
      <path d="M 24.3 97.2 
L 174.96 97.2 
" clip-path="url(#pa616f574f9)" style="fill: none; stroke: #b0b0b0; stroke-opacity: 0.3; stroke-width: 0.5; stroke-linecap: square"/>
     </g>
     <g id="line2d_31">
      <g>
       <use xlink:href="#mdce76efcab" x="24.3" y="97.2" style="stroke: #000000; stroke-width: 0.5"/>
      </g>
     </g>
     <g id="text_9">
      <text style="font: 7px 'DejaVu Sans', 'Bitstream Vera Sans', 'Computer Modern Sans Serif', 'Lucida Grande', 'Verdana', 'Geneva', 'Lucid', 'Arial', 'Helvetica', 'Avant Garde', sans-serif; text-anchor: end" x="20.8" y="99.859453" transform="rotate(-0 20.8 99.859453)">0.6</text>
     </g>
    </g>
    <g id="ytick_5">
     <g id="line2d_32">
      <path d="M 24.3 65.52 
L 174.96 65.52 
" clip-path="url(#pa616f574f9)" style="fill: none; stroke: #b0b0b0; stroke-opacity: 0.3; stroke-width: 0.5; stroke-linecap: square"/>
     </g>
     <g id="line2d_33">
      <g>
       <use xlink:href="#mdce76efcab" x="24.3" y="65.52" style="stroke: #000000; stroke-width: 0.5"/>
      </g>
     </g>
     <g id="text_10">
      <text style="font: 7px 'DejaVu Sans', 'Bitstream Vera Sans', 'Computer Modern Sans Serif', 'Lucida Grande', 'Verdana', 'Geneva', 'Lucid', 'Arial', 'Helvetica', 'Avant Garde', sans-serif; text-anchor: end" x="20.8" y="68.179453" transform="rotate(-0 20.8 68.179453)">0.8</text>
     </g>
    </g>
    <g id="ytick_6">
     <g id="line2d_34">
      <path d="M 24.3 33.84 
L 174.96 33.84 
" clip-path="url(#pa616f574f9)" style="fill: none; stroke: #b0b0b0; stroke-opacity: 0.3; stroke-width: 0.5; stroke-linecap: square"/>
     </g>
     <g id="line2d_35">
      <g>
       <use xlink:href="#mdce76efcab" x="24.3" y="33.84" style="stroke: #000000; stroke-width: 0.5"/>
      </g>
     </g>
     <g id="text_11">
      <text style="font: 7px 'DejaVu Sans', 'Bitstream Vera Sans', 'Computer Modern Sans Serif', 'Lucida Grande', 'Verdana', 'Geneva', 'Lucid', 'Arial', 'Helvetica', 'Avant Garde', sans-serif; text-anchor: end" x="20.8" y="36.499453" transform="rotate(-0 20.8 36.499453)">1.0</text>
     </g>
    </g>
    <g id="text_12">
     <text style="font: 7px 'DejaVu Sans', 'Bitstream Vera Sans', 'Computer Modern Sans Serif', 'Lucida Grande', 'Verdana', 'Geneva', 'Lucid', 'Arial', 'Helvetica', 'Avant Garde', sans-serif; text-anchor: middle" x="4.212031" y="109.08" transform="rotate(-90 4.212031 109.08)">Pearson correlation</text>
    </g>
   </g>
   <g id="patch_3">
    <path d="M 24.3 192.24 
L 24.3 25.92 
" style="fill: none; stroke: #000000; stroke-width: 0.5; stroke-linejoin: miter; stroke-linecap: square"/>
   </g>
   <g id="patch_4">
    <path d="M 174.96 192.24 
L 174.96 25.92 
" style="fill: none; stroke: #000000; stroke-width: 0.5; stroke-linejoin: miter; stroke-linecap: square"/>
   </g>
   <g id="patch_5">
    <path d="M 24.3 192.24 
L 174.96 192.24 
" style="fill: none; stroke: #000000; stroke-width: 0.5; stroke-linejoin: miter; stroke-linecap: square"/>
   </g>
   <g id="patch_6">
    <path d="M 24.3 25.92 
L 174.96 25.92 
" style="fill: none; stroke: #000000; stroke-width: 0.5; stroke-linejoin: miter; stroke-linecap: square"/>
   </g>
   <g id="legend_1">
    <g id="patch_7">
     <path d="M 179.86 125.542031 
L 318.700625 125.542031 
Q 320.100625 125.542031 320.100625 124.142031 
L 320.100625 94.017969 
Q 320.100625 92.617969 318.700625 92.617969 
L 179.86 92.617969 
Q 178.46 92.617969 178.46 94.017969 
L 178.46 124.142031 
Q 178.46 125.542031 179.86 125.542031 
z
" style="fill: #ffffff; opacity: 0.8; stroke: #cccccc; stroke-linejoin: miter"/>
    </g>
    <g id="PathCollection_16">
     <g>
      <use xlink:href="#mfa1722492a" x="188.26" y="98.899375" style="fill: #0000ff; stroke: #0000ff"/>
     </g>
    </g>
    <g id="text_13">
     <text style="font: 7px 'DejaVu Sans', 'Bitstream Vera Sans', 'Computer Modern Sans Serif', 'Lucida Grande', 'Verdana', 'Geneva', 'Lucid', 'Arial', 'Helvetica', 'Avant Garde', sans-serif; text-anchor: start" x="195.96" y="100.736875" transform="rotate(-0 195.96 100.736875)">AC</text>
    </g>
    <g id="PathCollection_17">
     <g>
      <use xlink:href="#mb0c0cdd67c" x="188.26" y="109.174062" style="fill: #ff0000; stroke: #ff0000"/>
     </g>
    </g>
    <g id="text_14">
     <text style="font: 7px 'DejaVu Sans', 'Bitstream Vera Sans', 'Computer Modern Sans Serif', 'Lucida Grande', 'Verdana', 'Geneva', 'Lucid', 'Arial', 'Helvetica', 'Avant Garde', sans-serif; text-anchor: start" x="195.96" y="111.011562" transform="rotate(-0 195.96 111.011562)">BA</text>
    </g>
    <g id="PathCollection_18">
     <g>
      <use xlink:href="#ma3552a6e79" x="188.26" y="119.44875" style="fill: #00ff00; stroke: #00ff00"/>
     </g>
    </g>
    <g id="text_15">
     <text style="font: 7px 'DejaVu Sans', 'Bitstream Vera Sans', 'Computer Modern Sans Serif', 'Lucida Grande', 'Verdana', 'Geneva', 'Lucid', 'Arial', 'Helvetica', 'Avant Garde', sans-serif; text-anchor: start" x="195.96" y="121.28625" transform="rotate(-0 195.96 121.28625)">BH</text>
    </g>
    <g id="PathCollection_19">
     <g>
      <use xlink:href="#m329d530696" x="216.526875" y="98.899375" style="fill: #ff1ab9; stroke: #ff1ab9"/>
     </g>
    </g>
    <g id="text_16">
     <text style="font: 7px 'DejaVu Sans', 'Bitstream Vera Sans', 'Computer Modern Sans Serif', 'Lucida Grande', 'Verdana', 'Geneva', 'Lucid', 'Arial', 'Helvetica', 'Avant Garde', sans-serif; text-anchor: start" x="224.226875" y="100.736875" transform="rotate(-0 224.226875 100.736875)">BL</text>
    </g>
    <g id="PathCollection_20">
     <g>
      <use xlink:href="#m47ecb4cd40" x="216.526875" y="109.174062" style="fill: #ffd300; stroke: #ffd300"/>
     </g>
    </g>
    <g id="text_17">
     <text style="font: 7px 'DejaVu Sans', 'Bitstream Vera Sans', 'Computer Modern Sans Serif', 'Lucida Grande', 'Verdana', 'Geneva', 'Lucid', 'Arial', 'Helvetica', 'Avant Garde', sans-serif; text-anchor: start" x="224.226875" y="111.011562" transform="rotate(-0 224.226875 111.011562)">BU</text>
    </g>
    <g id="PathCollection_21">
     <g>
      <use xlink:href="#mc8ec8c120c" x="216.526875" y="119.44875" style="fill: #005800; stroke: #005800"/>
     </g>
    </g>
    <g id="text_18">
     <text style="font: 7px 'DejaVu Sans', 'Bitstream Vera Sans', 'Computer Modern Sans Serif', 'Lucida Grande', 'Verdana', 'Geneva', 'Lucid', 'Arial', 'Helvetica', 'Avant Garde', sans-serif; text-anchor: start" x="224.226875" y="121.28625" transform="rotate(-0 224.226875 121.28625)">CA</text>
    </g>
    <g id="PathCollection_22">
     <g>
      <use xlink:href="#m2309fb84d4" x="244.652656" y="98.899375" style="fill: #8484ff; stroke: #8484ff"/>
     </g>
    </g>
    <g id="text_19">
     <text style="font: 7px 'DejaVu Sans', 'Bitstream Vera Sans', 'Computer Modern Sans Serif', 'Lucida Grande', 'Verdana', 'Geneva', 'Lucid', 'Arial', 'Helvetica', 'Avant Garde', sans-serif; text-anchor: start" x="252.352656" y="100.736875" transform="rotate(-0 252.352656 100.736875)">CC</text>
    </g>
    <g id="PathCollection_23">
     <g>
      <use xlink:href="#m7434de57f4" x="244.652656" y="109.174062" style="fill: #9e4f46; stroke: #9e4f46"/>
     </g>
    </g>
    <g id="text_20">
     <text style="font: 7px 'DejaVu Sans', 'Bitstream Vera Sans', 'Computer Modern Sans Serif', 'Lucida Grande', 'Verdana', 'Geneva', 'Lucid', 'Arial', 'Helvetica', 'Avant Garde', sans-serif; text-anchor: start" x="252.352656" y="111.011562" transform="rotate(-0 252.352656 111.011562)">CH</text>
    </g>
    <g id="PathCollection_24">
     <g>
      <use xlink:href="#m25351d6ce2" x="244.652656" y="119.44875" style="fill: #00ffc1; stroke: #00ffc1"/>
     </g>
    </g>
    <g id="text_21">
     <text style="font: 7px 'DejaVu Sans', 'Bitstream Vera Sans', 'Computer Modern Sans Serif', 'Lucida Grande', 'Verdana', 'Geneva', 'Lucid', 'Arial', 'Helvetica', 'Avant Garde', sans-serif; text-anchor: start" x="252.352656" y="121.28625" transform="rotate(-0 252.352656 121.28625)">DF</text>
    </g>
    <g id="PathCollection_25">
     <g>
      <use xlink:href="#m891d2e25f4" x="273.004844" y="98.899375" style="fill: #008495; stroke: #008495"/>
     </g>
    </g>
    <g id="text_22">
     <text style="font: 7px 'DejaVu Sans', 'Bitstream Vera Sans', 'Computer Modern Sans Serif', 'Lucida Grande', 'Verdana', 'Geneva', 'Lucid', 'Arial', 'Helvetica', 'Avant Garde', sans-serif; text-anchor: start" x="280.704844" y="100.736875" transform="rotate(-0 280.704844 100.736875)">EL</text>
    </g>
    <g id="PathCollection_26">
     <g>
      <use xlink:href="#m418a4e4461" x="273.004844" y="109.174062" style="fill: #00007b; stroke: #00007b"/>
     </g>
    </g>
    <g id="text_23">
     <text style="font: 7px 'DejaVu Sans', 'Bitstream Vera Sans', 'Computer Modern Sans Serif', 'Lucida Grande', 'Verdana', 'Geneva', 'Lucid', 'Arial', 'Helvetica', 'Avant Garde', sans-serif; text-anchor: start" x="280.704844" y="111.011562" transform="rotate(-0 280.704844 111.011562)">ER</text>
    </g>
    <g id="PathCollection_27">
     <g>
      <use xlink:href="#mb81624855e" x="273.004844" y="119.44875" style="fill: #95d34f; stroke: #95d34f"/>
     </g>
    </g>
    <g id="text_24">
     <text style="font: 7px 'DejaVu Sans', 'Bitstream Vera Sans', 'Computer Modern Sans Serif', 'Lucida Grande', 'Verdana', 'Geneva', 'Lucid', 'Arial', 'Helvetica', 'Avant Garde', sans-serif; text-anchor: start" x="280.704844" y="121.28625" transform="rotate(-0 280.704844 121.28625)">FP</text>
    </g>
    <g id="PathCollection_28">
     <g>
      <use xlink:href="#m782fd26c6b" x="300.491875" y="98.899375" style="fill: #f69edc; stroke: #f69edc"/>
     </g>
    </g>
    <g id="text_25">
     <text style="font: 7px 'DejaVu Sans', 'Bitstream Vera Sans', 'Computer Modern Sans Serif', 'Lucida Grande', 'Verdana', 'Geneva', 'Lucid', 'Arial', 'Helvetica', 'Avant Garde', sans-serif; text-anchor: start" x="308.191875" y="100.736875" transform="rotate(-0 308.191875 100.736875)">PC</text>
    </g>
    <g id="PathCollection_29">
     <g>
      <use xlink:href="#m0a6a7c3fff" x="300.491875" y="109.174062" style="fill: #d312ff; stroke: #d312ff"/>
     </g>
    </g>
    <g id="text_26">
     <text style="font: 7px 'DejaVu Sans', 'Bitstream Vera Sans', 'Computer Modern Sans Serif', 'Lucida Grande', 'Verdana', 'Geneva', 'Lucid', 'Arial', 'Helvetica', 'Avant Garde', sans-serif; text-anchor: start" x="308.191875" y="111.011562" transform="rotate(-0 308.191875 111.011562)">PJ</text>
    </g>
    <g id="PathCollection_30">
     <g>
      <use xlink:href="#m0e520663cc" x="300.491875" y="119.44875" style="fill: #7b1a6a; stroke: #7b1a6a"/>
     </g>
    </g>
    <g id="text_27">
     <text style="font: 7px 'DejaVu Sans', 'Bitstream Vera Sans', 'Computer Modern Sans Serif', 'Lucida Grande', 'Verdana', 'Geneva', 'Lucid', 'Arial', 'Helvetica', 'Avant Garde', sans-serif; text-anchor: start" x="308.191875" y="121.28625" transform="rotate(-0 308.191875 121.28625)">RI</text>
    </g>
   </g>
  </g>
 </g>
 <defs>
  <clipPath id="pa616f574f9">
   <rect x="24.3" y="25.92" width="150.66" height="166.32"/>
  </clipPath>
 </defs>
</svg>
